# vtk DataFile Version 3.0
this file was written using fslvtkio
ASCII
DATASET POLYDATA
POINTS 642 float
129.611 125.842 156.222
112.835 122.026 153.66
107.13 106.87 145.748
125.778 109.675 150.24
123.697 113.577 162.108
127.197 119.448 143.946
115.447 117.377 143.337
111.672 112.278 160.579
119.406 128.657 163.608
116.389 102.125 151.374
117.127 104.1 139.419
122.768 133.283 150.407
115.036 120.955 164.061
122.31 121.679 164.935
117.358 112.487 163.221
112.795 105.147 157.261
120.337 106.321 157.532
120.114 125.468 147.412
121.454 118.738 143.215
127.285 129.467 146.128
114.626 110.384 139.161
121.621 110.613 142.828
125.642 110.824 156.28
127.36 120.842 160.943
129.383 117.786 153.132
127.717 113.729 146.43
129.963 125.614 149.497
111.411 117.783 157.889
108.135 107.944 153.892
109.14 113.899 149.684
114.073 120.654 148.336
110.46 110.917 143.011
128.766 133.329 153.062
126.28 129.119 161.559
121.211 133.449 157.932
117.38 128.856 153.259
114.6 126.765 159.796
122.905 104.09 144.049
114.682 99.911 143.938
122.514 102.047 150.365
109.171 105.29 138.567
110.338 103.224 148.02
118.592 121.377 165.442
119.888 116.871 164.733
116.111 116.514 164.638
120.693 112.641 162.926
123.297 117.642 164.203
121.043 125.439 164.937
116.864 125.031 164.461
113.451 116.572 162.781
114.194 111.756 162.49
115.143 108.427 160.773
118.917 109.288 160.959
116.689 105.6 158.065
122.233 109.734 159.953
111.866 108.207 159.219
114.766 103.533 154.682
118.622 103.79 154.788
121.051 122.42 145.058
124.71 124.486 144.809
123.507 127.964 146.295
127.531 124.616 144.492
124.329 119.259 143.595
118.443 118.188 142.991
117.888 121.18 145.958
121.362 129.557 148.739
125.051 132.046 147.65
118.323 110.359 140.233
121.669 114.854 142.699
118.14 113.982 141.54
124.647 114.79 143.513
119.987 107.197 140.328
115.753 107.341 138.63
115.342 113.671 141.64
127.123 115.804 158.915
128.994 118.868 157.247
128.051 114.104 155.185
129.598 121.755 154.635
128.849 123.106 158.743
125.87 117.054 161.846
124.966 111.911 159.211
125.916 109.935 153.249
128.494 113.618 151.826
128.954 115.984 149.627
129.687 121.57 151.243
129.218 119.719 147.923
129.879 126.059 152.717
127.128 111.411 148.314
127.781 116.334 144.916
129.084 122.599 146.419
109.505 112.859 156.236
108.274 111.147 152.131
110.278 115.519 154.008
108.17 110.217 147.901
107.297 107.148 150.081
109.702 110.042 157.447
111.438 115.47 159.681
112.018 119.987 155.813
111.357 117.44 151.725
111.426 116.96 148.759
109.583 112.279 146.109
111.745 115.942 145.503
108.098 108.933 143.625
113.387 121.397 150.867
114.828 118.827 145.965
112.792 114.26 143.103
127.91 131.813 157.701
123.989 132.288 160.107
125.415 134.21 155.234
119.833 131.819 161.457
122.948 129.151 162.967
128.642 127.659 159.144
129.674 129.811 155.056
126.211 134.701 150.601
121.952 134.118 153.828
119.144 132.084 155.572
117.478 131.121 159.441
115.873 128.368 156.615
116.524 128.221 162.227
120.034 131.075 151.833
114.814 125.579 153.465
113.624 124.601 156.763
119.757 100.288 143.317
119.169 99.652 146.968
123.49 102.2 146.831
119.496 101.751 151.037
115.634 100.157 147.656
116.268 101.114 141.049
120.387 103.669 141.268
124.681 106.851 147.382
124.605 105.322 150.378
108.877 102.951 142.737
112.183 100.749 146.066
111.808 101.679 141.005
113.239 102.564 150.069
108.062 104.549 147.13
107.463 106.051 141.441
113.052 104.033 138.957
125.393 120.975 163.733
124.475 125.767 164.119
127.411 125.286 161.645
129.826 129.901 151.342
128.229 132.847 148.912
129.201 127.109 146.974
121.703 103.859 154.025
123.287 108.004 157.004
124.203 106.045 153.259
124.967 109.202 145.797
125.354 112.13 144.296
122.562 107.321 143.016
114.321 124.457 162.427
112.688 119.564 161.362
112.626 122.414 158.91
115.504 125.025 150.726
116.786 123.29 147.823
118.567 127.526 150.075
108.663 104.72 151.22
109.978 106.407 156.187
111.572 103.561 153.063
112.109 107.658 137.891
112.453 110.564 141.28
108.175 108.687 139.594
119.185 119.088 165.286
117.965 116.824 164.949
117.35 118.929 165.267
116.883 114.626 164.195
118.53 114.879 164.245
120.846 119.285 164.977
120.35 121.217 165.277
116.756 120.871 165.021
115.776 118.845 164.704
120.267 114.86 163.978
121.582 117.403 164.545
121.887 115.212 163.861
122.668 119.665 164.716
119.046 112.963 163.318
122.231 113.228 162.773
123.363 115.456 163.33
119.835 123.3 165.42
117.668 123.093 165.134
118.92 124.956 165.018
116.003 122.883 164.502
121.631 123.452 165.063
120.055 126.915 164.455
118.192 126.652 164.276
114.711 116.769 163.96
115.231 114.251 163.833
113.821 114.266 163.046
115.753 112.355 163.193
114.306 118.826 163.683
112.644 114.361 161.944
112.923 112.21 161.815
117.072 108.928 161.007
117.794 107.437 159.552
115.957 107 159.499
118.549 106.216 158.18
119.416 107.695 159.363
118.122 110.911 162.144
116.295 110.421 162.044
114.12 106.721 159.178
114.827 105.547 158.052
120.569 109.308 160.437
119.716 111.053 162.044
121.702 111.19 161.679
121.051 107.938 158.887
123.083 111.67 161.186
114.814 110.116 161.863
113.464 108.082 160.08
113.003 110.047 161.046
112.33 106.462 158.44
111.782 110.266 160.19
115.605 104.462 156.63
117.748 104.767 156.676
116.735 103.74 155.059
119.401 105.016 156.442
113.787 104.306 156.179
115.776 102.85 153.258
117.477 102.848 153.346
122.808 123.601 144.911
124.114 126.206 145.507
122.38 125.236 145.845
125.254 128.658 145.862
125.929 127.099 145.318
123.134 121.961 144.229
121.557 120.898 144.146
120.878 124.255 146.187
121.823 126.521 146.741
126.131 124.872 144.641
124.496 121.967 144.114
125.968 122.045 144.023
123.025 119.721 143.609
127.484 127.212 145.318
127.312 121.907 144.039
125.716 119.428 143.739
119.983 120.222 144.298
119.575 122.047 145.667
118.337 119.747 144.558
119.173 123.397 146.708
120.015 118.52 143.028
116.99 117.884 143.156
116.813 119.137 144.727
122.316 128.617 147.421
124.244 130.019 146.655
123.026 130.854 147.834
126.095 130.704 146.623
120.848 127.469 148.028
122.127 131.504 149.28
123.629 132.601 148.701
119.893 112.304 142.145
119.977 114.604 142.083
118.217 112.038 141.149
119.741 116.344 142.292
121.552 116.932 142.85
121.324 112.444 142.681
119.983 110.741 141.593
116.728 110.552 139.565
116.58 111.855 140.507
122.963 117.299 143.18
122.949 114.628 143.154
124.57 116.977 143.488
122.954 112.727 143.371
126.056 117.101 143.635
119.242 109.031 140.174
117.233 109.034 138.76
118.038 107.386 139.313
115.211 109.081 138.373
120.68 109.004 141.523
118.658 105.731 139.632
116.672 105.847 138.938
116.856 113.87 141.568
118.512 116.506 142.184
116.791 116.225 142.203
115.211 111.612 140.804
115.429 115.667 142.394
128.075 117.339 158.107
128.654 116.512 156.271
127.65 115.006 157.051
128.87 116.006 154.562
129.191 117.857 155.262
128.126 119.491 159.023
127.369 118.284 159.713
126.68 113.515 157.578
126.937 112.804 156.111
129.406 119.975 155.912
128.922 120.892 158.209
129.403 122.119 156.756
128.04 121.811 159.853
129.475 119.581 154.073
129.602 123.679 155.501
129.433 124.173 157.376
126.548 116.63 160.341
126.08 113.858 159.062
125.574 114.521 160.719
125.514 111.591 157.736
126.672 119.061 161.342
124.806 115.248 162.143
124.492 112.719 160.719
127.048 112.027 154.428
128.369 113.928 153.568
127.121 111.883 152.729
129.074 115.744 152.711
125.882 110.481 154.9
125.957 109.935 151.732
127.321 111.775 151.12
129.491 118.756 150.584
129.543 120.513 149.611
129.192 117.83 148.881
129.677 122.317 148.841
129.778 123.19 150.171
129.554 119.528 152.083
129.32 117.208 151.353
128.37 115.314 147.952
128.631 117.066 147.424
129.728 123.791 151.8
129.704 121.4 152.938
129.733 123.793 153.639
129.959 125.726 150.998
129.753 125.66 154.509
128.943 115.012 150.95
128.228 113.884 148.87
127.942 112.741 149.998
127.563 112.588 147.369
126.534 110.756 149.431
128.535 118.168 146.418
129.324 121.348 147.305
128.502 119.705 145.716
129.728 124.097 148.115
127.905 115.486 146.004
127.643 118.029 144.48
128.249 120.964 144.896
108.767 112.047 154.249
109.211 113.336 153.084
109.642 114.22 155.049
109.449 114.436 152.009
108.759 112.709 151.184
108.157 109.918 153.339
108.679 110.582 155.091
110.422 115.093 156.765
110.73 116.29 155.95
108.111 110.844 150.16
107.75 109.212 151.305
107.604 108.976 149.32
107.719 107.773 152.108
108.562 112.051 149.079
107.519 108.634 147.139
107.153 107.266 148.061
109.401 111.371 156.849
110.447 114.148 157.919
110.459 112.836 158.754
111.196 116.456 158.578
108.763 108.89 155.668
110.636 111.275 159.143
111.556 113.991 160.339
111.199 117.542 155.03
110.626 116.324 152.773
111.707 118.39 153.833
110.05 115.548 150.872
111.605 118.676 156.773
112.303 120.593 154.435
112.18 119.388 152.662
110.102 114.802 147.377
110.488 114.193 145.82
111.479 116.276 147.116
111.016 113.613 144.51
110.132 111.899 144.62
109.331 113.338 147.904
110.16 115.402 149.028
112.606 118.446 148.233
112.739 117.907 146.942
109.395 110.379 144.995
108.876 111.474 147.218
108.234 109.504 145.894
109.203 109.967 143.176
107.451 108.084 144.883
111.182 116.972 150.266
112.557 118.861 149.655
112.49 119.308 151.222
113.571 120.815 149.455
112.987 121.464 152.261
113.161 117.498 145.651
112.149 115.181 144.24
113.611 116.848 144.272
111.585 112.71 143.408
114.262 119.529 147.156
115.096 118.231 144.554
114.091 115.951 143.137
126.032 132.381 158.814
124.886 133.387 157.817
126.658 133.325 156.795
123.525 133.828 156.759
122.905 133.17 158.812
125.401 131.054 160.669
126.938 130.801 159.626
128.351 132.88 155.633
127.322 134.066 154.489
122.042 132.28 160.827
123.608 130.888 161.711
121.469 130.689 162.354
124.8 129.347 162.327
120.68 132.852 159.77
119.437 130.389 162.782
121.183 128.938 163.523
128.315 129.843 158.577
129.235 131.002 156.59
129.452 128.603 157.188
129.433 131.899 154.519
127.538 128.881 160.208
129.325 126.528 157.853
129.676 127.777 155.672
125.89 134.687 152.97
123.729 134.376 154.473
124.095 134.64 152.154
121.889 133.988 155.926
127.622 134.432 152.125
124.177 134.358 150.391
122.111 133.696 152.241
118.284 131.757 157.532
116.75 130.041 157.933
117.46 130.469 156.398
115.351 127.976 158.218
116.023 129.109 159.439
119.178 132.628 158.82
119.942 133.187 156.766
118.027 130.422 154.73
116.688 128.938 155.126
116.796 129.914 160.769
118.663 131.88 160.437
117.973 130.443 162.239
115.568 127.9 160.901
117.814 128.498 163.226
120.43 133.442 154.881
119.399 131.538 153.844
120.742 132.77 152.88
118.625 130.113 152.778
121.438 132.076 150.99
115.406 127.046 154.964
114.733 126.558 156.748
114.029 125.065 155.011
114.151 125.925 158.311
116.103 127.454 153.584
113.658 123.827 153.479
113.066 123.254 155.198
119.719 99.7589 145.155
121.623 100.423 146.841
122.04 100.813 144.971
122.693 101.61 148.425
120.879 100.595 148.416
117.27 99.5238 145.457
117.542 99.8928 143.859
121.641 101.638 143.387
123.177 102.91 145.186
119.332 100.632 148.992
117.383 99.7707 147.326
117.545 100.902 149.38
115.174 99.6412 145.783
120.965 101.638 150.45
117.997 101.956 151.418
115.893 101.32 149.455
118.032 100.549 142.213
120.229 101.722 141.904
118.445 102.025 140.55
121.701 103.444 142.654
115.616 100.303 142.536
116.679 102.543 139.888
119.079 104.013 140.109
124.275 104.333 146.985
124.207 103.315 148.593
124.695 106.033 148.911
123.856 103.197 150.151
123.973 105.174 145.705
125.179 108.254 148.913
125.061 107.622 150.484
110.43 101.499 144.143
111.65 100.62 143.326
110.062 101.947 141.678
113.188 100.625 142.362
113.173 100.012 144.959
110.965 101.996 146.412
109.663 102.705 145.066
108.772 103.677 140.532
110.286 103.195 139.797
114.152 100.1 146.946
112.511 101.666 147.704
114.358 101.513 148.899
111.731 102.746 148.948
114.829 102.305 150.951
108.521 103.878 144.477
108.031 104.497 141.899
107.59 105.007 144.198
107.82 105.536 139.541
109.17 103.767 146.895
107.395 105.619 146.585
107.355 106.393 143.617
112.363 102.528 139.859
114.371 101.2 141.279
114.761 102.495 139.727
111.082 104.399 138.73
115.165 104.08 139.126
125.183 123.575 164.07
126.128 125.507 163.185
126.41 123.424 163.008
127.036 127.271 161.834
125.563 127.528 163.125
123.521 123.677 164.734
124.088 121.513 164.586
126.453 121.166 162.461
127.418 123.08 161.602
123.929 127.665 163.523
122.789 125.42 164.504
121.944 127.384 164.04
124.353 119.393 164.194
125.854 118.991 162.808
124.664 117.025 163.124
128.135 124.015 160.336
128.041 126.678 160.512
128.943 125.277 158.971
129.217 131.335 150.117
129.029 130.277 148.162
129.588 128.992 149.056
128.595 128.455 146.375
128.018 131.275 147.228
128.791 133.309 150.926
129.517 131.687 152.412
129.928 127.824 150.33
129.767 126.48 148.211
126.661 132.398 147.674
127.614 134.249 149.863
125.031 133.638 149.129
129.82 130.008 153.274
129.948 127.929 152.003
129.84 127.761 154.039
129.284 124.57 146.736
128.62 125.69 145.396
128.445 122.807 144.835
122.487 105.942 155.528
123.809 107.209 155.192
123.161 104.796 153.767
124.79 108.415 154.865
124.49 109.189 156.435
121.857 106.973 157.153
121.115 105.198 155.793
122.239 102.873 152.267
123.634 103.752 151.862
124.245 109.938 157.929
122.61 108.675 158.423
123.71 110.679 159.696
120.231 103.933 154.666
120.806 102.546 152.563
119.105 102.733 153.007
124.428 105.469 151.799
125.054 108.221 153.549
125.042 107.864 151.85
125.42 110.734 145.056
123.731 109.836 144.026
123.913 108.176 144.415
122.257 109.155 142.943
123.455 111.276 143.668
127.023 112.769 145.163
126.673 111.244 146.134
123.833 106.542 144.987
122.865 105.721 143.419
124.889 113.288 143.766
126.963 114.029 144.597
126.496 115.626 143.906
126.092 110.421 147.128
124.605 107.884 146.51
125.381 109.411 148.184
121.718 105.341 142.116
121.446 107.477 141.789
120.364 105.617 140.739
113.384 122.103 161.989
112.501 121.227 160.305
113.275 123.516 160.768
112.072 120.155 158.547
111.944 118.938 159.657
113.712 120.443 162.818
114.505 122.745 163.367
114.23 125.644 161.083
113.438 124.617 159.482
112.075 117.554 160.338
113.167 118.243 162.294
112.355 115.955 161.292
115.403 124.678 163.635
115.139 126.529 162.196
116.66 126.801 163.496
113.167 123.707 157.862
112.194 121.172 157.389
112.695 122.243 156.055
116.195 124.254 149.248
117.741 125.426 149.018
117.059 126.329 150.488
119.285 126.375 148.672
118.384 124.386 147.71
115.34 122.241 148.119
114.816 122.999 149.435
116.451 126.916 151.994
117.847 128.189 151.645
117.409 122.345 146.884
115.596 120.984 147.083
116.345 119.775 146.05
114.336 123.112 150.593
115.108 125.522 152.069
113.908 123.488 152.115
119.131 129.365 151.102
119.986 128.173 149.411
120.652 130.362 150.175
109.176 105.263 153.878
110.516 104.65 154.661
110.036 104.054 152.275
112.023 104.195 155.269
111.159 105.508 156.688
108.889 106.954 155.038
108.121 106.094 152.904
109.577 103.901 149.653
110.947 103.307 150.671
110.954 107.167 157.885
109.698 108.186 156.902
110.722 109.448 158.76
107.649 105.92 151.083
108.585 104.424 149.139
107.353 105.686 148.653
112.457 103.114 151.546
113.14 103.507 154.149
114.218 102.874 152.537
111.88 109.838 138.876
110.233 109.989 139.848
109.957 108.356 138.162
109.436 110.024 141.224
111.721 110.711 142.384
113.763 110.527 140.627
113.205 109.604 138.02
110.695 106.228 137.898
108.274 107.12 138.467
112.779 112.305 142.542
114.085 112.158 141.694
114.06 114.169 142.289
113.976 107.751 138.229
112.623 105.54 138.263
114.863 105.563 138.59
107.678 107.138 140.352
108.292 109.167 141.622
107.534 107.54 142.914
POLYGONS 1280  5120
3 164 162 163
3 163 44 164
3 162 43 163
3 164 42 162
3 166 165 163
3 163 43 166
3 165 44 163
3 166 14 165
3 168 167 162
3 162 42 168
3 167 43 162
3 168 13 167
3 170 169 164
3 164 44 170
3 169 42 164
3 170 12 169
3 173 171 172
3 172 46 173
3 171 43 172
3 173 45 171
3 167 174 172
3 172 43 167
3 174 46 172
3 167 13 174
3 175 166 171
3 171 45 175
3 166 43 171
3 175 14 166
3 177 176 173
3 173 46 177
3 176 45 173
3 177 4 176
3 180 178 179
3 179 48 180
3 178 42 179
3 180 47 178
3 169 181 179
3 179 42 169
3 181 48 179
3 169 12 181
3 182 168 178
3 178 47 182
3 168 42 178
3 182 13 168
3 184 183 180
3 180 48 184
3 183 47 180
3 184 8 183
3 187 185 186
3 186 50 187
3 185 44 186
3 187 49 185
3 165 188 186
3 186 44 165
3 188 50 186
3 165 14 188
3 189 170 185
3 185 49 189
3 170 44 185
3 189 12 170
3 191 190 187
3 187 50 191
3 190 49 187
3 191 7 190
3 194 192 193
3 193 53 194
3 192 52 193
3 194 51 192
3 196 195 193
3 193 52 196
3 195 53 193
3 196 16 195
3 198 197 192
3 192 51 198
3 197 52 192
3 198 14 197
3 200 199 194
3 194 53 200
3 199 51 194
3 200 15 199
3 203 201 202
3 202 45 203
3 201 52 202
3 203 54 201
3 197 175 202
3 202 52 197
3 175 45 202
3 197 14 175
3 204 196 201
3 201 54 204
3 196 52 201
3 204 16 196
3 176 205 203
3 203 45 176
3 205 54 203
3 176 4 205
3 208 206 207
3 207 55 208
3 206 51 207
3 208 50 206
3 199 209 207
3 207 51 199
3 209 55 207
3 199 15 209
3 188 198 206
3 206 50 188
3 198 51 206
3 188 14 198
3 210 191 208
3 208 55 210
3 191 50 208
3 210 7 191
3 213 211 212
3 212 57 213
3 211 53 212
3 213 56 211
3 195 214 212
3 212 53 195
3 214 57 212
3 195 16 214
3 215 200 211
3 211 56 215
3 200 53 211
3 215 15 200
3 217 216 213
3 213 57 217
3 216 56 213
3 217 9 216
3 220 218 219
3 219 60 220
3 218 59 219
3 220 58 218
3 222 221 219
3 219 59 222
3 221 60 219
3 222 19 221
3 224 223 218
3 218 58 224
3 223 59 218
3 224 18 223
3 226 225 220
3 220 60 226
3 225 58 220
3 226 17 225
3 229 227 228
3 228 62 229
3 227 59 228
3 229 61 227
3 223 230 228
3 228 59 223
3 230 62 228
3 223 18 230
3 231 222 227
3 227 61 231
3 222 59 227
3 231 19 222
3 233 232 229
3 229 62 233
3 232 61 229
3 233 5 232
3 236 234 235
3 235 64 236
3 234 58 235
3 236 63 234
3 225 237 235
3 235 58 225
3 237 64 235
3 225 17 237
3 238 224 234
3 234 63 238
3 224 58 234
3 238 18 224
3 240 239 236
3 236 64 240
3 239 63 236
3 240 6 239
3 243 241 242
3 242 66 243
3 241 60 242
3 243 65 241
3 221 244 242
3 242 60 221
3 244 66 242
3 221 19 244
3 245 226 241
3 241 65 245
3 226 60 241
3 245 17 226
3 247 246 243
3 243 66 247
3 246 65 243
3 247 11 246
3 250 248 249
3 249 69 250
3 248 68 249
3 250 67 248
3 252 251 249
3 249 68 252
3 251 69 249
3 252 18 251
3 254 253 248
3 248 67 254
3 253 68 248
3 254 21 253
3 256 255 250
3 250 69 256
3 255 67 250
3 256 20 255
3 259 257 258
3 258 70 259
3 257 68 258
3 259 62 257
3 253 260 258
3 258 68 253
3 260 70 258
3 253 21 260
3 230 252 257
3 257 62 230
3 252 68 257
3 230 18 252
3 261 233 259
3 259 70 261
3 233 62 259
3 261 5 233
3 264 262 263
3 263 72 264
3 262 67 263
3 264 71 262
3 255 265 263
3 263 67 255
3 265 72 263
3 255 20 265
3 266 254 262
3 262 71 266
3 254 67 262
3 266 21 254
3 268 267 264
3 264 72 268
3 267 71 264
3 268 10 267
3 271 269 270
3 270 63 271
3 269 69 270
3 271 73 269
3 251 238 270
3 270 69 251
3 238 63 270
3 251 18 238
3 272 256 269
3 269 73 272
3 256 69 269
3 272 20 256
3 239 273 271
3 271 63 239
3 273 73 271
3 239 6 273
3 276 274 275
3 275 76 276
3 274 75 275
3 276 74 274
3 278 277 275
3 275 75 278
3 277 76 275
3 278 24 277
3 280 279 274
3 274 74 280
3 279 75 274
3 280 23 279
3 282 281 276
3 276 76 282
3 281 74 276
3 282 22 281
3 285 283 284
3 284 78 285
3 283 75 284
3 285 77 283
3 279 286 284
3 284 75 279
3 286 78 284
3 279 23 286
3 287 278 283
3 283 77 287
3 278 75 283
3 287 24 278
3 289 288 285
3 285 78 289
3 288 77 285
3 289 0 288
3 292 290 291
3 291 80 292
3 290 74 291
3 292 79 290
3 281 293 291
3 291 74 281
3 293 80 291
3 281 22 293
3 294 280 290
3 290 79 294
3 280 74 290
3 294 23 280
3 296 295 292
3 292 80 296
3 295 79 292
3 296 4 295
3 299 297 298
3 298 82 299
3 297 76 298
3 299 81 297
3 277 300 298
3 298 76 277
3 300 82 298
3 277 24 300
3 301 282 297
3 297 81 301
3 282 76 297
3 301 22 282
3 303 302 299
3 299 82 303
3 302 81 299
3 303 3 302
3 306 304 305
3 305 85 306
3 304 84 305
3 306 83 304
3 308 307 305
3 305 84 308
3 307 85 305
3 308 26 307
3 310 309 304
3 304 83 310
3 309 84 304
3 310 24 309
3 312 311 306
3 306 85 312
3 311 83 306
3 312 25 311
3 315 313 314
3 314 77 315
3 313 84 314
3 315 86 313
3 309 287 314
3 314 84 309
3 287 77 314
3 309 24 287
3 316 308 313
3 313 86 316
3 308 84 313
3 316 26 308
3 288 317 315
3 315 77 288
3 317 86 315
3 288 0 317
3 320 318 319
3 319 87 320
3 318 83 319
3 320 82 318
3 311 321 319
3 319 83 311
3 321 87 319
3 311 25 321
3 300 310 318
3 318 82 300
3 310 83 318
3 300 24 310
3 322 303 320
3 320 87 322
3 303 82 320
3 322 3 303
3 325 323 324
3 324 89 325
3 323 85 324
3 325 88 323
3 307 326 324
3 324 85 307
3 326 89 324
3 307 26 326
3 327 312 323
3 323 88 327
3 312 85 323
3 327 25 312
3 329 328 325
3 325 89 329
3 328 88 325
3 329 5 328
3 332 330 331
3 331 92 332
3 330 91 331
3 332 90 330
3 334 333 331
3 331 91 334
3 333 92 331
3 334 29 333
3 336 335 330
3 330 90 336
3 335 91 330
3 336 28 335
3 338 337 332
3 332 92 338
3 337 90 332
3 338 27 337
3 341 339 340
3 340 94 341
3 339 91 340
3 341 93 339
3 335 342 340
3 340 91 335
3 342 94 340
3 335 28 342
3 343 334 339
3 339 93 343
3 334 91 339
3 343 29 334
3 345 344 341
3 341 94 345
3 344 93 341
3 345 2 344
3 348 346 347
3 347 96 348
3 346 90 347
3 348 95 346
3 337 349 347
3 347 90 337
3 349 96 347
3 337 27 349
3 350 336 346
3 346 95 350
3 336 90 346
3 350 28 336
3 352 351 348
3 348 96 352
3 351 95 348
3 352 7 351
3 355 353 354
3 354 98 355
3 353 92 354
3 355 97 353
3 333 356 354
3 354 92 333
3 356 98 354
3 333 29 356
3 357 338 353
3 353 97 357
3 338 92 353
3 357 27 338
3 359 358 355
3 355 98 359
3 358 97 355
3 359 1 358
3 362 360 361
3 361 101 362
3 360 100 361
3 362 99 360
3 364 363 361
3 361 100 364
3 363 101 361
3 364 31 363
3 366 365 360
3 360 99 366
3 365 100 360
3 366 29 365
3 368 367 362
3 362 101 368
3 367 99 362
3 368 30 367
3 371 369 370
3 370 93 371
3 369 100 370
3 371 102 369
3 365 343 370
3 370 100 365
3 343 93 370
3 365 29 343
3 372 364 369
3 369 102 372
3 364 100 369
3 372 31 364
3 344 373 371
3 371 93 344
3 373 102 371
3 344 2 373
3 376 374 375
3 375 103 376
3 374 99 375
3 376 98 374
3 367 377 375
3 375 99 367
3 377 103 375
3 367 30 377
3 356 366 374
3 374 98 356
3 366 99 374
3 356 29 366
3 378 359 376
3 376 103 378
3 359 98 376
3 378 1 359
3 381 379 380
3 380 105 381
3 379 101 380
3 381 104 379
3 363 382 380
3 380 101 363
3 382 105 380
3 363 31 382
3 383 368 379
3 379 104 383
3 368 101 379
3 383 30 368
3 385 384 381
3 381 105 385
3 384 104 381
3 385 6 384
3 388 386 387
3 387 108 388
3 386 107 387
3 388 106 386
3 390 389 387
3 387 107 390
3 389 108 387
3 390 34 389
3 392 391 386
3 386 106 392
3 391 107 386
3 392 33 391
3 394 393 388
3 388 108 394
3 393 106 388
3 394 32 393
3 397 395 396
3 396 110 397
3 395 107 396
3 397 109 395
3 391 398 396
3 396 107 391
3 398 110 396
3 391 33 398
3 399 390 395
3 395 109 399
3 390 107 395
3 399 34 390
3 401 400 397
3 397 110 401
3 400 109 397
3 401 8 400
3 404 402 403
3 403 112 404
3 402 106 403
3 404 111 402
3 393 405 403
3 403 106 393
3 405 112 403
3 393 32 405
3 406 392 402
3 402 111 406
3 392 106 402
3 406 33 392
3 408 407 404
3 404 112 408
3 407 111 404
3 408 0 407
3 411 409 410
3 410 114 411
3 409 108 410
3 411 113 409
3 389 412 410
3 410 108 389
3 412 114 410
3 389 34 412
3 413 394 409
3 409 113 413
3 394 108 409
3 413 32 394
3 415 414 411
3 411 114 415
3 414 113 411
3 415 11 414
3 418 416 417
3 417 117 418
3 416 116 417
3 418 115 416
3 420 419 417
3 417 116 420
3 419 117 417
3 420 36 419
3 422 421 416
3 416 115 422
3 421 116 416
3 422 34 421
3 424 423 418
3 418 117 424
3 423 115 418
3 424 35 423
3 427 425 426
3 426 109 427
3 425 116 426
3 427 118 425
3 421 399 426
3 426 116 421
3 399 109 426
3 421 34 399
3 428 420 425
3 425 118 428
3 420 116 425
3 428 36 420
3 400 429 427
3 427 109 400
3 429 118 427
3 400 8 429
3 432 430 431
3 431 119 432
3 430 115 431
3 432 114 430
3 423 433 431
3 431 115 423
3 433 119 431
3 423 35 433
3 412 422 430
3 430 114 412
3 422 115 430
3 412 34 422
3 434 415 432
3 432 119 434
3 415 114 432
3 434 11 415
3 437 435 436
3 436 121 437
3 435 117 436
3 437 120 435
3 419 438 436
3 436 117 419
3 438 121 436
3 419 36 438
3 439 424 435
3 435 120 439
3 424 117 435
3 439 35 424
3 441 440 437
3 437 121 441
3 440 120 437
3 441 1 440
3 444 442 443
3 443 124 444
3 442 123 443
3 444 122 442
3 446 445 443
3 443 123 446
3 445 124 443
3 446 39 445
3 448 447 442
3 442 122 448
3 447 123 442
3 448 38 447
3 450 449 444
3 444 124 450
3 449 122 444
3 450 37 449
3 453 451 452
3 452 126 453
3 451 123 452
3 453 125 451
3 447 454 452
3 452 123 447
3 454 126 452
3 447 38 454
3 455 446 451
3 451 125 455
3 446 123 451
3 455 39 446
3 457 456 453
3 453 126 457
3 456 125 453
3 457 9 456
3 460 458 459
3 459 128 460
3 458 122 459
3 460 127 458
3 449 461 459
3 459 122 449
3 461 128 459
3 449 37 461
3 462 448 458
3 458 127 462
3 448 122 458
3 462 38 448
3 464 463 460
3 460 128 464
3 463 127 460
3 464 10 463
3 467 465 466
3 466 130 467
3 465 124 466
3 467 129 465
3 445 468 466
3 466 124 445
3 468 130 466
3 445 39 468
3 469 450 465
3 465 129 469
3 450 124 465
3 469 37 450
3 471 470 467
3 467 130 471
3 470 129 467
3 471 3 470
3 474 472 473
3 473 133 474
3 472 132 473
3 474 131 472
3 476 475 473
3 473 132 476
3 475 133 473
3 476 38 475
3 478 477 472
3 472 131 478
3 477 132 472
3 478 41 477
3 480 479 474
3 474 133 480
3 479 131 474
3 480 40 479
3 483 481 482
3 482 134 483
3 481 132 482
3 483 126 481
3 477 484 482
3 482 132 477
3 484 134 482
3 477 41 484
3 454 476 481
3 481 126 454
3 476 132 481
3 454 38 476
3 485 457 483
3 483 134 485
3 457 126 483
3 485 9 457
3 488 486 487
3 487 136 488
3 486 131 487
3 488 135 486
3 479 489 487
3 487 131 479
3 489 136 487
3 479 40 489
3 490 478 486
3 486 135 490
3 478 131 486
3 490 41 478
3 492 491 488
3 488 136 492
3 491 135 488
3 492 2 491
3 495 493 494
3 494 127 495
3 493 133 494
3 495 137 493
3 475 462 494
3 494 133 475
3 462 127 494
3 475 38 462
3 496 480 493
3 493 137 496
3 480 133 493
3 496 40 480
3 463 497 495
3 495 127 463
3 497 137 495
3 463 10 497
3 500 498 499
3 499 140 500
3 498 139 499
3 500 138 498
3 502 501 499
3 499 139 502
3 501 140 499
3 502 33 501
3 504 503 498
3 498 138 504
3 503 139 498
3 504 13 503
3 506 505 500
3 500 140 506
3 505 138 500
3 506 23 505
3 509 507 508
3 508 47 509
3 507 139 508
3 509 110 507
3 503 182 508
3 508 139 503
3 182 47 508
3 503 13 182
3 398 502 507
3 507 110 398
3 502 139 507
3 398 33 502
3 183 401 509
3 509 47 183
3 401 110 509
3 183 8 401
3 512 510 511
3 511 79 512
3 510 138 511
3 512 46 510
3 505 294 511
3 511 138 505
3 294 79 511
3 505 23 294
3 174 504 510
3 510 46 174
3 504 138 510
3 174 13 504
3 295 177 512
3 512 79 295
3 177 46 512
3 295 4 177
3 515 513 514
3 514 111 515
3 513 140 514
3 515 78 513
3 501 406 514
3 514 140 501
3 406 111 514
3 501 33 406
3 286 506 513
3 513 78 286
3 506 140 513
3 286 23 506
3 407 289 515
3 515 111 407
3 289 78 515
3 407 0 289
3 518 516 517
3 517 143 518
3 516 142 517
3 518 141 516
3 520 519 517
3 517 142 520
3 519 143 517
3 520 19 519
3 522 521 516
3 516 141 522
3 521 142 516
3 522 32 521
3 524 523 518
3 518 143 524
3 523 141 518
3 524 26 523
3 527 525 526
3 526 113 527
3 525 142 526
3 527 66 525
3 521 413 526
3 526 142 521
3 413 113 526
3 521 32 413
3 244 520 525
3 525 66 244
3 520 142 525
3 244 19 520
3 414 247 527
3 527 113 414
3 247 66 527
3 414 11 247
3 530 528 529
3 529 86 530
3 528 141 529
3 530 112 528
3 523 316 529
3 529 141 523
3 316 86 529
3 523 26 316
3 405 522 528
3 528 112 405
3 522 141 528
3 405 32 522
3 317 408 530
3 530 86 317
3 408 112 530
3 317 0 408
3 533 531 532
3 532 61 533
3 531 143 532
3 533 89 531
3 519 231 532
3 532 143 519
3 231 61 532
3 519 19 231
3 326 524 531
3 531 89 326
3 524 143 531
3 326 26 524
3 232 329 533
3 533 61 232
3 329 89 533
3 232 5 329
3 536 534 535
3 535 146 536
3 534 145 535
3 536 144 534
3 538 537 535
3 535 145 538
3 537 146 535
3 538 22 537
3 540 539 534
3 534 144 540
3 539 145 534
3 540 16 539
3 542 541 536
3 536 146 542
3 541 144 536
3 542 39 541
3 545 543 544
3 544 54 545
3 543 145 544
3 545 80 543
3 539 204 544
3 544 145 539
3 204 54 544
3 539 16 204
3 293 538 543
3 543 80 293
3 538 145 543
3 293 22 538
3 205 296 545
3 545 54 205
3 296 80 545
3 205 4 296
3 548 546 547
3 547 125 548
3 546 144 547
3 548 57 546
3 541 455 547
3 547 144 541
3 455 125 547
3 541 39 455
3 214 540 546
3 546 57 214
3 540 144 546
3 214 16 540
3 456 217 548
3 548 125 456
3 217 57 548
3 456 9 217
3 551 549 550
3 550 81 551
3 549 146 550
3 551 130 549
3 537 301 550
3 550 146 537
3 301 81 550
3 537 22 301
3 468 542 549
3 549 130 468
3 542 146 549
3 468 39 542
3 302 471 551
3 551 81 302
3 471 130 551
3 302 3 471
3 554 552 553
3 553 149 554
3 552 148 553
3 554 147 552
3 556 555 553
3 553 148 556
3 555 149 553
3 556 21 555
3 558 557 552
3 552 147 558
3 557 148 552
3 558 25 557
3 560 559 554
3 554 149 560
3 559 147 554
3 560 37 559
3 563 561 562
3 562 88 563
3 561 148 562
3 563 70 561
3 557 327 562
3 562 148 557
3 327 88 562
3 557 25 327
3 260 556 561
3 561 70 260
3 556 148 561
3 260 21 556
3 328 261 563
3 563 88 328
3 261 70 563
3 328 5 261
3 566 564 565
3 565 129 566
3 564 147 565
3 566 87 564
3 559 469 565
3 565 147 559
3 469 129 565
3 559 37 469
3 321 558 564
3 564 87 321
3 558 147 564
3 321 25 558
3 470 322 566
3 566 129 470
3 322 87 566
3 470 3 322
3 569 567 568
3 568 71 569
3 567 149 568
3 569 128 567
3 555 266 568
3 568 149 555
3 266 71 568
3 555 21 266
3 461 560 567
3 567 128 461
3 560 149 567
3 461 37 560
3 267 464 569
3 569 71 267
3 464 128 569
3 267 10 464
3 572 570 571
3 571 152 572
3 570 151 571
3 572 150 570
3 574 573 571
3 571 151 574
3 573 152 571
3 574 27 573
3 576 575 570
3 570 150 576
3 575 151 570
3 576 12 575
3 578 577 572
3 572 152 578
3 577 150 572
3 578 36 577
3 581 579 580
3 580 49 581
3 579 151 580
3 581 96 579
3 575 189 580
3 580 151 575
3 189 49 580
3 575 12 189
3 349 574 579
3 579 96 349
3 574 151 579
3 349 27 574
3 190 352 581
3 581 49 190
3 352 96 581
3 190 7 352
3 584 582 583
3 583 118 584
3 582 150 583
3 584 48 582
3 577 428 583
3 583 150 577
3 428 118 583
3 577 36 428
3 181 576 582
3 582 48 181
3 576 150 582
3 181 12 576
3 429 184 584
3 584 118 429
3 184 48 584
3 429 8 184
3 587 585 586
3 586 97 587
3 585 152 586
3 587 121 585
3 573 357 586
3 586 152 573
3 357 97 586
3 573 27 357
3 438 578 585
3 585 121 438
3 578 152 585
3 438 36 578
3 358 441 587
3 587 97 358
3 441 121 587
3 358 1 441
3 590 588 589
3 589 155 590
3 588 154 589
3 590 153 588
3 592 591 589
3 589 154 592
3 591 155 589
3 592 17 591
3 594 593 588
3 588 153 594
3 593 154 588
3 594 30 593
3 596 595 590
3 590 155 596
3 595 153 590
3 596 35 595
3 599 597 598
3 598 104 599
3 597 154 598
3 599 64 597
3 593 383 598
3 598 154 593
3 383 104 598
3 593 30 383
3 237 592 597
3 597 64 237
3 592 154 597
3 237 17 592
3 384 240 599
3 599 104 384
3 240 64 599
3 384 6 240
3 602 600 601
3 601 120 602
3 600 153 601
3 602 103 600
3 595 439 601
3 601 153 595
3 439 120 601
3 595 35 439
3 377 594 600
3 600 103 377
3 594 153 600
3 377 30 594
3 440 378 602
3 602 120 440
3 378 103 602
3 440 1 378
3 605 603 604
3 604 65 605
3 603 155 604
3 605 119 603
3 591 245 604
3 604 155 591
3 245 65 604
3 591 17 245
3 433 596 603
3 603 119 433
3 596 155 603
3 433 35 596
3 246 434 605
3 605 65 246
3 434 119 605
3 246 11 434
3 608 606 607
3 607 158 608
3 606 157 607
3 608 156 606
3 610 609 607
3 607 157 610
3 609 158 607
3 610 15 609
3 612 611 606
3 606 156 612
3 611 157 606
3 612 28 611
3 614 613 608
3 608 158 614
3 613 156 608
3 614 41 613
3 617 615 616
3 616 95 617
3 615 157 616
3 617 55 615
3 611 350 616
3 616 157 611
3 350 95 616
3 611 28 350
3 209 610 615
3 615 55 209
3 610 157 615
3 209 15 610
3 351 210 617
3 617 95 351
3 210 55 617
3 351 7 210
3 620 618 619
3 619 135 620
3 618 156 619
3 620 94 618
3 613 490 619
3 619 156 613
3 490 135 619
3 613 41 490
3 342 612 618
3 618 94 342
3 612 156 618
3 342 28 612
3 491 345 620
3 620 135 491
3 345 94 620
3 491 2 345
3 623 621 622
3 622 56 623
3 621 158 622
3 623 134 621
3 609 215 622
3 622 158 609
3 215 56 622
3 609 15 215
3 484 614 621
3 621 134 484
3 614 158 621
3 484 41 614
3 216 485 623
3 623 56 216
3 485 134 623
3 216 9 485
3 626 624 625
3 625 161 626
3 624 160 625
3 626 159 624
3 628 627 625
3 625 160 628
3 627 161 625
3 628 31 627
3 630 629 624
3 624 159 630
3 629 160 624
3 630 20 629
3 632 631 626
3 626 161 632
3 631 159 626
3 632 40 631
3 635 633 634
3 634 73 635
3 633 160 634
3 635 105 633
3 629 272 634
3 634 160 629
3 272 73 634
3 629 20 272
3 382 628 633
3 633 105 382
3 628 160 633
3 382 31 628
3 273 385 635
3 635 73 273
3 385 105 635
3 273 6 385
3 638 636 637
3 637 137 638
3 636 159 637
3 638 72 636
3 631 496 637
3 637 159 631
3 496 137 637
3 631 40 496
3 265 630 636
3 636 72 265
3 630 159 636
3 265 20 630
3 497 268 638
3 638 137 497
3 268 72 638
3 497 10 268
3 641 639 640
3 640 102 641
3 639 161 640
3 641 136 639
3 627 372 640
3 640 161 627
3 372 102 640
3 627 31 372
3 489 632 639
3 639 136 489
3 632 161 639
3 489 40 632
3 373 492 641
3 641 102 373
3 492 136 641
3 373 2 492
