# vtk DataFile Version 3.0
this file was written using fslvtkio
ASCII
DATASET POLYDATA
POINTS 970 float
144.638 157.182 150.037
143.151 156.923 150.698
143.941 156.116 150.399
144.936 155.73 150.284
146.112 156.9 149.849
146.345 155.3 150.411
147.429 156.227 150.37
147.736 154.961 151.164
144.226 158.28 150.803
143.449 158.323 151.722
145.638 158.327 150.771
147.122 157.829 150.647
148.21 156.427 151.517
144.836 159.158 152.08
146.531 159.07 151.816
147.782 157.848 151.948
140.542 147.165 149.202
139.015 147.029 150.067
139.635 145.507 149.373
141.171 145.552 149.076
141.881 147.422 148.923
142.312 146.036 149.564
142.861 147.496 149.779
142.655 146.178 150.908
140.223 148.421 150.25
138.785 148.241 151.043
141.578 148.864 149.695
142.86 148.992 149.615
143.304 147.444 150.948
143.816 148.758 150.417
143.993 147.971 151.733
140.196 149.29 151.275
138.88 149.037 151.682
141.647 149.861 150.822
142.918 150.279 150.388
144.034 150.11 150.645
144.637 149.211 151.661
139.216 149.818 152.12
141.187 150.54 151.643
140.5 150.754 152.297
142.784 151.429 151.376
144.138 151.722 151.072
144.952 150.725 151.502
141.621 151.721 152.538
142.991 152.772 152.132
144.006 153.464 151.416
143.299 154.144 152.204
145.411 151.947 151.736
145.199 153.214 151.315
146.292 152.515 152.176
146.664 153.395 151.653
147.115 152.989 152.636
143.682 155.086 151.288
142.68 154.963 152.369
144.856 154.491 151.188
146.419 154.144 151.005
147.812 153.963 152.121
142.414 156.086 151.628
141.536 156.576 152.758
141.569 155.256 153.149
148.753 155.232 152.46
142.416 157.542 152.073
141.835 157.799 153.439
148.716 156.888 152.978
143.222 158.678 153.067
144.265 159.327 153.655
145.891 159.52 153.179
147.536 158.869 152.979
137.706 143.805 150.302
136.683 144.504 151.014
136.854 142.793 151.213
138.379 142.619 150.699
138.993 144.172 149.827
139.716 143.265 150.687
137.88 145.681 150.266
136.468 145.986 151.498
140.67 144.258 149.981
141.841 144.96 150.658
142.373 145.447 152.156
137.606 147.274 151.152
136.285 147.474 152.266
143.232 146.767 152.165
144.075 147.583 153.188
137.596 148.731 152.139
136.355 148.904 153.346
144.693 148.75 153.058
145.268 150.087 152.793
145.356 149.563 153.956
137.979 149.991 153.042
139.737 150.944 152.818
138.618 150.921 153.745
145.856 151.124 152.773
146.151 150.719 154.202
140.186 151.861 153.589
141.225 152.929 153.64
140.105 152.834 154.322
142.31 153.16 152.949
146.663 151.968 153.326
147.702 152.993 153.686
141.066 154.328 154.139
140.098 153.507 154.841
142.076 154.102 153.279
148.607 154.019 153.688
140.139 154.353 155.008
140.879 156.037 154.108
149.098 155.32 154.033
141.472 157.527 154.741
149.012 156.803 154.37
142.745 158.521 154.657
144.157 159.079 155.021
143.692 158.594 156.237
145.498 159.404 154.756
147.085 159.301 154.333
148.399 158.223 154.021
145.133 159.026 156.326
146.496 159.261 155.972
147.795 159.094 155.517
136.083 144.18 152.33
136.727 142.423 152.608
137.957 141.827 152.015
139.423 142.513 151.998
140.458 143.51 151.725
140.557 143.405 153.448
135.746 145.828 152.992
141.376 144.28 151.844
142.277 145.013 153.553
135.659 147.234 153.682
143.142 146.389 153.507
143.976 147.145 154.784
135.471 148.345 154.457
144.737 148.393 154.432
145.517 149.463 155.161
136.962 150.278 154.073
135.804 149.761 154.984
146.354 150.595 155.622
137.056 151.2 155.066
136.304 150.98 156.325
138.539 151.631 154.454
147.008 151.88 154.756
147.897 152.719 155.332
137.418 152.044 155.749
138.752 152.766 155.149
138.133 152.921 156.041
148.522 153.728 155.371
139.059 153.88 156.095
140.1 155.286 155.285
139.675 155.466 156.332
148.938 154.78 155.56
149.237 155.953 155.453
149.24 155.152 156.78
140.668 156.606 155.391
140.637 156.534 156.639
148.959 157.282 155.471
149.363 156.38 156.815
141.873 157.562 156.095
142.725 158.161 156.762
143.738 158.186 157.602
148.565 158.327 155.722
149.094 157.544 157.111
144.822 158.466 157.689
146.084 158.835 157.711
147.39 158.9 157.385
148.415 158.529 157.178
137.564 141.468 153.593
136.731 142.717 153.909
137.316 141.121 154.818
138.558 140.672 154.559
138.825 141.621 153.246
139.372 141.455 154.568
139.782 142.437 153.541
140.134 142.202 155.049
136.251 144.199 154.15
140.865 142.985 155.318
135.82 145.564 154.591
141.514 144.036 153.892
142.351 144.782 155.203
135.557 146.768 155.3
143.11 145.985 154.918
143.945 146.743 156.261
135.495 148.164 155.981
144.842 148.075 155.817
145.687 149.085 156.574
135.809 149.442 156.642
146.476 150.147 157.108
136.194 150.314 157.589
147.175 151.549 156.318
147.904 152.304 157.212
137.236 152.397 156.725
136.87 151.717 157.896
148.479 153.245 156.933
148.769 154.223 156.576
149.059 153.911 157.859
138.022 153.282 157.297
139.006 154.522 157.197
138.745 154.231 158.358
149.558 155.143 158.074
139.734 155.683 157.809
139.65 155.175 158.953
149.451 156.326 158.293
141.049 156.619 157.771
142.066 157.178 157.901
142.944 157.705 158.206
142.585 157.094 159.233
149.172 157.586 158.615
144.009 157.808 159.056
145.028 158.067 159.506
146.007 158.377 159.245
147.229 158.641 159.052
148.441 158.485 158.776
136.86 142.341 155.546
137.359 140.369 155.99
138.416 139.828 155.582
139.557 140.8 155.812
140.328 141.443 156.781
136.345 143.854 155.879
141.133 142.404 157.089
135.909 145.061 156.299
141.598 143.718 155.87
142.515 144.242 156.82
135.633 146.332 156.924
143.271 145.496 156.468
144.173 146.186 157.839
135.741 147.646 157.595
144.804 147.622 157.303
145.647 148.443 158.023
136.038 148.767 158.383
146.54 149.363 158.549
136.495 150.05 158.991
147.212 151.069 157.925
148.007 151.495 159.117
137.21 151.293 159.392
148.561 152.738 158.315
149.332 153.612 159.254
137.961 152.76 158.573
138.74 153.683 159.638
149.566 154.914 159.366
139.679 154.332 160.41
149.484 156.056 159.812
140.575 155.622 159.443
141.559 156.212 159.333
142.522 156.293 160.509
149.163 157.366 160.07
143.606 157.134 160.3
144.758 157.411 160.721
145.922 157.804 160.922
147.06 158.094 160.59
148.28 158.121 160.279
137.921 138.952 156.568
137.239 140.369 156.883
137.582 138.478 157.731
138.71 137.697 157.356
139.125 139.11 156.469
139.687 138.347 157.519
139.83 139.974 156.923
140.308 139.307 157.925
136.94 141.95 157.017
140.896 140.584 158.277
136.45 143.374 157.42
141.402 141.737 158.406
135.904 144.491 157.968
141.896 143.058 157.861
142.787 143.879 158.295
135.744 145.781 158.592
143.488 145.014 157.954
144.378 145.381 159.306
135.853 147.019 159.301
145.012 146.806 158.779
145.857 147.681 159.441
136.214 148.3 159.921
146.623 148.781 159.85
136.792 149.6 160.447
147.29 150.298 159.323
147.912 150.358 160.676
137.499 150.671 160.866
148.598 152.351 159.664
148.46 151.49 160.953
138.138 152.193 160.029
138.85 152.932 161.083
149.128 152.898 160.484
149.455 154.238 160.724
139.764 153.561 161.868
149.397 155.69 161.15
140.645 154.866 161.09
141.556 155.53 160.995
142.582 155.805 162.056
148.975 157.038 161.394
143.58 156.53 161.655
144.71 156.897 162.06
145.902 157.28 162.4
146.98 157.622 162.328
148.086 157.722 161.763
137.392 139.886 158.287
137.784 137.721 158.975
138.41 136.895 158.23
139.865 137.078 158.492
140.725 138.49 159.097
136.935 141.567 158.381
141.132 139.495 159.486
141.642 140.681 159.509
141.99 139.661 160.519
136.647 142.699 159.067
141.893 141.918 158.996
142.486 141.513 159.879
136.165 143.926 159.553
142.764 142.819 159.454
143.55 144.148 159.142
143.874 143.524 160.285
135.985 145.199 160.193
144.679 144.603 160.684
136.241 146.527 160.812
145.332 146.119 160.219
146.292 147.351 160.741
136.584 147.776 161.449
146.87 148.292 161.022
147.249 149.381 160.517
147.7 148.693 161.849
137.077 148.953 161.966
148.425 150.02 162.15
137.796 149.91 162.424
148.839 151.422 162.597
138.284 151.461 161.588
139.106 152.155 162.558
149.11 152.789 161.702
149.417 154.229 162.186
140.141 152.984 163.2
149.225 155.462 162.458
140.902 154.201 162.448
141.976 155.002 162.746
143.13 155.371 163.543
148.804 156.715 162.483
143.664 155.938 162.938
144.677 156.308 163.412
145.848 156.636 163.677
147.154 156.862 163.739
148.101 156.94 163.231
138.584 135.859 159.08
138.084 135.438 160.309
138.71 134.538 159.908
140.04 134.482 160.004
139.879 135.663 159.141
140.686 135.52 160.108
137.607 138.852 159.615
137.876 136.931 160.197
140.846 136.928 159.824
141.389 138.313 160.143
141.805 137.628 161.239
137.138 140.603 159.702
137.61 138.586 160.964
142.672 139.365 161.439
136.71 142.03 160.492
143.157 140.683 161.179
136.443 143.35 161.105
143.678 142.017 160.882
144.424 142.85 161.52
136.382 144.718 161.741
145.13 143.747 162.006
145.208 145.021 161.188
145.74 145.178 161.839
136.638 146.009 162.395
146.222 146.347 161.612
147.023 147.407 161.9
147.393 146.671 162.977
137.066 147.155 163.023
148.168 148.087 163.128
137.482 148.245 163.493
148.782 149.421 163.553
138.01 149.301 163.796
149.15 150.783 163.981
138.574 150.688 163.128
139.474 151.714 163.86
149.221 153.026 163.06
149.208 152.396 164.195
140.606 152.201 164.51
141.076 153.52 163.71
141.522 152.995 164.738
149.299 154.338 163.855
149.026 154.419 165.024
142.176 154.178 163.932
144.358 155.532 164.466
143.457 154.676 164.707
145.693 156.059 164.963
144.994 155.072 165.819
147.146 156.238 165.037
146.482 155.542 166.285
148.446 155.847 164.572
148.097 155.358 165.9
148.9 155.877 163.454
139.063 133.511 160.481
138.383 134.023 161.33
138.926 132.714 161.456
139.926 132.459 161.232
140.02 133.421 160.542
140.765 133.363 161.055
138.129 135.542 161.611
141.443 134.221 161.556
141.345 136.135 160.986
142.032 135.548 162.099
137.933 136.98 161.843
142.474 137.452 162.231
137.119 140.167 161.241
137.579 138.35 162.467
143.236 137.9 162.937
143.48 139.563 162.242
143.952 138.649 163.349
136.852 141.53 162.01
143.71 140.711 161.724
144.22 140.558 162.385
136.669 142.918 162.68
144.881 141.496 162.62
145.027 142.596 162.541
145.683 142.336 163.207
136.677 144.189 163.367
146.029 143.967 163.034
146.631 145.424 162.811
147.169 144.697 163.946
137.053 145.442 163.979
147.991 146.089 164.14
137.679 146.473 164.614
148.401 147.465 164.375
137.933 147.956 164.883
148.832 148.179 164.901
149.254 149.444 164.943
149.153 147.815 166.137
138.405 148.831 164.881
138.59 149.636 164.244
139.108 149.098 165.509
149.341 150.896 165.23
149.346 149.217 166.324
139.981 151.309 164.672
139.346 150.37 164.497
140.348 151.093 165.498
149.25 152.343 165.57
149.27 150.762 166.51
142.388 153.285 165.185
141.495 152.128 165.668
142.626 152.59 166.285
148.86 152.347 166.637
148.841 153.744 165.92
143.402 153.79 165.513
144.752 154.227 166.47
146.169 154.632 167.151
147.656 154.686 166.978
139.543 131.438 161.996
138.615 132.425 162.361
139.095 130.808 162.962
140.27 130.19 162.693
140.697 131.713 161.938
141.198 130.529 162.697
141.568 131.646 162.561
141.991 130.76 163.113
138.407 133.766 162.763
141.462 132.71 162.051
142.261 132.352 163.038
138.11 135.37 163.103
142.473 133.874 163.026
142.789 135.619 163.053
143.449 134.728 164.084
137.83 136.73 163.672
143.113 136.699 163.117
143.882 136.249 163.911
137.214 139.805 162.889
137.614 138.138 163.997
144.557 137.061 164.406
144.706 139.087 163.737
145.29 138.233 164.692
137.052 141.177 163.483
144.878 140.247 163.299
145.513 140.056 164.039
137.004 142.289 164.319
146.158 141.035 164.224
146.541 143.01 163.883
147.034 142.555 164.77
137.236 143.522 164.853
147.623 144.017 165.065
137.558 144.636 165.501
148.17 144.723 165.399
148.504 145.926 165.473
148.633 144.488 166.556
138 145.522 165.923
138.33 146.717 166.003
138.892 145.453 167.134
148.797 146.925 165.706
148.961 145.916 166.941
138.583 147.991 165.9
139.137 147.125 167.044
149.175 147.371 167.324
139.631 148.564 166.653
149.113 149.04 167.519
139.893 149.852 165.937
140.875 150.468 166.546
148.869 150.899 167.484
141.544 151.388 166.585
143.556 152.8 166.752
142.864 151.63 167.284
144.06 152.278 167.797
148.592 152.004 167.508
148.161 153.367 167.201
144.485 153.263 166.99
145.617 153.593 167.738
147.021 153.766 167.88
138.613 131.841 163.78
139.14 129.932 163.727
140.155 129.019 163.261
141.606 129.246 163.363
142.572 130.438 163.815
138.567 133.476 164.184
143.329 130.992 164.534
142.855 132.468 163.84
143.624 132.356 164.576
138.398 134.83 164.657
143.827 133.493 164.533
144.54 134.584 164.907
145.094 133.402 165.94
138.086 136.05 165.221
144.837 135.682 164.883
145.542 134.894 166.041
137.502 139.173 164.604
137.85 137.5 165.591
145.599 136.622 165.432
146.015 138.355 165.389
146.525 137.237 166.361
137.367 140.47 164.947
137.711 138.937 166.075
146.189 139.655 165.037
146.683 139.341 165.927
137.52 141.517 165.89
146.912 140.956 165.396
147.662 142.303 165.865
147.777 141.213 166.836
137.694 142.794 166.386
148.133 143.403 166.216
148.341 142.447 167.343
138.095 143.5 166.818
138.293 144.572 166.887
138.882 143.685 168.146
148.777 143.951 167.809
139.633 145.077 168.282
149 145.557 168.284
139.926 146.402 168.03
140.026 147.717 167.652
140.847 147.219 168.476
148.9 147.237 168.546
140.206 148.707 167.062
140.857 148.504 167.844
148.823 149.496 168.427
141.865 150.598 167.416
140.962 149.543 167.282
142.657 150.717 167.873
142.265 149.795 168.253
143.357 150.564 168.57
148.311 151.557 168.233
148.279 149.87 169.085
147.625 150.948 169.169
145.15 152.617 168.43
144.161 151.394 168.648
146.373 152.827 168.772
145.496 151.609 169.261
147.593 152.609 168.467
146.734 151.582 169.362
139.547 128.28 164.109
139.125 130.053 164.708
139.27 128.278 165.264
139.956 126.894 164.817
140.943 127.791 163.77
141.693 126.732 164.226
142.503 128.271 163.933
143.117 126.941 164.519
143.576 128.389 164.83
144.167 127.61 165.601
138.912 131.627 165.15
143.275 129.555 164.65
144.436 129.225 165.79
138.725 132.956 165.77
144.456 130.798 165.698
144.598 132.317 165.55
145.495 131.42 166.65
138.612 134.403 166.201
145.979 132.85 166.978
138.385 135.9 166.654
146.574 133.757 167.439
146.319 135.619 166.53
147.017 135.554 167.491
138.354 137.08 167.28
147.129 137.538 167.176
137.897 140.028 166.848
138.234 138.406 167.506
147.545 138.748 167.247
138.241 141.275 167.545
138.481 139.937 168.336
147.391 140.115 166.755
148.323 140.51 168.089
138.394 142.525 167.776
139.151 141.615 168.919
148.719 142.013 168.598
139.557 143.291 169.272
148.861 143.719 169.114
140.28 144.302 169.619
140.583 145.873 169.031
141.459 146.197 169.6
141.177 144.771 169.98
141.961 145.19 170.485
148.809 145.408 169.607
141.812 147.658 169.066
142.249 146.628 170.222
148.602 146.899 169.618
148.333 146.118 170.638
148.071 147.606 170.315
141.826 148.844 168.442
142.929 147.874 169.829
142.84 149.081 169.105
143.699 148.917 169.878
148.559 148.423 169.271
147.763 149.049 170.143
144.159 149.694 169.873
147.121 150.341 170.124
144.328 150.436 169.419
145.152 150.6 169.794
146.23 150.575 170.092
141.608 124.194 165.254
140.419 124.781 165.812
140.934 123.414 166.3
141.755 122.428 165.844
142.923 124.122 165.344
143.113 122.352 165.68
144.094 124.304 165.777
144.275 122.652 166.193
140.929 125.686 164.944
139.92 126.183 166.184
142.551 125.503 164.884
143.973 126.041 165.55
144.896 124.059 166.384
145.043 125.941 166.457
145.587 124.224 167.094
139.202 129.729 166.011
139.707 127.731 166.358
145.206 127.841 166.636
145.98 125.431 167.475
146.052 126.96 167.657
146.756 125.379 168.386
139.244 131.099 166.671
145.542 129.727 166.808
146.257 128.771 167.837
146.991 127.436 168.647
139.006 132.583 167.31
146.536 130.784 167.813
147.044 129.596 168.842
138.742 134.343 167.468
146.713 132.231 167.918
147.371 131.732 168.924
138.715 135.622 168.214
147.297 133.805 168.411
147.602 136.04 168.266
147.932 134.915 169.111
138.99 136.945 168.909
147.928 137.645 168.234
148.318 136.674 169.199
138.953 138.496 169.016
148.077 139.266 167.938
148.571 138.803 169.038
139.222 139.973 169.452
148.819 140.304 169.459
140.015 140.361 170.373
140.15 141.953 169.984
140.775 140.992 170.919
148.796 141.839 169.913
140.583 143.253 170.177
141.038 142.374 170.803
148.633 143.506 170.358
141.776 143.588 170.973
142.674 144.719 171.212
148.288 144.665 170.925
142.993 145.786 171.115
142.939 146.829 170.576
143.587 146.601 171.208
147.724 145.717 171.564
147.423 147.102 171.283
144.827 148.686 170.752
144.032 147.657 170.836
145.883 148.52 171.384
145.044 147.375 171.652
146.964 148.295 171.082
146.293 147.144 171.913
144.88 149.762 170.275
145.662 149.75 170.66
146.734 149.442 170.749
142.377 120.694 166.188
141.451 121.488 167.015
141.725 120.148 167.442
142.364 118.974 166.688
143.796 120.862 166.107
143.86 119.274 166.105
145.072 120.866 166.676
145.202 119.359 166.616
140.503 124.45 167.075
141.145 122.774 167.592
145.226 122.502 166.942
145.875 120.494 167.447
146.107 121.948 167.876
146.692 120.769 168.391
140.462 125.756 167.614
146.255 123.692 167.905
146.989 123.056 168.848
139.708 129.04 167.259
140.16 127.235 167.846
147.327 125.294 169.349
139.652 130.521 168.044
140.051 128.736 168.666
147.583 127.649 169.635
139.425 131.977 168.524
140.083 130.444 169.449
147.68 129.874 169.93
139.1 133.722 168.626
139.838 132.073 169.61
147.871 131.552 170.407
139.36 135.027 169.438
147.836 133.259 169.615
148.294 134.794 170.089
139.9 135.265 170.377
139.746 137.062 170.079
140.491 136.21 171.018
148.566 136.967 170.198
139.768 138.461 170.13
140.652 137.541 171.096
148.702 138.621 170.44
140.051 139.376 170.335
140.846 138.857 171.089
148.672 140.128 170.882
141.608 141.368 171.578
141.401 139.686 171.664
142.341 140.738 172.216
148.551 141.747 171.2
141.743 142.494 171.417
142.517 142.323 172.039
148.296 143.172 171.615
143.77 144.893 172.013
142.986 143.544 171.886
144.883 144.701 172.653
144.166 143.473 172.664
146.027 144.53 172.798
145.336 143.155 173.204
147.007 144.259 172.605
146.528 142.99 173.13
147.709 144.386 171.972
147.512 143.039 172.627
144.417 146.24 172.063
145.589 146.031 172.416
146.806 145.772 172.281
145.841 109.188 163.498
144.503 110.43 165.16
145.576 107.736 165.262
146.831 106.231 163.931
147.396 109.443 164.259
148.39 107.05 164.28
148.362 109.378 165.365
148.825 107.85 166.025
145.017 112.336 164.786
143.879 112.4 166.217
146.507 111.889 164.752
147.594 111.485 165.792
148.426 110.303 166.843
144.551 114.417 165.772
143.436 114.045 167.308
146.081 113.906 165.634
147.316 113.726 166.462
148.094 112.827 167.595
143.475 115.738 166.262
142.915 116.712 167.707
143.354 115.383 168.179
145.266 116.371 166.21
146.577 115.694 166.621
147.512 115.562 167.976
148.037 114.602 168.772
143.183 117.592 166.505
142.622 117.963 168.271
144.725 117.762 166.403
146.506 117.698 167.381
147.459 117.146 168.385
141.848 121.327 168.581
142.315 119.38 168.624
146.141 119.057 167.438
147.198 119.25 168.738
140.945 124.194 168.448
141.566 122.691 169.108
147.307 121.195 169.493
140.723 125.577 169.07
147.461 123.329 170.021
140.636 127.139 169.397
147.697 125.531 170.42
140.585 128.653 169.969
147.936 127.865 170.768
140.734 130.114 170.64
148.082 129.759 171.278
139.856 133.409 169.99
140.605 131.783 170.736
148.052 131.516 171.956
139.922 134.22 170.377
140.714 133.458 171.091
148.083 133.136 170.918
148.37 135.086 171.154
141.389 136.334 171.913
140.841 134.845 171.421
141.831 135.183 172.443
148.442 136.553 171.528
141.767 137.543 172.091
142.451 136.341 172.978
148.528 138.107 171.729
141.667 138.594 171.968
142.593 138.093 172.862
148.435 139.296 172.098
148.255 138.039 172.505
147.887 138.628 173.088
143.361 141.103 172.867
142.659 139.436 172.652
143.58 139.755 173.402
148.253 140.501 172.269
147.502 140.041 173.375
143.614 142.423 172.846
144.245 140.747 173.647
144.722 141.983 173.562
146.121 141.814 173.732
145.323 140.715 174.071
147.345 141.503 173.114
146.533 140.424 173.922
148.048 141.965 172.172
144.756 110.423 166.765
145.668 108.592 167.464
146.759 106.421 166.788
148.28 105.965 166.259
148.681 108.421 167.587
144.246 112.57 168.056
148.48 111.153 168.367
144.09 114.238 169.489
148.399 113.117 169.301
143.426 116.851 169.557
143.802 115.561 169.686
148.131 114.52 170.688
147.972 116.41 170.031
143.198 118.354 170.058
147.795 118.207 169.734
142.401 120.731 169.817
142.933 119.629 170.368
147.688 119.856 170.311
141.509 123.895 169.952
142.316 122.139 170.463
147.741 121.706 170.824
141.313 125.416 170.482
142.273 123.688 171.223
147.697 123.717 171.267
141.219 126.99 170.826
142.12 125.51 171.71
147.87 125.811 171.608
141.196 128.603 171.289
142.07 127.18 172.042
147.984 127.666 172.064
141.414 130.57 171.72
142.005 128.829 172.211
147.883 129.449 172.568
141.54 132.285 171.902
142.312 130.093 172.687
142.356 131.446 172.838
143.227 130.411 173.534
147.757 130.93 173.112
141.744 133.866 172.229
142.588 132.941 172.982
143.511 132.009 173.925
148.004 133.319 172.038
147.766 132.778 173.201
142.731 134.651 173.283
143.608 133.62 174.013
148.084 134.646 172.612
147.675 134.763 173.723
143.399 136.785 173.696
143.698 135.344 174.14
148.124 136.436 172.844
147.466 136.115 174.021
143.626 138.372 173.757
144.301 136.69 174.434
144.755 138.084 174.46
146.233 138.058 174.56
145.361 136.852 174.805
147.48 137.527 173.796
146.63 136.628 174.645
144.484 139.442 174.21
145.673 139.397 174.47
146.94 139.051 173.985
145.064 110.737 168.294
145.807 109.511 169.039
146.725 108.113 168.84
148.121 107.577 168.621
148.411 109.845 169.176
144.964 112.5 169.566
148.322 111.608 169.873
145.049 113.555 170.691
148.241 112.977 170.62
144.445 115.871 171.091
145.054 114.715 171.341
145.907 115.514 172.631
147.756 115.592 171.813
147.008 114.413 172.584
147.799 113.443 171.745
144.088 117.475 171.325
145.163 116.916 172.543
146.719 116.556 173.05
147.755 116.98 171.705
147.891 118.346 171.209
143.203 120.787 171.304
143.891 119.154 171.719
147.806 120.232 171.882
143.22 122.397 171.913
144.1 120.975 172.537
147.688 122.182 172.234
143.068 124.165 172.475
144.034 122.88 173.122
147.712 124.151 172.538
143.11 125.926 172.805
143.968 124.766 173.597
147.706 125.94 172.956
143.073 127.667 173.022
144.047 126.615 173.811
147.621 127.62 173.379
142.98 129.088 173.168
143.885 128.486 174.039
147.484 129.208 173.794
144.081 130.194 174.354
147.393 131.059 174.068
144.372 131.423 174.712
144.64 132.897 174.854
146.107 132.721 174.924
145.406 131.525 175.043
147.133 132.371 174.294
146.566 131.162 174.825
144.555 134.445 174.786
145.814 134.113 174.893
147.101 133.73 174.317
144.649 135.75 174.863
145.728 135.513 175.092
146.861 135.197 174.732
145.62 111.04 169.947
146.571 109.728 170.329
147.639 109.063 169.797
145.731 112.405 171.139
146.662 111.296 171.324
147.783 110.467 170.647
145.785 113.69 172.038
146.757 112.762 172.344
147.709 112.048 171.37
144.994 118.684 172.811
146.188 118.12 173.482
147.5 117.847 172.797
145.023 120.283 173.285
146.284 119.787 173.971
147.499 119.244 172.998
144.999 122.009 173.821
146.304 121.576 174.216
147.434 121.051 173.379
144.997 123.822 174.174
146.215 123.312 174.338
147.264 122.851 173.562
144.944 125.653 174.513
146.15 125.012 174.667
147.19 124.611 173.854
144.834 127.424 174.772
146.049 126.768 174.849
147.063 126.272 174.185
144.781 129.017 174.881
145.966 128.425 175.023
146.932 127.956 174.48
144.833 130.388 174.949
145.76 129.957 175.044
146.817 129.612 174.655
POLYGONS 1936  7744
3 0 1 2
3 0 3 4
3 2 3 0
3 4 5 6
3 3 5 4
3 5 7 6
3 8 1 0
3 9 1 8
3 4 10 0
3 10 8 0
3 6 11 4
3 11 10 4
3 12 6 7
3 11 6 12
3 8 13 9
3 10 13 8
3 14 13 10
3 11 14 10
3 15 14 11
3 12 15 11
3 16 17 18
3 16 19 20
3 18 19 16
3 20 21 22
3 19 21 20
3 21 23 22
3 24 17 16
3 25 17 24
3 20 26 16
3 26 24 16
3 22 27 20
3 27 26 20
3 28 22 23
3 28 29 22
3 29 27 22
3 28 30 29
3 31 25 24
3 32 25 31
3 26 33 24
3 33 31 24
3 27 34 26
3 34 33 26
3 29 35 27
3 35 34 27
3 36 29 30
3 35 29 36
3 31 37 32
3 37 38 39
3 37 31 38
3 31 33 38
3 34 40 33
3 40 38 33
3 35 41 34
3 41 40 34
3 42 35 36
3 41 35 42
3 38 43 39
3 40 43 38
3 44 43 40
3 44 45 46
3 44 40 45
3 40 41 45
3 47 41 42
3 47 48 41
3 48 45 41
3 48 49 50
3 47 49 48
3 49 51 50
3 52 46 45
3 53 46 52
3 48 54 45
3 54 52 45
3 50 55 48
3 55 54 48
3 56 50 51
3 55 50 56
3 57 58 59
3 53 57 59
3 52 57 53
3 52 1 57
3 52 2 1
3 3 2 52
3 54 3 52
3 5 3 54
3 55 5 54
3 55 7 5
3 55 56 7
3 56 60 7
3 61 58 57
3 62 58 61
3 1 9 61
3 57 1 61
3 7 60 12
3 60 63 12
3 61 64 62
3 9 64 61
3 9 13 64
3 13 65 64
3 14 66 13
3 13 66 65
3 15 67 14
3 14 67 66
3 63 15 12
3 67 15 63
3 68 69 70
3 68 71 72
3 70 71 68
3 71 73 72
3 74 69 68
3 75 69 74
3 18 17 74
3 18 74 72
3 72 74 68
3 72 73 76
3 72 76 18
3 18 76 19
3 21 19 77
3 19 76 77
3 77 23 21
3 78 23 77
3 79 75 74
3 80 75 79
3 17 25 79
3 74 17 79
3 23 78 81
3 28 23 81
3 81 30 28
3 82 30 81
3 83 80 79
3 84 80 83
3 25 32 83
3 79 25 83
3 85 86 36
3 85 36 82
3 82 36 30
3 85 87 86
3 83 88 84
3 89 90 88
3 37 89 88
3 37 88 83
3 37 83 32
3 37 39 89
3 86 91 42
3 36 86 42
3 92 86 87
3 91 86 92
3 89 93 90
3 94 95 93
3 43 94 93
3 43 93 89
3 43 89 39
3 43 44 96
3 94 43 96
3 44 46 96
3 42 91 47
3 91 92 97
3 91 97 47
3 47 97 49
3 97 51 49
3 98 51 97
3 99 95 94
3 100 95 99
3 96 101 94
3 101 99 94
3 46 53 101
3 96 46 101
3 51 98 56
3 98 102 56
3 99 103 100
3 59 58 104
3 59 104 99
3 59 99 101
3 99 104 103
3 53 59 101
3 56 102 60
3 102 105 60
3 58 62 104
3 104 62 106
3 60 105 63
3 105 107 63
3 62 108 106
3 64 108 62
3 109 110 108
3 109 108 65
3 65 108 64
3 65 66 111
3 109 65 111
3 66 67 112
3 111 66 112
3 67 113 112
3 67 63 113
3 63 107 113
3 109 114 110
3 111 114 109
3 115 114 111
3 112 115 111
3 116 115 112
3 113 116 112
3 70 117 118
3 69 117 70
3 71 70 119
3 70 118 119
3 73 120 121
3 73 71 120
3 71 119 120
3 120 122 121
3 69 75 117
3 117 75 123
3 73 121 76
3 121 122 124
3 121 124 76
3 76 124 77
3 124 78 77
3 125 78 124
3 75 80 123
3 123 80 126
3 78 125 127
3 81 78 127
3 127 82 81
3 128 82 127
3 80 84 126
3 126 84 129
3 82 128 130
3 85 82 130
3 130 87 85
3 131 87 130
3 132 84 88
3 132 133 84
3 133 129 84
3 88 90 132
3 87 131 92
3 131 134 92
3 135 133 132
3 136 133 135
3 90 93 137
3 90 137 132
3 132 137 135
3 93 95 137
3 92 134 138
3 97 92 138
3 138 98 97
3 139 98 138
3 135 140 136
3 140 141 142
3 140 135 141
3 135 137 141
3 95 100 141
3 137 95 141
3 98 139 102
3 139 143 102
3 141 144 142
3 145 146 144
3 103 145 144
3 103 144 141
3 103 141 100
3 103 104 145
3 147 148 105
3 147 105 143
3 143 105 102
3 147 149 148
3 150 146 145
3 151 146 150
3 104 106 150
3 145 104 150
3 148 152 107
3 105 148 107
3 153 148 149
3 152 148 153
3 150 154 151
3 106 154 150
3 106 108 154
3 108 155 154
3 155 108 110
3 156 155 110
3 152 157 113
3 107 152 113
3 158 152 153
3 157 152 158
3 110 159 156
3 114 159 110
3 115 160 114
3 114 160 159
3 116 161 115
3 115 161 160
3 157 116 113
3 157 162 116
3 162 161 116
3 158 162 157
3 163 164 165
3 163 166 167
3 165 166 163
3 167 168 169
3 166 168 167
3 168 170 169
3 118 164 163
3 118 117 164
3 117 171 164
3 119 118 163
3 167 119 163
3 120 119 167
3 169 120 167
3 169 122 120
3 169 170 122
3 170 172 122
3 117 123 171
3 171 123 173
3 122 172 174
3 124 122 174
3 174 125 124
3 175 125 174
3 123 126 173
3 173 126 176
3 125 175 177
3 127 125 177
3 177 128 127
3 178 128 177
3 126 129 176
3 176 129 179
3 128 178 180
3 130 128 180
3 180 131 130
3 181 131 180
3 129 133 179
3 179 133 182
3 131 181 134
3 181 183 134
3 133 136 182
3 182 136 184
3 134 183 185
3 138 134 185
3 185 139 138
3 186 139 185
3 187 136 140
3 187 188 136
3 188 184 136
3 140 142 187
3 189 190 143
3 189 143 186
3 186 143 139
3 189 191 190
3 187 192 188
3 193 194 192
3 144 193 192
3 144 192 187
3 144 187 142
3 144 146 193
3 143 190 147
3 190 149 147
3 190 191 149
3 191 195 149
3 196 194 193
3 197 194 196
3 146 151 196
3 193 146 196
3 149 195 153
3 195 198 153
3 196 199 197
3 151 199 196
3 151 154 199
3 154 200 199
3 201 202 200
3 201 200 155
3 155 200 154
3 155 156 201
3 153 198 158
3 198 203 158
3 201 204 202
3 156 204 201
3 156 159 204
3 159 205 204
3 160 206 159
3 159 206 205
3 161 207 160
3 160 207 206
3 162 208 161
3 161 208 207
3 203 162 158
3 208 162 203
3 165 209 210
3 164 209 165
3 166 165 211
3 165 210 211
3 168 166 212
3 166 211 212
3 212 170 168
3 213 170 212
3 164 171 209
3 209 171 214
3 170 213 172
3 213 215 172
3 171 173 214
3 214 173 216
3 172 215 217
3 174 172 217
3 217 175 174
3 218 175 217
3 173 176 216
3 216 176 219
3 175 218 220
3 177 175 220
3 220 178 177
3 221 178 220
3 176 179 219
3 219 179 222
3 178 221 223
3 180 178 223
3 223 181 180
3 224 181 223
3 179 182 222
3 222 182 225
3 181 224 183
3 224 226 183
3 182 184 225
3 225 184 227
3 183 226 228
3 185 183 228
3 228 186 185
3 229 186 228
3 184 188 227
3 227 188 230
3 186 229 231
3 189 186 231
3 231 191 189
3 232 191 231
3 188 233 230
3 192 233 188
3 233 192 194
3 234 233 194
3 191 232 195
3 232 235 195
3 194 197 234
3 234 197 236
3 195 235 198
3 235 237 198
3 197 238 236
3 199 238 197
3 200 239 199
3 199 239 238
3 239 200 202
3 240 239 202
3 198 237 203
3 237 241 203
3 202 242 240
3 204 242 202
3 205 243 204
3 204 243 242
3 206 244 205
3 205 244 243
3 207 245 206
3 206 245 244
3 208 246 207
3 207 246 245
3 241 208 203
3 246 208 241
3 247 248 249
3 247 250 251
3 249 250 247
3 251 252 253
3 250 252 251
3 252 254 253
3 210 248 247
3 210 209 248
3 209 255 248
3 211 210 247
3 251 211 247
3 212 211 251
3 253 212 251
3 253 213 212
3 253 254 213
3 254 256 213
3 209 214 255
3 255 214 257
3 213 256 215
3 256 258 215
3 214 216 257
3 257 216 259
3 215 258 260
3 217 215 260
3 260 218 217
3 261 218 260
3 216 219 259
3 259 219 262
3 218 261 263
3 220 218 263
3 263 221 220
3 264 221 263
3 219 222 262
3 262 222 265
3 221 264 266
3 223 221 266
3 266 224 223
3 267 224 266
3 222 225 265
3 265 225 268
3 224 267 226
3 267 269 226
3 225 227 268
3 268 227 270
3 226 269 271
3 228 226 271
3 271 229 228
3 272 229 271
3 227 230 270
3 270 230 273
3 274 231 229
3 274 229 275
3 275 229 272
3 231 274 232
3 230 276 273
3 233 276 230
3 276 233 234
3 277 276 234
3 274 275 278
3 278 232 274
3 278 279 232
3 279 235 232
3 234 236 277
3 277 236 280
3 235 279 237
3 279 281 237
3 236 282 280
3 238 282 236
3 239 283 238
3 238 283 282
3 283 239 240
3 284 283 240
3 237 281 241
3 281 285 241
3 240 286 284
3 242 286 240
3 243 287 242
3 242 287 286
3 244 288 243
3 243 288 287
3 245 289 244
3 244 289 288
3 246 290 245
3 245 290 289
3 285 246 241
3 290 246 285
3 249 291 292
3 248 291 249
3 250 249 293
3 249 292 293
3 252 250 294
3 250 293 294
3 294 254 252
3 295 254 294
3 248 255 291
3 291 255 296
3 297 298 256
3 297 256 295
3 295 256 254
3 297 299 298
3 255 257 296
3 296 257 300
3 298 301 258
3 256 298 258
3 302 298 299
3 301 298 302
3 257 259 300
3 300 259 303
3 258 301 260
3 261 304 305
3 260 304 261
3 260 302 304
3 260 301 302
3 304 306 305
3 259 262 303
3 303 262 307
3 261 305 263
3 305 264 263
3 305 306 264
3 306 308 264
3 262 265 307
3 307 265 309
3 264 308 310
3 266 264 310
3 310 267 266
3 311 267 310
3 265 268 309
3 309 268 312
3 313 314 269
3 313 269 311
3 311 269 267
3 313 315 314
3 268 270 312
3 312 270 316
3 269 314 271
3 314 272 271
3 314 315 272
3 315 317 272
3 270 273 316
3 316 273 318
3 272 317 275
3 317 319 275
3 273 320 318
3 276 320 273
3 320 276 277
3 321 320 277
3 275 319 322
3 278 275 322
3 322 279 278
3 323 279 322
3 277 280 321
3 321 280 324
3 279 323 281
3 323 325 281
3 280 326 324
3 282 326 280
3 283 327 282
3 282 327 326
3 327 283 284
3 328 327 284
3 281 325 285
3 325 329 285
3 284 330 328
3 286 330 284
3 287 331 286
3 286 331 330
3 288 332 287
3 287 332 331
3 289 333 288
3 288 333 332
3 290 334 289
3 289 334 333
3 329 290 285
3 334 290 329
3 335 336 337
3 335 338 339
3 337 338 335
3 338 340 339
3 292 291 341
3 335 342 336
3 335 292 342
3 335 293 292
3 341 342 292
3 294 293 335
3 339 294 335
3 295 343 344
3 294 343 295
3 294 340 343
3 294 339 340
3 343 345 344
3 341 346 347
3 341 291 346
3 291 296 346
3 342 341 347
3 295 344 297
3 344 299 297
3 344 345 299
3 345 348 299
3 296 300 346
3 346 300 349
3 299 348 302
3 348 350 302
3 300 303 349
3 349 303 351
3 302 350 352
3 304 302 352
3 352 306 304
3 353 306 352
3 303 307 351
3 351 307 354
3 355 356 308
3 355 308 353
3 353 308 306
3 355 357 356
3 307 309 354
3 354 309 358
3 308 356 310
3 311 359 360
3 310 359 311
3 310 357 359
3 310 356 357
3 359 361 360
3 309 312 358
3 358 312 362
3 311 360 313
3 360 315 313
3 360 361 315
3 361 363 315
3 312 316 362
3 362 316 364
3 315 363 317
3 363 365 317
3 316 318 364
3 364 318 366
3 317 365 319
3 365 367 319
3 318 368 366
3 320 368 318
3 368 320 321
3 369 368 321
3 370 322 319
3 370 319 371
3 371 319 367
3 322 370 323
3 372 324 373
3 372 369 324
3 369 321 324
3 372 373 374
3 375 370 371
3 376 375 371
3 323 375 325
3 370 375 323
3 324 326 373
3 373 377 374
3 373 326 377
3 326 327 377
3 328 378 379
3 328 379 327
3 327 379 377
3 378 380 381
3 379 378 381
3 380 382 383
3 381 380 383
3 382 384 385
3 383 382 385
3 376 385 384
3 376 384 375
3 375 384 386
3 325 386 329
3 375 386 325
3 328 330 378
3 331 378 330
3 380 378 331
3 332 380 331
3 382 380 332
3 333 382 332
3 384 382 333
3 334 384 333
3 386 384 334
3 329 386 334
3 387 388 389
3 387 390 391
3 389 390 387
3 390 392 391
3 337 388 387
3 337 336 388
3 336 393 388
3 338 337 387
3 391 338 387
3 340 394 395
3 338 394 340
3 338 392 394
3 338 391 392
3 394 396 395
3 336 342 393
3 393 342 397
3 340 395 343
3 395 345 343
3 395 396 345
3 396 398 345
3 347 399 400
3 346 399 347
3 397 342 347
3 400 397 347
3 401 402 348
3 401 348 398
3 398 348 345
3 401 403 402
3 346 349 399
3 399 349 404
3 402 405 350
3 348 402 350
3 406 402 403
3 405 402 406
3 349 351 404
3 404 351 407
3 350 405 352
3 353 408 409
3 352 408 353
3 352 406 408
3 352 405 406
3 408 410 409
3 351 354 407
3 407 354 411
3 353 409 355
3 357 412 413
3 355 412 357
3 355 410 412
3 355 409 410
3 412 414 413
3 354 358 411
3 411 358 415
3 357 413 359
3 413 361 359
3 413 414 361
3 414 416 361
3 358 362 415
3 415 362 417
3 361 416 363
3 416 418 363
3 362 364 417
3 417 364 419
3 420 421 365
3 420 365 418
3 418 365 363
3 420 422 421
3 423 366 424
3 423 419 366
3 419 364 366
3 423 424 425
3 421 426 367
3 365 421 367
3 427 421 422
3 426 421 427
3 366 368 424
3 369 428 429
3 368 369 429
3 368 429 425
3 368 425 424
3 429 428 430
3 426 431 371
3 367 426 371
3 432 426 427
3 431 426 432
3 369 372 428
3 374 433 434
3 372 374 434
3 372 434 430
3 372 430 428
3 434 433 435
3 431 436 437
3 431 437 371
3 371 437 376
3 432 436 431
3 374 377 433
3 433 438 435
3 433 377 438
3 377 379 438
3 381 439 379
3 379 439 438
3 383 440 381
3 381 440 439
3 385 441 383
3 383 441 440
3 437 385 376
3 441 385 437
3 442 443 444
3 442 445 446
3 444 445 442
3 446 447 448
3 445 447 446
3 447 449 448
3 389 443 442
3 389 388 443
3 388 450 443
3 390 389 442
3 446 390 442
3 392 390 446
3 392 446 451
3 451 446 448
3 452 448 449
3 451 448 452
3 388 393 450
3 450 393 453
3 392 451 394
3 396 454 455
3 394 454 396
3 394 452 454
3 394 451 452
3 454 456 455
3 393 397 453
3 453 397 457
3 455 458 398
3 396 455 398
3 459 455 456
3 458 455 459
3 400 460 461
3 399 460 400
3 457 397 400
3 461 457 400
3 398 458 401
3 403 462 463
3 401 462 403
3 401 459 462
3 401 458 459
3 462 464 463
3 399 404 460
3 460 404 465
3 463 466 406
3 403 463 406
3 467 463 464
3 466 463 467
3 404 407 465
3 465 407 468
3 406 466 408
3 410 469 470
3 408 469 410
3 408 467 469
3 408 466 467
3 469 471 470
3 407 411 468
3 468 411 472
3 410 470 412
3 470 414 412
3 470 471 414
3 471 473 414
3 411 415 472
3 472 415 474
3 475 476 416
3 475 416 473
3 473 416 414
3 475 477 476
3 478 417 479
3 478 474 417
3 474 415 417
3 478 479 480
3 476 481 418
3 416 476 418
3 482 476 477
3 481 476 482
3 479 419 483
3 417 419 479
3 484 480 479
3 483 484 479
3 418 481 420
3 481 422 420
3 481 482 422
3 482 485 422
3 419 423 483
3 483 423 425
3 483 425 484
3 484 425 486
3 422 485 427
3 485 487 427
3 425 488 486
3 429 488 425
3 488 429 430
3 489 488 430
3 427 487 432
3 487 490 432
3 430 491 489
3 434 491 430
3 435 492 493
3 435 493 434
3 434 493 491
3 493 492 494
3 436 495 496
3 437 436 496
3 490 436 432
3 495 436 490
3 435 438 492
3 492 497 494
3 492 438 497
3 438 439 497
3 440 498 439
3 439 498 497
3 441 499 440
3 440 499 498
3 496 441 437
3 499 441 496
3 444 500 501
3 443 500 444
3 445 444 502
3 444 501 502
3 447 445 503
3 445 502 503
3 503 449 447
3 504 449 503
3 443 450 500
3 500 450 505
3 506 507 452
3 506 452 504
3 504 452 449
3 506 508 507
3 450 453 505
3 505 453 509
3 452 507 454
3 456 510 511
3 454 510 456
3 454 508 510
3 454 507 508
3 510 512 511
3 453 457 509
3 509 457 513
3 511 514 459
3 456 511 459
3 515 511 512
3 514 511 515
3 461 460 516
3 461 516 517
3 461 517 457
3 457 517 513
3 459 514 462
3 464 518 519
3 462 518 464
3 462 515 518
3 462 514 515
3 518 520 519
3 516 521 522
3 516 460 521
3 460 465 521
3 517 516 522
3 519 523 467
3 464 519 467
3 524 519 520
3 523 519 524
3 465 468 521
3 521 468 525
3 467 523 469
3 471 526 527
3 469 526 471
3 469 524 526
3 469 523 524
3 526 528 527
3 468 472 525
3 525 472 529
3 527 530 473
3 471 527 473
3 531 527 528
3 530 527 531
3 532 474 533
3 532 529 474
3 529 472 474
3 532 533 534
3 473 530 475
3 530 477 475
3 530 531 477
3 531 535 477
3 474 478 533
3 533 478 480
3 533 480 534
3 534 480 536
3 477 535 482
3 535 537 482
3 538 484 539
3 538 536 484
3 536 480 484
3 538 539 540
3 482 537 485
3 537 541 485
3 539 486 542
3 484 486 539
3 543 540 539
3 542 543 539
3 485 541 487
3 541 544 487
3 486 488 542
3 489 545 546
3 488 489 546
3 488 546 543
3 488 543 542
3 545 547 548
3 546 545 548
3 548 547 549
3 550 551 552
3 550 544 551
3 550 490 544
3 490 487 544
3 489 491 545
3 493 545 491
3 547 545 493
3 494 553 554
3 493 494 554
3 493 554 549
3 493 549 547
3 553 555 556
3 554 553 556
3 555 557 558
3 556 555 558
3 552 558 557
3 550 552 557
3 550 557 496
3 550 496 495
3 490 550 495
3 494 497 553
3 498 553 497
3 555 553 498
3 499 555 498
3 557 555 499
3 496 557 499
3 559 560 561
3 559 562 563
3 561 562 559
3 563 564 565
3 562 564 563
3 565 566 567
3 564 566 565
3 566 568 567
3 501 560 559
3 501 500 560
3 500 569 560
3 502 501 559
3 563 502 559
3 503 502 563
3 565 503 563
3 504 503 565
3 504 565 570
3 570 565 567
3 571 567 568
3 570 567 571
3 500 505 569
3 569 505 572
3 504 570 506
3 508 573 574
3 506 573 508
3 506 571 573
3 506 570 571
3 573 575 574
3 505 509 572
3 572 509 576
3 508 574 510
3 574 512 510
3 574 575 512
3 575 577 512
3 509 513 576
3 576 513 578
3 579 580 515
3 579 515 577
3 577 515 512
3 579 581 580
3 513 517 578
3 578 517 582
3 515 580 518
3 580 520 518
3 580 581 520
3 581 583 520
3 522 521 584
3 522 584 585
3 522 585 517
3 517 585 582
3 520 583 524
3 583 586 524
3 584 525 587
3 521 525 584
3 588 585 584
3 587 588 584
3 524 586 589
3 526 524 589
3 589 528 526
3 590 528 589
3 587 529 591
3 525 529 587
3 592 588 587
3 591 592 587
3 528 590 531
3 590 593 531
3 529 532 591
3 591 532 534
3 591 534 592
3 592 534 594
3 531 593 535
3 593 595 535
3 596 536 597
3 596 594 536
3 594 534 536
3 597 598 599
3 596 597 599
3 599 598 600
3 535 595 537
3 595 601 537
3 536 538 597
3 540 597 538
3 540 602 597
3 602 598 597
3 603 600 598
3 602 603 598
3 604 605 606
3 604 601 605
3 604 541 601
3 541 537 601
3 602 543 607
3 540 543 602
3 608 603 602
3 608 602 609
3 609 602 607
3 608 609 610
3 611 604 606
3 612 611 606
3 541 611 544
3 604 611 541
3 543 546 607
3 548 607 546
3 609 607 548
3 609 548 549
3 609 549 610
3 610 549 613
3 551 611 612
3 551 612 552
3 552 612 614
3 544 611 551
3 549 615 613
3 554 615 549
3 556 616 554
3 554 616 615
3 558 617 556
3 556 617 616
3 614 558 552
3 617 558 614
3 618 619 620
3 618 621 622
3 620 621 618
3 622 623 624
3 621 623 622
3 623 625 624
3 626 619 618
3 627 619 626
3 622 628 618
3 628 626 618
3 624 629 622
3 629 628 622
3 630 624 625
3 630 631 624
3 631 629 624
3 630 632 631
3 561 633 634
3 560 633 561
3 627 626 562
3 627 562 634
3 634 562 561
3 564 562 626
3 628 564 626
3 566 564 628
3 629 566 628
3 568 566 629
3 568 629 635
3 635 629 631
3 636 631 632
3 636 637 631
3 637 635 631
3 636 638 637
3 560 569 633
3 633 569 639
3 635 640 571
3 568 635 571
3 637 641 635
3 641 640 635
3 642 637 638
3 641 637 642
3 569 572 639
3 639 572 643
3 571 640 573
3 575 573 640
3 575 640 644
3 644 640 641
3 645 641 642
3 644 641 645
3 572 576 643
3 643 576 646
3 644 647 577
3 575 644 577
3 648 644 645
3 647 644 648
3 576 578 646
3 646 578 649
3 577 647 579
3 581 650 651
3 579 650 581
3 579 648 650
3 579 647 648
3 650 652 651
3 578 582 649
3 649 582 653
3 651 654 583
3 581 651 583
3 655 651 652
3 654 651 655
3 582 585 653
3 653 585 656
3 654 657 586
3 583 654 586
3 658 654 655
3 657 654 658
3 585 588 656
3 656 588 659
3 586 657 589
3 657 590 589
3 657 658 590
3 658 660 590
3 661 592 662
3 661 659 592
3 659 588 592
3 661 662 663
3 590 660 593
3 660 664 593
3 662 594 665
3 592 594 662
3 666 663 662
3 665 666 662
3 593 664 595
3 664 667 595
3 594 596 665
3 665 668 666
3 665 596 668
3 596 599 668
3 668 599 600
3 669 668 600
3 595 667 601
3 667 670 601
3 671 603 672
3 671 669 603
3 669 600 603
3 671 672 673
3 605 674 675
3 606 605 675
3 670 605 601
3 674 605 670
3 603 608 672
3 610 676 677
3 608 610 677
3 608 677 673
3 608 673 672
3 676 678 679
3 677 676 679
3 678 680 681
3 679 678 681
3 680 675 681
3 680 612 675
3 612 606 675
3 676 613 682
3 610 613 676
3 678 676 683
3 683 676 682
3 680 678 684
3 684 678 683
3 612 684 614
3 680 684 612
3 613 615 682
3 616 682 615
3 683 682 616
3 617 683 616
3 684 683 617
3 614 684 617
3 685 686 687
3 685 688 689
3 687 688 685
3 689 690 691
3 688 690 689
3 690 692 691
3 620 693 694
3 619 693 620
3 686 685 621
3 686 621 694
3 694 621 620
3 623 621 685
3 689 623 685
3 625 623 689
3 625 689 695
3 695 689 691
3 696 691 692
3 696 697 691
3 697 695 691
3 696 698 697
3 619 627 693
3 693 627 699
3 625 695 630
3 632 630 695
3 632 695 700
3 700 695 697
3 701 697 698
3 700 697 701
3 634 633 702
3 634 702 703
3 634 703 627
3 627 703 699
3 632 700 636
3 700 638 636
3 700 701 638
3 701 704 638
3 702 639 705
3 633 639 702
3 706 703 702
3 705 706 702
3 638 704 642
3 704 707 642
3 705 643 708
3 639 643 705
3 709 706 705
3 708 709 705
3 642 707 645
3 707 710 645
3 708 711 712
3 708 643 711
3 643 646 711
3 709 708 712
3 645 710 648
3 710 713 648
3 646 649 711
3 711 649 714
3 648 713 715
3 650 648 715
3 715 652 650
3 716 652 715
3 717 653 718
3 717 714 653
3 714 649 653
3 717 718 719
3 652 716 655
3 716 720 655
3 718 656 721
3 653 656 718
3 722 719 718
3 721 722 718
3 655 720 658
3 720 723 658
3 721 659 724
3 656 659 721
3 725 722 721
3 724 725 721
3 658 723 660
3 723 726 660
3 659 661 724
3 663 727 728
3 661 663 728
3 661 728 725
3 661 725 724
3 728 727 729
3 660 726 664
3 726 730 664
3 727 666 731
3 663 666 727
3 732 729 727
3 731 732 727
3 664 730 667
3 730 733 667
3 666 668 731
3 669 734 735
3 668 669 735
3 668 735 732
3 668 732 731
3 734 736 737
3 735 734 737
3 736 738 739
3 737 736 739
3 738 740 741
3 739 738 741
3 740 742 743
3 741 740 743
3 742 733 743
3 742 670 733
3 670 667 733
3 669 671 734
3 673 734 671
3 673 744 734
3 744 736 734
3 738 736 745
3 745 736 744
3 740 738 746
3 746 738 745
3 674 746 675
3 674 742 746
3 742 740 746
3 670 742 674
3 673 677 744
3 679 744 677
3 745 744 679
3 681 745 679
3 746 745 681
3 675 746 681
3 747 748 749
3 747 750 751
3 749 750 747
3 751 752 753
3 750 752 751
3 752 754 753
3 755 748 747
3 756 748 755
3 751 757 747
3 757 755 747
3 753 758 751
3 758 757 751
3 759 753 754
3 758 753 759
3 760 756 755
3 761 756 760
3 757 762 755
3 762 760 755
3 758 763 757
3 763 762 757
3 764 758 759
3 763 758 764
3 765 766 767
3 761 765 767
3 761 760 765
3 760 768 765
3 762 769 760
3 769 768 760
3 770 763 771
3 770 769 763
3 769 762 763
3 764 771 763
3 772 766 765
3 773 766 772
3 768 774 765
3 774 772 765
3 769 775 768
3 775 774 768
3 776 769 770
3 775 769 776
3 687 777 778
3 686 777 687
3 773 772 688
3 773 688 778
3 778 688 687
3 690 688 772
3 774 690 772
3 692 690 774
3 692 774 779
3 779 774 775
3 780 775 776
3 779 775 780
3 694 781 782
3 693 781 694
3 777 686 694
3 782 777 694
3 692 779 696
3 779 698 696
3 779 780 698
3 780 783 698
3 693 699 781
3 781 699 784
3 698 783 701
3 783 785 701
3 699 703 784
3 784 703 786
3 701 785 704
3 785 787 704
3 703 706 786
3 786 706 788
3 704 787 707
3 787 789 707
3 706 709 788
3 788 709 790
3 707 789 710
3 789 791 710
3 712 711 792
3 712 792 793
3 712 793 709
3 709 793 790
3 710 791 713
3 791 794 713
3 792 714 795
3 711 714 792
3 796 793 792
3 795 796 792
3 713 794 797
3 715 713 797
3 797 716 715
3 798 716 797
3 714 717 795
3 719 799 800
3 717 719 800
3 717 800 796
3 717 796 795
3 800 799 801
3 716 798 720
3 798 802 720
3 799 722 803
3 719 722 799
3 804 801 799
3 803 804 799
3 720 802 723
3 802 805 723
3 803 725 806
3 722 725 803
3 807 804 803
3 806 807 803
3 808 809 810
3 808 805 809
3 808 726 805
3 726 723 805
3 725 728 806
3 729 811 812
3 728 729 812
3 728 812 807
3 728 807 806
3 812 811 813
3 814 808 810
3 815 814 810
3 726 814 730
3 808 814 726
3 811 732 816
3 729 732 811
3 817 813 811
3 817 811 818
3 818 811 816
3 818 819 820
3 817 818 820
3 819 821 822
3 820 819 822
3 815 822 821
3 815 821 814
3 814 821 823
3 730 823 733
3 814 823 730
3 732 735 816
3 737 816 735
3 818 816 737
3 739 818 737
3 819 818 739
3 741 819 739
3 821 819 741
3 743 821 741
3 823 821 743
3 733 823 743
3 749 824 825
3 748 824 749
3 750 749 826
3 749 825 826
3 752 750 827
3 750 826 827
3 827 754 752
3 828 754 827
3 748 756 824
3 824 756 829
3 754 828 759
3 828 830 759
3 756 761 829
3 829 761 831
3 759 830 764
3 830 832 764
3 767 833 834
3 766 833 767
3 831 761 767
3 834 831 767
3 771 835 836
3 770 771 836
3 832 771 764
3 835 771 832
3 766 773 833
3 833 773 837
3 770 836 776
3 836 838 776
3 778 839 840
3 777 839 778
3 837 773 778
3 840 837 778
3 776 838 780
3 838 841 780
3 782 781 842
3 782 842 843
3 782 843 777
3 777 843 839
3 780 841 783
3 841 844 783
3 842 784 845
3 781 784 842
3 846 843 842
3 845 846 842
3 783 844 785
3 844 847 785
3 845 786 848
3 784 786 845
3 849 846 845
3 848 849 845
3 785 847 787
3 847 850 787
3 848 788 851
3 786 788 848
3 852 849 848
3 851 852 848
3 787 850 789
3 850 853 789
3 851 790 854
3 788 790 851
3 855 852 851
3 854 855 851
3 789 853 791
3 853 856 791
3 854 793 857
3 790 793 854
3 858 855 854
3 858 854 859
3 859 854 857
3 858 859 860
3 791 856 794
3 856 861 794
3 857 796 862
3 793 796 857
3 859 857 863
3 863 857 862
3 864 860 859
3 863 864 859
3 865 797 794
3 865 794 866
3 866 794 861
3 797 865 798
3 796 800 862
3 801 862 800
3 801 867 862
3 867 863 862
3 868 864 863
3 867 868 863
3 869 865 866
3 870 869 866
3 798 869 802
3 865 869 798
3 867 804 871
3 801 804 867
3 872 868 867
3 871 872 867
3 873 869 870
3 874 873 870
3 802 873 805
3 869 873 802
3 871 807 875
3 804 807 871
3 876 872 871
3 876 871 877
3 877 871 875
3 877 878 879
3 876 877 879
3 878 880 881
3 879 878 881
3 874 881 880
3 873 874 880
3 873 880 810
3 873 810 809
3 805 873 809
3 807 812 875
3 813 875 812
3 813 882 875
3 882 877 875
3 878 877 883
3 883 877 882
3 880 878 884
3 884 878 883
3 810 884 815
3 880 884 810
3 813 817 882
3 820 882 817
3 883 882 820
3 822 883 820
3 884 883 822
3 815 884 822
3 825 885 886
3 824 885 825
3 826 825 887
3 825 886 887
3 827 826 888
3 826 887 888
3 888 828 827
3 889 828 888
3 824 829 885
3 885 829 890
3 828 889 830
3 889 891 830
3 829 831 890
3 890 831 892
3 830 891 832
3 891 893 832
3 834 833 894
3 895 892 831
3 895 831 894
3 895 894 896
3 894 831 834
3 896 897 898
3 895 896 898
3 897 836 835
3 897 835 898
3 898 835 899
3 893 835 832
3 899 835 893
3 894 900 901
3 894 833 900
3 833 837 900
3 896 894 901
3 902 896 901
3 897 896 902
3 903 897 902
3 903 836 897
3 903 904 836
3 904 838 836
3 840 839 905
3 840 905 906
3 840 906 837
3 837 906 900
3 838 904 841
3 904 907 841
3 905 843 908
3 839 843 905
3 909 906 905
3 908 909 905
3 841 907 844
3 907 910 844
3 908 846 911
3 843 846 908
3 912 909 908
3 911 912 908
3 844 910 847
3 910 913 847
3 911 849 914
3 846 849 911
3 915 912 911
3 914 915 911
3 847 913 850
3 913 916 850
3 914 852 917
3 849 852 914
3 918 915 914
3 917 918 914
3 850 916 853
3 916 919 853
3 917 855 920
3 852 855 917
3 921 918 917
3 920 921 917
3 853 919 856
3 919 922 856
3 855 858 920
3 920 858 860
3 920 860 921
3 921 860 923
3 856 922 861
3 922 924 861
3 925 864 926
3 925 923 864
3 923 860 864
3 926 927 928
3 925 926 928
3 927 929 930
3 928 927 930
3 929 924 930
3 929 866 924
3 866 861 924
3 926 868 931
3 864 868 926
3 927 926 932
3 932 926 931
3 929 927 933
3 933 927 932
3 866 933 870
3 929 933 866
3 931 872 934
3 868 872 931
3 932 931 935
3 935 931 934
3 933 932 936
3 936 932 935
3 870 936 874
3 933 936 870
3 872 876 934
3 879 934 876
3 935 934 879
3 881 935 879
3 936 935 881
3 874 936 881
3 886 885 937
3 886 938 887
3 937 938 886
3 887 939 888
3 938 939 887
3 888 939 889
3 937 890 940
3 885 890 937
3 938 937 941
3 941 937 940
3 939 938 942
3 942 938 941
3 889 942 891
3 939 942 889
3 940 892 943
3 890 892 940
3 941 940 944
3 944 940 943
3 942 941 945
3 945 941 944
3 891 945 893
3 942 945 891
3 892 895 943
3 898 943 895
3 944 943 898
3 899 944 898
3 945 944 899
3 893 945 899
3 901 900 946
3 901 947 902
3 946 947 901
3 902 948 903
3 947 948 902
3 903 948 904
3 946 906 949
3 900 906 946
3 947 946 950
3 950 946 949
3 948 947 951
3 951 947 950
3 904 951 907
3 948 951 904
3 949 909 952
3 906 909 949
3 950 949 953
3 953 949 952
3 951 950 954
3 954 950 953
3 907 954 910
3 951 954 907
3 952 912 955
3 909 912 952
3 953 952 956
3 956 952 955
3 954 953 957
3 957 953 956
3 910 957 913
3 954 957 910
3 955 915 958
3 912 915 955
3 956 955 959
3 959 955 958
3 957 956 960
3 960 956 959
3 913 960 916
3 957 960 913
3 958 918 961
3 915 918 958
3 959 958 962
3 962 958 961
3 960 959 963
3 963 959 962
3 916 963 919
3 960 963 916
3 961 921 964
3 918 921 961
3 962 961 965
3 965 961 964
3 963 962 966
3 966 962 965
3 919 966 922
3 963 966 919
3 964 923 967
3 921 923 964
3 965 964 968
3 968 964 967
3 966 965 969
3 969 965 968
3 922 969 924
3 966 969 922
3 923 925 967
3 928 967 925
3 968 967 928
3 930 968 928
3 969 968 930
3 924 969 930
