# vtk DataFile Version 3.0
this file was written using fslvtkio
ASCII
DATASET POLYDATA
POINTS 664 float
106.885 133.021 122.276
105.271 132.48 122.272
106.169 130.727 122.724
107.958 130.744 123.042
108.751 132.752 122.454
109.195 131.032 123.376
105.036 134.518 122.469
103.052 133.765 123.053
103.831 132.525 122.522
106.824 135.404 122.505
108.379 135.041 122.43
110.07 132.369 123.066
109.876 134.566 122.782
110.999 132.891 123.286
111.175 134.252 123.552
111.964 132.743 124.228
104.162 136.254 123.004
102.62 135.484 124.119
105.977 137.136 122.513
107.946 137.505 122.263
109.584 136.769 122.635
111.032 135.823 123.46
112.276 134.079 124.399
103.793 137.783 123.989
103.348 136.999 125.366
105.332 138.967 123.409
107.464 139.53 123.039
109.577 139.168 122.972
111.11 137.847 123.453
112.374 136.003 124.472
105.177 138.808 125.198
107.21 139.427 124.887
109.275 139.962 124.768
111.286 139.297 124.74
112.344 137.684 124.849
104.315 131.118 122.411
102.287 130.938 122.684
103.793 129.677 122.516
105.27 128.808 122.706
107.421 128.651 123.07
109.414 129.098 123.926
110.327 130.728 123.882
110.88 129.373 124.586
101.655 133.319 123.951
111.549 131.253 124.372
113.019 131.788 125.042
101.845 135.068 125.615
113.44 133.984 125.39
103.243 136.243 126.715
113.308 136.261 125.6
104.987 137.477 126.493
106.921 138.304 126.476
108.829 138.987 126.595
110.893 139.157 126.512
112.752 138.24 126.464
103.902 125.596 123.184
102.366 124.713 123.421
103.712 124.003 123.603
104.972 123.696 123.98
105.846 125.263 123.552
106.47 123.842 124.516
102.748 127.761 122.75
101.079 127.015 123.016
105.112 127.109 123.041
107.245 124.989 124.103
107.237 126.777 123.601
108.401 125.589 124.412
100.919 129.332 122.954
99.2478 129.69 124.576
99.6329 127.772 123.754
109.25 127.266 124.323
111.536 127.608 125.193
112.182 129.775 125.053
113.398 129.445 125.743
100.641 131.459 123.921
99.6796 131.266 125.617
114.347 131.543 125.966
100.895 132.956 125.44
100.331 131.98 127.084
114.607 133.143 126.248
114.389 134.881 126.192
115.734 133.962 126.862
101.527 133.695 126.761
102.772 134.823 127.658
114.05 136.583 126.708
115.523 135.444 127.356
104.758 136.18 127.739
106.665 136.898 127.802
108.531 137.501 127.942
110.47 137.961 127.807
112.343 137.858 127.917
114.233 136.933 128.007
103.753 122.376 124.3
101.805 121.63 124.163
102.64 120.365 124.73
104.671 120.387 125.199
106.197 122.267 125.031
106.874 120.336 126.024
108.472 121.621 126.046
109.209 119.854 127.373
101.085 123.351 123.865
99.4018 122.429 124.602
100.545 121.77 124.247
108.002 123.536 125.269
110.53 121.588 126.454
110.146 123.574 125.681
111.808 122.776 126.144
112.076 124.434 125.803
113.081 123.881 126.477
98.8744 124.589 124.671
97.4897 125.082 126.41
97.8055 123.29 125.786
100.016 125.649 123.592
109.834 125.518 124.91
111.545 125.598 125.359
113.28 126.188 126.231
98.3648 127.016 125.086
97.2478 127.088 127.239
114.094 128 126.314
115.547 130.482 126.527
115.892 129.174 127.038
117.107 130.701 127.448
117.524 129.691 127.906
98.1378 128.862 126.254
99.0553 130.308 127.224
115.929 132.349 126.89
117.497 132.172 127.614
118.706 131.193 128.483
100.491 131.113 128.699
117.135 133.938 127.891
118.784 133.014 128.858
101.865 132.632 128.104
103.196 133.475 128.936
116.17 135.681 128.489
117.691 134.613 129.324
104.452 134.925 128.776
106.179 135.444 128.714
108.063 135.635 129.022
109.888 136.415 128.904
111.789 136.592 129.065
113.718 136.553 129.367
115.859 136.104 129.647
100.855 118.433 125.786
98.726 118.419 126.39
99.799 117.033 126.392
101.926 116.912 126.178
103.079 118.712 125.56
104.098 117.047 126.581
105.383 118.722 126.26
106.331 117.302 127.449
107.417 118.858 127.195
108.722 117.673 128.413
100.335 120.151 124.993
98.1891 119.932 126.168
110.553 118.982 128.771
98.1364 121.48 125.555
96.5092 122.922 127.651
97.0249 120.856 127.096
111.231 120.519 127.924
112.84 121.85 127.222
114.148 124.141 127.258
96.7463 125.068 128.565
114.896 125.677 127.496
97.4193 127.011 129.356
115.254 127.173 127.516
116.717 128.327 127.765
118.36 129.511 129.005
98.297 128.772 128.308
99.5667 129.875 129.584
119.663 131.418 129.973
101.63 130.41 130.281
119.163 133.451 130.603
102.448 131.599 129.379
103.867 132.215 129.749
108.761 134.303 129.784
108.486 132.675 130.254
107.663 134.011 129.8
109.586 133.178 130.351
117.316 134.747 130.759
104.711 133.566 129.559
106.318 134.15 129.72
109.716 134.894 129.784
111.344 135.216 130.102
113.169 135.404 130.501
115.136 135.4 130.829
101.283 113.8 127.606
99.8654 112.707 128.261
101.255 112.291 128.257
102.652 112.247 128.499
103.661 113.928 128.085
104.621 112.301 129.078
105.707 114.235 128.714
106.29 112.603 129.776
107.355 114.41 129.482
108.228 113.294 130.291
98.7128 114.533 127.6
96.8614 114.912 128.678
97.856 113.162 128.783
100.226 115.638 127.014
102.608 115.378 127.078
104.928 115.591 127.555
107.155 115.917 128.528
109.18 115.598 129.483
97.7635 116.634 127.276
96.137 117.267 128.801
110.524 117.351 129.56
96.9614 118.959 127.602
96.0873 120.934 128.779
111.439 118.643 129.994
96.5446 123.3 130.201
112.12 119.734 129.537
113.258 120.791 128.907
114.372 122.481 128.224
115.383 124.708 128.517
115.257 123.665 129.546
97.3242 125.118 130.541
115.956 126.423 128.708
116.113 126.097 130.289
98.3722 126.456 131.092
117.299 127.813 129.342
118.766 129.603 130.542
98.9522 128.267 130.167
100.83 129.111 131.253
119.345 131.619 131.816
103.099 129.514 131.437
103.967 130.741 130.459
105.99 130.935 131.167
105.149 129.523 131.799
107.792 130.797 131.398
106.796 129.599 132.134
109.414 131.397 131.192
108.523 129.289 132.408
111.529 131.794 131.413
110.453 130.2 132.153
113.359 132.391 131.712
112.589 130.505 132.272
114.224 130.829 132.358
117.979 133.178 132.015
105.422 132.278 130.317
107.196 132.275 130.447
110.788 133.266 130.649
112.559 133.941 131.065
114.943 132.32 132.263
114.561 134.075 131.634
116.332 134.222 131.732
116.399 132.724 132.478
101.259 110.794 128.876
99.1832 109.994 129.111
100.39 109.024 129.514
102.418 109.001 129.694
103.585 110.641 129.436
104.654 109.056 130.354
105.616 110.643 130.346
107.373 109.463 131.449
107.29 111.492 130.705
108.775 111.171 131.447
98.791 111.532 129.007
96.5922 112.17 130.177
97.4313 110.33 129.779
109.636 113.331 130.766
95.8182 114.349 130.378
110.538 114.621 130.689
111.072 116.044 130.578
111.649 114.78 131.777
95.6421 116.667 130.323
95.808 117.27 131.796
95.6605 115.597 131.564
111.591 117.876 131.132
111.576 116.838 132.101
95.818 118.964 130.012
96.0969 119.203 131.942
112.205 119.292 130.947
111.982 119.502 132.439
96.1082 121.223 130.811
96.6778 120.765 132.61
113.081 120.483 131.229
114.251 121.773 130.016
115.192 123.749 130.799
97.2234 122.773 132.175
98.3344 124.481 132.375
115.309 125.314 131.563
99.5113 125.911 132.466
117.446 128.025 131.049
115.959 126.953 131.816
99.835 127.596 131.65
101.53 127.657 132.427
110.199 128.502 132.714
109.93 126.937 133.266
108.678 127.289 133.191
112.218 128.945 132.807
111.151 127.118 133.254
114.463 129.211 132.807
112.939 127.373 132.858
116.585 129.01 132.467
114.711 127.368 132.658
118.142 129.806 131.944
102.661 128.507 132.279
104.58 128.282 132.811
106.767 128.021 132.968
115.907 130.619 132.694
117.625 131.218 132.625
101.629 105.363 130.937
99.6712 105.099 131.097
100.45 103.564 131.894
102.988 104.17 131.907
104.011 105.927 131.094
104.962 105.035 132.186
106.039 106.737 132.102
106.807 105.633 133.018
99.3889 106.694 130.52
97.2052 107.44 131.177
98.1295 105.753 131.187
100.937 107.542 130.164
102.948 107.255 130.382
105.26 107.839 131.254
108.034 107.18 132.98
107.568 108.119 132.154
110.029 108.379 133.131
98.2558 108.578 130.165
96.4909 109.767 131.524
109.818 109.825 132.271
110.478 111.819 131.833
111.705 110.738 132.644
96.0027 111.937 132.477
111.167 113.314 131.441
112.221 112.69 132.66
95.614 113.892 132.182
95.7939 115.351 133.209
96.1259 113.137 133.968
111.791 114.858 133.09
96.3048 117.15 133.561
111.083 117.431 133.104
96.9079 118.734 133.723
110.854 119.466 133.688
97.622 119.944 133.94
113.016 121.885 133.036
111.724 121.185 134.033
114.066 122.109 131.556
97.9083 121.715 133.556
100.469 124.626 133.491
99.1601 122.938 133.723
100.733 123.081 134.25
112.05 123.695 134.181
111.064 122.177 134.669
110.256 123.295 134.568
113.535 124.218 133.186
114.351 123.755 132.271
101.214 126.269 132.95
102.03 123.846 134.252
102.799 125.532 133.67
103.627 124.022 134.164
110.118 125.269 133.615
109.233 123.91 134.271
108.238 124.503 133.988
111.901 125.808 133.39
113.266 125.692 133.232
114.635 125.64 132.6
103.293 126.958 133.087
104.556 125.045 133.687
105.423 126.467 133.375
107.654 126.158 133.613
106.341 124.861 134.003
98.6743 104.404 131.834
97.0593 105.402 132.405
98.1437 103.386 132.896
99.9344 101.759 132.72
102.43 102.65 132.545
105.262 103.674 133.085
107.858 105.247 133.858
96.6609 107.613 132.961
109.575 106.994 133.821
112.206 107.607 134.62
96.2781 109.687 133.821
112.06 109.271 133.5
112.741 111.194 134.044
96.7156 111.287 135.174
111.988 113.123 134.175
96.7883 115.127 134.77
97.2593 113.379 135.527
111.046 115.224 133.844
97.7274 116.685 135.114
110.123 116.75 133.804
109.933 115.431 134.384
108.876 116.796 134.139
98.2252 118.275 134.998
109.725 118.525 133.869
108.449 118.601 134.124
98.6577 119.337 134.651
98.5197 120.63 134.259
99.4943 119.936 134.789
109.842 120.876 134.418
108.183 120.32 134.3
99.449 121.367 134.451
101.672 122.555 134.717
100.999 121.556 134.788
102.479 121.681 134.955
108.571 122.284 134.541
106.971 120.398 134.643
106.637 121.612 134.77
105.219 123.434 134.344
103.61 122.546 134.721
106.928 123.191 134.478
105.172 121.82 134.816
101.966 100.996 133.369
99.5142 100.628 134.268
101.754 99.6534 134.543
104.028 100.38 134.284
104.263 101.969 133.294
106.083 101.543 134.499
105.813 102.595 133.74
107.213 103.157 134.573
96.8868 104.962 134.269
98.0201 102.286 134.393
108.382 104.467 134.494
110.106 106.014 134.606
111.418 105.413 135.401
96.7877 107.245 134.779
113.199 107.098 135.915
97.1563 108.77 135.904
113.093 109.738 135.138
112.416 109.332 136.607
98.1904 110.256 136.745
111.603 111.505 135.477
110.172 110.753 136.263
98.6801 114.807 136.193
98.4495 112.26 136.5
109.461 112.859 135.516
108.607 111.731 135.965
107.656 113.041 135.731
110.537 113.797 134.719
99.4964 116.745 135.849
100.165 114.047 136.639
101.247 115.886 136.089
103.399 115.6 136.051
102.002 114.077 136.548
105.476 115.281 135.898
104.016 113.693 136.235
107.62 114.751 135.593
105.915 113.382 135.81
109.033 115.053 135.026
99.5647 118.66 135.463
101.011 118.038 135.844
102.721 117.505 135.89
104.482 117.093 135.793
106.221 116.868 135.398
107.74 116.708 134.823
100.643 119.846 135.162
102.28 119.727 135.506
103.948 118.931 135.667
105.386 118.399 135.433
107.015 118.606 134.871
103.891 120.672 135.24
105.541 120.04 135.127
99.817 99.7611 135.761
101.719 98.5548 135.454
103.999 99.0289 135.209
106.202 100.203 135.409
108.298 101.876 135.691
109.278 103.863 135.423
110.805 103.647 136.16
97.8414 103.953 135.767
98.7107 101.963 136.446
112.752 105.574 136.433
97.6853 106.229 136.348
98.8126 104.408 137.168
111.481 107.533 137.41
98.6002 108.008 137.458
110.038 109.286 137.025
99.5774 109.443 137.683
100.021 111.159 137.223
100.978 109.644 137.753
106.488 110.362 136.323
106.121 109.127 136.86
104.929 110.058 136.485
108.427 110.385 136.415
107.969 109.091 137.012
100.677 112.81 136.86
101.836 110.743 137.287
102.581 112.137 136.66
104.704 111.817 136.21
103.447 110.372 136.887
106.733 111.828 135.943
103.091 97.7591 136.155
100.722 98.209 136.828
102.246 97.308 137.829
104.371 97.3095 137.216
105.754 98.3769 136.036
106.553 97.5218 137.159
107.926 99.8658 136.487
108.833 98.8547 137.479
110.125 101.586 136.697
110.636 100.343 137.667
111.957 102.057 137.23
112.322 101.018 138.012
99.5252 100.064 137.662
112.568 103.76 136.808
113.572 102.929 137.918
99.5695 102.046 138.523
112.317 105.959 137.836
113.222 104.55 138.155
99.7738 106.268 137.974
100.164 103.997 138.478
107.773 106.434 138.072
107.457 105.102 139.336
105.909 106.003 138.529
109.69 106.836 137.906
109.931 105.67 138.606
111.721 104.94 138.986
100.72 108.05 138.016
101.715 105.772 138.616
102.605 107.295 137.976
105.052 107.185 137.886
103.76 105.977 138.386
106.781 107.992 137.512
109.021 107.849 137.505
102.52 108.937 137.477
104.412 108.559 137.131
107.721 97.0227 137.944
105.786 96.3952 138.398
106.989 95.8177 139.388
108.618 96.217 138.985
109.171 97.5822 138.164
109.919 96.9791 138.922
100.571 98.5715 138.752
101.9 97.4 139.687
103.871 96.6817 138.708
110.507 98.7359 138.188
112.29 99.2834 138.632
113.575 101.273 138.529
113.806 99.8948 139.039
100.424 100.681 139.681
113.371 102.646 139.414
114.016 101.593 139.748
101.174 102.49 139.743
112.465 102.026 140.698
112.545 103.659 139.318
102.236 103.686 139.591
102.777 104.773 139.151
105.046 105.098 139.147
104.891 104.145 139.971
106.726 103.867 140.369
108.569 104.042 139.91
110.365 104.111 139.578
105.022 95.9292 140.036
106.722 95.3535 140.892
108.472 95.4129 140.317
110.129 95.9201 139.842
111.097 97.8023 138.996
111.449 96.8131 139.642
112.06 97.8567 139.263
112.855 97.3276 139.755
101.136 99.4238 140.605
102.043 98.0684 141.227
103.215 96.4263 140.658
114.075 98.3554 139.642
114.884 100.252 139.701
115.292 98.7012 140.066
115.758 99.7046 140.604
116.186 98.5407 140.867
102.416 101.446 140.818
102.555 99.9718 141.836
114.054 101.489 140.782
115.079 100.671 141.256
116.303 99.5398 141.585
103.238 102.919 140.248
104.248 101.321 141.667
104.977 102.675 140.773
107.42 102.879 140.889
106.168 101.761 141.495
109.37 102.847 140.697
108.208 101.576 141.735
111.098 102.925 140.36
110.341 101.573 141.258
111.954 101.027 141.875
113.653 100.84 141.964
115.315 100.109 142.355
105.241 95.7321 141.754
107.071 95.1672 142.102
108.56 95.0972 141.749
110.192 95.1535 141.136
111.644 95.8166 140.317
112.985 95.8646 140.719
102.797 97.6483 142.382
103.822 96.1783 142.463
114.435 96.4891 140.726
115.677 97.3217 140.723
116.9 97.9781 141.571
103.358 98.8338 143.08
116.635 99.1506 142.592
104.208 100.134 142.755
105.995 100.755 142.546
107.673 100.766 142.738
106.838 100.079 143.716
109.318 100.858 142.624
110.824 100.712 142.544
112.446 100.479 142.812
113.74 100.135 143.136
115.225 99.8758 143.475
108.479 100.21 143.733
110.096 100.235 143.708
111.516 100.15 143.671
112.727 99.997 143.751
106.738 95.2476 142.784
108.157 95.0431 143.055
109.911 94.9956 142.77
111.642 95.1669 141.8
104.038 97.2523 143.534
105.299 95.8784 143.499
106.894 95.2659 143.87
108.796 95.1208 144.176
111.246 95.164 143.283
113.214 95.3603 142.191
114.803 95.4931 142.093
116.19 95.8641 141.598
117.266 96.6557 141.77
117.732 97.9483 142.823
118.045 96.7345 143.487
104.35 98.7254 143.845
105.032 97.4569 144.512
116.659 98.8562 143.623
117.459 97.9179 144.318
105.404 99.5725 143.854
106.566 99.1663 144.771
114.719 99.1788 145.022
113.7 99.6349 144.302
116.011 98.8202 144.605
107.808 99.5502 144.754
109.274 99.6479 144.781
110.775 99.6501 144.834
112.174 99.5675 144.748
106.086 96.1996 145.094
107.58 95.4467 145.509
109.128 95.5216 145.375
110.598 95.5374 144.454
112.478 95.4084 143.97
114.016 95.2204 143.534
115.74 95.2031 143.179
117.382 95.4848 143.131
117.486 96.3507 144.708
105.959 98.013 145.212
107.048 96.9976 146.132
108.486 96.3979 146.476
116.62 97.6317 145.15
107.303 98.4428 145.806
108.312 97.8408 146.823
113.977 98.379 146.014
113.182 99.2305 145.637
115.275 98.0095 145.581
108.583 99.0716 145.908
110.15 99.2363 145.846
111.744 99.2699 146.098
110.156 96.2541 145.846
111.8 96.162 145.193
113.355 96.0621 144.77
114.82 95.7289 144.706
116.408 95.5427 144.441
109.703 97.3046 146.88
111.271 97.1786 146.389
112.682 96.938 145.818
114.117 97.0679 145.665
115.771 96.6477 145.26
109.469 98.4726 146.709
110.939 98.4108 146.819
112.553 98.1498 146.533
POLYGONS 1324  5296
3 0 1 2
3 0 3 4
3 2 3 0
3 3 5 4
3 6 7 8
3 1 6 8
3 1 0 6
3 0 9 6
3 4 10 0
3 10 9 0
3 11 4 5
3 11 12 4
3 12 10 4
3 12 13 14
3 11 13 12
3 13 15 14
3 16 7 6
3 17 7 16
3 9 18 6
3 18 16 6
3 10 19 9
3 19 18 9
3 12 20 10
3 20 19 10
3 14 21 12
3 21 20 12
3 22 14 15
3 21 14 22
3 23 17 16
3 24 17 23
3 18 25 16
3 25 23 16
3 19 26 18
3 26 25 18
3 20 27 19
3 27 26 19
3 21 28 20
3 28 27 20
3 29 21 22
3 28 21 29
3 23 30 24
3 25 30 23
3 31 30 25
3 26 31 25
3 32 31 26
3 27 32 26
3 33 32 27
3 28 33 27
3 34 33 28
3 29 34 28
3 35 36 37
3 35 2 1
3 35 37 2
3 37 38 2
3 3 2 39
3 2 38 39
3 5 40 41
3 5 3 40
3 3 39 40
3 40 42 41
3 8 36 35
3 8 7 36
3 7 43 36
3 1 8 35
3 5 41 11
3 41 42 44
3 41 44 11
3 11 44 13
3 44 15 13
3 45 15 44
3 7 17 43
3 43 17 46
3 15 45 22
3 45 47 22
3 17 24 46
3 46 24 48
3 22 47 29
3 47 49 29
3 24 50 48
3 30 50 24
3 31 51 30
3 30 51 50
3 32 52 31
3 31 52 51
3 33 53 32
3 32 53 52
3 34 54 33
3 33 54 53
3 49 34 29
3 54 34 49
3 55 56 57
3 55 58 59
3 57 58 55
3 58 60 59
3 61 56 55
3 62 56 61
3 59 63 55
3 63 61 55
3 64 59 60
3 64 65 59
3 65 63 59
3 64 66 65
3 67 68 69
3 62 67 69
3 61 67 62
3 61 36 67
3 61 37 36
3 38 37 61
3 63 38 61
3 39 38 63
3 65 39 63
3 65 66 70
3 65 70 39
3 39 70 40
3 42 71 72
3 42 40 71
3 40 70 71
3 71 73 72
3 74 68 67
3 75 68 74
3 36 43 74
3 67 36 74
3 42 72 44
3 72 45 44
3 72 73 45
3 73 76 45
3 77 75 74
3 78 75 77
3 43 46 77
3 74 43 77
3 79 80 47
3 79 47 76
3 76 47 45
3 79 81 80
3 77 82 78
3 82 77 46
3 82 46 83
3 83 46 48
3 80 84 49
3 47 80 49
3 85 80 81
3 84 80 85
3 48 86 83
3 50 86 48
3 51 87 50
3 50 87 86
3 52 88 51
3 51 88 87
3 53 89 52
3 52 89 88
3 54 90 53
3 53 90 89
3 84 54 49
3 84 91 54
3 91 90 54
3 85 91 84
3 92 93 94
3 92 95 96
3 94 95 92
3 96 97 98
3 95 97 96
3 97 99 98
3 100 101 102
3 93 100 102
3 92 100 93
3 92 56 100
3 92 57 56
3 58 57 92
3 96 58 92
3 60 58 96
3 60 96 103
3 103 96 98
3 104 98 99
3 104 105 98
3 105 103 98
3 105 106 107
3 104 106 105
3 106 108 107
3 109 110 111
3 101 109 111
3 101 100 109
3 100 112 109
3 56 62 112
3 100 56 112
3 60 103 64
3 66 64 103
3 66 103 113
3 113 103 105
3 107 114 105
3 114 113 105
3 115 107 108
3 114 107 115
3 116 110 109
3 117 110 116
3 69 68 116
3 69 116 112
3 112 116 109
3 62 69 112
3 66 113 70
3 71 70 113
3 114 71 113
3 73 118 119
3 71 118 73
3 71 115 118
3 71 114 115
3 119 120 121
3 118 120 119
3 120 122 121
3 116 123 117
3 123 116 68
3 123 68 124
3 124 68 75
3 119 125 76
3 73 119 76
3 121 126 119
3 126 125 119
3 127 121 122
3 126 121 127
3 75 78 124
3 124 78 128
3 76 125 79
3 81 79 125
3 81 125 129
3 129 125 126
3 130 126 127
3 129 126 130
3 78 131 128
3 82 131 78
3 131 82 83
3 132 131 83
3 129 133 85
3 81 129 85
3 134 129 130
3 133 129 134
3 83 135 132
3 86 135 83
3 87 136 86
3 86 136 135
3 88 137 87
3 87 137 136
3 89 138 88
3 88 138 137
3 90 139 89
3 89 139 138
3 91 140 90
3 90 140 139
3 133 91 85
3 133 141 91
3 141 140 91
3 134 141 133
3 142 143 144
3 142 145 146
3 144 145 142
3 146 147 148
3 145 147 146
3 148 149 150
3 147 149 148
3 149 151 150
3 152 143 142
3 153 143 152
3 94 93 152
3 94 152 146
3 146 152 142
3 95 94 146
3 148 95 146
3 97 95 148
3 150 97 148
3 150 99 97
3 150 151 99
3 151 154 99
3 155 156 157
3 153 155 157
3 152 155 153
3 152 101 155
3 152 102 101
3 93 102 152
3 99 154 158
3 104 99 158
3 106 104 159
3 104 158 159
3 159 108 106
3 160 108 159
3 111 156 155
3 111 110 156
3 110 161 156
3 101 111 155
3 108 160 115
3 160 162 115
3 110 117 161
3 161 117 163
3 115 162 164
3 118 115 164
3 120 118 165
3 118 164 165
3 165 122 120
3 166 122 165
3 117 167 163
3 123 167 117
3 167 123 124
3 168 167 124
3 122 166 127
3 166 169 127
3 124 128 168
3 168 128 170
3 127 169 130
3 169 171 130
3 128 172 170
3 131 172 128
3 172 131 132
3 173 172 132
3 174 175 176
3 175 174 177
3 130 171 134
3 171 178 134
3 132 179 173
3 135 179 132
3 136 180 135
3 135 180 179
3 176 137 174
3 176 180 137
3 180 136 137
3 174 181 177
3 174 137 181
3 137 138 181
3 139 182 138
3 138 182 181
3 140 183 139
3 139 183 182
3 141 184 140
3 140 184 183
3 178 141 134
3 184 141 178
3 185 186 187
3 185 188 189
3 187 188 185
3 189 190 191
3 188 190 189
3 191 192 193
3 190 192 191
3 192 194 193
3 195 196 197
3 186 195 197
3 186 185 195
3 185 198 195
3 189 199 185
3 199 198 185
3 191 200 189
3 200 199 189
3 193 201 191
3 201 200 191
3 202 193 194
3 201 193 202
3 203 196 195
3 204 196 203
3 144 143 203
3 144 203 198
3 198 203 195
3 145 144 198
3 199 145 198
3 147 145 199
3 200 147 199
3 149 147 200
3 201 149 200
3 201 151 149
3 201 202 151
3 202 205 151
3 206 204 203
3 207 204 206
3 143 153 206
3 203 143 206
3 151 205 154
3 205 208 154
3 157 207 206
3 157 156 207
3 156 209 207
3 153 157 206
3 154 208 210
3 158 154 210
3 159 158 211
3 158 210 211
3 160 212 213
3 160 159 212
3 159 211 212
3 212 214 213
3 156 161 209
3 209 161 215
3 213 216 162
3 160 213 162
3 217 213 214
3 216 213 217
3 161 163 215
3 215 163 218
3 162 216 164
3 216 217 219
3 216 219 164
3 164 219 165
3 219 166 165
3 220 166 219
3 163 221 218
3 167 221 163
3 221 167 168
3 222 221 168
3 166 220 169
3 220 223 169
3 224 170 225
3 224 222 170
3 222 168 170
3 225 226 227
3 224 225 227
3 226 228 229
3 227 226 229
3 228 230 231
3 229 228 231
3 230 232 233
3 231 230 233
3 232 234 235
3 233 232 235
3 235 234 236
3 169 223 171
3 223 237 171
3 170 172 225
3 173 225 172
3 173 238 225
3 238 226 225
3 228 226 239
3 239 226 238
3 175 239 176
3 175 230 239
3 230 228 239
3 177 230 175
3 177 240 230
3 240 232 230
3 234 232 241
3 241 232 240
3 242 236 234
3 242 234 243
3 243 234 241
3 243 244 245
3 242 243 245
3 244 237 245
3 244 178 237
3 178 171 237
3 173 179 238
3 180 238 179
3 239 238 180
3 176 239 180
3 177 181 240
3 182 240 181
3 241 240 182
3 183 241 182
3 243 241 183
3 184 243 183
3 244 243 184
3 178 244 184
3 246 247 248
3 246 249 250
3 248 249 246
3 250 251 252
3 249 251 250
3 252 253 254
3 251 253 252
3 253 255 254
3 256 257 258
3 247 256 258
3 246 256 247
3 246 186 256
3 246 187 186
3 188 187 246
3 250 188 246
3 190 188 250
3 252 190 250
3 192 190 252
3 254 192 252
3 254 194 192
3 254 255 194
3 255 259 194
3 197 257 256
3 197 196 257
3 196 260 257
3 186 197 256
3 261 262 202
3 261 202 259
3 259 202 194
3 261 263 262
3 264 265 266
3 264 266 260
3 264 260 204
3 204 260 196
3 262 267 205
3 202 262 205
3 268 262 263
3 267 262 268
3 269 265 264
3 270 265 269
3 204 207 269
3 264 204 269
3 267 271 208
3 205 267 208
3 272 267 268
3 271 267 272
3 273 270 269
3 274 270 273
3 207 209 273
3 269 207 273
3 208 271 210
3 271 272 275
3 271 275 210
3 210 275 211
3 212 211 276
3 211 275 276
3 276 214 212
3 277 214 276
3 273 278 274
3 278 273 209
3 278 209 279
3 279 209 215
3 214 277 217
3 277 280 217
3 215 218 279
3 279 218 281
3 282 219 217
3 282 217 283
3 283 217 280
3 219 282 220
3 218 284 281
3 221 284 218
3 284 221 222
3 285 284 222
3 286 287 288
3 286 289 290
3 287 286 290
3 289 291 292
3 290 289 292
3 291 293 294
3 292 291 294
3 283 294 293
3 283 293 282
3 282 293 295
3 220 295 223
3 282 295 220
3 222 296 285
3 224 296 222
3 227 297 224
3 224 297 296
3 229 298 227
3 227 298 297
3 288 231 286
3 288 298 231
3 298 229 231
3 233 286 231
3 289 286 233
3 235 289 233
3 291 289 235
3 236 291 235
3 236 299 291
3 299 293 291
3 295 293 300
3 300 293 299
3 223 300 237
3 295 300 223
3 236 242 299
3 245 299 242
3 300 299 245
3 237 300 245
3 301 302 303
3 301 304 305
3 303 304 301
3 305 306 307
3 304 306 305
3 306 308 307
3 309 310 311
3 302 309 311
3 302 301 309
3 301 312 309
3 305 313 301
3 313 312 301
3 307 314 305
3 314 313 305
3 315 307 308
3 315 316 307
3 316 314 307
3 315 317 316
3 318 310 309
3 319 310 318
3 248 247 318
3 248 318 312
3 312 318 309
3 249 248 312
3 313 249 312
3 251 249 313
3 314 251 313
3 253 251 314
3 316 253 314
3 255 320 321
3 253 320 255
3 253 317 320
3 253 316 317
3 320 322 321
3 258 319 318
3 258 257 319
3 257 323 319
3 247 258 318
3 321 324 259
3 255 321 259
3 325 321 322
3 324 321 325
3 326 327 328
3 326 328 323
3 326 323 260
3 260 323 257
3 259 324 261
3 324 263 261
3 324 325 263
3 325 329 263
3 266 327 326
3 266 265 327
3 265 330 327
3 260 266 326
3 263 329 268
3 329 331 268
3 265 270 330
3 330 270 332
3 268 331 272
3 331 333 272
3 270 274 332
3 332 274 334
3 335 275 272
3 335 272 336
3 336 272 333
3 275 337 276
3 335 337 275
3 276 337 277
3 274 338 334
3 278 338 274
3 279 339 340
3 279 340 278
3 278 340 338
3 340 339 341
3 342 343 344
3 336 343 342
3 336 342 335
3 335 342 345
3 337 335 346
3 346 335 345
3 277 346 280
3 337 346 277
3 339 281 347
3 279 281 339
3 348 341 339
3 348 339 349
3 349 339 347
3 348 349 350
3 351 352 353
3 344 352 351
3 344 351 342
3 342 351 354
3 345 342 355
3 355 342 354
3 346 345 356
3 356 345 355
3 280 356 283
3 346 356 280
3 281 284 347
3 285 347 284
3 285 357 347
3 357 349 347
3 358 350 349
3 358 349 359
3 359 349 357
3 359 360 361
3 358 359 361
3 353 361 360
3 351 353 360
3 351 360 288
3 351 288 287
3 290 351 287
3 354 351 290
3 292 354 290
3 355 354 292
3 294 355 292
3 356 355 294
3 283 356 294
3 285 296 357
3 297 357 296
3 359 357 297
3 298 359 297
3 360 359 298
3 288 360 298
3 362 363 364
3 362 303 302
3 362 364 303
3 364 365 303
3 304 303 366
3 303 365 366
3 306 304 367
3 304 366 367
3 367 308 306
3 368 308 367
3 311 363 362
3 311 310 363
3 310 369 363
3 302 311 362
3 308 368 370
3 315 308 370
3 370 317 315
3 371 317 370
3 310 319 369
3 369 319 372
3 317 371 373
3 320 317 373
3 373 322 320
3 374 322 373
3 319 323 372
3 372 323 375
3 322 374 325
3 374 376 325
3 328 377 378
3 327 377 328
3 375 323 328
3 378 375 328
3 325 376 329
3 376 379 329
3 327 330 377
3 377 330 380
3 381 382 383
3 381 379 382
3 381 331 379
3 331 329 379
3 330 332 380
3 380 332 384
3 385 381 383
3 386 385 383
3 331 385 333
3 381 385 331
3 387 334 388
3 387 384 334
3 384 332 334
3 387 388 389
3 390 385 386
3 391 390 386
3 333 390 336
3 385 390 333
3 334 338 388
3 388 392 389
3 388 338 392
3 338 340 392
3 341 393 394
3 341 394 340
3 340 394 392
3 394 393 395
3 396 397 398
3 391 397 396
3 390 391 396
3 390 396 344
3 390 344 343
3 336 390 343
3 341 348 393
3 350 399 400
3 348 350 400
3 348 400 395
3 348 395 393
3 399 401 402
3 400 399 402
3 398 402 401
3 396 398 401
3 396 401 353
3 396 353 352
3 344 396 352
3 350 358 399
3 361 399 358
3 401 399 361
3 353 401 361
3 403 404 405
3 403 406 407
3 405 406 403
3 407 408 409
3 406 408 407
3 408 410 409
3 364 411 412
3 363 411 364
3 404 403 365
3 404 365 412
3 412 365 364
3 366 365 403
3 407 366 403
3 367 366 407
3 409 367 407
3 368 413 414
3 367 413 368
3 367 410 413
3 367 409 410
3 413 415 414
3 363 369 411
3 411 369 416
3 368 414 370
3 414 371 370
3 414 415 371
3 415 417 371
3 369 372 416
3 416 372 418
3 419 373 371
3 419 371 420
3 420 371 417
3 373 419 374
3 372 375 418
3 418 375 421
3 422 419 420
3 423 422 420
3 374 422 376
3 419 422 374
3 378 377 424
3 378 424 425
3 378 425 375
3 375 425 421
3 426 427 428
3 423 427 426
3 423 426 422
3 422 426 429
3 376 429 379
3 422 429 376
3 424 380 430
3 377 380 424
3 431 425 424
3 431 424 432
3 432 424 430
3 432 433 434
3 431 432 434
3 433 435 436
3 434 433 436
3 435 437 438
3 436 435 438
3 428 438 437
3 428 437 426
3 426 437 439
3 382 439 383
3 382 429 439
3 429 426 439
3 379 429 382
3 430 384 440
3 380 384 430
3 432 430 441
3 441 430 440
3 433 432 442
3 442 432 441
3 435 433 443
3 443 433 442
3 437 435 444
3 444 435 443
3 439 437 445
3 445 437 444
3 383 445 386
3 439 445 383
3 384 387 440
3 389 440 387
3 389 446 440
3 446 441 440
3 442 441 447
3 447 441 446
3 443 442 448
3 448 442 447
3 444 443 449
3 449 443 448
3 445 444 450
3 450 444 449
3 386 450 391
3 445 450 386
3 389 392 446
3 394 446 392
3 447 446 394
3 395 447 394
3 395 451 447
3 451 448 447
3 449 448 452
3 452 448 451
3 397 452 398
3 397 450 452
3 450 449 452
3 391 450 397
3 395 400 451
3 402 451 400
3 452 451 402
3 398 452 402
3 405 453 454
3 404 453 405
3 406 405 455
3 405 454 455
3 408 406 456
3 406 455 456
3 410 457 458
3 410 408 457
3 408 456 457
3 457 459 458
3 412 411 460
3 412 460 461
3 412 461 404
3 404 461 453
3 410 458 413
3 458 415 413
3 458 459 415
3 459 462 415
3 460 463 464
3 460 411 463
3 411 416 463
3 461 460 464
3 415 462 417
3 462 465 417
3 416 418 463
3 463 418 466
3 417 465 420
3 465 467 420
3 468 421 469
3 468 466 421
3 466 418 421
3 468 469 470
3 471 472 473
3 471 474 475
3 472 471 475
3 474 467 475
3 474 423 467
3 423 420 467
3 469 425 476
3 421 425 469
3 477 470 469
3 477 469 478
3 478 469 476
3 478 479 480
3 477 478 480
3 473 480 479
3 473 479 471
3 471 479 481
3 427 481 428
3 427 474 481
3 474 471 481
3 423 474 427
3 425 431 476
3 434 476 431
3 478 476 434
3 436 478 434
3 479 478 436
3 438 479 436
3 481 479 438
3 428 481 438
3 482 483 484
3 482 485 486
3 484 485 482
3 486 487 488
3 485 487 486
3 488 489 490
3 487 489 488
3 490 491 492
3 489 491 490
3 491 493 492
3 454 483 482
3 454 453 483
3 453 494 483
3 455 454 482
3 486 455 482
3 456 455 486
3 488 456 486
3 457 456 488
3 490 457 488
3 459 457 490
3 459 490 495
3 495 490 492
3 496 492 493
3 495 492 496
3 453 461 494
3 494 461 497
3 495 498 462
3 459 495 462
3 499 495 496
3 498 495 499
3 464 463 500
3 464 500 501
3 464 501 461
3 461 501 497
3 502 503 504
3 502 505 506
3 503 502 506
3 498 507 506
3 498 506 465
3 498 465 462
3 465 506 505
3 499 507 498
3 500 466 508
3 463 466 500
3 509 501 500
3 509 500 510
3 510 500 508
3 510 511 512
3 509 510 512
3 504 512 511
3 504 511 502
3 502 511 513
3 505 502 514
3 514 502 513
3 465 514 467
3 505 514 465
3 466 468 508
3 470 508 468
3 470 515 508
3 515 510 508
3 511 510 516
3 516 510 515
3 472 516 473
3 472 513 516
3 513 511 516
3 475 513 472
3 514 513 475
3 467 514 475
3 470 477 515
3 480 515 477
3 516 515 480
3 473 516 480
3 517 518 519
3 517 520 521
3 519 520 517
3 520 522 521
3 484 523 524
3 483 523 484
3 485 484 525
3 484 524 525
3 518 517 487
3 518 487 525
3 525 487 485
3 489 487 517
3 521 489 517
3 521 522 526
3 521 526 489
3 489 526 491
3 493 527 528
3 493 491 527
3 491 526 527
3 527 529 528
3 483 494 523
3 523 494 530
3 528 531 496
3 493 528 496
3 532 528 529
3 531 528 532
3 494 497 530
3 530 497 533
3 531 534 535
3 531 535 496
3 496 535 499
3 532 534 531
3 536 501 537
3 536 533 501
3 533 497 501
3 537 538 539
3 536 537 539
3 538 504 503
3 538 503 539
3 539 503 540
3 506 541 503
3 503 541 540
3 507 542 506
3 506 542 541
3 535 507 499
3 542 507 535
3 501 509 537
3 512 537 509
3 538 537 512
3 504 538 512
3 519 543 544
3 518 543 519
3 520 519 545
3 519 544 545
3 522 546 547
3 522 520 546
3 520 545 546
3 547 548 549
3 546 548 547
3 548 550 549
3 524 523 551
3 552 524 551
3 552 553 524
3 553 525 524
3 543 518 525
3 553 543 525
3 522 547 526
3 527 526 547
3 549 527 547
3 529 554 555
3 527 554 529
3 527 550 554
3 527 549 550
3 555 556 557
3 554 556 555
3 556 558 557
3 551 530 559
3 523 530 551
3 560 552 551
3 559 560 551
3 555 561 532
3 529 555 532
3 557 562 555
3 562 561 555
3 563 557 558
3 562 557 563
3 559 533 564
3 530 533 559
3 565 560 559
3 565 559 566
3 566 559 564
3 566 567 568
3 565 566 568
3 567 569 570
3 568 567 570
3 569 571 572
3 570 569 572
3 571 535 534
3 571 534 572
3 572 534 573
3 561 534 532
3 561 574 534
3 574 573 534
3 562 574 561
3 575 574 562
3 563 575 562
3 533 536 564
3 539 564 536
3 566 564 539
3 540 566 539
3 567 566 540
3 541 567 540
3 569 567 541
3 542 569 541
3 571 569 542
3 535 571 542
3 544 576 577
3 543 576 544
3 545 544 578
3 544 577 578
3 546 545 579
3 545 578 579
3 548 546 580
3 546 579 580
3 580 550 548
3 581 550 580
3 553 582 583
3 552 582 553
3 576 543 553
3 583 576 553
3 550 581 584
3 554 550 584
3 556 554 585
3 554 584 585
3 585 558 556
3 586 558 585
3 552 560 582
3 582 560 587
3 558 586 563
3 586 588 563
3 560 589 587
3 565 589 560
3 568 590 565
3 565 590 589
3 591 592 590
3 591 590 570
3 570 590 568
3 570 572 593
3 591 570 593
3 572 573 594
3 593 572 594
3 573 574 595
3 594 573 595
3 596 595 574
3 596 574 597
3 597 574 575
3 588 575 563
3 597 575 588
3 591 598 592
3 593 598 591
3 599 598 593
3 594 599 593
3 600 599 594
3 595 600 594
3 601 600 595
3 596 601 595
3 577 576 602
3 577 603 578
3 602 603 577
3 578 604 579
3 603 604 578
3 579 605 580
3 604 605 579
3 580 605 581
3 583 582 606
3 583 606 607
3 576 583 607
3 576 607 608
3 576 608 602
3 603 602 608
3 609 603 608
3 604 603 609
3 610 604 609
3 605 604 610
3 611 605 610
3 581 605 611
3 581 611 584
3 584 611 612
3 585 584 613
3 584 612 613
3 586 614 615
3 586 585 614
3 585 613 614
3 614 616 615
3 606 587 617
3 582 587 606
3 618 607 606
3 617 618 606
3 615 619 588
3 586 615 588
3 620 615 616
3 619 615 620
3 587 589 617
3 617 621 618
3 617 589 621
3 589 590 621
3 621 590 592
3 622 621 592
3 597 623 624
3 596 597 624
3 619 597 588
3 619 625 597
3 625 623 597
3 620 625 619
3 592 626 622
3 598 626 592
3 599 627 598
3 598 627 626
3 600 628 599
3 599 628 627
3 601 629 600
3 600 629 628
3 624 601 596
3 629 601 624
3 608 607 630
3 608 631 609
3 630 631 608
3 632 609 631
3 632 633 609
3 633 610 609
3 611 610 634
3 610 633 634
3 612 611 635
3 611 634 635
3 613 612 636
3 612 635 636
3 614 613 637
3 613 636 637
3 637 616 614
3 638 616 637
3 630 618 639
3 607 618 630
3 631 630 640
3 640 630 639
3 641 632 631
3 640 641 631
3 616 638 620
3 638 642 620
3 618 621 639
3 622 639 621
3 622 643 639
3 643 640 639
3 644 641 640
3 643 644 640
3 623 645 646
3 624 623 646
3 625 647 623
3 623 647 645
3 642 625 620
3 647 625 642
3 622 626 643
3 643 648 644
3 643 626 648
3 626 627 648
3 628 649 627
3 627 649 648
3 629 650 628
3 628 650 649
3 646 629 624
3 650 629 646
3 633 632 651
3 633 652 634
3 651 652 633
3 634 653 635
3 652 653 634
3 635 654 636
3 653 654 635
3 636 655 637
3 654 655 636
3 637 655 638
3 651 641 656
3 632 641 651
3 652 651 657
3 657 651 656
3 653 652 658
3 658 652 657
3 654 653 659
3 659 653 658
3 655 654 660
3 660 654 659
3 638 660 642
3 655 660 638
3 656 644 661
3 641 644 656
3 657 656 662
3 662 656 661
3 658 657 663
3 663 657 662
3 645 663 646
3 645 659 663
3 659 658 663
3 647 659 645
3 660 659 647
3 642 660 647
3 644 648 661
3 649 661 648
3 662 661 649
3 650 662 649
3 663 662 650
3 646 663 650
