# vtk DataFile Version 3.0
this file was written using fslvtkio
ASCII
DATASET POLYDATA
POINTS 642 float
152.493 135.358 151.344
142.2 136.266 150.676
146.654 128.051 149.303
155.684 123.751 148.882
151.605 129.279 155.91
152.964 130.763 145.769
145.85 132.177 145.043
146.331 130.651 155.496
146.718 139.829 156.118
151.052 121.565 152.237
151.037 122.725 145.042
146.902 140.226 148.36
145.625 135.143 157.309
149.464 134.983 157.356
148.96 129.125 157.912
148.788 125.842 154.518
152.272 123.635 155.57
145.964 136.388 146.63
149.587 131.327 145.207
150.33 136.062 146.982
148.625 127.389 144.97
153.116 125.683 144.858
154.066 125.549 152.722
152.231 132.733 153.976
154.879 129.617 150.131
155.513 126.824 146.238
153.358 133.913 147.931
143.764 134.528 154.107
146.637 129.308 152.464
143.625 132.079 149.826
142.514 135.075 146.704
145.402 129.846 146.76
150.036 139.089 149.888
149.589 138.647 154.001
145.344 142.706 151.885
142.809 139.933 149.239
142.805 139.583 153.623
155.489 120.129 145.067
151.026 120.269 147.903
154.619 119.668 150.822
147.974 124.526 146.882
148.671 124.262 150.636
147.626 135.22 157.932
149.253 132.124 158.317
147.112 132.182 158.046
150.713 128.975 157.515
150.497 132.191 156.798
148.313 137.719 157.271
146.029 137.642 156.808
145.348 132.571 156.792
147.276 129.712 156.949
148.65 127.295 156.535
150.678 126.407 157.417
150.236 124.464 155.611
152.048 126.487 155.887
147.549 128.342 155.043
149.853 123.755 153.352
151.589 122.249 154.134
147.847 134.132 145.752
149.883 133.685 145.996
148.229 136.1 146.844
151.594 133.456 146.234
151.338 130.953 145.451
147.757 131.822 144.966
145.951 134.402 145.568
146.582 138.028 147.785
148.712 138.19 147.63
150.849 126.654 144.792
151.188 128.637 144.936
149.027 129.376 144.778
152.963 128.214 145.066
152.218 124.141 144.849
149.924 125.089 145.047
147.109 129.87 145.01
153.491 129.234 153.503
153.835 131.086 152.21
154.685 127.699 151.69
153.663 132.47 150.698
152.516 134.176 152.765
151.843 131.114 155.021
153.003 127.417 154.413
154.955 124.546 150.897
155.432 126.75 149.622
155.574 128.378 148.155
154.442 131.769 148.921
154.91 130.519 147.059
152.971 134.72 149.625
155.887 125.252 147.512
154.459 128.973 145.706
153.458 132.542 146.59
145.099 131.928 153.255
145.02 130.833 151.439
143.822 133.124 151.998
145.172 130.213 149.621
146.436 128.64 150.899
146.61 130.084 153.935
144.777 132.475 154.984
143.003 135.303 152.326
142.787 134.06 150.192
142.739 133.316 148.191
144.413 131.097 148.143
143.494 132.388 146.519
145.994 128.812 147.993
141.943 135.597 148.614
144.069 133.795 145.58
145.341 130.909 145.65
149.559 139.405 151.982
147.71 141.357 153.39
147.485 141.359 150.96
146.042 141.752 154.483
148.313 139.592 155.435
151.279 137.211 152.772
151.591 137.445 150.654
148.654 139.969 148.901
145.81 142.207 149.492
143.675 142.586 149.762
143.607 142.024 153.122
141.584 140.511 151.258
144.662 139.865 155.111
144.908 140.16 148.523
141.841 138.055 149.913
142.015 137.9 152.336
153.114 118.771 145.787
153.081 118.573 149.121
155.766 118.808 147.712
152.739 119.959 151.902
150.904 120.726 150.135
150.826 121.096 145.989
153.105 121.337 144.866
156.073 121.797 147.108
155.286 121.693 149.778
148.337 124.145 148.681
149.594 121.979 149.228
149.419 122.04 147.153
149.747 122.858 151.451
147.699 126.218 149.993
147.334 126.32 148.128
149.206 123.644 145.746
150.763 134.087 155.644
149.557 137.024 155.766
151.134 135.879 154.203
151.944 136.773 148.854
150.565 138.127 147.99
152.153 135.104 147.08
153.443 121.29 153.438
153.11 124.47 154.105
154.488 122.453 151.938
155.825 123.277 145.683
154.501 126.159 145.153
154.381 122.776 144.651
144.235 137.556 155.559
144.257 134.763 155.931
142.877 136.964 153.969
142.735 137.264 148.124
144.231 135.705 146.353
144.476 138.017 148.049
147.721 127 151.528
147.74 127.637 153.414
148.765 125.261 152.475
148.076 125.886 145.701
146.759 128.533 145.688
146.879 127.178 146.845
148.408 133.709 158.301
148.171 132.243 158.248
147.365 133.694 158.114
148.028 130.816 158.016
148.956 130.772 158.178
149.347 133.64 158.057
148.647 135.054 157.956
146.612 135.082 157.806
146.42 133.681 157.806
149.878 130.646 157.953
149.942 132.253 157.721
150.407 130.757 157.258
149.952 133.583 157.232
149.838 129.147 158
151.084 129.34 156.776
150.949 130.693 156.439
147.956 136.451 157.728
146.764 136.433 157.569
147.187 137.637 157.15
145.774 136.389 157.173
148.929 136.366 157.428
147.55 138.855 156.829
146.391 138.776 156.65
146.17 132.464 157.595
147.126 130.916 157.573
146.275 131.243 156.973
148.018 129.495 157.561
145.575 133.756 157.219
145.816 131.431 156.226
146.721 130.199 156.28
149.543 126.79 157.211
150.362 125.314 156.722
149.416 125.828 156.283
151.175 123.965 155.939
151.401 125.043 156.645
149.829 127.713 157.837
148.697 128.108 157.41
148.77 126.35 155.622
149.489 125.153 155.238
151.517 126.336 156.844
150.719 127.774 157.672
151.456 127.892 156.699
152.129 125.12 155.945
151.823 127.957 155.909
147.916 128.472 156.783
148.132 127.679 155.691
147.277 128.949 155.94
148.236 126.955 154.879
146.883 129.576 155.345
149.977 124.193 154.504
150.863 123.339 154.985
150.63 123.128 153.885
151.931 122.744 154.965
149.368 124.809 154.085
150.455 122.643 152.94
151.242 121.968 153.263
148.892 133.914 145.874
149.077 134.938 146.427
148.011 135.107 146.33
149.31 135.963 146.856
150.016 134.829 146.511
149.652 132.608 145.522
148.756 132.888 145.419
147.002 135.321 146.215
147.179 136.153 146.723
150.731 133.586 146.104
150.543 132.313 145.611
151.472 132.191 145.748
150.418 131.218 145.366
150.922 134.742 146.638
152.276 132.06 145.986
152.179 130.83 145.594
147.87 132.999 145.283
146.909 134.366 145.692
146.916 133.16 145.144
146.004 135.465 146.046
148.681 131.729 145.096
146.813 132.054 144.932
145.987 133.249 145.144
147.385 137.06 147.26
148.5 137.059 147.266
147.672 138.106 147.71
149.492 137.086 147.274
146.355 137.09 147.226
146.779 139.156 148.018
147.863 139.254 147.964
151.036 127.638 144.78
150.075 129.06 144.837
149.876 128.02 144.713
149.327 130.385 144.945
150.343 130.001 145.082
152.087 127.259 144.778
151.975 126.213 144.829
149.72 127.123 144.816
148.904 128.309 144.807
151.159 129.857 145.244
152.068 128.395 144.942
152.112 129.641 145.277
152.996 126.987 144.828
152.933 129.549 145.39
151.576 125.444 144.827
150.356 125.917 144.86
151.043 124.662 144.889
149.338 126.266 144.945
152.723 124.903 144.815
151.633 123.431 144.884
150.53 123.924 145.066
148.093 129.528 144.84
148.415 130.654 144.852
147.389 130.794 144.875
147.914 128.64 144.954
146.461 131.08 144.936
153.718 130.208 152.919
154.316 129.431 151.94
154.097 128.47 152.606
154.748 128.775 151.019
154.421 130.223 151.25
153.092 131.743 153.121
152.988 130.942 153.686
153.835 127.474 153.144
154.334 126.793 152.324
153.809 131.731 151.446
153.137 132.557 152.49
153.151 133.271 151.786
152.471 133.345 153.334
154.393 131.011 150.472
153.151 133.936 151.035
152.582 134.752 152.043
152.734 130.222 154.243
153.228 128.315 153.931
152.462 129.362 154.777
153.599 126.412 153.579
152.15 131.835 154.445
151.677 130.269 155.538
152.278 128.392 155.152
154.761 126.175 151.372
155.063 127.308 150.685
155.155 125.77 150.363
155.189 128.198 149.95
154.535 125.095 151.875
155.352 124.304 149.917
155.547 125.289 149.337
155.037 130.088 148.589
154.715 131.195 147.993
155.282 129.47 147.598
154.323 132.181 147.508
154.027 132.792 148.304
154.731 130.674 149.49
155.277 129.096 149.155
155.56 127.789 147.182
155.304 128.807 146.681
153.695 133.134 149.202
154.154 132.033 149.858
153.411 133.576 150.102
153.149 134.225 148.757
152.83 134.976 150.53
155.601 127.667 148.968
155.687 126.891 147.795
155.708 126.071 148.584
155.735 126.071 146.832
155.838 124.539 148.297
154.785 129.743 146.285
154.341 131.554 146.734
154.012 130.801 146.103
153.652 133.166 147.184
155.151 127.993 145.898
153.677 129.9 145.742
153.186 131.703 146.136
145.118 131.301 152.335
144.299 131.865 151.703
144.43 132.509 152.665
143.694 132.455 151.032
144.193 131.491 150.755
145.851 130.25 152.097
145.876 130.823 152.826
144.326 133.085 153.582
143.861 133.726 153.043
144.955 130.534 150.564
145.809 129.878 151.255
145.794 129.512 150.36
146.451 129.008 151.721
144.366 131.165 149.799
145.951 129.215 149.464
146.46 128.396 150.05
145.923 131.116 153.597
144.907 132.256 154.065
145.759 131.409 154.49
144.222 133.486 154.48
146.574 129.869 153.164
146.457 130.386 154.73
145.568 131.595 155.373
143.438 134.204 152.212
143.306 133.524 151.111
142.912 134.672 151.257
143.192 132.972 150.138
143.407 134.912 153.274
142.579 135.793 151.455
142.43 135.167 150.392
143.49 132.096 148.238
143.924 131.675 147.369
142.945 132.795 147.346
144.39 131.239 146.623
144.84 130.647 147.336
143.958 131.585 148.99
143.181 132.62 149
142.318 134.063 147.338
142.742 133.586 146.5
145.284 130.104 148.008
144.792 130.692 148.932
145.655 129.605 148.752
145.709 129.363 147.354
146.346 128.452 148.705
142.817 133.558 149.276
142.251 134.358 148.329
142.296 134.717 149.396
142.038 135.286 147.595
142.093 135.852 149.646
143.521 133.138 145.895
144.312 131.8 145.972
144.555 132.449 145.468
145.215 130.466 146.207
143.191 134.425 146.122
145.074 132.992 145.216
145.553 131.455 145.263
148.544 140.389 152.65
147.553 141.511 152.156
148.549 140.438 151.547
146.518 142.354 151.493
146.669 142.243 152.758
148.688 140.119 153.652
149.48 139.271 153.037
149.551 139.544 150.931
148.625 140.309 150.537
147.064 141.772 154.023
148.097 140.527 154.451
147.324 140.962 155.205
148.901 139.287 154.638
145.744 142.286 153.305
146.296 140.868 155.48
147.629 139.859 155.956
150.447 138.453 152.41
150.502 138.607 151.277
151.336 137.53 151.702
150.741 138.408 150.32
150.355 138.063 153.354
151.97 136.332 152.137
152.113 136.432 151.085
147.919 140.708 149.958
146.688 141.973 150.306
147.131 141.177 149.257
145.53 142.778 150.607
149.23 139.673 149.516
147.909 140.115 148.589
146.34 141.139 148.793
143.444 142.567 151.489
142.519 141.768 152.002
142.525 142.015 150.73
142.086 140.407 152.405
142.925 141.01 153.248
144.484 142.546 152.584
144.422 142.926 150.731
143.006 141.399 149.598
141.975 140.72 150.128
143.957 141.049 154.141
144.833 141.933 153.881
145.2 140.954 154.923
143.623 139.891 154.321
145.692 139.804 155.769
144.874 142.665 149.562
144.106 141.543 149.081
145.372 141.314 148.752
143.787 140.339 148.951
145.903 140.132 148.359
141.47 139.467 150.478
141.652 139.247 151.956
141.759 138.076 151.104
142.212 138.977 152.963
142.097 139.234 149.565
141.966 137.05 150.284
142.177 137.035 151.52
153.137 118.214 147.472
154.515 117.796 148.436
154.631 118.039 146.587
155.243 118.769 149.195
154.172 118.462 149.891
152.119 119.084 148.18
152.11 119.048 146.898
154.49 119.026 145.284
155.735 118.995 146.115
153.014 118.987 150.573
151.995 119.543 149.533
151.868 120.14 150.919
151.145 120.253 148.944
153.795 119.332 151.384
151.698 120.805 152.123
150.813 121.249 151.194
151.91 119.892 145.977
153.164 119.903 145.058
151.866 121.234 145.359
154.293 120.348 144.703
151.116 120.225 146.799
150.754 121.919 145.355
152.035 122.136 144.953
156.056 120.148 147.229
155.512 120.144 148.814
155.753 121.762 148.511
155.121 120.353 150.116
156.103 120.578 146.034
155.934 122.825 148.021
155.434 122.847 149.423
148.916 122.964 148.868
149.535 121.843 148.126
148.834 123.099 147.927
150.216 120.926 147.397
150.284 120.96 148.556
149.015 123.059 149.872
148.513 124.043 149.599
148.234 124.134 147.743
148.692 123.305 147.124
150.243 121.192 149.618
149.599 122.428 150.246
150.243 121.817 150.782
149.19 123.434 150.947
150.36 122.226 151.961
147.996 125.117 149.371
147.811 125.184 148.376
147.537 126.233 149.031
147.634 125.288 147.532
148.196 125.167 150.268
147.16 127.177 149.631
147.081 127.267 148.732
149.248 122.837 146.479
150.036 121.283 146.533
149.868 122.265 145.8
148.555 123.929 146.318
150.036 123.222 145.33
150.227 135.553 155.788
150.348 136.478 155.013
150.975 134.956 154.904
150.399 137.302 154.168
149.629 137.84 154.876
149.573 136.045 156.616
150.073 134.544 156.502
151.503 133.503 154.808
151.662 134.298 154.156
148.954 138.321 155.554
148.992 137.362 156.613
148.396 138.767 156.451
150.613 133.191 156.234
151.375 132.579 155.241
151.148 131.66 155.874
151.784 134.935 153.511
151.214 136.686 153.543
151.936 135.696 152.822
151.394 137.639 148.364
151.412 136.734 147.441
152.187 136.076 147.852
151.279 135.674 147.05
150.514 137.098 147.375
150.37 138.767 148.881
151.16 138.062 149.398
152.69 135.376 148.389
152.894 134.658 147.439
149.698 138.056 147.717
149.696 139.18 148.425
148.814 139.278 148.02
151.745 137.169 149.783
152.475 135.678 149.239
152.277 135.98 150.22
152.823 133.818 146.841
151.822 134.324 146.643
152.535 132.977 146.354
153.428 122.842 153.853
153.874 123.417 153.062
154.058 121.729 152.674
154.222 124.001 152.362
153.649 124.889 153.401
152.734 123.986 154.862
152.927 122.375 154.506
154.079 120.281 152.223
154.639 120.945 151.483
153.101 125.956 154.23
152.553 125.408 155.041
152.496 126.978 155.137
152.439 121.765 154.035
153.112 120.412 152.764
151.993 121.233 153.02
154.905 121.791 150.837
154.698 123.549 151.474
155.143 123.144 150.446
155.264 124.566 145.285
154.574 124.348 144.858
155.358 122.772 144.901
153.768 124.336 144.743
153.82 125.93 145.007
155.083 126.411 145.6
155.673 125.061 145.953
155.925 121.57 145.338
155.052 121.304 144.597
153.769 127.259 145.016
154.598 127.641 145.343
153.675 128.645 145.4
155.902 124.549 146.608
156.034 122.506 146.319
156.033 123.7 147.432
153.95 121.851 144.613
153.206 123.602 144.802
152.66 122.788 144.908
144.156 136.141 155.854
143.576 135.924 154.972
143.463 137.325 154.832
143.242 135.732 154.062
143.903 134.649 155.02
144.896 134.904 156.692
144.911 136.279 156.535
143.512 138.671 154.615
142.697 138.293 153.874
144.329 133.531 155.373
144.769 133.712 156.457
145.005 132.399 155.888
145.122 137.491 156.255
144.374 138.766 155.322
145.394 138.755 156.049
142.425 137.405 153.199
143.039 135.854 153.189
142.564 136.466 152.286
143.387 136.579 147.13
144.334 136.9 147.197
143.575 137.714 148.086
145.191 137.169 147.277
145.057 136.146 146.503
143.347 135.455 146.463
142.589 136.183 147.292
142.843 138.563 148.842
143.675 139.084 148.654
145.144 135.066 145.939
144.118 134.684 145.913
145.12 133.962 145.471
142.176 136.391 148.184
142.322 137.783 149.05
142.046 136.712 149.319
144.676 139.072 148.376
145.561 137.827 147.77
145.808 138.997 148.141
147.77 127.357 152.446
148.303 126.441 153.001
148.299 126.133 151.95
148.812 125.528 153.512
148.205 126.713 153.984
147.26 128.524 152.853
147.132 128.112 152.001
148.194 125.662 151.093
148.697 124.824 151.509
147.675 127.946 154.255
147.197 128.95 153.554
147.063 129.255 154.506
147.038 127.82 151.24
147.738 126.577 150.718
147.047 127.534 150.348
149.161 124.123 151.793
149.283 124.557 152.909
149.808 123.351 152.358
147.425 127.266 145.668
146.73 127.92 146.21
147.372 126.474 146.225
146.161 128.531 146.769
145.954 129.153 146.198
147.658 127.964 145.266
148.309 126.691 145.316
147.957 125.138 146.19
147.423 125.81 146.864
145.987 129.704 145.75
146.949 129.149 145.305
146.191 130.389 145.201
148.94 125.625 145.26
148.581 124.735 145.668
149.566 124.417 145.299
147.145 126.707 147.46
146.409 128.087 147.375
146.773 127.654 148.118
POLYGONS 1280  5120
3 164 162 163
3 163 44 164
3 162 43 163
3 164 42 162
3 166 165 163
3 163 43 166
3 165 44 163
3 166 14 165
3 168 167 162
3 162 42 168
3 167 43 162
3 168 13 167
3 170 169 164
3 164 44 170
3 169 42 164
3 170 12 169
3 173 171 172
3 172 46 173
3 171 43 172
3 173 45 171
3 167 174 172
3 172 43 167
3 174 46 172
3 167 13 174
3 175 166 171
3 171 45 175
3 166 43 171
3 175 14 166
3 177 176 173
3 173 46 177
3 176 45 173
3 177 4 176
3 180 178 179
3 179 48 180
3 178 42 179
3 180 47 178
3 169 181 179
3 179 42 169
3 181 48 179
3 169 12 181
3 182 168 178
3 178 47 182
3 168 42 178
3 182 13 168
3 184 183 180
3 180 48 184
3 183 47 180
3 184 8 183
3 187 185 186
3 186 50 187
3 185 44 186
3 187 49 185
3 165 188 186
3 186 44 165
3 188 50 186
3 165 14 188
3 189 170 185
3 185 49 189
3 170 44 185
3 189 12 170
3 191 190 187
3 187 50 191
3 190 49 187
3 191 7 190
3 194 192 193
3 193 53 194
3 192 52 193
3 194 51 192
3 196 195 193
3 193 52 196
3 195 53 193
3 196 16 195
3 198 197 192
3 192 51 198
3 197 52 192
3 198 14 197
3 200 199 194
3 194 53 200
3 199 51 194
3 200 15 199
3 203 201 202
3 202 45 203
3 201 52 202
3 203 54 201
3 197 175 202
3 202 52 197
3 175 45 202
3 197 14 175
3 204 196 201
3 201 54 204
3 196 52 201
3 204 16 196
3 176 205 203
3 203 45 176
3 205 54 203
3 176 4 205
3 208 206 207
3 207 55 208
3 206 51 207
3 208 50 206
3 199 209 207
3 207 51 199
3 209 55 207
3 199 15 209
3 188 198 206
3 206 50 188
3 198 51 206
3 188 14 198
3 210 191 208
3 208 55 210
3 191 50 208
3 210 7 191
3 213 211 212
3 212 57 213
3 211 53 212
3 213 56 211
3 195 214 212
3 212 53 195
3 214 57 212
3 195 16 214
3 215 200 211
3 211 56 215
3 200 53 211
3 215 15 200
3 217 216 213
3 213 57 217
3 216 56 213
3 217 9 216
3 220 218 219
3 219 60 220
3 218 59 219
3 220 58 218
3 222 221 219
3 219 59 222
3 221 60 219
3 222 19 221
3 224 223 218
3 218 58 224
3 223 59 218
3 224 18 223
3 226 225 220
3 220 60 226
3 225 58 220
3 226 17 225
3 229 227 228
3 228 62 229
3 227 59 228
3 229 61 227
3 223 230 228
3 228 59 223
3 230 62 228
3 223 18 230
3 231 222 227
3 227 61 231
3 222 59 227
3 231 19 222
3 233 232 229
3 229 62 233
3 232 61 229
3 233 5 232
3 236 234 235
3 235 64 236
3 234 58 235
3 236 63 234
3 225 237 235
3 235 58 225
3 237 64 235
3 225 17 237
3 238 224 234
3 234 63 238
3 224 58 234
3 238 18 224
3 240 239 236
3 236 64 240
3 239 63 236
3 240 6 239
3 243 241 242
3 242 66 243
3 241 60 242
3 243 65 241
3 221 244 242
3 242 60 221
3 244 66 242
3 221 19 244
3 245 226 241
3 241 65 245
3 226 60 241
3 245 17 226
3 247 246 243
3 243 66 247
3 246 65 243
3 247 11 246
3 250 248 249
3 249 69 250
3 248 68 249
3 250 67 248
3 252 251 249
3 249 68 252
3 251 69 249
3 252 18 251
3 254 253 248
3 248 67 254
3 253 68 248
3 254 21 253
3 256 255 250
3 250 69 256
3 255 67 250
3 256 20 255
3 259 257 258
3 258 70 259
3 257 68 258
3 259 62 257
3 253 260 258
3 258 68 253
3 260 70 258
3 253 21 260
3 230 252 257
3 257 62 230
3 252 68 257
3 230 18 252
3 261 233 259
3 259 70 261
3 233 62 259
3 261 5 233
3 264 262 263
3 263 72 264
3 262 67 263
3 264 71 262
3 255 265 263
3 263 67 255
3 265 72 263
3 255 20 265
3 266 254 262
3 262 71 266
3 254 67 262
3 266 21 254
3 268 267 264
3 264 72 268
3 267 71 264
3 268 10 267
3 271 269 270
3 270 63 271
3 269 69 270
3 271 73 269
3 251 238 270
3 270 69 251
3 238 63 270
3 251 18 238
3 272 256 269
3 269 73 272
3 256 69 269
3 272 20 256
3 239 273 271
3 271 63 239
3 273 73 271
3 239 6 273
3 276 274 275
3 275 76 276
3 274 75 275
3 276 74 274
3 278 277 275
3 275 75 278
3 277 76 275
3 278 24 277
3 280 279 274
3 274 74 280
3 279 75 274
3 280 23 279
3 282 281 276
3 276 76 282
3 281 74 276
3 282 22 281
3 285 283 284
3 284 78 285
3 283 75 284
3 285 77 283
3 279 286 284
3 284 75 279
3 286 78 284
3 279 23 286
3 287 278 283
3 283 77 287
3 278 75 283
3 287 24 278
3 289 288 285
3 285 78 289
3 288 77 285
3 289 0 288
3 292 290 291
3 291 80 292
3 290 74 291
3 292 79 290
3 281 293 291
3 291 74 281
3 293 80 291
3 281 22 293
3 294 280 290
3 290 79 294
3 280 74 290
3 294 23 280
3 296 295 292
3 292 80 296
3 295 79 292
3 296 4 295
3 299 297 298
3 298 82 299
3 297 76 298
3 299 81 297
3 277 300 298
3 298 76 277
3 300 82 298
3 277 24 300
3 301 282 297
3 297 81 301
3 282 76 297
3 301 22 282
3 303 302 299
3 299 82 303
3 302 81 299
3 303 3 302
3 306 304 305
3 305 85 306
3 304 84 305
3 306 83 304
3 308 307 305
3 305 84 308
3 307 85 305
3 308 26 307
3 310 309 304
3 304 83 310
3 309 84 304
3 310 24 309
3 312 311 306
3 306 85 312
3 311 83 306
3 312 25 311
3 315 313 314
3 314 77 315
3 313 84 314
3 315 86 313
3 309 287 314
3 314 84 309
3 287 77 314
3 309 24 287
3 316 308 313
3 313 86 316
3 308 84 313
3 316 26 308
3 288 317 315
3 315 77 288
3 317 86 315
3 288 0 317
3 320 318 319
3 319 87 320
3 318 83 319
3 320 82 318
3 311 321 319
3 319 83 311
3 321 87 319
3 311 25 321
3 300 310 318
3 318 82 300
3 310 83 318
3 300 24 310
3 322 303 320
3 320 87 322
3 303 82 320
3 322 3 303
3 325 323 324
3 324 89 325
3 323 85 324
3 325 88 323
3 307 326 324
3 324 85 307
3 326 89 324
3 307 26 326
3 327 312 323
3 323 88 327
3 312 85 323
3 327 25 312
3 329 328 325
3 325 89 329
3 328 88 325
3 329 5 328
3 332 330 331
3 331 92 332
3 330 91 331
3 332 90 330
3 334 333 331
3 331 91 334
3 333 92 331
3 334 29 333
3 336 335 330
3 330 90 336
3 335 91 330
3 336 28 335
3 338 337 332
3 332 92 338
3 337 90 332
3 338 27 337
3 341 339 340
3 340 94 341
3 339 91 340
3 341 93 339
3 335 342 340
3 340 91 335
3 342 94 340
3 335 28 342
3 343 334 339
3 339 93 343
3 334 91 339
3 343 29 334
3 345 344 341
3 341 94 345
3 344 93 341
3 345 2 344
3 348 346 347
3 347 96 348
3 346 90 347
3 348 95 346
3 337 349 347
3 347 90 337
3 349 96 347
3 337 27 349
3 350 336 346
3 346 95 350
3 336 90 346
3 350 28 336
3 352 351 348
3 348 96 352
3 351 95 348
3 352 7 351
3 355 353 354
3 354 98 355
3 353 92 354
3 355 97 353
3 333 356 354
3 354 92 333
3 356 98 354
3 333 29 356
3 357 338 353
3 353 97 357
3 338 92 353
3 357 27 338
3 359 358 355
3 355 98 359
3 358 97 355
3 359 1 358
3 362 360 361
3 361 101 362
3 360 100 361
3 362 99 360
3 364 363 361
3 361 100 364
3 363 101 361
3 364 31 363
3 366 365 360
3 360 99 366
3 365 100 360
3 366 29 365
3 368 367 362
3 362 101 368
3 367 99 362
3 368 30 367
3 371 369 370
3 370 93 371
3 369 100 370
3 371 102 369
3 365 343 370
3 370 100 365
3 343 93 370
3 365 29 343
3 372 364 369
3 369 102 372
3 364 100 369
3 372 31 364
3 344 373 371
3 371 93 344
3 373 102 371
3 344 2 373
3 376 374 375
3 375 103 376
3 374 99 375
3 376 98 374
3 367 377 375
3 375 99 367
3 377 103 375
3 367 30 377
3 356 366 374
3 374 98 356
3 366 99 374
3 356 29 366
3 378 359 376
3 376 103 378
3 359 98 376
3 378 1 359
3 381 379 380
3 380 105 381
3 379 101 380
3 381 104 379
3 363 382 380
3 380 101 363
3 382 105 380
3 363 31 382
3 383 368 379
3 379 104 383
3 368 101 379
3 383 30 368
3 385 384 381
3 381 105 385
3 384 104 381
3 385 6 384
3 388 386 387
3 387 108 388
3 386 107 387
3 388 106 386
3 390 389 387
3 387 107 390
3 389 108 387
3 390 34 389
3 392 391 386
3 386 106 392
3 391 107 386
3 392 33 391
3 394 393 388
3 388 108 394
3 393 106 388
3 394 32 393
3 397 395 396
3 396 110 397
3 395 107 396
3 397 109 395
3 391 398 396
3 396 107 391
3 398 110 396
3 391 33 398
3 399 390 395
3 395 109 399
3 390 107 395
3 399 34 390
3 401 400 397
3 397 110 401
3 400 109 397
3 401 8 400
3 404 402 403
3 403 112 404
3 402 106 403
3 404 111 402
3 393 405 403
3 403 106 393
3 405 112 403
3 393 32 405
3 406 392 402
3 402 111 406
3 392 106 402
3 406 33 392
3 408 407 404
3 404 112 408
3 407 111 404
3 408 0 407
3 411 409 410
3 410 114 411
3 409 108 410
3 411 113 409
3 389 412 410
3 410 108 389
3 412 114 410
3 389 34 412
3 413 394 409
3 409 113 413
3 394 108 409
3 413 32 394
3 415 414 411
3 411 114 415
3 414 113 411
3 415 11 414
3 418 416 417
3 417 117 418
3 416 116 417
3 418 115 416
3 420 419 417
3 417 116 420
3 419 117 417
3 420 36 419
3 422 421 416
3 416 115 422
3 421 116 416
3 422 34 421
3 424 423 418
3 418 117 424
3 423 115 418
3 424 35 423
3 427 425 426
3 426 109 427
3 425 116 426
3 427 118 425
3 421 399 426
3 426 116 421
3 399 109 426
3 421 34 399
3 428 420 425
3 425 118 428
3 420 116 425
3 428 36 420
3 400 429 427
3 427 109 400
3 429 118 427
3 400 8 429
3 432 430 431
3 431 119 432
3 430 115 431
3 432 114 430
3 423 433 431
3 431 115 423
3 433 119 431
3 423 35 433
3 412 422 430
3 430 114 412
3 422 115 430
3 412 34 422
3 434 415 432
3 432 119 434
3 415 114 432
3 434 11 415
3 437 435 436
3 436 121 437
3 435 117 436
3 437 120 435
3 419 438 436
3 436 117 419
3 438 121 436
3 419 36 438
3 439 424 435
3 435 120 439
3 424 117 435
3 439 35 424
3 441 440 437
3 437 121 441
3 440 120 437
3 441 1 440
3 444 442 443
3 443 124 444
3 442 123 443
3 444 122 442
3 446 445 443
3 443 123 446
3 445 124 443
3 446 39 445
3 448 447 442
3 442 122 448
3 447 123 442
3 448 38 447
3 450 449 444
3 444 124 450
3 449 122 444
3 450 37 449
3 453 451 452
3 452 126 453
3 451 123 452
3 453 125 451
3 447 454 452
3 452 123 447
3 454 126 452
3 447 38 454
3 455 446 451
3 451 125 455
3 446 123 451
3 455 39 446
3 457 456 453
3 453 126 457
3 456 125 453
3 457 9 456
3 460 458 459
3 459 128 460
3 458 122 459
3 460 127 458
3 449 461 459
3 459 122 449
3 461 128 459
3 449 37 461
3 462 448 458
3 458 127 462
3 448 122 458
3 462 38 448
3 464 463 460
3 460 128 464
3 463 127 460
3 464 10 463
3 467 465 466
3 466 130 467
3 465 124 466
3 467 129 465
3 445 468 466
3 466 124 445
3 468 130 466
3 445 39 468
3 469 450 465
3 465 129 469
3 450 124 465
3 469 37 450
3 471 470 467
3 467 130 471
3 470 129 467
3 471 3 470
3 474 472 473
3 473 133 474
3 472 132 473
3 474 131 472
3 476 475 473
3 473 132 476
3 475 133 473
3 476 38 475
3 478 477 472
3 472 131 478
3 477 132 472
3 478 41 477
3 480 479 474
3 474 133 480
3 479 131 474
3 480 40 479
3 483 481 482
3 482 134 483
3 481 132 482
3 483 126 481
3 477 484 482
3 482 132 477
3 484 134 482
3 477 41 484
3 454 476 481
3 481 126 454
3 476 132 481
3 454 38 476
3 485 457 483
3 483 134 485
3 457 126 483
3 485 9 457
3 488 486 487
3 487 136 488
3 486 131 487
3 488 135 486
3 479 489 487
3 487 131 479
3 489 136 487
3 479 40 489
3 490 478 486
3 486 135 490
3 478 131 486
3 490 41 478
3 492 491 488
3 488 136 492
3 491 135 488
3 492 2 491
3 495 493 494
3 494 127 495
3 493 133 494
3 495 137 493
3 475 462 494
3 494 133 475
3 462 127 494
3 475 38 462
3 496 480 493
3 493 137 496
3 480 133 493
3 496 40 480
3 463 497 495
3 495 127 463
3 497 137 495
3 463 10 497
3 500 498 499
3 499 140 500
3 498 139 499
3 500 138 498
3 502 501 499
3 499 139 502
3 501 140 499
3 502 33 501
3 504 503 498
3 498 138 504
3 503 139 498
3 504 13 503
3 506 505 500
3 500 140 506
3 505 138 500
3 506 23 505
3 509 507 508
3 508 47 509
3 507 139 508
3 509 110 507
3 503 182 508
3 508 139 503
3 182 47 508
3 503 13 182
3 398 502 507
3 507 110 398
3 502 139 507
3 398 33 502
3 183 401 509
3 509 47 183
3 401 110 509
3 183 8 401
3 512 510 511
3 511 79 512
3 510 138 511
3 512 46 510
3 505 294 511
3 511 138 505
3 294 79 511
3 505 23 294
3 174 504 510
3 510 46 174
3 504 138 510
3 174 13 504
3 295 177 512
3 512 79 295
3 177 46 512
3 295 4 177
3 515 513 514
3 514 111 515
3 513 140 514
3 515 78 513
3 501 406 514
3 514 140 501
3 406 111 514
3 501 33 406
3 286 506 513
3 513 78 286
3 506 140 513
3 286 23 506
3 407 289 515
3 515 111 407
3 289 78 515
3 407 0 289
3 518 516 517
3 517 143 518
3 516 142 517
3 518 141 516
3 520 519 517
3 517 142 520
3 519 143 517
3 520 19 519
3 522 521 516
3 516 141 522
3 521 142 516
3 522 32 521
3 524 523 518
3 518 143 524
3 523 141 518
3 524 26 523
3 527 525 526
3 526 113 527
3 525 142 526
3 527 66 525
3 521 413 526
3 526 142 521
3 413 113 526
3 521 32 413
3 244 520 525
3 525 66 244
3 520 142 525
3 244 19 520
3 414 247 527
3 527 113 414
3 247 66 527
3 414 11 247
3 530 528 529
3 529 86 530
3 528 141 529
3 530 112 528
3 523 316 529
3 529 141 523
3 316 86 529
3 523 26 316
3 405 522 528
3 528 112 405
3 522 141 528
3 405 32 522
3 317 408 530
3 530 86 317
3 408 112 530
3 317 0 408
3 533 531 532
3 532 61 533
3 531 143 532
3 533 89 531
3 519 231 532
3 532 143 519
3 231 61 532
3 519 19 231
3 326 524 531
3 531 89 326
3 524 143 531
3 326 26 524
3 232 329 533
3 533 61 232
3 329 89 533
3 232 5 329
3 536 534 535
3 535 146 536
3 534 145 535
3 536 144 534
3 538 537 535
3 535 145 538
3 537 146 535
3 538 22 537
3 540 539 534
3 534 144 540
3 539 145 534
3 540 16 539
3 542 541 536
3 536 146 542
3 541 144 536
3 542 39 541
3 545 543 544
3 544 54 545
3 543 145 544
3 545 80 543
3 539 204 544
3 544 145 539
3 204 54 544
3 539 16 204
3 293 538 543
3 543 80 293
3 538 145 543
3 293 22 538
3 205 296 545
3 545 54 205
3 296 80 545
3 205 4 296
3 548 546 547
3 547 125 548
3 546 144 547
3 548 57 546
3 541 455 547
3 547 144 541
3 455 125 547
3 541 39 455
3 214 540 546
3 546 57 214
3 540 144 546
3 214 16 540
3 456 217 548
3 548 125 456
3 217 57 548
3 456 9 217
3 551 549 550
3 550 81 551
3 549 146 550
3 551 130 549
3 537 301 550
3 550 146 537
3 301 81 550
3 537 22 301
3 468 542 549
3 549 130 468
3 542 146 549
3 468 39 542
3 302 471 551
3 551 81 302
3 471 130 551
3 302 3 471
3 554 552 553
3 553 149 554
3 552 148 553
3 554 147 552
3 556 555 553
3 553 148 556
3 555 149 553
3 556 21 555
3 558 557 552
3 552 147 558
3 557 148 552
3 558 25 557
3 560 559 554
3 554 149 560
3 559 147 554
3 560 37 559
3 563 561 562
3 562 88 563
3 561 148 562
3 563 70 561
3 557 327 562
3 562 148 557
3 327 88 562
3 557 25 327
3 260 556 561
3 561 70 260
3 556 148 561
3 260 21 556
3 328 261 563
3 563 88 328
3 261 70 563
3 328 5 261
3 566 564 565
3 565 129 566
3 564 147 565
3 566 87 564
3 559 469 565
3 565 147 559
3 469 129 565
3 559 37 469
3 321 558 564
3 564 87 321
3 558 147 564
3 321 25 558
3 470 322 566
3 566 129 470
3 322 87 566
3 470 3 322
3 569 567 568
3 568 71 569
3 567 149 568
3 569 128 567
3 555 266 568
3 568 149 555
3 266 71 568
3 555 21 266
3 461 560 567
3 567 128 461
3 560 149 567
3 461 37 560
3 267 464 569
3 569 71 267
3 464 128 569
3 267 10 464
3 572 570 571
3 571 152 572
3 570 151 571
3 572 150 570
3 574 573 571
3 571 151 574
3 573 152 571
3 574 27 573
3 576 575 570
3 570 150 576
3 575 151 570
3 576 12 575
3 578 577 572
3 572 152 578
3 577 150 572
3 578 36 577
3 581 579 580
3 580 49 581
3 579 151 580
3 581 96 579
3 575 189 580
3 580 151 575
3 189 49 580
3 575 12 189
3 349 574 579
3 579 96 349
3 574 151 579
3 349 27 574
3 190 352 581
3 581 49 190
3 352 96 581
3 190 7 352
3 584 582 583
3 583 118 584
3 582 150 583
3 584 48 582
3 577 428 583
3 583 150 577
3 428 118 583
3 577 36 428
3 181 576 582
3 582 48 181
3 576 150 582
3 181 12 576
3 429 184 584
3 584 118 429
3 184 48 584
3 429 8 184
3 587 585 586
3 586 97 587
3 585 152 586
3 587 121 585
3 573 357 586
3 586 152 573
3 357 97 586
3 573 27 357
3 438 578 585
3 585 121 438
3 578 152 585
3 438 36 578
3 358 441 587
3 587 97 358
3 441 121 587
3 358 1 441
3 590 588 589
3 589 155 590
3 588 154 589
3 590 153 588
3 592 591 589
3 589 154 592
3 591 155 589
3 592 17 591
3 594 593 588
3 588 153 594
3 593 154 588
3 594 30 593
3 596 595 590
3 590 155 596
3 595 153 590
3 596 35 595
3 599 597 598
3 598 104 599
3 597 154 598
3 599 64 597
3 593 383 598
3 598 154 593
3 383 104 598
3 593 30 383
3 237 592 597
3 597 64 237
3 592 154 597
3 237 17 592
3 384 240 599
3 599 104 384
3 240 64 599
3 384 6 240
3 602 600 601
3 601 120 602
3 600 153 601
3 602 103 600
3 595 439 601
3 601 153 595
3 439 120 601
3 595 35 439
3 377 594 600
3 600 103 377
3 594 153 600
3 377 30 594
3 440 378 602
3 602 120 440
3 378 103 602
3 440 1 378
3 605 603 604
3 604 65 605
3 603 155 604
3 605 119 603
3 591 245 604
3 604 155 591
3 245 65 604
3 591 17 245
3 433 596 603
3 603 119 433
3 596 155 603
3 433 35 596
3 246 434 605
3 605 65 246
3 434 119 605
3 246 11 434
3 608 606 607
3 607 158 608
3 606 157 607
3 608 156 606
3 610 609 607
3 607 157 610
3 609 158 607
3 610 15 609
3 612 611 606
3 606 156 612
3 611 157 606
3 612 28 611
3 614 613 608
3 608 158 614
3 613 156 608
3 614 41 613
3 617 615 616
3 616 95 617
3 615 157 616
3 617 55 615
3 611 350 616
3 616 157 611
3 350 95 616
3 611 28 350
3 209 610 615
3 615 55 209
3 610 157 615
3 209 15 610
3 351 210 617
3 617 95 351
3 210 55 617
3 351 7 210
3 620 618 619
3 619 135 620
3 618 156 619
3 620 94 618
3 613 490 619
3 619 156 613
3 490 135 619
3 613 41 490
3 342 612 618
3 618 94 342
3 612 156 618
3 342 28 612
3 491 345 620
3 620 135 491
3 345 94 620
3 491 2 345
3 623 621 622
3 622 56 623
3 621 158 622
3 623 134 621
3 609 215 622
3 622 158 609
3 215 56 622
3 609 15 215
3 484 614 621
3 621 134 484
3 614 158 621
3 484 41 614
3 216 485 623
3 623 56 216
3 485 134 623
3 216 9 485
3 626 624 625
3 625 161 626
3 624 160 625
3 626 159 624
3 628 627 625
3 625 160 628
3 627 161 625
3 628 31 627
3 630 629 624
3 624 159 630
3 629 160 624
3 630 20 629
3 632 631 626
3 626 161 632
3 631 159 626
3 632 40 631
3 635 633 634
3 634 73 635
3 633 160 634
3 635 105 633
3 629 272 634
3 634 160 629
3 272 73 634
3 629 20 272
3 382 628 633
3 633 105 382
3 628 160 633
3 382 31 628
3 273 385 635
3 635 73 273
3 385 105 635
3 273 6 385
3 638 636 637
3 637 137 638
3 636 159 637
3 638 72 636
3 631 496 637
3 637 159 631
3 496 137 637
3 631 40 496
3 265 630 636
3 636 72 265
3 630 159 636
3 265 20 630
3 497 268 638
3 638 137 497
3 268 72 638
3 497 10 268
3 641 639 640
3 640 102 641
3 639 161 640
3 641 136 639
3 627 372 640
3 640 161 627
3 372 102 640
3 627 31 372
3 489 632 639
3 639 136 489
3 632 161 639
3 489 40 632
3 373 492 641
3 641 102 373
3 492 136 641
3 373 2 492
