# vtk DataFile Version 3.0
this file was written using fslvtkio
ASCII
DATASET POLYDATA
POINTS 642 float
158.801 142.345 153.537
147.843 142.67 155.198
154.151 129.369 153.465
160.663 124.166 149.02
159.497 128.196 160.228
156.207 138.681 146.475
149.154 140.73 147.174
152.565 129.091 162.658
153.889 145.767 162.338
155.705 113.288 154.709
156.408 123.203 143.522
149.195 153.938 148.209
153.058 137.136 164.941
157.198 137.269 162.616
156.574 126.59 164.796
154.104 120.024 160.574
158.303 118.618 158.508
145.14 147.673 144.047
152.127 140.623 145.826
152.345 148.063 145.754
155.009 131.339 146.577
157.816 128.588 143.128
160.43 124.482 154.826
159.621 135.691 157.396
160.968 133.25 151.704
159.88 130.277 146.289
157.807 142.308 148.986
149.976 136.956 160.407
152.078 127.351 157.911
151.009 136.52 154.712
145.566 143.309 149.545
152.913 135.168 150.244
154.731 150.317 151.542
156.646 145.889 157.951
151.059 152.991 155.827
146.368 149.621 151.368
150.015 145.192 159.166
160.537 120.506 142.781
156.45 116.289 147.343
159.491 115.705 150.738
156.095 125.309 149.125
154.365 120.6 153.717
155.564 137.329 164.917
157.239 131.986 164.1
154.94 131.939 165.473
158.262 127.364 162.574
158.59 132.832 161.604
155.844 141.963 162.949
153.331 141.962 164.409
152.517 132.991 164.178
154.059 127.256 164.698
154.949 122.545 163.658
157.458 122.507 162.077
156.412 117.91 160.773
158.841 123.367 159.509
153.219 124.6 162.052
155.29 116.427 157.605
157.603 114.285 156.934
148.273 144.878 143.788
151.618 144.537 144.874
148.943 148.502 144.244
154.214 143.567 146.164
154.403 139.48 145.746
150.411 140.945 146.159
145.892 143.875 144.924
146.885 151.084 146
150.84 151.464 146.458
156.13 129.723 144.376
155.389 134.586 145.412
153.79 135.703 146.174
156.977 133.697 145.534
157.026 125.727 141.679
155.591 126.857 144.563
152.394 136.526 147.282
160.525 129.995 156.33
160.528 134.08 154.612
160.904 128.878 153.399
159.895 137.851 152.754
159.418 139.263 155.658
159.748 132.254 159.02
159.975 126.215 157.683
160.741 124.159 151.945
160.915 128.731 150.312
160.508 132.442 148.908
159.906 137.586 150.215
159.276 136.738 147.999
158.447 142.668 151.122
160.693 127.098 147.318
158.252 134.803 146.562
157.026 140.789 147.415
150.763 132.093 159.33
151.498 131.823 156.648
149.965 135.854 157.536
152.718 133.153 154.281
153.048 128.259 155.526
152.072 127.976 160.45
151.173 133.109 161.798
149.104 139.836 157.954
149.078 139.542 154.984
148.848 140.414 152.153
151.612 136.796 152.148
149.063 139.872 150.031
153.904 132.407 151.898
146.607 143.278 152.34
146.762 142.218 147.854
151.028 138.082 148.786
155.771 148.967 154.872
154.207 150.569 157.223
153.093 153.164 153.482
152.604 149.634 159.577
155.206 146.453 160.21
157.929 144.416 155.673
157.199 146.527 152.687
152.254 153.006 149.71
149.694 154.859 151.872
148.683 152.017 153.371
150.511 149.407 157.384
148.424 148.305 155.067
151.698 145.782 161.184
146.979 152.404 149.578
146.793 146.256 153.441
148.686 144.232 156.959
158.627 116.946 143.674
158.377 112.949 148.209
160.137 117.882 146.712
157.955 112.584 153.005
155.721 114.192 150.96
156.877 120.083 144.968
158.5 121.97 141.278
160.395 122.148 146.302
160.416 120.085 149.884
155.407 122.607 151.095
155.464 117.964 150.647
156.175 120.51 148.073
155.143 117.071 154.237
154.197 124.904 153.575
155.215 127.479 151.475
156.165 124.202 146.343
158.466 137.143 160.084
157.128 142.057 160.519
158.282 141.056 157.914
156.493 146.858 149.952
153.772 149.583 148.368
155.226 145.478 147.547
159.128 116.515 154.706
159.632 121.113 156.576
160.181 119.786 153.019
160.257 124.866 144.209
158.876 129.23 144.574
160.002 124.8 140.904
151.334 141.565 162.734
151.172 137.12 162.893
149.682 141.304 160.108
145.292 146.305 150.287
143.839 144.988 146.53
144.918 149.091 147.54
153.204 123.814 156.019
152.932 123.483 159.217
154.139 120.011 157.127
155.869 128.324 147.465
153.802 133.446 148.363
155.088 130.358 149.84
156.516 134.631 164.747
156.27 131.971 165.136
155.326 134.626 165.527
155.846 129.392 165.295
156.952 129.37 164.557
157.27 134.582 163.55
156.558 137.023 163.907
154.355 137.034 165.337
154.021 134.518 165.417
157.82 129.713 163.49
157.993 132.488 162.931
158.534 130.145 162.243
157.884 134.969 162.295
157.53 126.988 163.775
158.957 127.824 161.41
159.165 130.438 161.039
155.757 139.513 163.959
154.521 139.63 164.865
154.828 141.788 164.12
153.162 139.554 164.787
156.561 139.589 162.814
154.937 143.983 162.962
153.7 143.872 163.699
153.701 132.361 165.019
154.583 129.557 165.112
153.499 130.257 164.411
155.288 126.852 165.2
152.834 134.867 164.704
152.56 130.852 163.521
153.209 128.246 163.754
156.413 122.196 163.291
156.948 120.116 161.71
155.614 120.043 162.613
157.483 118.15 159.849
157.881 120.43 160.479
157.09 124.494 163.594
155.792 124.393 164.495
154.279 120.991 162.328
155.029 118.653 161.064
158.222 122.807 160.749
158.001 124.872 162.437
158.738 125.342 161.191
158.596 120.899 159.203
159.26 125.79 159.958
154.497 124.946 164.414
153.893 123.416 162.999
153.38 125.901 163.539
153.565 122.225 161.532
152.805 126.879 162.575
155.686 116.7 159.449
157.126 116.003 158.979
156.17 114.587 157.908
158.075 116.452 157.847
154.742 118.239 159.134
155.514 114.696 156.274
156.548 112.834 156.207
150.138 144.582 144.161
150.41 146.558 144.267
148.556 146.589 143.62
150.703 148.353 144.831
151.882 146.405 145.062
151.498 142.682 145.139
150.045 143.071 144.828
146.559 146.36 143.315
147.077 148.149 143.851
152.92 144.29 145.447
152.82 142.247 145.416
154.083 141.794 145.749
153.209 140.135 145.723
153.346 145.988 145.892
155.208 141.014 146.435
155.38 138.935 146.119
148.789 143.152 144.857
146.797 144.493 143.971
147.949 142.947 145.334
144.989 145.687 144
151.095 140.966 145.874
149.677 140.979 146.561
147.773 142.531 146.291
147.848 149.944 144.768
149.923 150.165 144.994
148.879 151.459 145.792
151.545 149.838 145.967
146.082 149.457 144.816
148.077 152.588 146.93
149.984 152.849 147.062
156.116 131.88 145.226
154.468 135.358 145.721
155.259 132.567 145.804
152.835 138.362 145.883
153.782 137.857 145.685
156.684 131.403 144.697
156.875 129.238 143.524
155.473 130.487 145.46
154.466 133.174 146.357
154.618 137.468 145.577
156.125 134.146 145.442
155.7 136.675 145.822
157.377 131.01 144.692
156.552 136.32 146.022
156.44 127.71 142.674
155.857 128.261 144.198
155.966 126.248 142.968
155.511 129.003 145.543
157.495 127.277 141.901
156.501 124.255 142.303
155.765 124.941 143.854
153.15 136.128 146.696
152.144 138.624 146.181
151.482 138.794 146.751
153.756 133.933 147.023
150.939 139.055 147.385
160.725 132.047 155.533
160.832 131.5 154.056
160.752 129.419 154.867
160.931 131.147 152.617
160.882 133.475 153.227
160.181 134.499 156.076
160.338 132.718 156.893
160.547 127.305 155.603
160.746 126.778 154.226
160.367 135.916 153.719
159.942 136.47 155.268
159.768 138.298 154.278
159.549 137.386 156.521
160.622 135.509 152.306
159.339 140.086 153.2
159.188 140.78 154.59
160.279 131.091 157.732
160.331 128.093 157.035
160.207 129.21 158.504
160.272 125.308 156.262
159.714 133.963 158.183
159.733 130.296 159.727
159.751 127.274 159.009
160.989 126.494 152.782
160.916 128.817 151.914
161.004 126.567 151.249
160.886 130.93 151.133
160.652 124.292 153.422
160.708 124.421 150.444
160.805 126.548 149.681
160.497 135.028 149.607
159.682 137.268 149.02
160.166 134.571 148.341
158.695 139.47 148.547
159.065 139.868 149.562
160.589 135.365 150.889
160.797 132.997 150.334
160.206 131.79 147.565
159.644 133.682 147.33
159.141 140.181 150.653
159.975 137.683 151.434
159.278 140.099 151.89
158.139 142.514 150.015
158.695 142.451 152.325
160.711 130.678 149.579
160.56 129.956 148.018
160.829 128.254 148.77
160.371 128.799 146.743
160.696 125.664 148.176
158.797 135.79 147.211
158.229 138.846 147.719
157.816 137.809 147.065
157.5 141.658 148.127
159.136 132.552 146.452
157.236 136.756 146.553
156.551 139.621 146.967
150.971 131.844 157.877
150.784 133.939 157.019
150.201 133.927 158.396
150.593 135.868 156.138
151.291 134.142 155.809
151.742 129.699 157.414
151.446 129.927 158.661
150.239 134.434 159.775
149.734 136.114 158.985
152.133 132.432 155.446
152.299 129.997 156.203
152.919 130.727 155.035
152.438 127.693 156.72
151.837 134.747 154.578
153.501 131.448 153.882
153.633 129.01 154.453
151.399 129.982 159.911
150.793 132.576 160.553
151.543 130.643 161.206
150.491 134.98 161.064
152.018 127.646 159.137
152.269 128.449 161.604
151.826 131.087 162.427
149.347 137.709 157.893
149.695 137.598 156.351
149.127 139.413 156.533
149.999 137.923 154.927
149.414 138.349 159.311
148.666 141.318 156.528
148.479 141.178 155.119
150.468 138.833 152.368
150.738 138.57 151.121
148.959 140.212 151.078
151.031 137.925 150.24
152.076 136.382 151.057
151.235 136.872 153.383
150.08 138.537 153.454
147.294 141.86 150.906
147.275 141.539 149.817
152.737 134.812 152.03
152.161 135.033 153.238
153.186 133.178 152.97
153.406 133.886 151.074
154.317 130.918 152.809
149.196 139.929 153.613
147.727 141.891 152.189
148.149 141.555 153.666
145.98 143.366 150.966
147.354 142.95 153.791
147.862 141.014 149.005
149.933 139.001 149.331
148.781 140.28 148.308
151.935 136.643 149.536
145.869 142.751 148.509
148.009 141.59 147.406
150.09 139.427 147.958
154.923 149.947 155.935
153.68 152.047 155.4
154.416 151.086 154.254
152.203 153.624 154.746
152.844 152.318 156.689
155.519 148.476 157.569
156.152 147.749 156.494
155.189 149.96 153.2
153.88 151.831 152.512
153.33 150.381 158.365
154.848 148.748 158.852
154.169 148.478 160.205
155.899 146.574 158.94
151.884 151.522 157.603
153.179 147.79 161.041
154.677 146.228 161.492
156.83 146.786 155.356
156.404 147.893 153.753
157.649 145.709 154.233
155.993 148.531 152.233
157.232 145.38 156.751
158.467 143.376 154.625
158.096 144.455 153.103
152.653 153.4 151.583
151.555 154.397 152.675
151.074 154.521 150.543
150.387 154.233 153.977
153.438 151.798 150.741
150.835 153.81 148.677
149.25 154.709 149.874
149.554 150.979 155.436
149.507 148.961 156.179
148.51 150.175 154.345
149.4 147.108 156.973
150.218 147.377 158.061
150.733 151.264 156.56
149.694 152.736 154.645
147.552 150.911 152.541
147.486 149.221 153.222
151.036 147.758 159.172
151.55 149.74 158.378
152.047 147.796 160.357
150.815 145.648 160.065
152.718 145.827 162.171
148.927 153.705 152.787
147.644 152.432 151.594
148.066 154.081 150.765
146.579 151.048 150.567
147.853 153.483 148.725
147.57 147.409 154.147
148.572 146.338 156.047
147.839 145.358 155.141
149.391 145.035 157.846
146.51 148.066 152.439
147.247 144.408 154.408
148.134 143.42 156.068
158.802 114.707 145.623
159.592 115.426 147.097
160.014 116.978 144.904
159.774 116.537 148.673
159.123 114.16 149.294
157.158 114.185 147.28
157.433 116.187 145.459
160.179 118.23 142.674
160.384 119.169 144.574
158.164 112.494 150.522
156.538 112.525 149.189
156.334 111.578 151.705
156.112 114.747 148.998
158.812 114.018 151.758
156.618 111.898 154.14
155.478 113.51 152.994
157.502 118.435 144.112
158.691 119.21 142.362
157.621 120.64 142.907
159.795 120.581 141.341
156.869 117.987 145.929
156.602 121.765 144.227
157.192 122.541 142.187
160.238 119.895 146.594
160.249 118.657 148.498
160.526 121.188 148.18
160.026 117.747 150.18
160.376 121.271 144.713
160.571 123.18 147.708
160.761 122.197 149.568
155.405 120.25 150.793
155.75 118.941 149.196
155.83 121.439 149.597
156.257 118.276 147.56
155.782 116.707 148.976
154.993 119.449 152.104
154.856 121.449 152.24
155.816 123.754 149.996
156.163 122.81 148.63
155.609 116.113 150.713
155.145 117.669 152.429
155.256 115.508 152.618
154.757 118.874 153.932
155.303 115.203 154.577
154.805 123.662 152.418
155.377 124.933 151.281
154.864 126.07 152.493
155.673 126.255 150.378
154.181 122.599 153.6
154.334 127.187 153.665
154.746 128.492 152.582
156.34 122.342 147.195
156.448 119.959 146.527
156.475 122.065 145.649
156.212 124.445 147.779
156.12 123.871 144.91
157.829 139.557 160.368
157.782 141.658 159.282
158.397 139.091 158.98
157.591 143.514 158.059
156.885 144.047 159.254
157.191 139.71 161.589
157.811 137.228 161.379
159.058 136.733 158.677
158.971 138.452 157.753
156.247 144.5 160.356
156.564 142.079 161.739
155.643 144.323 161.713
158.474 135.071 160.873
159.163 134.883 159.463
159.146 132.711 160.281
158.866 140.211 156.815
158.121 142.964 156.887
158.761 141.908 155.757
155.13 148.347 149.239
154.615 147.726 147.819
155.918 146.272 148.66
153.933 146.932 146.642
153.176 148.857 146.915
154.282 150.126 149.948
155.565 148.599 150.751
157.107 144.713 149.345
156.559 144.042 148.271
152.458 150.517 147.326
153.116 151.331 149.058
151.683 152.272 147.963
156.806 146.99 151.323
157.541 144.908 150.463
157.806 144.765 151.784
156.183 143.013 147.475
154.783 144.495 146.739
155.719 141.953 146.773
159.506 118.784 155.742
159.956 120.538 154.814
159.765 118.047 153.819
160.347 122.07 153.996
160.048 122.74 155.621
159.095 119.721 157.546
158.887 117.419 156.648
159.366 115.811 152.747
159.93 117.587 151.905
159.816 123.617 157.048
159.191 122.072 158.075
159.566 124.663 158.551
158.497 115.351 156.006
158.679 114.421 153.91
157.791 113.178 155.131
160.301 119.71 151.425
160.499 122 152.549
160.622 122.088 150.968
159.709 126.915 144.063
159.581 126.67 142.683
160.338 124.454 142.491
158.858 126.944 141.967
158.233 128.703 144.034
159.227 130.17 145.479
160.084 127.804 145.281
160.485 122.495 143.254
160.476 122.494 141.314
157.969 131.198 145.188
158.476 132.005 145.919
157.519 134.134 146.067
160.501 126.362 145.882
160.331 123.566 145.107
160.55 124.707 146.791
159.357 123.505 140.284
158.445 125.93 141.011
157.461 124.078 141.265
151.224 139.318 162.978
150.317 139.294 161.698
150.427 141.441 161.485
149.826 139.181 160.412
150.389 137.183 161.669
152.03 137.005 164.041
152.14 139.403 164.074
150.668 143.441 161.055
149.839 143.307 159.731
150.892 135.143 162.258
151.802 135.135 163.52
151.668 132.964 163.027
152.153 141.774 163.722
151.485 143.841 161.88
152.38 143.996 163.098
149.195 142.955 158.573
149.25 140.632 159.046
148.791 142.092 157.537
144.452 145.832 148.359
144.23 147.037 146.95
144.925 147.615 148.844
144.686 148.446 145.644
144.071 146.332 145.162
144.472 144.095 148.093
145.038 144.716 149.848
145.625 148.003 150.782
145.567 149.35 149.472
144.443 144.168 145.269
145.029 143.29 147.01
146.516 142.934 146.538
145.585 144.707 151.404
146.027 146.434 151.875
146.464 144.571 153.012
145.947 150.664 148.786
145.555 150.203 146.506
146.682 152.113 147.654
152.932 123.54 157.564
153.437 121.669 158.27
153.533 121.856 156.576
154.085 119.919 158.881
153.488 121.769 159.994
152.469 125.276 158.491
152.591 125.434 157.036
153.787 122.142 154.998
154.17 120.349 155.412
152.981 123.847 160.649
152.416 125.727 159.783
152.575 126.183 161.227
152.955 126.019 155.788
153.679 124.232 154.709
153.626 126.655 154.646
154.683 118.655 155.601
154.633 118.358 157.458
155.204 116.728 155.959
154.973 130.799 147.997
154.42 131.908 149.069
155.515 129.283 148.763
153.971 132.87 150.049
153.31 134.579 149.279
154.369 132.412 147.522
155.317 129.802 146.884
156.04 126.748 148.214
155.746 127.72 149.523
152.422 135.881 148.596
153.121 134.97 147.782
151.604 137.449 147.928
155.693 127.84 146.054
156.051 126.176 146.876
155.907 125.775 145.394
155.327 128.889 150.624
154.513 131.57 150.846
154.932 130.071 151.806
POLYGONS 1280  5120
3 164 162 163
3 163 44 164
3 162 43 163
3 164 42 162
3 166 165 163
3 163 43 166
3 165 44 163
3 166 14 165
3 168 167 162
3 162 42 168
3 167 43 162
3 168 13 167
3 170 169 164
3 164 44 170
3 169 42 164
3 170 12 169
3 173 171 172
3 172 46 173
3 171 43 172
3 173 45 171
3 167 174 172
3 172 43 167
3 174 46 172
3 167 13 174
3 175 166 171
3 171 45 175
3 166 43 171
3 175 14 166
3 177 176 173
3 173 46 177
3 176 45 173
3 177 4 176
3 180 178 179
3 179 48 180
3 178 42 179
3 180 47 178
3 169 181 179
3 179 42 169
3 181 48 179
3 169 12 181
3 182 168 178
3 178 47 182
3 168 42 178
3 182 13 168
3 184 183 180
3 180 48 184
3 183 47 180
3 184 8 183
3 187 185 186
3 186 50 187
3 185 44 186
3 187 49 185
3 165 188 186
3 186 44 165
3 188 50 186
3 165 14 188
3 189 170 185
3 185 49 189
3 170 44 185
3 189 12 170
3 191 190 187
3 187 50 191
3 190 49 187
3 191 7 190
3 194 192 193
3 193 53 194
3 192 52 193
3 194 51 192
3 196 195 193
3 193 52 196
3 195 53 193
3 196 16 195
3 198 197 192
3 192 51 198
3 197 52 192
3 198 14 197
3 200 199 194
3 194 53 200
3 199 51 194
3 200 15 199
3 203 201 202
3 202 45 203
3 201 52 202
3 203 54 201
3 197 175 202
3 202 52 197
3 175 45 202
3 197 14 175
3 204 196 201
3 201 54 204
3 196 52 201
3 204 16 196
3 176 205 203
3 203 45 176
3 205 54 203
3 176 4 205
3 208 206 207
3 207 55 208
3 206 51 207
3 208 50 206
3 199 209 207
3 207 51 199
3 209 55 207
3 199 15 209
3 188 198 206
3 206 50 188
3 198 51 206
3 188 14 198
3 210 191 208
3 208 55 210
3 191 50 208
3 210 7 191
3 213 211 212
3 212 57 213
3 211 53 212
3 213 56 211
3 195 214 212
3 212 53 195
3 214 57 212
3 195 16 214
3 215 200 211
3 211 56 215
3 200 53 211
3 215 15 200
3 217 216 213
3 213 57 217
3 216 56 213
3 217 9 216
3 220 218 219
3 219 60 220
3 218 59 219
3 220 58 218
3 222 221 219
3 219 59 222
3 221 60 219
3 222 19 221
3 224 223 218
3 218 58 224
3 223 59 218
3 224 18 223
3 226 225 220
3 220 60 226
3 225 58 220
3 226 17 225
3 229 227 228
3 228 62 229
3 227 59 228
3 229 61 227
3 223 230 228
3 228 59 223
3 230 62 228
3 223 18 230
3 231 222 227
3 227 61 231
3 222 59 227
3 231 19 222
3 233 232 229
3 229 62 233
3 232 61 229
3 233 5 232
3 236 234 235
3 235 64 236
3 234 58 235
3 236 63 234
3 225 237 235
3 235 58 225
3 237 64 235
3 225 17 237
3 238 224 234
3 234 63 238
3 224 58 234
3 238 18 224
3 240 239 236
3 236 64 240
3 239 63 236
3 240 6 239
3 243 241 242
3 242 66 243
3 241 60 242
3 243 65 241
3 221 244 242
3 242 60 221
3 244 66 242
3 221 19 244
3 245 226 241
3 241 65 245
3 226 60 241
3 245 17 226
3 247 246 243
3 243 66 247
3 246 65 243
3 247 11 246
3 250 248 249
3 249 69 250
3 248 68 249
3 250 67 248
3 252 251 249
3 249 68 252
3 251 69 249
3 252 18 251
3 254 253 248
3 248 67 254
3 253 68 248
3 254 21 253
3 256 255 250
3 250 69 256
3 255 67 250
3 256 20 255
3 259 257 258
3 258 70 259
3 257 68 258
3 259 62 257
3 253 260 258
3 258 68 253
3 260 70 258
3 253 21 260
3 230 252 257
3 257 62 230
3 252 68 257
3 230 18 252
3 261 233 259
3 259 70 261
3 233 62 259
3 261 5 233
3 264 262 263
3 263 72 264
3 262 67 263
3 264 71 262
3 255 265 263
3 263 67 255
3 265 72 263
3 255 20 265
3 266 254 262
3 262 71 266
3 254 67 262
3 266 21 254
3 268 267 264
3 264 72 268
3 267 71 264
3 268 10 267
3 271 269 270
3 270 63 271
3 269 69 270
3 271 73 269
3 251 238 270
3 270 69 251
3 238 63 270
3 251 18 238
3 272 256 269
3 269 73 272
3 256 69 269
3 272 20 256
3 239 273 271
3 271 63 239
3 273 73 271
3 239 6 273
3 276 274 275
3 275 76 276
3 274 75 275
3 276 74 274
3 278 277 275
3 275 75 278
3 277 76 275
3 278 24 277
3 280 279 274
3 274 74 280
3 279 75 274
3 280 23 279
3 282 281 276
3 276 76 282
3 281 74 276
3 282 22 281
3 285 283 284
3 284 78 285
3 283 75 284
3 285 77 283
3 279 286 284
3 284 75 279
3 286 78 284
3 279 23 286
3 287 278 283
3 283 77 287
3 278 75 283
3 287 24 278
3 289 288 285
3 285 78 289
3 288 77 285
3 289 0 288
3 292 290 291
3 291 80 292
3 290 74 291
3 292 79 290
3 281 293 291
3 291 74 281
3 293 80 291
3 281 22 293
3 294 280 290
3 290 79 294
3 280 74 290
3 294 23 280
3 296 295 292
3 292 80 296
3 295 79 292
3 296 4 295
3 299 297 298
3 298 82 299
3 297 76 298
3 299 81 297
3 277 300 298
3 298 76 277
3 300 82 298
3 277 24 300
3 301 282 297
3 297 81 301
3 282 76 297
3 301 22 282
3 303 302 299
3 299 82 303
3 302 81 299
3 303 3 302
3 306 304 305
3 305 85 306
3 304 84 305
3 306 83 304
3 308 307 305
3 305 84 308
3 307 85 305
3 308 26 307
3 310 309 304
3 304 83 310
3 309 84 304
3 310 24 309
3 312 311 306
3 306 85 312
3 311 83 306
3 312 25 311
3 315 313 314
3 314 77 315
3 313 84 314
3 315 86 313
3 309 287 314
3 314 84 309
3 287 77 314
3 309 24 287
3 316 308 313
3 313 86 316
3 308 84 313
3 316 26 308
3 288 317 315
3 315 77 288
3 317 86 315
3 288 0 317
3 320 318 319
3 319 87 320
3 318 83 319
3 320 82 318
3 311 321 319
3 319 83 311
3 321 87 319
3 311 25 321
3 300 310 318
3 318 82 300
3 310 83 318
3 300 24 310
3 322 303 320
3 320 87 322
3 303 82 320
3 322 3 303
3 325 323 324
3 324 89 325
3 323 85 324
3 325 88 323
3 307 326 324
3 324 85 307
3 326 89 324
3 307 26 326
3 327 312 323
3 323 88 327
3 312 85 323
3 327 25 312
3 329 328 325
3 325 89 329
3 328 88 325
3 329 5 328
3 332 330 331
3 331 92 332
3 330 91 331
3 332 90 330
3 334 333 331
3 331 91 334
3 333 92 331
3 334 29 333
3 336 335 330
3 330 90 336
3 335 91 330
3 336 28 335
3 338 337 332
3 332 92 338
3 337 90 332
3 338 27 337
3 341 339 340
3 340 94 341
3 339 91 340
3 341 93 339
3 335 342 340
3 340 91 335
3 342 94 340
3 335 28 342
3 343 334 339
3 339 93 343
3 334 91 339
3 343 29 334
3 345 344 341
3 341 94 345
3 344 93 341
3 345 2 344
3 348 346 347
3 347 96 348
3 346 90 347
3 348 95 346
3 337 349 347
3 347 90 337
3 349 96 347
3 337 27 349
3 350 336 346
3 346 95 350
3 336 90 346
3 350 28 336
3 352 351 348
3 348 96 352
3 351 95 348
3 352 7 351
3 355 353 354
3 354 98 355
3 353 92 354
3 355 97 353
3 333 356 354
3 354 92 333
3 356 98 354
3 333 29 356
3 357 338 353
3 353 97 357
3 338 92 353
3 357 27 338
3 359 358 355
3 355 98 359
3 358 97 355
3 359 1 358
3 362 360 361
3 361 101 362
3 360 100 361
3 362 99 360
3 364 363 361
3 361 100 364
3 363 101 361
3 364 31 363
3 366 365 360
3 360 99 366
3 365 100 360
3 366 29 365
3 368 367 362
3 362 101 368
3 367 99 362
3 368 30 367
3 371 369 370
3 370 93 371
3 369 100 370
3 371 102 369
3 365 343 370
3 370 100 365
3 343 93 370
3 365 29 343
3 372 364 369
3 369 102 372
3 364 100 369
3 372 31 364
3 344 373 371
3 371 93 344
3 373 102 371
3 344 2 373
3 376 374 375
3 375 103 376
3 374 99 375
3 376 98 374
3 367 377 375
3 375 99 367
3 377 103 375
3 367 30 377
3 356 366 374
3 374 98 356
3 366 99 374
3 356 29 366
3 378 359 376
3 376 103 378
3 359 98 376
3 378 1 359
3 381 379 380
3 380 105 381
3 379 101 380
3 381 104 379
3 363 382 380
3 380 101 363
3 382 105 380
3 363 31 382
3 383 368 379
3 379 104 383
3 368 101 379
3 383 30 368
3 385 384 381
3 381 105 385
3 384 104 381
3 385 6 384
3 388 386 387
3 387 108 388
3 386 107 387
3 388 106 386
3 390 389 387
3 387 107 390
3 389 108 387
3 390 34 389
3 392 391 386
3 386 106 392
3 391 107 386
3 392 33 391
3 394 393 388
3 388 108 394
3 393 106 388
3 394 32 393
3 397 395 396
3 396 110 397
3 395 107 396
3 397 109 395
3 391 398 396
3 396 107 391
3 398 110 396
3 391 33 398
3 399 390 395
3 395 109 399
3 390 107 395
3 399 34 390
3 401 400 397
3 397 110 401
3 400 109 397
3 401 8 400
3 404 402 403
3 403 112 404
3 402 106 403
3 404 111 402
3 393 405 403
3 403 106 393
3 405 112 403
3 393 32 405
3 406 392 402
3 402 111 406
3 392 106 402
3 406 33 392
3 408 407 404
3 404 112 408
3 407 111 404
3 408 0 407
3 411 409 410
3 410 114 411
3 409 108 410
3 411 113 409
3 389 412 410
3 410 108 389
3 412 114 410
3 389 34 412
3 413 394 409
3 409 113 413
3 394 108 409
3 413 32 394
3 415 414 411
3 411 114 415
3 414 113 411
3 415 11 414
3 418 416 417
3 417 117 418
3 416 116 417
3 418 115 416
3 420 419 417
3 417 116 420
3 419 117 417
3 420 36 419
3 422 421 416
3 416 115 422
3 421 116 416
3 422 34 421
3 424 423 418
3 418 117 424
3 423 115 418
3 424 35 423
3 427 425 426
3 426 109 427
3 425 116 426
3 427 118 425
3 421 399 426
3 426 116 421
3 399 109 426
3 421 34 399
3 428 420 425
3 425 118 428
3 420 116 425
3 428 36 420
3 400 429 427
3 427 109 400
3 429 118 427
3 400 8 429
3 432 430 431
3 431 119 432
3 430 115 431
3 432 114 430
3 423 433 431
3 431 115 423
3 433 119 431
3 423 35 433
3 412 422 430
3 430 114 412
3 422 115 430
3 412 34 422
3 434 415 432
3 432 119 434
3 415 114 432
3 434 11 415
3 437 435 436
3 436 121 437
3 435 117 436
3 437 120 435
3 419 438 436
3 436 117 419
3 438 121 436
3 419 36 438
3 439 424 435
3 435 120 439
3 424 117 435
3 439 35 424
3 441 440 437
3 437 121 441
3 440 120 437
3 441 1 440
3 444 442 443
3 443 124 444
3 442 123 443
3 444 122 442
3 446 445 443
3 443 123 446
3 445 124 443
3 446 39 445
3 448 447 442
3 442 122 448
3 447 123 442
3 448 38 447
3 450 449 444
3 444 124 450
3 449 122 444
3 450 37 449
3 453 451 452
3 452 126 453
3 451 123 452
3 453 125 451
3 447 454 452
3 452 123 447
3 454 126 452
3 447 38 454
3 455 446 451
3 451 125 455
3 446 123 451
3 455 39 446
3 457 456 453
3 453 126 457
3 456 125 453
3 457 9 456
3 460 458 459
3 459 128 460
3 458 122 459
3 460 127 458
3 449 461 459
3 459 122 449
3 461 128 459
3 449 37 461
3 462 448 458
3 458 127 462
3 448 122 458
3 462 38 448
3 464 463 460
3 460 128 464
3 463 127 460
3 464 10 463
3 467 465 466
3 466 130 467
3 465 124 466
3 467 129 465
3 445 468 466
3 466 124 445
3 468 130 466
3 445 39 468
3 469 450 465
3 465 129 469
3 450 124 465
3 469 37 450
3 471 470 467
3 467 130 471
3 470 129 467
3 471 3 470
3 474 472 473
3 473 133 474
3 472 132 473
3 474 131 472
3 476 475 473
3 473 132 476
3 475 133 473
3 476 38 475
3 478 477 472
3 472 131 478
3 477 132 472
3 478 41 477
3 480 479 474
3 474 133 480
3 479 131 474
3 480 40 479
3 483 481 482
3 482 134 483
3 481 132 482
3 483 126 481
3 477 484 482
3 482 132 477
3 484 134 482
3 477 41 484
3 454 476 481
3 481 126 454
3 476 132 481
3 454 38 476
3 485 457 483
3 483 134 485
3 457 126 483
3 485 9 457
3 488 486 487
3 487 136 488
3 486 131 487
3 488 135 486
3 479 489 487
3 487 131 479
3 489 136 487
3 479 40 489
3 490 478 486
3 486 135 490
3 478 131 486
3 490 41 478
3 492 491 488
3 488 136 492
3 491 135 488
3 492 2 491
3 495 493 494
3 494 127 495
3 493 133 494
3 495 137 493
3 475 462 494
3 494 133 475
3 462 127 494
3 475 38 462
3 496 480 493
3 493 137 496
3 480 133 493
3 496 40 480
3 463 497 495
3 495 127 463
3 497 137 495
3 463 10 497
3 500 498 499
3 499 140 500
3 498 139 499
3 500 138 498
3 502 501 499
3 499 139 502
3 501 140 499
3 502 33 501
3 504 503 498
3 498 138 504
3 503 139 498
3 504 13 503
3 506 505 500
3 500 140 506
3 505 138 500
3 506 23 505
3 509 507 508
3 508 47 509
3 507 139 508
3 509 110 507
3 503 182 508
3 508 139 503
3 182 47 508
3 503 13 182
3 398 502 507
3 507 110 398
3 502 139 507
3 398 33 502
3 183 401 509
3 509 47 183
3 401 110 509
3 183 8 401
3 512 510 511
3 511 79 512
3 510 138 511
3 512 46 510
3 505 294 511
3 511 138 505
3 294 79 511
3 505 23 294
3 174 504 510
3 510 46 174
3 504 138 510
3 174 13 504
3 295 177 512
3 512 79 295
3 177 46 512
3 295 4 177
3 515 513 514
3 514 111 515
3 513 140 514
3 515 78 513
3 501 406 514
3 514 140 501
3 406 111 514
3 501 33 406
3 286 506 513
3 513 78 286
3 506 140 513
3 286 23 506
3 407 289 515
3 515 111 407
3 289 78 515
3 407 0 289
3 518 516 517
3 517 143 518
3 516 142 517
3 518 141 516
3 520 519 517
3 517 142 520
3 519 143 517
3 520 19 519
3 522 521 516
3 516 141 522
3 521 142 516
3 522 32 521
3 524 523 518
3 518 143 524
3 523 141 518
3 524 26 523
3 527 525 526
3 526 113 527
3 525 142 526
3 527 66 525
3 521 413 526
3 526 142 521
3 413 113 526
3 521 32 413
3 244 520 525
3 525 66 244
3 520 142 525
3 244 19 520
3 414 247 527
3 527 113 414
3 247 66 527
3 414 11 247
3 530 528 529
3 529 86 530
3 528 141 529
3 530 112 528
3 523 316 529
3 529 141 523
3 316 86 529
3 523 26 316
3 405 522 528
3 528 112 405
3 522 141 528
3 405 32 522
3 317 408 530
3 530 86 317
3 408 112 530
3 317 0 408
3 533 531 532
3 532 61 533
3 531 143 532
3 533 89 531
3 519 231 532
3 532 143 519
3 231 61 532
3 519 19 231
3 326 524 531
3 531 89 326
3 524 143 531
3 326 26 524
3 232 329 533
3 533 61 232
3 329 89 533
3 232 5 329
3 536 534 535
3 535 146 536
3 534 145 535
3 536 144 534
3 538 537 535
3 535 145 538
3 537 146 535
3 538 22 537
3 540 539 534
3 534 144 540
3 539 145 534
3 540 16 539
3 542 541 536
3 536 146 542
3 541 144 536
3 542 39 541
3 545 543 544
3 544 54 545
3 543 145 544
3 545 80 543
3 539 204 544
3 544 145 539
3 204 54 544
3 539 16 204
3 293 538 543
3 543 80 293
3 538 145 543
3 293 22 538
3 205 296 545
3 545 54 205
3 296 80 545
3 205 4 296
3 548 546 547
3 547 125 548
3 546 144 547
3 548 57 546
3 541 455 547
3 547 144 541
3 455 125 547
3 541 39 455
3 214 540 546
3 546 57 214
3 540 144 546
3 214 16 540
3 456 217 548
3 548 125 456
3 217 57 548
3 456 9 217
3 551 549 550
3 550 81 551
3 549 146 550
3 551 130 549
3 537 301 550
3 550 146 537
3 301 81 550
3 537 22 301
3 468 542 549
3 549 130 468
3 542 146 549
3 468 39 542
3 302 471 551
3 551 81 302
3 471 130 551
3 302 3 471
3 554 552 553
3 553 149 554
3 552 148 553
3 554 147 552
3 556 555 553
3 553 148 556
3 555 149 553
3 556 21 555
3 558 557 552
3 552 147 558
3 557 148 552
3 558 25 557
3 560 559 554
3 554 149 560
3 559 147 554
3 560 37 559
3 563 561 562
3 562 88 563
3 561 148 562
3 563 70 561
3 557 327 562
3 562 148 557
3 327 88 562
3 557 25 327
3 260 556 561
3 561 70 260
3 556 148 561
3 260 21 556
3 328 261 563
3 563 88 328
3 261 70 563
3 328 5 261
3 566 564 565
3 565 129 566
3 564 147 565
3 566 87 564
3 559 469 565
3 565 147 559
3 469 129 565
3 559 37 469
3 321 558 564
3 564 87 321
3 558 147 564
3 321 25 558
3 470 322 566
3 566 129 470
3 322 87 566
3 470 3 322
3 569 567 568
3 568 71 569
3 567 149 568
3 569 128 567
3 555 266 568
3 568 149 555
3 266 71 568
3 555 21 266
3 461 560 567
3 567 128 461
3 560 149 567
3 461 37 560
3 267 464 569
3 569 71 267
3 464 128 569
3 267 10 464
3 572 570 571
3 571 152 572
3 570 151 571
3 572 150 570
3 574 573 571
3 571 151 574
3 573 152 571
3 574 27 573
3 576 575 570
3 570 150 576
3 575 151 570
3 576 12 575
3 578 577 572
3 572 152 578
3 577 150 572
3 578 36 577
3 581 579 580
3 580 49 581
3 579 151 580
3 581 96 579
3 575 189 580
3 580 151 575
3 189 49 580
3 575 12 189
3 349 574 579
3 579 96 349
3 574 151 579
3 349 27 574
3 190 352 581
3 581 49 190
3 352 96 581
3 190 7 352
3 584 582 583
3 583 118 584
3 582 150 583
3 584 48 582
3 577 428 583
3 583 150 577
3 428 118 583
3 577 36 428
3 181 576 582
3 582 48 181
3 576 150 582
3 181 12 576
3 429 184 584
3 584 118 429
3 184 48 584
3 429 8 184
3 587 585 586
3 586 97 587
3 585 152 586
3 587 121 585
3 573 357 586
3 586 152 573
3 357 97 586
3 573 27 357
3 438 578 585
3 585 121 438
3 578 152 585
3 438 36 578
3 358 441 587
3 587 97 358
3 441 121 587
3 358 1 441
3 590 588 589
3 589 155 590
3 588 154 589
3 590 153 588
3 592 591 589
3 589 154 592
3 591 155 589
3 592 17 591
3 594 593 588
3 588 153 594
3 593 154 588
3 594 30 593
3 596 595 590
3 590 155 596
3 595 153 590
3 596 35 595
3 599 597 598
3 598 104 599
3 597 154 598
3 599 64 597
3 593 383 598
3 598 154 593
3 383 104 598
3 593 30 383
3 237 592 597
3 597 64 237
3 592 154 597
3 237 17 592
3 384 240 599
3 599 104 384
3 240 64 599
3 384 6 240
3 602 600 601
3 601 120 602
3 600 153 601
3 602 103 600
3 595 439 601
3 601 153 595
3 439 120 601
3 595 35 439
3 377 594 600
3 600 103 377
3 594 153 600
3 377 30 594
3 440 378 602
3 602 120 440
3 378 103 602
3 440 1 378
3 605 603 604
3 604 65 605
3 603 155 604
3 605 119 603
3 591 245 604
3 604 155 591
3 245 65 604
3 591 17 245
3 433 596 603
3 603 119 433
3 596 155 603
3 433 35 596
3 246 434 605
3 605 65 246
3 434 119 605
3 246 11 434
3 608 606 607
3 607 158 608
3 606 157 607
3 608 156 606
3 610 609 607
3 607 157 610
3 609 158 607
3 610 15 609
3 612 611 606
3 606 156 612
3 611 157 606
3 612 28 611
3 614 613 608
3 608 158 614
3 613 156 608
3 614 41 613
3 617 615 616
3 616 95 617
3 615 157 616
3 617 55 615
3 611 350 616
3 616 157 611
3 350 95 616
3 611 28 350
3 209 610 615
3 615 55 209
3 610 157 615
3 209 15 610
3 351 210 617
3 617 95 351
3 210 55 617
3 351 7 210
3 620 618 619
3 619 135 620
3 618 156 619
3 620 94 618
3 613 490 619
3 619 156 613
3 490 135 619
3 613 41 490
3 342 612 618
3 618 94 342
3 612 156 618
3 342 28 612
3 491 345 620
3 620 135 491
3 345 94 620
3 491 2 345
3 623 621 622
3 622 56 623
3 621 158 622
3 623 134 621
3 609 215 622
3 622 158 609
3 215 56 622
3 609 15 215
3 484 614 621
3 621 134 484
3 614 158 621
3 484 41 614
3 216 485 623
3 623 56 216
3 485 134 623
3 216 9 485
3 626 624 625
3 625 161 626
3 624 160 625
3 626 159 624
3 628 627 625
3 625 160 628
3 627 161 625
3 628 31 627
3 630 629 624
3 624 159 630
3 629 160 624
3 630 20 629
3 632 631 626
3 626 161 632
3 631 159 626
3 632 40 631
3 635 633 634
3 634 73 635
3 633 160 634
3 635 105 633
3 629 272 634
3 634 160 629
3 272 73 634
3 629 20 272
3 382 628 633
3 633 105 382
3 628 160 633
3 382 31 628
3 273 385 635
3 635 73 273
3 385 105 635
3 273 6 385
3 638 636 637
3 637 137 638
3 636 159 637
3 638 72 636
3 631 496 637
3 637 159 631
3 496 137 637
3 631 40 496
3 265 630 636
3 636 72 265
3 630 159 636
3 265 20 630
3 497 268 638
3 638 137 497
3 268 72 638
3 497 10 268
3 641 639 640
3 640 102 641
3 639 161 640
3 641 136 639
3 627 372 640
3 640 161 627
3 372 102 640
3 627 31 372
3 489 632 639
3 639 136 489
3 632 161 639
3 489 40 632
3 373 492 641
3 641 102 373
3 492 136 641
3 373 2 492
