# vtk DataFile Version 3.0
this file was written using fslvtkio
ASCII
DATASET POLYDATA
POINTS 642 float
145.978 123.74 118.985
115.041 124.388 117.415
119.272 108.078 107.691
140.602 107.425 109.346
139.645 107.626 136.662
137.729 115.903 93.1324
124.609 116.796 90.7305
120.397 108.629 135.662
130.187 123.685 129.658
130.025 101.273 117.204
130.654 102.297 94.7568
130.751 130.361 110.866
123.986 114.604 137.553
135.317 114.316 137.364
129.352 106.775 141.295
125.786 104.745 128.724
134.106 104.11 129.324
127.875 122.809 101.283
131.241 113.822 85.8756
135.119 124.01 102.125
126.544 109.216 87.317
136.369 107.305 86.914
139.794 109.161 123.802
143.953 116.714 131.271
140.743 118.712 115.848
139.754 111.611 100.097
142.418 122.62 107.503
115.944 117.611 130.53
120.661 109.988 122.601
120.38 118.639 113.604
121.273 122.363 105.932
121.67 111.993 96.8232
139.775 131.325 115.637
140.136 126.337 128.94
130.023 132.247 122.98
121.74 130.786 114.72
120.691 126.103 128.569
136.873 103.982 101.257
129.726 101.079 109.361
136.205 101.369 112.175
124.236 105.001 99.8826
124.182 102.513 112.573
129.7 114.617 136.921
133.422 111.291 143.514
125.336 111.139 143.748
136.226 105.273 141.666
140.144 111.574 140.944
132.946 118.212 131.012
127.262 118.165 131.001
118.926 112.523 140.157
123.339 105.879 140.451
126.765 103.41 135.841
132.515 103.14 136.44
129.934 104.803 129.737
137.067 103.925 133.53
122.462 104.782 132.93
127.866 102.783 122.729
132.375 103.095 122.997
129.887 117.861 92.4663
133.312 117.359 93.4995
131.498 122.213 101.273
135.789 118.909 96.6323
134.333 114.994 88.3184
128.204 115.421 86.6419
127.08 119.18 93.7362
128.833 128.007 105.845
133.57 128.507 106.019
130.797 109.007 87.9408
133.548 110.608 84.8401
128.77 111.326 84.4564
136.962 111.966 87.7457
133.876 103.998 90.1361
128.564 104.306 89.9291
124.999 112.987 85.6991
141.945 113.472 127.998
142.78 117.606 122.462
140.029 113.264 119.921
146.077 120.18 116.521
144.868 120.288 124.452
143.518 112.15 135.939
139.778 108.784 130.649
140.004 108.605 116.232
139.499 112.973 112.186
139.353 115.714 108.525
143.056 120.314 111.753
137.856 117.556 104.982
145.549 123.853 112.899
140.422 109.612 104.552
139.029 113.618 95.7277
137.85 118.902 101.311
118.847 114.217 127.211
120.057 113.692 118.574
118.105 117.943 121.616
120.678 113.145 110.912
120.59 109.383 115.028
121.132 109.631 129.487
117.668 113.167 134.313
116.216 121.079 123.05
116.061 120.995 115.45
120.652 120.649 110.268
122.023 114.907 105.027
122.781 117.268 100.979
120.166 110.339 102.478
116.218 124.517 111.059
123.508 119.4 97.4727
122.284 114.454 92.4119
141.003 131.133 123.467
135.861 130.687 127.007
135.508 133.283 120.103
129.916 129.187 127.706
135.211 125.152 130.514
143.929 126.122 124.448
143.645 128.264 117.569
135.139 131.988 112.886
130.123 132.686 116.653
125.072 133.308 119.559
124.582 131.271 126.788
120.264 130.771 122.52
125.284 125.5 130.041
126.315 131.683 112.286
117.852 128.2 116.242
116.837 126.565 123.79
134.007 100.122 105.536
135.323 93.3409 108.941
139.663 97.7412 106.656
133.71 99.8455 115.032
129.58 96.6544 112.089
130.108 102.839 102.9
134.283 103.317 97.2477
140.5 103.977 104.616
139.266 103.506 111.468
122.829 101.181 107.372
123.993 94.0606 109.074
126.459 101.359 105.713
126.238 100.43 115.287
120.338 104.678 110.903
120.117 105.167 102.989
127.043 103.814 96.1576
139.885 114.676 134.823
137.196 118.818 129.664
142.557 121.152 128.807
141.466 127.093 111.044
137.902 129.051 108.431
138.887 124.089 104.356
135.826 102.644 120.1
137.441 105.93 126.584
138.605 104.832 118.192
140.039 106.732 99.3419
138.674 109.213 92.5875
137.721 104.846 93.0917
122.999 119.063 129.784
119.535 115.818 134.732
117.983 121.849 128.664
120.431 127.198 109.572
124.515 122.982 103.04
124.519 128.675 107.35
121.79 105.708 117.686
122.721 106.72 125.569
124.37 103.258 120.388
124.31 105.057 91.4357
122.655 109.899 89.9069
121.689 107.589 97.2828
130.979 112.999 140.544
129.445 111.567 142.88
127.872 112.773 140.602
127.403 108.849 143.48
131.251 108.799 143.014
134.271 112.65 140.458
132.514 114.447 137.219
126.824 114.648 137.318
124.691 112.801 140.859
135.086 108.278 143.907
136.76 111.301 142.813
138.24 108.609 143.022
137.515 112.931 140.001
133.088 106.264 142.353
138.177 106.385 139.622
140.419 109 140.141
131.381 115.891 133.632
128.421 116.017 133.643
130.136 118.188 130.83
125.76 116.029 134.143
134.014 115.724 133.909
131.584 120.801 129.869
128.632 120.824 129.77
122.086 111.271 142.89
123.908 108.042 143.479
121.024 109.059 142.292
126.168 106.034 142.002
121.671 113.39 140.306
119.481 109.777 139.319
121.491 107.498 139.009
129.583 103.953 136.233
131.185 102.768 132.818
128.354 102.626 132.725
132.146 104.242 129.925
133.49 102.134 133.142
131.254 104.82 139.821
127.812 104.368 139.433
125.862 102.821 132.207
127.663 104.596 129.4
134.99 102.969 135.332
133.957 104.079 139.15
136.549 104.451 137.829
135.703 103.121 131.387
138.26 105.713 135.416
125.263 104.412 138.672
124.397 103.675 134.93
123.089 105.693 136.828
124.039 103.914 130.948
121.59 106.903 134.629
128.678 104.329 126.562
131.361 104.875 126.8
130.085 103.391 123.536
133.235 104.46 126.215
126.971 104.495 125.777
129.069 102.457 120.147
131.247 102.581 120.244
131.6 117.485 93.0932
132.675 119.214 97.7989
130.241 119.017 97.5049
132.818 123.247 101.723
133.58 120.149 100.078
132.126 115.764 89.6371
130.954 115.965 89.2379
129.122 119.769 98.1828
129.918 122.544 101.069
134.404 118.746 94.7689
133.786 116.09 89.9515
135.33 116.972 91.9074
132.363 114.671 86.6698
135.132 120.17 100.229
136.746 117.597 94.6678
136.107 115.401 90.9221
129.506 116.233 88.4918
128.747 118.483 92.5975
127.876 117.253 89.6348
127.714 120.059 97.4894
130.264 114.634 86.2775
126.255 116.277 88.9812
125.814 118.565 92.377
130.259 125.248 103.341
132.187 125.748 103.648
131.102 127.279 106.099
134.621 126.608 103.905
128.076 125.823 103.565
129.85 129.358 108.539
132.244 129.571 108.599
131.991 109.605 86.5566
131.037 110.629 84.5669
129.771 109.831 86.3944
130.369 112.672 83.9979
132.135 112.448 84.3345
134.932 109.313 85.7673
133.267 108.72 87.4925
128.544 109.107 87.9487
127.529 110.687 86.4029
133.406 113.129 85.3264
135.451 112.015 85.4657
135.379 113.812 87.4759
137.085 109.826 87.0342
137.433 113.694 90.2684
132.37 106.46 88.3007
129.884 106.751 88.3122
131.116 104.038 89.1125
127.708 106.874 88.7011
134.76 105.712 88.3106
132.371 102.443 91.7382
129.726 102.478 91.6151
126.981 112.989 84.1877
129.019 113.804 84.3055
126.53 114.916 85.6527
125.2 110.952 85.7585
124.364 114.759 87.8656
141.96 115.508 125.086
140.971 115.963 121.356
140.811 113.66 123.732
140.123 116.073 117.996
141.55 118.002 118.943
143.432 116.848 126.678
143.691 114.875 129.579
140.794 111.638 126.144
140.554 110.95 122.366
144.036 119.26 119.316
144.178 118.808 123.456
145.712 120.166 120.304
144.059 118.443 128.033
143.194 119.587 116.538
146.954 121.618 117.72
146.325 121.902 121.727
142.743 112.821 131.719
140.895 111.247 129.698
141.133 110.946 133.543
139.812 109.287 127.185
144.417 114.265 133.249
141.75 109.696 137.143
140.098 108.275 133.773
140.395 110.89 118.334
139.831 113.524 115.984
140.236 110.749 114.498
139.608 116.126 114.326
139.838 108.91 119.963
140.16 108.302 112.677
139.963 110.344 110.751
140.137 119.276 110.768
140.214 119.712 109.015
138.827 116.509 106.519
140.573 120.112 106.745
143.112 121.119 109.19
141.649 120.035 113.948
140.002 117.812 112.368
139.092 113.622 104.441
138.271 114.368 102.382
146.12 121.585 111.395
145.469 120.145 113.8
147.785 121.944 114.396
144.552 123.323 110.174
146.177 123.824 115.703
139.067 114.523 110.342
139.673 112.267 105.871
140.12 111.151 108.109
139.82 110.873 102.436
140.661 108.458 107.003
138.437 115.218 100.268
138.238 118.629 103.179
139.33 116.728 98.3416
140.379 121.061 104.722
139.162 112.554 98.0677
138.799 115.134 94.4771
138.482 117.673 97.1149
119.832 114.095 122.583
119.517 116.423 119.759
118.557 115.716 123.918
119.158 118.625 117.546
120.116 116.281 116.087
120.269 111.602 121.154
120.259 112.484 125.506
117.119 115.753 128.473
117.209 117.548 125.757
120.451 113.883 114.575
120.6 111.755 116.967
120.432 111.296 113.101
120.883 109.833 118.571
121.011 115.933 112.414
120.456 110.665 109.216
119.838 108.84 111.291
120.119 112.094 129.162
118.152 113.823 130.675
119.586 111.678 132.67
115.925 115.144 132.458
120.656 110.194 126.141
120.609 109.27 132.64
118.87 110.805 136.099
117.169 119.474 122.381
117.594 119.615 118.333
115.625 121.033 119.167
118.967 119.862 115.222
117.055 119.178 126.349
115.25 122.584 120.306
114.628 122.639 116.361
122.486 118.404 107.839
123.217 116.278 103.615
123.166 119.181 106.299
122.333 114.686 98.8024
122.201 113.418 101.016
121.719 117.171 109.6
120.585 119.846 111.699
120.89 121.46 107.906
122.9 119.999 104.112
121.073 112.633 103.783
121.267 114.249 108.436
120.343 111.622 106.534
120.908 111.178 99.8119
119.285 109.202 105.25
118.186 120.746 112.852
117.836 122.447 110.423
115.177 122.75 112.979
118.837 123.871 108.865
115.054 124.57 114.011
122.734 118.485 99.121
121.579 116.193 96.479
122.225 117.301 94.6067
121.964 113.439 94.9709
123.731 120.329 102.362
123.636 118.596 93.895
122.902 115.858 91.1663
138.564 131.294 125.384
135.886 132.19 123.642
138.442 132.675 121.737
133.004 132.525 122.165
133.231 131.435 125.292
138.06 129.052 128.182
140.615 129.746 127.054
140.201 131.365 119.786
137.933 132.469 118.353
132.98 129.731 127.763
135.44 128.387 129.451
132.794 127.41 129.547
137.685 126.045 129.929
130.003 130.882 125.612
129.901 126.921 129.353
132.52 124.398 130.185
142.527 128.911 124.456
142.419 129.629 120.775
143.899 127.466 121.358
141.731 129.976 117.104
142.289 126.897 127.092
145.575 125.113 121.518
144.994 126.174 117.897
135.393 132.727 116.685
132.79 132.767 118.749
132.765 131.905 115.233
130.194 132.956 119.91
137.456 131.768 114.361
132.903 131.433 111.626
130.494 131.691 113.515
124.739 132.493 123.273
122.13 131.834 124.75
122.515 132.631 121.054
120.485 129.479 125.991
122.417 129.22 127.472
127.109 131.843 125.228
127.331 132.847 121.97
123.019 132.077 117.48
120.836 131.133 118.919
124.693 128.646 128.878
127.189 130.419 127.922
127.351 127.796 129.661
122.783 126.136 129.268
127.802 124.431 130.095
127.699 133.606 118.565
125.441 132.358 116.119
128.003 132.416 114.997
123.846 131.883 113.446
128.604 131.29 111.44
118.799 129.54 119.808
118.379 128.921 123.583
117.088 127.737 120.304
118.798 126.999 126.604
119.627 129.881 115.854
116.236 126.388 116.501
115.834 125.426 120.291
134.582 95.2706 105.824
139.173 93.1567 106.536
136.596 98.5439 106.185
139.011 96.7332 109.161
137.945 94.7896 109.725
133.294 97.162 108.518
132.851 99.8232 107.597
135.499 101.481 103.671
137.654 100.911 105
135.437 96.2561 111.747
132.821 96.3056 110.959
132.696 97.3291 113.823
129.952 99.2421 110.333
135.447 99.7126 113.067
131.714 100.405 116.34
129.75 97.6111 114.855
132.101 102.151 104.852
133.488 101.886 102.228
132.177 102.782 100.437
135.236 103.516 99.8484
130.068 102.479 107.342
130.308 102.815 98.3556
132.765 102.574 95.4936
138.939 101.465 106.623
138.53 100.549 108.962
139.646 103.014 108.369
137.243 102.096 111.439
138.631 103.085 103.179
140.936 105.293 106.743
140.581 105.415 110.377
122.024 97.2801 107.485
124.961 96.9655 106.518
124.84 101.433 106.334
127.166 101.007 108.032
126.804 97.615 108.735
122.845 97.1931 110.102
122.628 100.328 109.891
123.865 103.549 104.603
125.335 103.613 102.845
127.023 96.3831 110.535
124.581 96.9721 111.732
127.143 97.6391 113.798
124.93 101.066 113.523
128.256 100.515 116.698
122.787 103.427 108.893
122.161 103.971 105.77
120.318 104.497 107.249
122.787 104.983 102.322
122.656 103.637 111.782
119.29 106.41 109.354
119.032 105.932 105.212
126.924 103.327 101.457
128.073 102.326 104.86
128.31 103.137 99.8173
125.775 104.473 98.2852
128.497 102.737 95.2303
138.329 116.917 132.242
139.607 119.784 129.41
140.554 117.701 131.331
141.693 123.771 128.437
138.909 122.878 129.44
136.057 116.046 132.905
137.67 114.29 136.247
142.076 115.894 133.267
143.049 118.645 130.013
136.519 122.424 129.699
135.024 118.397 129.913
133.861 121.791 130.318
140.106 113.804 138.096
143.428 114.214 135.865
142.643 111.931 138.874
144.271 120.935 126.688
144.059 124.083 126.735
145.307 123.347 123.868
139.815 128.387 109.719
138.599 126.61 106.174
140.612 125.938 107.653
136.776 123.987 103.008
136.757 126.965 104.852
138.958 130.551 112.065
140.945 129.459 113.417
142.167 124.727 109.058
140.749 123.502 105.718
135.814 128.936 107.045
136.76 130.786 110.685
134.513 130.551 109.254
142.657 128.133 114.328
143.313 125.652 111.941
144.316 126.159 114.872
138.646 121.286 103.17
136.641 120.9 101.645
136.881 118.807 98.981
136.194 104.731 123.661
137.915 105.559 122.374
137.236 103.697 119.452
138.796 107.181 121.181
138.904 107.287 125.192
135.832 104.793 127.729
134.72 104.358 125.064
135.971 102.348 115.719
138.005 102.627 115.25
138.392 107.097 128.732
137.194 104.793 130.381
138.654 106.328 132.347
134.255 102.3 122.007
134.523 101.994 117.23
132.927 102.171 118.906
139.267 103.86 114.576
139.379 106.647 117.38
140.172 105.969 113.702
139.041 107.821 95.6271
138.384 106.912 91.7076
138.824 105.9 95.9991
137.201 105.944 89.4556
137.824 108.303 89.0599
139.317 110.151 96.4347
140.095 109.046 99.2066
138.837 104.852 99.9627
137.334 104.395 97.6753
137.847 110.614 89.7019
138.797 111.246 93.7578
138.137 112.85 91.8408
141.143 108.06 101.679
141.16 104.543 101.85
141.167 106.672 104.371
136.412 103.437 94.9535
136.206 104.226 90.4087
134.472 102.934 93.1707
121.539 117.414 132.516
119.085 118.687 131.351
120.786 120.284 129.525
116.878 119.543 129.269
117.19 116.971 133.173
121.45 114.705 136.56
123.596 116.425 133.563
121.822 122.843 129.145
118.918 124.239 128.361
116.441 115.354 135.188
119.114 114.749 138.145
117.097 112.344 137.623
125.135 118.597 130.417
123.997 122.623 129.402
126.485 121.974 129.536
117.163 124.325 125.997
116.633 121.592 126.024
116.114 123.611 122.9
122.196 125.491 106.245
124.308 125.76 104.919
122.675 127.815 108.411
126.186 126.455 104.19
126.363 122.963 102.025
122.822 122.734 104.26
120.287 124.695 107.359
121.085 129.136 111.958
123.287 129.993 110.929
126.259 120.701 98.8033
124.683 120.811 100.475
125.351 119.532 96.0645
118.269 125.87 110.071
119.227 128.047 112.943
116.704 126.594 113.146
125.38 130.238 109.843
126.721 128.581 106.249
127.651 130.031 108.875
122.568 106.544 121.787
123.826 105.102 123.261
122.712 104.298 119.277
125.384 104.601 124.689
124.271 105.474 127.021
121.301 108.2 124.236
121.212 107.849 120.329
122.403 103.713 115.189
123.856 102.905 116.28
123.075 105.702 129.5
121.864 107.72 127.679
121.713 107.101 131.335
120.835 107.473 116.643
120.918 104.849 114.166
119.954 106.824 112.904
125.493 102.604 117.568
126.059 102.728 121.808
127.225 102.309 118.833
123.058 107.33 90.2448
122.297 108.449 93.4859
122.764 106.318 94.0125
121.444 109.729 96.5319
121.995 110.746 93.2698
124.205 109.246 87.6718
125.07 106.878 88.5831
124.077 104.758 95.4168
123.002 105.948 98.3755
122.384 112.038 91.3193
123.823 111.317 87.4442
123.286 113.499 88.7505
126.387 105.31 89.2332
125.449 103.856 93.3517
127.621 103.475 92.2726
121.19 106.271 100.176
120.361 108.983 99.7696
119.353 107.577 102.734
POLYGONS 1280  5120
3 164 162 163
3 163 44 164
3 162 43 163
3 164 42 162
3 166 165 163
3 163 43 166
3 165 44 163
3 166 14 165
3 168 167 162
3 162 42 168
3 167 43 162
3 168 13 167
3 170 169 164
3 164 44 170
3 169 42 164
3 170 12 169
3 173 171 172
3 172 46 173
3 171 43 172
3 173 45 171
3 167 174 172
3 172 43 167
3 174 46 172
3 167 13 174
3 175 166 171
3 171 45 175
3 166 43 171
3 175 14 166
3 177 176 173
3 173 46 177
3 176 45 173
3 177 4 176
3 180 178 179
3 179 48 180
3 178 42 179
3 180 47 178
3 169 181 179
3 179 42 169
3 181 48 179
3 169 12 181
3 182 168 178
3 178 47 182
3 168 42 178
3 182 13 168
3 184 183 180
3 180 48 184
3 183 47 180
3 184 8 183
3 187 185 186
3 186 50 187
3 185 44 186
3 187 49 185
3 165 188 186
3 186 44 165
3 188 50 186
3 165 14 188
3 189 170 185
3 185 49 189
3 170 44 185
3 189 12 170
3 191 190 187
3 187 50 191
3 190 49 187
3 191 7 190
3 194 192 193
3 193 53 194
3 192 52 193
3 194 51 192
3 196 195 193
3 193 52 196
3 195 53 193
3 196 16 195
3 198 197 192
3 192 51 198
3 197 52 192
3 198 14 197
3 200 199 194
3 194 53 200
3 199 51 194
3 200 15 199
3 203 201 202
3 202 45 203
3 201 52 202
3 203 54 201
3 197 175 202
3 202 52 197
3 175 45 202
3 197 14 175
3 204 196 201
3 201 54 204
3 196 52 201
3 204 16 196
3 176 205 203
3 203 45 176
3 205 54 203
3 176 4 205
3 208 206 207
3 207 55 208
3 206 51 207
3 208 50 206
3 199 209 207
3 207 51 199
3 209 55 207
3 199 15 209
3 188 198 206
3 206 50 188
3 198 51 206
3 188 14 198
3 210 191 208
3 208 55 210
3 191 50 208
3 210 7 191
3 213 211 212
3 212 57 213
3 211 53 212
3 213 56 211
3 195 214 212
3 212 53 195
3 214 57 212
3 195 16 214
3 215 200 211
3 211 56 215
3 200 53 211
3 215 15 200
3 217 216 213
3 213 57 217
3 216 56 213
3 217 9 216
3 220 218 219
3 219 60 220
3 218 59 219
3 220 58 218
3 222 221 219
3 219 59 222
3 221 60 219
3 222 19 221
3 224 223 218
3 218 58 224
3 223 59 218
3 224 18 223
3 226 225 220
3 220 60 226
3 225 58 220
3 226 17 225
3 229 227 228
3 228 62 229
3 227 59 228
3 229 61 227
3 223 230 228
3 228 59 223
3 230 62 228
3 223 18 230
3 231 222 227
3 227 61 231
3 222 59 227
3 231 19 222
3 233 232 229
3 229 62 233
3 232 61 229
3 233 5 232
3 236 234 235
3 235 64 236
3 234 58 235
3 236 63 234
3 225 237 235
3 235 58 225
3 237 64 235
3 225 17 237
3 238 224 234
3 234 63 238
3 224 58 234
3 238 18 224
3 240 239 236
3 236 64 240
3 239 63 236
3 240 6 239
3 243 241 242
3 242 66 243
3 241 60 242
3 243 65 241
3 221 244 242
3 242 60 221
3 244 66 242
3 221 19 244
3 245 226 241
3 241 65 245
3 226 60 241
3 245 17 226
3 247 246 243
3 243 66 247
3 246 65 243
3 247 11 246
3 250 248 249
3 249 69 250
3 248 68 249
3 250 67 248
3 252 251 249
3 249 68 252
3 251 69 249
3 252 18 251
3 254 253 248
3 248 67 254
3 253 68 248
3 254 21 253
3 256 255 250
3 250 69 256
3 255 67 250
3 256 20 255
3 259 257 258
3 258 70 259
3 257 68 258
3 259 62 257
3 253 260 258
3 258 68 253
3 260 70 258
3 253 21 260
3 230 252 257
3 257 62 230
3 252 68 257
3 230 18 252
3 261 233 259
3 259 70 261
3 233 62 259
3 261 5 233
3 264 262 263
3 263 72 264
3 262 67 263
3 264 71 262
3 255 265 263
3 263 67 255
3 265 72 263
3 255 20 265
3 266 254 262
3 262 71 266
3 254 67 262
3 266 21 254
3 268 267 264
3 264 72 268
3 267 71 264
3 268 10 267
3 271 269 270
3 270 63 271
3 269 69 270
3 271 73 269
3 251 238 270
3 270 69 251
3 238 63 270
3 251 18 238
3 272 256 269
3 269 73 272
3 256 69 269
3 272 20 256
3 239 273 271
3 271 63 239
3 273 73 271
3 239 6 273
3 276 274 275
3 275 76 276
3 274 75 275
3 276 74 274
3 278 277 275
3 275 75 278
3 277 76 275
3 278 24 277
3 280 279 274
3 274 74 280
3 279 75 274
3 280 23 279
3 282 281 276
3 276 76 282
3 281 74 276
3 282 22 281
3 285 283 284
3 284 78 285
3 283 75 284
3 285 77 283
3 279 286 284
3 284 75 279
3 286 78 284
3 279 23 286
3 287 278 283
3 283 77 287
3 278 75 283
3 287 24 278
3 289 288 285
3 285 78 289
3 288 77 285
3 289 0 288
3 292 290 291
3 291 80 292
3 290 74 291
3 292 79 290
3 281 293 291
3 291 74 281
3 293 80 291
3 281 22 293
3 294 280 290
3 290 79 294
3 280 74 290
3 294 23 280
3 296 295 292
3 292 80 296
3 295 79 292
3 296 4 295
3 299 297 298
3 298 82 299
3 297 76 298
3 299 81 297
3 277 300 298
3 298 76 277
3 300 82 298
3 277 24 300
3 301 282 297
3 297 81 301
3 282 76 297
3 301 22 282
3 303 302 299
3 299 82 303
3 302 81 299
3 303 3 302
3 306 304 305
3 305 85 306
3 304 84 305
3 306 83 304
3 308 307 305
3 305 84 308
3 307 85 305
3 308 26 307
3 310 309 304
3 304 83 310
3 309 84 304
3 310 24 309
3 312 311 306
3 306 85 312
3 311 83 306
3 312 25 311
3 315 313 314
3 314 77 315
3 313 84 314
3 315 86 313
3 309 287 314
3 314 84 309
3 287 77 314
3 309 24 287
3 316 308 313
3 313 86 316
3 308 84 313
3 316 26 308
3 288 317 315
3 315 77 288
3 317 86 315
3 288 0 317
3 320 318 319
3 319 87 320
3 318 83 319
3 320 82 318
3 311 321 319
3 319 83 311
3 321 87 319
3 311 25 321
3 300 310 318
3 318 82 300
3 310 83 318
3 300 24 310
3 322 303 320
3 320 87 322
3 303 82 320
3 322 3 303
3 325 323 324
3 324 89 325
3 323 85 324
3 325 88 323
3 307 326 324
3 324 85 307
3 326 89 324
3 307 26 326
3 327 312 323
3 323 88 327
3 312 85 323
3 327 25 312
3 329 328 325
3 325 89 329
3 328 88 325
3 329 5 328
3 332 330 331
3 331 92 332
3 330 91 331
3 332 90 330
3 334 333 331
3 331 91 334
3 333 92 331
3 334 29 333
3 336 335 330
3 330 90 336
3 335 91 330
3 336 28 335
3 338 337 332
3 332 92 338
3 337 90 332
3 338 27 337
3 341 339 340
3 340 94 341
3 339 91 340
3 341 93 339
3 335 342 340
3 340 91 335
3 342 94 340
3 335 28 342
3 343 334 339
3 339 93 343
3 334 91 339
3 343 29 334
3 345 344 341
3 341 94 345
3 344 93 341
3 345 2 344
3 348 346 347
3 347 96 348
3 346 90 347
3 348 95 346
3 337 349 347
3 347 90 337
3 349 96 347
3 337 27 349
3 350 336 346
3 346 95 350
3 336 90 346
3 350 28 336
3 352 351 348
3 348 96 352
3 351 95 348
3 352 7 351
3 355 353 354
3 354 98 355
3 353 92 354
3 355 97 353
3 333 356 354
3 354 92 333
3 356 98 354
3 333 29 356
3 357 338 353
3 353 97 357
3 338 92 353
3 357 27 338
3 359 358 355
3 355 98 359
3 358 97 355
3 359 1 358
3 362 360 361
3 361 101 362
3 360 100 361
3 362 99 360
3 364 363 361
3 361 100 364
3 363 101 361
3 364 31 363
3 366 365 360
3 360 99 366
3 365 100 360
3 366 29 365
3 368 367 362
3 362 101 368
3 367 99 362
3 368 30 367
3 371 369 370
3 370 93 371
3 369 100 370
3 371 102 369
3 365 343 370
3 370 100 365
3 343 93 370
3 365 29 343
3 372 364 369
3 369 102 372
3 364 100 369
3 372 31 364
3 344 373 371
3 371 93 344
3 373 102 371
3 344 2 373
3 376 374 375
3 375 103 376
3 374 99 375
3 376 98 374
3 367 377 375
3 375 99 367
3 377 103 375
3 367 30 377
3 356 366 374
3 374 98 356
3 366 99 374
3 356 29 366
3 378 359 376
3 376 103 378
3 359 98 376
3 378 1 359
3 381 379 380
3 380 105 381
3 379 101 380
3 381 104 379
3 363 382 380
3 380 101 363
3 382 105 380
3 363 31 382
3 383 368 379
3 379 104 383
3 368 101 379
3 383 30 368
3 385 384 381
3 381 105 385
3 384 104 381
3 385 6 384
3 388 386 387
3 387 108 388
3 386 107 387
3 388 106 386
3 390 389 387
3 387 107 390
3 389 108 387
3 390 34 389
3 392 391 386
3 386 106 392
3 391 107 386
3 392 33 391
3 394 393 388
3 388 108 394
3 393 106 388
3 394 32 393
3 397 395 396
3 396 110 397
3 395 107 396
3 397 109 395
3 391 398 396
3 396 107 391
3 398 110 396
3 391 33 398
3 399 390 395
3 395 109 399
3 390 107 395
3 399 34 390
3 401 400 397
3 397 110 401
3 400 109 397
3 401 8 400
3 404 402 403
3 403 112 404
3 402 106 403
3 404 111 402
3 393 405 403
3 403 106 393
3 405 112 403
3 393 32 405
3 406 392 402
3 402 111 406
3 392 106 402
3 406 33 392
3 408 407 404
3 404 112 408
3 407 111 404
3 408 0 407
3 411 409 410
3 410 114 411
3 409 108 410
3 411 113 409
3 389 412 410
3 410 108 389
3 412 114 410
3 389 34 412
3 413 394 409
3 409 113 413
3 394 108 409
3 413 32 394
3 415 414 411
3 411 114 415
3 414 113 411
3 415 11 414
3 418 416 417
3 417 117 418
3 416 116 417
3 418 115 416
3 420 419 417
3 417 116 420
3 419 117 417
3 420 36 419
3 422 421 416
3 416 115 422
3 421 116 416
3 422 34 421
3 424 423 418
3 418 117 424
3 423 115 418
3 424 35 423
3 427 425 426
3 426 109 427
3 425 116 426
3 427 118 425
3 421 399 426
3 426 116 421
3 399 109 426
3 421 34 399
3 428 420 425
3 425 118 428
3 420 116 425
3 428 36 420
3 400 429 427
3 427 109 400
3 429 118 427
3 400 8 429
3 432 430 431
3 431 119 432
3 430 115 431
3 432 114 430
3 423 433 431
3 431 115 423
3 433 119 431
3 423 35 433
3 412 422 430
3 430 114 412
3 422 115 430
3 412 34 422
3 434 415 432
3 432 119 434
3 415 114 432
3 434 11 415
3 437 435 436
3 436 121 437
3 435 117 436
3 437 120 435
3 419 438 436
3 436 117 419
3 438 121 436
3 419 36 438
3 439 424 435
3 435 120 439
3 424 117 435
3 439 35 424
3 441 440 437
3 437 121 441
3 440 120 437
3 441 1 440
3 444 442 443
3 443 124 444
3 442 123 443
3 444 122 442
3 446 445 443
3 443 123 446
3 445 124 443
3 446 39 445
3 448 447 442
3 442 122 448
3 447 123 442
3 448 38 447
3 450 449 444
3 444 124 450
3 449 122 444
3 450 37 449
3 453 451 452
3 452 126 453
3 451 123 452
3 453 125 451
3 447 454 452
3 452 123 447
3 454 126 452
3 447 38 454
3 455 446 451
3 451 125 455
3 446 123 451
3 455 39 446
3 457 456 453
3 453 126 457
3 456 125 453
3 457 9 456
3 460 458 459
3 459 128 460
3 458 122 459
3 460 127 458
3 449 461 459
3 459 122 449
3 461 128 459
3 449 37 461
3 462 448 458
3 458 127 462
3 448 122 458
3 462 38 448
3 464 463 460
3 460 128 464
3 463 127 460
3 464 10 463
3 467 465 466
3 466 130 467
3 465 124 466
3 467 129 465
3 445 468 466
3 466 124 445
3 468 130 466
3 445 39 468
3 469 450 465
3 465 129 469
3 450 124 465
3 469 37 450
3 471 470 467
3 467 130 471
3 470 129 467
3 471 3 470
3 474 472 473
3 473 133 474
3 472 132 473
3 474 131 472
3 476 475 473
3 473 132 476
3 475 133 473
3 476 38 475
3 478 477 472
3 472 131 478
3 477 132 472
3 478 41 477
3 480 479 474
3 474 133 480
3 479 131 474
3 480 40 479
3 483 481 482
3 482 134 483
3 481 132 482
3 483 126 481
3 477 484 482
3 482 132 477
3 484 134 482
3 477 41 484
3 454 476 481
3 481 126 454
3 476 132 481
3 454 38 476
3 485 457 483
3 483 134 485
3 457 126 483
3 485 9 457
3 488 486 487
3 487 136 488
3 486 131 487
3 488 135 486
3 479 489 487
3 487 131 479
3 489 136 487
3 479 40 489
3 490 478 486
3 486 135 490
3 478 131 486
3 490 41 478
3 492 491 488
3 488 136 492
3 491 135 488
3 492 2 491
3 495 493 494
3 494 127 495
3 493 133 494
3 495 137 493
3 475 462 494
3 494 133 475
3 462 127 494
3 475 38 462
3 496 480 493
3 493 137 496
3 480 133 493
3 496 40 480
3 463 497 495
3 495 127 463
3 497 137 495
3 463 10 497
3 500 498 499
3 499 140 500
3 498 139 499
3 500 138 498
3 502 501 499
3 499 139 502
3 501 140 499
3 502 33 501
3 504 503 498
3 498 138 504
3 503 139 498
3 504 13 503
3 506 505 500
3 500 140 506
3 505 138 500
3 506 23 505
3 509 507 508
3 508 47 509
3 507 139 508
3 509 110 507
3 503 182 508
3 508 139 503
3 182 47 508
3 503 13 182
3 398 502 507
3 507 110 398
3 502 139 507
3 398 33 502
3 183 401 509
3 509 47 183
3 401 110 509
3 183 8 401
3 512 510 511
3 511 79 512
3 510 138 511
3 512 46 510
3 505 294 511
3 511 138 505
3 294 79 511
3 505 23 294
3 174 504 510
3 510 46 174
3 504 138 510
3 174 13 504
3 295 177 512
3 512 79 295
3 177 46 512
3 295 4 177
3 515 513 514
3 514 111 515
3 513 140 514
3 515 78 513
3 501 406 514
3 514 140 501
3 406 111 514
3 501 33 406
3 286 506 513
3 513 78 286
3 506 140 513
3 286 23 506
3 407 289 515
3 515 111 407
3 289 78 515
3 407 0 289
3 518 516 517
3 517 143 518
3 516 142 517
3 518 141 516
3 520 519 517
3 517 142 520
3 519 143 517
3 520 19 519
3 522 521 516
3 516 141 522
3 521 142 516
3 522 32 521
3 524 523 518
3 518 143 524
3 523 141 518
3 524 26 523
3 527 525 526
3 526 113 527
3 525 142 526
3 527 66 525
3 521 413 526
3 526 142 521
3 413 113 526
3 521 32 413
3 244 520 525
3 525 66 244
3 520 142 525
3 244 19 520
3 414 247 527
3 527 113 414
3 247 66 527
3 414 11 247
3 530 528 529
3 529 86 530
3 528 141 529
3 530 112 528
3 523 316 529
3 529 141 523
3 316 86 529
3 523 26 316
3 405 522 528
3 528 112 405
3 522 141 528
3 405 32 522
3 317 408 530
3 530 86 317
3 408 112 530
3 317 0 408
3 533 531 532
3 532 61 533
3 531 143 532
3 533 89 531
3 519 231 532
3 532 143 519
3 231 61 532
3 519 19 231
3 326 524 531
3 531 89 326
3 524 143 531
3 326 26 524
3 232 329 533
3 533 61 232
3 329 89 533
3 232 5 329
3 536 534 535
3 535 146 536
3 534 145 535
3 536 144 534
3 538 537 535
3 535 145 538
3 537 146 535
3 538 22 537
3 540 539 534
3 534 144 540
3 539 145 534
3 540 16 539
3 542 541 536
3 536 146 542
3 541 144 536
3 542 39 541
3 545 543 544
3 544 54 545
3 543 145 544
3 545 80 543
3 539 204 544
3 544 145 539
3 204 54 544
3 539 16 204
3 293 538 543
3 543 80 293
3 538 145 543
3 293 22 538
3 205 296 545
3 545 54 205
3 296 80 545
3 205 4 296
3 548 546 547
3 547 125 548
3 546 144 547
3 548 57 546
3 541 455 547
3 547 144 541
3 455 125 547
3 541 39 455
3 214 540 546
3 546 57 214
3 540 144 546
3 214 16 540
3 456 217 548
3 548 125 456
3 217 57 548
3 456 9 217
3 551 549 550
3 550 81 551
3 549 146 550
3 551 130 549
3 537 301 550
3 550 146 537
3 301 81 550
3 537 22 301
3 468 542 549
3 549 130 468
3 542 146 549
3 468 39 542
3 302 471 551
3 551 81 302
3 471 130 551
3 302 3 471
3 554 552 553
3 553 149 554
3 552 148 553
3 554 147 552
3 556 555 553
3 553 148 556
3 555 149 553
3 556 21 555
3 558 557 552
3 552 147 558
3 557 148 552
3 558 25 557
3 560 559 554
3 554 149 560
3 559 147 554
3 560 37 559
3 563 561 562
3 562 88 563
3 561 148 562
3 563 70 561
3 557 327 562
3 562 148 557
3 327 88 562
3 557 25 327
3 260 556 561
3 561 70 260
3 556 148 561
3 260 21 556
3 328 261 563
3 563 88 328
3 261 70 563
3 328 5 261
3 566 564 565
3 565 129 566
3 564 147 565
3 566 87 564
3 559 469 565
3 565 147 559
3 469 129 565
3 559 37 469
3 321 558 564
3 564 87 321
3 558 147 564
3 321 25 558
3 470 322 566
3 566 129 470
3 322 87 566
3 470 3 322
3 569 567 568
3 568 71 569
3 567 149 568
3 569 128 567
3 555 266 568
3 568 149 555
3 266 71 568
3 555 21 266
3 461 560 567
3 567 128 461
3 560 149 567
3 461 37 560
3 267 464 569
3 569 71 267
3 464 128 569
3 267 10 464
3 572 570 571
3 571 152 572
3 570 151 571
3 572 150 570
3 574 573 571
3 571 151 574
3 573 152 571
3 574 27 573
3 576 575 570
3 570 150 576
3 575 151 570
3 576 12 575
3 578 577 572
3 572 152 578
3 577 150 572
3 578 36 577
3 581 579 580
3 580 49 581
3 579 151 580
3 581 96 579
3 575 189 580
3 580 151 575
3 189 49 580
3 575 12 189
3 349 574 579
3 579 96 349
3 574 151 579
3 349 27 574
3 190 352 581
3 581 49 190
3 352 96 581
3 190 7 352
3 584 582 583
3 583 118 584
3 582 150 583
3 584 48 582
3 577 428 583
3 583 150 577
3 428 118 583
3 577 36 428
3 181 576 582
3 582 48 181
3 576 150 582
3 181 12 576
3 429 184 584
3 584 118 429
3 184 48 584
3 429 8 184
3 587 585 586
3 586 97 587
3 585 152 586
3 587 121 585
3 573 357 586
3 586 152 573
3 357 97 586
3 573 27 357
3 438 578 585
3 585 121 438
3 578 152 585
3 438 36 578
3 358 441 587
3 587 97 358
3 441 121 587
3 358 1 441
3 590 588 589
3 589 155 590
3 588 154 589
3 590 153 588
3 592 591 589
3 589 154 592
3 591 155 589
3 592 17 591
3 594 593 588
3 588 153 594
3 593 154 588
3 594 30 593
3 596 595 590
3 590 155 596
3 595 153 590
3 596 35 595
3 599 597 598
3 598 104 599
3 597 154 598
3 599 64 597
3 593 383 598
3 598 154 593
3 383 104 598
3 593 30 383
3 237 592 597
3 597 64 237
3 592 154 597
3 237 17 592
3 384 240 599
3 599 104 384
3 240 64 599
3 384 6 240
3 602 600 601
3 601 120 602
3 600 153 601
3 602 103 600
3 595 439 601
3 601 153 595
3 439 120 601
3 595 35 439
3 377 594 600
3 600 103 377
3 594 153 600
3 377 30 594
3 440 378 602
3 602 120 440
3 378 103 602
3 440 1 378
3 605 603 604
3 604 65 605
3 603 155 604
3 605 119 603
3 591 245 604
3 604 155 591
3 245 65 604
3 591 17 245
3 433 596 603
3 603 119 433
3 596 155 603
3 433 35 596
3 246 434 605
3 605 65 246
3 434 119 605
3 246 11 434
3 608 606 607
3 607 158 608
3 606 157 607
3 608 156 606
3 610 609 607
3 607 157 610
3 609 158 607
3 610 15 609
3 612 611 606
3 606 156 612
3 611 157 606
3 612 28 611
3 614 613 608
3 608 158 614
3 613 156 608
3 614 41 613
3 617 615 616
3 616 95 617
3 615 157 616
3 617 55 615
3 611 350 616
3 616 157 611
3 350 95 616
3 611 28 350
3 209 610 615
3 615 55 209
3 610 157 615
3 209 15 610
3 351 210 617
3 617 95 351
3 210 55 617
3 351 7 210
3 620 618 619
3 619 135 620
3 618 156 619
3 620 94 618
3 613 490 619
3 619 156 613
3 490 135 619
3 613 41 490
3 342 612 618
3 618 94 342
3 612 156 618
3 342 28 612
3 491 345 620
3 620 135 491
3 345 94 620
3 491 2 345
3 623 621 622
3 622 56 623
3 621 158 622
3 623 134 621
3 609 215 622
3 622 158 609
3 215 56 622
3 609 15 215
3 484 614 621
3 621 134 484
3 614 158 621
3 484 41 614
3 216 485 623
3 623 56 216
3 485 134 623
3 216 9 485
3 626 624 625
3 625 161 626
3 624 160 625
3 626 159 624
3 628 627 625
3 625 160 628
3 627 161 625
3 628 31 627
3 630 629 624
3 624 159 630
3 629 160 624
3 630 20 629
3 632 631 626
3 626 161 632
3 631 159 626
3 632 40 631
3 635 633 634
3 634 73 635
3 633 160 634
3 635 105 633
3 629 272 634
3 634 160 629
3 272 73 634
3 629 20 272
3 382 628 633
3 633 105 382
3 628 160 633
3 382 31 628
3 273 385 635
3 635 73 273
3 385 105 635
3 273 6 385
3 638 636 637
3 637 137 638
3 636 159 637
3 638 72 636
3 631 496 637
3 637 159 631
3 496 137 637
3 631 40 496
3 265 630 636
3 636 72 265
3 630 159 636
3 265 20 630
3 497 268 638
3 638 137 497
3 268 72 638
3 497 10 268
3 641 639 640
3 640 102 641
3 639 161 640
3 641 136 639
3 627 372 640
3 640 161 627
3 372 102 640
3 627 31 372
3 489 632 639
3 639 136 489
3 632 161 639
3 489 40 632
3 373 492 641
3 641 102 373
3 492 136 641
3 373 2 492
