# vtk DataFile Version 3.0
this file was written using fslvtkio
ASCII
DATASET POLYDATA
POINTS 664 float
106.846 132.599 133.298
105.25 132.588 132.723
106.216 132.122 130.973
107.879 131.815 130.976
108.674 132.479 133.014
109.109 131.494 131.212
104.961 132.357 134.787
103.023 131.699 133.941
103.79 132.288 132.76
106.715 132.374 135.693
108.291 132.502 135.352
110.005 131.824 132.628
109.774 132.094 134.901
110.999 131.595 133.098
111.176 131.278 134.536
112.004 130.534 132.927
104.005 131.804 136.438
102.608 130.597 135.551
105.793 132.353 137.366
107.756 132.643 137.779
109.458 132.32 137.073
111.008 131.413 136.12
112.332 130.367 134.333
103.749 130.741 137.766
103.36 129.434 136.954
105.286 131.343 139.005
107.327 131.736 139.673
109.471 131.809 139.297
111.066 131.38 138.075
112.435 130.301 136.253
105.258 129.571 138.711
107.244 129.894 139.355
109.223 129.994 139.906
111.197 129.982 139.3
112.371 129.897 137.876
104.321 132.352 131.369
102.268 132.092 131.225
103.731 132.211 129.933
105.258 132.179 129.052
107.382 131.868 128.903
109.291 131 129.211
110.322 131.001 130.878
110.829 130.341 129.366
101.611 130.874 133.494
111.589 130.44 131.386
113.095 129.775 131.947
101.882 129.158 135.055
113.51 129.441 134.216
103.413 128.128 136.098
113.391 129.169 136.518
105.204 128.366 137.353
107.113 128.359 138.198
108.942 128.189 138.915
110.918 128.228 139.12
112.762 128.228 138.326
103.884 131.761 125.92
102.481 131.501 124.977
103.825 131.311 124.274
105.077 130.961 123.931
105.864 131.48 125.518
106.576 130.47 123.999
102.688 132.079 128.055
101.155 131.888 127.314
105.018 131.918 127.377
107.303 130.932 125.191
107.204 131.408 127.091
108.443 130.605 125.756
101.016 131.932 129.665
99.3925 130.346 129.949
99.6914 131.233 128.076
109.26 130.639 127.403
111.378 129.787 127.672
112.172 129.799 129.852
113.323 129.248 129.454
100.719 130.94 131.677
99.8992 129.193 131.32
114.38 129.003 131.594
101.032 129.347 133.014
100.521 127.707 131.978
114.681 128.624 133.226
114.564 128.664 135.076
115.939 127.956 134.016
101.69 128.058 133.646
103.006 127.231 134.694
114.183 128.016 136.759
115.719 127.455 135.571
105.102 127.226 135.975
106.998 127.103 136.723
108.819 126.927 137.374
110.673 126.982 137.857
112.461 126.827 137.756
114.303 126.727 136.977
103.994 130.648 122.612
102.041 130.94 122
102.839 130.343 120.662
104.873 129.793 120.68
106.329 129.933 122.468
107.042 129.026 120.607
108.576 128.916 121.751
109.416 127.701 119.972
101.311 131.138 123.759
99.5736 130.461 122.916
100.723 130.864 122.189
108.074 129.736 123.557
110.568 128.693 121.702
110.104 129.388 123.715
111.851 128.971 122.869
112.072 129.266 124.621
113.146 128.632 124.055
99.0487 130.338 125.051
97.6836 128.595 125.563
97.9223 129.22 123.818
100.138 131.388 126.004
109.826 130.125 125.621
111.492 129.676 125.797
113.236 128.88 126.433
98.5208 129.86 127.408
97.4519 127.735 127.426
113.799 128.823 128.075
115.463 128.513 130.525
115.64 128.03 129.233
117.115 127.541 130.774
117.489 127.121 129.788
98.3503 128.678 129.141
99.3148 127.623 130.391
116.046 128.017 132.358
117.647 127.349 132.179
118.89 126.532 131.237
100.737 126.139 131.084
117.378 127.009 133.922
119.059 126.141 133.017
102.132 126.785 132.473
103.494 126.04 133.268
116.329 126.321 135.672
117.943 125.632 134.597
104.821 126.307 134.638
106.623 126.354 135.139
108.518 126.059 135.421
110.239 125.954 136.295
112.049 125.76 136.468
113.859 125.485 136.456
116 125.217 136.057
100.98 129.345 118.953
98.7414 128.743 119.041
99.8029 128.746 117.573
102.006 128.969 117.314
103.26 129.465 119.09
104.204 128.54 117.415
105.545 128.801 119.054
106.472 127.674 117.653
107.596 127.831 119.142
108.926 126.674 117.973
100.448 130.173 120.61
98.2022 129.012 120.509
110.866 126.451 119.16
98.2079 129.565 122.054
96.5753 127.371 123.581
96.9906 128.076 121.525
111.413 127.33 120.656
113.023 128.009 121.876
114.285 127.939 124.376
96.8093 126.487 125.52
115.004 127.716 125.926
97.6064 125.684 127.305
115.159 127.633 127.416
116.617 127.318 128.501
118.445 126.118 129.622
98.5063 126.676 129
99.8397 125.311 129.93
119.869 125.141 131.469
101.979 124.61 130.371
119.463 124.487 133.493
102.734 125.506 131.449
104.251 125.237 131.987
109.245 125.309 134.053
108.945 124.699 132.368
108.095 125.327 133.723
110.091 124.591 132.877
117.546 124.284 134.687
105.153 125.524 133.259
106.785 125.387 133.809
110.216 125.226 134.674
111.732 124.832 135.021
113.455 124.402 135.251
115.351 124.15 135.283
101.23 127.484 114.321
99.7416 126.872 113.385
101.155 126.832 112.854
102.576 126.569 112.769
103.672 126.984 114.387
104.552 125.953 112.774
105.734 126.301 114.734
106.209 125.241 113.078
107.406 125.487 114.954
108.249 124.721 113.817
98.5735 127.54 115.273
96.7267 126.508 115.831
97.6217 126.365 113.985
100.166 128.094 116.175
102.594 128.042 115.805
104.973 127.55 116
107.264 126.571 116.374
109.345 125.609 116.134
97.6538 127.875 117.42
96.0811 126.412 118.124
110.845 125.596 117.637
96.8565 127.522 119.671
96.1292 126.331 121.763
111.817 125.155 118.894
96.6069 124.86 123.873
112.421 125.693 119.968
113.518 126.318 120.977
114.475 127.059 122.722
115.569 126.737 124.974
115.364 125.752 124.011
97.3769 124.462 125.495
116.072 126.526 126.752
116.233 125.011 126.525
98.5167 123.983 126.708
117.36 125.877 128.091
118.837 124.71 129.789
99.1036 124.859 128.491
101.093 123.738 129.183
119.611 123.392 131.683
103.448 123.561 129.489
104.377 124.434 130.629
106.444 123.799 130.731
105.578 123.18 129.423
108.294 123.576 130.564
107.247 122.858 129.395
109.917 123.745 131.068
108.964 122.532 129.086
111.94 123.548 131.553
110.868 122.778 130.053
113.739 123.333 132.239
113.017 122.673 130.355
114.69 122.678 130.661
118.3 123.162 133.179
105.9 124.698 131.974
107.646 124.535 132.023
111.252 124.301 132.986
112.953 123.958 133.742
115.367 122.832 132.205
114.907 123.389 133.962
116.611 123.327 134.171
116.802 122.683 132.619
101.102 126.285 111.346
98.9025 126.093 110.712
100.093 125.681 109.589
102.174 125.493 109.496
103.438 125.658 111.113
104.403 124.794 109.488
105.413 124.66 111.048
107.105 123.674 109.851
107.133 124.228 111.975
108.624 123.625 111.499
98.5704 126.237 112.259
96.2925 125.033 113.064
97.0777 125.442 111.165
109.612 124.273 113.836
95.6499 124.963 115.213
110.62 124.363 115.087
111.319 124.522 116.464
111.676 123.225 115.352
95.5682 124.94 117.56
95.7254 123.385 118.048
95.4683 123.696 116.392
112.023 123.881 118.253
111.858 122.823 117.437
95.8347 125.236 119.859
96.1377 123.317 119.9
112.565 124.113 119.663
112.407 122.543 120.054
96.1833 124.366 121.943
96.7489 122.692 121.309
113.343 123.938 120.875
114.329 125.275 122.15
115.313 124.55 124.179
97.3389 122.992 123.318
98.5256 122.641 124.8
115.51 123.772 125.695
99.6466 122.529 126.2
117.468 124.374 128.313
116.163 123.617 127.264
100.009 123.41 127.82
101.88 122.667 127.678
110.669 122.118 128.524
110.339 121.53 127.019
109.061 121.653 127.316
112.749 122.089 128.943
111.593 121.53 127.262
115.014 122.322 129.114
113.403 122.236 127.444
116.914 123.023 129.013
115.073 122.782 127.504
118.302 123.459 129.903
103.044 122.777 128.509
105.047 122.267 128.215
107.221 122.048 127.904
116.397 122.543 130.494
118.016 122.606 131.253
101.316 124.363 105.856
99.2915 124.278 105.72
100.076 123.411 104.115
102.573 123.367 104.654
103.703 124.092 106.436
104.672 123.115 105.427
105.787 123.069 107.198
106.579 122.219 105.994
99.029 124.709 107.429
96.7356 124.046 108.343
97.6619 124.082 106.533
100.599 125.11 108.069
102.592 124.839 107.733
104.945 123.92 108.302
107.895 122.146 107.589
107.367 122.97 108.593
109.926 121.966 108.746
97.7883 125.041 109.372
96.0768 123.684 110.707
109.481 122.845 110.106
110.299 123.267 112.178
111.399 122.511 111.013
95.6812 122.875 112.756
111.118 123.526 113.803
112.026 122.445 113.132
95.3734 123.151 114.647
95.6344 122.012 116.012
95.8419 121.336 113.709
111.697 122.005 115.447
96.2475 121.567 117.743
111.459 121.814 118.087
96.9297 121.486 119.227
111.302 121.134 119.994
97.6747 121.363 120.39
113.297 122.115 122.351
112.156 120.888 121.61
114.197 123.749 122.569
98.0044 121.717 122.226
100.607 121.516 124.936
99.303 121.402 123.325
100.901 120.9 123.366
112.456 120.837 124.008
111.509 120.146 122.516
110.718 120.286 123.624
113.854 122.096 124.559
114.528 123.074 124.181
101.405 122.007 126.472
102.198 120.786 124.21
103.003 121.371 125.76
103.893 120.896 124.262
110.599 121.226 125.436
109.692 120.533 124.174
108.718 120.904 124.754
112.327 121.511 125.995
113.657 121.974 125.943
114.939 122.728 125.973
103.727 121.995 126.971
104.896 121.434 125.229
105.893 121.724 126.49
108.128 121.352 126.246
106.76 121.069 125.008
98.2293 123.493 105.056
96.6277 122.797 106.235
97.7707 122.407 104.081
99.5549 122.762 102.33
102.084 122.882 103.153
104.936 122.271 104.042
107.658 121.397 105.564
96.1975 122.295 108.543
109.525 121.29 107.39
112.084 120.588 107.899
95.8679 121.485 110.6
111.793 121.631 109.561
112.355 121.174 111.499
96.3923 120.192 111.885
111.616 121.132 113.48
96.6493 120.485 115.656
97.0252 119.758 113.902
111.042 121.37 115.783
97.7443 120.055 117.054
110.375 121.26 117.336
109.928 120.885 115.936
109.032 120.999 117.314
98.3222 120.269 118.594
110.106 120.926 119.109
108.739 120.819 119.093
98.7668 120.594 119.699
98.6357 121.001 121.089
99.7094 120.423 120.29
110.259 120.368 121.312
108.57 120.676 120.744
99.6402 120.769 121.777
101.888 120.373 122.859
101.221 120.283 121.842
102.701 120.129 121.942
109.051 120.392 122.603
107.275 120.501 120.709
106.967 120.395 121.864
105.607 120.745 123.621
103.811 120.433 122.759
107.379 120.58 123.435
105.437 120.387 122.028
101.667 122.197 101.512
99.1636 121.287 101.302
101.449 121.08 100.229
103.794 121.207 100.85
103.99 122.114 102.447
105.92 120.85 101.95
105.607 121.604 103.04
107.101 120.697 103.544
96.5874 121.05 105.797
97.6655 121.041 103.021
108.165 120.761 104.79
110.021 120.578 106.332
111.397 119.805 105.779
96.4246 120.535 108.055
113.116 119.328 107.437
96.8447 119.456 109.429
112.731 120.098 110.059
112.129 118.805 109.576
97.8752 118.734 110.814
111.255 119.883 111.764
110.032 119.128 110.99
98.5958 119.017 115.157
98.1702 118.868 112.705
109.362 119.843 113.292
108.571 119.401 112.076
107.618 119.579 113.487
110.351 120.645 114.223
99.6024 119.306 116.999
100.095 118.73 114.418
101.375 119.067 116.245
103.5 119.115 115.922
101.983 118.864 114.388
105.57 119.315 115.616
104.029 119.109 114.05
107.654 119.686 115.167
105.892 119.512 113.774
108.984 120.266 115.507
99.7232 119.755 118.941
101.162 119.306 118.358
102.833 119.278 117.825
104.568 119.446 117.397
106.323 119.868 117.181
107.812 120.429 117.125
100.874 120.011 120.163
102.435 119.631 120.026
104.026 119.52 119.232
105.514 119.859 118.687
107.238 120.343 118.946
104.116 119.929 120.934
105.762 120.124 120.318
99.4408 119.901 100.506
101.378 120.21 99.1821
103.815 120.299 99.5697
106.085 119.981 100.677
108.198 119.564 102.278
109.22 119.779 104.262
110.796 119.051 104.012
97.4132 119.652 104.669
98.3262 119.176 102.653
112.733 118.823 105.884
97.3393 119.064 106.916
98.428 118.327 105.1
111.425 117.928 107.78
98.288 117.988 108.532
109.973 118.356 109.496
99.3467 117.928 109.895
99.7906 118.352 111.636
100.823 117.973 110.03
106.486 119.175 110.74
106.095 118.656 109.444
104.885 119.133 110.439
108.401 118.965 110.707
107.987 118.373 109.374
100.564 118.673 113.173
101.698 118.454 111.13
102.541 118.961 112.489
104.65 119.285 112.228
103.339 118.912 110.692
106.669 119.438 112.255
102.761 119.463 98.3633
100.253 118.912 98.8565
101.705 117.924 97.8902
103.96 118.385 97.8511
105.545 119.377 98.9704
106.172 118.28 98.1155
107.75 118.848 100.409
108.48 117.825 99.505
109.954 118.562 102.099
110.387 117.672 100.868
111.818 118.089 102.523
112.238 117.296 101.374
99.0683 118.058 100.746
112.589 118.513 104.145
113.551 117.428 103.239
99.1392 117.2 102.726
112.221 117.288 106.187
113.148 117.039 104.836
99.4533 117.576 106.786
99.6755 117.202 104.64
107.673 117.356 106.759
107.485 116.116 105.487
105.785 117.022 106.364
109.625 117.398 107.129
109.831 116.673 105.991
111.626 116.218 105.193
100.495 117.595 108.447
101.411 117.118 106.228
102.407 117.701 107.686
104.896 117.727 107.565
103.54 117.374 106.311
106.705 117.995 108.26
108.967 117.873 108.101
102.421 118.263 109.285
104.301 118.527 108.93
107.296 117.504 97.6562
105.218 117.159 96.9871
106.385 116.1 96.3979
108.082 116.341 96.8295
108.816 117.174 98.2762
109.546 116.325 97.6009
100.033 117.051 99.2243
101.19 116.093 98.0418
103.21 116.981 97.2305
110.295 117.121 99.4314
112.197 116.645 99.7969
113.599 116.787 101.578
113.807 116.208 100.128
100.008 116.145 101.314
113.304 115.795 102.88
114.067 115.469 101.823
100.738 116.019 103.099
112.348 114.585 102.192
112.459 115.989 103.855
101.852 116.085 104.211
102.443 116.46 105.269
104.881 116.418 105.505
104.788 115.644 104.571
106.589 115.194 104.21
108.512 115.517 104.363
110.244 115.794 104.348
104.219 115.614 96.4972
106.021 114.627 95.8984
107.917 115.015 96.0051
109.709 115.413 96.4749
110.859 116.315 98.462
111.132 115.611 97.4082
111.894 115.989 98.4359
112.735 115.501 97.817
100.472 115.17 100.132
101.336 114.578 98.7846
102.36 115.112 96.998
113.936 115.56 98.6224
114.897 115.551 100.445
115.218 115.164 98.7627
115.858 114.572 99.7595
116.229 114.318 98.486
101.958 114.969 102.029
101.967 114.043 100.633
113.967 114.428 101.591
115.032 113.91 100.692
116.368 113.507 99.4808
102.946 115.445 103.409
103.807 114.164 101.812
104.717 114.989 103.053
107.277 114.711 103.169
105.896 114.199 102.063
109.255 114.857 103.015
108.027 113.882 101.741
111.027 115.014 103.116
110.175 114.257 101.695
111.793 113.546 101.089
113.519 113.335 100.896
115.26 112.775 100.092
104.306 113.93 96.168
106.436 113.397 95.6401
108.09 113.62 95.5857
109.815 114.141 95.7122
111.377 114.973 96.3583
112.831 114.647 96.2266
101.99 113.38 98.2633
102.913 113.202 96.5996
114.329 114.595 96.6986
115.578 114.538 97.2836
116.959 113.587 97.8087
102.644 112.703 99.3909
116.623 112.548 99.0337
103.664 113.127 100.613
105.559 113.291 101.043
107.249 113.02 100.862
106.229 112.085 100.217
108.984 112.975 100.886
110.512 112.958 100.725
112.205 112.583 100.417
113.617 112.172 100.104
115.142 111.697 99.8707
107.961 111.919 100.241
109.654 111.806 100.238
111.128 111.738 100.113
112.417 111.608 99.9114
106.006 112.649 95.5511
107.623 112.272 95.3362
109.504 112.522 95.3118
111.35 113.518 95.5984
103.211 112.123 97.6502
104.477 112.088 96.09
106.131 111.451 95.4375
108.106 111.088 95.2916
110.894 112.076 95.4381
112.992 113.206 95.6009
114.616 113.317 95.5833
116.048 113.735 95.8609
117.239 113.481 96.5382
117.621 112.335 97.7648
117.857 111.728 96.6679
103.636 111.869 99.1406
104.2 111.075 97.739
116.507 111.588 98.782
117.195 110.999 97.8218
104.707 111.943 99.9265
105.791 110.852 99.3712
114.506 110.155 99.1799
113.433 110.973 99.6008
115.792 110.629 98.7819
107.135 110.842 99.6582
108.698 110.728 99.6722
110.28 110.579 99.6307
111.758 110.606 99.4839
105.211 110.304 96.4239
106.816 109.812 95.6262
108.528 109.896 95.6059
110.115 110.926 95.6693
112.155 111.429 95.636
113.701 111.852 95.3628
115.493 112.167 95.2718
117.147 112.138 95.5238
117.082 110.683 96.3909
105.058 110.301 98.2531
106.19 109.189 97.1626
107.765 108.726 96.5204
116.277 110.255 97.5918
106.477 109.596 98.6056
107.562 108.465 97.9899
113.675 109.219 98.2948
112.828 109.616 99.1762
115.008 109.674 97.9446
107.866 109.538 99.1976
109.588 109.516 99.2923
111.295 109.185 99.2337
109.608 109.426 96.3449
111.364 110.152 96.2692
112.975 110.603 96.182
114.433 110.642 95.7771
116.058 110.937 95.6243
109.097 108.297 97.3769
110.79 108.783 97.2238
112.313 109.436 96.9808
113.772 109.631 97.0606
115.374 110.132 96.665
108.853 108.561 98.5742
110.482 108.352 98.4455
112.187 108.636 98.1293
POLYGONS 1324  5296
3 0 1 2
3 0 3 4
3 2 3 0
3 3 5 4
3 6 7 8
3 1 6 8
3 1 0 6
3 0 9 6
3 4 10 0
3 10 9 0
3 11 4 5
3 11 12 4
3 12 10 4
3 12 13 14
3 11 13 12
3 13 15 14
3 16 7 6
3 17 7 16
3 9 18 6
3 18 16 6
3 10 19 9
3 19 18 9
3 12 20 10
3 20 19 10
3 14 21 12
3 21 20 12
3 22 14 15
3 21 14 22
3 23 17 16
3 24 17 23
3 18 25 16
3 25 23 16
3 19 26 18
3 26 25 18
3 20 27 19
3 27 26 19
3 21 28 20
3 28 27 20
3 29 21 22
3 28 21 29
3 23 30 24
3 25 30 23
3 31 30 25
3 26 31 25
3 32 31 26
3 27 32 26
3 33 32 27
3 28 33 27
3 34 33 28
3 29 34 28
3 35 36 37
3 35 2 1
3 35 37 2
3 37 38 2
3 3 2 39
3 2 38 39
3 5 40 41
3 5 3 40
3 3 39 40
3 40 42 41
3 8 36 35
3 8 7 36
3 7 43 36
3 1 8 35
3 5 41 11
3 41 42 44
3 41 44 11
3 11 44 13
3 44 15 13
3 45 15 44
3 7 17 43
3 43 17 46
3 15 45 22
3 45 47 22
3 17 24 46
3 46 24 48
3 22 47 29
3 47 49 29
3 24 50 48
3 30 50 24
3 31 51 30
3 30 51 50
3 32 52 31
3 31 52 51
3 33 53 32
3 32 53 52
3 34 54 33
3 33 54 53
3 49 34 29
3 54 34 49
3 55 56 57
3 55 58 59
3 57 58 55
3 58 60 59
3 61 56 55
3 62 56 61
3 59 63 55
3 63 61 55
3 64 59 60
3 64 65 59
3 65 63 59
3 64 66 65
3 67 68 69
3 62 67 69
3 61 67 62
3 61 36 67
3 61 37 36
3 38 37 61
3 63 38 61
3 39 38 63
3 65 39 63
3 65 66 70
3 65 70 39
3 39 70 40
3 42 71 72
3 42 40 71
3 40 70 71
3 71 73 72
3 74 68 67
3 75 68 74
3 36 43 74
3 67 36 74
3 42 72 44
3 72 45 44
3 72 73 45
3 73 76 45
3 77 75 74
3 78 75 77
3 43 46 77
3 74 43 77
3 79 80 47
3 79 47 76
3 76 47 45
3 79 81 80
3 77 82 78
3 82 77 46
3 82 46 83
3 83 46 48
3 80 84 49
3 47 80 49
3 85 80 81
3 84 80 85
3 48 86 83
3 50 86 48
3 51 87 50
3 50 87 86
3 52 88 51
3 51 88 87
3 53 89 52
3 52 89 88
3 54 90 53
3 53 90 89
3 84 54 49
3 84 91 54
3 91 90 54
3 85 91 84
3 92 93 94
3 92 95 96
3 94 95 92
3 96 97 98
3 95 97 96
3 97 99 98
3 100 101 102
3 93 100 102
3 92 100 93
3 92 56 100
3 92 57 56
3 58 57 92
3 96 58 92
3 60 58 96
3 60 96 103
3 103 96 98
3 104 98 99
3 104 105 98
3 105 103 98
3 105 106 107
3 104 106 105
3 106 108 107
3 109 110 111
3 101 109 111
3 101 100 109
3 100 112 109
3 56 62 112
3 100 56 112
3 60 103 64
3 66 64 103
3 66 103 113
3 113 103 105
3 107 114 105
3 114 113 105
3 115 107 108
3 114 107 115
3 116 110 109
3 117 110 116
3 69 68 116
3 69 116 112
3 112 116 109
3 62 69 112
3 66 113 70
3 71 70 113
3 114 71 113
3 73 118 119
3 71 118 73
3 71 115 118
3 71 114 115
3 119 120 121
3 118 120 119
3 120 122 121
3 116 123 117
3 123 116 68
3 123 68 124
3 124 68 75
3 119 125 76
3 73 119 76
3 121 126 119
3 126 125 119
3 127 121 122
3 126 121 127
3 75 78 124
3 124 78 128
3 76 125 79
3 81 79 125
3 81 125 129
3 129 125 126
3 130 126 127
3 129 126 130
3 78 131 128
3 82 131 78
3 131 82 83
3 132 131 83
3 129 133 85
3 81 129 85
3 134 129 130
3 133 129 134
3 83 135 132
3 86 135 83
3 87 136 86
3 86 136 135
3 88 137 87
3 87 137 136
3 89 138 88
3 88 138 137
3 90 139 89
3 89 139 138
3 91 140 90
3 90 140 139
3 133 91 85
3 133 141 91
3 141 140 91
3 134 141 133
3 142 143 144
3 142 145 146
3 144 145 142
3 146 147 148
3 145 147 146
3 148 149 150
3 147 149 148
3 149 151 150
3 152 143 142
3 153 143 152
3 94 93 152
3 94 152 146
3 146 152 142
3 95 94 146
3 148 95 146
3 97 95 148
3 150 97 148
3 150 99 97
3 150 151 99
3 151 154 99
3 155 156 157
3 153 155 157
3 152 155 153
3 152 101 155
3 152 102 101
3 93 102 152
3 99 154 158
3 104 99 158
3 106 104 159
3 104 158 159
3 159 108 106
3 160 108 159
3 111 156 155
3 111 110 156
3 110 161 156
3 101 111 155
3 108 160 115
3 160 162 115
3 110 117 161
3 161 117 163
3 115 162 164
3 118 115 164
3 120 118 165
3 118 164 165
3 165 122 120
3 166 122 165
3 117 167 163
3 123 167 117
3 167 123 124
3 168 167 124
3 122 166 127
3 166 169 127
3 124 128 168
3 168 128 170
3 127 169 130
3 169 171 130
3 128 172 170
3 131 172 128
3 172 131 132
3 173 172 132
3 174 175 176
3 175 174 177
3 130 171 134
3 171 178 134
3 132 179 173
3 135 179 132
3 136 180 135
3 135 180 179
3 176 137 174
3 176 180 137
3 180 136 137
3 174 181 177
3 174 137 181
3 137 138 181
3 139 182 138
3 138 182 181
3 140 183 139
3 139 183 182
3 141 184 140
3 140 184 183
3 178 141 134
3 184 141 178
3 185 186 187
3 185 188 189
3 187 188 185
3 189 190 191
3 188 190 189
3 191 192 193
3 190 192 191
3 192 194 193
3 195 196 197
3 186 195 197
3 186 185 195
3 185 198 195
3 189 199 185
3 199 198 185
3 191 200 189
3 200 199 189
3 193 201 191
3 201 200 191
3 202 193 194
3 201 193 202
3 203 196 195
3 204 196 203
3 144 143 203
3 144 203 198
3 198 203 195
3 145 144 198
3 199 145 198
3 147 145 199
3 200 147 199
3 149 147 200
3 201 149 200
3 201 151 149
3 201 202 151
3 202 205 151
3 206 204 203
3 207 204 206
3 143 153 206
3 203 143 206
3 151 205 154
3 205 208 154
3 157 207 206
3 157 156 207
3 156 209 207
3 153 157 206
3 154 208 210
3 158 154 210
3 159 158 211
3 158 210 211
3 160 212 213
3 160 159 212
3 159 211 212
3 212 214 213
3 156 161 209
3 209 161 215
3 213 216 162
3 160 213 162
3 217 213 214
3 216 213 217
3 161 163 215
3 215 163 218
3 162 216 164
3 216 217 219
3 216 219 164
3 164 219 165
3 219 166 165
3 220 166 219
3 163 221 218
3 167 221 163
3 221 167 168
3 222 221 168
3 166 220 169
3 220 223 169
3 224 170 225
3 224 222 170
3 222 168 170
3 225 226 227
3 224 225 227
3 226 228 229
3 227 226 229
3 228 230 231
3 229 228 231
3 230 232 233
3 231 230 233
3 232 234 235
3 233 232 235
3 235 234 236
3 169 223 171
3 223 237 171
3 170 172 225
3 173 225 172
3 173 238 225
3 238 226 225
3 228 226 239
3 239 226 238
3 175 239 176
3 175 230 239
3 230 228 239
3 177 230 175
3 177 240 230
3 240 232 230
3 234 232 241
3 241 232 240
3 242 236 234
3 242 234 243
3 243 234 241
3 243 244 245
3 242 243 245
3 244 237 245
3 244 178 237
3 178 171 237
3 173 179 238
3 180 238 179
3 239 238 180
3 176 239 180
3 177 181 240
3 182 240 181
3 241 240 182
3 183 241 182
3 243 241 183
3 184 243 183
3 244 243 184
3 178 244 184
3 246 247 248
3 246 249 250
3 248 249 246
3 250 251 252
3 249 251 250
3 252 253 254
3 251 253 252
3 253 255 254
3 256 257 258
3 247 256 258
3 246 256 247
3 246 186 256
3 246 187 186
3 188 187 246
3 250 188 246
3 190 188 250
3 252 190 250
3 192 190 252
3 254 192 252
3 254 194 192
3 254 255 194
3 255 259 194
3 197 257 256
3 197 196 257
3 196 260 257
3 186 197 256
3 261 262 202
3 261 202 259
3 259 202 194
3 261 263 262
3 264 265 266
3 264 266 260
3 264 260 204
3 204 260 196
3 262 267 205
3 202 262 205
3 268 262 263
3 267 262 268
3 269 265 264
3 270 265 269
3 204 207 269
3 264 204 269
3 267 271 208
3 205 267 208
3 272 267 268
3 271 267 272
3 273 270 269
3 274 270 273
3 207 209 273
3 269 207 273
3 208 271 210
3 271 272 275
3 271 275 210
3 210 275 211
3 212 211 276
3 211 275 276
3 276 214 212
3 277 214 276
3 273 278 274
3 278 273 209
3 278 209 279
3 279 209 215
3 214 277 217
3 277 280 217
3 215 218 279
3 279 218 281
3 282 219 217
3 282 217 283
3 283 217 280
3 219 282 220
3 218 284 281
3 221 284 218
3 284 221 222
3 285 284 222
3 286 287 288
3 286 289 290
3 287 286 290
3 289 291 292
3 290 289 292
3 291 293 294
3 292 291 294
3 283 294 293
3 283 293 282
3 282 293 295
3 220 295 223
3 282 295 220
3 222 296 285
3 224 296 222
3 227 297 224
3 224 297 296
3 229 298 227
3 227 298 297
3 288 231 286
3 288 298 231
3 298 229 231
3 233 286 231
3 289 286 233
3 235 289 233
3 291 289 235
3 236 291 235
3 236 299 291
3 299 293 291
3 295 293 300
3 300 293 299
3 223 300 237
3 295 300 223
3 236 242 299
3 245 299 242
3 300 299 245
3 237 300 245
3 301 302 303
3 301 304 305
3 303 304 301
3 305 306 307
3 304 306 305
3 306 308 307
3 309 310 311
3 302 309 311
3 302 301 309
3 301 312 309
3 305 313 301
3 313 312 301
3 307 314 305
3 314 313 305
3 315 307 308
3 315 316 307
3 316 314 307
3 315 317 316
3 318 310 309
3 319 310 318
3 248 247 318
3 248 318 312
3 312 318 309
3 249 248 312
3 313 249 312
3 251 249 313
3 314 251 313
3 253 251 314
3 316 253 314
3 255 320 321
3 253 320 255
3 253 317 320
3 253 316 317
3 320 322 321
3 258 319 318
3 258 257 319
3 257 323 319
3 247 258 318
3 321 324 259
3 255 321 259
3 325 321 322
3 324 321 325
3 326 327 328
3 326 328 323
3 326 323 260
3 260 323 257
3 259 324 261
3 324 263 261
3 324 325 263
3 325 329 263
3 266 327 326
3 266 265 327
3 265 330 327
3 260 266 326
3 263 329 268
3 329 331 268
3 265 270 330
3 330 270 332
3 268 331 272
3 331 333 272
3 270 274 332
3 332 274 334
3 335 275 272
3 335 272 336
3 336 272 333
3 275 337 276
3 335 337 275
3 276 337 277
3 274 338 334
3 278 338 274
3 279 339 340
3 279 340 278
3 278 340 338
3 340 339 341
3 342 343 344
3 336 343 342
3 336 342 335
3 335 342 345
3 337 335 346
3 346 335 345
3 277 346 280
3 337 346 277
3 339 281 347
3 279 281 339
3 348 341 339
3 348 339 349
3 349 339 347
3 348 349 350
3 351 352 353
3 344 352 351
3 344 351 342
3 342 351 354
3 345 342 355
3 355 342 354
3 346 345 356
3 356 345 355
3 280 356 283
3 346 356 280
3 281 284 347
3 285 347 284
3 285 357 347
3 357 349 347
3 358 350 349
3 358 349 359
3 359 349 357
3 359 360 361
3 358 359 361
3 353 361 360
3 351 353 360
3 351 360 288
3 351 288 287
3 290 351 287
3 354 351 290
3 292 354 290
3 355 354 292
3 294 355 292
3 356 355 294
3 283 356 294
3 285 296 357
3 297 357 296
3 359 357 297
3 298 359 297
3 360 359 298
3 288 360 298
3 362 363 364
3 362 303 302
3 362 364 303
3 364 365 303
3 304 303 366
3 303 365 366
3 306 304 367
3 304 366 367
3 367 308 306
3 368 308 367
3 311 363 362
3 311 310 363
3 310 369 363
3 302 311 362
3 308 368 370
3 315 308 370
3 370 317 315
3 371 317 370
3 310 319 369
3 369 319 372
3 317 371 373
3 320 317 373
3 373 322 320
3 374 322 373
3 319 323 372
3 372 323 375
3 322 374 325
3 374 376 325
3 328 377 378
3 327 377 328
3 375 323 328
3 378 375 328
3 325 376 329
3 376 379 329
3 327 330 377
3 377 330 380
3 381 382 383
3 381 379 382
3 381 331 379
3 331 329 379
3 330 332 380
3 380 332 384
3 385 381 383
3 386 385 383
3 331 385 333
3 381 385 331
3 387 334 388
3 387 384 334
3 384 332 334
3 387 388 389
3 390 385 386
3 391 390 386
3 333 390 336
3 385 390 333
3 334 338 388
3 388 392 389
3 388 338 392
3 338 340 392
3 341 393 394
3 341 394 340
3 340 394 392
3 394 393 395
3 396 397 398
3 391 397 396
3 390 391 396
3 390 396 344
3 390 344 343
3 336 390 343
3 341 348 393
3 350 399 400
3 348 350 400
3 348 400 395
3 348 395 393
3 399 401 402
3 400 399 402
3 398 402 401
3 396 398 401
3 396 401 353
3 396 353 352
3 344 396 352
3 350 358 399
3 361 399 358
3 401 399 361
3 353 401 361
3 403 404 405
3 403 406 407
3 405 406 403
3 407 408 409
3 406 408 407
3 408 410 409
3 364 411 412
3 363 411 364
3 404 403 365
3 404 365 412
3 412 365 364
3 366 365 403
3 407 366 403
3 367 366 407
3 409 367 407
3 368 413 414
3 367 413 368
3 367 410 413
3 367 409 410
3 413 415 414
3 363 369 411
3 411 369 416
3 368 414 370
3 414 371 370
3 414 415 371
3 415 417 371
3 369 372 416
3 416 372 418
3 419 373 371
3 419 371 420
3 420 371 417
3 373 419 374
3 372 375 418
3 418 375 421
3 422 419 420
3 423 422 420
3 374 422 376
3 419 422 374
3 378 377 424
3 378 424 425
3 378 425 375
3 375 425 421
3 426 427 428
3 423 427 426
3 423 426 422
3 422 426 429
3 376 429 379
3 422 429 376
3 424 380 430
3 377 380 424
3 431 425 424
3 431 424 432
3 432 424 430
3 432 433 434
3 431 432 434
3 433 435 436
3 434 433 436
3 435 437 438
3 436 435 438
3 428 438 437
3 428 437 426
3 426 437 439
3 382 439 383
3 382 429 439
3 429 426 439
3 379 429 382
3 430 384 440
3 380 384 430
3 432 430 441
3 441 430 440
3 433 432 442
3 442 432 441
3 435 433 443
3 443 433 442
3 437 435 444
3 444 435 443
3 439 437 445
3 445 437 444
3 383 445 386
3 439 445 383
3 384 387 440
3 389 440 387
3 389 446 440
3 446 441 440
3 442 441 447
3 447 441 446
3 443 442 448
3 448 442 447
3 444 443 449
3 449 443 448
3 445 444 450
3 450 444 449
3 386 450 391
3 445 450 386
3 389 392 446
3 394 446 392
3 447 446 394
3 395 447 394
3 395 451 447
3 451 448 447
3 449 448 452
3 452 448 451
3 397 452 398
3 397 450 452
3 450 449 452
3 391 450 397
3 395 400 451
3 402 451 400
3 452 451 402
3 398 452 402
3 405 453 454
3 404 453 405
3 406 405 455
3 405 454 455
3 408 406 456
3 406 455 456
3 410 457 458
3 410 408 457
3 408 456 457
3 457 459 458
3 412 411 460
3 412 460 461
3 412 461 404
3 404 461 453
3 410 458 413
3 458 415 413
3 458 459 415
3 459 462 415
3 460 463 464
3 460 411 463
3 411 416 463
3 461 460 464
3 415 462 417
3 462 465 417
3 416 418 463
3 463 418 466
3 417 465 420
3 465 467 420
3 468 421 469
3 468 466 421
3 466 418 421
3 468 469 470
3 471 472 473
3 471 474 475
3 472 471 475
3 474 467 475
3 474 423 467
3 423 420 467
3 469 425 476
3 421 425 469
3 477 470 469
3 477 469 478
3 478 469 476
3 478 479 480
3 477 478 480
3 473 480 479
3 473 479 471
3 471 479 481
3 427 481 428
3 427 474 481
3 474 471 481
3 423 474 427
3 425 431 476
3 434 476 431
3 478 476 434
3 436 478 434
3 479 478 436
3 438 479 436
3 481 479 438
3 428 481 438
3 482 483 484
3 482 485 486
3 484 485 482
3 486 487 488
3 485 487 486
3 488 489 490
3 487 489 488
3 490 491 492
3 489 491 490
3 491 493 492
3 454 483 482
3 454 453 483
3 453 494 483
3 455 454 482
3 486 455 482
3 456 455 486
3 488 456 486
3 457 456 488
3 490 457 488
3 459 457 490
3 459 490 495
3 495 490 492
3 496 492 493
3 495 492 496
3 453 461 494
3 494 461 497
3 495 498 462
3 459 495 462
3 499 495 496
3 498 495 499
3 464 463 500
3 464 500 501
3 464 501 461
3 461 501 497
3 502 503 504
3 502 505 506
3 503 502 506
3 498 507 506
3 498 506 465
3 498 465 462
3 465 506 505
3 499 507 498
3 500 466 508
3 463 466 500
3 509 501 500
3 509 500 510
3 510 500 508
3 510 511 512
3 509 510 512
3 504 512 511
3 504 511 502
3 502 511 513
3 505 502 514
3 514 502 513
3 465 514 467
3 505 514 465
3 466 468 508
3 470 508 468
3 470 515 508
3 515 510 508
3 511 510 516
3 516 510 515
3 472 516 473
3 472 513 516
3 513 511 516
3 475 513 472
3 514 513 475
3 467 514 475
3 470 477 515
3 480 515 477
3 516 515 480
3 473 516 480
3 517 518 519
3 517 520 521
3 519 520 517
3 520 522 521
3 484 523 524
3 483 523 484
3 485 484 525
3 484 524 525
3 518 517 487
3 518 487 525
3 525 487 485
3 489 487 517
3 521 489 517
3 521 522 526
3 521 526 489
3 489 526 491
3 493 527 528
3 493 491 527
3 491 526 527
3 527 529 528
3 483 494 523
3 523 494 530
3 528 531 496
3 493 528 496
3 532 528 529
3 531 528 532
3 494 497 530
3 530 497 533
3 531 534 535
3 531 535 496
3 496 535 499
3 532 534 531
3 536 501 537
3 536 533 501
3 533 497 501
3 537 538 539
3 536 537 539
3 538 504 503
3 538 503 539
3 539 503 540
3 506 541 503
3 503 541 540
3 507 542 506
3 506 542 541
3 535 507 499
3 542 507 535
3 501 509 537
3 512 537 509
3 538 537 512
3 504 538 512
3 519 543 544
3 518 543 519
3 520 519 545
3 519 544 545
3 522 546 547
3 522 520 546
3 520 545 546
3 547 548 549
3 546 548 547
3 548 550 549
3 524 523 551
3 552 524 551
3 552 553 524
3 553 525 524
3 543 518 525
3 553 543 525
3 522 547 526
3 527 526 547
3 549 527 547
3 529 554 555
3 527 554 529
3 527 550 554
3 527 549 550
3 555 556 557
3 554 556 555
3 556 558 557
3 551 530 559
3 523 530 551
3 560 552 551
3 559 560 551
3 555 561 532
3 529 555 532
3 557 562 555
3 562 561 555
3 563 557 558
3 562 557 563
3 559 533 564
3 530 533 559
3 565 560 559
3 565 559 566
3 566 559 564
3 566 567 568
3 565 566 568
3 567 569 570
3 568 567 570
3 569 571 572
3 570 569 572
3 571 535 534
3 571 534 572
3 572 534 573
3 561 534 532
3 561 574 534
3 574 573 534
3 562 574 561
3 575 574 562
3 563 575 562
3 533 536 564
3 539 564 536
3 566 564 539
3 540 566 539
3 567 566 540
3 541 567 540
3 569 567 541
3 542 569 541
3 571 569 542
3 535 571 542
3 544 576 577
3 543 576 544
3 545 544 578
3 544 577 578
3 546 545 579
3 545 578 579
3 548 546 580
3 546 579 580
3 580 550 548
3 581 550 580
3 553 582 583
3 552 582 553
3 576 543 553
3 583 576 553
3 550 581 584
3 554 550 584
3 556 554 585
3 554 584 585
3 585 558 556
3 586 558 585
3 552 560 582
3 582 560 587
3 558 586 563
3 586 588 563
3 560 589 587
3 565 589 560
3 568 590 565
3 565 590 589
3 591 592 590
3 591 590 570
3 570 590 568
3 570 572 593
3 591 570 593
3 572 573 594
3 593 572 594
3 573 574 595
3 594 573 595
3 596 595 574
3 596 574 597
3 597 574 575
3 588 575 563
3 597 575 588
3 591 598 592
3 593 598 591
3 599 598 593
3 594 599 593
3 600 599 594
3 595 600 594
3 601 600 595
3 596 601 595
3 577 576 602
3 577 603 578
3 602 603 577
3 578 604 579
3 603 604 578
3 579 605 580
3 604 605 579
3 580 605 581
3 583 582 606
3 583 606 607
3 576 583 607
3 576 607 608
3 576 608 602
3 603 602 608
3 609 603 608
3 604 603 609
3 610 604 609
3 605 604 610
3 611 605 610
3 581 605 611
3 581 611 584
3 584 611 612
3 585 584 613
3 584 612 613
3 586 614 615
3 586 585 614
3 585 613 614
3 614 616 615
3 606 587 617
3 582 587 606
3 618 607 606
3 617 618 606
3 615 619 588
3 586 615 588
3 620 615 616
3 619 615 620
3 587 589 617
3 617 621 618
3 617 589 621
3 589 590 621
3 621 590 592
3 622 621 592
3 597 623 624
3 596 597 624
3 619 597 588
3 619 625 597
3 625 623 597
3 620 625 619
3 592 626 622
3 598 626 592
3 599 627 598
3 598 627 626
3 600 628 599
3 599 628 627
3 601 629 600
3 600 629 628
3 624 601 596
3 629 601 624
3 608 607 630
3 608 631 609
3 630 631 608
3 632 609 631
3 632 633 609
3 633 610 609
3 611 610 634
3 610 633 634
3 612 611 635
3 611 634 635
3 613 612 636
3 612 635 636
3 614 613 637
3 613 636 637
3 637 616 614
3 638 616 637
3 630 618 639
3 607 618 630
3 631 630 640
3 640 630 639
3 641 632 631
3 640 641 631
3 616 638 620
3 638 642 620
3 618 621 639
3 622 639 621
3 622 643 639
3 643 640 639
3 644 641 640
3 643 644 640
3 623 645 646
3 624 623 646
3 625 647 623
3 623 647 645
3 642 625 620
3 647 625 642
3 622 626 643
3 643 648 644
3 643 626 648
3 626 627 648
3 628 649 627
3 627 649 648
3 629 650 628
3 628 650 649
3 646 629 624
3 650 629 646
3 633 632 651
3 633 652 634
3 651 652 633
3 634 653 635
3 652 653 634
3 635 654 636
3 653 654 635
3 636 655 637
3 654 655 636
3 637 655 638
3 651 641 656
3 632 641 651
3 652 651 657
3 657 651 656
3 653 652 658
3 658 652 657
3 654 653 659
3 659 653 658
3 655 654 660
3 660 654 659
3 638 660 642
3 655 660 638
3 656 644 661
3 641 644 656
3 657 656 662
3 662 656 661
3 658 657 663
3 663 657 662
3 645 663 646
3 645 659 663
3 659 658 663
3 647 659 645
3 660 659 647
3 642 660 647
3 644 648 661
3 649 661 648
3 662 661 649
3 650 662 649
3 663 662 650
3 646 663 650
