# vtk DataFile Version 3.0
this file was written using fslvtkio
ASCII
DATASET POLYDATA
POINTS 642 float
124.717 104.234 152.396
117.34 105.561 154.064
119.246 107.791 148.034
125.837 106.917 145.426
124.408 102.631 149.504
123.934 109.39 149.561
119.923 110.01 150.439
120.371 103.733 150.404
121.345 100.044 155.301
122.077 105.583 145.033
121.678 111.656 143.595
121.256 106.26 155.975
120.419 101.933 152.58
123.155 100.675 152.193
122.299 102.831 149.958
121.663 105.12 148.224
123.67 104.304 146.986
120.301 108.398 154.024
121.951 110.383 150.008
122.746 107.907 152.886
120.371 112.872 147.188
123.274 111.141 146.412
125.976 104.149 146.915
125.417 102.451 151.128
126.013 105.73 149.19
124.959 108.568 147.174
124.445 106.819 151.087
118.782 104.262 152.227
119.415 105.384 149.447
118.403 106.797 151.126
118.313 108.008 153.116
119.2 109.695 148.908
123.071 104.823 154.463
123.833 101.532 154.742
121.281 102.898 157.161
118.343 106.164 156.626
118.541 102.891 155.448
124.561 109.488 143.149
121.322 108.116 142.751
124.322 105.668 143.783
119.784 110.125 145.169
120.487 107.034 146.115
121.705 101.02 152.457
122.6 101.67 150.972
121.486 102.166 151.251
123.451 102.618 149.714
123.922 101.543 150.678
122.376 100.12 153.816
120.854 101.114 154.072
120.446 102.907 151.423
121.287 103.263 150.227
122.081 104.067 149.071
123.106 103.699 148.649
122.626 104.657 147.587
124.197 103.537 148.275
120.902 104.305 149.42
121.869 105.423 146.546
122.854 104.835 145.846
121.197 109.288 151.887
122.277 109.056 151.586
121.591 108.29 153.591
123.362 108.655 151.133
123.033 109.926 149.694
120.797 110.413 150.211
120.068 109.283 152.229
120.726 107.327 155.327
121.996 106.98 154.65
122.059 112.426 146.872
122.805 111.408 148.347
121.408 112.045 148.706
123.707 110.291 148.085
122.65 111.755 144.831
121.111 112.689 145.117
120.039 111.625 149.089
125.852 103.305 149.109
125.789 104.055 150.093
126.174 104.878 148.055
125.442 104.945 150.982
125.237 103.331 151.961
125.067 102.127 150.216
125.212 103.349 148.405
126.044 105.483 146.009
125.942 106.394 147.185
125.551 107.199 148.202
125.51 106.436 150.207
125.108 107.833 149.319
124.74 105.531 151.892
125.483 107.851 146.083
124.482 109.088 148.379
124.337 108.254 150.458
119.082 104.894 150.853
118.783 105.99 150.272
118.777 105.555 151.967
118.926 107.329 149.652
119.202 106.527 148.831
119.872 104.466 149.973
119.667 103.934 151.284
117.99 104.859 153.251
118.021 106.21 152.751
118.166 107.514 152.047
118.648 108.201 150.26
118.627 108.885 151.074
119.219 108.774 148.285
117.719 106.769 153.873
119.086 109.109 151.934
119.501 110.205 149.708
123.373 103.128 154.908
122.901 101.746 156.322
122.55 103.761 156.128
121.217 100.786 156.82
122.939 100.103 155.399
124.385 102.971 153.604
124.128 104.435 153.553
122.301 105.526 155.54
121.252 104.886 156.786
119.58 104.589 157.304
119.357 102.528 156.998
117.711 104.249 156.865
119.785 101.327 155.524
120.045 106.332 156.81
117.286 105.842 155.517
117.627 104.383 154.904
123.054 108.878 142.091
122.883 106.737 142.496
124.674 107.372 142.606
123.057 105.612 144.214
121.809 106.597 143.78
121.285 110.197 142.639
123.129 110.871 142.956
125.331 107.997 144.142
125.543 106.294 144.114
120.093 108.463 145.393
120.746 107.552 144.22
120.358 109.277 143.798
121.246 106.316 145.411
119.806 107.501 147.047
119.374 108.897 146.622
120.598 111.023 144.132
124.585 101.224 151.831
123.748 100.46 153.667
124.669 101.849 152.965
123.709 105.88 152.78
122.984 106.447 153.914
123.585 107.268 152.038
124.041 104.764 145.257
124.837 104.019 146.661
125.517 104.741 144.921
124.902 109.286 145.11
124.292 109.957 146.498
124.009 110.636 144.652
119.567 102.324 154.092
119.317 102.858 152.454
118.369 103.402 153.722
118.041 107.149 155.115
119.068 108.268 153.907
119.282 107.378 155.676
120.018 106.142 147.872
120.554 105.297 148.832
121.016 105.978 147.077
119.673 111.963 145.663
119.562 111.372 147.659
119.3 110.279 146.749
122.221 101.322 151.734
122.055 101.945 151.117
121.529 101.534 151.82
121.925 102.553 150.645
122.454 102.296 150.419
122.846 101.101 151.556
122.41 100.738 152.398
121.081 101.492 152.553
120.897 101.901 151.913
123.045 102.14 150.3
123.309 101.581 150.881
123.594 101.983 150.124
123.57 101.057 151.419
122.881 102.727 149.805
123.93 102.561 149.594
124.151 101.948 150.018
122.062 100.614 153.171
121.302 101.026 153.269
121.626 100.594 153.947
120.599 101.542 153.323
122.837 100.365 153.053
121.888 100.003 154.611
121.074 100.579 154.655
120.939 102.499 151.352
121.459 102.827 150.788
120.927 103.084 150.857
121.763 102.986 150.106
120.366 102.324 151.985
120.42 103.408 150.927
120.832 103.526 150.352
122.614 103.887 148.861
122.892 104.203 148.145
122.481 104.512 148.479
123.132 104.411 147.276
123.365 103.94 147.859
122.688 103.202 149.233
122.168 103.363 149.43
121.923 104.667 148.729
122.17 104.891 147.926
123.692 103.635 148.458
123.201 103.071 149.048
123.797 103.094 148.949
123.96 103.879 147.607
124.316 103.125 148.887
121.6 103.546 149.587
121.474 104.196 149.272
121.074 103.747 149.777
121.295 104.733 148.94
120.609 103.945 149.886
122.298 105.056 147.069
122.878 104.881 146.698
122.354 105.096 146.244
123.307 104.584 146.373
121.818 105.317 147.394
121.891 105.379 145.742
122.392 105.174 145.406
121.711 109.205 151.715
121.947 108.701 152.566
121.414 108.879 152.885
122.163 108.152 153.269
122.445 108.473 152.271
122.088 109.702 150.776
121.523 109.774 150.873
120.819 108.894 153.083
120.999 108.389 153.835
122.833 108.87 151.386
122.663 109.582 150.674
123.273 109.406 150.611
122.53 110.196 149.891
122.895 108.141 151.903
123.794 109.157 150.436
123.537 109.674 149.609
120.962 109.75 150.966
120.634 109.312 152.08
120.456 109.687 151.127
120.195 108.877 153.195
121.369 110.485 150.152
120.296 110.215 150.346
119.926 109.609 151.267
121.163 107.796 154.463
121.778 107.684 154.138
121.363 107.198 154.998
122.381 107.5 153.803
120.496 107.889 154.722
120.973 106.765 155.742
121.58 106.518 155.31
122.523 112.057 147.658
122.126 111.791 148.561
121.701 112.478 147.828
121.765 111.269 149.359
122.388 110.987 149.205
123.046 111.419 147.375
122.683 111.773 146.612
121.212 112.793 146.971
120.872 112.611 148.018
122.945 110.646 149.036
123.239 110.849 148.141
123.405 110.223 148.881
123.488 110.749 147.244
123.864 109.843 148.809
122.369 112.229 145.831
121.617 112.806 145.964
121.927 112.334 144.951
120.664 113.048 146.1
122.934 111.444 145.62
122.197 111.804 144.106
121.462 112.044 144.338
120.665 112.045 148.878
121.143 111.355 149.595
120.474 111.162 149.746
120.135 112.417 148.177
120.073 110.707 149.746
125.812 103.663 149.655
126.127 104.47 149.108
126.078 104.063 148.575
126.14 105.299 148.6
125.969 104.923 149.605
125.703 103.219 150.651
125.687 102.835 150.172
125.943 103.788 148.067
126.121 104.506 147.506
125.617 104.491 150.513
125.63 103.67 151.093
125.41 104.145 151.447
125.39 102.878 151.615
125.76 105.319 150.074
125.147 104.588 151.776
124.961 103.817 152.173
125.411 102.635 149.694
125.566 103.205 148.711
125.105 102.799 149.266
125.618 103.628 147.68
125.364 102.174 150.623
124.713 102.303 149.801
124.764 103.021 148.965
126.199 105.209 147.009
126.12 105.621 147.601
126.006 105.923 146.655
125.963 106.095 148.163
126.15 104.758 146.41
126.001 106.261 145.636
125.857 106.705 146.217
125.636 106.843 149.18
125.349 107.153 149.805
125.364 107.542 148.735
125.007 107.39 150.365
125.09 106.668 150.672
125.737 106.085 149.603
125.807 106.487 148.673
125.237 107.85 147.672
125.035 108.186 148.246
124.964 105.936 150.983
125.456 105.683 150.565
125.105 105.282 151.394
124.493 106.128 151.448
124.714 104.86 152.177
125.782 106.829 147.703
125.473 107.531 147.147
125.722 107.147 146.622
125.16 108.239 146.595
125.687 107.406 145.706
124.851 108.474 148.827
124.761 108.054 149.861
124.515 108.69 149.439
124.492 107.553 150.821
124.755 108.866 147.787
124.207 109.281 149.003
124.102 108.869 149.973
118.906 105.396 150.608
118.716 105.724 150.998
118.993 105.263 151.427
118.576 106.142 151.524
118.591 106.394 150.682
119.065 105.625 149.877
119.193 105.103 150.138
119.16 104.764 151.674
118.806 104.951 152.209
118.862 106.696 150.037
119.072 106.265 149.631
119.061 106.93 149.253
119.325 105.935 149.189
118.573 107.072 150.371
119.104 107.575 148.813
119.126 107.149 148.398
119.409 104.618 150.352
119.363 104.449 151.025
119.714 104.219 150.564
119.252 104.075 151.743
119.572 104.853 149.702
120.121 104.052 150.145
120.014 103.793 150.78
118.433 105.191 152.636
118.408 105.859 152.381
117.982 105.513 153.003
118.3 106.515 152.012
118.339 104.51 152.727
117.673 105.208 153.696
117.583 105.877 153.351
118.274 107.897 151.071
118.655 108.552 150.669
118.287 108.258 151.573
118.917 109.282 150.014
118.955 108.928 149.679
118.411 107.512 150.673
118.255 107.189 151.566
118.205 107.798 152.565
118.372 108.487 152.108
119.004 108.498 149.375
118.747 107.78 149.933
119.089 108.027 149.109
119.193 109.278 148.555
119.241 108.251 148.142
118.08 106.841 152.416
117.944 107.176 152.938
117.706 106.519 153.212
117.953 107.429 153.542
117.434 106.163 154.064
118.786 109.076 151.569
119.041 109.521 150.445
119.318 109.583 150.86
119.292 110.023 149.297
118.61 108.613 152.626
119.554 109.561 151.13
119.742 110.187 150.108
123.194 102.477 155.582
122.763 102.803 156.384
122.986 103.372 155.524
122.109 103.325 156.906
122.149 102.239 156.913
123.356 101.517 155.468
123.535 102.275 154.883
123.315 103.982 154.756
122.866 104.273 155.339
122.234 101.125 156.791
122.942 100.697 156.014
122.248 100.152 156.394
123.491 100.741 155.182
121.232 101.839 157.079
121.24 100.121 156.227
122.164 99.7641 155.495
123.885 103.006 154.26
123.741 103.795 154.188
124.205 103.681 153.637
123.577 104.599 154.003
124.11 102.28 154.172
124.623 103.638 152.98
124.494 104.342 153.006
122.372 104.653 155.79
121.982 104.291 156.595
121.85 105.155 156.177
121.286 103.96 157.114
122.648 105.094 154.925
121.798 105.926 155.843
121.279 105.721 156.442
119.412 103.519 157.284
118.486 103.357 157.045
118.595 104.411 157.242
118.156 103.525 156.129
118.598 102.56 156.407
120.302 102.671 157.127
120.379 103.707 157.281
118.913 105.437 157.083
117.965 105.32 156.933
119.418 101.753 156.406
120.244 101.687 156.924
120.292 100.879 156.424
119.101 102.15 155.509
120.526 100.548 155.471
120.461 104.709 157.155
119.768 105.485 156.987
120.6 105.609 156.863
119.195 106.24 156.823
120.736 106.326 156.456
117.381 105.104 156.222
117.619 104.265 155.8
117.313 105.007 155.346
118.152 103.761 155.253
117.647 106.019 156.187
117.197 105.651 154.73
117.352 104.985 154.44
122.948 107.729 142.139
123.815 106.977 142.259
123.936 108.116 142.203
124.512 106.331 142.931
123.681 106.11 143.009
122.119 107.46 142.607
122.064 108.488 142.19
123.923 109.25 142.446
124.596 108.487 142.792
122.996 106.053 143.432
122.19 106.621 143.049
122.399 106.035 143.889
121.619 107.281 143.279
123.658 105.651 143.93
122.498 105.615 144.598
121.965 106.025 144.444
122.136 109.562 142.312
123.114 109.958 142.37
122.215 110.619 142.549
123.892 110.226 142.931
121.195 109.143 142.525
121.435 111.142 143.028
122.296 111.4 143.2
125.046 107.713 143.364
125.13 106.726 143.385
125.394 107.145 144.022
124.985 105.9 143.776
124.962 108.682 143.624
125.706 107.444 144.788
125.839 106.687 144.724
120.404 108.014 144.81
120.513 108.378 143.833
120.242 108.92 144.571
120.604 108.685 143.112
120.995 107.872 143.468
120.569 107.29 145.212
120.317 107.699 145.777
119.956 109.305 145.171
120.183 109.779 144.48
121.297 107.114 143.955
120.984 106.84 144.791
121.497 106.477 144.532
120.85 106.7 145.748
121.686 105.902 145.191
119.974 107.98 146.276
119.616 108.712 145.947
119.607 108.174 146.806
119.449 109.511 145.854
120.166 107.337 146.542
119.443 107.64 147.526
119.305 108.268 147.397
120.316 110.176 143.913
120.42 109.706 143.011
120.666 110.701 143.326
120.224 110.646 144.597
120.994 111.488 143.721
124.275 100.773 152.742
124.481 101.064 153.458
124.723 101.483 152.388
124.381 101.641 153.919
123.873 100.837 154.303
123.479 100.53 153.037
123.956 100.858 151.967
125.147 101.787 151.538
125.221 102.145 152.075
123.52 100.168 154.571
123.241 100.114 153.755
122.729 99.8256 154.598
124.318 101.358 151.255
124.882 101.615 151.011
124.539 101.73 150.533
125.036 102.602 152.484
124.574 102.376 153.388
124.752 103.092 152.727
123.365 106.115 153.347
123.289 106.853 152.91
123.749 106.608 152.469
123.194 107.563 152.466
122.794 107.149 153.319
123.05 105.619 154.269
123.489 105.366 153.781
124.119 106.362 151.969
123.971 107.002 151.554
122.534 106.711 154.338
122.591 105.905 154.708
122.124 106.214 155.042
123.941 105.184 153.237
124.246 105.717 152.343
124.292 105.01 152.716
123.912 107.677 151.208
123.397 107.905 151.594
123.837 108.423 150.819
124.457 104.216 145.916
125.16 104.119 145.749
124.714 104.623 144.988
125.835 104.305 145.965
125.443 103.926 146.646
124.185 104.164 146.767
123.839 104.314 146.142
124.207 105.223 144.447
124.87 105.263 144.318
125.111 103.644 147.48
124.569 103.798 147.451
124.768 103.476 148.265
123.443 104.758 145.529
123.593 105.207 144.674
122.994 105.202 145.016
125.534 105.499 144.447
125.891 105.133 145.411
125.869 105.862 145.024
124.655 109.692 145.802
124.236 110.335 145.563
124.546 110.004 144.799
123.578 110.862 145.522
123.783 110.534 146.415
124.645 109.287 146.811
124.929 108.985 146.129
124.816 109.47 144.079
124.379 110.22 143.806
123.993 110.16 147.294
124.427 109.505 147.463
124.124 109.677 148.117
125.229 108.57 145.56
125.102 108.711 144.562
125.534 108.058 145.108
123.691 110.841 143.714
123.306 111.165 144.687
122.927 111.39 143.856
119.364 102.562 153.239
118.793 103.085 153.049
118.898 102.885 153.936
118.399 103.731 152.844
118.943 103.502 152.309
119.825 102.364 152.57
119.967 102.087 153.365
119.085 102.614 154.708
118.482 103.211 154.562
119.512 103.423 151.862
119.883 102.802 151.938
119.997 103.404 151.372
120.131 101.712 154.09
119.618 101.882 154.802
120.286 101.172 154.78
117.958 103.854 154.38
118.051 104.153 153.504
117.715 104.553 154.004
118.531 107.738 154.634
119.14 107.803 154.829
118.595 107.288 155.519
119.813 107.877 154.865
119.671 108.34 154.028
118.579 108.164 153.619
118.104 107.621 154.161
118.076 106.737 155.958
118.782 106.891 156.293
119.553 108.806 153.158
118.989 108.668 152.957
119.523 109.203 152.15
117.78 106.953 154.534
117.625 106.52 155.429
117.414 106.346 154.769
119.601 106.959 156.326
120.016 107.358 155.534
120.401 106.976 156.165
120.312 105.684 148.407
120.831 105.666 148.036
120.546 106.11 147.427
121.324 105.526 147.677
121.111 105.216 148.553
119.941 105.273 149.097
119.816 105.786 148.786
120.236 106.581 146.881
120.707 106.471 146.548
120.684 104.798 149.145
120.138 104.832 149.38
120.409 104.443 149.632
119.526 106.252 148.317
119.784 106.724 147.387
119.409 106.897 147.89
121.104 106.207 146.274
121.449 105.758 146.826
121.584 105.864 146.011
119.442 111.867 146.635
119.408 110.825 147.205
119.254 111.108 146.162
119.323 110.04 147.782
119.44 110.49 148.148
119.728 112.348 147.35
119.888 112.761 146.239
119.695 111.029 145.332
119.304 110.276 145.899
119.562 110.813 148.687
119.705 111.705 148.38
119.764 110.901 149.269
120.286 112.532 145.289
120.246 111.559 144.82
120.774 111.889 144.557
119.354 109.609 146.61
119.339 109.515 147.523
119.316 108.916 147.403
POLYGONS 1280  5120
3 164 162 163
3 163 44 164
3 162 43 163
3 164 42 162
3 166 165 163
3 163 43 166
3 165 44 163
3 166 14 165
3 168 167 162
3 162 42 168
3 167 43 162
3 168 13 167
3 170 169 164
3 164 44 170
3 169 42 164
3 170 12 169
3 173 171 172
3 172 46 173
3 171 43 172
3 173 45 171
3 167 174 172
3 172 43 167
3 174 46 172
3 167 13 174
3 175 166 171
3 171 45 175
3 166 43 171
3 175 14 166
3 177 176 173
3 173 46 177
3 176 45 173
3 177 4 176
3 180 178 179
3 179 48 180
3 178 42 179
3 180 47 178
3 169 181 179
3 179 42 169
3 181 48 179
3 169 12 181
3 182 168 178
3 178 47 182
3 168 42 178
3 182 13 168
3 184 183 180
3 180 48 184
3 183 47 180
3 184 8 183
3 187 185 186
3 186 50 187
3 185 44 186
3 187 49 185
3 165 188 186
3 186 44 165
3 188 50 186
3 165 14 188
3 189 170 185
3 185 49 189
3 170 44 185
3 189 12 170
3 191 190 187
3 187 50 191
3 190 49 187
3 191 7 190
3 194 192 193
3 193 53 194
3 192 52 193
3 194 51 192
3 196 195 193
3 193 52 196
3 195 53 193
3 196 16 195
3 198 197 192
3 192 51 198
3 197 52 192
3 198 14 197
3 200 199 194
3 194 53 200
3 199 51 194
3 200 15 199
3 203 201 202
3 202 45 203
3 201 52 202
3 203 54 201
3 197 175 202
3 202 52 197
3 175 45 202
3 197 14 175
3 204 196 201
3 201 54 204
3 196 52 201
3 204 16 196
3 176 205 203
3 203 45 176
3 205 54 203
3 176 4 205
3 208 206 207
3 207 55 208
3 206 51 207
3 208 50 206
3 199 209 207
3 207 51 199
3 209 55 207
3 199 15 209
3 188 198 206
3 206 50 188
3 198 51 206
3 188 14 198
3 210 191 208
3 208 55 210
3 191 50 208
3 210 7 191
3 213 211 212
3 212 57 213
3 211 53 212
3 213 56 211
3 195 214 212
3 212 53 195
3 214 57 212
3 195 16 214
3 215 200 211
3 211 56 215
3 200 53 211
3 215 15 200
3 217 216 213
3 213 57 217
3 216 56 213
3 217 9 216
3 220 218 219
3 219 60 220
3 218 59 219
3 220 58 218
3 222 221 219
3 219 59 222
3 221 60 219
3 222 19 221
3 224 223 218
3 218 58 224
3 223 59 218
3 224 18 223
3 226 225 220
3 220 60 226
3 225 58 220
3 226 17 225
3 229 227 228
3 228 62 229
3 227 59 228
3 229 61 227
3 223 230 228
3 228 59 223
3 230 62 228
3 223 18 230
3 231 222 227
3 227 61 231
3 222 59 227
3 231 19 222
3 233 232 229
3 229 62 233
3 232 61 229
3 233 5 232
3 236 234 235
3 235 64 236
3 234 58 235
3 236 63 234
3 225 237 235
3 235 58 225
3 237 64 235
3 225 17 237
3 238 224 234
3 234 63 238
3 224 58 234
3 238 18 224
3 240 239 236
3 236 64 240
3 239 63 236
3 240 6 239
3 243 241 242
3 242 66 243
3 241 60 242
3 243 65 241
3 221 244 242
3 242 60 221
3 244 66 242
3 221 19 244
3 245 226 241
3 241 65 245
3 226 60 241
3 245 17 226
3 247 246 243
3 243 66 247
3 246 65 243
3 247 11 246
3 250 248 249
3 249 69 250
3 248 68 249
3 250 67 248
3 252 251 249
3 249 68 252
3 251 69 249
3 252 18 251
3 254 253 248
3 248 67 254
3 253 68 248
3 254 21 253
3 256 255 250
3 250 69 256
3 255 67 250
3 256 20 255
3 259 257 258
3 258 70 259
3 257 68 258
3 259 62 257
3 253 260 258
3 258 68 253
3 260 70 258
3 253 21 260
3 230 252 257
3 257 62 230
3 252 68 257
3 230 18 252
3 261 233 259
3 259 70 261
3 233 62 259
3 261 5 233
3 264 262 263
3 263 72 264
3 262 67 263
3 264 71 262
3 255 265 263
3 263 67 255
3 265 72 263
3 255 20 265
3 266 254 262
3 262 71 266
3 254 67 262
3 266 21 254
3 268 267 264
3 264 72 268
3 267 71 264
3 268 10 267
3 271 269 270
3 270 63 271
3 269 69 270
3 271 73 269
3 251 238 270
3 270 69 251
3 238 63 270
3 251 18 238
3 272 256 269
3 269 73 272
3 256 69 269
3 272 20 256
3 239 273 271
3 271 63 239
3 273 73 271
3 239 6 273
3 276 274 275
3 275 76 276
3 274 75 275
3 276 74 274
3 278 277 275
3 275 75 278
3 277 76 275
3 278 24 277
3 280 279 274
3 274 74 280
3 279 75 274
3 280 23 279
3 282 281 276
3 276 76 282
3 281 74 276
3 282 22 281
3 285 283 284
3 284 78 285
3 283 75 284
3 285 77 283
3 279 286 284
3 284 75 279
3 286 78 284
3 279 23 286
3 287 278 283
3 283 77 287
3 278 75 283
3 287 24 278
3 289 288 285
3 285 78 289
3 288 77 285
3 289 0 288
3 292 290 291
3 291 80 292
3 290 74 291
3 292 79 290
3 281 293 291
3 291 74 281
3 293 80 291
3 281 22 293
3 294 280 290
3 290 79 294
3 280 74 290
3 294 23 280
3 296 295 292
3 292 80 296
3 295 79 292
3 296 4 295
3 299 297 298
3 298 82 299
3 297 76 298
3 299 81 297
3 277 300 298
3 298 76 277
3 300 82 298
3 277 24 300
3 301 282 297
3 297 81 301
3 282 76 297
3 301 22 282
3 303 302 299
3 299 82 303
3 302 81 299
3 303 3 302
3 306 304 305
3 305 85 306
3 304 84 305
3 306 83 304
3 308 307 305
3 305 84 308
3 307 85 305
3 308 26 307
3 310 309 304
3 304 83 310
3 309 84 304
3 310 24 309
3 312 311 306
3 306 85 312
3 311 83 306
3 312 25 311
3 315 313 314
3 314 77 315
3 313 84 314
3 315 86 313
3 309 287 314
3 314 84 309
3 287 77 314
3 309 24 287
3 316 308 313
3 313 86 316
3 308 84 313
3 316 26 308
3 288 317 315
3 315 77 288
3 317 86 315
3 288 0 317
3 320 318 319
3 319 87 320
3 318 83 319
3 320 82 318
3 311 321 319
3 319 83 311
3 321 87 319
3 311 25 321
3 300 310 318
3 318 82 300
3 310 83 318
3 300 24 310
3 322 303 320
3 320 87 322
3 303 82 320
3 322 3 303
3 325 323 324
3 324 89 325
3 323 85 324
3 325 88 323
3 307 326 324
3 324 85 307
3 326 89 324
3 307 26 326
3 327 312 323
3 323 88 327
3 312 85 323
3 327 25 312
3 329 328 325
3 325 89 329
3 328 88 325
3 329 5 328
3 332 330 331
3 331 92 332
3 330 91 331
3 332 90 330
3 334 333 331
3 331 91 334
3 333 92 331
3 334 29 333
3 336 335 330
3 330 90 336
3 335 91 330
3 336 28 335
3 338 337 332
3 332 92 338
3 337 90 332
3 338 27 337
3 341 339 340
3 340 94 341
3 339 91 340
3 341 93 339
3 335 342 340
3 340 91 335
3 342 94 340
3 335 28 342
3 343 334 339
3 339 93 343
3 334 91 339
3 343 29 334
3 345 344 341
3 341 94 345
3 344 93 341
3 345 2 344
3 348 346 347
3 347 96 348
3 346 90 347
3 348 95 346
3 337 349 347
3 347 90 337
3 349 96 347
3 337 27 349
3 350 336 346
3 346 95 350
3 336 90 346
3 350 28 336
3 352 351 348
3 348 96 352
3 351 95 348
3 352 7 351
3 355 353 354
3 354 98 355
3 353 92 354
3 355 97 353
3 333 356 354
3 354 92 333
3 356 98 354
3 333 29 356
3 357 338 353
3 353 97 357
3 338 92 353
3 357 27 338
3 359 358 355
3 355 98 359
3 358 97 355
3 359 1 358
3 362 360 361
3 361 101 362
3 360 100 361
3 362 99 360
3 364 363 361
3 361 100 364
3 363 101 361
3 364 31 363
3 366 365 360
3 360 99 366
3 365 100 360
3 366 29 365
3 368 367 362
3 362 101 368
3 367 99 362
3 368 30 367
3 371 369 370
3 370 93 371
3 369 100 370
3 371 102 369
3 365 343 370
3 370 100 365
3 343 93 370
3 365 29 343
3 372 364 369
3 369 102 372
3 364 100 369
3 372 31 364
3 344 373 371
3 371 93 344
3 373 102 371
3 344 2 373
3 376 374 375
3 375 103 376
3 374 99 375
3 376 98 374
3 367 377 375
3 375 99 367
3 377 103 375
3 367 30 377
3 356 366 374
3 374 98 356
3 366 99 374
3 356 29 366
3 378 359 376
3 376 103 378
3 359 98 376
3 378 1 359
3 381 379 380
3 380 105 381
3 379 101 380
3 381 104 379
3 363 382 380
3 380 101 363
3 382 105 380
3 363 31 382
3 383 368 379
3 379 104 383
3 368 101 379
3 383 30 368
3 385 384 381
3 381 105 385
3 384 104 381
3 385 6 384
3 388 386 387
3 387 108 388
3 386 107 387
3 388 106 386
3 390 389 387
3 387 107 390
3 389 108 387
3 390 34 389
3 392 391 386
3 386 106 392
3 391 107 386
3 392 33 391
3 394 393 388
3 388 108 394
3 393 106 388
3 394 32 393
3 397 395 396
3 396 110 397
3 395 107 396
3 397 109 395
3 391 398 396
3 396 107 391
3 398 110 396
3 391 33 398
3 399 390 395
3 395 109 399
3 390 107 395
3 399 34 390
3 401 400 397
3 397 110 401
3 400 109 397
3 401 8 400
3 404 402 403
3 403 112 404
3 402 106 403
3 404 111 402
3 393 405 403
3 403 106 393
3 405 112 403
3 393 32 405
3 406 392 402
3 402 111 406
3 392 106 402
3 406 33 392
3 408 407 404
3 404 112 408
3 407 111 404
3 408 0 407
3 411 409 410
3 410 114 411
3 409 108 410
3 411 113 409
3 389 412 410
3 410 108 389
3 412 114 410
3 389 34 412
3 413 394 409
3 409 113 413
3 394 108 409
3 413 32 394
3 415 414 411
3 411 114 415
3 414 113 411
3 415 11 414
3 418 416 417
3 417 117 418
3 416 116 417
3 418 115 416
3 420 419 417
3 417 116 420
3 419 117 417
3 420 36 419
3 422 421 416
3 416 115 422
3 421 116 416
3 422 34 421
3 424 423 418
3 418 117 424
3 423 115 418
3 424 35 423
3 427 425 426
3 426 109 427
3 425 116 426
3 427 118 425
3 421 399 426
3 426 116 421
3 399 109 426
3 421 34 399
3 428 420 425
3 425 118 428
3 420 116 425
3 428 36 420
3 400 429 427
3 427 109 400
3 429 118 427
3 400 8 429
3 432 430 431
3 431 119 432
3 430 115 431
3 432 114 430
3 423 433 431
3 431 115 423
3 433 119 431
3 423 35 433
3 412 422 430
3 430 114 412
3 422 115 430
3 412 34 422
3 434 415 432
3 432 119 434
3 415 114 432
3 434 11 415
3 437 435 436
3 436 121 437
3 435 117 436
3 437 120 435
3 419 438 436
3 436 117 419
3 438 121 436
3 419 36 438
3 439 424 435
3 435 120 439
3 424 117 435
3 439 35 424
3 441 440 437
3 437 121 441
3 440 120 437
3 441 1 440
3 444 442 443
3 443 124 444
3 442 123 443
3 444 122 442
3 446 445 443
3 443 123 446
3 445 124 443
3 446 39 445
3 448 447 442
3 442 122 448
3 447 123 442
3 448 38 447
3 450 449 444
3 444 124 450
3 449 122 444
3 450 37 449
3 453 451 452
3 452 126 453
3 451 123 452
3 453 125 451
3 447 454 452
3 452 123 447
3 454 126 452
3 447 38 454
3 455 446 451
3 451 125 455
3 446 123 451
3 455 39 446
3 457 456 453
3 453 126 457
3 456 125 453
3 457 9 456
3 460 458 459
3 459 128 460
3 458 122 459
3 460 127 458
3 449 461 459
3 459 122 449
3 461 128 459
3 449 37 461
3 462 448 458
3 458 127 462
3 448 122 458
3 462 38 448
3 464 463 460
3 460 128 464
3 463 127 460
3 464 10 463
3 467 465 466
3 466 130 467
3 465 124 466
3 467 129 465
3 445 468 466
3 466 124 445
3 468 130 466
3 445 39 468
3 469 450 465
3 465 129 469
3 450 124 465
3 469 37 450
3 471 470 467
3 467 130 471
3 470 129 467
3 471 3 470
3 474 472 473
3 473 133 474
3 472 132 473
3 474 131 472
3 476 475 473
3 473 132 476
3 475 133 473
3 476 38 475
3 478 477 472
3 472 131 478
3 477 132 472
3 478 41 477
3 480 479 474
3 474 133 480
3 479 131 474
3 480 40 479
3 483 481 482
3 482 134 483
3 481 132 482
3 483 126 481
3 477 484 482
3 482 132 477
3 484 134 482
3 477 41 484
3 454 476 481
3 481 126 454
3 476 132 481
3 454 38 476
3 485 457 483
3 483 134 485
3 457 126 483
3 485 9 457
3 488 486 487
3 487 136 488
3 486 131 487
3 488 135 486
3 479 489 487
3 487 131 479
3 489 136 487
3 479 40 489
3 490 478 486
3 486 135 490
3 478 131 486
3 490 41 478
3 492 491 488
3 488 136 492
3 491 135 488
3 492 2 491
3 495 493 494
3 494 127 495
3 493 133 494
3 495 137 493
3 475 462 494
3 494 133 475
3 462 127 494
3 475 38 462
3 496 480 493
3 493 137 496
3 480 133 493
3 496 40 480
3 463 497 495
3 495 127 463
3 497 137 495
3 463 10 497
3 500 498 499
3 499 140 500
3 498 139 499
3 500 138 498
3 502 501 499
3 499 139 502
3 501 140 499
3 502 33 501
3 504 503 498
3 498 138 504
3 503 139 498
3 504 13 503
3 506 505 500
3 500 140 506
3 505 138 500
3 506 23 505
3 509 507 508
3 508 47 509
3 507 139 508
3 509 110 507
3 503 182 508
3 508 139 503
3 182 47 508
3 503 13 182
3 398 502 507
3 507 110 398
3 502 139 507
3 398 33 502
3 183 401 509
3 509 47 183
3 401 110 509
3 183 8 401
3 512 510 511
3 511 79 512
3 510 138 511
3 512 46 510
3 505 294 511
3 511 138 505
3 294 79 511
3 505 23 294
3 174 504 510
3 510 46 174
3 504 138 510
3 174 13 504
3 295 177 512
3 512 79 295
3 177 46 512
3 295 4 177
3 515 513 514
3 514 111 515
3 513 140 514
3 515 78 513
3 501 406 514
3 514 140 501
3 406 111 514
3 501 33 406
3 286 506 513
3 513 78 286
3 506 140 513
3 286 23 506
3 407 289 515
3 515 111 407
3 289 78 515
3 407 0 289
3 518 516 517
3 517 143 518
3 516 142 517
3 518 141 516
3 520 519 517
3 517 142 520
3 519 143 517
3 520 19 519
3 522 521 516
3 516 141 522
3 521 142 516
3 522 32 521
3 524 523 518
3 518 143 524
3 523 141 518
3 524 26 523
3 527 525 526
3 526 113 527
3 525 142 526
3 527 66 525
3 521 413 526
3 526 142 521
3 413 113 526
3 521 32 413
3 244 520 525
3 525 66 244
3 520 142 525
3 244 19 520
3 414 247 527
3 527 113 414
3 247 66 527
3 414 11 247
3 530 528 529
3 529 86 530
3 528 141 529
3 530 112 528
3 523 316 529
3 529 141 523
3 316 86 529
3 523 26 316
3 405 522 528
3 528 112 405
3 522 141 528
3 405 32 522
3 317 408 530
3 530 86 317
3 408 112 530
3 317 0 408
3 533 531 532
3 532 61 533
3 531 143 532
3 533 89 531
3 519 231 532
3 532 143 519
3 231 61 532
3 519 19 231
3 326 524 531
3 531 89 326
3 524 143 531
3 326 26 524
3 232 329 533
3 533 61 232
3 329 89 533
3 232 5 329
3 536 534 535
3 535 146 536
3 534 145 535
3 536 144 534
3 538 537 535
3 535 145 538
3 537 146 535
3 538 22 537
3 540 539 534
3 534 144 540
3 539 145 534
3 540 16 539
3 542 541 536
3 536 146 542
3 541 144 536
3 542 39 541
3 545 543 544
3 544 54 545
3 543 145 544
3 545 80 543
3 539 204 544
3 544 145 539
3 204 54 544
3 539 16 204
3 293 538 543
3 543 80 293
3 538 145 543
3 293 22 538
3 205 296 545
3 545 54 205
3 296 80 545
3 205 4 296
3 548 546 547
3 547 125 548
3 546 144 547
3 548 57 546
3 541 455 547
3 547 144 541
3 455 125 547
3 541 39 455
3 214 540 546
3 546 57 214
3 540 144 546
3 214 16 540
3 456 217 548
3 548 125 456
3 217 57 548
3 456 9 217
3 551 549 550
3 550 81 551
3 549 146 550
3 551 130 549
3 537 301 550
3 550 146 537
3 301 81 550
3 537 22 301
3 468 542 549
3 549 130 468
3 542 146 549
3 468 39 542
3 302 471 551
3 551 81 302
3 471 130 551
3 302 3 471
3 554 552 553
3 553 149 554
3 552 148 553
3 554 147 552
3 556 555 553
3 553 148 556
3 555 149 553
3 556 21 555
3 558 557 552
3 552 147 558
3 557 148 552
3 558 25 557
3 560 559 554
3 554 149 560
3 559 147 554
3 560 37 559
3 563 561 562
3 562 88 563
3 561 148 562
3 563 70 561
3 557 327 562
3 562 148 557
3 327 88 562
3 557 25 327
3 260 556 561
3 561 70 260
3 556 148 561
3 260 21 556
3 328 261 563
3 563 88 328
3 261 70 563
3 328 5 261
3 566 564 565
3 565 129 566
3 564 147 565
3 566 87 564
3 559 469 565
3 565 147 559
3 469 129 565
3 559 37 469
3 321 558 564
3 564 87 321
3 558 147 564
3 321 25 558
3 470 322 566
3 566 129 470
3 322 87 566
3 470 3 322
3 569 567 568
3 568 71 569
3 567 149 568
3 569 128 567
3 555 266 568
3 568 149 555
3 266 71 568
3 555 21 266
3 461 560 567
3 567 128 461
3 560 149 567
3 461 37 560
3 267 464 569
3 569 71 267
3 464 128 569
3 267 10 464
3 572 570 571
3 571 152 572
3 570 151 571
3 572 150 570
3 574 573 571
3 571 151 574
3 573 152 571
3 574 27 573
3 576 575 570
3 570 150 576
3 575 151 570
3 576 12 575
3 578 577 572
3 572 152 578
3 577 150 572
3 578 36 577
3 581 579 580
3 580 49 581
3 579 151 580
3 581 96 579
3 575 189 580
3 580 151 575
3 189 49 580
3 575 12 189
3 349 574 579
3 579 96 349
3 574 151 579
3 349 27 574
3 190 352 581
3 581 49 190
3 352 96 581
3 190 7 352
3 584 582 583
3 583 118 584
3 582 150 583
3 584 48 582
3 577 428 583
3 583 150 577
3 428 118 583
3 577 36 428
3 181 576 582
3 582 48 181
3 576 150 582
3 181 12 576
3 429 184 584
3 584 118 429
3 184 48 584
3 429 8 184
3 587 585 586
3 586 97 587
3 585 152 586
3 587 121 585
3 573 357 586
3 586 152 573
3 357 97 586
3 573 27 357
3 438 578 585
3 585 121 438
3 578 152 585
3 438 36 578
3 358 441 587
3 587 97 358
3 441 121 587
3 358 1 441
3 590 588 589
3 589 155 590
3 588 154 589
3 590 153 588
3 592 591 589
3 589 154 592
3 591 155 589
3 592 17 591
3 594 593 588
3 588 153 594
3 593 154 588
3 594 30 593
3 596 595 590
3 590 155 596
3 595 153 590
3 596 35 595
3 599 597 598
3 598 104 599
3 597 154 598
3 599 64 597
3 593 383 598
3 598 154 593
3 383 104 598
3 593 30 383
3 237 592 597
3 597 64 237
3 592 154 597
3 237 17 592
3 384 240 599
3 599 104 384
3 240 64 599
3 384 6 240
3 602 600 601
3 601 120 602
3 600 153 601
3 602 103 600
3 595 439 601
3 601 153 595
3 439 120 601
3 595 35 439
3 377 594 600
3 600 103 377
3 594 153 600
3 377 30 594
3 440 378 602
3 602 120 440
3 378 103 602
3 440 1 378
3 605 603 604
3 604 65 605
3 603 155 604
3 605 119 603
3 591 245 604
3 604 155 591
3 245 65 604
3 591 17 245
3 433 596 603
3 603 119 433
3 596 155 603
3 433 35 596
3 246 434 605
3 605 65 246
3 434 119 605
3 246 11 434
3 608 606 607
3 607 158 608
3 606 157 607
3 608 156 606
3 610 609 607
3 607 157 610
3 609 158 607
3 610 15 609
3 612 611 606
3 606 156 612
3 611 157 606
3 612 28 611
3 614 613 608
3 608 158 614
3 613 156 608
3 614 41 613
3 617 615 616
3 616 95 617
3 615 157 616
3 617 55 615
3 611 350 616
3 616 157 611
3 350 95 616
3 611 28 350
3 209 610 615
3 615 55 209
3 610 157 615
3 209 15 610
3 351 210 617
3 617 95 351
3 210 55 617
3 351 7 210
3 620 618 619
3 619 135 620
3 618 156 619
3 620 94 618
3 613 490 619
3 619 156 613
3 490 135 619
3 613 41 490
3 342 612 618
3 618 94 342
3 612 156 618
3 342 28 612
3 491 345 620
3 620 135 491
3 345 94 620
3 491 2 345
3 623 621 622
3 622 56 623
3 621 158 622
3 623 134 621
3 609 215 622
3 622 158 609
3 215 56 622
3 609 15 215
3 484 614 621
3 621 134 484
3 614 158 621
3 484 41 614
3 216 485 623
3 623 56 216
3 485 134 623
3 216 9 485
3 626 624 625
3 625 161 626
3 624 160 625
3 626 159 624
3 628 627 625
3 625 160 628
3 627 161 625
3 628 31 627
3 630 629 624
3 624 159 630
3 629 160 624
3 630 20 629
3 632 631 626
3 626 161 632
3 631 159 626
3 632 40 631
3 635 633 634
3 634 73 635
3 633 160 634
3 635 105 633
3 629 272 634
3 634 160 629
3 272 73 634
3 629 20 272
3 382 628 633
3 633 105 382
3 628 160 633
3 382 31 628
3 273 385 635
3 635 73 273
3 385 105 635
3 273 6 385
3 638 636 637
3 637 137 638
3 636 159 637
3 638 72 636
3 631 496 637
3 637 159 631
3 496 137 637
3 631 40 496
3 265 630 636
3 636 72 265
3 630 159 636
3 265 20 630
3 497 268 638
3 638 137 497
3 268 72 638
3 497 10 268
3 641 639 640
3 640 102 641
3 639 161 640
3 641 136 639
3 627 372 640
3 640 161 627
3 372 102 640
3 627 31 372
3 489 632 639
3 639 136 489
3 632 161 639
3 489 40 632
3 373 492 641
3 641 102 373
3 492 136 641
3 373 2 492
