# vtk DataFile Version 3.0
this file was written using fslvtkio
ASCII
DATASET POLYDATA
POINTS 642 float
152.788 103.644 134.918
142.19 104.186 136.005
146.788 105.745 127.788
156.079 106.357 123.437
151.936 99.1847 128.92
153.278 109.335 130.445
145.998 109.958 131.938
146.485 99.4347 130.274
146.927 98.5984 139.456
151.364 102.944 121.274
151.362 110.167 122.496
147.083 106.58 139.822
145.83 97.6513 134.793
149.698 97.6604 134.564
149.258 97.1739 128.828
148.974 100.536 125.551
152.546 99.6757 123.464
146.144 108.336 136.019
149.797 109.829 131.11
150.552 108.046 135.643
148.834 110.113 127.209
153.387 110.232 125.508
154.426 102.476 125.292
152.538 101.082 132.296
155.226 104.968 129.248
155.873 108.893 126.568
153.64 107.088 133.454
143.851 100.841 134.133
146.812 102.564 129.046
143.702 105.137 131.811
142.587 108.243 134.728
145.504 108.29 129.602
150.288 105.042 138.629
149.838 100.873 138.173
145.616 102.846 142.25
142.919 105.618 139.587
142.925 101.125 139.22
155.852 110.216 119.995
151.313 107.343 119.971
155.033 104.418 119.407
148.289 108.215 124.38
148.919 104.494 124.006
147.846 97.0234 134.828
149.512 96.7884 131.782
147.371 96.9838 131.883
151.023 97.6136 128.63
150.803 98.2519 131.772
148.536 97.6 137.313
146.24 98.0413 137.269
145.588 98.1626 132.227
147.514 98.0534 129.367
148.919 98.4978 126.939
150.971 97.7349 126.085
150.503 99.5494 124.187
152.39 99.2573 126.189
147.711 99.9224 128.007
150.16 101.773 123.46
151.926 101.111 122.008
148.042 109.277 133.85
150.134 109.074 133.366
148.414 108.149 135.749
151.9 108.852 133.09
151.612 109.608 130.663
147.934 110.058 131.584
146.075 109.463 134.11
146.727 107.194 137.708
148.919 107.371 137.824
151.099 110.305 126.464
151.449 110.178 128.415
149.262 110.296 129.156
153.278 110.035 127.979
152.537 110.244 123.91
150.254 110.003 124.889
147.299 110.044 129.67
153.8 101.622 128.882
154.121 102.884 130.67
155.027 103.478 127.363
153.941 104.342 132.077
152.797 102.259 133.733
152.152 100.053 130.696
153.327 100.729 127.093
155.348 104.34 124.215
155.791 105.555 126.381
155.89 106.961 128.026
154.712 106.154 131.327
155.221 108.034 130.138
153.23 105.387 134.257
156.27 107.692 124.922
154.813 109.449 128.656
153.754 108.48 132.12
145.236 101.718 131.603
145.154 103.566 130.551
143.938 102.97 132.849
145.276 105.382 129.932
146.625 104.131 128.361
146.724 101.017 129.734
144.924 99.9453 132.124
143.004 102.545 135.014
142.825 104.719 133.82
142.779 106.76 133.03
144.449 106.871 130.811
143.541 108.515 132.102
146.129 107.054 128.56
142.005 106.262 135.331
144.176 109.44 133.494
145.474 109.39 130.671
149.815 102.895 138.919
147.988 101.388 140.874
147.767 103.855 140.856
146.251 100.255 141.316
148.551 99.3482 139.186
151.53 102.19 136.73
151.851 104.295 136.973
148.888 106.04 139.568
146.032 105.284 141.709
143.83 104.893 142.157
143.755 101.593 141.629
141.745 103.484 140.209
144.808 99.6194 139.5
145.026 106.333 139.84
141.815 104.932 137.81
142.054 102.487 137.6
153.475 109.47 118.615
153.457 106.154 118.332
156.133 107.619 118.542
153.086 103.336 119.661
151.229 105.052 120.389
151.116 109.319 120.808
153.452 110.414 121.115
156.516 108.153 121.507
155.711 105.505 121.376
148.616 106.445 123.92
149.864 105.949 121.681
149.663 108.046 121.781
150.031 103.721 122.564
147.874 105.087 125.957
147.528 106.952 126.087
149.541 109.388 123.402
151.052 99.3708 133.652
149.815 99.152 136.572
151.392 100.766 135.414
152.169 106.12 136.306
150.803 106.972 137.66
152.416 107.909 134.699
153.804 101.817 121.089
153.476 101.111 124.205
154.869 103.295 122.208
156.245 109.547 123.089
154.859 109.986 125.873
154.729 110.524 122.633
144.367 99.2743 137.197
144.413 99.009 134.418
142.961 100.834 136.585
142.806 106.771 136.95
144.339 108.576 135.401
144.6 106.895 137.669
147.906 103.5 126.699
147.891 101.613 127.321
148.981 102.603 124.91
148.329 109.414 125.69
146.903 109.396 128.293
147.034 108.265 126.97
148.657 96.7485 133.328
148.438 96.8162 131.891
147.606 96.9038 133.339
148.304 97.0442 130.493
149.255 96.9283 130.426
149.603 97.0084 133.259
148.877 97.0603 134.673
146.821 97.1632 134.735
146.646 97.2045 133.363
150.169 97.1564 130.3
150.225 97.3536 131.853
150.733 97.823 130.368
150.253 97.7986 133.176
150.155 97.1164 128.818
151.42 98.3417 128.945
151.276 98.6504 130.296
148.165 97.2041 136.054
146.988 97.3393 136.064
147.397 97.6818 137.274
145.985 97.7499 136.028
149.15 97.5262 135.962
147.762 97.972 138.476
146.578 98.1565 138.414
146.432 97.414 132.131
147.386 97.4437 130.595
146.516 97.9978 130.887
148.299 97.4938 129.166
145.785 97.7697 133.425
146.004 98.7173 131.074
146.919 98.6876 129.842
149.852 97.9065 126.465
150.663 98.4274 125.02
149.702 98.8201 125.513
151.462 99.291 123.74
151.702 98.5319 124.77
150.121 97.2959 127.408
148.99 97.637 127.765
149 99.4266 126.051
149.711 99.8777 124.856
151.831 98.3368 126
151.04 97.4801 127.403
151.782 98.4044 127.506
152.465 99.2272 124.864
152.163 99.2043 127.612
148.182 98.225 128.118
148.348 99.2827 127.346
147.495 99.0145 128.592
148.422 100.142 126.68
147.058 99.6151 129.217
150.256 100.635 123.889
151.176 100.237 123.097
150.963 101.314 122.845
152.246 100.313 122.572
149.591 100.998 124.488
150.778 102.254 122.379
151.587 101.968 121.685
149.113 109.152 133.612
149.291 108.601 134.61
148.215 108.682 134.79
149.512 108.16 135.599
150.264 108.538 134.469
149.89 109.548 132.32
148.958 109.621 132.62
147.181 108.79 134.997
147.349 108.246 135.819
151.013 108.989 133.231
150.809 109.47 132.001
151.755 109.324 131.86
150.675 109.706 130.946
151.201 108.421 134.349
152.582 109.089 131.712
152.478 109.487 130.533
148.045 109.737 132.731
147.082 109.352 134.066
147.075 109.854 132.904
146.158 108.948 135.12
148.872 109.931 131.495
146.967 110.087 131.832
146.114 109.857 132.99
147.561 107.705 136.723
148.692 107.726 136.706
147.849 107.293 137.769
149.714 107.731 136.696
146.501 107.72 136.745
146.924 106.953 138.817
148.05 107.02 138.887
151.296 110.308 127.416
150.332 110.24 128.812
150.124 110.363 127.794
149.56 110.097 130.138
150.584 109.987 129.761
152.368 110.312 127.052
152.246 110.27 126.015
149.946 110.266 126.922
149.121 110.286 128.114
151.442 109.855 129.588
152.363 110.159 128.168
152.41 109.827 129.375
153.3 110.279 126.781
153.26 109.715 129.274
151.867 110.244 125.229
150.648 110.21 125.713
151.366 110.167 124.433
149.602 110.131 126.074
153.01 110.245 124.692
151.977 110.253 123.2
150.86 110.049 123.706
148.297 110.225 129.326
148.626 110.192 130.401
147.585 110.166 130.57
148.098 110.133 128.436
146.632 110.087 130.847
154.016 102.203 129.806
154.631 103.187 129.054
154.425 102.544 128.111
155.103 104.128 128.407
154.716 103.86 129.843
153.379 101.959 131.349
153.281 101.4 130.543
154.178 102.013 127.15
154.703 102.862 126.46
154.084 103.624 131.327
153.429 102.57 132.141
153.419 103.257 132.837
152.753 101.708 132.931
154.668 104.62 130.616
153.403 103.991 133.508
152.869 102.959 134.317
153.033 100.849 129.814
153.555 101.197 127.971
152.793 100.325 128.975
153.939 101.594 126.124
152.45 100.609 131.422
151.998 99.5595 129.864
152.607 99.9578 128.046
155.13 103.838 125.839
155.424 104.484 126.934
155.528 104.853 125.42
155.551 105.204 127.824
154.916 103.353 124.775
155.75 105.322 123.947
155.936 105.887 124.936
155.373 106.517 129.71
155.008 107.092 130.77
155.612 107.514 129.095
154.604 107.548 131.759
154.303 106.726 132.353
155.027 105.602 130.268
155.622 105.954 128.734
155.905 107.938 127.451
155.636 108.444 128.453
153.975 105.836 132.71
154.403 105.216 131.623
153.688 104.923 133.154
153.414 106.259 133.782
153.104 104.476 134.542
155.921 106.193 127.285
156.045 107.351 126.541
156.071 106.608 125.718
156.117 108.336 125.766
156.229 106.94 124.193
155.119 108.824 129.389
154.64 108.339 131.159
154.344 108.985 130.433
153.923 107.851 132.736
155.511 109.259 127.699
154.011 109.397 129.592
153.499 108.953 131.326
145.271 102.675 131.018
144.442 103.284 131.609
144.568 102.314 132.217
143.807 103.952 132.208
144.334 104.243 131.229
146.009 102.925 129.962
146.019 102.158 130.503
144.436 101.352 132.731
143.94 101.902 133.401
145.077 104.439 130.24
145.964 103.764 129.588
145.949 104.662 129.232
146.649 103.318 128.728
144.446 105.199 130.879
146.102 105.563 128.939
146.616 104.98 128.11
146.036 101.36 130.756
145.037 100.877 131.9
145.876 100.463 131.034
144.327 100.428 133.119
146.74 101.82 129.549
146.593 100.211 130.028
145.714 99.5655 131.221
143.49 102.713 133.913
143.368 103.82 133.27
142.933 103.627 134.397
143.242 104.821 132.73
143.447 101.641 134.571
142.547 103.397 135.52
142.441 104.488 134.915
143.503 106.76 131.801
143.946 107.654 131.383
142.993 107.654 132.518
144.465 108.414 130.969
144.914 107.699 130.369
144 106.002 131.303
143.23 105.954 132.336
142.389 107.608 133.789
142.808 108.484 133.297
145.364 107.017 129.813
144.852 106.086 130.384
145.779 106.27 129.332
145.827 107.699 129.107
146.495 106.35 128.188
142.835 105.669 133.293
142.315 106.59 134.103
142.327 105.503 134.464
142.116 107.3 134.991
142.1 105.224 135.612
143.62 109.115 132.847
144.408 109.061 131.542
144.674 109.542 132.18
145.346 108.834 130.224
143.291 108.864 134.097
145.2 109.782 132.717
145.701 109.765 131.216
148.792 102.183 139.897
147.832 102.643 141.018
148.81 103.295 139.936
146.783 103.279 141.847
146.939 102.005 141.767
148.93 101.171 139.617
149.723 101.844 138.765
149.843 103.951 139.041
148.892 104.348 139.797
147.303 100.723 141.34
148.333 100.337 140.09
147.546 99.564 140.553
149.129 100.184 138.821
145.988 101.443 141.848
146.498 99.2615 140.451
147.857 98.774 139.478
150.711 102.503 137.963
150.782 103.628 138.105
151.604 103.241 137.034
150.985 104.614 137.923
150.621 101.55 137.571
152.231 102.854 135.855
152.383 103.903 135.969
148.17 104.915 140.223
146.938 104.501 141.464
147.359 105.586 140.682
145.77 104.144 142.287
149.488 105.435 139.225
148.094 106.351 139.734
146.529 106.056 140.683
143.609 103.195 142.126
142.636 102.653 141.361
142.646 103.981 141.62
142.219 102.312 140.021
143.072 101.428 140.618
144.699 102.158 142.117
144.641 103.941 142.475
143.156 105.163 141.011
142.099 104.668 140.386
144.111 100.558 140.688
145.012 100.874 141.529
145.352 99.7881 140.603
143.779 100.405 139.523
145.868 98.9721 139.442
145.044 105.14 142.195
144.247 105.695 141.176
145.507 106.04 140.932
143.911 105.903 139.976
146.042 106.553 139.803
141.58 104.3 139.176
141.755 102.843 138.949
141.745 103.724 137.823
142.303 101.809 138.613
142.151 105.273 138.95
141.936 104.558 136.803
142.161 103.323 136.754
153.5 107.812 118.06
154.877 106.878 117.625
154.993 108.735 117.886
155.626 106.078 118.518
154.555 105.364 118.237
152.427 107.046 118.842
152.406 108.373 118.864
154.85 109.982 118.917
156.119 109.217 118.836
153.371 104.687 118.741
152.335 105.674 119.23
152.206 104.294 119.816
151.452 106.265 119.945
154.177 103.871 119.104
152.028 103.079 120.492
151.139 103.959 120.882
152.225 109.351 119.641
153.514 110.215 119.725
152.195 109.949 120.948
154.648 110.57 120.207
151.378 108.501 119.956
151.063 109.916 121.658
152.357 110.291 121.894
156.477 108.061 119.873
155.941 106.485 119.842
156.185 106.772 121.423
155.544 105.138 120.075
156.507 109.246 120.362
156.348 107.215 122.505
155.856 105.854 122.521
149.185 106.278 122.702
149.788 107.063 121.565
149.104 107.224 122.859
150.465 107.848 120.637
150.572 106.662 120.663
149.301 105.273 122.799
148.793 105.527 123.82
148.532 107.372 123.96
149 108.022 123.116
150.546 105.573 120.892
149.889 104.904 122.127
150.534 104.393 121.469
149.472 104.194 123.17
150.66 103.233 121.936
148.229 105.732 124.885
148.063 106.725 124.973
147.728 106.055 125.967
147.883 107.567 125.138
148.42 104.832 124.937
147.313 105.432 126.921
147.232 106.328 127.011
149.549 108.702 122.59
150.28 108.731 121.011
150.176 109.413 121.994
148.891 108.796 123.747
150.373 109.835 122.977
150.475 99.1909 135.102
150.6 99.9428 136.009
151.245 100.084 134.499
150.649 100.753 136.834
149.884 100.003 137.393
149.813 98.3425 135.61
150.342 98.5072 134.115
151.814 100.219 133.063
151.944 100.858 133.857
149.195 99.2845 137.886
149.234 98.2832 136.928
148.64 98.3642 138.352
150.917 98.7882 132.76
151.669 99.7919 132.148
151.459 99.1881 131.249
152.054 101.487 134.495
151.476 101.415 136.214
152.193 102.163 135.234
151.623 106.601 137.178
151.643 107.537 136.288
152.399 107.123 135.621
151.52 107.964 135.267
150.745 107.633 136.667
150.606 106.069 138.291
151.392 105.556 137.6
152.931 106.628 134.898
153.146 107.552 134.23
149.916 107.238 137.66
149.917 106.526 138.72
149.021 106.918 138.877
151.995 105.181 136.697
152.717 105.76 135.21
152.548 104.777 135.548
153.101 108.171 133.41
152.137 108.402 133.942
152.841 108.703 132.602
153.783 101.395 122.62
154.247 102.164 123.159
154.428 102.581 121.506
154.585 102.859 123.749
154.026 101.817 124.615
153.06 100.372 123.753
153.239 100.758 122.22
154.469 103.02 120.052
155.037 103.761 120.697
153.454 100.947 125.649
152.935 100.116 125.133
152.837 100.013 126.644
152.801 101.232 121.496
153.491 102.469 120.144
152.374 102.192 120.925
155.308 104.428 121.512
155.1 103.775 123.219
155.554 104.809 122.799
155.67 109.912 124.369
154.93 110.295 124.142
155.738 110.324 122.608
154.063 110.328 124.158
154.156 110.111 125.679
155.457 109.544 126.148
156.083 109.231 124.848
156.317 109.929 121.394
155.419 110.65 121.18
154.109 110.111 126.989
154.956 109.817 127.339
154.028 109.742 128.352
156.314 108.609 124.229
156.48 108.933 122.241
156.452 107.815 123.362
154.298 110.613 121.667
153.553 110.307 123.376
153.006 110.267 122.569
144.313 99.0512 135.791
143.692 99.9007 135.57
143.563 99.978 136.964
143.317 100.795 135.342
144.006 99.913 134.288
145.072 98.2575 134.568
145.096 98.3835 135.928
143.621 100.159 138.312
142.793 100.895 137.921
144.484 99.5269 133.189
144.962 98.4815 133.36
145.181 99.032 132.066
145.294 98.5807 137.118
144.513 99.443 138.389
145.557 98.741 138.386
142.477 101.597 137.08
143.064 101.652 135.563
142.551 102.533 136.186
143.492 107.756 136.253
144.46 107.705 136.549
143.665 106.836 137.394
145.348 107.656 136.796
145.205 108.442 135.801
143.437 108.473 135.131
142.68 107.606 135.848
142.901 106.061 138.247
143.767 106.261 138.739
145.256 109.051 134.768
144.221 109.07 134.386
145.219 109.528 133.678
142.254 106.659 136.126
142.336 105.823 137.522
142.063 105.545 136.473
144.776 106.543 138.773
145.689 107.147 137.532
145.923 106.797 138.709
147.944 102.574 127.04
148.484 102.043 126.109
148.497 103.088 125.796
148.995 101.556 125.2
148.371 101.06 126.4
147.419 102.166 128.235
147.315 103.021 127.836
148.41 103.97 125.366
148.936 103.584 124.501
147.83 100.739 127.604
147.363 101.41 128.604
147.224 100.47 128.894
147.211 103.79 127.513
147.919 104.331 126.277
147.21 104.686 127.237
149.453 103.292 123.795
149.533 102.172 124.205
150.111 102.778 123.058
147.623 109.444 127.03
146.882 108.896 127.67
147.577 108.889 126.278
146.293 108.313 128.306
146.082 108.873 128.921
147.831 109.825 127.739
148.559 109.796 126.48
148.238 108.918 124.972
147.657 108.25 125.644
146.129 109.331 129.472
147.109 109.777 128.934
146.355 109.848 130.151
149.231 109.823 125.406
148.897 109.437 124.532
149.9 109.794 124.199
147.33 107.637 126.493
146.558 107.695 127.84
146.936 106.964 127.397
POLYGONS 1280  5120
3 164 162 163
3 163 44 164
3 162 43 163
3 164 42 162
3 166 165 163
3 163 43 166
3 165 44 163
3 166 14 165
3 168 167 162
3 162 42 168
3 167 43 162
3 168 13 167
3 170 169 164
3 164 44 170
3 169 42 164
3 170 12 169
3 173 171 172
3 172 46 173
3 171 43 172
3 173 45 171
3 167 174 172
3 172 43 167
3 174 46 172
3 167 13 174
3 175 166 171
3 171 45 175
3 166 43 171
3 175 14 166
3 177 176 173
3 173 46 177
3 176 45 173
3 177 4 176
3 180 178 179
3 179 48 180
3 178 42 179
3 180 47 178
3 169 181 179
3 179 42 169
3 181 48 179
3 169 12 181
3 182 168 178
3 178 47 182
3 168 42 178
3 182 13 168
3 184 183 180
3 180 48 184
3 183 47 180
3 184 8 183
3 187 185 186
3 186 50 187
3 185 44 186
3 187 49 185
3 165 188 186
3 186 44 165
3 188 50 186
3 165 14 188
3 189 170 185
3 185 49 189
3 170 44 185
3 189 12 170
3 191 190 187
3 187 50 191
3 190 49 187
3 191 7 190
3 194 192 193
3 193 53 194
3 192 52 193
3 194 51 192
3 196 195 193
3 193 52 196
3 195 53 193
3 196 16 195
3 198 197 192
3 192 51 198
3 197 52 192
3 198 14 197
3 200 199 194
3 194 53 200
3 199 51 194
3 200 15 199
3 203 201 202
3 202 45 203
3 201 52 202
3 203 54 201
3 197 175 202
3 202 52 197
3 175 45 202
3 197 14 175
3 204 196 201
3 201 54 204
3 196 52 201
3 204 16 196
3 176 205 203
3 203 45 176
3 205 54 203
3 176 4 205
3 208 206 207
3 207 55 208
3 206 51 207
3 208 50 206
3 199 209 207
3 207 51 199
3 209 55 207
3 199 15 209
3 188 198 206
3 206 50 188
3 198 51 206
3 188 14 198
3 210 191 208
3 208 55 210
3 191 50 208
3 210 7 191
3 213 211 212
3 212 57 213
3 211 53 212
3 213 56 211
3 195 214 212
3 212 53 195
3 214 57 212
3 195 16 214
3 215 200 211
3 211 56 215
3 200 53 211
3 215 15 200
3 217 216 213
3 213 57 217
3 216 56 213
3 217 9 216
3 220 218 219
3 219 60 220
3 218 59 219
3 220 58 218
3 222 221 219
3 219 59 222
3 221 60 219
3 222 19 221
3 224 223 218
3 218 58 224
3 223 59 218
3 224 18 223
3 226 225 220
3 220 60 226
3 225 58 220
3 226 17 225
3 229 227 228
3 228 62 229
3 227 59 228
3 229 61 227
3 223 230 228
3 228 59 223
3 230 62 228
3 223 18 230
3 231 222 227
3 227 61 231
3 222 59 227
3 231 19 222
3 233 232 229
3 229 62 233
3 232 61 229
3 233 5 232
3 236 234 235
3 235 64 236
3 234 58 235
3 236 63 234
3 225 237 235
3 235 58 225
3 237 64 235
3 225 17 237
3 238 224 234
3 234 63 238
3 224 58 234
3 238 18 224
3 240 239 236
3 236 64 240
3 239 63 236
3 240 6 239
3 243 241 242
3 242 66 243
3 241 60 242
3 243 65 241
3 221 244 242
3 242 60 221
3 244 66 242
3 221 19 244
3 245 226 241
3 241 65 245
3 226 60 241
3 245 17 226
3 247 246 243
3 243 66 247
3 246 65 243
3 247 11 246
3 250 248 249
3 249 69 250
3 248 68 249
3 250 67 248
3 252 251 249
3 249 68 252
3 251 69 249
3 252 18 251
3 254 253 248
3 248 67 254
3 253 68 248
3 254 21 253
3 256 255 250
3 250 69 256
3 255 67 250
3 256 20 255
3 259 257 258
3 258 70 259
3 257 68 258
3 259 62 257
3 253 260 258
3 258 68 253
3 260 70 258
3 253 21 260
3 230 252 257
3 257 62 230
3 252 68 257
3 230 18 252
3 261 233 259
3 259 70 261
3 233 62 259
3 261 5 233
3 264 262 263
3 263 72 264
3 262 67 263
3 264 71 262
3 255 265 263
3 263 67 255
3 265 72 263
3 255 20 265
3 266 254 262
3 262 71 266
3 254 67 262
3 266 21 254
3 268 267 264
3 264 72 268
3 267 71 264
3 268 10 267
3 271 269 270
3 270 63 271
3 269 69 270
3 271 73 269
3 251 238 270
3 270 69 251
3 238 63 270
3 251 18 238
3 272 256 269
3 269 73 272
3 256 69 269
3 272 20 256
3 239 273 271
3 271 63 239
3 273 73 271
3 239 6 273
3 276 274 275
3 275 76 276
3 274 75 275
3 276 74 274
3 278 277 275
3 275 75 278
3 277 76 275
3 278 24 277
3 280 279 274
3 274 74 280
3 279 75 274
3 280 23 279
3 282 281 276
3 276 76 282
3 281 74 276
3 282 22 281
3 285 283 284
3 284 78 285
3 283 75 284
3 285 77 283
3 279 286 284
3 284 75 279
3 286 78 284
3 279 23 286
3 287 278 283
3 283 77 287
3 278 75 283
3 287 24 278
3 289 288 285
3 285 78 289
3 288 77 285
3 289 0 288
3 292 290 291
3 291 80 292
3 290 74 291
3 292 79 290
3 281 293 291
3 291 74 281
3 293 80 291
3 281 22 293
3 294 280 290
3 290 79 294
3 280 74 290
3 294 23 280
3 296 295 292
3 292 80 296
3 295 79 292
3 296 4 295
3 299 297 298
3 298 82 299
3 297 76 298
3 299 81 297
3 277 300 298
3 298 76 277
3 300 82 298
3 277 24 300
3 301 282 297
3 297 81 301
3 282 76 297
3 301 22 282
3 303 302 299
3 299 82 303
3 302 81 299
3 303 3 302
3 306 304 305
3 305 85 306
3 304 84 305
3 306 83 304
3 308 307 305
3 305 84 308
3 307 85 305
3 308 26 307
3 310 309 304
3 304 83 310
3 309 84 304
3 310 24 309
3 312 311 306
3 306 85 312
3 311 83 306
3 312 25 311
3 315 313 314
3 314 77 315
3 313 84 314
3 315 86 313
3 309 287 314
3 314 84 309
3 287 77 314
3 309 24 287
3 316 308 313
3 313 86 316
3 308 84 313
3 316 26 308
3 288 317 315
3 315 77 288
3 317 86 315
3 288 0 317
3 320 318 319
3 319 87 320
3 318 83 319
3 320 82 318
3 311 321 319
3 319 83 311
3 321 87 319
3 311 25 321
3 300 310 318
3 318 82 300
3 310 83 318
3 300 24 310
3 322 303 320
3 320 87 322
3 303 82 320
3 322 3 303
3 325 323 324
3 324 89 325
3 323 85 324
3 325 88 323
3 307 326 324
3 324 85 307
3 326 89 324
3 307 26 326
3 327 312 323
3 323 88 327
3 312 85 323
3 327 25 312
3 329 328 325
3 325 89 329
3 328 88 325
3 329 5 328
3 332 330 331
3 331 92 332
3 330 91 331
3 332 90 330
3 334 333 331
3 331 91 334
3 333 92 331
3 334 29 333
3 336 335 330
3 330 90 336
3 335 91 330
3 336 28 335
3 338 337 332
3 332 92 338
3 337 90 332
3 338 27 337
3 341 339 340
3 340 94 341
3 339 91 340
3 341 93 339
3 335 342 340
3 340 91 335
3 342 94 340
3 335 28 342
3 343 334 339
3 339 93 343
3 334 91 339
3 343 29 334
3 345 344 341
3 341 94 345
3 344 93 341
3 345 2 344
3 348 346 347
3 347 96 348
3 346 90 347
3 348 95 346
3 337 349 347
3 347 90 337
3 349 96 347
3 337 27 349
3 350 336 346
3 346 95 350
3 336 90 346
3 350 28 336
3 352 351 348
3 348 96 352
3 351 95 348
3 352 7 351
3 355 353 354
3 354 98 355
3 353 92 354
3 355 97 353
3 333 356 354
3 354 92 333
3 356 98 354
3 333 29 356
3 357 338 353
3 353 97 357
3 338 92 353
3 357 27 338
3 359 358 355
3 355 98 359
3 358 97 355
3 359 1 358
3 362 360 361
3 361 101 362
3 360 100 361
3 362 99 360
3 364 363 361
3 361 100 364
3 363 101 361
3 364 31 363
3 366 365 360
3 360 99 366
3 365 100 360
3 366 29 365
3 368 367 362
3 362 101 368
3 367 99 362
3 368 30 367
3 371 369 370
3 370 93 371
3 369 100 370
3 371 102 369
3 365 343 370
3 370 100 365
3 343 93 370
3 365 29 343
3 372 364 369
3 369 102 372
3 364 100 369
3 372 31 364
3 344 373 371
3 371 93 344
3 373 102 371
3 344 2 373
3 376 374 375
3 375 103 376
3 374 99 375
3 376 98 374
3 367 377 375
3 375 99 367
3 377 103 375
3 367 30 377
3 356 366 374
3 374 98 356
3 366 99 374
3 356 29 366
3 378 359 376
3 376 103 378
3 359 98 376
3 378 1 359
3 381 379 380
3 380 105 381
3 379 101 380
3 381 104 379
3 363 382 380
3 380 101 363
3 382 105 380
3 363 31 382
3 383 368 379
3 379 104 383
3 368 101 379
3 383 30 368
3 385 384 381
3 381 105 385
3 384 104 381
3 385 6 384
3 388 386 387
3 387 108 388
3 386 107 387
3 388 106 386
3 390 389 387
3 387 107 390
3 389 108 387
3 390 34 389
3 392 391 386
3 386 106 392
3 391 107 386
3 392 33 391
3 394 393 388
3 388 108 394
3 393 106 388
3 394 32 393
3 397 395 396
3 396 110 397
3 395 107 396
3 397 109 395
3 391 398 396
3 396 107 391
3 398 110 396
3 391 33 398
3 399 390 395
3 395 109 399
3 390 107 395
3 399 34 390
3 401 400 397
3 397 110 401
3 400 109 397
3 401 8 400
3 404 402 403
3 403 112 404
3 402 106 403
3 404 111 402
3 393 405 403
3 403 106 393
3 405 112 403
3 393 32 405
3 406 392 402
3 402 111 406
3 392 106 402
3 406 33 392
3 408 407 404
3 404 112 408
3 407 111 404
3 408 0 407
3 411 409 410
3 410 114 411
3 409 108 410
3 411 113 409
3 389 412 410
3 410 108 389
3 412 114 410
3 389 34 412
3 413 394 409
3 409 113 413
3 394 108 409
3 413 32 394
3 415 414 411
3 411 114 415
3 414 113 411
3 415 11 414
3 418 416 417
3 417 117 418
3 416 116 417
3 418 115 416
3 420 419 417
3 417 116 420
3 419 117 417
3 420 36 419
3 422 421 416
3 416 115 422
3 421 116 416
3 422 34 421
3 424 423 418
3 418 117 424
3 423 115 418
3 424 35 423
3 427 425 426
3 426 109 427
3 425 116 426
3 427 118 425
3 421 399 426
3 426 116 421
3 399 109 426
3 421 34 399
3 428 420 425
3 425 118 428
3 420 116 425
3 428 36 420
3 400 429 427
3 427 109 400
3 429 118 427
3 400 8 429
3 432 430 431
3 431 119 432
3 430 115 431
3 432 114 430
3 423 433 431
3 431 115 423
3 433 119 431
3 423 35 433
3 412 422 430
3 430 114 412
3 422 115 430
3 412 34 422
3 434 415 432
3 432 119 434
3 415 114 432
3 434 11 415
3 437 435 436
3 436 121 437
3 435 117 436
3 437 120 435
3 419 438 436
3 436 117 419
3 438 121 436
3 419 36 438
3 439 424 435
3 435 120 439
3 424 117 435
3 439 35 424
3 441 440 437
3 437 121 441
3 440 120 437
3 441 1 440
3 444 442 443
3 443 124 444
3 442 123 443
3 444 122 442
3 446 445 443
3 443 123 446
3 445 124 443
3 446 39 445
3 448 447 442
3 442 122 448
3 447 123 442
3 448 38 447
3 450 449 444
3 444 124 450
3 449 122 444
3 450 37 449
3 453 451 452
3 452 126 453
3 451 123 452
3 453 125 451
3 447 454 452
3 452 123 447
3 454 126 452
3 447 38 454
3 455 446 451
3 451 125 455
3 446 123 451
3 455 39 446
3 457 456 453
3 453 126 457
3 456 125 453
3 457 9 456
3 460 458 459
3 459 128 460
3 458 122 459
3 460 127 458
3 449 461 459
3 459 122 449
3 461 128 459
3 449 37 461
3 462 448 458
3 458 127 462
3 448 122 458
3 462 38 448
3 464 463 460
3 460 128 464
3 463 127 460
3 464 10 463
3 467 465 466
3 466 130 467
3 465 124 466
3 467 129 465
3 445 468 466
3 466 124 445
3 468 130 466
3 445 39 468
3 469 450 465
3 465 129 469
3 450 124 465
3 469 37 450
3 471 470 467
3 467 130 471
3 470 129 467
3 471 3 470
3 474 472 473
3 473 133 474
3 472 132 473
3 474 131 472
3 476 475 473
3 473 132 476
3 475 133 473
3 476 38 475
3 478 477 472
3 472 131 478
3 477 132 472
3 478 41 477
3 480 479 474
3 474 133 480
3 479 131 474
3 480 40 479
3 483 481 482
3 482 134 483
3 481 132 482
3 483 126 481
3 477 484 482
3 482 132 477
3 484 134 482
3 477 41 484
3 454 476 481
3 481 126 454
3 476 132 481
3 454 38 476
3 485 457 483
3 483 134 485
3 457 126 483
3 485 9 457
3 488 486 487
3 487 136 488
3 486 131 487
3 488 135 486
3 479 489 487
3 487 131 479
3 489 136 487
3 479 40 489
3 490 478 486
3 486 135 490
3 478 131 486
3 490 41 478
3 492 491 488
3 488 136 492
3 491 135 488
3 492 2 491
3 495 493 494
3 494 127 495
3 493 133 494
3 495 137 493
3 475 462 494
3 494 133 475
3 462 127 494
3 475 38 462
3 496 480 493
3 493 137 496
3 480 133 493
3 496 40 480
3 463 497 495
3 495 127 463
3 497 137 495
3 463 10 497
3 500 498 499
3 499 140 500
3 498 139 499
3 500 138 498
3 502 501 499
3 499 139 502
3 501 140 499
3 502 33 501
3 504 503 498
3 498 138 504
3 503 139 498
3 504 13 503
3 506 505 500
3 500 140 506
3 505 138 500
3 506 23 505
3 509 507 508
3 508 47 509
3 507 139 508
3 509 110 507
3 503 182 508
3 508 139 503
3 182 47 508
3 503 13 182
3 398 502 507
3 507 110 398
3 502 139 507
3 398 33 502
3 183 401 509
3 509 47 183
3 401 110 509
3 183 8 401
3 512 510 511
3 511 79 512
3 510 138 511
3 512 46 510
3 505 294 511
3 511 138 505
3 294 79 511
3 505 23 294
3 174 504 510
3 510 46 174
3 504 138 510
3 174 13 504
3 295 177 512
3 512 79 295
3 177 46 512
3 295 4 177
3 515 513 514
3 514 111 515
3 513 140 514
3 515 78 513
3 501 406 514
3 514 140 501
3 406 111 514
3 501 33 406
3 286 506 513
3 513 78 286
3 506 140 513
3 286 23 506
3 407 289 515
3 515 111 407
3 289 78 515
3 407 0 289
3 518 516 517
3 517 143 518
3 516 142 517
3 518 141 516
3 520 519 517
3 517 142 520
3 519 143 517
3 520 19 519
3 522 521 516
3 516 141 522
3 521 142 516
3 522 32 521
3 524 523 518
3 518 143 524
3 523 141 518
3 524 26 523
3 527 525 526
3 526 113 527
3 525 142 526
3 527 66 525
3 521 413 526
3 526 142 521
3 413 113 526
3 521 32 413
3 244 520 525
3 525 66 244
3 520 142 525
3 244 19 520
3 414 247 527
3 527 113 414
3 247 66 527
3 414 11 247
3 530 528 529
3 529 86 530
3 528 141 529
3 530 112 528
3 523 316 529
3 529 141 523
3 316 86 529
3 523 26 316
3 405 522 528
3 528 112 405
3 522 141 528
3 405 32 522
3 317 408 530
3 530 86 317
3 408 112 530
3 317 0 408
3 533 531 532
3 532 61 533
3 531 143 532
3 533 89 531
3 519 231 532
3 532 143 519
3 231 61 532
3 519 19 231
3 326 524 531
3 531 89 326
3 524 143 531
3 326 26 524
3 232 329 533
3 533 61 232
3 329 89 533
3 232 5 329
3 536 534 535
3 535 146 536
3 534 145 535
3 536 144 534
3 538 537 535
3 535 145 538
3 537 146 535
3 538 22 537
3 540 539 534
3 534 144 540
3 539 145 534
3 540 16 539
3 542 541 536
3 536 146 542
3 541 144 536
3 542 39 541
3 545 543 544
3 544 54 545
3 543 145 544
3 545 80 543
3 539 204 544
3 544 145 539
3 204 54 544
3 539 16 204
3 293 538 543
3 543 80 293
3 538 145 543
3 293 22 538
3 205 296 545
3 545 54 205
3 296 80 545
3 205 4 296
3 548 546 547
3 547 125 548
3 546 144 547
3 548 57 546
3 541 455 547
3 547 144 541
3 455 125 547
3 541 39 455
3 214 540 546
3 546 57 214
3 540 144 546
3 214 16 540
3 456 217 548
3 548 125 456
3 217 57 548
3 456 9 217
3 551 549 550
3 550 81 551
3 549 146 550
3 551 130 549
3 537 301 550
3 550 146 537
3 301 81 550
3 537 22 301
3 468 542 549
3 549 130 468
3 542 146 549
3 468 39 542
3 302 471 551
3 551 81 302
3 471 130 551
3 302 3 471
3 554 552 553
3 553 149 554
3 552 148 553
3 554 147 552
3 556 555 553
3 553 148 556
3 555 149 553
3 556 21 555
3 558 557 552
3 552 147 558
3 557 148 552
3 558 25 557
3 560 559 554
3 554 149 560
3 559 147 554
3 560 37 559
3 563 561 562
3 562 88 563
3 561 148 562
3 563 70 561
3 557 327 562
3 562 148 557
3 327 88 562
3 557 25 327
3 260 556 561
3 561 70 260
3 556 148 561
3 260 21 556
3 328 261 563
3 563 88 328
3 261 70 563
3 328 5 261
3 566 564 565
3 565 129 566
3 564 147 565
3 566 87 564
3 559 469 565
3 565 147 559
3 469 129 565
3 559 37 469
3 321 558 564
3 564 87 321
3 558 147 564
3 321 25 558
3 470 322 566
3 566 129 470
3 322 87 566
3 470 3 322
3 569 567 568
3 568 71 569
3 567 149 568
3 569 128 567
3 555 266 568
3 568 149 555
3 266 71 568
3 555 21 266
3 461 560 567
3 567 128 461
3 560 149 567
3 461 37 560
3 267 464 569
3 569 71 267
3 464 128 569
3 267 10 464
3 572 570 571
3 571 152 572
3 570 151 571
3 572 150 570
3 574 573 571
3 571 151 574
3 573 152 571
3 574 27 573
3 576 575 570
3 570 150 576
3 575 151 570
3 576 12 575
3 578 577 572
3 572 152 578
3 577 150 572
3 578 36 577
3 581 579 580
3 580 49 581
3 579 151 580
3 581 96 579
3 575 189 580
3 580 151 575
3 189 49 580
3 575 12 189
3 349 574 579
3 579 96 349
3 574 151 579
3 349 27 574
3 190 352 581
3 581 49 190
3 352 96 581
3 190 7 352
3 584 582 583
3 583 118 584
3 582 150 583
3 584 48 582
3 577 428 583
3 583 150 577
3 428 118 583
3 577 36 428
3 181 576 582
3 582 48 181
3 576 150 582
3 181 12 576
3 429 184 584
3 584 118 429
3 184 48 584
3 429 8 184
3 587 585 586
3 586 97 587
3 585 152 586
3 587 121 585
3 573 357 586
3 586 152 573
3 357 97 586
3 573 27 357
3 438 578 585
3 585 121 438
3 578 152 585
3 438 36 578
3 358 441 587
3 587 97 358
3 441 121 587
3 358 1 441
3 590 588 589
3 589 155 590
3 588 154 589
3 590 153 588
3 592 591 589
3 589 154 592
3 591 155 589
3 592 17 591
3 594 593 588
3 588 153 594
3 593 154 588
3 594 30 593
3 596 595 590
3 590 155 596
3 595 153 590
3 596 35 595
3 599 597 598
3 598 104 599
3 597 154 598
3 599 64 597
3 593 383 598
3 598 154 593
3 383 104 598
3 593 30 383
3 237 592 597
3 597 64 237
3 592 154 597
3 237 17 592
3 384 240 599
3 599 104 384
3 240 64 599
3 384 6 240
3 602 600 601
3 601 120 602
3 600 153 601
3 602 103 600
3 595 439 601
3 601 153 595
3 439 120 601
3 595 35 439
3 377 594 600
3 600 103 377
3 594 153 600
3 377 30 594
3 440 378 602
3 602 120 440
3 378 103 602
3 440 1 378
3 605 603 604
3 604 65 605
3 603 155 604
3 605 119 603
3 591 245 604
3 604 155 591
3 245 65 604
3 591 17 245
3 433 596 603
3 603 119 433
3 596 155 603
3 433 35 596
3 246 434 605
3 605 65 246
3 434 119 605
3 246 11 434
3 608 606 607
3 607 158 608
3 606 157 607
3 608 156 606
3 610 609 607
3 607 157 610
3 609 158 607
3 610 15 609
3 612 611 606
3 606 156 612
3 611 157 606
3 612 28 611
3 614 613 608
3 608 158 614
3 613 156 608
3 614 41 613
3 617 615 616
3 616 95 617
3 615 157 616
3 617 55 615
3 611 350 616
3 616 157 611
3 350 95 616
3 611 28 350
3 209 610 615
3 615 55 209
3 610 157 615
3 209 15 610
3 351 210 617
3 617 95 351
3 210 55 617
3 351 7 210
3 620 618 619
3 619 135 620
3 618 156 619
3 620 94 618
3 613 490 619
3 619 156 613
3 490 135 619
3 613 41 490
3 342 612 618
3 618 94 342
3 612 156 618
3 342 28 612
3 491 345 620
3 620 135 491
3 345 94 620
3 491 2 345
3 623 621 622
3 622 56 623
3 621 158 622
3 623 134 621
3 609 215 622
3 622 158 609
3 215 56 622
3 609 15 215
3 484 614 621
3 621 134 484
3 614 158 621
3 484 41 614
3 216 485 623
3 623 56 216
3 485 134 623
3 216 9 485
3 626 624 625
3 625 161 626
3 624 160 625
3 626 159 624
3 628 627 625
3 625 160 628
3 627 161 625
3 628 31 627
3 630 629 624
3 624 159 630
3 629 160 624
3 630 20 629
3 632 631 626
3 626 161 632
3 631 159 626
3 632 40 631
3 635 633 634
3 634 73 635
3 633 160 634
3 635 105 633
3 629 272 634
3 634 160 629
3 272 73 634
3 629 20 272
3 382 628 633
3 633 105 382
3 628 160 633
3 382 31 628
3 273 385 635
3 635 73 273
3 385 105 635
3 273 6 385
3 638 636 637
3 637 137 638
3 636 159 637
3 638 72 636
3 631 496 637
3 637 159 631
3 496 137 637
3 631 40 496
3 265 630 636
3 636 72 265
3 630 159 636
3 265 20 630
3 497 268 638
3 638 137 497
3 268 72 638
3 497 10 268
3 641 639 640
3 640 102 641
3 639 161 640
3 641 136 639
3 627 372 640
3 640 161 627
3 372 102 640
3 627 31 372
3 489 632 639
3 639 136 489
3 632 161 639
3 489 40 632
3 373 492 641
3 641 102 373
3 492 136 641
3 373 2 492
