# vtk DataFile Version 3.0
this file was written using fslvtkio
ASCII
DATASET POLYDATA
POINTS 642 float
145.728 136.373 123.237
115.184 137.962 124.179
119.243 147.326 107.822
140.478 146.123 107.074
139.821 119.017 107.704
137.762 161.825 115.429
124.824 163.671 116.234
120.174 120.089 108.997
129.95 125.19 122.711
129.957 137.803 100.446
131.132 161.438 101.698
130.97 144.589 129.278
123.445 117.512 115.554
135.63 117.458 114.803
129.178 113.654 106.648
125.836 127.206 105.228
133.923 126.353 104.574
128.014 153.148 121.649
131.447 167.489 112.519
135.109 152.645 122.669
125.749 169.477 107.764
137.005 168.821 106.369
139.897 132.305 108.853
143.396 125.767 116.253
139.988 139.513 117.73
139.756 154.708 111.09
141.873 147.621 121.673
116.47 126.465 117.439
120.364 133.569 109.698
120.348 141.444 118.007
121.614 149.159 121.715
122.023 157.779 111.718
139.782 139.694 130.338
140.153 125.613 126.316
130.117 132.191 131.114
122.086 140.515 130.08
120.135 126.322 126.405
138.789 154.154 102.011
130.608 145.948 100.37
136.877 143.24 100.412
123.623 154.907 103.655
123.579 143.144 101.498
129.537 117.55 114.936
133.261 111.072 111.732
124.944 110.85 111.726
136.547 113.431 105.563
140.318 114.343 111.506
132.866 123.512 117.68
127.03 123.639 117.726
118.484 115.434 112.906
122.522 114.719 106.271
126.537 119.67 103.242
132.422 119.097 102.916
129.876 125.723 104.948
137.23 121.874 104.052
122.235 122.731 105.14
127.94 132.926 102.616
132.044 132.561 102.925
130.034 160.865 116.474
133.273 159.98 116.184
131.505 152.811 120.965
135.696 157.945 117.967
134.357 165.509 114.223
128.443 166.883 114.391
127.437 160.683 117.897
129.006 149.255 126.965
133.63 149.222 127.301
131.118 169.454 107.013
133.943 170.269 109.369
129.019 170.981 109.813
136.831 167.307 111.77
134.516 166.052 103.168
128.666 166.463 103.427
125.073 169.343 112.694
141.277 128.394 113.046
142.137 133.524 117.307
139.95 135.792 112.803
145.279 138.694 120.095
144.649 131.835 120.292
142.939 120.29 111.983
139.677 125.136 108.69
140.122 139.607 108.451
139.636 143.66 112.266
139.489 147.101 115.245
142.229 143.843 119.438
137.883 150.74 116.828
145.249 142.216 122.943
140.397 150.53 109.22
138.998 159.254 113.39
137.715 153.959 118.181
118.96 129.205 113.84
120.17 137.003 113.587
117.905 134.355 117.774
120.511 144.6 112.969
120.328 140.688 109.364
121.028 126.272 109.818
117.696 121.79 113.353
116.195 133.239 121.139
116.565 140.242 120.954
120.721 145.531 119.958
122.089 149.599 114.904
123.053 153.62 116.68
120.233 152.116 110.033
116.836 144.089 123.797
123.829 156.954 118.627
122.633 162.027 114.365
140.728 131.725 130.457
135.539 128.178 130.004
135.525 135.113 132.287
129.865 127.152 128.208
134.923 123.923 124.386
143.991 130.804 125.817
143.666 137.719 127.359
135.134 142.538 131.127
130.393 138.769 131.677
125.307 135.621 132.664
124.699 128.474 130.711
120.515 132.896 130.344
125.072 124.417 124.882
126.768 142.924 130.65
117.964 139.023 127.618
116.623 131.821 126.428
135.075 150.864 98.506
136.074 145.988 92.5144
141.224 149.069 96.5746
133.994 139.766 98.9437
129.755 142.861 96.3285
131.071 153.245 101.837
135.111 158.133 102.441
141.43 151.103 103.365
139.211 144.398 103.486
121.288 148.333 99.8045
123.707 146.575 92.8725
126.585 149.775 100.984
125.954 140.075 99.4768
120.535 144.645 104.603
119.326 152.023 104.582
127.088 159.216 102.82
140.352 120.48 114.822
137.627 125.338 118.658
142.796 126.627 121.079
141.424 144.298 126.019
138.005 146.833 127.995
138.833 150.636 123.118
135.829 135.559 102.701
137.467 129.153 105.943
138.618 137.475 104.551
140.846 156.06 105.915
138.927 162.447 108.963
138.742 162.416 103.999
122.298 125.389 119.22
118.827 120.904 116.365
117.362 127.008 122.016
120.738 145.573 126.455
124.767 151.642 122.257
124.716 147.635 127.821
121.385 138.288 105.241
122.357 130.372 106.66
124.244 135.572 103.241
123.806 164.288 104.219
122.575 165.102 109.686
121.706 157.944 107.199
130.93 114.051 113.278
129.128 111.382 111.66
127.52 113.943 113.234
126.901 111.257 108.68
131.117 111.715 108.782
134.424 114.417 113.069
132.582 117.427 114.877
126.473 117.457 115.226
124.245 114.141 113.55
135.144 110.725 108.494
136.787 111.928 111.723
138.475 112.284 108.881
137.923 114.801 113.45
133.198 112.784 106.088
138.468 115.809 106.724
140.711 115.507 109.119
131.31 121.076 115.798
128.217 121.19 116.019
129.987 123.887 117.637
125.191 120.936 116.218
134.309 120.963 115.642
131.408 125.412 119.851
128.441 125.312 119.977
121.544 112.145 112.059
123.118 111.228 108.475
120.214 113.156 109.638
125.476 112.995 105.962
121.03 114.969 114.25
118.998 116.612 110.376
120.763 116.591 108.102
129.425 119.288 103.551
131.171 122.842 102.432
128.221 123.006 102.516
132.084 125.797 104.499
133.68 122.492 101.898
131.079 115.442 104.549
127.645 115.791 104.253
125.627 123.616 102.933
127.529 126.26 105.02
135.184 119.941 103.04
134.14 116.389 104.12
136.801 117.407 104.522
135.848 124.247 103.253
138.475 120.071 105.966
124.806 116.719 104.484
123.847 120.554 103.702
122.592 118.464 105.957
124.094 124.946 104.579
121.326 121.053 107.286
128.699 129.091 104.213
131.157 128.847 104.7
129.99 132.111 103.094
133.19 129.525 104.387
126.813 130.244 104.429
128.944 135.609 102.026
131.031 135.439 102.013
131.686 160.05 116.114
132.796 155.676 117.805
130.196 156.002 117.597
132.842 152.397 121.938
133.681 153.801 118.965
132.089 163.466 114.519
131.166 163.577 114.407
129.09 155.752 118.598
129.942 153.061 121.502
134.328 159.417 117.575
133.85 163.735 115.086
135.33 162.192 116.117
132.268 167.039 113.504
135.268 153.893 119.036
136.658 159.951 116.768
136.032 163.289 114.549
129.682 165.108 114.975
128.882 161.786 117.036
127.976 164.414 116.132
127.776 156.774 118.824
130.843 167.299 113.144
126.311 164.963 115.192
125.89 161.487 117.539
130.422 151.31 124.503
132.216 151.031 124.834
131.197 148.749 126.385
134.71 151.09 125.379
128.232 151.219 124.835
130.026 146.788 128.536
132.374 146.648 128.549
132.533 169.462 107.777
131.548 170.726 108.829
129.799 169.773 107.948
131.015 170.312 111.211
132.213 170.03 111.169
135.484 169.841 108.066
134.051 169.273 106.807
128.259 169.364 107.129
127.173 169.612 109.255
133.35 169.359 112.594
135.638 169.662 111.61
135.248 167.537 113.39
137.533 168.081 109.173
137.463 164.703 113.216
132.949 168.521 104.74
129.956 168.789 105
131.465 166.819 103.138
127.2 168.168 105.139
135.653 167.887 104.214
132.781 164.232 101.915
129.91 164.38 101.866
126.819 171.269 112.432
129.33 170.306 112.907
127.021 169.209 114.214
124.457 170.25 110.217
124.701 166.774 114.213
141.591 130.996 115.14
140.699 134.095 115.37
140.729 132.074 112.982
139.645 137.505 115.377
140.931 136.604 117.585
142.809 129.972 116.572
142.697 127.144 114.621
140.455 129.965 111.037
140.568 133.764 110.551
143.43 136.319 119.112
143.66 133.032 118.746
145.342 135.534 120.193
143.43 128.897 118.246
142.471 138.836 119.047
146.369 137.619 121.368
146.128 133.879 121.776
141.993 124.526 112.814
140.581 126.199 111.12
140.825 122.59 110.959
139.681 128.572 109.034
143.58 123.396 114.044
141.454 118.922 109.622
140.125 121.994 108.227
140.669 137.811 110.74
140.029 139.93 113.126
140.499 141.328 110.536
138.958 141.363 115.327
139.93 136.149 108.717
140.283 142.972 108.016
140.108 145.111 109.725
139.779 144.985 118.789
139.856 146.714 119.1
138.86 149.1 116.087
140.083 148.832 119.218
142.24 146.111 120.485
141.324 141.5 119.042
139.537 143.197 116.982
139.076 150.692 113.183
138.27 153.231 113.661
145.043 143.637 120.961
144.609 141.644 119.655
146.81 140.868 121.284
144.083 144.824 122.29
145.958 139.447 123.138
139.094 145.333 113.925
139.958 149.313 111.922
140.647 147.353 110.707
139.905 152.472 110.291
140.587 148.404 107.991
138.471 155.048 115.019
138.143 152.284 118.06
139.379 156.828 116.375
139.946 150.439 120.439
138.991 157.092 112.036
138.878 160.556 114.882
138.483 158.084 117.033
119.647 133.184 113.6
119.49 135.744 115.967
118.233 132.245 115.313
119.035 137.867 118.152
120.267 139.159 115.978
120.286 134.833 111.369
120.299 130.473 111.936
117.649 128.116 115.61
117.258 130.837 117.441
120.354 141.023 113.833
120.281 139.026 111.759
120.139 142.576 111.278
120.606 137.49 109.564
121.04 142.843 115.497
120.28 146.208 110.329
119.751 144.076 108.686
119.996 126.743 112.058
118.249 125.568 113.842
119.476 123.33 111.835
116.283 123.978 115.275
120.381 129.698 109.995
120.405 123.069 109.447
118.895 119.85 111.01
116.95 134.021 119.465
117.493 137.575 119.503
115.688 136.758 121.187
118.863 140.665 119.443
117.201 130.379 119.149
115.227 135.459 122.519
115.277 139.097 122.562
122.354 147.301 117.977
123.725 151.141 115.818
123.365 149.013 118.556
122.755 156.007 114.242
122.706 153.58 113.123
121.751 145.178 116.968
120.185 143.871 119.038
121.08 147.566 120.816
123.357 150.858 119.341
121.226 150.964 112.412
121.272 146.777 114.171
120.294 148.543 111.405
121.078 154.595 110.991
119.218 149.543 108.934
118.376 143.015 120.449
118.588 144.95 121.97
116.136 142.443 122.516
119.46 146.341 123.297
115.444 141.171 124.121
123.121 155.335 117.915
121.888 157.916 115.835
122.363 159.659 116.837
122.382 159.846 113.18
124.274 152.26 119.681
123.874 160.47 117.725
123.108 163.301 115.592
138.346 129.779 130.664
135.684 131.601 131.428
138.286 133.662 131.729
132.934 133.072 131.407
133.025 129.775 130.493
137.691 126.751 128.547
140.442 127.998 129.233
140.142 135.578 130.526
137.865 137.192 131.571
132.891 127.117 128.764
135.171 125.479 127.606
132.639 125.317 126.404
137.529 124.521 125.592
129.945 129.314 129.94
129.828 125.363 125.789
132.197 124.547 123.43
142.366 130.662 128.365
142.373 134.436 128.943
143.79 133.944 126.87
141.819 138.109 129.071
142.411 127.816 126.62
145.479 133.961 124.723
144.967 137.366 125.376
135.386 138.656 131.861
132.94 136.542 131.775
132.887 140.208 130.944
130.365 135.433 131.904
137.43 141.084 130.886
132.991 143.693 130.21
130.777 142.012 130.692
124.829 132.05 131.88
122.185 130.511 131.304
122.69 134.407 132.022
120.428 129.321 129.114
122.483 127.587 128.914
127.249 129.748 131.053
127.584 133.168 131.879
123.36 138.092 131.592
120.907 136.653 130.719
124.735 125.992 128.038
127.078 126.958 129.417
127.318 125.121 126.776
122.411 125.321 126.058
127.673 124.451 123.528
127.981 136.622 132.726
125.853 139.194 131.802
128.418 140.331 131.646
124.35 141.93 130.96
128.94 143.899 130.18
118.955 135.574 129.066
118.495 131.854 128.612
117.12 135.08 127.341
118.49 128.843 126.847
119.736 139.539 129.271
116.473 138.809 125.847
115.829 135.338 125.188
135.384 149.697 94.0183
139.583 148.246 93.0724
137.875 149.761 97.1411
140.065 145.803 96.237
138.416 144.905 94.4436
134.056 146.77 95.9692
133.624 148.273 98.2709
137.072 152.43 100.035
139.641 151.015 98.9368
135.759 142.953 95.4233
133.286 144.095 95.4965
132.82 141.058 96.4564
130.309 144.74 98.462
135.872 141.566 98.9037
131.745 138.612 99.4744
129.817 139.832 97.1266
133.086 151.304 100.529
134.751 153.938 100.525
133.006 155.627 101.53
136.728 155.84 102.315
131.053 148.498 101.597
130.802 157.896 101.725
133.249 160.319 102.166
140.58 149.336 100.061
139.777 146.75 99.6383
139.996 147.582 102.44
138.014 143.956 101.65
140.722 152.438 101.249
140.838 148.818 105.148
140.393 145.393 105.286
121.134 148.055 96.1853
124.99 149.065 96.8173
123.995 149.662 100.421
127.631 147.21 100.765
126.936 146.814 97.2191
122.199 145.183 95.8541
121.515 145.405 99.1555
122.663 150.967 102.073
124.906 152.395 102.655
126.934 144.932 95.4653
124.174 143.551 95.5864
127.002 141.514 96.5847
124.45 141.805 100.066
128.105 138.696 99.638
121.865 146.555 102.394
120.889 149.615 102.706
120.213 148.118 104.152
121.663 152.4 103.751
122.351 143.955 103.123
119.427 146.025 106.255
119.076 149.839 105.969
126.901 154.197 102.461
128.709 150.97 101.892
128.694 156.009 102.229
125.429 156.99 103.585
128.732 160.739 101.742
138.894 122.788 116.922
140.119 125.521 119.71
140.923 124.042 117.649
141.931 126.328 123.832
139.122 125.023 122.846
136.584 122.085 116.203
138.14 118.842 114.484
142.331 122.517 115.813
142.86 126.124 118.177
136.474 124.811 121.901
135.175 124.948 117.865
133.733 124.421 120.901
140.62 116.874 113.99
143.484 119.883 113.94
142.595 116.899 111.732
144.083 129.311 120.759
144.219 128.52 123.891
145.41 131.605 123.19
139.831 145.482 127.364
138.711 148.897 125.595
140.547 147.56 124.875
136.804 151.588 122.991
136.871 150.205 125.92
138.976 143.199 129.551
140.95 141.781 128.438
142.041 146.142 123.634
140.622 149.405 122.568
135.9 148.131 127.787
136.776 144.683 129.745
134.599 146.114 129.576
142.568 140.96 127.007
143.151 143.248 124.569
144.263 140.462 125.223
138.387 151.845 120.396
136.626 152.962 119.876
136.753 155.914 118.094
136.412 131.911 104.523
138.005 133.263 105.462
137.369 135.908 103.572
138.932 134.638 106.858
139.106 130.563 107.126
135.744 127.957 104.887
134.777 130.765 104.239
135.928 139.768 102.209
137.999 140.472 102.46
138.362 126.845 106.896
137.182 125.172 104.874
138.544 123.254 106.36
134.011 133.636 102.3
134.527 137.745 101.658
132.866 136.317 101.819
139.447 140.976 103.82
139.52 138.343 106.386
140.155 141.95 105.798
139.301 159.368 107.457
139.16 163.245 106.463
139.961 159.12 105.066
138.21 166.165 104.951
138.283 166.158 107.821
139.252 158.301 109.825
140.264 155.901 108.561
140.344 155.2 103.315
138.856 157.688 103.044
138.163 165.067 110.491
138.733 161.089 111.182
138.094 163.198 112.621
141.492 153.68 107.658
142.589 153.478 103.903
141.25 151.236 106.397
137.259 160.687 102.527
136.945 165.04 103.326
135.122 162.561 102.387
120.686 122.97 117.784
118.395 124.295 118.998
119.986 125.778 120.552
116.755 126.903 119.378
116.736 122.906 117.188
120.674 118.93 115.111
122.767 121.727 116.848
120.99 125.567 123.256
118.199 126.823 124.527
115.998 120.592 115.474
118.275 117.153 115.292
116.646 118.111 112.695
124.659 124.46 118.276
123.51 125.028 122.384
126.158 125.188 121.228
116.521 129.55 124.319
116.457 129.971 121.521
115.876 132.78 123.547
122.457 148.735 124.804
124.561 149.809 124.963
122.905 146.571 127.04
126.372 150.581 125.546
126.567 152.399 122.022
123.183 150.528 122.119
120.708 147.717 124.051
121.39 143.207 128.351
123.536 144.204 129.138
126.617 155.777 119.679
125.144 154.153 120.13
125.778 158.043 118.478
118.617 145.051 125.265
119.302 142.399 127.394
117.041 142.079 125.95
125.677 145.402 129.256
126.909 148.8 127.612
127.834 146.359 129.002
122.202 134.093 106.266
123.436 132.697 104.826
122.39 136.509 104.037
125.01 131.4 104.348
124.146 129.021 105.634
120.884 131.653 108.049
121.149 135.625 107.569
122.231 140.809 103.494
123.706 139.602 102.696
122.958 126.301 106.016
121.563 128.069 107.721
121.691 124.425 107.397
120.413 139.176 107.203
120.469 141.562 104.701
119.581 142.68 106.629
125.442 138.024 102.379
126.085 134.114 102.603
127.146 136.81 101.98
122.409 165.113 106.739
122.116 161.443 108.332
122.352 161.001 105.702
121.532 158.193 109.541
122.226 161.403 110.651
123.461 168.247 108.446
124.186 167.777 105.441
123.686 159.782 103.861
122.557 156.352 105.034
122.581 163.545 112.07
123.363 167.737 111.168
123.525 165.799 113.386
125.906 166.465 103.655
125.355 162.146 103.037
127.517 163.504 102.715
120.761 154.884 106.054
120.396 155.238 108.818
119.266 152.357 107.499
POLYGONS 1280  5120
3 164 162 163
3 163 44 164
3 162 43 163
3 164 42 162
3 166 165 163
3 163 43 166
3 165 44 163
3 166 14 165
3 168 167 162
3 162 42 168
3 167 43 162
3 168 13 167
3 170 169 164
3 164 44 170
3 169 42 164
3 170 12 169
3 173 171 172
3 172 46 173
3 171 43 172
3 173 45 171
3 167 174 172
3 172 43 167
3 174 46 172
3 167 13 174
3 175 166 171
3 171 45 175
3 166 43 171
3 175 14 166
3 177 176 173
3 173 46 177
3 176 45 173
3 177 4 176
3 180 178 179
3 179 48 180
3 178 42 179
3 180 47 178
3 169 181 179
3 179 42 169
3 181 48 179
3 169 12 181
3 182 168 178
3 178 47 182
3 168 42 178
3 182 13 168
3 184 183 180
3 180 48 184
3 183 47 180
3 184 8 183
3 187 185 186
3 186 50 187
3 185 44 186
3 187 49 185
3 165 188 186
3 186 44 165
3 188 50 186
3 165 14 188
3 189 170 185
3 185 49 189
3 170 44 185
3 189 12 170
3 191 190 187
3 187 50 191
3 190 49 187
3 191 7 190
3 194 192 193
3 193 53 194
3 192 52 193
3 194 51 192
3 196 195 193
3 193 52 196
3 195 53 193
3 196 16 195
3 198 197 192
3 192 51 198
3 197 52 192
3 198 14 197
3 200 199 194
3 194 53 200
3 199 51 194
3 200 15 199
3 203 201 202
3 202 45 203
3 201 52 202
3 203 54 201
3 197 175 202
3 202 52 197
3 175 45 202
3 197 14 175
3 204 196 201
3 201 54 204
3 196 52 201
3 204 16 196
3 176 205 203
3 203 45 176
3 205 54 203
3 176 4 205
3 208 206 207
3 207 55 208
3 206 51 207
3 208 50 206
3 199 209 207
3 207 51 199
3 209 55 207
3 199 15 209
3 188 198 206
3 206 50 188
3 198 51 206
3 188 14 198
3 210 191 208
3 208 55 210
3 191 50 208
3 210 7 191
3 213 211 212
3 212 57 213
3 211 53 212
3 213 56 211
3 195 214 212
3 212 53 195
3 214 57 212
3 195 16 214
3 215 200 211
3 211 56 215
3 200 53 211
3 215 15 200
3 217 216 213
3 213 57 217
3 216 56 213
3 217 9 216
3 220 218 219
3 219 60 220
3 218 59 219
3 220 58 218
3 222 221 219
3 219 59 222
3 221 60 219
3 222 19 221
3 224 223 218
3 218 58 224
3 223 59 218
3 224 18 223
3 226 225 220
3 220 60 226
3 225 58 220
3 226 17 225
3 229 227 228
3 228 62 229
3 227 59 228
3 229 61 227
3 223 230 228
3 228 59 223
3 230 62 228
3 223 18 230
3 231 222 227
3 227 61 231
3 222 59 227
3 231 19 222
3 233 232 229
3 229 62 233
3 232 61 229
3 233 5 232
3 236 234 235
3 235 64 236
3 234 58 235
3 236 63 234
3 225 237 235
3 235 58 225
3 237 64 235
3 225 17 237
3 238 224 234
3 234 63 238
3 224 58 234
3 238 18 224
3 240 239 236
3 236 64 240
3 239 63 236
3 240 6 239
3 243 241 242
3 242 66 243
3 241 60 242
3 243 65 241
3 221 244 242
3 242 60 221
3 244 66 242
3 221 19 244
3 245 226 241
3 241 65 245
3 226 60 241
3 245 17 226
3 247 246 243
3 243 66 247
3 246 65 243
3 247 11 246
3 250 248 249
3 249 69 250
3 248 68 249
3 250 67 248
3 252 251 249
3 249 68 252
3 251 69 249
3 252 18 251
3 254 253 248
3 248 67 254
3 253 68 248
3 254 21 253
3 256 255 250
3 250 69 256
3 255 67 250
3 256 20 255
3 259 257 258
3 258 70 259
3 257 68 258
3 259 62 257
3 253 260 258
3 258 68 253
3 260 70 258
3 253 21 260
3 230 252 257
3 257 62 230
3 252 68 257
3 230 18 252
3 261 233 259
3 259 70 261
3 233 62 259
3 261 5 233
3 264 262 263
3 263 72 264
3 262 67 263
3 264 71 262
3 255 265 263
3 263 67 255
3 265 72 263
3 255 20 265
3 266 254 262
3 262 71 266
3 254 67 262
3 266 21 254
3 268 267 264
3 264 72 268
3 267 71 264
3 268 10 267
3 271 269 270
3 270 63 271
3 269 69 270
3 271 73 269
3 251 238 270
3 270 69 251
3 238 63 270
3 251 18 238
3 272 256 269
3 269 73 272
3 256 69 269
3 272 20 256
3 239 273 271
3 271 63 239
3 273 73 271
3 239 6 273
3 276 274 275
3 275 76 276
3 274 75 275
3 276 74 274
3 278 277 275
3 275 75 278
3 277 76 275
3 278 24 277
3 280 279 274
3 274 74 280
3 279 75 274
3 280 23 279
3 282 281 276
3 276 76 282
3 281 74 276
3 282 22 281
3 285 283 284
3 284 78 285
3 283 75 284
3 285 77 283
3 279 286 284
3 284 75 279
3 286 78 284
3 279 23 286
3 287 278 283
3 283 77 287
3 278 75 283
3 287 24 278
3 289 288 285
3 285 78 289
3 288 77 285
3 289 0 288
3 292 290 291
3 291 80 292
3 290 74 291
3 292 79 290
3 281 293 291
3 291 74 281
3 293 80 291
3 281 22 293
3 294 280 290
3 290 79 294
3 280 74 290
3 294 23 280
3 296 295 292
3 292 80 296
3 295 79 292
3 296 4 295
3 299 297 298
3 298 82 299
3 297 76 298
3 299 81 297
3 277 300 298
3 298 76 277
3 300 82 298
3 277 24 300
3 301 282 297
3 297 81 301
3 282 76 297
3 301 22 282
3 303 302 299
3 299 82 303
3 302 81 299
3 303 3 302
3 306 304 305
3 305 85 306
3 304 84 305
3 306 83 304
3 308 307 305
3 305 84 308
3 307 85 305
3 308 26 307
3 310 309 304
3 304 83 310
3 309 84 304
3 310 24 309
3 312 311 306
3 306 85 312
3 311 83 306
3 312 25 311
3 315 313 314
3 314 77 315
3 313 84 314
3 315 86 313
3 309 287 314
3 314 84 309
3 287 77 314
3 309 24 287
3 316 308 313
3 313 86 316
3 308 84 313
3 316 26 308
3 288 317 315
3 315 77 288
3 317 86 315
3 288 0 317
3 320 318 319
3 319 87 320
3 318 83 319
3 320 82 318
3 311 321 319
3 319 83 311
3 321 87 319
3 311 25 321
3 300 310 318
3 318 82 300
3 310 83 318
3 300 24 310
3 322 303 320
3 320 87 322
3 303 82 320
3 322 3 303
3 325 323 324
3 324 89 325
3 323 85 324
3 325 88 323
3 307 326 324
3 324 85 307
3 326 89 324
3 307 26 326
3 327 312 323
3 323 88 327
3 312 85 323
3 327 25 312
3 329 328 325
3 325 89 329
3 328 88 325
3 329 5 328
3 332 330 331
3 331 92 332
3 330 91 331
3 332 90 330
3 334 333 331
3 331 91 334
3 333 92 331
3 334 29 333
3 336 335 330
3 330 90 336
3 335 91 330
3 336 28 335
3 338 337 332
3 332 92 338
3 337 90 332
3 338 27 337
3 341 339 340
3 340 94 341
3 339 91 340
3 341 93 339
3 335 342 340
3 340 91 335
3 342 94 340
3 335 28 342
3 343 334 339
3 339 93 343
3 334 91 339
3 343 29 334
3 345 344 341
3 341 94 345
3 344 93 341
3 345 2 344
3 348 346 347
3 347 96 348
3 346 90 347
3 348 95 346
3 337 349 347
3 347 90 337
3 349 96 347
3 337 27 349
3 350 336 346
3 346 95 350
3 336 90 346
3 350 28 336
3 352 351 348
3 348 96 352
3 351 95 348
3 352 7 351
3 355 353 354
3 354 98 355
3 353 92 354
3 355 97 353
3 333 356 354
3 354 92 333
3 356 98 354
3 333 29 356
3 357 338 353
3 353 97 357
3 338 92 353
3 357 27 338
3 359 358 355
3 355 98 359
3 358 97 355
3 359 1 358
3 362 360 361
3 361 101 362
3 360 100 361
3 362 99 360
3 364 363 361
3 361 100 364
3 363 101 361
3 364 31 363
3 366 365 360
3 360 99 366
3 365 100 360
3 366 29 365
3 368 367 362
3 362 101 368
3 367 99 362
3 368 30 367
3 371 369 370
3 370 93 371
3 369 100 370
3 371 102 369
3 365 343 370
3 370 100 365
3 343 93 370
3 365 29 343
3 372 364 369
3 369 102 372
3 364 100 369
3 372 31 364
3 344 373 371
3 371 93 344
3 373 102 371
3 344 2 373
3 376 374 375
3 375 103 376
3 374 99 375
3 376 98 374
3 367 377 375
3 375 99 367
3 377 103 375
3 367 30 377
3 356 366 374
3 374 98 356
3 366 99 374
3 356 29 366
3 378 359 376
3 376 103 378
3 359 98 376
3 378 1 359
3 381 379 380
3 380 105 381
3 379 101 380
3 381 104 379
3 363 382 380
3 380 101 363
3 382 105 380
3 363 31 382
3 383 368 379
3 379 104 383
3 368 101 379
3 383 30 368
3 385 384 381
3 381 105 385
3 384 104 381
3 385 6 384
3 388 386 387
3 387 108 388
3 386 107 387
3 388 106 386
3 390 389 387
3 387 107 390
3 389 108 387
3 390 34 389
3 392 391 386
3 386 106 392
3 391 107 386
3 392 33 391
3 394 393 388
3 388 108 394
3 393 106 388
3 394 32 393
3 397 395 396
3 396 110 397
3 395 107 396
3 397 109 395
3 391 398 396
3 396 107 391
3 398 110 396
3 391 33 398
3 399 390 395
3 395 109 399
3 390 107 395
3 399 34 390
3 401 400 397
3 397 110 401
3 400 109 397
3 401 8 400
3 404 402 403
3 403 112 404
3 402 106 403
3 404 111 402
3 393 405 403
3 403 106 393
3 405 112 403
3 393 32 405
3 406 392 402
3 402 111 406
3 392 106 402
3 406 33 392
3 408 407 404
3 404 112 408
3 407 111 404
3 408 0 407
3 411 409 410
3 410 114 411
3 409 108 410
3 411 113 409
3 389 412 410
3 410 108 389
3 412 114 410
3 389 34 412
3 413 394 409
3 409 113 413
3 394 108 409
3 413 32 394
3 415 414 411
3 411 114 415
3 414 113 411
3 415 11 414
3 418 416 417
3 417 117 418
3 416 116 417
3 418 115 416
3 420 419 417
3 417 116 420
3 419 117 417
3 420 36 419
3 422 421 416
3 416 115 422
3 421 116 416
3 422 34 421
3 424 423 418
3 418 117 424
3 423 115 418
3 424 35 423
3 427 425 426
3 426 109 427
3 425 116 426
3 427 118 425
3 421 399 426
3 426 116 421
3 399 109 426
3 421 34 399
3 428 420 425
3 425 118 428
3 420 116 425
3 428 36 420
3 400 429 427
3 427 109 400
3 429 118 427
3 400 8 429
3 432 430 431
3 431 119 432
3 430 115 431
3 432 114 430
3 423 433 431
3 431 115 423
3 433 119 431
3 423 35 433
3 412 422 430
3 430 114 412
3 422 115 430
3 412 34 422
3 434 415 432
3 432 119 434
3 415 114 432
3 434 11 415
3 437 435 436
3 436 121 437
3 435 117 436
3 437 120 435
3 419 438 436
3 436 117 419
3 438 121 436
3 419 36 438
3 439 424 435
3 435 120 439
3 424 117 435
3 439 35 424
3 441 440 437
3 437 121 441
3 440 120 437
3 441 1 440
3 444 442 443
3 443 124 444
3 442 123 443
3 444 122 442
3 446 445 443
3 443 123 446
3 445 124 443
3 446 39 445
3 448 447 442
3 442 122 448
3 447 123 442
3 448 38 447
3 450 449 444
3 444 124 450
3 449 122 444
3 450 37 449
3 453 451 452
3 452 126 453
3 451 123 452
3 453 125 451
3 447 454 452
3 452 123 447
3 454 126 452
3 447 38 454
3 455 446 451
3 451 125 455
3 446 123 451
3 455 39 446
3 457 456 453
3 453 126 457
3 456 125 453
3 457 9 456
3 460 458 459
3 459 128 460
3 458 122 459
3 460 127 458
3 449 461 459
3 459 122 449
3 461 128 459
3 449 37 461
3 462 448 458
3 458 127 462
3 448 122 458
3 462 38 448
3 464 463 460
3 460 128 464
3 463 127 460
3 464 10 463
3 467 465 466
3 466 130 467
3 465 124 466
3 467 129 465
3 445 468 466
3 466 124 445
3 468 130 466
3 445 39 468
3 469 450 465
3 465 129 469
3 450 124 465
3 469 37 450
3 471 470 467
3 467 130 471
3 470 129 467
3 471 3 470
3 474 472 473
3 473 133 474
3 472 132 473
3 474 131 472
3 476 475 473
3 473 132 476
3 475 133 473
3 476 38 475
3 478 477 472
3 472 131 478
3 477 132 472
3 478 41 477
3 480 479 474
3 474 133 480
3 479 131 474
3 480 40 479
3 483 481 482
3 482 134 483
3 481 132 482
3 483 126 481
3 477 484 482
3 482 132 477
3 484 134 482
3 477 41 484
3 454 476 481
3 481 126 454
3 476 132 481
3 454 38 476
3 485 457 483
3 483 134 485
3 457 126 483
3 485 9 457
3 488 486 487
3 487 136 488
3 486 131 487
3 488 135 486
3 479 489 487
3 487 131 479
3 489 136 487
3 479 40 489
3 490 478 486
3 486 135 490
3 478 131 486
3 490 41 478
3 492 491 488
3 488 136 492
3 491 135 488
3 492 2 491
3 495 493 494
3 494 127 495
3 493 133 494
3 495 137 493
3 475 462 494
3 494 133 475
3 462 127 494
3 475 38 462
3 496 480 493
3 493 137 496
3 480 133 493
3 496 40 480
3 463 497 495
3 495 127 463
3 497 137 495
3 463 10 497
3 500 498 499
3 499 140 500
3 498 139 499
3 500 138 498
3 502 501 499
3 499 139 502
3 501 140 499
3 502 33 501
3 504 503 498
3 498 138 504
3 503 139 498
3 504 13 503
3 506 505 500
3 500 140 506
3 505 138 500
3 506 23 505
3 509 507 508
3 508 47 509
3 507 139 508
3 509 110 507
3 503 182 508
3 508 139 503
3 182 47 508
3 503 13 182
3 398 502 507
3 507 110 398
3 502 139 507
3 398 33 502
3 183 401 509
3 509 47 183
3 401 110 509
3 183 8 401
3 512 510 511
3 511 79 512
3 510 138 511
3 512 46 510
3 505 294 511
3 511 138 505
3 294 79 511
3 505 23 294
3 174 504 510
3 510 46 174
3 504 138 510
3 174 13 504
3 295 177 512
3 512 79 295
3 177 46 512
3 295 4 177
3 515 513 514
3 514 111 515
3 513 140 514
3 515 78 513
3 501 406 514
3 514 140 501
3 406 111 514
3 501 33 406
3 286 506 513
3 513 78 286
3 506 140 513
3 286 23 506
3 407 289 515
3 515 111 407
3 289 78 515
3 407 0 289
3 518 516 517
3 517 143 518
3 516 142 517
3 518 141 516
3 520 519 517
3 517 142 520
3 519 143 517
3 520 19 519
3 522 521 516
3 516 141 522
3 521 142 516
3 522 32 521
3 524 523 518
3 518 143 524
3 523 141 518
3 524 26 523
3 527 525 526
3 526 113 527
3 525 142 526
3 527 66 525
3 521 413 526
3 526 142 521
3 413 113 526
3 521 32 413
3 244 520 525
3 525 66 244
3 520 142 525
3 244 19 520
3 414 247 527
3 527 113 414
3 247 66 527
3 414 11 247
3 530 528 529
3 529 86 530
3 528 141 529
3 530 112 528
3 523 316 529
3 529 141 523
3 316 86 529
3 523 26 316
3 405 522 528
3 528 112 405
3 522 141 528
3 405 32 522
3 317 408 530
3 530 86 317
3 408 112 530
3 317 0 408
3 533 531 532
3 532 61 533
3 531 143 532
3 533 89 531
3 519 231 532
3 532 143 519
3 231 61 532
3 519 19 231
3 326 524 531
3 531 89 326
3 524 143 531
3 326 26 524
3 232 329 533
3 533 61 232
3 329 89 533
3 232 5 329
3 536 534 535
3 535 146 536
3 534 145 535
3 536 144 534
3 538 537 535
3 535 145 538
3 537 146 535
3 538 22 537
3 540 539 534
3 534 144 540
3 539 145 534
3 540 16 539
3 542 541 536
3 536 146 542
3 541 144 536
3 542 39 541
3 545 543 544
3 544 54 545
3 543 145 544
3 545 80 543
3 539 204 544
3 544 145 539
3 204 54 544
3 539 16 204
3 293 538 543
3 543 80 293
3 538 145 543
3 293 22 538
3 205 296 545
3 545 54 205
3 296 80 545
3 205 4 296
3 548 546 547
3 547 125 548
3 546 144 547
3 548 57 546
3 541 455 547
3 547 144 541
3 455 125 547
3 541 39 455
3 214 540 546
3 546 57 214
3 540 144 546
3 214 16 540
3 456 217 548
3 548 125 456
3 217 57 548
3 456 9 217
3 551 549 550
3 550 81 551
3 549 146 550
3 551 130 549
3 537 301 550
3 550 146 537
3 301 81 550
3 537 22 301
3 468 542 549
3 549 130 468
3 542 146 549
3 468 39 542
3 302 471 551
3 551 81 302
3 471 130 551
3 302 3 471
3 554 552 553
3 553 149 554
3 552 148 553
3 554 147 552
3 556 555 553
3 553 148 556
3 555 149 553
3 556 21 555
3 558 557 552
3 552 147 558
3 557 148 552
3 558 25 557
3 560 559 554
3 554 149 560
3 559 147 554
3 560 37 559
3 563 561 562
3 562 88 563
3 561 148 562
3 563 70 561
3 557 327 562
3 562 148 557
3 327 88 562
3 557 25 327
3 260 556 561
3 561 70 260
3 556 148 561
3 260 21 556
3 328 261 563
3 563 88 328
3 261 70 563
3 328 5 261
3 566 564 565
3 565 129 566
3 564 147 565
3 566 87 564
3 559 469 565
3 565 147 559
3 469 129 565
3 559 37 469
3 321 558 564
3 564 87 321
3 558 147 564
3 321 25 558
3 470 322 566
3 566 129 470
3 322 87 566
3 470 3 322
3 569 567 568
3 568 71 569
3 567 149 568
3 569 128 567
3 555 266 568
3 568 149 555
3 266 71 568
3 555 21 266
3 461 560 567
3 567 128 461
3 560 149 567
3 461 37 560
3 267 464 569
3 569 71 267
3 464 128 569
3 267 10 464
3 572 570 571
3 571 152 572
3 570 151 571
3 572 150 570
3 574 573 571
3 571 151 574
3 573 152 571
3 574 27 573
3 576 575 570
3 570 150 576
3 575 151 570
3 576 12 575
3 578 577 572
3 572 152 578
3 577 150 572
3 578 36 577
3 581 579 580
3 580 49 581
3 579 151 580
3 581 96 579
3 575 189 580
3 580 151 575
3 189 49 580
3 575 12 189
3 349 574 579
3 579 96 349
3 574 151 579
3 349 27 574
3 190 352 581
3 581 49 190
3 352 96 581
3 190 7 352
3 584 582 583
3 583 118 584
3 582 150 583
3 584 48 582
3 577 428 583
3 583 150 577
3 428 118 583
3 577 36 428
3 181 576 582
3 582 48 181
3 576 150 582
3 181 12 576
3 429 184 584
3 584 118 429
3 184 48 584
3 429 8 184
3 587 585 586
3 586 97 587
3 585 152 586
3 587 121 585
3 573 357 586
3 586 152 573
3 357 97 586
3 573 27 357
3 438 578 585
3 585 121 438
3 578 152 585
3 438 36 578
3 358 441 587
3 587 97 358
3 441 121 587
3 358 1 441
3 590 588 589
3 589 155 590
3 588 154 589
3 590 153 588
3 592 591 589
3 589 154 592
3 591 155 589
3 592 17 591
3 594 593 588
3 588 153 594
3 593 154 588
3 594 30 593
3 596 595 590
3 590 155 596
3 595 153 590
3 596 35 595
3 599 597 598
3 598 104 599
3 597 154 598
3 599 64 597
3 593 383 598
3 598 154 593
3 383 104 598
3 593 30 383
3 237 592 597
3 597 64 237
3 592 154 597
3 237 17 592
3 384 240 599
3 599 104 384
3 240 64 599
3 384 6 240
3 602 600 601
3 601 120 602
3 600 153 601
3 602 103 600
3 595 439 601
3 601 153 595
3 439 120 601
3 595 35 439
3 377 594 600
3 600 103 377
3 594 153 600
3 377 30 594
3 440 378 602
3 602 120 440
3 378 103 602
3 440 1 378
3 605 603 604
3 604 65 605
3 603 155 604
3 605 119 603
3 591 245 604
3 604 155 591
3 245 65 604
3 591 17 245
3 433 596 603
3 603 119 433
3 596 155 603
3 433 35 596
3 246 434 605
3 605 65 246
3 434 119 605
3 246 11 434
3 608 606 607
3 607 158 608
3 606 157 607
3 608 156 606
3 610 609 607
3 607 157 610
3 609 158 607
3 610 15 609
3 612 611 606
3 606 156 612
3 611 157 606
3 612 28 611
3 614 613 608
3 608 158 614
3 613 156 608
3 614 41 613
3 617 615 616
3 616 95 617
3 615 157 616
3 617 55 615
3 611 350 616
3 616 157 611
3 350 95 616
3 611 28 350
3 209 610 615
3 615 55 209
3 610 157 615
3 209 15 610
3 351 210 617
3 617 95 351
3 210 55 617
3 351 7 210
3 620 618 619
3 619 135 620
3 618 156 619
3 620 94 618
3 613 490 619
3 619 156 613
3 490 135 619
3 613 41 490
3 342 612 618
3 618 94 342
3 612 156 618
3 342 28 612
3 491 345 620
3 620 135 491
3 345 94 620
3 491 2 345
3 623 621 622
3 622 56 623
3 621 158 622
3 623 134 621
3 609 215 622
3 622 158 609
3 215 56 622
3 609 15 215
3 484 614 621
3 621 134 484
3 614 158 621
3 484 41 614
3 216 485 623
3 623 56 216
3 485 134 623
3 216 9 485
3 626 624 625
3 625 161 626
3 624 160 625
3 626 159 624
3 628 627 625
3 625 160 628
3 627 161 625
3 628 31 627
3 630 629 624
3 624 159 630
3 629 160 624
3 630 20 629
3 632 631 626
3 626 161 632
3 631 159 626
3 632 40 631
3 635 633 634
3 634 73 635
3 633 160 634
3 635 105 633
3 629 272 634
3 634 160 629
3 272 73 634
3 629 20 272
3 382 628 633
3 633 105 382
3 628 160 633
3 382 31 628
3 273 385 635
3 635 73 273
3 385 105 635
3 273 6 385
3 638 636 637
3 637 137 638
3 636 159 637
3 638 72 636
3 631 496 637
3 637 159 631
3 496 137 637
3 631 40 496
3 265 630 636
3 636 72 265
3 630 159 636
3 265 20 630
3 497 268 638
3 638 137 497
3 268 72 638
3 497 10 268
3 641 639 640
3 640 102 641
3 639 161 640
3 641 136 639
3 627 372 640
3 640 161 627
3 372 102 640
3 627 31 372
3 489 632 639
3 639 136 489
3 632 161 639
3 489 40 632
3 373 492 641
3 641 102 373
3 492 136 641
3 373 2 492
