# vtk DataFile Version 3.0
this file was written using fslvtkio
ASCII
DATASET POLYDATA
POINTS 970 float
144.712 105.086 157.044
143.191 104.383 156.808
143.994 104.703 155.993
145.021 104.806 155.592
146.227 105.235 156.736
146.456 104.641 155.136
147.507 104.648 156.024
147.798 103.77 154.752
144.289 104.285 158.181
143.478 103.34 158.232
145.743 104.321 158.172
147.237 104.384 157.632
148.293 103.451 156.212
144.901 102.963 159.022
146.625 103.22 158.896
147.857 103.055 157.633
140.617 105.616 147.024
139.146 104.694 146.899
139.752 105.398 145.401
141.253 105.691 145.407
141.96 105.889 147.245
142.337 105.177 145.889
142.924 105.022 147.33
142.636 103.828 146.069
140.345 104.566 148.296
138.912 103.722 148.115
141.7 105.146 148.727
142.979 105.296 148.843
143.338 103.866 147.258
143.91 104.468 148.53
144.053 103.115 147.77
140.315 103.552 149.198
139.035 103.092 148.916
141.758 104.057 149.759
143.028 104.547 150.122
144.126 104.289 149.922
144.704 103.228 149.004
139.377 102.668 149.695
141.32 103.208 150.484
140.648 102.539 150.66
142.93 103.546 151.391
144.27 103.954 151.636
145.072 103.475 150.529
141.748 102.354 151.677
143.102 102.833 152.688
144.124 103.595 153.351
143.406 102.794 154.049
145.554 103.253 151.765
145.308 103.716 153.028
146.378 102.781 152.298
146.742 103.317 153.178
147.144 102.277 152.781
143.759 103.741 154.986
142.74 102.613 154.851
144.971 103.879 154.356
146.535 104.029 153.949
147.818 102.747 153.758
142.422 103.38 155.999
141.538 102.226 156.483
141.646 101.768 155.159
148.792 102.453 155.019
142.407 102.948 157.493
141.882 101.516 157.73
148.761 101.974 156.687
143.262 101.948 158.613
144.319 101.355 159.277
145.968 101.857 159.416
147.613 102.023 158.666
137.819 104.516 143.691
136.774 103.797 144.393
136.91 103.694 142.685
138.498 104.171 142.496
139.102 104.949 144.09
139.776 104.094 143.159
138 104.492 145.56
136.555 103.275 145.86
140.714 104.728 144.171
141.838 104.068 144.854
142.354 102.579 145.341
137.742 103.607 147.136
136.428 102.456 147.332
143.254 102.622 146.6
144.116 101.643 147.402
137.742 102.613 148.613
136.472 101.394 148.801
144.742 101.834 148.581
145.38 102.166 149.88
145.406 100.961 149.38
138.154 101.725 149.87
139.898 101.987 150.852
138.788 101.042 150.829
145.942 102.188 150.935
146.159 100.718 150.556
140.321 101.271 151.796
141.339 101.278 152.846
140.222 100.57 152.744
142.428 102.004 153.062
146.719 101.611 151.748
147.695 101.192 152.782
141.161 100.767 154.25
140.188 100.067 153.426
142.179 101.634 154.008
148.623 101.197 153.801
140.254 99.8738 154.266
140.927 100.819 155.985
149.123 100.889 155.106
141.525 100.197 157.457
149.047 100.581 156.585
142.784 100.311 158.5
144.189 99.9503 159.061
143.69 98.7014 158.583
145.574 100.261 159.363
147.173 100.673 159.188
148.425 100.935 157.993
145.161 98.6479 158.999
146.562 99.0278 159.191
147.862 99.4553 158.913
136.16 102.503 144.054
136.786 102.279 142.308
138.023 102.921 141.689
139.505 102.844 142.351
140.464 103.029 143.389
140.549 101.325 143.222
135.851 101.781 145.692
141.361 102.841 144.158
142.24 101.189 144.874
135.727 101.09 147.089
143.168 101.274 146.222
143.955 100.042 146.98
135.554 100.311 148.222
144.736 100.449 148.241
145.498 99.7271 149.292
137.125 100.674 150.165
135.926 99.7757 149.635
146.328 99.2688 150.401
137.195 99.7119 151.083
136.416 98.4544 150.866
138.69 100.346 151.519
147.005 100.137 151.669
147.873 99.5569 152.516
137.567 99.0527 151.913
138.908 99.6687 152.634
138.254 98.7694 152.762
148.466 99.5322 153.55
139.155 98.7783 153.748
140.219 99.5707 155.146
139.79 98.5364 155.328
148.931 99.3915 154.584
149.296 99.5166 155.738
149.269 98.193 154.936
140.727 99.5095 156.527
140.721 98.2506 156.43
148.988 99.4855 157.018
149.404 98.1469 156.137
141.93 98.8385 157.48
142.759 98.1604 158.084
143.747 97.3121 158.18
148.59 99.2515 158.072
149.119 97.8698 157.314
144.807 97.2324 158.485
146.105 97.2565 158.808
147.451 97.6099 158.8
148.449 97.805 158.318
137.612 101.323 141.326
136.798 100.969 142.584
137.363 100.095 141.015
138.581 100.386 140.491
138.873 101.682 141.461
139.372 100.344 141.267
139.785 101.311 142.265
140.111 99.8116 141.997
136.327 100.676 144.059
140.873 99.5053 142.759
135.921 100.206 145.439
141.516 100.824 143.856
142.343 99.5556 144.613
135.626 99.4921 146.643
143.104 99.8722 145.802
143.929 98.5915 146.559
135.57 98.8039 148.048
144.808 99.0598 147.918
145.634 98.3228 148.923
135.868 98.1488 149.339
146.43 97.7847 149.976
136.269 97.2121 150.237
147.146 98.5825 151.337
147.879 97.682 152.111
137.358 98.0899 152.26
137.004 96.9219 151.618
148.434 97.9953 153.071
148.725 98.384 154.031
149.065 97.1209 153.733
138.111 97.5341 153.152
139.125 97.6592 154.377
138.844 96.484 154.123
149.593 96.9055 154.93
139.849 97.0763 155.541
139.75 95.9062 155.091
149.488 96.6857 156.113
141.122 97.1234 156.533
142.145 97.023 157.08
142.989 96.6997 157.653
142.652 95.6731 157.051
149.217 96.3692 157.374
144.061 95.8669 157.768
145.047 95.4197 158.055
146.027 95.7037 158.37
147.281 95.9328 158.563
148.488 96.2197 158.324
136.905 99.3301 142.206
137.399 98.9364 140.281
138.412 99.3983 139.658
139.551 99.1282 140.603
140.287 98.1067 141.207
136.384 98.9507 143.711
141.112 97.7726 142.161
135.99 98.5198 144.951
141.577 98.8862 143.51
142.474 97.9655 144.06
135.709 97.8975 146.224
143.271 98.3446 145.305
144.181 97.0285 145.994
135.808 97.2324 147.554
144.732 97.5731 147.477
145.583 96.8853 148.289
136.133 96.4589 148.69
146.457 96.346 149.224
136.564 95.8382 149.999
147.16 96.9646 150.886
147.984 95.8104 151.318
137.3 95.4218 151.225
148.528 96.6494 152.561
149.335 95.7431 153.429
138.058 96.2445 152.66
138.845 95.2211 153.605
149.601 95.6382 154.732
139.766 94.4661 154.273
149.552 95.181 155.866
140.669 95.4162 155.526
141.616 95.5528 156.193
142.596 94.3909 156.268
149.206 94.9305 157.186
143.687 94.6152 157.09
144.824 94.2156 157.353
145.977 94.0185 157.743
147.102 94.3595 158.006
148.334 94.7116 157.982
137.893 98.4204 138.838
137.264 98.0356 140.245
137.557 97.2547 138.365
138.65 97.6824 137.548
139.093 98.5226 138.928
139.642 97.4937 138.145
139.783 98.0396 139.745
140.282 97.0599 139.085
136.97 97.8677 141.797
140.855 96.6395 140.373
136.481 97.4378 143.236
141.383 96.478 141.517
135.948 96.8674 144.385
141.88 96.9645 142.818
142.741 96.5234 143.678
135.803 96.243 145.69
143.492 96.8949 144.808
144.358 95.5807 145.179
135.931 95.5556 146.953
144.968 96.1038 146.652
145.829 95.4889 147.515
136.302 94.9455 148.25
146.602 95.0702 148.637
136.822 94.3871 149.552
147.224 95.5878 150.143
147.878 94.2718 150.223
137.563 93.968 150.629
148.603 95.3055 152.184
148.455 94.0028 151.356
138.226 94.8178 152.12
138.93 93.7856 152.897
149.148 94.5072 152.728
149.513 94.2804 154.07
139.861 93.0338 153.519
149.475 93.8448 155.532
140.756 93.7888 154.789
141.622 93.8864 155.494
142.648 92.858 155.765
149.021 93.6114 156.887
143.67 93.2939 156.447
144.79 92.8955 156.809
145.958 92.5309 157.194
147.024 92.6071 157.542
148.144 93.215 157.6
137.402 96.6431 139.753
137.776 96.0373 137.587
138.379 96.8124 136.747
139.843 96.5506 136.874
140.703 95.9094 138.278
136.958 96.4959 141.423
141.102 95.461 139.302
141.607 95.3876 140.477
141.955 94.4039 139.446
136.638 95.7978 142.562
141.9 95.8829 141.662
142.5 95.0012 141.25
136.192 95.3016 143.834
142.754 95.413 142.588
143.54 95.7253 143.94
143.846 94.5991 143.327
136.01 94.6688 145.145
144.677 94.2398 144.412
136.24 94.0401 146.491
145.318 94.7052 145.949
146.276 94.1875 147.216
136.616 93.4146 147.74
146.825 93.8993 148.18
147.188 94.3919 149.263
147.636 93.076 148.6
137.104 92.8958 148.929
148.407 92.8038 149.901
137.837 92.4383 149.896
148.817 92.3655 151.299
138.365 93.279 151.416
139.183 92.3396 152.119
149.113 93.2892 152.646
149.458 92.8164 154.09
140.221 91.7183 152.931
149.293 92.5382 155.328
141.013 92.4595 154.112
142.059 92.1697 154.942
143.197 91.3924 155.317
148.847 92.5322 156.562
143.729 92.0137 155.889
144.769 91.5698 156.192
145.918 91.2655 156.53
147.228 91.2119 156.747
148.152 91.7703 156.794
138.581 96.0116 135.694
138.123 94.7013 135.361
138.749 95.1304 134.427
140.086 95.0597 134.342
139.891 95.9242 135.477
140.707 94.9571 135.353
137.602 95.3327 138.725
137.876 94.8097 136.841
140.848 95.2122 136.74
141.389 94.8614 138.107
141.784 93.7379 137.441
137.142 95.1885 140.452
137.641 93.9736 138.491
142.641 93.4707 139.174
136.72 94.3854 141.91
143.14 93.7044 140.479
136.442 93.7709 143.291
143.696 94.0327 141.786
144.427 93.3901 142.677
136.366 93.1231 144.684
145.135 92.9234 143.607
145.175 93.715 144.875
145.695 93.0682 145.064
136.616 92.4654 145.991
146.186 93.3022 146.237
146.981 93.0365 147.315
147.355 91.9745 146.584
137.097 91.8706 147.141
148.133 91.8314 148
137.506 91.4029 148.24
148.823 91.4298 149.299
138.076 91.1106 149.283
149.225 91.0091 150.669
138.653 91.768 150.652
139.546 91.0448 151.685
149.26 91.9363 152.896
149.273 90.7855 152.287
140.652 90.3921 152.183
141.164 91.2247 153.442
141.61 90.2259 152.925
149.376 91.1242 154.224
149.148 89.9404 154.309
142.272 91.0123 154.088
144.414 90.487 155.483
143.534 90.2372 154.61
145.763 89.9826 155.976
145.069 89.1282 155.028
147.24 89.8878 156.147
146.586 88.6565 155.484
148.531 90.416 155.721
148.23 89.0402 155.277
148.959 91.5533 155.756
139.121 94.521 133.452
138.484 93.667 133.999
138.954 93.5552 132.663
139.932 93.7865 132.398
140.053 94.4733 133.326
140.781 93.9752 133.263
138.203 93.3742 135.513
141.463 93.4565 134.107
141.322 94.0148 135.965
142.039 92.9051 135.397
137.965 93.1241 136.924
142.467 92.737 137.28
137.149 93.6468 140.069
137.594 92.4586 138.298
143.263 92.0458 137.754
143.46 92.6754 139.431
143.959 91.6049 138.523
136.885 92.8883 141.47
143.708 93.2004 140.52
144.23 92.5699 140.404
136.702 92.22 142.888
144.897 92.3171 141.354
145.028 92.3949 142.461
145.681 91.7402 142.231
136.728 91.5414 144.168
146.031 91.9274 143.857
146.591 92.1241 145.334
147.149 91.0466 144.621
137.072 90.912 145.449
147.982 90.8341 146.004
137.718 90.2996 146.491
148.399 90.5952 147.394
137.945 90.0115 147.993
148.84 90.0835 148.103
149.294 90.0627 149.349
149.177 88.8889 147.743
138.427 90.015 148.871
138.661 90.6899 149.637
139.167 89.4422 149.124
149.44 89.7685 150.811
149.403 88.7022 149.15
140.041 90.2387 151.293
139.427 90.4309 150.359
140.399 89.4289 151.066
149.326 89.4225 152.242
149.373 88.4822 150.696
142.459 89.779 153.223
141.525 89.2517 152.114
142.677 88.6816 152.559
148.943 88.3327 152.267
148.944 89.0369 153.657
143.485 89.4507 153.711
144.834 88.5199 154.163
146.247 87.7852 154.606
147.753 87.9322 154.647
139.54 93.0704 131.367
138.659 92.6498 132.381
139.085 92.08 130.732
140.273 92.3972 130.121
140.691 93.0978 131.645
141.22 92.3923 130.46
141.581 92.4848 131.589
141.999 91.9319 130.714
138.495 92.2335 133.763
141.481 92.9995 132.617
142.3 92.0001 132.271
138.151 91.862 135.362
142.492 91.9598 133.771
142.805 91.9285 135.51
143.471 90.904 134.626
137.813 91.2699 136.72
143.142 91.8737 136.582
143.917 91.0683 136.132
137.238 92.0059 139.764
137.625 90.9258 138.119
144.543 90.5238 136.956
144.672 91.1876 138.987
145.28 90.2674 138.147
137.067 91.4196 141.149
144.865 91.6673 140.151
145.479 90.9077 139.958
137.013 90.584 142.279
146.153 90.7384 140.955
146.548 91.0993 142.927
147.071 90.2364 142.49
137.254 90.0651 143.537
147.66 89.9578 143.967
137.568 89.4042 144.669
148.197 89.6228 144.67
148.537 89.5395 145.855
148.684 88.4837 144.421
138.04 89.0164 145.559
138.392 88.9549 146.758
138.949 87.8521 145.508
148.808 89.3069 146.866
149.018 88.1016 145.853
138.635 89.0446 148.035
139.203 87.9355 147.18
149.203 87.7125 147.326
139.69 88.3 148.6
149.162 87.507 148.998
139.974 88.9978 149.834
140.93 88.3972 150.453
148.97 87.501 150.855
141.569 88.3463 151.385
143.621 88.254 152.75
142.878 87.6699 151.641
144.093 87.2125 152.243
148.667 87.4731 151.942
148.231 87.7702 153.292
144.569 88.0276 153.186
145.663 87.2545 153.554
147.082 87.0599 153.729
138.65 91.2334 131.846
139.194 91.2649 129.937
140.19 91.7618 129.021
141.627 91.6789 129.216
142.598 91.2149 130.389
138.606 90.7794 133.471
143.344 90.4628 130.924
142.891 91.1753 132.39
143.65 90.4263 132.272
138.407 90.2892 134.84
143.855 90.4463 133.396
144.571 90.0902 134.481
145.095 89.0459 133.308
138.045 89.7188 136.047
144.871 90.0982 135.575
145.558 88.9589 134.777
137.538 90.3028 139.158
137.825 89.3292 137.502
145.601 89.5452 136.531
146.011 89.588 138.299
146.522 88.6467 137.164
137.389 89.9511 140.466
137.722 88.8406 138.962
146.129 89.9257 139.603
146.699 89.0901 139.301
137.545 89.0152 141.545
146.954 89.6062 140.896
147.718 89.167 142.248
147.795 88.2107 141.168
137.716 88.5474 142.84
148.158 88.7972 143.363
148.372 87.7001 142.387
138.133 88.1291 143.557
138.335 88.0605 144.625
138.917 86.8273 143.749
148.8 87.2431 143.916
139.696 86.7449 145.129
149.026 86.7608 145.529
139.998 86.9867 146.441
140.072 87.3103 147.752
140.891 86.5134 147.26
148.948 86.4862 147.224
140.264 87.8946 148.71
140.932 87.1443 148.511
148.843 86.6096 149.462
141.909 87.5557 150.595
141.033 87.6866 149.537
142.695 87.1075 150.726
142.32 86.7613 149.791
143.395 86.4359 150.572
148.377 86.746 151.512
148.318 85.9227 149.851
147.672 85.789 150.956
145.181 86.6074 152.567
144.174 86.3257 151.408
146.397 86.2714 152.781
145.503 85.7191 151.625
147.62 86.5449 152.554
146.758 85.6323 151.568
139.613 90.8488 128.347
139.179 90.2834 130.115
139.343 89.6799 128.389
139.995 90.1488 126.951
140.968 91.2074 127.801
141.72 90.8105 126.722
142.532 91.0863 128.23
143.162 90.5013 126.917
143.614 90.1772 128.353
144.203 89.4053 127.575
138.916 89.8253 131.664
143.299 90.372 129.513
144.449 89.2073 129.168
138.748 89.185 132.994
144.476 89.3078 130.722
144.622 89.4518 132.225
145.519 88.3423 131.333
138.63 88.738 134.446
145.997 87.9988 132.758
138.363 88.2809 135.922
146.584 87.5529 133.698
146.306 88.4534 135.539
146.997 87.4953 135.491
138.338 87.6556 137.117
147.124 87.8534 137.49
137.902 88.0666 140.063
138.226 87.4228 138.453
147.572 87.8025 138.703
138.27 87.3874 141.336
138.507 86.6086 139.998
147.406 88.2574 140.067
148.329 86.9436 140.475
138.446 87.2003 142.591
139.232 86.0795 141.693
148.733 86.4482 141.989
139.633 85.7286 143.365
148.88 85.9361 143.705
140.333 85.3944 144.381
140.65 85.9936 145.915
141.539 85.4571 146.229
141.246 85.0578 144.824
142.044 84.6005 145.232
148.824 85.4427 145.4
141.884 85.9666 147.679
142.303 84.8033 146.669
148.653 85.4129 146.891
148.359 84.4192 146.099
148.093 84.7289 147.603
141.882 86.5648 148.862
143.002 85.2305 147.889
142.916 85.9596 149.059
143.763 85.2109 148.93
148.573 85.7691 148.39
147.77 84.9129 149.054
144.215 85.1859 149.683
147.148 84.8534 150.353
144.344 85.5679 150.464
145.155 85.1737 150.629
146.249 84.8873 150.587
141.664 89.7167 124.24
140.486 89.1324 124.86
141.031 88.6434 123.51
141.816 89.131 122.485
142.974 89.6802 124.13
143.16 89.3415 122.375
144.15 89.2494 124.307
144.329 88.8217 122.67
140.959 90.0726 125.701
139.967 88.7623 126.275
142.605 90.1859 125.485
144.009 89.4742 126.021
144.93 88.6189 124.055
145.082 88.5449 125.921
145.608 87.9103 124.191
139.214 88.9287 129.811
139.787 88.5936 127.851
145.245 88.3589 127.805
145.987 87.5177 125.381
146.08 87.3179 126.9
146.783 86.6144 125.3
139.244 88.2685 131.158
145.592 88.2019 129.655
146.28 87.1284 128.711
147.012 86.3336 127.345
138.986 87.62 132.64
146.56 87.1573 130.707
147.062 86.1323 129.527
138.739 87.4651 134.401
146.679 87.0294 132.19
147.378 86.0527 131.674
138.728 86.7264 135.684
147.265 86.5591 133.774
147.561 86.7318 136
147.882 85.8915 134.886
139.034 86.0592 137.034
147.876 86.7902 137.616
148.288 85.8282 136.636
139.004 85.9533 138.584
148.063 87.109 139.245
148.559 86.0031 138.768
139.287 85.5298 140.071
148.83 85.5987 140.279
140.073 84.6139 140.471
140.238 85.0297 142.044
140.853 84.1036 141.093
148.82 85.154 141.833
140.622 84.8133 143.35
141.11 84.225 142.47
148.662 84.7058 143.507
141.806 84.0265 143.685
142.742 83.8628 144.782
148.299 84.1354 144.655
143.064 83.9664 145.843
142.987 84.4441 146.888
143.634 83.82 146.67
147.756 83.4822 145.726
147.48 83.7447 147.12
144.903 84.3735 148.675
144.094 84.2023 147.714
145.936 83.7277 148.502
145.092 83.3414 147.433
147.006 84.0209 148.27
146.345 83.1044 147.176
144.92 84.7659 149.769
145.694 84.3827 149.756
146.745 84.3125 149.431
142.433 88.7923 120.731
141.562 87.9274 121.577
141.802 87.4711 120.243
142.48 88.1967 119.049
143.855 88.8976 120.899
143.951 88.8623 119.318
145.138 88.3476 120.865
145.3 88.4088 119.344
140.579 87.8495 124.548
141.234 87.3417 122.874
145.279 88.1021 122.474
145.971 87.5842 120.468
146.163 87.1373 121.916
146.778 86.6255 120.696
140.524 87.3265 125.857
146.284 87.0989 123.642
147.051 86.1618 122.963
139.743 87.6653 129.137
140.21 87.1002 127.323
147.332 85.6448 125.183
139.662 86.8772 130.607
140.098 86.2737 128.831
147.6 85.3584 127.551
139.441 86.4156 132.07
140.122 85.4946 130.546
147.687 85.0624 129.805
139.104 86.3092 133.806
139.878 85.3537 132.184
147.885 84.5882 131.517
139.352 85.4948 135.134
147.833 85.3822 133.228
148.276 84.9381 134.77
139.922 84.5769 135.391
139.803 84.9061 137.18
140.513 83.9553 136.33
148.559 84.8557 136.95
139.825 84.8456 138.576
140.702 83.9062 137.651
148.697 84.6222 138.613
140.092 84.6384 139.488
140.878 83.9015 138.972
148.671 84.1906 140.134
141.688 83.4727 141.468
141.417 83.3198 139.805
142.366 82.7998 140.852
148.517 83.899 141.763
141.79 83.5998 142.606
142.552 82.9869 142.448
148.317 83.4533 143.183
143.837 83.0631 144.97
143.033 83.1263 143.664
144.94 82.4042 144.8
144.206 82.336 143.599
146.071 82.2284 144.597
145.366 81.8023 143.289
147.033 82.4384 144.298
146.56 81.8833 143.087
147.713 83.1033 144.397
147.525 82.4262 143.087
144.472 82.9696 146.318
145.635 82.5943 146.101
146.864 82.7452 145.805
145.94 91.7029 109.002
144.642 89.9358 110.314
145.679 89.9421 107.561
147.001 91.3264 105.963
147.576 91.024 109.179
148.651 90.9928 106.737
148.6 89.8956 109.115
149.083 89.1854 107.591
145.142 90.3164 112.197
144.022 88.8589 112.323
146.65 90.3854 111.686
147.769 89.3812 111.239
148.649 88.3482 110.054
144.666 89.3013 114.356
143.559 87.7021 114.029
146.211 89.4784 113.774
147.462 88.6505 113.53
148.31 87.5673 112.641
143.583 88.7234 115.711
143.038 87.236 116.741
143.468 86.8075 115.41
145.38 88.8548 116.302
146.725 88.4534 115.59
147.69 87.1012 115.439
148.252 86.3448 114.469
143.313 88.4263 117.625
142.741 86.6467 118.026
144.826 88.6255 117.745
146.632 87.6579 117.623
147.612 86.6709 117.037
141.944 86.3431 121.433
142.448 86.2938 119.476
146.235 87.5779 119.002
147.335 86.2843 119.17
141.005 86.4759 124.302
141.629 85.8192 122.808
147.432 85.5275 121.114
140.792 85.8701 125.697
147.538 84.9807 123.233
140.678 85.5436 127.246
147.733 84.5801 125.438
140.629 84.9752 128.76
147.957 84.229 127.785
140.76 84.3144 130.23
148.117 83.7396 129.707
139.889 84.981 133.527
140.645 84.2351 131.909
148.068 83.069 131.503
139.945 84.5916 134.345
140.759 83.8978 133.576
148.105 84.1025 133.114
148.376 83.8828 135.071
141.417 83.0742 136.452
140.87 83.5583 134.965
141.874 82.5745 135.304
148.425 83.5354 136.556
141.785 82.9045 137.665
142.458 82.028 136.466
148.502 83.3488 138.122
141.681 83.02 138.73
142.607 82.156 138.218
148.423 82.9725 139.32
148.246 82.562 138.073
147.879 81.9928 138.664
143.375 82.174 141.215
142.645 82.3237 139.572
143.576 81.6059 139.886
148.204 82.8403 140.536
147.469 81.7306 140.088
143.63 82.1736 142.543
144.264 81.4157 140.852
144.723 81.481 142.1
146.115 81.3374 141.888
145.326 81.011 140.79
147.301 81.9696 141.56
146.528 81.149 140.481
148.012 82.9321 141.986
144.937 88.3169 110.35
145.816 87.6665 108.486
146.931 88.4093 106.235
148.52 88.9139 105.697
148.884 87.5661 108.178
144.405 87.0106 112.534
148.697 86.7905 110.985
144.235 85.5537 114.257
148.63 85.8278 112.993
143.563 85.382 116.916
143.934 85.3072 115.601
148.348 84.3966 114.444
148.182 85.0009 116.328
143.324 84.8623 118.45
147.97 85.3005 118.129
142.496 85.1084 120.841
143.045 84.5656 119.734
147.832 84.6879 119.787
141.572 84.9719 124.012
142.408 84.4848 122.267
147.874 84.1669 121.646
141.407 84.4716 125.548
142.388 83.746 123.831
147.806 83.7197 123.665
141.3 84.137 127.115
142.224 83.2586 125.652
147.954 83.3815 125.77
141.239 83.6795 128.724
142.154 82.9344 127.323
148.064 82.9371 127.641
141.453 83.2561 130.69
142.057 82.7653 128.958
147.957 82.4421 129.447
141.588 83.0909 132.405
142.393 82.3317 130.214
142.406 82.1713 131.566
143.283 81.4785 130.523
147.806 81.9095 130.94
141.803 82.7842 133.976
142.635 82.033 133.069
143.514 81.0656 132.131
148.026 82.9884 133.317
147.815 81.8071 132.802
142.772 81.7356 134.779
143.615 80.9834 133.743
148.096 82.4413 134.676
147.701 81.3295 134.82
143.409 81.3239 136.91
143.709 80.8777 135.472
148.111 82.2237 136.481
147.469 81.0539 136.161
143.618 81.2813 138.502
144.322 80.6241 136.783
144.75 80.6327 138.154
146.229 80.5394 138.116
145.379 80.3088 136.926
147.466 81.2925 137.57
146.647 80.4669 136.684
144.486 80.8312 139.543
145.67 80.6369 139.454
146.936 81.1118 139.092
145.238 86.7765 110.673
145.958 86.066 109.433
146.86 86.2694 107.976
148.293 86.4441 107.421
148.6 85.9345 109.715
145.104 85.4891 112.493
148.521 85.2502 111.52
145.201 84.3723 113.578
148.444 84.4886 112.902
144.58 83.8918 115.925
145.208 83.7216 114.737
146.053 82.3863 115.537
147.961 83.2173 115.536
147.172 82.5343 114.401
147.968 83.3757 113.41
144.23 83.6226 117.554
145.304 82.3915 116.969
146.886 81.9486 116.58
147.936 83.2878 116.937
148.073 83.7946 118.288
143.333 83.6569 120.909
144.027 83.2136 119.249
147.939 83.0931 120.211
143.335 83.0557 122.53
144.218 82.4146 121.082
147.82 82.7295 122.184
143.175 82.4925 124.3
144.117 81.836 122.986
147.83 82.4301 124.177
143.201 82.1571 126.082
144.054 81.3746 124.912
147.824 82.0228 125.973
143.137 81.9604 127.82
144.117 81.1645 126.789
147.746 81.606 127.669
143.058 81.8378 129.216
143.936 80.929 128.638
147.578 81.1911 129.263
144.134 80.6348 130.315
147.448 80.9548 131.101
144.411 80.284 131.549
144.645 80.1747 133.02
146.12 80.1392 132.81
145.448 79.9695 131.644
147.188 80.7155 132.414
146.588 80.2157 131.241
144.575 80.2566 134.59
145.832 80.1687 134.22
147.154 80.7261 133.787
144.677 80.2257 135.848
145.74 80.0077 135.607
146.88 80.3528 135.27
145.753 85.1273 111.004
146.708 84.7549 109.66
147.785 85.3018 109.003
145.87 83.9498 112.421
146.802 83.798 111.296
147.943 84.4605 110.422
145.944 83.0629 113.695
146.914 82.7672 112.756
147.883 83.7419 112.004
145.137 82.1105 118.757
146.362 81.4305 118.179
147.673 82.1722 117.854
145.157 81.6694 120.377
146.439 80.9713 119.88
147.667 81.9593 119.269
145.102 81.1383 122.113
146.442 80.7266 121.684
147.59 81.5651 121.114
145.083 80.8185 123.936
146.319 80.6407 123.444
147.403 81.3977 122.931
145.015 80.4471 125.798
146.24 80.3253 125.154
147.313 81.1127 124.701
144.905 80.1963 127.58
146.151 80.1293 126.89
147.198 80.7706 126.364
144.849 80.0921 129.16
146.046 79.9607 128.543
147.043 80.4921 128.042
144.867 79.9995 130.5
145.808 79.9163 130.064
146.87 80.3338 129.689
POLYGONS 1936  7744
3 0 1 2
3 0 3 4
3 2 3 0
3 4 5 6
3 3 5 4
3 5 7 6
3 8 1 0
3 9 1 8
3 4 10 0
3 10 8 0
3 6 11 4
3 11 10 4
3 12 6 7
3 11 6 12
3 8 13 9
3 10 13 8
3 14 13 10
3 11 14 10
3 15 14 11
3 12 15 11
3 16 17 18
3 16 19 20
3 18 19 16
3 20 21 22
3 19 21 20
3 21 23 22
3 24 17 16
3 25 17 24
3 20 26 16
3 26 24 16
3 22 27 20
3 27 26 20
3 28 22 23
3 28 29 22
3 29 27 22
3 28 30 29
3 31 25 24
3 32 25 31
3 26 33 24
3 33 31 24
3 27 34 26
3 34 33 26
3 29 35 27
3 35 34 27
3 36 29 30
3 35 29 36
3 31 37 32
3 37 38 39
3 37 31 38
3 31 33 38
3 34 40 33
3 40 38 33
3 35 41 34
3 41 40 34
3 42 35 36
3 41 35 42
3 38 43 39
3 40 43 38
3 44 43 40
3 44 45 46
3 44 40 45
3 40 41 45
3 47 41 42
3 47 48 41
3 48 45 41
3 48 49 50
3 47 49 48
3 49 51 50
3 52 46 45
3 53 46 52
3 48 54 45
3 54 52 45
3 50 55 48
3 55 54 48
3 56 50 51
3 55 50 56
3 57 58 59
3 53 57 59
3 52 57 53
3 52 1 57
3 52 2 1
3 3 2 52
3 54 3 52
3 5 3 54
3 55 5 54
3 55 7 5
3 55 56 7
3 56 60 7
3 61 58 57
3 62 58 61
3 1 9 61
3 57 1 61
3 7 60 12
3 60 63 12
3 61 64 62
3 9 64 61
3 9 13 64
3 13 65 64
3 14 66 13
3 13 66 65
3 15 67 14
3 14 67 66
3 63 15 12
3 67 15 63
3 68 69 70
3 68 71 72
3 70 71 68
3 71 73 72
3 74 69 68
3 75 69 74
3 18 17 74
3 18 74 72
3 72 74 68
3 72 73 76
3 72 76 18
3 18 76 19
3 21 19 77
3 19 76 77
3 77 23 21
3 78 23 77
3 79 75 74
3 80 75 79
3 17 25 79
3 74 17 79
3 23 78 81
3 28 23 81
3 81 30 28
3 82 30 81
3 83 80 79
3 84 80 83
3 25 32 83
3 79 25 83
3 85 86 36
3 85 36 82
3 82 36 30
3 85 87 86
3 83 88 84
3 89 90 88
3 37 89 88
3 37 88 83
3 37 83 32
3 37 39 89
3 86 91 42
3 36 86 42
3 92 86 87
3 91 86 92
3 89 93 90
3 94 95 93
3 43 94 93
3 43 93 89
3 43 89 39
3 43 44 96
3 94 43 96
3 44 46 96
3 42 91 47
3 91 92 97
3 91 97 47
3 47 97 49
3 97 51 49
3 98 51 97
3 99 95 94
3 100 95 99
3 96 101 94
3 101 99 94
3 46 53 101
3 96 46 101
3 51 98 56
3 98 102 56
3 99 103 100
3 59 58 104
3 59 104 99
3 59 99 101
3 99 104 103
3 53 59 101
3 56 102 60
3 102 105 60
3 58 62 104
3 104 62 106
3 60 105 63
3 105 107 63
3 62 108 106
3 64 108 62
3 109 110 108
3 109 108 65
3 65 108 64
3 65 66 111
3 109 65 111
3 66 67 112
3 111 66 112
3 67 113 112
3 67 63 113
3 63 107 113
3 109 114 110
3 111 114 109
3 115 114 111
3 112 115 111
3 116 115 112
3 113 116 112
3 70 117 118
3 69 117 70
3 71 70 119
3 70 118 119
3 73 120 121
3 73 71 120
3 71 119 120
3 120 122 121
3 69 75 117
3 117 75 123
3 73 121 76
3 121 122 124
3 121 124 76
3 76 124 77
3 124 78 77
3 125 78 124
3 75 80 123
3 123 80 126
3 78 125 127
3 81 78 127
3 127 82 81
3 128 82 127
3 80 84 126
3 126 84 129
3 82 128 130
3 85 82 130
3 130 87 85
3 131 87 130
3 132 84 88
3 132 133 84
3 133 129 84
3 88 90 132
3 87 131 92
3 131 134 92
3 135 133 132
3 136 133 135
3 90 93 137
3 90 137 132
3 132 137 135
3 93 95 137
3 92 134 138
3 97 92 138
3 138 98 97
3 139 98 138
3 135 140 136
3 140 141 142
3 140 135 141
3 135 137 141
3 95 100 141
3 137 95 141
3 98 139 102
3 139 143 102
3 141 144 142
3 145 146 144
3 103 145 144
3 103 144 141
3 103 141 100
3 103 104 145
3 147 148 105
3 147 105 143
3 143 105 102
3 147 149 148
3 150 146 145
3 151 146 150
3 104 106 150
3 145 104 150
3 148 152 107
3 105 148 107
3 153 148 149
3 152 148 153
3 150 154 151
3 106 154 150
3 106 108 154
3 108 155 154
3 155 108 110
3 156 155 110
3 152 157 113
3 107 152 113
3 158 152 153
3 157 152 158
3 110 159 156
3 114 159 110
3 115 160 114
3 114 160 159
3 116 161 115
3 115 161 160
3 157 116 113
3 157 162 116
3 162 161 116
3 158 162 157
3 163 164 165
3 163 166 167
3 165 166 163
3 167 168 169
3 166 168 167
3 168 170 169
3 118 164 163
3 118 117 164
3 117 171 164
3 119 118 163
3 167 119 163
3 120 119 167
3 169 120 167
3 169 122 120
3 169 170 122
3 170 172 122
3 117 123 171
3 171 123 173
3 122 172 174
3 124 122 174
3 174 125 124
3 175 125 174
3 123 126 173
3 173 126 176
3 125 175 177
3 127 125 177
3 177 128 127
3 178 128 177
3 126 129 176
3 176 129 179
3 128 178 180
3 130 128 180
3 180 131 130
3 181 131 180
3 129 133 179
3 179 133 182
3 131 181 134
3 181 183 134
3 133 136 182
3 182 136 184
3 134 183 185
3 138 134 185
3 185 139 138
3 186 139 185
3 187 136 140
3 187 188 136
3 188 184 136
3 140 142 187
3 189 190 143
3 189 143 186
3 186 143 139
3 189 191 190
3 187 192 188
3 193 194 192
3 144 193 192
3 144 192 187
3 144 187 142
3 144 146 193
3 143 190 147
3 190 149 147
3 190 191 149
3 191 195 149
3 196 194 193
3 197 194 196
3 146 151 196
3 193 146 196
3 149 195 153
3 195 198 153
3 196 199 197
3 151 199 196
3 151 154 199
3 154 200 199
3 201 202 200
3 201 200 155
3 155 200 154
3 155 156 201
3 153 198 158
3 198 203 158
3 201 204 202
3 156 204 201
3 156 159 204
3 159 205 204
3 160 206 159
3 159 206 205
3 161 207 160
3 160 207 206
3 162 208 161
3 161 208 207
3 203 162 158
3 208 162 203
3 165 209 210
3 164 209 165
3 166 165 211
3 165 210 211
3 168 166 212
3 166 211 212
3 212 170 168
3 213 170 212
3 164 171 209
3 209 171 214
3 170 213 172
3 213 215 172
3 171 173 214
3 214 173 216
3 172 215 217
3 174 172 217
3 217 175 174
3 218 175 217
3 173 176 216
3 216 176 219
3 175 218 220
3 177 175 220
3 220 178 177
3 221 178 220
3 176 179 219
3 219 179 222
3 178 221 223
3 180 178 223
3 223 181 180
3 224 181 223
3 179 182 222
3 222 182 225
3 181 224 183
3 224 226 183
3 182 184 225
3 225 184 227
3 183 226 228
3 185 183 228
3 228 186 185
3 229 186 228
3 184 188 227
3 227 188 230
3 186 229 231
3 189 186 231
3 231 191 189
3 232 191 231
3 188 233 230
3 192 233 188
3 233 192 194
3 234 233 194
3 191 232 195
3 232 235 195
3 194 197 234
3 234 197 236
3 195 235 198
3 235 237 198
3 197 238 236
3 199 238 197
3 200 239 199
3 199 239 238
3 239 200 202
3 240 239 202
3 198 237 203
3 237 241 203
3 202 242 240
3 204 242 202
3 205 243 204
3 204 243 242
3 206 244 205
3 205 244 243
3 207 245 206
3 206 245 244
3 208 246 207
3 207 246 245
3 241 208 203
3 246 208 241
3 247 248 249
3 247 250 251
3 249 250 247
3 251 252 253
3 250 252 251
3 252 254 253
3 210 248 247
3 210 209 248
3 209 255 248
3 211 210 247
3 251 211 247
3 212 211 251
3 253 212 251
3 253 213 212
3 253 254 213
3 254 256 213
3 209 214 255
3 255 214 257
3 213 256 215
3 256 258 215
3 214 216 257
3 257 216 259
3 215 258 260
3 217 215 260
3 260 218 217
3 261 218 260
3 216 219 259
3 259 219 262
3 218 261 263
3 220 218 263
3 263 221 220
3 264 221 263
3 219 222 262
3 262 222 265
3 221 264 266
3 223 221 266
3 266 224 223
3 267 224 266
3 222 225 265
3 265 225 268
3 224 267 226
3 267 269 226
3 225 227 268
3 268 227 270
3 226 269 271
3 228 226 271
3 271 229 228
3 272 229 271
3 227 230 270
3 270 230 273
3 274 231 229
3 274 229 275
3 275 229 272
3 231 274 232
3 230 276 273
3 233 276 230
3 276 233 234
3 277 276 234
3 274 275 278
3 278 232 274
3 278 279 232
3 279 235 232
3 234 236 277
3 277 236 280
3 235 279 237
3 279 281 237
3 236 282 280
3 238 282 236
3 239 283 238
3 238 283 282
3 283 239 240
3 284 283 240
3 237 281 241
3 281 285 241
3 240 286 284
3 242 286 240
3 243 287 242
3 242 287 286
3 244 288 243
3 243 288 287
3 245 289 244
3 244 289 288
3 246 290 245
3 245 290 289
3 285 246 241
3 290 246 285
3 249 291 292
3 248 291 249
3 250 249 293
3 249 292 293
3 252 250 294
3 250 293 294
3 294 254 252
3 295 254 294
3 248 255 291
3 291 255 296
3 297 298 256
3 297 256 295
3 295 256 254
3 297 299 298
3 255 257 296
3 296 257 300
3 298 301 258
3 256 298 258
3 302 298 299
3 301 298 302
3 257 259 300
3 300 259 303
3 258 301 260
3 261 304 305
3 260 304 261
3 260 302 304
3 260 301 302
3 304 306 305
3 259 262 303
3 303 262 307
3 261 305 263
3 305 264 263
3 305 306 264
3 306 308 264
3 262 265 307
3 307 265 309
3 264 308 310
3 266 264 310
3 310 267 266
3 311 267 310
3 265 268 309
3 309 268 312
3 313 314 269
3 313 269 311
3 311 269 267
3 313 315 314
3 268 270 312
3 312 270 316
3 269 314 271
3 314 272 271
3 314 315 272
3 315 317 272
3 270 273 316
3 316 273 318
3 272 317 275
3 317 319 275
3 273 320 318
3 276 320 273
3 320 276 277
3 321 320 277
3 275 319 322
3 278 275 322
3 322 279 278
3 323 279 322
3 277 280 321
3 321 280 324
3 279 323 281
3 323 325 281
3 280 326 324
3 282 326 280
3 283 327 282
3 282 327 326
3 327 283 284
3 328 327 284
3 281 325 285
3 325 329 285
3 284 330 328
3 286 330 284
3 287 331 286
3 286 331 330
3 288 332 287
3 287 332 331
3 289 333 288
3 288 333 332
3 290 334 289
3 289 334 333
3 329 290 285
3 334 290 329
3 335 336 337
3 335 338 339
3 337 338 335
3 338 340 339
3 292 291 341
3 335 342 336
3 335 292 342
3 335 293 292
3 341 342 292
3 294 293 335
3 339 294 335
3 295 343 344
3 294 343 295
3 294 340 343
3 294 339 340
3 343 345 344
3 341 346 347
3 341 291 346
3 291 296 346
3 342 341 347
3 295 344 297
3 344 299 297
3 344 345 299
3 345 348 299
3 296 300 346
3 346 300 349
3 299 348 302
3 348 350 302
3 300 303 349
3 349 303 351
3 302 350 352
3 304 302 352
3 352 306 304
3 353 306 352
3 303 307 351
3 351 307 354
3 355 356 308
3 355 308 353
3 353 308 306
3 355 357 356
3 307 309 354
3 354 309 358
3 308 356 310
3 311 359 360
3 310 359 311
3 310 357 359
3 310 356 357
3 359 361 360
3 309 312 358
3 358 312 362
3 311 360 313
3 360 315 313
3 360 361 315
3 361 363 315
3 312 316 362
3 362 316 364
3 315 363 317
3 363 365 317
3 316 318 364
3 364 318 366
3 317 365 319
3 365 367 319
3 318 368 366
3 320 368 318
3 368 320 321
3 369 368 321
3 370 322 319
3 370 319 371
3 371 319 367
3 322 370 323
3 372 324 373
3 372 369 324
3 369 321 324
3 372 373 374
3 375 370 371
3 376 375 371
3 323 375 325
3 370 375 323
3 324 326 373
3 373 377 374
3 373 326 377
3 326 327 377
3 328 378 379
3 328 379 327
3 327 379 377
3 378 380 381
3 379 378 381
3 380 382 383
3 381 380 383
3 382 384 385
3 383 382 385
3 376 385 384
3 376 384 375
3 375 384 386
3 325 386 329
3 375 386 325
3 328 330 378
3 331 378 330
3 380 378 331
3 332 380 331
3 382 380 332
3 333 382 332
3 384 382 333
3 334 384 333
3 386 384 334
3 329 386 334
3 387 388 389
3 387 390 391
3 389 390 387
3 390 392 391
3 337 388 387
3 337 336 388
3 336 393 388
3 338 337 387
3 391 338 387
3 340 394 395
3 338 394 340
3 338 392 394
3 338 391 392
3 394 396 395
3 336 342 393
3 393 342 397
3 340 395 343
3 395 345 343
3 395 396 345
3 396 398 345
3 347 399 400
3 346 399 347
3 397 342 347
3 400 397 347
3 401 402 348
3 401 348 398
3 398 348 345
3 401 403 402
3 346 349 399
3 399 349 404
3 402 405 350
3 348 402 350
3 406 402 403
3 405 402 406
3 349 351 404
3 404 351 407
3 350 405 352
3 353 408 409
3 352 408 353
3 352 406 408
3 352 405 406
3 408 410 409
3 351 354 407
3 407 354 411
3 353 409 355
3 357 412 413
3 355 412 357
3 355 410 412
3 355 409 410
3 412 414 413
3 354 358 411
3 411 358 415
3 357 413 359
3 413 361 359
3 413 414 361
3 414 416 361
3 358 362 415
3 415 362 417
3 361 416 363
3 416 418 363
3 362 364 417
3 417 364 419
3 420 421 365
3 420 365 418
3 418 365 363
3 420 422 421
3 423 366 424
3 423 419 366
3 419 364 366
3 423 424 425
3 421 426 367
3 365 421 367
3 427 421 422
3 426 421 427
3 366 368 424
3 369 428 429
3 368 369 429
3 368 429 425
3 368 425 424
3 429 428 430
3 426 431 371
3 367 426 371
3 432 426 427
3 431 426 432
3 369 372 428
3 374 433 434
3 372 374 434
3 372 434 430
3 372 430 428
3 434 433 435
3 431 436 437
3 431 437 371
3 371 437 376
3 432 436 431
3 374 377 433
3 433 438 435
3 433 377 438
3 377 379 438
3 381 439 379
3 379 439 438
3 383 440 381
3 381 440 439
3 385 441 383
3 383 441 440
3 437 385 376
3 441 385 437
3 442 443 444
3 442 445 446
3 444 445 442
3 446 447 448
3 445 447 446
3 447 449 448
3 389 443 442
3 389 388 443
3 388 450 443
3 390 389 442
3 446 390 442
3 392 390 446
3 392 446 451
3 451 446 448
3 452 448 449
3 451 448 452
3 388 393 450
3 450 393 453
3 392 451 394
3 396 454 455
3 394 454 396
3 394 452 454
3 394 451 452
3 454 456 455
3 393 397 453
3 453 397 457
3 455 458 398
3 396 455 398
3 459 455 456
3 458 455 459
3 400 460 461
3 399 460 400
3 457 397 400
3 461 457 400
3 398 458 401
3 403 462 463
3 401 462 403
3 401 459 462
3 401 458 459
3 462 464 463
3 399 404 460
3 460 404 465
3 463 466 406
3 403 463 406
3 467 463 464
3 466 463 467
3 404 407 465
3 465 407 468
3 406 466 408
3 410 469 470
3 408 469 410
3 408 467 469
3 408 466 467
3 469 471 470
3 407 411 468
3 468 411 472
3 410 470 412
3 470 414 412
3 470 471 414
3 471 473 414
3 411 415 472
3 472 415 474
3 475 476 416
3 475 416 473
3 473 416 414
3 475 477 476
3 478 417 479
3 478 474 417
3 474 415 417
3 478 479 480
3 476 481 418
3 416 476 418
3 482 476 477
3 481 476 482
3 479 419 483
3 417 419 479
3 484 480 479
3 483 484 479
3 418 481 420
3 481 422 420
3 481 482 422
3 482 485 422
3 419 423 483
3 483 423 425
3 483 425 484
3 484 425 486
3 422 485 427
3 485 487 427
3 425 488 486
3 429 488 425
3 488 429 430
3 489 488 430
3 427 487 432
3 487 490 432
3 430 491 489
3 434 491 430
3 435 492 493
3 435 493 434
3 434 493 491
3 493 492 494
3 436 495 496
3 437 436 496
3 490 436 432
3 495 436 490
3 435 438 492
3 492 497 494
3 492 438 497
3 438 439 497
3 440 498 439
3 439 498 497
3 441 499 440
3 440 499 498
3 496 441 437
3 499 441 496
3 444 500 501
3 443 500 444
3 445 444 502
3 444 501 502
3 447 445 503
3 445 502 503
3 503 449 447
3 504 449 503
3 443 450 500
3 500 450 505
3 506 507 452
3 506 452 504
3 504 452 449
3 506 508 507
3 450 453 505
3 505 453 509
3 452 507 454
3 456 510 511
3 454 510 456
3 454 508 510
3 454 507 508
3 510 512 511
3 453 457 509
3 509 457 513
3 511 514 459
3 456 511 459
3 515 511 512
3 514 511 515
3 461 460 516
3 461 516 517
3 461 517 457
3 457 517 513
3 459 514 462
3 464 518 519
3 462 518 464
3 462 515 518
3 462 514 515
3 518 520 519
3 516 521 522
3 516 460 521
3 460 465 521
3 517 516 522
3 519 523 467
3 464 519 467
3 524 519 520
3 523 519 524
3 465 468 521
3 521 468 525
3 467 523 469
3 471 526 527
3 469 526 471
3 469 524 526
3 469 523 524
3 526 528 527
3 468 472 525
3 525 472 529
3 527 530 473
3 471 527 473
3 531 527 528
3 530 527 531
3 532 474 533
3 532 529 474
3 529 472 474
3 532 533 534
3 473 530 475
3 530 477 475
3 530 531 477
3 531 535 477
3 474 478 533
3 533 478 480
3 533 480 534
3 534 480 536
3 477 535 482
3 535 537 482
3 538 484 539
3 538 536 484
3 536 480 484
3 538 539 540
3 482 537 485
3 537 541 485
3 539 486 542
3 484 486 539
3 543 540 539
3 542 543 539
3 485 541 487
3 541 544 487
3 486 488 542
3 489 545 546
3 488 489 546
3 488 546 543
3 488 543 542
3 545 547 548
3 546 545 548
3 548 547 549
3 550 551 552
3 550 544 551
3 550 490 544
3 490 487 544
3 489 491 545
3 493 545 491
3 547 545 493
3 494 553 554
3 493 494 554
3 493 554 549
3 493 549 547
3 553 555 556
3 554 553 556
3 555 557 558
3 556 555 558
3 552 558 557
3 550 552 557
3 550 557 496
3 550 496 495
3 490 550 495
3 494 497 553
3 498 553 497
3 555 553 498
3 499 555 498
3 557 555 499
3 496 557 499
3 559 560 561
3 559 562 563
3 561 562 559
3 563 564 565
3 562 564 563
3 565 566 567
3 564 566 565
3 566 568 567
3 501 560 559
3 501 500 560
3 500 569 560
3 502 501 559
3 563 502 559
3 503 502 563
3 565 503 563
3 504 503 565
3 504 565 570
3 570 565 567
3 571 567 568
3 570 567 571
3 500 505 569
3 569 505 572
3 504 570 506
3 508 573 574
3 506 573 508
3 506 571 573
3 506 570 571
3 573 575 574
3 505 509 572
3 572 509 576
3 508 574 510
3 574 512 510
3 574 575 512
3 575 577 512
3 509 513 576
3 576 513 578
3 579 580 515
3 579 515 577
3 577 515 512
3 579 581 580
3 513 517 578
3 578 517 582
3 515 580 518
3 580 520 518
3 580 581 520
3 581 583 520
3 522 521 584
3 522 584 585
3 522 585 517
3 517 585 582
3 520 583 524
3 583 586 524
3 584 525 587
3 521 525 584
3 588 585 584
3 587 588 584
3 524 586 589
3 526 524 589
3 589 528 526
3 590 528 589
3 587 529 591
3 525 529 587
3 592 588 587
3 591 592 587
3 528 590 531
3 590 593 531
3 529 532 591
3 591 532 534
3 591 534 592
3 592 534 594
3 531 593 535
3 593 595 535
3 596 536 597
3 596 594 536
3 594 534 536
3 597 598 599
3 596 597 599
3 599 598 600
3 535 595 537
3 595 601 537
3 536 538 597
3 540 597 538
3 540 602 597
3 602 598 597
3 603 600 598
3 602 603 598
3 604 605 606
3 604 601 605
3 604 541 601
3 541 537 601
3 602 543 607
3 540 543 602
3 608 603 602
3 608 602 609
3 609 602 607
3 608 609 610
3 611 604 606
3 612 611 606
3 541 611 544
3 604 611 541
3 543 546 607
3 548 607 546
3 609 607 548
3 609 548 549
3 609 549 610
3 610 549 613
3 551 611 612
3 551 612 552
3 552 612 614
3 544 611 551
3 549 615 613
3 554 615 549
3 556 616 554
3 554 616 615
3 558 617 556
3 556 617 616
3 614 558 552
3 617 558 614
3 618 619 620
3 618 621 622
3 620 621 618
3 622 623 624
3 621 623 622
3 623 625 624
3 626 619 618
3 627 619 626
3 622 628 618
3 628 626 618
3 624 629 622
3 629 628 622
3 630 624 625
3 630 631 624
3 631 629 624
3 630 632 631
3 561 633 634
3 560 633 561
3 627 626 562
3 627 562 634
3 634 562 561
3 564 562 626
3 628 564 626
3 566 564 628
3 629 566 628
3 568 566 629
3 568 629 635
3 635 629 631
3 636 631 632
3 636 637 631
3 637 635 631
3 636 638 637
3 560 569 633
3 633 569 639
3 635 640 571
3 568 635 571
3 637 641 635
3 641 640 635
3 642 637 638
3 641 637 642
3 569 572 639
3 639 572 643
3 571 640 573
3 575 573 640
3 575 640 644
3 644 640 641
3 645 641 642
3 644 641 645
3 572 576 643
3 643 576 646
3 644 647 577
3 575 644 577
3 648 644 645
3 647 644 648
3 576 578 646
3 646 578 649
3 577 647 579
3 581 650 651
3 579 650 581
3 579 648 650
3 579 647 648
3 650 652 651
3 578 582 649
3 649 582 653
3 651 654 583
3 581 651 583
3 655 651 652
3 654 651 655
3 582 585 653
3 653 585 656
3 654 657 586
3 583 654 586
3 658 654 655
3 657 654 658
3 585 588 656
3 656 588 659
3 586 657 589
3 657 590 589
3 657 658 590
3 658 660 590
3 661 592 662
3 661 659 592
3 659 588 592
3 661 662 663
3 590 660 593
3 660 664 593
3 662 594 665
3 592 594 662
3 666 663 662
3 665 666 662
3 593 664 595
3 664 667 595
3 594 596 665
3 665 668 666
3 665 596 668
3 596 599 668
3 668 599 600
3 669 668 600
3 595 667 601
3 667 670 601
3 671 603 672
3 671 669 603
3 669 600 603
3 671 672 673
3 605 674 675
3 606 605 675
3 670 605 601
3 674 605 670
3 603 608 672
3 610 676 677
3 608 610 677
3 608 677 673
3 608 673 672
3 676 678 679
3 677 676 679
3 678 680 681
3 679 678 681
3 680 675 681
3 680 612 675
3 612 606 675
3 676 613 682
3 610 613 676
3 678 676 683
3 683 676 682
3 680 678 684
3 684 678 683
3 612 684 614
3 680 684 612
3 613 615 682
3 616 682 615
3 683 682 616
3 617 683 616
3 684 683 617
3 614 684 617
3 685 686 687
3 685 688 689
3 687 688 685
3 689 690 691
3 688 690 689
3 690 692 691
3 620 693 694
3 619 693 620
3 686 685 621
3 686 621 694
3 694 621 620
3 623 621 685
3 689 623 685
3 625 623 689
3 625 689 695
3 695 689 691
3 696 691 692
3 696 697 691
3 697 695 691
3 696 698 697
3 619 627 693
3 693 627 699
3 625 695 630
3 632 630 695
3 632 695 700
3 700 695 697
3 701 697 698
3 700 697 701
3 634 633 702
3 634 702 703
3 634 703 627
3 627 703 699
3 632 700 636
3 700 638 636
3 700 701 638
3 701 704 638
3 702 639 705
3 633 639 702
3 706 703 702
3 705 706 702
3 638 704 642
3 704 707 642
3 705 643 708
3 639 643 705
3 709 706 705
3 708 709 705
3 642 707 645
3 707 710 645
3 708 711 712
3 708 643 711
3 643 646 711
3 709 708 712
3 645 710 648
3 710 713 648
3 646 649 711
3 711 649 714
3 648 713 715
3 650 648 715
3 715 652 650
3 716 652 715
3 717 653 718
3 717 714 653
3 714 649 653
3 717 718 719
3 652 716 655
3 716 720 655
3 718 656 721
3 653 656 718
3 722 719 718
3 721 722 718
3 655 720 658
3 720 723 658
3 721 659 724
3 656 659 721
3 725 722 721
3 724 725 721
3 658 723 660
3 723 726 660
3 659 661 724
3 663 727 728
3 661 663 728
3 661 728 725
3 661 725 724
3 728 727 729
3 660 726 664
3 726 730 664
3 727 666 731
3 663 666 727
3 732 729 727
3 731 732 727
3 664 730 667
3 730 733 667
3 666 668 731
3 669 734 735
3 668 669 735
3 668 735 732
3 668 732 731
3 734 736 737
3 735 734 737
3 736 738 739
3 737 736 739
3 738 740 741
3 739 738 741
3 740 742 743
3 741 740 743
3 742 733 743
3 742 670 733
3 670 667 733
3 669 671 734
3 673 734 671
3 673 744 734
3 744 736 734
3 738 736 745
3 745 736 744
3 740 738 746
3 746 738 745
3 674 746 675
3 674 742 746
3 742 740 746
3 670 742 674
3 673 677 744
3 679 744 677
3 745 744 679
3 681 745 679
3 746 745 681
3 675 746 681
3 747 748 749
3 747 750 751
3 749 750 747
3 751 752 753
3 750 752 751
3 752 754 753
3 755 748 747
3 756 748 755
3 751 757 747
3 757 755 747
3 753 758 751
3 758 757 751
3 759 753 754
3 758 753 759
3 760 756 755
3 761 756 760
3 757 762 755
3 762 760 755
3 758 763 757
3 763 762 757
3 764 758 759
3 763 758 764
3 765 766 767
3 761 765 767
3 761 760 765
3 760 768 765
3 762 769 760
3 769 768 760
3 770 763 771
3 770 769 763
3 769 762 763
3 764 771 763
3 772 766 765
3 773 766 772
3 768 774 765
3 774 772 765
3 769 775 768
3 775 774 768
3 776 769 770
3 775 769 776
3 687 777 778
3 686 777 687
3 773 772 688
3 773 688 778
3 778 688 687
3 690 688 772
3 774 690 772
3 692 690 774
3 692 774 779
3 779 774 775
3 780 775 776
3 779 775 780
3 694 781 782
3 693 781 694
3 777 686 694
3 782 777 694
3 692 779 696
3 779 698 696
3 779 780 698
3 780 783 698
3 693 699 781
3 781 699 784
3 698 783 701
3 783 785 701
3 699 703 784
3 784 703 786
3 701 785 704
3 785 787 704
3 703 706 786
3 786 706 788
3 704 787 707
3 787 789 707
3 706 709 788
3 788 709 790
3 707 789 710
3 789 791 710
3 712 711 792
3 712 792 793
3 712 793 709
3 709 793 790
3 710 791 713
3 791 794 713
3 792 714 795
3 711 714 792
3 796 793 792
3 795 796 792
3 713 794 797
3 715 713 797
3 797 716 715
3 798 716 797
3 714 717 795
3 719 799 800
3 717 719 800
3 717 800 796
3 717 796 795
3 800 799 801
3 716 798 720
3 798 802 720
3 799 722 803
3 719 722 799
3 804 801 799
3 803 804 799
3 720 802 723
3 802 805 723
3 803 725 806
3 722 725 803
3 807 804 803
3 806 807 803
3 808 809 810
3 808 805 809
3 808 726 805
3 726 723 805
3 725 728 806
3 729 811 812
3 728 729 812
3 728 812 807
3 728 807 806
3 812 811 813
3 814 808 810
3 815 814 810
3 726 814 730
3 808 814 726
3 811 732 816
3 729 732 811
3 817 813 811
3 817 811 818
3 818 811 816
3 818 819 820
3 817 818 820
3 819 821 822
3 820 819 822
3 815 822 821
3 815 821 814
3 814 821 823
3 730 823 733
3 814 823 730
3 732 735 816
3 737 816 735
3 818 816 737
3 739 818 737
3 819 818 739
3 741 819 739
3 821 819 741
3 743 821 741
3 823 821 743
3 733 823 743
3 749 824 825
3 748 824 749
3 750 749 826
3 749 825 826
3 752 750 827
3 750 826 827
3 827 754 752
3 828 754 827
3 748 756 824
3 824 756 829
3 754 828 759
3 828 830 759
3 756 761 829
3 829 761 831
3 759 830 764
3 830 832 764
3 767 833 834
3 766 833 767
3 831 761 767
3 834 831 767
3 771 835 836
3 770 771 836
3 832 771 764
3 835 771 832
3 766 773 833
3 833 773 837
3 770 836 776
3 836 838 776
3 778 839 840
3 777 839 778
3 837 773 778
3 840 837 778
3 776 838 780
3 838 841 780
3 782 781 842
3 782 842 843
3 782 843 777
3 777 843 839
3 780 841 783
3 841 844 783
3 842 784 845
3 781 784 842
3 846 843 842
3 845 846 842
3 783 844 785
3 844 847 785
3 845 786 848
3 784 786 845
3 849 846 845
3 848 849 845
3 785 847 787
3 847 850 787
3 848 788 851
3 786 788 848
3 852 849 848
3 851 852 848
3 787 850 789
3 850 853 789
3 851 790 854
3 788 790 851
3 855 852 851
3 854 855 851
3 789 853 791
3 853 856 791
3 854 793 857
3 790 793 854
3 858 855 854
3 858 854 859
3 859 854 857
3 858 859 860
3 791 856 794
3 856 861 794
3 857 796 862
3 793 796 857
3 859 857 863
3 863 857 862
3 864 860 859
3 863 864 859
3 865 797 794
3 865 794 866
3 866 794 861
3 797 865 798
3 796 800 862
3 801 862 800
3 801 867 862
3 867 863 862
3 868 864 863
3 867 868 863
3 869 865 866
3 870 869 866
3 798 869 802
3 865 869 798
3 867 804 871
3 801 804 867
3 872 868 867
3 871 872 867
3 873 869 870
3 874 873 870
3 802 873 805
3 869 873 802
3 871 807 875
3 804 807 871
3 876 872 871
3 876 871 877
3 877 871 875
3 877 878 879
3 876 877 879
3 878 880 881
3 879 878 881
3 874 881 880
3 873 874 880
3 873 880 810
3 873 810 809
3 805 873 809
3 807 812 875
3 813 875 812
3 813 882 875
3 882 877 875
3 878 877 883
3 883 877 882
3 880 878 884
3 884 878 883
3 810 884 815
3 880 884 810
3 813 817 882
3 820 882 817
3 883 882 820
3 822 883 820
3 884 883 822
3 815 884 822
3 825 885 886
3 824 885 825
3 826 825 887
3 825 886 887
3 827 826 888
3 826 887 888
3 888 828 827
3 889 828 888
3 824 829 885
3 885 829 890
3 828 889 830
3 889 891 830
3 829 831 890
3 890 831 892
3 830 891 832
3 891 893 832
3 834 833 894
3 895 892 831
3 895 831 894
3 895 894 896
3 894 831 834
3 896 897 898
3 895 896 898
3 897 836 835
3 897 835 898
3 898 835 899
3 893 835 832
3 899 835 893
3 894 900 901
3 894 833 900
3 833 837 900
3 896 894 901
3 902 896 901
3 897 896 902
3 903 897 902
3 903 836 897
3 903 904 836
3 904 838 836
3 840 839 905
3 840 905 906
3 840 906 837
3 837 906 900
3 838 904 841
3 904 907 841
3 905 843 908
3 839 843 905
3 909 906 905
3 908 909 905
3 841 907 844
3 907 910 844
3 908 846 911
3 843 846 908
3 912 909 908
3 911 912 908
3 844 910 847
3 910 913 847
3 911 849 914
3 846 849 911
3 915 912 911
3 914 915 911
3 847 913 850
3 913 916 850
3 914 852 917
3 849 852 914
3 918 915 914
3 917 918 914
3 850 916 853
3 916 919 853
3 917 855 920
3 852 855 917
3 921 918 917
3 920 921 917
3 853 919 856
3 919 922 856
3 855 858 920
3 920 858 860
3 920 860 921
3 921 860 923
3 856 922 861
3 922 924 861
3 925 864 926
3 925 923 864
3 923 860 864
3 926 927 928
3 925 926 928
3 927 929 930
3 928 927 930
3 929 924 930
3 929 866 924
3 866 861 924
3 926 868 931
3 864 868 926
3 927 926 932
3 932 926 931
3 929 927 933
3 933 927 932
3 866 933 870
3 929 933 866
3 931 872 934
3 868 872 931
3 932 931 935
3 935 931 934
3 933 932 936
3 936 932 935
3 870 936 874
3 933 936 870
3 872 876 934
3 879 934 876
3 935 934 879
3 881 935 879
3 936 935 881
3 874 936 881
3 886 885 937
3 886 938 887
3 937 938 886
3 887 939 888
3 938 939 887
3 888 939 889
3 937 890 940
3 885 890 937
3 938 937 941
3 941 937 940
3 939 938 942
3 942 938 941
3 889 942 891
3 939 942 889
3 940 892 943
3 890 892 940
3 941 940 944
3 944 940 943
3 942 941 945
3 945 941 944
3 891 945 893
3 942 945 891
3 892 895 943
3 898 943 895
3 944 943 898
3 899 944 898
3 945 944 899
3 893 945 899
3 901 900 946
3 901 947 902
3 946 947 901
3 902 948 903
3 947 948 902
3 903 948 904
3 946 906 949
3 900 906 946
3 947 946 950
3 950 946 949
3 948 947 951
3 951 947 950
3 904 951 907
3 948 951 904
3 949 909 952
3 906 909 949
3 950 949 953
3 953 949 952
3 951 950 954
3 954 950 953
3 907 954 910
3 951 954 907
3 952 912 955
3 909 912 952
3 953 952 956
3 956 952 955
3 954 953 957
3 957 953 956
3 910 957 913
3 954 957 910
3 955 915 958
3 912 915 955
3 956 955 959
3 959 955 958
3 957 956 960
3 960 956 959
3 913 960 916
3 957 960 913
3 958 918 961
3 915 918 958
3 959 958 962
3 962 958 961
3 960 959 963
3 963 959 962
3 916 963 919
3 960 963 916
3 961 921 964
3 918 921 961
3 962 961 965
3 965 961 964
3 963 962 966
3 966 962 965
3 919 966 922
3 963 966 919
3 964 923 967
3 921 923 964
3 965 964 968
3 968 964 967
3 966 965 969
3 969 965 968
3 922 969 924
3 966 969 922
3 923 925 967
3 928 967 925
3 968 967 928
3 930 968 928
3 969 968 930
3 924 969 930
