# vtk DataFile Version 3.0
this file was written using fslvtkio
ASCII
DATASET POLYDATA
POINTS 642 float
145.072 106.353 151.557
137.432 102.775 153.213
136.091 106.241 146.411
142.931 108.429 144.833
141.835 104.538 148.872
143.373 112.225 148.024
138.764 109.284 149.571
137.655 101.742 149.006
142.64 101.002 153.993
138.522 104.519 142.286
138.947 110.927 143.215
142.385 106.707 154.996
139.62 99.9564 151.772
142.773 102.086 151.66
139.709 103.16 149.297
137.483 103.879 145.675
140.162 105.121 145.744
140.295 107.962 152.465
140.86 111.547 148.517
142.92 109.321 151.694
138.516 110.99 146.321
141.644 113.075 145.088
142.807 106.097 146.431
143.552 104.919 150.884
144.187 107.757 148.058
143.728 111.259 145.945
144.517 109.307 150.117
136.213 100.188 151.501
135.656 103.13 147.617
136.282 104.619 150.331
138.207 106.261 151.832
136.945 108.256 148.026
145.313 106.974 154.239
146.065 103.235 153.319
143.42 103.417 155.645
139.808 104.432 154.811
138.946 99.8397 154.752
141.621 110.372 143.218
137.913 107.661 141.735
140.893 106.777 143.223
136.625 108.644 144.194
135.786 104.825 143.066
141.418 100.965 151.705
141.102 102.744 150.735
139.867 101.653 150.84
140.807 103.786 149.076
141.897 103.698 150.548
143.171 101.254 152.802
141.035 100.142 152.973
138.655 100.959 150.513
138.749 102.439 149.247
138.763 103.564 147.414
139.971 104.208 147.396
138.837 104.474 145.667
141.176 104.764 147.342
137.674 102.988 147.538
137.942 103.987 143.939
139.477 104.708 144.062
140.684 109.766 150.496
141.872 110.545 150.029
141.608 108.908 152.112
143.083 110.858 149.771
142.066 112.166 148.182
139.807 110.491 149.149
139.669 108.629 150.897
141.167 107.435 153.92
142.723 108.075 153.5
140.03 112.248 145.708
141.252 112.627 146.781
139.707 111.474 147.424
142.786 113.15 146.663
140.221 112.073 144.098
138.612 111.117 144.774
138.565 110.352 147.948
143.337 105.486 148.612
143.971 106.11 149.406
143.735 106.728 147.265
144.471 107.016 149.999
144.438 105.451 151.284
142.751 104.622 149.976
142.36 105.213 147.739
142.97 107.059 145.515
143.78 108.093 146.35
144.088 109.488 146.853
144.474 108.665 148.884
144.472 110.581 147.746
144.863 107.809 150.909
143.407 109.72 145.382
143.935 112.128 147.081
144.25 110.966 149.126
135.646 101.59 149.757
135.748 103.698 149.147
136.093 102.326 151.06
136.142 105.565 148.424
135.715 104.781 147.025
136.485 102.193 148.028
136.892 100.591 149.92
136.692 101.373 152.609
136.9 103.762 151.712
137.148 105.553 151.055
136.564 106.502 149.209
137.433 107.275 149.995
136.402 107.371 147.197
137.803 104.679 152.69
138.556 107.71 150.62
137.639 108.969 148.901
146.62 105.181 154.308
145.671 103.329 155.271
145.122 105.44 155.928
143.232 101.934 155.085
144.738 102.065 153.832
146.008 104.947 152.387
145.724 106.792 152.651
143.864 106.976 154.927
142.976 105.22 156.031
141.483 103.666 155.61
141.175 101.516 155.35
139.499 102.14 155.137
140.762 100.12 154.265
141.11 105.635 155.234
138.572 103.597 153.961
138.021 101.382 154.215
140.082 109.241 142
139.762 107.129 141.698
141.379 108.464 142.85
139.764 105.62 142.659
138.08 105.641 141.193
138.428 109.627 142.263
140.498 111.132 142.897
142.289 109.361 143.967
141.906 107.69 144.3
135.915 106.831 143.412
136.475 105.908 141.678
136.705 108.407 142.385
136.932 104.045 142.293
135.826 105.65 144.901
136.258 107.342 145.297
137.366 110.006 143.55
143.016 103.737 151.316
144.65 102.182 152.406
145.062 103.826 151.878
145.111 108.161 152.366
144.087 108.213 153.285
143.983 109.554 151.117
140.642 105.731 144.333
141.544 105.572 146.103
141.793 106.568 144.942
142.608 110.724 144.485
143.157 112.505 145.462
141.595 111.71 143.984
139.144 99.3978 153.184
137.921 99.9516 151.209
137.336 99.9041 153.304
138.722 105.421 153.719
139.231 107.092 152.21
139.995 106.292 154.026
136.004 104.486 145.382
136.519 103.371 146.418
136.514 103.758 144.076
137.374 110.009 145.261
137.623 109.759 147.091
136.752 108.66 146.066
141.317 101.86 151.201
140.43 102.335 150.745
140.63 101.278 151.186
139.771 102.5 150.218
140.294 102.899 150.084
141.902 102.328 151.272
142.093 101.478 151.632
140.592 100.514 151.729
139.878 100.762 151.336
140.869 103.319 150.001
141.524 103.232 150.68
141.394 103.763 149.815
142.309 102.922 151.177
140.259 103.435 149.227
141.361 104.155 148.953
141.82 104.18 149.773
142.237 100.995 152.268
141.37 100.437 152.267
142.109 100.652 152.866
140.316 100.077 152.423
142.957 101.515 152.225
142.923 101.084 153.385
141.867 100.496 153.492
139.309 101.269 150.744
139.235 102.164 150.071
138.68 101.755 149.934
139.265 102.783 149.335
139.149 100.474 151.214
138.164 101.412 149.733
138.19 102.148 149.127
139.378 103.877 147.536
139.408 104.454 146.606
138.833 104.143 146.618
139.51 104.742 145.726
140.081 104.621 146.505
139.814 103.677 148.327
139.207 103.42 148.36
138.137 103.9 146.587
138.181 104.216 145.725
140.607 104.399 147.366
140.392 103.891 148.283
141.026 104.199 148.158
140.656 104.955 146.558
141.465 104.629 148.08
138.77 103.089 148.407
138.23 103.345 147.489
138.176 102.811 148.42
137.622 103.548 146.64
137.632 102.462 148.362
138.406 104.26 144.828
139.153 104.525 144.884
138.748 104.25 143.956
139.846 104.911 144.956
137.755 103.998 144.842
138.24 104.148 143.064
139.035 104.557 143.155
141.312 110.138 150.174
141.79 109.655 151.034
141.142 109.333 151.305
142.241 109.186 151.872
142.352 109.882 150.882
141.385 111.08 149.308
140.776 110.689 149.578
140.541 108.898 151.498
140.898 108.523 152.254
142.496 110.637 149.937
141.977 111.39 149.115
142.617 111.594 149.033
141.479 111.85 148.379
142.961 110.029 150.716
143.193 111.726 148.895
142.724 112.272 148.116
140.229 110.149 149.873
140.169 109.15 150.754
139.684 109.539 150.046
140.011 108.326 151.708
140.298 111.063 148.87
139.306 109.888 149.38
139.267 108.966 150.151
141.407 108.169 152.945
142.144 108.548 152.827
141.927 107.803 153.688
142.851 108.742 152.649
140.751 107.716 153.072
141.738 107.119 154.516
142.563 107.469 154.294
140.598 112.524 146.289
140.505 112.004 147.102
139.886 111.884 146.624
140.286 111.529 147.911
141.008 112.111 147.625
141.456 113.028 146.049
140.776 112.716 145.443
139.308 111.734 146.078
139.12 111.421 146.814
141.678 112.423 147.519
141.988 113.012 146.776
142.428 112.795 147.483
142.268 113.388 145.893
143.073 112.802 147.354
140.075 112.236 145.051
139.285 111.668 145.362
139.359 111.766 144.408
138.605 111.105 145.592
140.813 112.514 144.728
139.578 111.63 143.61
138.774 111.085 143.898
139.139 110.993 147.65
139.761 110.984 148.279
139.181 110.341 148.543
138.527 110.741 147.086
138.702 109.831 148.853
143.611 105.727 149.04
143.816 106.404 148.348
143.567 105.997 147.867
143.98 107.166 147.723
144.122 106.839 148.715
143.736 105.518 150.12
143.366 105.27 149.918
143.179 105.826 147.387
143.384 106.412 146.834
144.265 106.496 149.671
144.11 105.784 150.45
144.4 106.209 150.644
144.021 105.147 151.057
144.334 107.362 149.061
144.68 106.712 150.822
144.812 105.857 151.419
143.051 105.089 149.339
142.94 105.376 148.067
142.658 104.919 148.717
142.644 105.577 147.033
143.096 104.78 150.503
142.271 104.588 149.412
142.122 104.859 148.321
143.421 106.953 146.346
143.823 107.366 146.823
143.471 107.547 145.955
144.058 107.923 147.22
142.907 106.604 146.002
142.974 107.743 145.194
143.457 108.231 145.499
144.312 109.068 147.826
144.478 109.616 148.335
144.321 110.03 147.27
144.478 109.973 148.863
144.477 109.092 149.465
144.336 108.189 148.485
144.133 108.612 147.397
143.932 110.41 146.383
144.208 111 146.786
144.647 108.277 149.979
144.516 107.783 149.486
144.627 107.46 150.446
144.699 108.597 150.546
144.956 107.088 151.196
143.836 108.687 146.681
143.799 109.584 146.159
143.668 108.795 145.771
143.558 110.477 145.689
143.269 108.98 145.092
144.321 111.386 147.395
144.428 110.806 148.44
144.168 111.625 148.058
144.377 110.15 149.523
143.918 111.722 146.495
143.74 112.241 147.648
143.794 111.646 148.682
135.57 102.735 149.437
135.809 103.128 150.115
135.797 101.966 150.451
136.112 103.448 150.691
135.94 104.054 149.88
135.617 103.318 148.478
135.645 102.426 148.82
135.882 100.878 150.63
136.06 101.27 151.292
135.941 104.609 148.886
135.762 104.258 148.15
135.892 105.15 147.837
135.658 103.932 147.413
136.131 105.05 149.439
136.022 105.986 147.38
135.829 105.547 146.755
135.934 101.773 148.78
136.056 100.919 149.786
136.693 101.346 149.023
136.343 100.199 150.506
135.964 102.489 147.894
137.13 101.938 148.476
137.354 101.177 149.504
136.44 101.879 151.772
136.447 103.075 151.43
136.73 102.606 152.221
136.55 104.109 150.994
136.313 100.749 152.132
137.013 102.134 152.893
137.135 103.234 152.505
136.775 105.997 150.159
136.913 106.929 149.624
137.279 106.398 150.524
137.096 107.783 149.11
136.684 107.413 148.719
136.377 105.591 149.843
136.647 105.139 150.685
137.689 105.934 151.39
137.787 106.708 150.896
136.368 106.968 148.326
136.291 105.999 148.872
136.155 106.462 147.847
136.646 107.797 147.646
136.28 106.804 146.823
136.898 104.718 151.467
137.497 105.157 151.921
137.304 104.222 152.193
137.923 105.538 152.379
137.596 103.781 152.915
137.993 107.49 150.332
137.54 108.131 149.457
138.106 108.375 149.841
137.294 108.599 148.471
138.343 106.997 151.209
138.719 108.485 150.083
138.251 109.094 149.241
146.578 104.214 155.097
145.511 104.372 155.736
146.064 105.369 155.408
144.584 104.32 155.798
144.756 103.583 155.535
146.201 103.252 154.336
146.565 104.176 153.872
146.132 106.094 154.654
145.568 106.289 155.421
144.538 102.702 155.173
145.433 102.476 154.585
144.156 101.995 154.584
145.589 102.541 153.676
143.467 102.67 155.463
142.937 101.346 154.536
143.655 101.575 153.874
146.502 105.015 153.273
146.266 106.031 153.556
145.978 105.912 152.53
145.708 106.829 153.575
146.17 104.091 152.998
145.506 105.701 152.017
145.404 106.509 152.044
144.619 106.314 155.734
144.1 105.196 156.059
143.572 106.18 155.768
143.379 104.229 155.853
144.686 106.913 154.722
143.099 106.906 154.907
142.593 106.095 155.648
141.442 102.693 155.516
140.281 101.784 155.442
140.509 102.964 155.315
139.238 100.996 155.215
140.067 100.634 155.193
142.254 102.483 155.552
142.419 103.472 155.635
140.495 103.899 155.374
139.79 103.236 155.037
141.004 100.691 154.996
142.312 101.713 155.288
142.045 101.026 154.703
139.945 99.8298 154.599
141.66 100.516 154.153
142.328 104.404 155.834
141.219 104.613 155.61
141.914 105.437 155.786
140.464 104.977 155.112
141.741 106.273 155.119
139.129 102.886 154.514
138.712 101.773 154.769
138.311 102.538 154.131
138.409 100.61 154.756
139.327 103.822 154.445
137.889 103.227 153.601
137.72 102.098 153.725
139.88 108.184 141.825
140.608 107.817 142.237
140.842 108.839 142.247
141.054 107.601 142.887
140.387 106.957 142.347
138.885 107.476 141.604
139.042 108.484 141.796
140.964 109.785 142.479
141.521 109.401 142.932
139.745 106.267 142.019
138.92 106.434 141.357
139.042 105.519 141.714
137.952 106.701 141.409
140.292 106.247 142.855
139.21 105.008 142.51
138.342 104.86 141.685
139.271 109.452 142.067
140.333 110.234 142.443
139.499 110.487 142.494
141.091 110.761 142.901
138.216 108.71 141.956
138.627 110.369 142.768
139.746 111.206 143.019
141.834 108.973 143.395
141.561 108.061 143.477
142.088 108.43 144.031
141.394 107.362 143.728
141.883 109.863 143.538
142.646 108.791 144.393
142.383 107.991 144.667
135.981 106.429 142.382
136.544 107.167 141.99
136.174 107.579 142.788
137.246 108.009 141.969
137.093 106.811 141.58
135.971 105.325 142.2
135.785 105.852 143.134
136.281 107.762 143.742
136.44 108.584 143.197
137.232 105.821 141.319
136.413 104.714 141.607
137.494 104.695 141.609
136.13 104.215 142.41
137.675 104.213 142.259
135.827 106.174 144.163
136.071 107.105 144.398
136.128 106.46 145.176
136.355 107.971 144.662
135.745 105.318 143.892
135.998 105.968 145.688
136.246 106.826 145.882
136.957 109.3 142.818
137.582 108.978 142.238
137.782 109.877 142.747
136.871 109.376 143.793
138.074 110.516 143.402
143.969 102.898 151.736
145.053 102.981 152.067
143.979 103.724 151.654
145.771 103.417 152.5
145.579 102.483 152.946
143.662 102.191 151.946
142.972 102.925 151.458
143.275 104.409 151.273
144.114 104.394 151.473
144.827 101.977 153.136
143.796 101.751 152.441
143.892 101.575 153.251
142.449 103.644 150.939
142.71 104.372 150.795
142.273 104.242 150.243
144.674 104.665 151.635
145.677 104.284 152.234
145.176 105.172 151.867
144.72 108.217 152.995
144.042 108.827 152.182
144.498 108.778 151.74
143.491 109.46 151.407
143.489 108.78 152.494
144.7 107.574 153.933
145.265 107.515 153.352
144.674 108.717 151.155
144.31 109.474 150.636
143.412 108.238 153.353
144.046 107.548 154.156
143.264 107.588 154.181
145.459 107.435 152.676
144.997 107.996 151.587
145.147 107.181 151.839
144.106 110.262 150.099
143.537 110.205 150.512
143.689 110.995 149.537
141.061 105.674 145.282
141.74 106.055 145.526
141.257 106.123 144.626
142.301 106.425 145.739
142.236 105.784 146.266
140.839 105.384 145.922
140.413 105.402 145.116
140.742 106.278 143.784
141.346 106.739 144.048
142.086 105.355 146.939
141.368 105.184 146.748
141.807 104.977 147.655
140.069 105.279 144.252
140.148 105.84 143.522
139.616 105.19 143.365
141.837 107.114 144.466
142.337 106.867 145.31
142.431 107.428 144.914
142.972 111.577 144.877
142.377 112.182 144.649
142.205 111.322 144.129
141.693 112.428 144.511
142.476 112.911 145.282
143.614 111.912 145.599
143.295 110.943 145.152
142.008 110.576 143.786
141.583 111.164 143.53
143.116 113.076 146.077
143.75 112.389 146.253
143.523 112.673 147.043
143.094 110.19 145.024
142.403 110.018 144.229
142.896 109.33 144.714
141.095 111.468 143.4
140.994 112.031 144.117
140.335 111.708 143.463
138.521 99.7823 152.276
137.454 99.5098 152.236
138.185 99.2001 153.393
136.622 100.084 152.4
136.955 99.8229 151.193
138.691 100.006 151.425
139.343 99.6452 152.432
139.087 99.2882 154.127
138.111 99.8974 154.182
137.349 100.286 150.506
138.351 100.491 150.798
137.881 100.926 149.997
139.967 99.9357 153.012
139.954 99.5562 153.791
140.877 100.074 153.557
137.745 100.586 153.911
136.948 100.725 153.017
137.38 101.535 153.417
139.041 106.272 152.981
139.6 106.635 153.148
139.354 105.8 153.928
140.074 107.172 153.204
139.74 107.48 152.429
138.713 106.697 152.025
138.445 105.909 152.785
139.199 104.868 154.338
139.893 105.414 154.591
139.497 107.868 151.564
138.936 107.375 151.337
139.137 108.177 150.735
138.243 105.11 153.198
138.633 104.494 153.973
138.064 104.222 153.369
140.503 105.939 154.677
140.501 106.985 153.949
141.092 106.611 154.625
136.201 103.889 145.983
136.602 103.847 145.385
136.109 104.1 144.59
137.006 103.812 144.974
137.037 103.623 146.046
136.025 103.083 146.923
135.887 103.941 146.644
135.768 104.671 144.139
136.008 104.131 143.379
137.186 103.161 146.911
136.521 102.678 147.171
137.153 102.532 147.732
135.854 104.638 146.284
135.862 105.067 145.015
135.894 105.392 145.963
136.602 103.787 143.141
137.268 103.857 144.196
137.487 103.939 143.14
137.421 109.934 146.205
137.148 109.195 146.667
137.021 109.335 145.652
136.897 108.533 147.043
137.259 109.061 147.511
138.015 110.401 146.676
137.952 110.476 145.848
136.955 109.384 144.7
136.714 108.66 145.137
137.547 109.406 148.085
138.095 110.075 147.54
138.134 109.667 148.513
138.01 110.572 145.077
137.284 110.04 144.413
137.954 110.657 144.155
136.453 108.072 145.561
136.627 108.083 146.605
136.409 107.483 146.213
POLYGONS 1280  5120
3 164 162 163
3 163 44 164
3 162 43 163
3 164 42 162
3 166 165 163
3 163 43 166
3 165 44 163
3 166 14 165
3 168 167 162
3 162 42 168
3 167 43 162
3 168 13 167
3 170 169 164
3 164 44 170
3 169 42 164
3 170 12 169
3 173 171 172
3 172 46 173
3 171 43 172
3 173 45 171
3 167 174 172
3 172 43 167
3 174 46 172
3 167 13 174
3 175 166 171
3 171 45 175
3 166 43 171
3 175 14 166
3 177 176 173
3 173 46 177
3 176 45 173
3 177 4 176
3 180 178 179
3 179 48 180
3 178 42 179
3 180 47 178
3 169 181 179
3 179 42 169
3 181 48 179
3 169 12 181
3 182 168 178
3 178 47 182
3 168 42 178
3 182 13 168
3 184 183 180
3 180 48 184
3 183 47 180
3 184 8 183
3 187 185 186
3 186 50 187
3 185 44 186
3 187 49 185
3 165 188 186
3 186 44 165
3 188 50 186
3 165 14 188
3 189 170 185
3 185 49 189
3 170 44 185
3 189 12 170
3 191 190 187
3 187 50 191
3 190 49 187
3 191 7 190
3 194 192 193
3 193 53 194
3 192 52 193
3 194 51 192
3 196 195 193
3 193 52 196
3 195 53 193
3 196 16 195
3 198 197 192
3 192 51 198
3 197 52 192
3 198 14 197
3 200 199 194
3 194 53 200
3 199 51 194
3 200 15 199
3 203 201 202
3 202 45 203
3 201 52 202
3 203 54 201
3 197 175 202
3 202 52 197
3 175 45 202
3 197 14 175
3 204 196 201
3 201 54 204
3 196 52 201
3 204 16 196
3 176 205 203
3 203 45 176
3 205 54 203
3 176 4 205
3 208 206 207
3 207 55 208
3 206 51 207
3 208 50 206
3 199 209 207
3 207 51 199
3 209 55 207
3 199 15 209
3 188 198 206
3 206 50 188
3 198 51 206
3 188 14 198
3 210 191 208
3 208 55 210
3 191 50 208
3 210 7 191
3 213 211 212
3 212 57 213
3 211 53 212
3 213 56 211
3 195 214 212
3 212 53 195
3 214 57 212
3 195 16 214
3 215 200 211
3 211 56 215
3 200 53 211
3 215 15 200
3 217 216 213
3 213 57 217
3 216 56 213
3 217 9 216
3 220 218 219
3 219 60 220
3 218 59 219
3 220 58 218
3 222 221 219
3 219 59 222
3 221 60 219
3 222 19 221
3 224 223 218
3 218 58 224
3 223 59 218
3 224 18 223
3 226 225 220
3 220 60 226
3 225 58 220
3 226 17 225
3 229 227 228
3 228 62 229
3 227 59 228
3 229 61 227
3 223 230 228
3 228 59 223
3 230 62 228
3 223 18 230
3 231 222 227
3 227 61 231
3 222 59 227
3 231 19 222
3 233 232 229
3 229 62 233
3 232 61 229
3 233 5 232
3 236 234 235
3 235 64 236
3 234 58 235
3 236 63 234
3 225 237 235
3 235 58 225
3 237 64 235
3 225 17 237
3 238 224 234
3 234 63 238
3 224 58 234
3 238 18 224
3 240 239 236
3 236 64 240
3 239 63 236
3 240 6 239
3 243 241 242
3 242 66 243
3 241 60 242
3 243 65 241
3 221 244 242
3 242 60 221
3 244 66 242
3 221 19 244
3 245 226 241
3 241 65 245
3 226 60 241
3 245 17 226
3 247 246 243
3 243 66 247
3 246 65 243
3 247 11 246
3 250 248 249
3 249 69 250
3 248 68 249
3 250 67 248
3 252 251 249
3 249 68 252
3 251 69 249
3 252 18 251
3 254 253 248
3 248 67 254
3 253 68 248
3 254 21 253
3 256 255 250
3 250 69 256
3 255 67 250
3 256 20 255
3 259 257 258
3 258 70 259
3 257 68 258
3 259 62 257
3 253 260 258
3 258 68 253
3 260 70 258
3 253 21 260
3 230 252 257
3 257 62 230
3 252 68 257
3 230 18 252
3 261 233 259
3 259 70 261
3 233 62 259
3 261 5 233
3 264 262 263
3 263 72 264
3 262 67 263
3 264 71 262
3 255 265 263
3 263 67 255
3 265 72 263
3 255 20 265
3 266 254 262
3 262 71 266
3 254 67 262
3 266 21 254
3 268 267 264
3 264 72 268
3 267 71 264
3 268 10 267
3 271 269 270
3 270 63 271
3 269 69 270
3 271 73 269
3 251 238 270
3 270 69 251
3 238 63 270
3 251 18 238
3 272 256 269
3 269 73 272
3 256 69 269
3 272 20 256
3 239 273 271
3 271 63 239
3 273 73 271
3 239 6 273
3 276 274 275
3 275 76 276
3 274 75 275
3 276 74 274
3 278 277 275
3 275 75 278
3 277 76 275
3 278 24 277
3 280 279 274
3 274 74 280
3 279 75 274
3 280 23 279
3 282 281 276
3 276 76 282
3 281 74 276
3 282 22 281
3 285 283 284
3 284 78 285
3 283 75 284
3 285 77 283
3 279 286 284
3 284 75 279
3 286 78 284
3 279 23 286
3 287 278 283
3 283 77 287
3 278 75 283
3 287 24 278
3 289 288 285
3 285 78 289
3 288 77 285
3 289 0 288
3 292 290 291
3 291 80 292
3 290 74 291
3 292 79 290
3 281 293 291
3 291 74 281
3 293 80 291
3 281 22 293
3 294 280 290
3 290 79 294
3 280 74 290
3 294 23 280
3 296 295 292
3 292 80 296
3 295 79 292
3 296 4 295
3 299 297 298
3 298 82 299
3 297 76 298
3 299 81 297
3 277 300 298
3 298 76 277
3 300 82 298
3 277 24 300
3 301 282 297
3 297 81 301
3 282 76 297
3 301 22 282
3 303 302 299
3 299 82 303
3 302 81 299
3 303 3 302
3 306 304 305
3 305 85 306
3 304 84 305
3 306 83 304
3 308 307 305
3 305 84 308
3 307 85 305
3 308 26 307
3 310 309 304
3 304 83 310
3 309 84 304
3 310 24 309
3 312 311 306
3 306 85 312
3 311 83 306
3 312 25 311
3 315 313 314
3 314 77 315
3 313 84 314
3 315 86 313
3 309 287 314
3 314 84 309
3 287 77 314
3 309 24 287
3 316 308 313
3 313 86 316
3 308 84 313
3 316 26 308
3 288 317 315
3 315 77 288
3 317 86 315
3 288 0 317
3 320 318 319
3 319 87 320
3 318 83 319
3 320 82 318
3 311 321 319
3 319 83 311
3 321 87 319
3 311 25 321
3 300 310 318
3 318 82 300
3 310 83 318
3 300 24 310
3 322 303 320
3 320 87 322
3 303 82 320
3 322 3 303
3 325 323 324
3 324 89 325
3 323 85 324
3 325 88 323
3 307 326 324
3 324 85 307
3 326 89 324
3 307 26 326
3 327 312 323
3 323 88 327
3 312 85 323
3 327 25 312
3 329 328 325
3 325 89 329
3 328 88 325
3 329 5 328
3 332 330 331
3 331 92 332
3 330 91 331
3 332 90 330
3 334 333 331
3 331 91 334
3 333 92 331
3 334 29 333
3 336 335 330
3 330 90 336
3 335 91 330
3 336 28 335
3 338 337 332
3 332 92 338
3 337 90 332
3 338 27 337
3 341 339 340
3 340 94 341
3 339 91 340
3 341 93 339
3 335 342 340
3 340 91 335
3 342 94 340
3 335 28 342
3 343 334 339
3 339 93 343
3 334 91 339
3 343 29 334
3 345 344 341
3 341 94 345
3 344 93 341
3 345 2 344
3 348 346 347
3 347 96 348
3 346 90 347
3 348 95 346
3 337 349 347
3 347 90 337
3 349 96 347
3 337 27 349
3 350 336 346
3 346 95 350
3 336 90 346
3 350 28 336
3 352 351 348
3 348 96 352
3 351 95 348
3 352 7 351
3 355 353 354
3 354 98 355
3 353 92 354
3 355 97 353
3 333 356 354
3 354 92 333
3 356 98 354
3 333 29 356
3 357 338 353
3 353 97 357
3 338 92 353
3 357 27 338
3 359 358 355
3 355 98 359
3 358 97 355
3 359 1 358
3 362 360 361
3 361 101 362
3 360 100 361
3 362 99 360
3 364 363 361
3 361 100 364
3 363 101 361
3 364 31 363
3 366 365 360
3 360 99 366
3 365 100 360
3 366 29 365
3 368 367 362
3 362 101 368
3 367 99 362
3 368 30 367
3 371 369 370
3 370 93 371
3 369 100 370
3 371 102 369
3 365 343 370
3 370 100 365
3 343 93 370
3 365 29 343
3 372 364 369
3 369 102 372
3 364 100 369
3 372 31 364
3 344 373 371
3 371 93 344
3 373 102 371
3 344 2 373
3 376 374 375
3 375 103 376
3 374 99 375
3 376 98 374
3 367 377 375
3 375 99 367
3 377 103 375
3 367 30 377
3 356 366 374
3 374 98 356
3 366 99 374
3 356 29 366
3 378 359 376
3 376 103 378
3 359 98 376
3 378 1 359
3 381 379 380
3 380 105 381
3 379 101 380
3 381 104 379
3 363 382 380
3 380 101 363
3 382 105 380
3 363 31 382
3 383 368 379
3 379 104 383
3 368 101 379
3 383 30 368
3 385 384 381
3 381 105 385
3 384 104 381
3 385 6 384
3 388 386 387
3 387 108 388
3 386 107 387
3 388 106 386
3 390 389 387
3 387 107 390
3 389 108 387
3 390 34 389
3 392 391 386
3 386 106 392
3 391 107 386
3 392 33 391
3 394 393 388
3 388 108 394
3 393 106 388
3 394 32 393
3 397 395 396
3 396 110 397
3 395 107 396
3 397 109 395
3 391 398 396
3 396 107 391
3 398 110 396
3 391 33 398
3 399 390 395
3 395 109 399
3 390 107 395
3 399 34 390
3 401 400 397
3 397 110 401
3 400 109 397
3 401 8 400
3 404 402 403
3 403 112 404
3 402 106 403
3 404 111 402
3 393 405 403
3 403 106 393
3 405 112 403
3 393 32 405
3 406 392 402
3 402 111 406
3 392 106 402
3 406 33 392
3 408 407 404
3 404 112 408
3 407 111 404
3 408 0 407
3 411 409 410
3 410 114 411
3 409 108 410
3 411 113 409
3 389 412 410
3 410 108 389
3 412 114 410
3 389 34 412
3 413 394 409
3 409 113 413
3 394 108 409
3 413 32 394
3 415 414 411
3 411 114 415
3 414 113 411
3 415 11 414
3 418 416 417
3 417 117 418
3 416 116 417
3 418 115 416
3 420 419 417
3 417 116 420
3 419 117 417
3 420 36 419
3 422 421 416
3 416 115 422
3 421 116 416
3 422 34 421
3 424 423 418
3 418 117 424
3 423 115 418
3 424 35 423
3 427 425 426
3 426 109 427
3 425 116 426
3 427 118 425
3 421 399 426
3 426 116 421
3 399 109 426
3 421 34 399
3 428 420 425
3 425 118 428
3 420 116 425
3 428 36 420
3 400 429 427
3 427 109 400
3 429 118 427
3 400 8 429
3 432 430 431
3 431 119 432
3 430 115 431
3 432 114 430
3 423 433 431
3 431 115 423
3 433 119 431
3 423 35 433
3 412 422 430
3 430 114 412
3 422 115 430
3 412 34 422
3 434 415 432
3 432 119 434
3 415 114 432
3 434 11 415
3 437 435 436
3 436 121 437
3 435 117 436
3 437 120 435
3 419 438 436
3 436 117 419
3 438 121 436
3 419 36 438
3 439 424 435
3 435 120 439
3 424 117 435
3 439 35 424
3 441 440 437
3 437 121 441
3 440 120 437
3 441 1 440
3 444 442 443
3 443 124 444
3 442 123 443
3 444 122 442
3 446 445 443
3 443 123 446
3 445 124 443
3 446 39 445
3 448 447 442
3 442 122 448
3 447 123 442
3 448 38 447
3 450 449 444
3 444 124 450
3 449 122 444
3 450 37 449
3 453 451 452
3 452 126 453
3 451 123 452
3 453 125 451
3 447 454 452
3 452 123 447
3 454 126 452
3 447 38 454
3 455 446 451
3 451 125 455
3 446 123 451
3 455 39 446
3 457 456 453
3 453 126 457
3 456 125 453
3 457 9 456
3 460 458 459
3 459 128 460
3 458 122 459
3 460 127 458
3 449 461 459
3 459 122 449
3 461 128 459
3 449 37 461
3 462 448 458
3 458 127 462
3 448 122 458
3 462 38 448
3 464 463 460
3 460 128 464
3 463 127 460
3 464 10 463
3 467 465 466
3 466 130 467
3 465 124 466
3 467 129 465
3 445 468 466
3 466 124 445
3 468 130 466
3 445 39 468
3 469 450 465
3 465 129 469
3 450 124 465
3 469 37 450
3 471 470 467
3 467 130 471
3 470 129 467
3 471 3 470
3 474 472 473
3 473 133 474
3 472 132 473
3 474 131 472
3 476 475 473
3 473 132 476
3 475 133 473
3 476 38 475
3 478 477 472
3 472 131 478
3 477 132 472
3 478 41 477
3 480 479 474
3 474 133 480
3 479 131 474
3 480 40 479
3 483 481 482
3 482 134 483
3 481 132 482
3 483 126 481
3 477 484 482
3 482 132 477
3 484 134 482
3 477 41 484
3 454 476 481
3 481 126 454
3 476 132 481
3 454 38 476
3 485 457 483
3 483 134 485
3 457 126 483
3 485 9 457
3 488 486 487
3 487 136 488
3 486 131 487
3 488 135 486
3 479 489 487
3 487 131 479
3 489 136 487
3 479 40 489
3 490 478 486
3 486 135 490
3 478 131 486
3 490 41 478
3 492 491 488
3 488 136 492
3 491 135 488
3 492 2 491
3 495 493 494
3 494 127 495
3 493 133 494
3 495 137 493
3 475 462 494
3 494 133 475
3 462 127 494
3 475 38 462
3 496 480 493
3 493 137 496
3 480 133 493
3 496 40 480
3 463 497 495
3 495 127 463
3 497 137 495
3 463 10 497
3 500 498 499
3 499 140 500
3 498 139 499
3 500 138 498
3 502 501 499
3 499 139 502
3 501 140 499
3 502 33 501
3 504 503 498
3 498 138 504
3 503 139 498
3 504 13 503
3 506 505 500
3 500 140 506
3 505 138 500
3 506 23 505
3 509 507 508
3 508 47 509
3 507 139 508
3 509 110 507
3 503 182 508
3 508 139 503
3 182 47 508
3 503 13 182
3 398 502 507
3 507 110 398
3 502 139 507
3 398 33 502
3 183 401 509
3 509 47 183
3 401 110 509
3 183 8 401
3 512 510 511
3 511 79 512
3 510 138 511
3 512 46 510
3 505 294 511
3 511 138 505
3 294 79 511
3 505 23 294
3 174 504 510
3 510 46 174
3 504 138 510
3 174 13 504
3 295 177 512
3 512 79 295
3 177 46 512
3 295 4 177
3 515 513 514
3 514 111 515
3 513 140 514
3 515 78 513
3 501 406 514
3 514 140 501
3 406 111 514
3 501 33 406
3 286 506 513
3 513 78 286
3 506 140 513
3 286 23 506
3 407 289 515
3 515 111 407
3 289 78 515
3 407 0 289
3 518 516 517
3 517 143 518
3 516 142 517
3 518 141 516
3 520 519 517
3 517 142 520
3 519 143 517
3 520 19 519
3 522 521 516
3 516 141 522
3 521 142 516
3 522 32 521
3 524 523 518
3 518 143 524
3 523 141 518
3 524 26 523
3 527 525 526
3 526 113 527
3 525 142 526
3 527 66 525
3 521 413 526
3 526 142 521
3 413 113 526
3 521 32 413
3 244 520 525
3 525 66 244
3 520 142 525
3 244 19 520
3 414 247 527
3 527 113 414
3 247 66 527
3 414 11 247
3 530 528 529
3 529 86 530
3 528 141 529
3 530 112 528
3 523 316 529
3 529 141 523
3 316 86 529
3 523 26 316
3 405 522 528
3 528 112 405
3 522 141 528
3 405 32 522
3 317 408 530
3 530 86 317
3 408 112 530
3 317 0 408
3 533 531 532
3 532 61 533
3 531 143 532
3 533 89 531
3 519 231 532
3 532 143 519
3 231 61 532
3 519 19 231
3 326 524 531
3 531 89 326
3 524 143 531
3 326 26 524
3 232 329 533
3 533 61 232
3 329 89 533
3 232 5 329
3 536 534 535
3 535 146 536
3 534 145 535
3 536 144 534
3 538 537 535
3 535 145 538
3 537 146 535
3 538 22 537
3 540 539 534
3 534 144 540
3 539 145 534
3 540 16 539
3 542 541 536
3 536 146 542
3 541 144 536
3 542 39 541
3 545 543 544
3 544 54 545
3 543 145 544
3 545 80 543
3 539 204 544
3 544 145 539
3 204 54 544
3 539 16 204
3 293 538 543
3 543 80 293
3 538 145 543
3 293 22 538
3 205 296 545
3 545 54 205
3 296 80 545
3 205 4 296
3 548 546 547
3 547 125 548
3 546 144 547
3 548 57 546
3 541 455 547
3 547 144 541
3 455 125 547
3 541 39 455
3 214 540 546
3 546 57 214
3 540 144 546
3 214 16 540
3 456 217 548
3 548 125 456
3 217 57 548
3 456 9 217
3 551 549 550
3 550 81 551
3 549 146 550
3 551 130 549
3 537 301 550
3 550 146 537
3 301 81 550
3 537 22 301
3 468 542 549
3 549 130 468
3 542 146 549
3 468 39 542
3 302 471 551
3 551 81 302
3 471 130 551
3 302 3 471
3 554 552 553
3 553 149 554
3 552 148 553
3 554 147 552
3 556 555 553
3 553 148 556
3 555 149 553
3 556 21 555
3 558 557 552
3 552 147 558
3 557 148 552
3 558 25 557
3 560 559 554
3 554 149 560
3 559 147 554
3 560 37 559
3 563 561 562
3 562 88 563
3 561 148 562
3 563 70 561
3 557 327 562
3 562 148 557
3 327 88 562
3 557 25 327
3 260 556 561
3 561 70 260
3 556 148 561
3 260 21 556
3 328 261 563
3 563 88 328
3 261 70 563
3 328 5 261
3 566 564 565
3 565 129 566
3 564 147 565
3 566 87 564
3 559 469 565
3 565 147 559
3 469 129 565
3 559 37 469
3 321 558 564
3 564 87 321
3 558 147 564
3 321 25 558
3 470 322 566
3 566 129 470
3 322 87 566
3 470 3 322
3 569 567 568
3 568 71 569
3 567 149 568
3 569 128 567
3 555 266 568
3 568 149 555
3 266 71 568
3 555 21 266
3 461 560 567
3 567 128 461
3 560 149 567
3 461 37 560
3 267 464 569
3 569 71 267
3 464 128 569
3 267 10 464
3 572 570 571
3 571 152 572
3 570 151 571
3 572 150 570
3 574 573 571
3 571 151 574
3 573 152 571
3 574 27 573
3 576 575 570
3 570 150 576
3 575 151 570
3 576 12 575
3 578 577 572
3 572 152 578
3 577 150 572
3 578 36 577
3 581 579 580
3 580 49 581
3 579 151 580
3 581 96 579
3 575 189 580
3 580 151 575
3 189 49 580
3 575 12 189
3 349 574 579
3 579 96 349
3 574 151 579
3 349 27 574
3 190 352 581
3 581 49 190
3 352 96 581
3 190 7 352
3 584 582 583
3 583 118 584
3 582 150 583
3 584 48 582
3 577 428 583
3 583 150 577
3 428 118 583
3 577 36 428
3 181 576 582
3 582 48 181
3 576 150 582
3 181 12 576
3 429 184 584
3 584 118 429
3 184 48 584
3 429 8 184
3 587 585 586
3 586 97 587
3 585 152 586
3 587 121 585
3 573 357 586
3 586 152 573
3 357 97 586
3 573 27 357
3 438 578 585
3 585 121 438
3 578 152 585
3 438 36 578
3 358 441 587
3 587 97 358
3 441 121 587
3 358 1 441
3 590 588 589
3 589 155 590
3 588 154 589
3 590 153 588
3 592 591 589
3 589 154 592
3 591 155 589
3 592 17 591
3 594 593 588
3 588 153 594
3 593 154 588
3 594 30 593
3 596 595 590
3 590 155 596
3 595 153 590
3 596 35 595
3 599 597 598
3 598 104 599
3 597 154 598
3 599 64 597
3 593 383 598
3 598 154 593
3 383 104 598
3 593 30 383
3 237 592 597
3 597 64 237
3 592 154 597
3 237 17 592
3 384 240 599
3 599 104 384
3 240 64 599
3 384 6 240
3 602 600 601
3 601 120 602
3 600 153 601
3 602 103 600
3 595 439 601
3 601 153 595
3 439 120 601
3 595 35 439
3 377 594 600
3 600 103 377
3 594 153 600
3 377 30 594
3 440 378 602
3 602 120 440
3 378 103 602
3 440 1 378
3 605 603 604
3 604 65 605
3 603 155 604
3 605 119 603
3 591 245 604
3 604 155 591
3 245 65 604
3 591 17 245
3 433 596 603
3 603 119 433
3 596 155 603
3 433 35 596
3 246 434 605
3 605 65 246
3 434 119 605
3 246 11 434
3 608 606 607
3 607 158 608
3 606 157 607
3 608 156 606
3 610 609 607
3 607 157 610
3 609 158 607
3 610 15 609
3 612 611 606
3 606 156 612
3 611 157 606
3 612 28 611
3 614 613 608
3 608 158 614
3 613 156 608
3 614 41 613
3 617 615 616
3 616 95 617
3 615 157 616
3 617 55 615
3 611 350 616
3 616 157 611
3 350 95 616
3 611 28 350
3 209 610 615
3 615 55 209
3 610 157 615
3 209 15 610
3 351 210 617
3 617 95 351
3 210 55 617
3 351 7 210
3 620 618 619
3 619 135 620
3 618 156 619
3 620 94 618
3 613 490 619
3 619 156 613
3 490 135 619
3 613 41 490
3 342 612 618
3 618 94 342
3 612 156 618
3 342 28 612
3 491 345 620
3 620 135 491
3 345 94 620
3 491 2 345
3 623 621 622
3 622 56 623
3 621 158 622
3 623 134 621
3 609 215 622
3 622 158 609
3 215 56 622
3 609 15 215
3 484 614 621
3 621 134 484
3 614 158 621
3 484 41 614
3 216 485 623
3 623 56 216
3 485 134 623
3 216 9 485
3 626 624 625
3 625 161 626
3 624 160 625
3 626 159 624
3 628 627 625
3 625 160 628
3 627 161 625
3 628 31 627
3 630 629 624
3 624 159 630
3 629 160 624
3 630 20 629
3 632 631 626
3 626 161 632
3 631 159 626
3 632 40 631
3 635 633 634
3 634 73 635
3 633 160 634
3 635 105 633
3 629 272 634
3 634 160 629
3 272 73 634
3 629 20 272
3 382 628 633
3 633 105 382
3 628 160 633
3 382 31 628
3 273 385 635
3 635 73 273
3 385 105 635
3 273 6 385
3 638 636 637
3 637 137 638
3 636 159 637
3 638 72 636
3 631 496 637
3 637 159 631
3 496 137 637
3 631 40 496
3 265 630 636
3 636 72 265
3 630 159 636
3 265 20 630
3 497 268 638
3 638 137 497
3 268 72 638
3 497 10 268
3 641 639 640
3 640 102 641
3 639 161 640
3 641 136 639
3 627 372 640
3 640 161 627
3 372 102 640
3 627 31 372
3 489 632 639
3 639 136 489
3 632 161 639
3 489 40 632
3 373 492 641
3 641 102 373
3 492 136 641
3 373 2 492
