# vtk DataFile Version 3.0
this file was written using fslvtkio
ASCII
DATASET POLYDATA
POINTS 1068 float
114.366 103.799 158.118
113.23 101.971 157.702
113.979 102.36 156.743
115.239 103.052 156.798
116.096 104.692 158.1
116.674 103.373 156.939
117.855 104.647 157.985
118.166 103.04 156.962
119.424 104.091 157.808
119.702 102.498 156.987
113.925 102.421 159.02
112.68 100.618 158.174
115.394 103.726 159.512
117.141 104.391 159.618
119.074 104.19 159.387
120.511 103.223 158.481
113.326 100.897 159.383
112.491 99.3344 158.82
114.665 102.011 160.05
116.319 102.693 160.312
118.115 102.875 160.266
119.755 102.45 159.712
113.945 100.169 160.125
115.584 100.922 160.56
117.221 101.154 160.592
118.776 101.255 160.468
118.663 103.535 151.754
117.64 103.487 150.697
118.426 104.585 150.031
119.653 104.744 150.293
119.914 103.286 151.493
120.757 103.876 150.349
117.552 102.725 152.584
116.487 102.272 152.968
116.732 102.499 151.277
118.575 101.85 153.114
119.516 101.748 152.633
120.789 102.242 151.53
116.981 102.089 154.68
115.813 101.779 153.923
118.075 101.567 154.323
119.215 101.085 154.515
120.231 100.743 153.156
114.537 101.722 155.682
113.385 100.947 156.195
114.158 100.135 155.039
114.97 100.853 154.387
115.682 102.069 155.611
117.066 102.009 156.153
118.412 101.64 156.016
119.68 101.112 155.97
120.23 100.483 154.827
112.42 100.03 156.677
121.008 101.777 157.232
111.927 98.8558 157.263
121.269 101.692 158.849
111.679 97.7627 157.911
119.977 100.701 159.803
113.207 98.5472 159.748
112.18 97.2523 159.016
114.462 98.9831 160.403
115.903 99.3373 160.505
117.13 99.3967 160.38
118.431 99.4625 160.145
113.45 97.2907 160.001
114.935 97.6952 160.337
116.113 98.1348 160.25
122.462 105.564 145.844
120.938 105.339 145.316
122.041 104.386 144.094
123.379 104.766 144.062
123.96 104.594 145.737
124.461 104.345 144.41
124.808 103.817 145.688
125.216 103.405 144.505
120.667 106.061 147.053
119.07 104.969 147.554
119.753 104.544 146.136
122.101 105.368 147.675
123.326 104.555 147.393
124.638 103.756 147.158
125.443 102.891 146.034
119.362 105.345 148.725
118.177 103.983 148.853
120.895 105.012 148.838
122.406 104.08 149.016
123.842 103.288 148.737
125.129 102.423 147.795
117.614 102.445 149.727
121.835 103.006 150.334
123.091 102.117 150.112
124.673 101.81 149.387
116.061 101.209 151.939
116.986 101.101 150.51
121.388 101.144 151.94
122.506 100.901 151.526
124.082 100.584 150.772
115.664 100.602 153.07
114.905 99.5262 153.332
115.494 99.6366 151.94
121.21 100.041 153.857
122.46 99.8602 152.898
123.589 99.9434 151.946
113.092 99.1744 155.208
113.96 98.8212 153.878
120.81 100.305 155.952
121.372 99.379 155.415
122.162 99.0317 154.108
112.221 98.1079 155.653
121.784 100.458 157.377
121.652 99.1875 156.557
121.748 98.5055 155.332
111.658 97.0078 156.252
121.161 99.9514 158.975
121.749 99.0679 157.883
111.405 96.316 157.848
119.84 99.3013 159.51
120.574 98.6219 158.754
111.885 95.365 158.983
118.133 97.5251 159.503
117.022 98.0582 159.944
119.352 97.9879 159.341
112.946 95.7914 159.75
114.349 96.0461 159.977
115.696 96.5882 159.929
120.792 103.415 144.796
121.884 102.878 143.243
123.065 103.449 142.771
124.423 103.695 143.051
125.077 102.221 144.03
119.008 103.272 147.486
119.839 102.901 146.097
125.547 101.562 145.715
118.31 102.354 148.412
125.87 101.309 146.939
125.789 101.103 148.36
126.102 99.9118 147.172
117.686 101.002 148.938
125.398 100.502 149.663
126.081 99.5606 148.502
116.214 99.8165 150.866
116.845 99.7373 149.751
125.475 99.6918 150.279
125.927 98.6066 149.529
114.61 98.2485 152.355
115.307 98.3464 150.999
123.676 98.9926 152.934
124.626 99.166 151.827
125.455 98.8328 150.849
112.913 97.6199 153.999
114.034 97.2132 152.838
123.273 98.2345 153.404
124.353 97.5961 152.842
112.236 96.5275 154.499
121.929 98.0262 156.306
122.341 97.6914 154.894
123.121 97.5167 153.864
111.362 95.5815 156.226
121.507 97.7387 157.514
122.198 96.6488 156.215
111.327 94.6925 157.505
121.283 96.7036 157.375
120.369 97.3918 158.526
111.787 93.9152 158.361
116.918 96.7661 159.755
117.943 96.1605 159.316
119.244 96.1132 158.851
112.746 94.0466 159.241
113.941 94.4189 159.709
115.281 94.9364 159.638
116.577 95.4532 159.453
121.409 102.077 143.974
121.728 101.351 142.767
122.765 101.946 142.053
124.185 102.035 142.476
124.62 100.625 144.083
119.457 101.591 146.81
120.229 101.612 145.545
120.822 101.06 144.316
125.242 100.146 145.167
125.714 100.353 146.188
125.408 99.0354 145.96
118.549 100.937 147.609
118.986 99.8529 146.656
125.723 98.3715 146.894
117.49 99.5732 148.399
125.796 97.7482 147.989
116.042 98.1628 149.851
116.8 98.8254 149.169
125.767 97.001 148.903
114.747 96.8553 151.114
115.502 97.3183 150.325
125.127 97.7241 151.605
125.546 97.0932 150.207
113.14 95.9329 152.756
114.036 96.2284 151.854
124.833 96.6693 152.155
124.976 96.1516 151.203
112.232 95.461 153.704
111.656 94.0918 153.665
112.512 94.7603 152.75
122.806 96.6252 154.787
123.782 96.4019 153.446
124.368 95.6436 152.438
111.618 95.0473 154.891
111.128 93.4249 154.629
122.592 95.8473 155.466
123.034 95.4286 154.605
111.011 94.0504 156.113
110.836 92.5748 155.611
120.416 96.1931 157.993
121.436 95.6315 156.866
122.034 94.9573 155.748
111.146 93.1334 157.218
111.067 91.778 156.694
119.032 94.4159 158.255
117.989 94.8552 158.983
120.032 95.1052 157.822
111.973 92.4733 158.427
112.997 92.3132 159.02
113.907 92.9175 159.271
115.231 93.3654 159.358
116.528 93.9564 159.149
123.102 100.239 141.533
121.712 100.085 141.835
122.195 98.6072 140.983
123.333 98.8606 141.648
123.923 100.284 142.566
123.774 98.6951 142.852
121.175 100.102 143.119
124.258 98.194 143.637
119.821 99.7023 145.533
120.525 99.418 144.105
125.013 98.6824 144.596
125.176 97.5476 145.384
117.826 98.8687 147.457
118.516 98.0033 146.131
125.569 96.6552 146.303
116.573 97.9207 148.704
116.417 96.6856 148.147
117.112 97.7422 147.797
125.483 95.9929 147.505
115.341 96.4059 149.624
114.747 94.9962 149.103
115.615 95.524 148.399
125.401 95.5517 148.874
114.152 95.4035 150.752
113.344 93.9385 150.511
113.948 93.9175 149.342
125.02 95.1737 149.969
113.123 94.6942 151.693
111.995 93.5435 152.22
112.514 93.1213 151.011
124.568 94.6642 151.126
111.355 92.6694 153.037
123.925 94.1298 152.255
123.356 94.9769 153.35
110.937 91.8005 153.927
122.569 94.2946 154.524
110.848 91.0203 154.964
121.678 93.6821 155.441
121.048 94.4099 156.721
111.055 90.1956 156.007
118.68 93.284 157.6
117.757 93.5735 158.554
119.893 93.8573 157.24
111.573 91.06 157.547
112.583 91.1204 158.418
113.924 91.3161 158.847
115.199 91.9632 158.869
116.551 92.4946 158.678
121.21 98.4274 141.762
120.263 97.2512 142.348
120.858 97.3503 140.868
122.176 97.5392 140.325
123.052 97.4715 141.56
123.56 96.5757 141.989
120.679 98.5979 142.947
120.015 97.88 144.216
124.036 95.9449 142.736
119.147 97.786 145.084
124.754 96.8153 144.009
124.876 95.8779 144.884
117.355 97.0879 146.994
116.692 95.2762 146.228
117.659 96.1961 145.816
118.282 96.3932 144.911
125.116 95.0321 145.946
116.174 95.5535 147.219
115.303 94.1315 147.477
115.949 93.8235 146.345
125.136 94.4175 147.309
114.497 93.1873 147.854
124.828 93.9872 148.602
113.002 92.727 149.693
113.729 92.4253 148.445
124.497 93.5121 149.817
111.778 92.027 151.56
112.202 91.702 150.235
123.987 93.278 151
111.34 91.064 152.242
123.273 92.9233 152.111
122.942 93.6348 153.268
110.911 90.2625 153.165
122.14 93.0344 154.141
111.081 89.563 154.292
121.342 92.3961 155.063
120.683 93.1712 156.257
111.387 88.9995 155.295
117.638 92.6939 158.017
118.298 92.3373 157.285
119.406 92.5155 156.796
111.66 89.6115 156.911
112.512 89.6655 157.871
113.806 89.9059 158.221
115.12 90.4641 158.244
116.245 91.0921 158.096
117.204 91.7048 157.746
121.441 96.8844 139.481
120.209 96.1965 140.504
120.658 96.2552 138.516
122.132 96.1231 138.056
122.625 96.7001 139.727
122.664 95.5498 139.081
122.858 96.2161 140.591
122.943 94.9902 140.103
119.596 96.2278 142.382
123.363 94.5308 140.984
119.237 96.3301 143.737
123.732 94.0421 141.963
118.746 96.3103 144.257
118.096 95.0073 143.748
118.655 95.5798 143.535
124.456 94.9982 143.425
124.768 94.1379 144.415
116.618 94.1603 144.967
117.494 95.0862 144.577
124.803 93.4753 145.708
114.892 92.3047 146.189
115.699 92.7774 145.169
124.672 92.9099 147.139
113.991 91.6893 146.947
124.235 92.4872 148.509
112.715 91.4831 148.673
113.341 91.5658 147.778
123.696 92.0823 149.839
111.472 90.44 150.541
111.863 90.6758 149.301
123.471 92.215 151.139
111.057 89.5305 151.352
122.863 91.858 151.753
122.388 92.2264 152.842
110.837 88.7393 152.627
121.656 91.7722 153.717
111.173 88.1572 153.714
120.732 91.3935 154.516
120.2 92.0924 155.705
111.777 87.9182 154.65
119.127 91.2474 156.033
118.155 91.4556 156.772
111.935 88.4629 156.27
112.733 88.4818 157.173
113.864 88.6968 157.64
115.079 89.1868 157.663
116.069 89.8654 157.36
117.077 90.6748 157.116
121.149 95.7151 136.966
119.937 95.3048 138.298
120.433 94.8029 136.079
121.738 94.8167 135.944
122.356 95.0128 137.037
122.341 93.6098 136.281
119.596 95.1667 140.13
122.565 94.2327 138.24
122.796 93.289 139.223
119.142 94.9875 141.357
118.381 93.805 140.658
119.071 94.4306 140.259
123.217 92.5627 140.125
118.518 94.9175 142.621
117.62 93.7038 142.084
123.532 92.4484 141.387
117.1 93.8007 143.524
116.438 92.6109 142.469
116.982 93.2456 142.21
124.25 93.4199 142.938
124.347 92.55 144.146
116.084 92.7332 143.959
114.703 91.4253 144.47
115.334 91.8296 143.042
124.281 92.0464 145.636
113.569 90.9213 145.473
124.103 91.5134 147.107
112.909 90.9563 147.056
111.996 89.7644 146.706
112.59 90.1182 145.859
123.583 91.0865 148.463
112.044 90.2821 147.992
111.352 89.4462 148.954
111.388 88.9778 147.379
123.335 91.0208 149.616
123.017 90.0656 149.084
122.731 90.4585 150.384
111.105 88.6941 149.835
123.111 91.3349 150.759
122.252 90.887 151.644
110.989 88.0129 151.011
121.591 90.8141 152.515
111.112 87.2931 152.191
120.9 90.5658 153.414
111.717 86.9731 153.251
120.403 90.6603 154.215
119.857 90.8274 155.084
112.091 87.139 154.522
112.246 87.5398 155.593
112.739 86.6153 155.229
119.008 90.4985 155.473
118.054 90.4517 156.123
112.965 87.5087 156.414
114.068 87.7268 156.815
115.034 88.2774 156.949
116.058 88.6903 156.617
116.929 89.6992 156.394
119.463 94.4361 137.223
118.762 93.4704 137.008
119.277 93.7932 135.774
120.37 94.198 134.745
121.768 93.868 134.965
122.112 92.1644 135.216
119.108 94.0132 138.936
118.268 92.7633 137.861
122.436 92.6101 137.362
122.68 91.5879 138.57
118.078 92.8349 139.438
116.869 91.8595 139.301
117.675 92.2653 138.534
123.107 90.8247 139.845
117.135 92.5864 140.989
115.982 91.4085 140.511
123.346 91.3792 141.454
123.796 92.2672 142.703
123.583 91.1545 142.849
115.674 91.7404 141.726
114.287 90.7451 142.645
114.855 90.8804 141.048
123.825 91.1026 144.25
113.418 90.0568 143.771
123.869 90.7322 145.695
112.751 89.785 144.629
123.452 90.2997 146.893
111.565 88.9091 145.516
112.113 89.3034 144.939
123.114 89.6028 147.825
110.974 87.9052 148.089
110.94 88.1386 146.421
122.267 89.1131 148.756
122.149 89.7001 150.256
110.853 87.1822 149.398
121.461 89.5998 151.192
111.078 86.4912 150.655
120.731 89.6658 152.206
111.688 85.9881 151.827
120.129 89.96 153.787
120.203 89.3799 152.751
119.792 88.9894 153.294
112.266 86.0941 152.903
112.343 86.4683 154.073
112.822 85.854 153.846
119.23 89.7693 154.746
119.042 88.618 153.659
118.499 88.8752 154.504
113.453 85.7231 154.739
117.081 88.7017 155.778
117.142 87.9492 155.147
116.336 87.9017 155.674
118.065 89.4772 155.406
117.753 88.2416 154.815
113.473 86.5072 155.773
114.318 86.8468 156.049
115.366 87.4614 156.152
121.019 93.7966 133.524
119.546 93.5853 133.667
119.681 93.0982 132.747
121.133 92.9001 132.508
121.849 92.8362 133.876
121.763 91.5223 133.3
118.039 92.5461 135.612
118.722 93.1992 134.534
121.762 90.6226 134.827
117.347 91.9689 137.44
116.575 91.1349 136.532
117.275 91.8325 135.979
122.275 91.1647 136.743
122.484 90.082 138.235
116.033 91.1498 138.212
114.675 90.0347 138.512
115.429 90.253 137.072
122.758 89.1455 139.636
115.09 90.8422 139.564
113.892 89.8843 140.584
123.226 90.1834 141.225
123.237 89.7923 142.766
113.165 89.4576 141.892
123.277 89.9299 144.224
112.332 88.9742 142.618
111.549 87.6197 141.902
112.234 88.3039 141.296
123.23 89.4163 145.302
111.88 88.6292 143.744
111.117 87.3178 143.155
122.941 88.8772 146.289
111.104 87.8789 144.756
110.665 87.0308 146.359
110.824 86.8867 144.41
122.472 88.5332 147.45
110.758 86.4202 147.732
121.797 88.1763 148.206
121.459 88.5865 149.532
111.001 85.7286 149.007
120.827 88.4222 150.626
111.597 85.1884 150.222
120.14 88.6731 151.788
120.157 87.5226 150.574
119.55 87.6615 151.457
112.295 85.1241 151.266
117.772 86.9523 153.049
117.437 85.9052 151.804
117.097 86.471 153.017
118.591 87.3391 152.504
118.168 86.4182 151.841
119.305 88.1074 152.547
118.776 86.8472 151.259
112.825 85.3048 152.304
113.495 85.2738 153.341
117.2 87.2556 154.383
116.584 86.4339 153.827
118.194 87.8266 153.584
114.15 85.4077 154.059
114.319 86.0366 155.052
115.194 86.4444 155.218
114.959 85.6483 154.111
116.18 86.9534 154.991
115.758 86.0133 154.082
118.39 91.7941 131.192
117.264 91.2204 131.545
117.637 91.2658 129.594
119.151 91.7838 129.729
119.473 92.518 131.535
120.412 91.8249 130.562
121.235 92.0823 131.649
121.222 90.9346 131.422
118.246 92.335 133.26
116.99 91.2058 132.99
121.271 90.099 132.85
117.215 91.6815 134.617
116.033 90.3361 134.511
116.116 90.2335 133.396
121.457 89.1285 134.445
115.976 90.5659 135.674
114.556 89.4037 136.25
115.21 89.7586 134.996
121.977 89.723 136.406
122.177 88.5444 137.845
113.881 89.2586 138.288
122.324 88.1463 139.128
113.261 88.9355 139.307
112.088 87.7649 138.923
112.908 88.294 137.978
122.96 88.9794 141.011
122.394 87.6974 140.416
112.689 88.6634 140.374
111.537 87.1347 140.204
122.842 88.5731 142.078
122.981 88.4769 143.488
110.909 86.2226 141.356
122.568 88.0954 144.625
110.787 86.3511 143.139
110.622 86.0158 144.67
110.531 85.3745 142.587
122.217 87.9309 146.07
110.597 85.59 146.111
121.909 87.7729 147.131
121.657 87.1203 146.212
121.299 87.2352 147.603
111.083 85.0728 147.306
120.96 87.4258 148.894
111.587 84.4449 148.524
120.564 87.2699 149.65
112.085 84.0696 149.549
112.426 84.3993 150.689
113.027 83.7394 150.11
119.488 86.8543 150.562
119.608 86.3367 149.558
119.014 86.0165 150.161
120.082 86.6838 149.296
112.758 84.6665 151.409
113.373 84.1752 151.149
117.041 85.0875 150.75
116.669 85.4636 152.224
118.018 85.633 150.583
114.459 84.9553 153.082
113.802 84.7876 152.084
115.341 85.2121 153.056
114.879 84.547 151.981
116.166 85.5505 153.014
115.739 84.8703 151.89
115.407 89.2902 130.119
114.146 88.3131 129.769
114.852 88.8634 128.535
116.02 90.1833 128.772
116.481 90.3703 130.389
117.497 90.9017 128.197
119.211 91.0687 128.273
120.49 90.8802 129.483
120.833 89.7365 130.701
114.906 89.0335 131.64
113.935 88.1934 131.681
115.878 89.9592 131.982
120.832 88.8256 132.221
114.943 88.9461 133.674
113.756 87.9283 133.283
121.031 87.9278 133.434
113.918 88.6326 134.965
112.786 87.6699 135.714
113.084 87.6162 134.275
121.774 88.535 135.981
121.358 87.4971 135.024
113.437 88.5407 136.852
112.116 87.2273 137.208
121.806 87.5927 136.836
121.874 87.1695 138.385
111.181 86.5375 138.505
121.809 86.5499 139.684
110.803 85.5892 139.782
122.333 87.5899 141.954
121.753 86.4062 141.203
110.54 84.6008 141.033
122.057 87.1024 143.052
121.406 85.8731 142.428
110.626 84.8941 144.325
110.606 84.2308 142.639
121.476 86.2676 144.005
121.05 85.2902 143.302
120.881 85.499 144.52
121.922 87.161 144.749
110.924 84.2526 145.582
121.215 86.243 145.814
120.412 85.2178 145.457
111.412 83.8565 146.792
120.636 86.2177 147.125
119.946 85.1256 146.67
112.135 83.5991 147.474
119.808 85.863 148.021
119.497 85.1162 147.265
119.147 84.9273 147.82
120.398 86.7186 148.521
112.522 83.4569 148.49
114.191 83.5332 150.167
113.376 83.1824 149.112
114.575 82.8908 149.204
118.937 85.4894 149.068
118.382 84.6678 148.332
118.011 85.0649 149.394
114.409 84.1504 151.114
115.264 83.4832 149.791
115.405 84.174 150.717
116.206 84.7967 150.954
116.248 83.9947 149.733
117.197 84.488 149.593
116.43 89.7937 125.87
114.897 88.8627 125.806
115.166 89.0422 124.728
116.797 89.5835 124.388
118.129 89.7944 125.969
118.161 89.2912 124.88
119.094 89.1931 126.335
118.882 88.4576 125.58
115.242 89.1095 127.139
113.667 87.7106 127.772
113.906 87.8974 126.338
116.525 90.2666 127.335
117.991 90.2662 127.242
119.426 89.8141 127.404
119.337 88.3506 127.273
113.203 87.3638 129.788
120.258 89.5152 128.827
120.28 88.4321 130.296
113.051 87.3289 131.875
120.484 87.489 131.806
112.912 87.198 133.127
112.11 86.6818 134.082
112.322 86.6034 132.582
120.75 86.6611 133.55
111.716 86.4824 135.694
120.909 86.0416 135.129
111.053 85.9369 136.909
121.516 86.5715 136.635
121.397 85.9653 138.071
110.636 85.049 138.061
121.245 85.4909 139.522
110.525 84.1408 139.302
121.113 85.134 140.898
110.707 83.3498 140.408
120.94 85.0468 142.083
110.98 83.558 143.842
111.032 83.2015 141.937
120.578 84.7834 142.58
120.196 84.6179 143.553
111.582 83.0938 145.146
111.719 82.6282 143.563
119.679 84.5046 145.242
112.183 82.8971 146.432
112.621 82.2639 145.114
119.282 84.3912 146.607
119.114 83.8173 145.316
118.659 83.6258 146.145
112.834 83.0185 147.329
113.167 82.2954 146.49
117.444 83.4872 147.445
117.11 82.8728 146.412
116.61 82.962 147.35
118.369 84.0602 147.292
117.957 83.1472 146.236
113.515 82.7118 147.979
115.743 82.8699 148.843
114.636 82.4843 148.159
116.653 83.4436 148.566
115.748 82.6307 147.543
117.602 84.1337 148.479
113.862 92.2735 110.613
112.984 92.206 110.892
113.064 92.7204 109.459
113.8 92.057 109.523
114.379 91.388 110.418
113.99 90.9661 109.628
113.943 91.9477 111.799
113.422 91.5753 112.509
114.651 91.3157 111.589
114.343 90.1904 110.937
114.383 91.1021 112.964
114.812 90.3433 112.442
113.431 87.6981 123.613
111.999 86.2527 124.193
112.327 86.7939 122.843
114.214 88.2842 122.451
115.053 88.8868 123.55
116.201 89.1141 122.098
117.108 89.2143 123.136
117.93 88.1259 122.251
113.421 87.5592 124.916
112.503 86.5794 125.977
118.352 88.4686 124.064
118.854 87.4478 125.616
112.537 86.7286 128.033
119.034 86.6734 127.19
112.388 86.462 129.494
111.703 85.6584 130.256
111.81 85.7753 128.561
119.809 87.8693 128.75
119.9 86.8763 130.286
112.418 86.5045 131.018
111.516 85.799 132.315
120.112 86.2781 131.89
111.249 85.4768 134.01
120.225 85.4339 133.267
110.798 84.9998 135.359
119.948 84.6151 134.205
110.6 84.2178 136.529
120.896 85.5345 136.479
120.088 84.7085 135.683
110.691 83.2734 137.722
120.691 84.902 137.624
119.978 84.0181 137.271
110.974 82.5325 138.937
120.536 84.5221 139.188
119.835 83.8037 139.356
111.292 82.163 140.565
120.379 84.4212 141.256
119.589 83.6543 140.648
111.782 82.0115 142.15
119.713 83.8078 142.355
119.027 83.1059 140.993
118.716 82.8739 142.013
112.568 81.8256 143.561
117.664 82.5093 143.713
116.911 81.7954 142.814
116.647 81.9826 143.843
118.71 83.1158 143.255
117.817 82.0961 142.238
119.32 83.9332 144.03
113.454 81.7172 144.603
114.081 81.923 145.8
115.429 81.8805 145.55
114.575 81.5035 144.633
116.561 82.2297 144.904
115.713 81.5757 144.359
117.347 82.7269 145.318
118.382 83.11 144.824
114.053 82.3699 147.042
115.047 82.2056 146.734
116.263 82.406 146.255
111.326 93.0387 108.705
110.985 91.8967 109.71
110.247 91.6606 108.374
111.277 92.2788 107.319
112.56 93.0034 108.167
112.327 91.518 107.585
112.044 92.5433 110.154
111.488 91.2816 111.03
113.344 91.643 108.527
113.52 90.2993 109.102
112.512 91.4141 112.279
111.713 90.3467 112.297
113.783 89.4957 110.324
112.633 90.3606 114.077
111.683 89.3209 114.007
113.736 90.8307 113.986
114.873 90.1431 114.048
114.689 89.1655 112.39
112.811 89.3671 115.566
111.783 88.3004 115.222
113.96 89.9124 115.807
115.09 90.041 115.618
115.376 89.0254 113.992
115.784 89.3351 115.32
115.727 88.2659 114.941
112.516 88.5775 116.828
111.473 87.387 116.465
113.795 89.2537 117.447
115.108 89.5175 117.411
116.021 89.2039 116.846
116.118 88.0691 116.303
112.18 87.9397 117.869
113.283 88.6032 118.824
112.191 87.2508 118.989
114.934 89.1897 119.036
116.279 88.7779 118.561
116.373 87.6976 117.789
112.745 87.7146 120.248
111.711 86.251 120.057
114.193 88.7558 120.29
116.357 88.7964 119.899
116.735 86.9512 119.184
111.7 86.1781 121.177
112.84 87.4926 121.64
111.34 85.1779 122.293
115.074 88.901 121.176
117.152 86.9419 120.156
117.183 88.517 121.001
117.179 86.5591 121.301
111.106 84.5484 123.529
117.528 86.2979 122.684
111.587 85.1168 125.196
111.248 84.5957 126.406
111.041 83.5594 124.69
118.185 86.9738 123.934
118.422 85.983 125.215
111.839 85.6638 126.876
111.215 84.7085 128.37
118.334 85.1967 126.376
111.274 84.6127 130.508
119.34 86.3185 128.676
118.659 84.8961 127.883
111.109 84.4368 132.244
119.263 85.6283 129.779
119.566 85.2002 131.242
110.839 84.0256 133.74
119.423 84.3428 132.453
110.791 83.3433 134.99
119.242 83.7779 133.507
118.698 83.4485 132.275
118.477 82.8472 133.368
110.946 82.5344 136.264
119.163 83.5243 134.798
118.304 82.3629 135.051
111.513 81.7484 137.459
119.343 83.2319 136.226
118.336 82.1172 136.521
111.795 81.3768 139.085
118.624 82.5445 137.678
117.649 81.5761 137.267
117.534 81.5485 138.37
119.392 83.3022 138.005
112.223 81.3242 140.715
118.084 82.2079 139.224
117.385 81.5506 139.708
118.942 82.864 139.364
112.67 81.3773 142.105
118.272 82.3374 140.714
117.432 81.6323 140.988
113.358 81.351 142.841
113.826 81.3989 143.663
115.023 81.2926 143.463
114.551 81.0644 142.571
116.094 81.4055 143.289
115.772 81.058 142.23
116.742 81.2268 141.673
110.572 90.6297 109.841
109.985 90.2175 108.343
110.861 90.7376 107.206
111.743 89.8112 107.468
110.669 89.6065 111.163
112.7 90.1519 108.13
112.935 89.0199 109.024
111.084 89.0642 112.502
113.81 88.6018 110.968
111.059 88.0274 113.512
114.263 87.8413 112.443
111.153 87.1118 114.769
114.928 88.0415 113.828
115.353 87.2456 115.4
111.063 86.2368 115.572
115.62 86.6474 116.886
111.573 86.9332 117.533
111.013 85.9618 116.761
115.928 86.0311 118.212
111.437 86.2123 118.328
111.292 85.3464 119.316
115.769 85.0195 119.281
111.136 84.3917 120.616
111.148 83.0517 121.439
116.029 84.6329 120.411
116.67 84.5941 121.678
111.012 82.4808 122.855
116.757 84.3321 122.789
110.917 83.4852 126.541
111.148 81.9639 124.632
117.456 85.3308 123.938
117.409 84.3739 124.9
111.005 83.5193 128.601
117.6 83.8773 126.364
111.01 83.3205 130.408
117.778 83.4861 127.795
111.058 83.0285 131.944
118.846 84.5529 129.697
118.123 83.5247 129.261
111.033 82.5342 133.382
118.699 83.8099 130.904
117.995 82.7531 131.437
111.3 81.7395 134.544
117.668 82.0105 133.087
111.747 81.2858 135.769
117.388 81.5169 134.599
116.839 81.0959 133.419
116.52 80.6688 134.664
112.268 80.8696 136.659
112.593 80.6282 138.048
114.054 80.1947 137.525
113.219 80.2926 136.512
115.436 80.1353 136.861
114.405 79.9814 135.954
116.587 80.6087 136.011
115.64 79.9688 135.257
117.583 81.2991 136.15
112.943 80.7387 139.595
114.09 80.4025 138.945
115.347 80.332 138.277
116.498 80.817 137.507
113.305 80.8618 141.04
114.249 80.6498 140.306
115.338 80.6049 139.644
116.486 80.884 138.95
113.676 81.0582 142.012
114.576 80.7481 141.524
115.576 80.7536 140.949
116.49 81.0927 140.353
110.276 89.2327 109.474
110.502 88.9413 107.893
110.306 88.252 110.494
110.667 87.8991 109.007
111.829 88.3481 108.12
110.535 87.7872 111.901
110.844 87.063 110.607
111.668 87.0138 109.349
112.625 87.7965 109.458
113.329 87.651 110.911
110.83 86.5939 113.253
113.776 86.8135 112.599
111.188 85.6709 114.466
114.6 86.8104 114.075
114.873 85.9824 115.724
111.194 84.8605 115.487
115.104 85.1792 117.264
111.025 84.5082 116.595
114.968 84.214 118.489
111.041 85.093 117.791
111.01 84.1119 118.365
114.787 83.1077 119.809
111.107 83.8087 119.377
112.269 81.3323 121.166
111.487 82.4691 119.722
114.294 81.8602 120.96
113.173 81.6834 119.688
115.553 83.3389 121.268
111.956 81.0716 122.871
113.719 80.8351 122.439
115.279 82.4591 122.24
110.976 82.2902 126.756
111.565 81.1072 125.608
112.485 80.5139 124.108
114.055 80.6647 123.932
114.772 80.9913 125.149
115.107 81.7566 123.603
116.221 83.3136 123.674
111.11 82.178 128.633
115.671 82.0048 125.52
115.249 80.9465 126.661
116.405 83.0262 125.116
111.243 82.0125 130.177
116.071 81.7932 127.567
115.468 80.6655 128.311
116.729 82.732 126.737
111.349 81.7348 131.564
116.324 81.4533 129.327
115.478 80.4449 129.91
117.168 82.4865 128.61
111.507 81.3559 132.83
116.293 81.1368 130.956
115.217 80.2694 131.31
117.352 82.2412 130.265
111.938 80.68 133.337
112.244 80.2073 134.384
113.754 79.6089 133.551
112.87 79.9395 132.766
115.153 79.8716 132.695
114.086 79.7227 131.997
116.119 80.6601 132.28
117.013 81.5093 132.015
112.508 80.3822 135.693
113.462 79.9101 135.099
114.791 79.6811 134.377
115.871 80.2516 133.629
111.099 86.0635 112.048
111.926 85.9913 111.039
112.71 86.7104 110.617
111.441 84.9214 113.429
112.323 85.0061 112.576
113.106 85.9712 112.23
111.76 84.0323 114.633
112.687 83.9598 114.083
113.532 84.698 113.908
114.044 85.7735 114.043
111.7 83.4555 115.924
112.769 83.3204 115.636
113.613 83.8435 115.601
114.318 84.8904 115.744
111.302 83.5126 117.171
112.376 82.8334 116.974
113.412 82.9507 117.109
114.395 83.8983 117.192
111.632 82.8731 118.274
112.642 82.2329 118.444
114.034 82.7847 118.654
111.558 81.146 127.228
112.494 80.3043 125.991
113.505 80.2424 125.063
111.724 80.8818 128.669
112.718 80.0689 127.421
113.975 80.1095 126.36
111.871 80.6283 130.022
112.952 79.9479 128.806
114.309 79.9668 127.711
112.084 80.5472 131.254
113.069 79.9838 130.137
114.36 79.9817 129.231
112.21 80.3132 132.274
113.067 79.7552 131.399
114.275 79.9064 130.554
POLYGONS 2132  8528
3 0 1 2
3 0 3 4
3 2 3 0
3 4 5 6
3 3 5 4
3 6 7 8
3 5 7 6
3 7 9 8
3 10 1 0
3 11 1 10
3 4 12 0
3 12 10 0
3 6 13 4
3 13 12 4
3 8 14 6
3 14 13 6
3 15 8 9
3 14 8 15
3 16 11 10
3 17 11 16
3 12 18 10
3 18 16 10
3 13 19 12
3 19 18 12
3 14 20 13
3 20 19 13
3 21 14 15
3 20 14 21
3 16 22 17
3 18 22 16
3 23 22 18
3 19 23 18
3 24 23 19
3 20 24 19
3 25 24 20
3 21 25 20
3 26 27 28
3 26 29 30
3 28 29 26
3 29 31 30
3 32 33 34
3 27 32 34
3 27 26 32
3 26 35 32
3 30 36 26
3 36 35 26
3 37 30 31
3 36 30 37
3 38 33 32
3 39 33 38
3 35 40 32
3 40 38 32
3 36 41 35
3 41 40 35
3 42 36 37
3 41 36 42
3 43 44 45
3 43 46 47
3 45 46 43
3 39 47 46
3 39 38 47
3 38 48 47
3 40 49 38
3 49 48 38
3 50 41 51
3 50 49 41
3 49 40 41
3 42 51 41
3 2 44 43
3 2 1 44
3 1 52 44
3 3 2 43
3 47 3 43
3 5 3 47
3 48 5 47
3 7 5 48
3 49 7 48
3 49 9 7
3 49 50 9
3 50 53 9
3 1 11 52
3 52 11 54
3 9 53 15
3 53 55 15
3 11 17 54
3 54 17 56
3 15 55 21
3 55 57 21
3 58 17 22
3 58 59 17
3 59 56 17
3 22 23 60
3 58 22 60
3 23 24 61
3 60 23 61
3 62 61 24
3 62 24 63
3 63 24 25
3 57 25 21
3 63 25 57
3 58 64 59
3 60 64 58
3 65 64 60
3 61 65 60
3 66 65 61
3 62 66 61
3 67 68 69
3 67 70 71
3 69 70 67
3 71 72 73
3 70 72 71
3 72 74 73
3 75 76 77
3 68 75 77
3 68 67 75
3 67 78 75
3 71 79 67
3 79 78 67
3 73 80 71
3 80 79 71
3 81 73 74
3 80 73 81
3 82 76 75
3 83 76 82
3 78 84 75
3 84 82 75
3 79 85 78
3 85 84 78
3 80 86 79
3 86 85 79
3 87 80 81
3 86 80 87
3 28 83 82
3 28 27 83
3 27 88 83
3 29 28 82
3 84 29 82
3 31 29 84
3 31 84 89
3 89 84 85
3 86 90 85
3 90 89 85
3 91 86 87
3 90 86 91
3 34 92 93
3 33 92 34
3 88 27 34
3 93 88 34
3 89 94 37
3 31 89 37
3 90 95 89
3 95 94 89
3 96 90 91
3 95 90 96
3 97 98 99
3 97 99 92
3 97 92 39
3 39 92 33
3 94 100 42
3 37 94 42
3 101 95 102
3 101 100 95
3 100 94 95
3 96 102 95
3 45 103 104
3 44 103 45
3 98 97 46
3 98 46 104
3 104 46 45
3 39 46 97
3 51 105 50
3 51 42 100
3 51 100 105
3 105 100 106
3 107 100 101
3 106 100 107
3 44 52 103
3 103 52 108
3 105 109 53
3 50 105 53
3 110 106 111
3 110 109 106
3 109 105 106
3 107 111 106
3 52 54 108
3 108 54 112
3 109 113 55
3 53 109 55
3 114 109 110
3 113 109 114
3 54 56 112
3 112 56 115
3 113 116 57
3 55 113 57
3 117 113 114
3 116 113 117
3 56 59 115
3 115 59 118
3 63 119 120
3 62 63 120
3 116 63 57
3 116 121 63
3 121 119 63
3 117 121 116
3 59 122 118
3 64 122 59
3 65 123 64
3 64 123 122
3 66 124 65
3 65 124 123
3 120 66 62
3 124 66 120
3 69 125 126
3 68 125 69
3 70 69 127
3 69 126 127
3 72 70 128
3 70 127 128
3 128 74 72
3 129 74 128
3 77 130 131
3 76 130 77
3 125 68 77
3 131 125 77
3 74 129 81
3 129 132 81
3 76 83 130
3 130 83 133
3 134 135 87
3 134 87 132
3 132 87 81
3 134 136 135
3 83 88 133
3 133 88 137
3 135 138 91
3 87 135 91
3 139 135 136
3 138 135 139
3 93 140 141
3 92 140 93
3 137 88 93
3 141 137 93
3 138 142 96
3 91 138 96
3 143 138 139
3 142 138 143
3 99 144 145
3 98 144 99
3 140 92 99
3 145 140 99
3 102 146 101
3 102 147 146
3 96 147 102
3 96 148 147
3 96 142 148
3 143 148 142
3 104 149 150
3 103 149 104
3 144 98 104
3 150 144 104
3 146 151 107
3 101 146 107
3 152 146 147
3 151 146 152
3 103 108 149
3 149 108 153
3 111 154 110
3 111 155 154
3 107 155 111
3 107 156 155
3 107 151 156
3 152 156 151
3 108 112 153
3 153 112 157
3 154 158 114
3 110 154 114
3 159 154 155
3 158 154 159
3 112 115 157
3 157 115 160
3 158 161 162
3 158 162 114
3 114 162 117
3 159 161 158
3 115 118 160
3 160 118 163
3 119 164 120
3 165 164 119
3 165 119 166
3 166 119 121
3 162 121 117
3 166 121 162
3 118 167 163
3 122 167 118
3 123 168 122
3 122 168 167
3 124 169 123
3 123 169 168
3 164 124 120
3 164 170 124
3 170 169 124
3 165 170 164
3 126 125 171
3 172 126 171
3 172 173 126
3 173 127 126
3 128 127 174
3 127 173 174
3 174 129 128
3 175 129 174
3 131 130 176
3 131 176 177
3 125 131 177
3 125 177 178
3 125 178 171
3 172 171 178
3 179 180 132
3 179 132 175
3 175 132 129
3 179 181 180
3 176 182 183
3 176 130 182
3 130 133 182
3 177 176 183
3 132 180 134
3 180 136 134
3 180 181 136
3 181 184 136
3 133 137 182
3 182 137 185
3 136 184 139
3 184 186 139
3 141 187 188
3 140 187 141
3 185 137 141
3 188 185 141
3 139 186 143
3 186 189 143
3 145 190 191
3 144 190 145
3 187 140 145
3 191 187 145
3 148 192 147
3 148 193 192
3 148 143 193
3 143 189 193
3 150 194 195
3 149 194 150
3 190 144 150
3 195 190 150
3 192 196 152
3 147 192 152
3 197 192 193
3 196 192 197
3 198 199 200
3 198 200 194
3 198 194 153
3 153 194 149
3 156 201 155
3 156 202 201
3 152 202 156
3 152 203 202
3 152 196 203
3 197 203 196
3 204 199 198
3 205 199 204
3 153 157 204
3 198 153 204
3 201 206 159
3 155 201 159
3 207 201 202
3 206 201 207
3 208 205 204
3 209 205 208
3 157 160 208
3 204 157 208
3 161 210 162
3 161 211 210
3 159 211 161
3 159 212 211
3 159 206 212
3 207 212 206
3 213 209 208
3 214 209 213
3 160 163 213
3 208 160 213
3 166 215 216
3 165 166 216
3 210 166 162
3 210 217 166
3 217 215 166
3 211 217 210
3 213 218 214
3 163 218 213
3 163 167 218
3 167 219 218
3 168 220 167
3 167 220 219
3 169 221 168
3 168 221 220
3 170 222 169
3 169 222 221
3 216 170 165
3 222 170 216
3 223 224 225
3 223 226 227
3 225 226 223
3 226 228 227
3 173 224 223
3 173 172 224
3 172 229 224
3 174 173 223
3 227 174 223
3 227 175 174
3 227 228 175
3 228 230 175
3 178 231 232
3 177 231 178
3 229 172 178
3 232 229 178
3 175 230 233
3 179 175 233
3 233 181 179
3 234 181 233
3 183 235 236
3 182 235 183
3 231 177 183
3 236 231 183
3 181 234 184
3 234 237 184
3 238 239 240
3 238 240 235
3 238 235 185
3 185 235 182
3 184 237 186
3 237 241 186
3 242 243 244
3 239 242 244
3 238 242 239
3 238 187 242
3 238 188 187
3 185 188 238
3 186 241 189
3 241 245 189
3 246 247 248
3 243 246 248
3 242 246 243
3 242 190 246
3 242 191 190
3 187 191 242
3 189 245 193
3 245 249 193
3 250 251 252
3 247 250 252
3 246 250 247
3 246 194 250
3 246 195 194
3 190 195 246
3 193 249 197
3 249 253 197
3 200 251 250
3 200 199 251
3 199 254 251
3 194 200 250
3 203 255 256
3 202 203 256
3 253 203 197
3 255 203 253
3 199 205 254
3 254 205 257
3 202 256 207
3 256 258 207
3 205 209 257
3 257 209 259
3 212 260 261
3 211 212 261
3 258 212 207
3 260 212 258
3 209 214 259
3 259 214 262
3 215 263 264
3 216 215 264
3 217 265 215
3 215 265 263
3 261 217 211
3 265 217 261
3 214 266 262
3 218 266 214
3 219 267 218
3 218 267 266
3 220 268 219
3 219 268 267
3 221 269 220
3 220 269 268
3 222 270 221
3 221 270 269
3 264 222 216
3 270 222 264
3 271 272 273
3 271 225 224
3 271 273 225
3 273 274 225
3 226 225 275
3 225 274 275
3 275 228 226
3 276 228 275
3 277 272 271
3 278 272 277
3 224 229 277
3 271 224 277
3 228 276 230
3 276 279 230
3 232 278 277
3 232 231 278
3 231 280 278
3 229 232 277
3 230 279 281
3 233 230 281
3 281 234 233
3 282 234 281
3 283 284 285
3 283 236 235
3 283 285 236
3 285 286 236
3 280 231 236
3 286 280 236
3 234 282 237
3 282 287 237
3 288 289 290
3 284 288 290
3 283 288 284
3 283 239 288
3 283 240 239
3 235 240 283
3 237 287 241
3 287 291 241
3 244 289 288
3 244 243 289
3 243 292 289
3 239 244 288
3 241 291 245
3 291 293 245
3 248 294 295
3 247 294 248
3 292 243 248
3 295 292 248
3 245 293 249
3 293 296 249
3 252 297 298
3 251 297 252
3 294 247 252
3 298 294 252
3 249 296 253
3 296 299 253
3 251 254 297
3 297 254 300
3 255 301 302
3 256 255 302
3 299 255 253
3 301 255 299
3 254 257 300
3 300 257 303
3 256 302 258
3 302 304 258
3 257 259 303
3 303 259 305
3 260 306 307
3 261 260 307
3 304 260 258
3 306 260 304
3 259 262 305
3 305 262 308
3 263 309 264
3 310 309 263
3 310 263 311
3 311 263 265
3 307 265 261
3 311 265 307
3 262 312 308
3 266 312 262
3 267 313 266
3 266 313 312
3 268 314 267
3 267 314 313
3 269 315 268
3 268 315 314
3 270 316 269
3 269 316 315
3 309 270 264
3 309 317 270
3 317 316 270
3 310 317 309
3 318 319 320
3 318 321 322
3 320 321 318
3 322 323 324
3 321 323 322
3 323 325 324
3 273 319 318
3 273 272 319
3 272 326 319
3 274 273 318
3 322 274 318
3 275 274 322
3 324 275 322
3 324 276 275
3 324 325 276
3 325 327 276
3 272 278 326
3 326 278 328
3 276 327 279
3 327 329 279
3 330 331 332
3 330 332 328
3 330 328 280
3 280 328 278
3 279 329 333
3 281 279 333
3 333 282 281
3 334 282 333
3 285 335 336
3 284 335 285
3 331 330 286
3 331 286 336
3 336 286 285
3 280 286 330
3 282 334 287
3 334 337 287
3 290 338 339
3 289 338 290
3 335 284 290
3 339 335 290
3 287 337 291
3 337 340 291
3 289 292 338
3 338 292 341
3 291 340 293
3 340 342 293
3 295 343 344
3 294 343 295
3 341 292 295
3 344 341 295
3 293 342 296
3 342 345 296
3 298 346 347
3 297 346 298
3 343 294 298
3 347 343 298
3 296 345 299
3 345 348 299
3 297 300 346
3 346 300 349
3 301 350 351
3 302 301 351
3 348 301 299
3 350 301 348
3 300 303 349
3 349 303 352
3 302 351 304
3 351 353 304
3 303 305 352
3 352 305 354
3 306 355 356
3 307 306 356
3 353 306 304
3 355 306 353
3 305 308 354
3 354 308 357
3 311 358 359
3 310 311 359
3 356 311 307
3 358 311 356
3 308 360 357
3 312 360 308
3 313 361 312
3 312 361 360
3 314 362 313
3 313 362 361
3 315 363 314
3 314 363 362
3 316 364 315
3 315 364 363
3 317 365 316
3 316 365 364
3 359 317 310
3 365 317 359
3 366 367 368
3 366 369 370
3 368 369 366
3 369 371 370
3 320 367 366
3 320 319 367
3 319 372 367
3 321 320 366
3 370 321 366
3 370 371 373
3 370 373 321
3 321 373 323
3 373 325 323
3 374 325 373
3 375 376 377
3 375 377 372
3 375 372 326
3 326 372 319
3 325 374 327
3 374 378 327
3 379 376 375
3 380 376 379
3 326 328 379
3 375 326 379
3 327 378 329
3 378 381 329
3 382 383 384
3 380 382 384
3 379 382 380
3 379 331 382
3 379 332 331
3 328 332 379
3 329 381 385
3 333 329 385
3 385 334 333
3 386 334 385
3 387 388 389
3 383 387 389
3 382 387 383
3 382 335 387
3 382 336 335
3 331 336 382
3 334 386 337
3 386 390 337
3 339 388 387
3 339 338 388
3 338 391 388
3 335 339 387
3 337 390 340
3 390 392 340
3 393 394 395
3 393 395 391
3 393 391 341
3 341 391 338
3 340 392 342
3 392 396 342
3 397 398 399
3 394 397 399
3 393 397 394
3 393 343 397
3 393 344 343
3 341 344 393
3 400 401 402
3 400 396 401
3 400 345 396
3 345 342 396
3 347 398 397
3 347 346 398
3 346 403 398
3 343 347 397
3 404 400 402
3 405 404 402
3 345 404 348
3 400 404 345
3 346 349 403
3 403 349 406
3 350 404 405
3 350 405 351
3 351 405 407
3 348 404 350
3 349 352 406
3 406 352 408
3 351 407 353
3 407 409 353
3 352 354 408
3 408 354 410
3 355 411 412
3 356 355 412
3 409 355 353
3 411 355 409
3 413 357 414
3 413 410 357
3 410 354 357
3 413 414 415
3 358 416 417
3 359 358 417
3 412 358 356
3 416 358 412
3 357 360 414
3 414 418 415
3 414 360 418
3 360 361 418
3 362 419 361
3 361 419 418
3 363 420 362
3 362 420 419
3 364 421 363
3 363 421 420
3 365 422 364
3 364 422 421
3 417 365 359
3 422 365 417
3 423 424 425
3 423 368 367
3 423 425 368
3 425 426 368
3 369 368 427
3 368 426 427
3 427 371 369
3 428 371 427
3 429 424 423
3 430 424 429
3 367 372 429
3 423 367 429
3 371 428 431
3 373 371 431
3 431 374 373
3 432 374 431
3 433 434 435
3 430 433 435
3 429 433 430
3 429 376 433
3 429 377 376
3 372 377 429
3 374 432 378
3 432 436 378
3 437 434 433
3 438 434 437
3 376 380 437
3 433 376 437
3 439 440 381
3 439 381 436
3 436 381 378
3 439 441 440
3 442 443 444
3 438 442 444
3 437 442 438
3 437 383 442
3 437 384 383
3 380 384 437
3 381 440 385
3 440 386 385
3 440 441 386
3 441 445 386
3 389 443 442
3 389 388 443
3 388 446 443
3 383 389 442
3 386 445 390
3 445 447 390
3 388 391 446
3 446 391 448
3 390 447 392
3 447 449 392
3 395 450 451
3 394 450 395
3 448 391 395
3 451 448 395
3 392 449 396
3 449 452 396
3 399 453 454
3 398 453 399
3 450 394 399
3 454 450 399
3 401 455 456
3 402 401 456
3 452 401 396
3 455 401 452
3 398 403 453
3 453 403 457
3 402 456 405
3 456 458 405
3 403 406 457
3 457 406 459
3 405 458 407
3 458 460 407
3 406 408 459
3 459 408 461
3 462 463 464
3 462 460 463
3 462 409 460
3 409 407 460
3 465 410 466
3 465 461 410
3 461 408 410
3 465 466 467
3 468 469 470
3 464 469 468
3 462 464 468
3 462 468 412
3 462 412 411
3 409 462 411
3 410 413 466
3 466 413 415
3 466 415 467
3 467 415 471
3 472 473 474
3 472 475 476
3 473 472 476
3 470 476 475
3 468 470 475
3 468 475 417
3 468 417 416
3 412 468 416
3 415 477 471
3 418 477 415
3 419 478 418
3 418 478 477
3 420 479 419
3 419 479 478
3 474 421 472
3 474 479 421
3 479 420 421
3 422 472 421
3 475 472 422
3 417 475 422
3 480 481 482
3 480 483 484
3 482 483 480
3 483 485 484
3 425 486 487
3 424 486 425
3 481 480 426
3 481 426 487
3 487 426 425
3 427 426 480
3 484 427 480
3 484 428 427
3 484 485 428
3 485 488 428
3 489 490 491
3 489 491 486
3 489 486 430
3 430 486 424
3 428 488 492
3 431 428 492
3 492 432 431
3 493 432 492
3 494 495 496
3 490 494 496
3 489 494 490
3 489 434 494
3 489 435 434
3 430 435 489
3 432 493 436
3 493 497 436
3 498 495 494
3 499 495 498
3 434 438 498
3 494 434 498
3 436 497 500
3 439 436 500
3 500 441 439
3 501 441 500
3 444 499 498
3 444 443 499
3 443 502 499
3 438 444 498
3 441 501 445
3 501 503 445
3 504 505 506
3 504 506 502
3 504 502 446
3 446 502 443
3 445 503 447
3 503 507 447
3 508 505 504
3 509 505 508
3 446 448 508
3 504 446 508
3 447 507 449
3 507 510 449
3 511 512 513
3 509 511 513
3 508 511 509
3 508 450 511
3 508 451 450
3 448 451 508
3 449 510 452
3 510 514 452
3 454 512 511
3 454 453 512
3 453 515 512
3 450 454 511
3 455 516 517
3 456 455 517
3 514 455 452
3 516 455 514
3 453 457 515
3 515 457 518
3 456 517 458
3 517 519 458
3 457 459 518
3 518 459 520
3 521 522 523
3 521 519 522
3 521 460 519
3 460 458 519
3 459 461 520
3 520 461 524
3 525 526 527
3 525 528 529
3 526 525 529
3 528 530 531
3 529 528 531
3 523 531 530
3 521 523 530
3 521 530 464
3 521 464 463
3 460 521 463
3 461 532 524
3 465 532 461
3 532 465 467
3 533 532 467
3 534 525 527
3 535 534 527
3 528 525 536
3 536 525 534
3 469 536 470
3 469 530 536
3 530 528 536
3 464 530 469
3 537 471 538
3 537 533 471
3 533 467 471
3 538 539 540
3 537 538 540
3 539 541 542
3 540 539 542
3 535 542 541
3 534 535 541
3 534 541 474
3 534 474 473
3 476 534 473
3 536 534 476
3 470 536 476
3 471 477 538
3 478 538 477
3 539 538 478
3 479 539 478
3 541 539 479
3 474 541 479
3 543 544 545
3 543 546 547
3 545 546 543
3 547 548 549
3 546 548 547
3 548 550 549
3 551 544 543
3 552 544 551
3 482 481 551
3 482 551 547
3 547 551 543
3 483 482 547
3 549 483 547
3 549 485 483
3 549 550 485
3 550 553 485
3 554 555 556
3 552 554 556
3 551 554 552
3 551 486 554
3 551 487 486
3 481 487 551
3 485 553 488
3 553 557 488
3 558 559 560
3 555 558 560
3 554 558 555
3 554 490 558
3 554 491 490
3 486 491 554
3 488 557 561
3 492 488 561
3 561 493 492
3 562 493 561
3 496 559 558
3 496 495 559
3 495 563 559
3 490 496 558
3 493 562 497
3 562 564 497
3 565 566 567
3 565 567 563
3 565 563 499
3 499 563 495
3 568 500 497
3 568 497 569
3 569 497 564
3 500 568 501
3 570 566 565
3 571 566 570
3 499 502 570
3 565 499 570
3 568 569 572
3 572 501 568
3 572 573 501
3 573 503 501
3 506 571 570
3 506 505 571
3 505 574 571
3 502 506 570
3 503 573 507
3 573 575 507
3 576 577 578
3 576 578 574
3 576 574 509
3 509 574 505
3 507 575 510
3 575 579 510
3 513 577 576
3 513 512 577
3 512 580 577
3 509 513 576
3 581 582 583
3 581 579 582
3 581 514 579
3 514 510 579
3 512 515 580
3 580 515 584
3 516 581 583
3 516 583 517
3 517 583 585
3 514 581 516
3 515 518 584
3 584 518 586
3 517 585 519
3 585 587 519
3 588 520 589
3 588 586 520
3 586 518 520
3 588 589 590
3 591 592 593
3 591 523 522
3 591 522 592
3 592 522 594
3 587 522 519
3 594 522 587
3 589 524 595
3 520 524 589
3 596 590 589
3 595 596 589
3 526 597 598
3 527 526 598
3 529 599 526
3 526 599 597
3 593 531 591
3 593 599 531
3 599 529 531
3 523 591 531
3 524 532 595
3 533 600 601
3 532 533 601
3 532 601 596
3 532 596 595
3 600 602 603
3 601 600 603
3 602 604 605
3 603 602 605
3 604 598 605
3 604 535 598
3 535 527 598
3 533 537 600
3 540 600 537
3 602 600 540
3 542 602 540
3 604 602 542
3 535 604 542
3 606 607 608
3 606 609 610
3 608 609 606
3 610 545 544
3 610 609 545
3 609 611 545
3 546 545 612
3 545 611 612
3 548 546 613
3 546 612 613
3 613 550 548
3 614 550 613
3 615 607 606
3 616 607 615
3 610 617 606
3 617 615 606
3 544 552 617
3 610 544 617
3 550 614 553
3 614 618 553
3 619 616 615
3 620 616 619
3 556 555 619
3 556 619 617
3 617 619 615
3 552 556 617
3 553 618 557
3 618 621 557
3 622 623 624
3 620 622 624
3 619 622 620
3 619 559 622
3 619 560 559
3 555 560 619
3 625 561 557
3 625 557 626
3 626 557 621
3 561 625 562
3 627 623 622
3 628 623 627
3 559 563 627
3 622 559 627
3 625 626 629
3 629 562 625
3 629 630 562
3 630 564 562
3 567 628 627
3 567 566 628
3 566 631 628
3 563 567 627
3 564 630 569
3 630 632 569
3 566 571 631
3 631 571 633
3 634 572 569
3 634 569 635
3 635 569 632
3 572 634 573
3 571 574 633
3 633 574 636
3 637 634 635
3 638 637 635
3 573 637 575
3 634 637 573
3 578 639 640
3 577 639 578
3 636 574 578
3 640 636 578
3 641 642 643
3 638 642 641
3 638 641 637
3 637 641 644
3 575 644 579
3 637 644 575
3 577 580 639
3 639 580 645
3 646 641 643
3 647 646 643
3 582 646 583
3 582 644 646
3 644 641 646
3 579 644 582
3 580 584 645
3 645 584 648
3 649 646 647
3 650 649 647
3 583 649 585
3 646 649 583
3 584 586 648
3 648 586 651
3 652 653 654
3 650 653 652
3 650 652 649
3 649 652 655
3 585 655 587
3 649 655 585
3 586 656 651
3 588 656 586
3 590 657 658
3 590 658 588
3 588 658 656
3 658 657 659
3 660 661 662
3 654 661 660
3 652 654 660
3 652 660 593
3 652 593 592
3 594 652 592
3 655 652 594
3 587 655 594
3 657 596 663
3 590 596 657
3 664 659 657
3 664 657 665
3 665 657 663
3 665 666 667
3 664 665 667
3 666 598 597
3 666 597 667
3 667 597 668
3 662 599 660
3 662 668 599
3 668 597 599
3 593 660 599
3 596 601 663
3 603 663 601
3 665 663 603
3 605 665 603
3 666 665 605
3 598 666 605
3 669 670 671
3 669 672 673
3 671 672 669
3 673 674 675
3 672 674 673
3 674 676 675
3 677 678 679
3 670 677 679
3 670 669 677
3 669 680 677
3 673 681 669
3 681 680 669
3 675 682 673
3 682 681 673
3 683 675 676
3 682 675 683
3 608 678 677
3 608 607 678
3 607 684 678
3 609 608 677
3 680 609 677
3 611 609 680
3 681 611 680
3 612 611 681
3 682 612 681
3 682 683 685
3 682 685 612
3 612 685 613
3 685 614 613
3 686 614 685
3 607 616 684
3 684 616 687
3 614 686 618
3 686 688 618
3 689 690 691
3 689 691 687
3 689 687 620
3 620 687 616
3 618 688 621
3 688 692 621
3 624 690 689
3 624 623 690
3 623 693 690
3 620 624 689
3 621 692 626
3 692 694 626
3 623 628 693
3 693 628 695
3 626 694 696
3 629 626 696
3 696 630 629
3 697 630 696
3 628 631 695
3 695 631 698
3 630 697 632
3 697 699 632
3 631 633 698
3 698 633 700
3 632 699 635
3 699 701 635
3 633 636 700
3 700 636 702
3 635 701 638
3 701 703 638
3 640 639 704
3 640 704 705
3 640 705 636
3 636 705 702
3 642 706 707
3 643 642 707
3 703 642 638
3 706 642 703
3 704 645 708
3 639 645 704
3 709 705 704
3 708 709 704
3 643 707 647
3 707 710 647
3 708 648 711
3 645 648 708
3 712 709 708
3 711 712 708
3 713 714 715
3 713 710 714
3 713 650 710
3 650 647 710
3 711 651 716
3 648 651 711
3 717 712 711
3 716 717 711
3 718 719 720
3 718 721 722
3 719 718 722
3 715 722 721
3 713 715 721
3 713 721 654
3 713 654 653
3 650 713 653
3 651 656 716
3 716 723 717
3 716 656 723
3 656 658 723
3 659 724 725
3 659 725 658
3 658 725 723
3 724 726 727
3 725 724 727
3 720 727 726
3 720 726 718
3 718 726 728
3 661 728 662
3 661 721 728
3 721 718 728
3 654 721 661
3 659 664 724
3 667 724 664
3 726 724 667
3 668 726 667
3 728 726 668
3 662 728 668
3 729 730 731
3 729 732 733
3 731 732 729
3 732 734 733
3 735 730 729
3 736 730 735
3 733 737 729
3 737 735 729
3 738 733 734
3 737 733 738
3 735 739 736
3 737 739 735
3 740 739 737
3 738 740 737
3 741 742 743
3 741 744 745
3 743 744 741
3 745 746 747
3 744 746 745
3 746 748 747
3 749 742 741
3 750 742 749
3 671 670 749
3 671 749 745
3 745 749 741
3 672 671 745
3 747 672 745
3 747 748 751
3 747 751 672
3 672 751 674
3 751 676 674
3 752 676 751
3 679 750 749
3 679 678 750
3 678 753 750
3 670 679 749
3 676 752 683
3 752 754 683
3 755 756 757
3 755 757 753
3 755 753 684
3 684 753 678
3 683 754 758
3 685 683 758
3 758 686 685
3 759 686 758
3 760 756 755
3 761 756 760
3 684 687 760
3 755 684 760
3 686 759 688
3 759 762 688
3 691 761 760
3 691 690 761
3 690 763 761
3 687 691 760
3 688 762 692
3 762 764 692
3 690 693 763
3 763 693 765
3 692 764 694
3 764 766 694
3 693 695 765
3 765 695 767
3 768 696 694
3 768 694 769
3 769 694 766
3 696 768 697
3 695 698 767
3 767 698 770
3 771 768 769
3 772 771 769
3 697 771 699
3 768 771 697
3 698 700 770
3 770 700 773
3 774 771 772
3 775 774 772
3 699 774 701
3 771 774 699
3 700 702 773
3 773 702 776
3 777 774 775
3 778 777 775
3 701 777 703
3 774 777 701
3 702 705 776
3 776 705 779
3 780 781 782
3 778 781 780
3 777 778 780
3 777 780 707
3 777 707 706
3 703 777 706
3 705 709 779
3 779 709 783
3 784 785 786
3 784 787 788
3 785 784 788
3 782 788 787
3 782 787 780
3 780 787 789
3 707 789 710
3 780 789 707
3 790 712 791
3 790 783 712
3 783 709 712
3 791 792 793
3 790 791 793
3 792 794 795
3 793 792 795
3 786 795 794
3 786 794 784
3 784 794 796
3 787 784 797
3 797 784 796
3 714 797 715
3 714 789 797
3 789 787 797
3 710 789 714
3 791 717 798
3 712 717 791
3 792 791 799
3 799 791 798
3 794 792 800
3 800 792 799
3 719 800 720
3 719 796 800
3 796 794 800
3 722 796 719
3 797 796 722
3 715 797 722
3 717 723 798
3 725 798 723
3 799 798 725
3 727 799 725
3 800 799 727
3 720 800 727
3 801 802 803
3 801 804 805
3 803 804 801
3 804 806 805
3 807 802 801
3 808 802 807
3 731 730 807
3 731 807 805
3 805 807 801
3 805 806 809
3 805 809 731
3 731 809 732
3 809 734 732
3 810 734 809
3 811 808 807
3 812 808 811
3 730 736 811
3 807 730 811
3 734 810 738
3 810 813 738
3 814 812 811
3 815 812 814
3 736 739 816
3 736 816 811
3 811 816 814
3 739 740 817
3 816 739 817
3 740 818 817
3 740 738 818
3 738 813 818
3 819 815 814
3 820 815 819
3 816 821 814
3 821 819 814
3 817 822 816
3 822 821 816
3 823 817 818
3 823 824 817
3 824 822 817
3 823 825 824
3 826 820 819
3 827 820 826
3 821 828 819
3 828 826 819
3 822 829 821
3 829 828 821
3 824 830 822
3 830 829 822
3 831 824 825
3 830 824 831
3 826 832 827
3 832 833 834
3 832 826 833
3 826 828 833
3 829 835 828
3 835 833 828
3 830 836 829
3 836 835 829
3 837 830 831
3 836 830 837
3 838 834 833
3 839 834 838
3 835 840 833
3 840 838 833
3 836 841 835
3 841 840 835
3 842 836 837
3 841 836 842
3 838 843 839
3 843 844 845
3 843 838 844
3 838 840 844
3 841 846 840
3 846 844 840
3 847 841 842
3 847 848 841
3 848 846 841
3 847 849 848
3 743 845 844
3 743 742 845
3 742 850 845
3 744 743 844
3 846 744 844
3 746 744 846
3 848 746 846
3 848 748 746
3 848 849 748
3 849 851 748
3 852 853 854
3 852 854 850
3 852 850 750
3 750 850 742
3 748 851 855
3 751 748 855
3 855 752 751
3 856 752 855
3 857 853 852
3 858 853 857
3 750 753 857
3 852 750 857
3 752 856 754
3 856 859 754
3 757 858 857
3 757 756 858
3 756 860 858
3 753 757 857
3 861 758 754
3 861 754 862
3 862 754 859
3 758 861 759
3 756 761 860
3 860 761 863
3 861 862 864
3 864 759 861
3 864 865 759
3 865 762 759
3 761 763 863
3 863 763 866
3 762 865 764
3 865 867 764
3 763 765 866
3 866 765 868
3 869 870 871
3 869 867 870
3 869 766 867
3 766 764 867
3 765 767 868
3 868 767 872
3 873 869 871
3 874 873 871
3 766 873 769
3 869 873 766
3 767 770 872
3 872 770 875
3 876 873 874
3 877 876 874
3 769 876 772
3 873 876 769
3 770 773 875
3 875 773 878
3 879 880 881
3 877 880 879
3 877 879 876
3 876 879 882
3 772 882 775
3 876 882 772
3 773 776 878
3 878 776 883
3 884 879 881
3 885 884 881
3 882 879 886
3 886 879 884
3 775 886 778
3 882 886 775
3 776 779 883
3 883 779 887
3 888 884 885
3 889 888 885
3 781 888 782
3 781 886 888
3 886 884 888
3 778 886 781
3 890 783 891
3 890 887 783
3 887 779 783
3 891 892 893
3 890 891 893
3 892 894 895
3 893 892 895
3 894 786 785
3 894 785 895
3 895 785 896
3 889 788 888
3 889 896 788
3 896 785 788
3 782 888 788
3 783 790 891
3 793 891 790
3 892 891 793
3 795 892 793
3 894 892 795
3 786 894 795
3 803 897 898
3 802 897 803
3 804 803 899
3 803 898 899
3 899 806 804
3 900 806 899
3 802 808 897
3 897 808 901
3 806 900 902
3 809 806 902
3 902 810 809
3 903 810 902
3 808 812 901
3 901 812 904
3 810 903 813
3 903 905 813
3 812 815 904
3 904 815 906
3 813 905 818
3 905 907 818
3 815 820 906
3 906 820 908
3 818 907 909
3 823 818 909
3 909 825 823
3 910 825 909
3 820 827 908
3 908 827 911
3 825 910 831
3 910 912 831
3 913 827 832
3 913 914 827
3 914 911 827
3 832 834 913
3 831 912 837
3 912 915 837
3 913 916 914
3 916 913 834
3 916 834 917
3 917 834 839
3 837 915 842
3 915 918 842
3 839 919 917
3 843 919 839
3 919 843 845
3 920 919 845
3 842 918 921
3 847 842 921
3 921 849 847
3 922 849 921
3 845 850 920
3 920 850 923
3 849 922 851
3 922 924 851
3 854 925 926
3 853 925 854
3 923 850 854
3 926 923 854
3 851 924 927
3 855 851 927
3 927 856 855
3 928 856 927
3 853 858 925
3 925 858 929
3 856 928 859
3 928 930 859
3 858 860 929
3 929 860 931
3 859 930 862
3 930 932 862
3 860 863 931
3 931 863 933
3 934 864 862
3 934 862 935
3 935 862 932
3 864 934 865
3 863 866 933
3 933 866 936
3 937 934 935
3 938 937 935
3 865 937 867
3 934 937 865
3 866 868 936
3 936 868 939
3 870 937 938
3 870 938 871
3 871 938 940
3 867 937 870
3 868 872 939
3 939 872 941
3 942 943 944
3 942 940 943
3 942 874 940
3 874 871 940
3 945 875 946
3 945 941 875
3 941 872 875
3 946 947 948
3 945 946 948
3 947 949 950
3 948 947 950
3 949 951 952
3 950 949 952
3 944 952 951
3 944 951 942
3 942 951 953
3 874 953 877
3 942 953 874
3 946 878 954
3 875 878 946
3 947 946 955
3 955 946 954
3 949 947 956
3 956 947 955
3 951 949 957
3 957 949 956
3 880 957 881
3 880 953 957
3 953 951 957
3 877 953 880
3 954 883 958
3 878 883 954
3 955 954 959
3 959 954 958
3 956 955 960
3 960 955 959
3 957 956 961
3 961 956 960
3 881 961 885
3 957 961 881
3 958 887 962
3 883 887 958
3 959 958 963
3 963 958 962
3 960 959 964
3 964 959 963
3 961 960 965
3 965 960 964
3 885 965 889
3 961 965 885
3 887 890 962
3 893 962 890
3 963 962 893
3 895 963 893
3 964 963 895
3 896 964 895
3 965 964 896
3 889 965 896
3 898 897 966
3 898 967 899
3 966 967 898
3 899 967 900
3 966 901 968
3 897 901 966
3 967 966 969
3 969 966 968
3 900 970 902
3 900 967 970
3 967 969 970
3 902 970 903
3 968 971 972
3 968 901 971
3 901 904 971
3 969 968 972
3 973 969 972
3 970 969 973
3 974 970 973
3 974 903 970
3 974 975 903
3 975 905 903
3 904 906 971
3 971 906 976
3 905 975 907
3 975 977 907
3 906 908 976
3 976 908 978
3 907 977 979
3 909 907 979
3 979 910 909
3 980 910 979
3 908 911 978
3 978 911 981
3 910 980 912
3 980 982 912
3 911 914 981
3 981 914 983
3 912 982 915
3 982 984 915
3 914 985 983
3 916 985 914
3 985 916 917
3 986 985 917
3 915 984 918
3 984 987 918
3 917 988 986
3 919 988 917
3 920 989 990
3 920 990 919
3 919 990 988
3 989 991 992
3 990 989 992
3 921 991 993
3 921 987 991
3 921 918 987
3 992 991 987
3 921 993 922
3 989 923 994
3 920 923 989
3 991 989 995
3 995 989 994
3 993 991 996
3 996 991 995
3 922 996 924
3 993 996 922
3 926 997 998
3 925 997 926
3 994 923 926
3 994 926 999
3 999 926 998
3 995 994 999
3 1000 995 999
3 1000 1001 1002
3 1000 1002 995
3 995 1002 996
3 924 1003 927
3 924 996 1003
3 996 1002 1003
3 927 1003 928
3 925 929 997
3 997 929 1004
3 1005 1002 1001
3 1006 1005 1001
3 1003 1002 1007
3 1007 1002 1005
3 928 1007 930
3 1003 1007 928
3 929 931 1004
3 1004 931 1008
3 1009 1005 1006
3 1010 1009 1006
3 1007 1005 1011
3 1011 1005 1009
3 930 1011 932
3 1007 1011 930
3 931 933 1008
3 1008 933 1012
3 1013 1009 1010
3 1014 1013 1010
3 1011 1009 1015
3 1015 1009 1013
3 932 1015 935
3 1011 1015 932
3 933 936 1012
3 1012 936 1016
3 1017 1013 1014
3 1018 1017 1014
3 1015 1013 1019
3 1019 1013 1017
3 935 1019 938
3 1015 1019 935
3 1020 939 1021
3 1020 1016 939
3 1016 936 939
3 1021 1022 1023
3 1020 1021 1023
3 1022 1024 1025
3 1023 1022 1025
3 1018 1025 1024
3 1018 1024 1017
3 1017 1024 1026
3 1019 1017 1027
3 1027 1017 1026
3 938 1027 940
3 1019 1027 938
3 1021 941 1028
3 939 941 1021
3 1022 1021 1029
3 1029 1021 1028
3 1024 1022 1030
3 1030 1022 1029
3 1026 1024 1031
3 1031 1024 1030
3 943 1031 944
3 943 1027 1031
3 1027 1026 1031
3 940 1027 943
3 941 945 1028
3 948 1028 945
3 1029 1028 948
3 950 1029 948
3 1030 1029 950
3 952 1030 950
3 1031 1030 952
3 944 1031 952
3 972 971 1032
3 972 1033 973
3 1032 1033 972
3 973 1034 974
3 1033 1034 973
3 974 1034 975
3 1032 976 1035
3 971 976 1032
3 1033 1032 1036
3 1036 1032 1035
3 1034 1033 1037
3 1037 1033 1036
3 975 1037 977
3 1034 1037 975
3 1035 978 1038
3 976 978 1035
3 1036 1035 1039
3 1039 1035 1038
3 1037 1036 1040
3 1040 1036 1039
3 977 1041 979
3 977 1037 1041
3 1037 1040 1041
3 979 1041 980
3 1038 981 1042
3 978 981 1038
3 1039 1038 1043
3 1043 1038 1042
3 1040 1039 1044
3 1044 1039 1043
3 1041 1040 1045
3 1045 1040 1044
3 980 1045 982
3 1041 1045 980
3 1042 983 1046
3 981 983 1042
3 1043 1042 1047
3 1047 1042 1046
3 1044 1043 1048
3 1048 1043 1047
3 1045 1044 1049
3 1049 1044 1048
3 982 1049 984
3 1045 1049 982
3 983 985 1046
3 986 1046 985
3 986 1050 1046
3 1050 1047 1046
3 1048 1047 1051
3 1051 1047 1050
3 1049 1048 1052
3 1052 1048 1051
3 984 1052 987
3 1049 1052 984
3 986 988 1050
3 990 1050 988
3 1051 1050 990
3 992 1051 990
3 1052 1051 992
3 987 1052 992
3 998 997 1053
3 998 1054 999
3 1053 1054 998
3 999 1055 1000
3 1054 1055 999
3 1000 1055 1001
3 1053 1004 1056
3 997 1004 1053
3 1054 1053 1057
3 1057 1053 1056
3 1055 1054 1058
3 1058 1054 1057
3 1001 1058 1006
3 1055 1058 1001
3 1056 1008 1059
3 1004 1008 1056
3 1057 1056 1060
3 1060 1056 1059
3 1058 1057 1061
3 1061 1057 1060
3 1006 1061 1010
3 1058 1061 1006
3 1059 1012 1062
3 1008 1012 1059
3 1060 1059 1063
3 1063 1059 1062
3 1061 1060 1064
3 1064 1060 1063
3 1010 1064 1014
3 1061 1064 1010
3 1062 1016 1065
3 1012 1016 1062
3 1063 1062 1066
3 1066 1062 1065
3 1064 1063 1067
3 1067 1063 1066
3 1014 1067 1018
3 1064 1067 1014
3 1016 1020 1065
3 1023 1065 1020
3 1066 1065 1023
3 1025 1066 1023
3 1067 1066 1025
3 1018 1067 1025
