# vtk DataFile Version 3.0
this file was written using fslvtkio
ASCII
DATASET POLYDATA
POINTS 642 float
129.527 98.8774 125.671
112.37 101.342 121.999
106.853 109.328 106.984
125.665 105.015 109.619
123.47 93.0112 113.574
127.037 111.292 119.336
114.986 112.041 117.398
111.281 94.3664 112.32
119.012 91.2373 128.52
116.169 103.792 102.173
116.873 115.881 104.14
122.423 104.62 133.033
114.658 90.807 120.933
121.98 90.0173 121.557
117.035 91.7589 112.443
112.436 97.7405 105.158
120.105 97.6072 106.365
119.811 107.689 125.276
121.199 112.013 118.689
127.088 109.107 129.247
114.339 115.993 110.402
121.471 112.362 110.602
125.491 98.893 110.791
127.162 94.1696 120.728
129.311 102.075 117.671
127.638 108.821 113.68
129.883 105.693 125.446
110.995 97.0492 117.828
107.748 101.156 108.023
108.632 105.418 114.048
113.629 106.813 120.587
110.05 112.228 111.12
128.536 101.948 133.034
125.995 93.4729 128.874
120.766 96.9467 133.249
116.963 101.719 128.696
114.111 95.1073 126.71
122.814 111.261 104.041
114.523 111.285 100.026
122.468 104.863 101.943
108.806 116.78 105.368
110.026 107.024 103.381
118.249 89.3996 121.323
119.585 90.2385 116.802
115.753 90.2856 116.467
120.436 92.1211 112.627
123.062 90.8185 117.584
120.721 89.9696 125.333
116.465 90.3893 124.978
113.083 92.1806 116.581
113.842 92.5022 111.778
114.795 94.2434 108.418
118.658 94.1036 109.302
116.417 97.0089 105.602
122.01 95.2171 109.775
111.463 95.7832 108.233
114.477 100.414 103.567
118.42 100.367 103.82
120.767 110.1 122.289
124.503 110.408 124.344
123.247 108.868 127.792
127.389 110.786 124.451
124.134 111.599 119.143
118.091 112.322 118.124
117.516 109.221 121.045
121.056 106.333 129.355
124.78 107.499 131.83
118.07 114.865 110.32
121.456 112.548 114.837
117.887 113.753 114.045
124.5 111.715 114.725
119.756 114.889 107.206
115.466 116.627 107.338
114.927 113.813 113.791
126.96 96.2333 115.717
128.845 97.9276 118.747
127.905 100.021 114.027
129.532 100.512 121.608
128.687 96.3854 122.962
125.655 93.2841 117.008
124.787 95.947 111.89
125.766 101.978 109.909
128.372 103.406 113.545
128.878 105.63 115.873
129.639 103.963 121.435
129.14 107.308 119.635
129.814 102.436 125.865
127.016 106.964 111.34
127.682 110.37 116.24
129.013 108.84 122.423
109.068 98.761 112.899
107.846 102.886 111.285
109.798 100.992 115.578
107.766 107.149 110.371
106.961 104.991 107.283
109.294 97.5734 110.116
111.014 95.283 115.48
111.57 99.1852 119.959
110.87 103.348 117.482
110.945 106.393 117.029
109.117 109.061 112.403
111.193 109.814 116.043
107.811 111.514 109.007
112.912 104.202 121.367
114.375 109.299 118.852
112.267 112.365 114.439
127.65 97.3117 131.519
123.64 94.7941 132.096
125.077 99.7021 133.951
119.397 93.3969 131.69
122.599 91.9775 128.971
128.433 95.9338 127.46
129.57 100.044 129.58
125.901 104.401 134.379
121.548 101.113 133.899
118.694 99.371 131.94
117.019 95.4408 131.01
115.411 98.3194 128.286
116.065 92.6411 128.12
119.646 103.185 130.897
114.355 101.532 125.504
113.112 98.1861 124.557
119.628 112.001 100.342
119.102 108.227 99.6451
123.476 108.491 102.107
119.365 104.166 101.704
115.443 107.542 100.241
116.042 114.268 101.202
120.206 114.012 103.705
124.598 107.91 106.83
124.475 104.912 105.289
108.573 112.511 103.067
111.91 109.192 100.965
111.533 114.308 101.768
112.941 105.102 102.645
107.73 108.026 104.662
107.169 113.742 106.122
112.756 116.412 104.115
125.136 91.3175 120.88
124.172 90.9118 125.554
127.193 93.4165 125.096
129.692 103.797 129.665
127.977 106.157 132.481
129.065 108.263 126.863
121.553 101.181 103.886
123.103 98.1979 108.011
124.039 102 106.051
124.835 109.494 109.121
125.232 110.939 112.085
122.4 112.275 107.267
113.865 92.4367 124.409
112.305 93.5587 119.557
112.175 96.0159 122.429
115.096 104.308 124.885
116.403 107.261 123.162
118.22 104.964 127.351
108.251 103.876 104.841
109.563 98.7972 106.465
111.229 101.96 103.617
111.736 117.418 107.673
111.997 114.06 110.644
107.765 115.634 108.718
118.859 89.6355 119.015
117.643 89.9839 116.782
117.009 89.6386 118.871
116.547 90.7177 114.586
118.204 90.7183 114.827
120.545 89.9749 119.182
120.016 89.6188 121.123
116.397 89.8331 120.824
115.428 90.2152 118.821
119.974 91.0378 114.809
121.313 90.4486 117.321
121.626 91.1672 115.162
122.389 90.2591 119.564
118.747 91.6894 112.924
121.98 92.3139 113.212
123.108 91.7504 115.43
119.502 89.4377 123.214
117.293 89.6932 123.024
118.546 89.7928 124.856
115.629 90.355 122.843
121.307 89.8312 123.343
119.684 90.3726 126.778
117.788 90.5357 126.55
114.347 90.9942 116.752
114.86 91.0537 114.226
113.452 91.8936 114.266
115.414 91.7647 112.353
113.958 91.2652 118.816
112.283 93.0077 114.389
112.545 93.1656 112.216
116.768 94.0214 108.918
117.512 95.4968 107.448
115.642 95.5462 107.016
118.292 96.932 106.236
119.164 95.7345 107.716
117.832 92.884 110.883
115.977 92.9571 110.396
113.751 95.8243 106.717
114.506 96.9902 105.548
120.333 94.6925 109.341
119.466 92.994 111.052
121.473 93.4284 111.19
120.816 96.2897 108.003
122.865 93.9527 111.675
114.478 93.1331 110.142
113.088 94.89 108.08
112.636 93.9515 110.066
111.921 96.5341 106.468
111.401 94.8173 110.299
115.332 98.4527 104.472
117.521 98.4421 104.763
116.489 100.072 103.778
119.191 98.7114 105.054
113.467 98.8713 104.303
115.515 101.902 102.923
117.263 101.836 102.915
122.566 110.249 123.458
123.884 109.671 126.046
122.115 109.282 125.071
125.02 109.347 128.478
125.735 109.925 126.915
122.907 110.958 121.836
121.308 111.023 120.797
120.581 108.94 124.068
121.555 108.367 126.337
125.942 110.629 124.705
124.301 111.118 121.841
125.797 111.238 121.93
122.797 111.589 119.626
127.319 109.939 127.012
127.166 111.211 121.777
125.542 111.488 119.311
119.691 110.897 120.102
119.244 109.499 121.903
117.984 110.67 119.661
118.825 108.425 123.205
119.707 112.231 118.446
116.592 112.185 117.862
116.39 110.543 119.072
122.028 107.688 128.408
123.973 108.533 129.829
122.712 107.288 130.657
125.87 108.551 130.5
120.549 107.05 127.261
121.803 105.797 131.281
123.325 106.381 132.368
119.677 113.069 112.315
119.755 113.178 114.6
117.976 114.045 112.083
119.498 113.008 116.336
121.332 112.386 116.909
121.126 112.52 112.449
119.79 113.555 110.739
116.454 115.555 110.542
116.313 114.715 111.927
122.76 112.029 117.215
122.775 112.071 114.583
124.41 111.758 116.894
122.772 111.818 112.693
125.922 111.624 117.008
119.004 114.95 109.02
116.936 116.32 108.965
117.792 115.899 107.388
114.916 116.742 109.069
120.484 113.638 109.012
118.419 115.632 105.744
116.417 116.363 105.874
116.519 113.801 113.918
118.214 113.155 116.475
116.417 113.2 116.226
114.849 114.523 111.742
114.991 113.073 115.747
127.907 97.0625 117.248
128.511 98.9193 116.42
127.509 98.1226 114.923
128.761 100.641 115.914
129.102 99.9305 117.74
127.943 96.1138 119.378
127.2 95.4204 118.175
126.517 97.5792 113.459
126.804 99.0757 112.722
129.337 99.2376 119.831
128.752 96.935 120.758
129.326 98.3636 121.972
127.85 95.2686 121.687
129.415 101.096 119.447
129.519 99.6302 123.525
129.315 97.7327 124.024
126.362 94.7911 116.571
125.901 96.0884 113.81
125.369 94.4179 114.49
125.349 97.4232 111.551
126.486 93.7677 118.99
124.577 92.9935 115.226
124.291 94.4199 112.719
126.903 100.781 111.97
128.247 101.653 113.868
127.013 102.512 111.806
128.997 102.51 115.652
125.729 100.304 110.446
125.83 103.513 109.884
127.204 104.141 111.707
129.423 104.64 118.63
129.489 105.61 120.381
129.124 106.369 117.719
129.628 106.386 122.196
129.742 105.034 123.049
129.493 103.13 119.395
129.243 103.88 117.095
128.29 107.308 115.218
128.561 107.821 116.994
129.698 103.379 123.606
129.643 102.235 121.222
129.662 101.512 123.614
129.894 104.171 125.547
129.683 100.616 125.476
128.855 104.299 114.914
128.13 106.408 113.783
127.811 105.254 112.683
127.471 107.923 112.484
126.418 105.829 110.701
128.437 108.838 118.053
129.285 107.944 121.216
128.407 109.551 119.56
129.662 107.113 123.955
127.832 109.261 115.408
127.528 110.802 117.903
128.148 110.385 120.817
108.331 100.744 112.12
108.72 101.93 113.441
109.219 99.928 114.291
108.974 103.027 114.523
108.29 103.849 112.856
107.756 101.667 110.032
108.25 99.9164 110.638
109.995 98.2 115.143
110.276 99.0069 116.345
107.685 104.874 110.996
107.386 103.714 109.359
107.26 105.719 109.118
107.376 102.946 107.876
108.093 105.995 112.222
107.218 107.923 108.741
106.847 107.01 107.403
108.975 98.1571 111.435
110.045 97.0704 114.174
110.055 96.2425 112.864
110.775 96.3911 116.472
108.343 99.3475 108.977
110.249 95.847 111.333
111.171 94.6413 114.008
110.748 99.9826 117.562
110.114 102.255 116.38
111.221 101.209 118.405
109.561 104.198 115.633
111.178 98.195 118.679
111.842 100.572 120.577
111.698 102.396 119.392
109.598 107.792 114.917
109.936 109.419 114.354
110.937 108.114 116.359
110.488 110.802 113.782
109.67 110.611 112.075
108.817 107.252 113.462
109.659 106.099 115.494
112.136 106.958 118.458
112.248 108.294 117.896
109.045 110.15 110.5
108.399 107.897 111.588
107.905 109.225 109.584
108.863 112.007 110.091
107.178 110.218 108.144
110.677 104.852 117.013
112.103 105.464 118.839
112.037 103.857 119.295
113.12 105.647 120.768
112.526 102.768 121.451
112.649 109.653 117.545
111.62 111.134 115.334
113.07 111.104 116.972
111.097 111.958 112.934
113.78 108.078 119.479
114.646 110.734 118.258
113.562 112.342 116.088
125.736 96.1263 132.13
124.552 97.0983 133.148
126.368 98.1558 133.054
123.136 98.1253 133.592
122.515 96.0523 132.974
125.087 94.3123 130.826
126.649 95.3814 130.528
128.102 99.3611 132.588
127.023 100.482 133.776
121.663 94.0063 132.143
123.254 93.2415 130.681
121.077 92.5157 130.542
124.482 92.6893 129.135
120.232 95.0717 132.698
119.016 92.0644 130.263
120.807 91.3504 128.774
128.108 96.4775 129.618
129.047 98.4878 130.75
129.267 97.902 128.408
129.264 100.515 131.626
127.294 94.8463 128.644
129.189 97.2229 126.35
129.584 99.4309 127.582
125.565 101.989 134.432
123.365 100.451 134.132
123.745 102.786 134.351
121.491 98.9936 133.78
127.333 102.861 134.114
123.859 104.602 134.056
121.757 102.751 133.455
117.816 97.3758 131.655
116.284 96.9725 129.939
116.994 98.5264 130.369
114.869 96.6991 127.9
115.532 95.4484 129.014
118.703 96.062 132.517
119.492 98.1664 133.039
117.591 100.213 130.282
116.249 99.8234 128.843
116.362 94.1215 129.765
118.209 94.4431 131.753
117.549 92.6758 130.263
115.091 93.9794 127.812
117.378 91.6305 128.372
120.022 100.076 133.234
118.978 101.141 131.365
120.328 102.139 132.587
118.226 102.188 129.925
121.062 104.037 131.872
114.931 100.005 126.989
114.243 98.1935 126.499
113.564 99.9561 125.027
113.66 96.6194 125.876
115.659 101.39 127.349
113.193 101.511 123.775
112.594 99.7698 123.226
119.612 110.123 99.7804
121.586 108.425 100.327
121.951 110.346 100.779
122.694 106.856 101.476
120.868 106.784 100.492
117.163 109.771 99.5846
117.395 111.411 99.9562
121.541 111.935 101.651
123.115 110.133 102.828
119.257 106.183 100.557
117.258 107.88 99.7983
117.382 105.781 100.85
115.012 109.435 99.774
120.903 104.739 101.534
117.823 103.756 101.968
115.662 105.7 101.317
117.849 113.103 100.635
120.045 113.39 101.797
118.249 114.762 102.087
121.571 112.646 103.474
115.412 112.737 100.414
116.451 115.459 102.592
118.854 115.147 104.056
124.186 108.343 104.283
124.131 106.735 103.274
124.606 106.392 105.995
123.771 105.157 103.137
123.9 109.606 105.111
125.074 106.363 108.218
124.933 104.789 107.582
110.157 111.067 101.706
111.376 111.942 100.794
109.739 113.629 102.051
112.974 112.877 100.76
112.944 110.317 100.191
110.664 108.753 102.179
109.378 110.099 102.852
108.422 114.785 103.765
109.937 115.551 103.239
113.906 108.308 100.262
112.223 107.518 101.797
114.093 106.303 101.569
111.422 106.193 102.871
114.569 104.228 102.384
108.224 110.732 103.99
107.699 113.358 104.588
107.303 111.008 105.103
107.464 115.733 105.608
108.856 108.227 103.892
107.065 108.554 105.73
107.08 111.498 106.466
112.043 115.493 102.621
114.109 114.048 101.317
114.494 115.617 102.568
110.754 116.614 104.459
114.887 116.224 104.138
124.9 90.9502 123.401
125.872 91.8652 125.286
126.193 92.0295 123.251
126.772 93.2197 127.042
125.264 91.9205 127.28
123.2 90.2494 123.518
123.782 90.3944 121.362
126.233 92.6106 121.039
127.211 93.4646 122.921
123.63 91.4826 127.494
122.494 90.4625 125.291
121.607 90.8732 127.246
124.135 90.821 119.298
125.648 92.2681 118.896
124.445 91.9463 116.953
127.934 94.744 123.856
127.842 94.5468 126.488
128.767 96.1172 125.104
129.034 104.979 131.072
128.845 107.018 129.998
129.438 106.122 128.764
128.421 108.841 128.237
127.808 107.942 131.02
128.543 104.109 132.996
129.347 102.647 131.423
129.816 104.85 127.637
129.667 107.007 126.287
126.403 107.439 132.161
127.31 105.148 133.85
124.751 105.929 133.365
129.72 101.842 129.771
129.855 103.162 127.718
129.755 101.094 127.553
129.182 108.515 124.355
128.48 109.881 125.491
128.333 110.453 122.619
122.299 99.6939 105.993
123.629 100.03 107.225
123.019 101.496 104.798
124.62 100.355 108.404
124.324 98.7591 109.177
121.642 98.0376 107.016
120.919 99.3979 105.26
122.152 102.95 102.842
123.521 103.416 103.74
124.062 97.2577 109.952
122.387 96.7935 108.741
123.508 95.4778 110.697
120.063 100.523 103.972
120.671 102.652 102.554
118.926 102.19 102.799
124.278 103.481 105.451
124.883 101.685 108.228
124.928 103.395 107.823
125.288 110.219 110.667
123.594 111.239 109.779
123.798 110.877 108.115
122.1 112.281 109.119
123.314 111.551 111.235
126.937 110.098 112.725
126.56 109.162 111.171
123.737 110.32 106.468
122.744 111.891 105.678
124.74 111.454 113.23
126.893 110.717 113.941
126.363 111.363 115.533
125.991 108.157 110.346
124.496 108.796 107.834
125.275 107.083 109.358
121.561 113.205 105.343
121.25 113.477 107.466
120.163 114.554 105.625
112.928 92.8911 122.094
112.091 94.6092 121.222
112.803 94.1143 123.486
111.647 96.3828 120.189
111.563 95.2795 118.937
113.34 92.102 120.42
114.109 91.5099 122.698
113.749 93.7993 125.578
112.974 95.4324 124.593
111.672 94.6327 117.55
112.804 92.6749 118.233
111.949 93.662 115.958
114.981 91.2365 124.62
114.693 92.6905 126.449
116.227 91.3586 126.722
112.668 97.0738 123.671
111.76 97.5738 121.126
112.243 98.9129 122.189
115.788 105.823 124.125
117.387 106.039 125.255
116.69 104.532 126.158
118.97 106.386 126.194
118.055 107.372 124.224
114.91 106.999 122.144
114.392 105.63 122.882
116.051 103.011 126.769
117.466 103.366 128.016
117.051 108.225 122.227
115.144 108.096 120.964
115.935 109.155 119.757
113.897 104.449 123.028
114.681 102.941 125.425
113.453 102.897 123.425
118.774 103.908 129.184
119.654 105.641 128.007
120.308 104.878 130.18
108.769 101.151 105.343
110.146 100.347 104.723
109.643 102.743 104.143
111.679 99.7328 104.204
110.764 98.2651 105.539
108.471 99.9818 107.03
107.715 102.172 106.18
109.18 105.39 104.018
110.617 104.363 103.421
110.512 97.0958 107.212
109.28 98.1303 108.274
110.315 96.2541 109.514
107.265 104.024 106.054
108.187 105.982 104.549
107 106.486 105.834
112.143 103.581 103.203
112.813 100.938 103.522
113.938 102.618 102.948
111.458 116.389 109.799
109.789 115.37 109.976
109.499 117.193 108.378
109.054 113.913 110.056
111.29 112.893 110.854
113.343 114.679 110.598
112.899 117.097 109.54
110.316 117.445 106.265
107.811 116.839 107.165
112.273 112.89 112.457
113.614 113.714 112.276
113.592 113.167 114.294
113.653 117.029 107.765
112.295 117.058 105.618
114.582 116.74 105.61
107.3 114.852 107.209
107.935 113.531 109.172
107.234 112.231 107.585
POLYGONS 1280  5120
3 164 162 163
3 163 44 164
3 162 43 163
3 164 42 162
3 166 165 163
3 163 43 166
3 165 44 163
3 166 14 165
3 168 167 162
3 162 42 168
3 167 43 162
3 168 13 167
3 170 169 164
3 164 44 170
3 169 42 164
3 170 12 169
3 173 171 172
3 172 46 173
3 171 43 172
3 173 45 171
3 167 174 172
3 172 43 167
3 174 46 172
3 167 13 174
3 175 166 171
3 171 45 175
3 166 43 171
3 175 14 166
3 177 176 173
3 173 46 177
3 176 45 173
3 177 4 176
3 180 178 179
3 179 48 180
3 178 42 179
3 180 47 178
3 169 181 179
3 179 42 169
3 181 48 179
3 169 12 181
3 182 168 178
3 178 47 182
3 168 42 178
3 182 13 168
3 184 183 180
3 180 48 184
3 183 47 180
3 184 8 183
3 187 185 186
3 186 50 187
3 185 44 186
3 187 49 185
3 165 188 186
3 186 44 165
3 188 50 186
3 165 14 188
3 189 170 185
3 185 49 189
3 170 44 185
3 189 12 170
3 191 190 187
3 187 50 191
3 190 49 187
3 191 7 190
3 194 192 193
3 193 53 194
3 192 52 193
3 194 51 192
3 196 195 193
3 193 52 196
3 195 53 193
3 196 16 195
3 198 197 192
3 192 51 198
3 197 52 192
3 198 14 197
3 200 199 194
3 194 53 200
3 199 51 194
3 200 15 199
3 203 201 202
3 202 45 203
3 201 52 202
3 203 54 201
3 197 175 202
3 202 52 197
3 175 45 202
3 197 14 175
3 204 196 201
3 201 54 204
3 196 52 201
3 204 16 196
3 176 205 203
3 203 45 176
3 205 54 203
3 176 4 205
3 208 206 207
3 207 55 208
3 206 51 207
3 208 50 206
3 199 209 207
3 207 51 199
3 209 55 207
3 199 15 209
3 188 198 206
3 206 50 188
3 198 51 206
3 188 14 198
3 210 191 208
3 208 55 210
3 191 50 208
3 210 7 191
3 213 211 212
3 212 57 213
3 211 53 212
3 213 56 211
3 195 214 212
3 212 53 195
3 214 57 212
3 195 16 214
3 215 200 211
3 211 56 215
3 200 53 211
3 215 15 200
3 217 216 213
3 213 57 217
3 216 56 213
3 217 9 216
3 220 218 219
3 219 60 220
3 218 59 219
3 220 58 218
3 222 221 219
3 219 59 222
3 221 60 219
3 222 19 221
3 224 223 218
3 218 58 224
3 223 59 218
3 224 18 223
3 226 225 220
3 220 60 226
3 225 58 220
3 226 17 225
3 229 227 228
3 228 62 229
3 227 59 228
3 229 61 227
3 223 230 228
3 228 59 223
3 230 62 228
3 223 18 230
3 231 222 227
3 227 61 231
3 222 59 227
3 231 19 222
3 233 232 229
3 229 62 233
3 232 61 229
3 233 5 232
3 236 234 235
3 235 64 236
3 234 58 235
3 236 63 234
3 225 237 235
3 235 58 225
3 237 64 235
3 225 17 237
3 238 224 234
3 234 63 238
3 224 58 234
3 238 18 224
3 240 239 236
3 236 64 240
3 239 63 236
3 240 6 239
3 243 241 242
3 242 66 243
3 241 60 242
3 243 65 241
3 221 244 242
3 242 60 221
3 244 66 242
3 221 19 244
3 245 226 241
3 241 65 245
3 226 60 241
3 245 17 226
3 247 246 243
3 243 66 247
3 246 65 243
3 247 11 246
3 250 248 249
3 249 69 250
3 248 68 249
3 250 67 248
3 252 251 249
3 249 68 252
3 251 69 249
3 252 18 251
3 254 253 248
3 248 67 254
3 253 68 248
3 254 21 253
3 256 255 250
3 250 69 256
3 255 67 250
3 256 20 255
3 259 257 258
3 258 70 259
3 257 68 258
3 259 62 257
3 253 260 258
3 258 68 253
3 260 70 258
3 253 21 260
3 230 252 257
3 257 62 230
3 252 68 257
3 230 18 252
3 261 233 259
3 259 70 261
3 233 62 259
3 261 5 233
3 264 262 263
3 263 72 264
3 262 67 263
3 264 71 262
3 255 265 263
3 263 67 255
3 265 72 263
3 255 20 265
3 266 254 262
3 262 71 266
3 254 67 262
3 266 21 254
3 268 267 264
3 264 72 268
3 267 71 264
3 268 10 267
3 271 269 270
3 270 63 271
3 269 69 270
3 271 73 269
3 251 238 270
3 270 69 251
3 238 63 270
3 251 18 238
3 272 256 269
3 269 73 272
3 256 69 269
3 272 20 256
3 239 273 271
3 271 63 239
3 273 73 271
3 239 6 273
3 276 274 275
3 275 76 276
3 274 75 275
3 276 74 274
3 278 277 275
3 275 75 278
3 277 76 275
3 278 24 277
3 280 279 274
3 274 74 280
3 279 75 274
3 280 23 279
3 282 281 276
3 276 76 282
3 281 74 276
3 282 22 281
3 285 283 284
3 284 78 285
3 283 75 284
3 285 77 283
3 279 286 284
3 284 75 279
3 286 78 284
3 279 23 286
3 287 278 283
3 283 77 287
3 278 75 283
3 287 24 278
3 289 288 285
3 285 78 289
3 288 77 285
3 289 0 288
3 292 290 291
3 291 80 292
3 290 74 291
3 292 79 290
3 281 293 291
3 291 74 281
3 293 80 291
3 281 22 293
3 294 280 290
3 290 79 294
3 280 74 290
3 294 23 280
3 296 295 292
3 292 80 296
3 295 79 292
3 296 4 295
3 299 297 298
3 298 82 299
3 297 76 298
3 299 81 297
3 277 300 298
3 298 76 277
3 300 82 298
3 277 24 300
3 301 282 297
3 297 81 301
3 282 76 297
3 301 22 282
3 303 302 299
3 299 82 303
3 302 81 299
3 303 3 302
3 306 304 305
3 305 85 306
3 304 84 305
3 306 83 304
3 308 307 305
3 305 84 308
3 307 85 305
3 308 26 307
3 310 309 304
3 304 83 310
3 309 84 304
3 310 24 309
3 312 311 306
3 306 85 312
3 311 83 306
3 312 25 311
3 315 313 314
3 314 77 315
3 313 84 314
3 315 86 313
3 309 287 314
3 314 84 309
3 287 77 314
3 309 24 287
3 316 308 313
3 313 86 316
3 308 84 313
3 316 26 308
3 288 317 315
3 315 77 288
3 317 86 315
3 288 0 317
3 320 318 319
3 319 87 320
3 318 83 319
3 320 82 318
3 311 321 319
3 319 83 311
3 321 87 319
3 311 25 321
3 300 310 318
3 318 82 300
3 310 83 318
3 300 24 310
3 322 303 320
3 320 87 322
3 303 82 320
3 322 3 303
3 325 323 324
3 324 89 325
3 323 85 324
3 325 88 323
3 307 326 324
3 324 85 307
3 326 89 324
3 307 26 326
3 327 312 323
3 323 88 327
3 312 85 323
3 327 25 312
3 329 328 325
3 325 89 329
3 328 88 325
3 329 5 328
3 332 330 331
3 331 92 332
3 330 91 331
3 332 90 330
3 334 333 331
3 331 91 334
3 333 92 331
3 334 29 333
3 336 335 330
3 330 90 336
3 335 91 330
3 336 28 335
3 338 337 332
3 332 92 338
3 337 90 332
3 338 27 337
3 341 339 340
3 340 94 341
3 339 91 340
3 341 93 339
3 335 342 340
3 340 91 335
3 342 94 340
3 335 28 342
3 343 334 339
3 339 93 343
3 334 91 339
3 343 29 334
3 345 344 341
3 341 94 345
3 344 93 341
3 345 2 344
3 348 346 347
3 347 96 348
3 346 90 347
3 348 95 346
3 337 349 347
3 347 90 337
3 349 96 347
3 337 27 349
3 350 336 346
3 346 95 350
3 336 90 346
3 350 28 336
3 352 351 348
3 348 96 352
3 351 95 348
3 352 7 351
3 355 353 354
3 354 98 355
3 353 92 354
3 355 97 353
3 333 356 354
3 354 92 333
3 356 98 354
3 333 29 356
3 357 338 353
3 353 97 357
3 338 92 353
3 357 27 338
3 359 358 355
3 355 98 359
3 358 97 355
3 359 1 358
3 362 360 361
3 361 101 362
3 360 100 361
3 362 99 360
3 364 363 361
3 361 100 364
3 363 101 361
3 364 31 363
3 366 365 360
3 360 99 366
3 365 100 360
3 366 29 365
3 368 367 362
3 362 101 368
3 367 99 362
3 368 30 367
3 371 369 370
3 370 93 371
3 369 100 370
3 371 102 369
3 365 343 370
3 370 100 365
3 343 93 370
3 365 29 343
3 372 364 369
3 369 102 372
3 364 100 369
3 372 31 364
3 344 373 371
3 371 93 344
3 373 102 371
3 344 2 373
3 376 374 375
3 375 103 376
3 374 99 375
3 376 98 374
3 367 377 375
3 375 99 367
3 377 103 375
3 367 30 377
3 356 366 374
3 374 98 356
3 366 99 374
3 356 29 366
3 378 359 376
3 376 103 378
3 359 98 376
3 378 1 359
3 381 379 380
3 380 105 381
3 379 101 380
3 381 104 379
3 363 382 380
3 380 101 363
3 382 105 380
3 363 31 382
3 383 368 379
3 379 104 383
3 368 101 379
3 383 30 368
3 385 384 381
3 381 105 385
3 384 104 381
3 385 6 384
3 388 386 387
3 387 108 388
3 386 107 387
3 388 106 386
3 390 389 387
3 387 107 390
3 389 108 387
3 390 34 389
3 392 391 386
3 386 106 392
3 391 107 386
3 392 33 391
3 394 393 388
3 388 108 394
3 393 106 388
3 394 32 393
3 397 395 396
3 396 110 397
3 395 107 396
3 397 109 395
3 391 398 396
3 396 107 391
3 398 110 396
3 391 33 398
3 399 390 395
3 395 109 399
3 390 107 395
3 399 34 390
3 401 400 397
3 397 110 401
3 400 109 397
3 401 8 400
3 404 402 403
3 403 112 404
3 402 106 403
3 404 111 402
3 393 405 403
3 403 106 393
3 405 112 403
3 393 32 405
3 406 392 402
3 402 111 406
3 392 106 402
3 406 33 392
3 408 407 404
3 404 112 408
3 407 111 404
3 408 0 407
3 411 409 410
3 410 114 411
3 409 108 410
3 411 113 409
3 389 412 410
3 410 108 389
3 412 114 410
3 389 34 412
3 413 394 409
3 409 113 413
3 394 108 409
3 413 32 394
3 415 414 411
3 411 114 415
3 414 113 411
3 415 11 414
3 418 416 417
3 417 117 418
3 416 116 417
3 418 115 416
3 420 419 417
3 417 116 420
3 419 117 417
3 420 36 419
3 422 421 416
3 416 115 422
3 421 116 416
3 422 34 421
3 424 423 418
3 418 117 424
3 423 115 418
3 424 35 423
3 427 425 426
3 426 109 427
3 425 116 426
3 427 118 425
3 421 399 426
3 426 116 421
3 399 109 426
3 421 34 399
3 428 420 425
3 425 118 428
3 420 116 425
3 428 36 420
3 400 429 427
3 427 109 400
3 429 118 427
3 400 8 429
3 432 430 431
3 431 119 432
3 430 115 431
3 432 114 430
3 423 433 431
3 431 115 423
3 433 119 431
3 423 35 433
3 412 422 430
3 430 114 412
3 422 115 430
3 412 34 422
3 434 415 432
3 432 119 434
3 415 114 432
3 434 11 415
3 437 435 436
3 436 121 437
3 435 117 436
3 437 120 435
3 419 438 436
3 436 117 419
3 438 121 436
3 419 36 438
3 439 424 435
3 435 120 439
3 424 117 435
3 439 35 424
3 441 440 437
3 437 121 441
3 440 120 437
3 441 1 440
3 444 442 443
3 443 124 444
3 442 123 443
3 444 122 442
3 446 445 443
3 443 123 446
3 445 124 443
3 446 39 445
3 448 447 442
3 442 122 448
3 447 123 442
3 448 38 447
3 450 449 444
3 444 124 450
3 449 122 444
3 450 37 449
3 453 451 452
3 452 126 453
3 451 123 452
3 453 125 451
3 447 454 452
3 452 123 447
3 454 126 452
3 447 38 454
3 455 446 451
3 451 125 455
3 446 123 451
3 455 39 446
3 457 456 453
3 453 126 457
3 456 125 453
3 457 9 456
3 460 458 459
3 459 128 460
3 458 122 459
3 460 127 458
3 449 461 459
3 459 122 449
3 461 128 459
3 449 37 461
3 462 448 458
3 458 127 462
3 448 122 458
3 462 38 448
3 464 463 460
3 460 128 464
3 463 127 460
3 464 10 463
3 467 465 466
3 466 130 467
3 465 124 466
3 467 129 465
3 445 468 466
3 466 124 445
3 468 130 466
3 445 39 468
3 469 450 465
3 465 129 469
3 450 124 465
3 469 37 450
3 471 470 467
3 467 130 471
3 470 129 467
3 471 3 470
3 474 472 473
3 473 133 474
3 472 132 473
3 474 131 472
3 476 475 473
3 473 132 476
3 475 133 473
3 476 38 475
3 478 477 472
3 472 131 478
3 477 132 472
3 478 41 477
3 480 479 474
3 474 133 480
3 479 131 474
3 480 40 479
3 483 481 482
3 482 134 483
3 481 132 482
3 483 126 481
3 477 484 482
3 482 132 477
3 484 134 482
3 477 41 484
3 454 476 481
3 481 126 454
3 476 132 481
3 454 38 476
3 485 457 483
3 483 134 485
3 457 126 483
3 485 9 457
3 488 486 487
3 487 136 488
3 486 131 487
3 488 135 486
3 479 489 487
3 487 131 479
3 489 136 487
3 479 40 489
3 490 478 486
3 486 135 490
3 478 131 486
3 490 41 478
3 492 491 488
3 488 136 492
3 491 135 488
3 492 2 491
3 495 493 494
3 494 127 495
3 493 133 494
3 495 137 493
3 475 462 494
3 494 133 475
3 462 127 494
3 475 38 462
3 496 480 493
3 493 137 496
3 480 133 493
3 496 40 480
3 463 497 495
3 495 127 463
3 497 137 495
3 463 10 497
3 500 498 499
3 499 140 500
3 498 139 499
3 500 138 498
3 502 501 499
3 499 139 502
3 501 140 499
3 502 33 501
3 504 503 498
3 498 138 504
3 503 139 498
3 504 13 503
3 506 505 500
3 500 140 506
3 505 138 500
3 506 23 505
3 509 507 508
3 508 47 509
3 507 139 508
3 509 110 507
3 503 182 508
3 508 139 503
3 182 47 508
3 503 13 182
3 398 502 507
3 507 110 398
3 502 139 507
3 398 33 502
3 183 401 509
3 509 47 183
3 401 110 509
3 183 8 401
3 512 510 511
3 511 79 512
3 510 138 511
3 512 46 510
3 505 294 511
3 511 138 505
3 294 79 511
3 505 23 294
3 174 504 510
3 510 46 174
3 504 138 510
3 174 13 504
3 295 177 512
3 512 79 295
3 177 46 512
3 295 4 177
3 515 513 514
3 514 111 515
3 513 140 514
3 515 78 513
3 501 406 514
3 514 140 501
3 406 111 514
3 501 33 406
3 286 506 513
3 513 78 286
3 506 140 513
3 286 23 506
3 407 289 515
3 515 111 407
3 289 78 515
3 407 0 289
3 518 516 517
3 517 143 518
3 516 142 517
3 518 141 516
3 520 519 517
3 517 142 520
3 519 143 517
3 520 19 519
3 522 521 516
3 516 141 522
3 521 142 516
3 522 32 521
3 524 523 518
3 518 143 524
3 523 141 518
3 524 26 523
3 527 525 526
3 526 113 527
3 525 142 526
3 527 66 525
3 521 413 526
3 526 142 521
3 413 113 526
3 521 32 413
3 244 520 525
3 525 66 244
3 520 142 525
3 244 19 520
3 414 247 527
3 527 113 414
3 247 66 527
3 414 11 247
3 530 528 529
3 529 86 530
3 528 141 529
3 530 112 528
3 523 316 529
3 529 141 523
3 316 86 529
3 523 26 316
3 405 522 528
3 528 112 405
3 522 141 528
3 405 32 522
3 317 408 530
3 530 86 317
3 408 112 530
3 317 0 408
3 533 531 532
3 532 61 533
3 531 143 532
3 533 89 531
3 519 231 532
3 532 143 519
3 231 61 532
3 519 19 231
3 326 524 531
3 531 89 326
3 524 143 531
3 326 26 524
3 232 329 533
3 533 61 232
3 329 89 533
3 232 5 329
3 536 534 535
3 535 146 536
3 534 145 535
3 536 144 534
3 538 537 535
3 535 145 538
3 537 146 535
3 538 22 537
3 540 539 534
3 534 144 540
3 539 145 534
3 540 16 539
3 542 541 536
3 536 146 542
3 541 144 536
3 542 39 541
3 545 543 544
3 544 54 545
3 543 145 544
3 545 80 543
3 539 204 544
3 544 145 539
3 204 54 544
3 539 16 204
3 293 538 543
3 543 80 293
3 538 145 543
3 293 22 538
3 205 296 545
3 545 54 205
3 296 80 545
3 205 4 296
3 548 546 547
3 547 125 548
3 546 144 547
3 548 57 546
3 541 455 547
3 547 144 541
3 455 125 547
3 541 39 455
3 214 540 546
3 546 57 214
3 540 144 546
3 214 16 540
3 456 217 548
3 548 125 456
3 217 57 548
3 456 9 217
3 551 549 550
3 550 81 551
3 549 146 550
3 551 130 549
3 537 301 550
3 550 146 537
3 301 81 550
3 537 22 301
3 468 542 549
3 549 130 468
3 542 146 549
3 468 39 542
3 302 471 551
3 551 81 302
3 471 130 551
3 302 3 471
3 554 552 553
3 553 149 554
3 552 148 553
3 554 147 552
3 556 555 553
3 553 148 556
3 555 149 553
3 556 21 555
3 558 557 552
3 552 147 558
3 557 148 552
3 558 25 557
3 560 559 554
3 554 149 560
3 559 147 554
3 560 37 559
3 563 561 562
3 562 88 563
3 561 148 562
3 563 70 561
3 557 327 562
3 562 148 557
3 327 88 562
3 557 25 327
3 260 556 561
3 561 70 260
3 556 148 561
3 260 21 556
3 328 261 563
3 563 88 328
3 261 70 563
3 328 5 261
3 566 564 565
3 565 129 566
3 564 147 565
3 566 87 564
3 559 469 565
3 565 147 559
3 469 129 565
3 559 37 469
3 321 558 564
3 564 87 321
3 558 147 564
3 321 25 558
3 470 322 566
3 566 129 470
3 322 87 566
3 470 3 322
3 569 567 568
3 568 71 569
3 567 149 568
3 569 128 567
3 555 266 568
3 568 149 555
3 266 71 568
3 555 21 266
3 461 560 567
3 567 128 461
3 560 149 567
3 461 37 560
3 267 464 569
3 569 71 267
3 464 128 569
3 267 10 464
3 572 570 571
3 571 152 572
3 570 151 571
3 572 150 570
3 574 573 571
3 571 151 574
3 573 152 571
3 574 27 573
3 576 575 570
3 570 150 576
3 575 151 570
3 576 12 575
3 578 577 572
3 572 152 578
3 577 150 572
3 578 36 577
3 581 579 580
3 580 49 581
3 579 151 580
3 581 96 579
3 575 189 580
3 580 151 575
3 189 49 580
3 575 12 189
3 349 574 579
3 579 96 349
3 574 151 579
3 349 27 574
3 190 352 581
3 581 49 190
3 352 96 581
3 190 7 352
3 584 582 583
3 583 118 584
3 582 150 583
3 584 48 582
3 577 428 583
3 583 150 577
3 428 118 583
3 577 36 428
3 181 576 582
3 582 48 181
3 576 150 582
3 181 12 576
3 429 184 584
3 584 118 429
3 184 48 584
3 429 8 184
3 587 585 586
3 586 97 587
3 585 152 586
3 587 121 585
3 573 357 586
3 586 152 573
3 357 97 586
3 573 27 357
3 438 578 585
3 585 121 438
3 578 152 585
3 438 36 578
3 358 441 587
3 587 97 358
3 441 121 587
3 358 1 441
3 590 588 589
3 589 155 590
3 588 154 589
3 590 153 588
3 592 591 589
3 589 154 592
3 591 155 589
3 592 17 591
3 594 593 588
3 588 153 594
3 593 154 588
3 594 30 593
3 596 595 590
3 590 155 596
3 595 153 590
3 596 35 595
3 599 597 598
3 598 104 599
3 597 154 598
3 599 64 597
3 593 383 598
3 598 154 593
3 383 104 598
3 593 30 383
3 237 592 597
3 597 64 237
3 592 154 597
3 237 17 592
3 384 240 599
3 599 104 384
3 240 64 599
3 384 6 240
3 602 600 601
3 601 120 602
3 600 153 601
3 602 103 600
3 595 439 601
3 601 153 595
3 439 120 601
3 595 35 439
3 377 594 600
3 600 103 377
3 594 153 600
3 377 30 594
3 440 378 602
3 602 120 440
3 378 103 602
3 440 1 378
3 605 603 604
3 604 65 605
3 603 155 604
3 605 119 603
3 591 245 604
3 604 155 591
3 245 65 604
3 591 17 245
3 433 596 603
3 603 119 433
3 596 155 603
3 433 35 596
3 246 434 605
3 605 65 246
3 434 119 605
3 246 11 434
3 608 606 607
3 607 158 608
3 606 157 607
3 608 156 606
3 610 609 607
3 607 157 610
3 609 158 607
3 610 15 609
3 612 611 606
3 606 156 612
3 611 157 606
3 612 28 611
3 614 613 608
3 608 158 614
3 613 156 608
3 614 41 613
3 617 615 616
3 616 95 617
3 615 157 616
3 617 55 615
3 611 350 616
3 616 157 611
3 350 95 616
3 611 28 350
3 209 610 615
3 615 55 209
3 610 157 615
3 209 15 610
3 351 210 617
3 617 95 351
3 210 55 617
3 351 7 210
3 620 618 619
3 619 135 620
3 618 156 619
3 620 94 618
3 613 490 619
3 619 156 613
3 490 135 619
3 613 41 490
3 342 612 618
3 618 94 342
3 612 156 618
3 342 28 612
3 491 345 620
3 620 135 491
3 345 94 620
3 491 2 345
3 623 621 622
3 622 56 623
3 621 158 622
3 623 134 621
3 609 215 622
3 622 158 609
3 215 56 622
3 609 15 215
3 484 614 621
3 621 134 484
3 614 158 621
3 484 41 614
3 216 485 623
3 623 56 216
3 485 134 623
3 216 9 485
3 626 624 625
3 625 161 626
3 624 160 625
3 626 159 624
3 628 627 625
3 625 160 628
3 627 161 625
3 628 31 627
3 630 629 624
3 624 159 630
3 629 160 624
3 630 20 629
3 632 631 626
3 626 161 632
3 631 159 626
3 632 40 631
3 635 633 634
3 634 73 635
3 633 160 634
3 635 105 633
3 629 272 634
3 634 160 629
3 272 73 634
3 629 20 272
3 382 628 633
3 633 105 382
3 628 160 633
3 382 31 628
3 273 385 635
3 635 73 273
3 385 105 635
3 273 6 385
3 638 636 637
3 637 137 638
3 636 159 637
3 638 72 636
3 631 496 637
3 637 159 631
3 496 137 637
3 631 40 496
3 265 630 636
3 636 72 265
3 630 159 636
3 265 20 630
3 497 268 638
3 638 137 497
3 268 72 638
3 497 10 268
3 641 639 640
3 640 102 641
3 639 161 640
3 641 136 639
3 627 372 640
3 640 161 627
3 372 102 640
3 627 31 372
3 489 632 639
3 639 136 489
3 632 161 639
3 489 40 632
3 373 492 641
3 641 102 373
3 492 136 641
3 373 2 492
