# vtk DataFile Version 3.0
this file was written using fslvtkio
ASCII
DATASET POLYDATA
POINTS 642 float
160.569 121.124 138.842
144.375 120.281 137.358
145.583 121.9 131.658
160.41 124.093 132.151
157.204 117.047 130.216
157.833 129.926 138.658
147.928 127.576 137.524
148.146 115.655 129.772
152.31 116.522 136.908
153.997 119.681 127.405
153.522 124.739 133.999
152.382 123.962 140.738
149.749 114.961 133.454
155.207 115.67 133.822
153.419 115.225 128.385
150.975 117.068 126.265
157.186 117.931 125.281
149.605 126.677 140.716
152.414 130.144 138.66
155.421 127.832 141.587
150.799 126.544 135.962
155.771 128.434 135.871
159.656 120.265 130.426
159.356 118.751 134.876
161.642 123.23 135.785
160.559 127.931 135.412
160.37 126.035 139.868
144.899 117.349 133.708
144.748 118.71 129.399
141.923 122.292 134.299
145.291 124.201 137.983
146.168 124.485 134.695
156.927 122.983 140.418
156.714 118.418 138.138
152.175 119.831 139.26
148.052 121.906 139.569
147.591 117.138 137.328
157.253 124.679 133.334
153.529 122.171 130.715
157.877 121.596 128.808
149.569 123.095 132.86
149.167 120.16 128.9
152.651 115.008 133.526
154.111 115.402 131.213
151.657 114.977 131.124
155.561 115.876 129.104
156.339 116.274 131.959
153.799 115.715 135.644
150.943 115.409 135.358
148.78 115.032 131.516
150.813 114.974 128.781
152.351 115.167 126.166
155.63 115.784 126.405
154.344 116.972 124.199
157.372 117.198 127.723
149.32 116.043 127.64
152.596 118.315 126.361
155.629 119.233 125.503
150.912 128.896 140.161
153.795 129.739 140.772
152.399 127.609 141.4
156.783 129.243 140.593
155.109 130.428 138.74
149.997 129.164 138.093
148.67 127.479 139.311
150.996 125.389 141.11
153.847 125.898 141.252
153.178 127.498 136.133
154.061 129.732 136.983
151.466 128.881 136.942
156.95 129.944 136.853
154.585 126.234 135.29
152.259 125.522 135.141
149.243 127.455 136.513
159.636 119.587 132.71
161.04 120.663 135.243
160.745 121.665 133.357
161.665 122.194 137.503
160.267 119.651 137.036
158.124 117.93 132.518
158.559 118.525 130.104
160.482 122.128 131.28
161.492 123.867 133.729
161.577 125.752 135.625
161.733 124.748 137.949
160.956 127.355 137.754
160.888 123.44 139.65
160.624 125.993 133.689
159.452 129.399 137.025
159.186 128.267 139.612
144.051 118.006 131.552
142.364 120.437 131.561
142.847 119.637 133.942
143.253 122.466 132.405
144.645 120.812 130.255
146.169 116.778 129.306
146.264 116.242 131.833
144.332 118.772 135.648
142.74 121.218 136.162
142.775 123.621 136.417
143.513 123.903 134.232
144.921 125.239 136.15
145.568 123.21 133.16
144.318 122.292 137.869
146.484 126.202 138.173
147.117 126.148 136.103
156.945 120.303 139.67
154.566 119.024 139.069
154.737 121.336 139.935
152.165 118.108 138.151
154.52 117.386 137.58
158.864 119.408 138.62
158.96 121.877 139.868
154.588 123.609 140.599
152.332 121.927 140.073
149.99 120.705 139.53
149.808 118.628 138.34
147.685 119.576 138.511
149.905 116.656 137.102
150.222 122.928 140.322
145.943 120.975 138.655
145.648 118.468 137.473
155.57 123.232 131.916
155.808 121.996 129.817
157.65 123.043 131.121
156.007 120.509 127.789
153.803 120.792 129.027
153.56 123.311 132.582
155.392 124.695 133.832
158.935 124.57 132.538
159.361 122.731 130.398
149.342 121.654 130.806
151.436 121.22 129.772
151.572 122.402 131.875
151.632 119.599 128.229
147.12 120.929 130.256
147.56 122.321 132.147
151.596 123.916 133.488
157.26 117.194 134.246
156.048 116.891 136.167
158.282 118.166 136.69
158.773 124.506 140.671
156.219 125.452 141.08
158.055 127.042 140.975
157.72 120.196 126.492
158.705 118.858 127.696
159.481 121.061 128.937
158.844 126.239 134.359
158.213 128.618 135.378
156.653 126.247 135.023
148.349 115.622 135.637
146.993 115.577 133.721
145.87 116.826 135.8
146.728 123.209 138.99
147.69 125.371 139.273
148.887 124.275 140.376
146.836 119.428 128.732
147.708 117.597 127.571
149.845 118.617 127.479
150.179 124.723 134.511
148.588 125.325 135.383
147.861 123.768 133.843
153.48 115.009 132.472
152.971 115.074 131.186
152.158 114.802 132.373
152.531 114.984 129.934
153.644 115.232 129.897
154.667 115.309 132.546
154.013 115.194 133.578
151.245 114.978 133.416
150.82 114.83 132.267
154.737 115.525 130.167
155.226 115.736 131.608
155.738 116.093 130.615
155.777 115.81 132.865
154.54 115.428 128.735
156.422 116.421 129.672
156.721 116.713 131.05
153.23 115.31 134.487
151.745 115.219 134.378
152.414 115.461 135.334
150.337 115.136 134.425
154.45 115.649 134.716
153.024 115.985 136.349
151.694 115.787 136.205
150.314 114.951 131.278
151.258 114.976 130.035
149.905 114.977 130.285
152.181 114.97 128.587
149.306 114.873 132.45
148.514 115.29 130.61
149.468 115.183 129.227
154.077 115.439 126.17
155.215 116.056 124.84
153.351 115.835 124.867
156.084 117.276 124.161
156.441 116.695 125.52
154.545 115.387 127.395
153.032 115.006 127.237
151.677 116.105 125.716
152.557 116.939 124.897
156.633 116.43 126.889
155.595 115.753 127.862
156.589 116.432 128.471
157.39 117.393 126.379
157.244 117.131 129.018
151.595 114.875 127.47
150.879 115.578 126.78
150.093 115.337 128.078
150.155 116.45 126.691
148.655 115.752 128.643
153.366 117.869 124.921
155.184 118.228 124.418
154.192 118.746 125.559
156.581 118.74 124.855
151.782 117.695 126.069
153.414 118.966 126.838
154.814 119.446 126.455
152.251 129.508 140.596
153.06 128.735 141.395
151.57 128.421 141.111
153.887 127.893 141.539
154.54 128.848 141.412
153.002 130.036 139.76
151.651 129.636 139.423
150.34 127.921 140.647
151.007 127.32 141.08
155.288 129.6 140.771
154.399 130.175 139.794
155.797 129.964 139.728
153.756 130.405 138.853
156.08 128.647 141.366
157.156 129.575 139.533
156.429 130.162 138.698
150.445 129.093 139.119
149.764 128.235 139.831
149.298 128.442 138.753
149.15 127.153 140.095
151.138 129.739 138.457
148.885 128.434 137.83
148.206 127.761 138.425
151.654 126.555 141.31
153.173 126.834 141.452
152.425 125.768 141.214
154.602 126.896 141.477
150.364 126.164 141.066
151.777 124.72 140.911
153.074 124.932 141.059
153.636 128.621 136.458
152.728 129.439 136.994
152.35 128.123 136.506
151.84 129.775 137.712
153.202 130.207 137.875
154.929 129.121 136.476
154.501 128.018 136.065
151.946 127.081 136.129
151.203 127.685 136.435
154.493 130.291 137.854
155.429 129.961 136.959
155.986 130.321 137.783
156.313 129.42 136.252
157.386 130.146 137.757
153.925 126.965 135.72
152.626 126.539 135.702
153.396 125.871 135.28
151.559 126.067 135.562
155.169 127.326 135.633
154.068 125.378 134.803
152.953 125.062 134.654
150.333 128.259 136.682
150.663 129.306 137.441
149.523 128.536 137.199
150.06 126.992 136.222
148.552 127.699 136.976
160.321 120.098 133.901
160.975 121.177 134.134
160.147 120.595 132.936
161.402 122.372 134.475
161.504 121.835 135.461
160.295 119.658 135.012
159.547 119.191 133.802
159.753 119.964 131.593
160.246 120.929 131.924
161.471 121.312 136.414
160.726 120.158 136.206
161.123 120.856 137.211
159.879 119.181 135.985
161.765 122.655 136.557
161.218 121.665 138.251
160.599 120.4 137.947
158.919 118.783 132.649
159.107 119.07 131.395
158.339 118.258 131.378
159.15 119.39 130.231
158.744 118.338 133.693
157.568 117.495 131.33
157.928 117.703 130.169
160.673 121.892 132.213
161.311 122.671 133.59
161.081 122.987 132.559
161.569 123.57 134.736
160.121 121.141 130.914
160.57 123.167 131.793
161.174 124.116 132.865
161.618 125.253 136.783
161.354 126.021 137.837
161.449 126.542 136.676
160.753 126.708 138.841
161.277 125.482 138.975
161.781 124.042 136.805
161.614 124.509 135.726
161.207 126.943 135.563
161.03 127.793 136.568
161.406 124.176 138.794
161.846 123.431 137.598
161.424 122.883 138.521
160.766 124.751 139.846
160.764 122.319 139.257
161.564 124.806 134.613
161.336 126.073 134.6
161.316 125.059 133.611
160.656 126.911 134.625
160.645 125.056 132.938
160.377 128.448 137.429
160.176 127.859 138.652
159.577 128.996 138.402
159.935 127.247 139.79
160.164 128.709 136.215
158.734 129.777 137.895
158.57 129.249 139.161
142.996 119.183 131.527
142.324 120.024 132.835
143.289 118.813 132.762
142.159 120.879 134.102
141.82 121.307 132.976
143.381 119.558 130.517
144.037 118.325 130.374
144.318 117.792 132.68
143.756 118.448 133.726
142.578 121.584 131.984
143.263 120.676 130.732
143.645 121.68 131.268
144.384 119.878 129.817
142.287 122.409 133.165
144.352 122.228 131.918
144.954 121.551 131.007
144.978 117.358 130.455
145.105 117.134 131.658
146.008 116.5 130.651
145.355 116.769 132.754
145.315 117.64 129.249
147.183 116.131 129.576
147.197 115.826 130.864
143.627 119.187 134.752
142.683 120.368 135.032
143.429 119.915 135.857
142.151 121.68 135.28
144.47 118.042 134.624
144.207 119.558 136.576
143.491 120.757 136.813
142.705 124.027 135.195
144.14 124.641 135.182
143.706 124.576 136.269
145.378 124.992 135.32
144.801 124.355 134.437
142.453 123.222 134.086
142.056 122.976 135.387
143.828 124.024 137.276
144.811 124.864 137.191
144.507 123.543 133.673
143.221 123.1 133.383
144.387 122.797 132.759
145.779 123.802 133.95
145.437 122.516 132.392
142.411 122.439 136.359
143.345 123.018 137.307
143.188 121.874 137.166
144.598 123.318 137.925
144.118 121.273 137.685
145.656 125.66 137.106
146.026 125.722 136.09
146.528 126.459 137.019
146.605 125.241 135.427
145.858 125.198 138.084
147.123 127.043 137.904
147.497 126.998 136.79
155.753 119.635 139.357
154.637 120.066 139.592
155.829 120.779 139.86
153.549 120.521 139.606
153.434 119.505 139.249
155.681 118.664 138.678
156.804 119.266 139.016
156.933 121.584 140.034
155.877 122.077 140.195
153.371 118.61 138.604
154.537 118.184 138.317
153.334 117.779 137.898
155.625 117.917 137.822
152.216 118.969 138.735
152.192 117.226 137.547
153.385 116.867 137.234
157.966 119.786 139.29
158.003 121.074 139.803
159.036 120.492 139.335
157.925 122.433 140.181
157.769 118.885 138.458
159.888 120.08 138.662
159.902 121.387 139.46
154.721 122.49 140.292
153.524 121.657 139.983
153.465 122.76 140.419
152.336 120.857 139.683
155.79 123.347 140.485
153.426 123.846 140.664
152.299 122.958 140.423
149.923 119.705 138.902
148.698 119.066 138.457
148.836 120.198 139.037
147.564 118.328 137.976
148.643 117.882 137.902
151.003 119.276 138.772
151.07 120.253 139.325
148.908 121.195 139.561
147.899 120.697 139.051
149.77 117.579 137.764
151.056 118.421 138.198
151.015 117.337 137.644
148.747 116.852 137.262
151.136 116.477 137.033
151.236 121.243 139.811
150.051 121.727 139.947
151.222 122.384 140.133
149.119 122.323 140.028
151.357 123.485 140.543
146.819 120.251 138.635
146.601 118.904 138.127
145.648 119.646 138.24
146.564 117.753 137.5
147.133 121.425 139.021
145.032 120.586 138.085
144.926 119.327 137.407
155.69 122.561 130.927
156.775 122.51 130.385
156.622 123.124 131.605
157.731 122.41 129.899
156.874 121.907 129.257
154.776 122.119 130.29
154.613 122.654 131.222
156.524 123.834 132.588
157.345 123.716 132.278
156.002 121.227 128.887
154.887 121.468 129.324
154.924 120.553 128.458
153.783 121.674 129.8
156.964 121.003 128.325
154.97 119.988 127.48
153.845 120.057 128.224
154.611 123.269 132.223
155.566 123.951 132.886
154.556 124.06 133.112
156.332 124.623 133.581
153.627 122.803 131.612
153.513 124.096 133.341
154.437 124.747 133.92
158.276 123.652 131.905
158.498 122.913 130.72
159.115 123.476 131.612
158.636 122.222 129.611
158.058 124.611 132.891
159.726 124.338 132.272
159.892 123.304 131.348
150.376 121.459 130.235
151.519 121.955 130.759
150.504 122.072 131.326
152.556 122.35 131.306
152.506 121.709 130.276
150.331 120.661 129.305
149.274 120.932 129.885
149.489 122.242 131.877
150.517 122.648 132.303
152.696 121.111 129.414
151.538 120.495 129.004
152.73 120.194 128.644
150.407 119.879 128.551
152.818 119.529 127.781
148.282 121.273 130.503
148.427 121.878 131.55
147.299 121.572 131.177
148.598 122.69 132.449
148.164 120.597 129.613
146.188 121.409 130.937
146.523 122.092 131.865
151.546 123.084 132.714
152.64 122.788 132.214
152.551 123.693 133.023
150.593 123.456 133.166
152.609 124.344 133.776
156.708 116.919 135.152
157.195 117.56 136.376
157.865 117.705 135.494
157.601 118.248 137.504
156.458 117.639 137.176
155.635 116.199 134.942
156.265 116.289 133.878
158.382 117.953 134.578
158.881 118.407 135.781
155.358 117.149 136.977
154.97 116.235 135.854
154.175 116.549 136.695
156.817 116.579 133.072
157.755 117.518 133.387
157.23 117.138 132.194
159.326 118.78 136.77
158.559 118.8 137.671
159.618 119.428 137.791
157.524 124.983 140.847
157.179 126.28 141.174
158.533 125.813 140.844
156.75 127.455 141.382
155.86 126.625 141.357
156.607 124.25 140.743
157.805 123.791 140.591
159.706 125.254 140.438
159.355 126.62 140.557
155.011 125.712 141.164
155.399 124.51 140.895
154.145 124.708 140.987
158.828 123.192 140.292
159.931 123.981 140.342
159.933 122.624 139.932
158.789 127.744 140.535
157.378 128.178 141.043
158.031 128.916 140.156
158.615 119.477 126.669
159.218 119.917 128.168
158.693 120.588 127.598
159.617 120.595 129.634
159.119 119.566 129.15
158.112 118.315 126.38
157.62 119.147 125.576
157.756 120.85 127.81
158.735 121.455 128.672
158.609 118.791 129.004
158.075 117.996 127.569
157.975 117.851 129.007
156.731 119.741 125.81
156.881 120.333 127.204
155.832 119.884 126.661
159.392 121.945 129.622
159.969 121.411 130.192
160.128 122.48 130.803
158.593 127.474 134.898
157.359 127.443 135.18
157.761 126.245 134.616
156.281 127.43 135.425
156.979 128.552 135.599
159.454 128.405 135.312
159.705 127.261 134.742
158.036 125.426 133.859
156.958 125.372 134.233
157.593 129.465 135.964
158.98 129.24 135.929
158.258 129.816 136.863
159.761 126.295 134.021
158.841 125.39 133.402
159.88 125.378 132.956
155.974 125.358 134.508
155.619 126.285 135.228
154.953 125.371 134.714
147.646 115.504 134.67
146.278 116.161 134.762
147.039 116.07 135.767
145.287 117.043 134.779
145.815 116.392 133.742
148.308 115.034 133.589
149.012 115.281 134.544
147.912 116.276 136.601
146.663 116.806 136.657
146.608 116.055 132.798
147.882 115.23 132.68
147.549 115.562 131.705
149.676 115.493 135.45
149.089 116.039 136.522
150.438 115.823 136.424
145.741 117.572 136.698
145.001 117.711 135.685
144.899 118.529 136.644
147.176 124.321 139.156
148.299 124.918 139.937
147.861 123.663 139.642
149.292 125.562 140.647
148.623 126.031 140.038
146.543 124.773 138.644
145.953 123.719 138.586
147.404 122.563 139.281
148.473 123.039 139.951
148.219 126.469 139.411
147.083 125.758 138.804
147.622 126.836 138.709
145.445 122.758 138.504
146.363 122.124 138.806
145.086 121.625 138.372
149.513 123.559 140.392
149.903 124.888 140.854
150.694 124.133 140.723
147.062 118.575 128.122
148.726 118.187 127.289
148.271 119.068 128.062
150.333 117.911 126.741
149.409 117.26 126.856
146.092 118.015 128.419
145.641 119.138 128.897
148.069 119.773 128.755
149.428 119.375 128.204
148.484 116.682 127.444
146.791 117.122 128.372
147.742 116.322 128.551
145.71 120.037 129.396
147.026 120.27 129.378
145.939 120.775 130.215
150.715 119.024 127.894
151.18 118.373 126.92
152.055 118.867 127.39
149.418 124.999 134.994
148.211 124.484 134.638
149.066 124.174 134.174
146.989 124.095 134.246
147.374 124.834 134.992
149.717 125.961 135.682
150.492 125.661 135.268
149.861 123.779 133.812
148.727 123.482 133.36
147.841 125.672 135.746
148.989 126.333 136.021
148.201 126.799 136.406
151.231 125.153 134.881
150.88 124.259 134.023
152.001 124.69 134.335
147.713 123.19 132.964
146.714 123.497 133.486
146.575 122.773 132.701
POLYGONS 1280  5120
3 164 162 163
3 163 44 164
3 162 43 163
3 164 42 162
3 166 165 163
3 163 43 166
3 165 44 163
3 166 14 165
3 168 167 162
3 162 42 168
3 167 43 162
3 168 13 167
3 170 169 164
3 164 44 170
3 169 42 164
3 170 12 169
3 173 171 172
3 172 46 173
3 171 43 172
3 173 45 171
3 167 174 172
3 172 43 167
3 174 46 172
3 167 13 174
3 175 166 171
3 171 45 175
3 166 43 171
3 175 14 166
3 177 176 173
3 173 46 177
3 176 45 173
3 177 4 176
3 180 178 179
3 179 48 180
3 178 42 179
3 180 47 178
3 169 181 179
3 179 42 169
3 181 48 179
3 169 12 181
3 182 168 178
3 178 47 182
3 168 42 178
3 182 13 168
3 184 183 180
3 180 48 184
3 183 47 180
3 184 8 183
3 187 185 186
3 186 50 187
3 185 44 186
3 187 49 185
3 165 188 186
3 186 44 165
3 188 50 186
3 165 14 188
3 189 170 185
3 185 49 189
3 170 44 185
3 189 12 170
3 191 190 187
3 187 50 191
3 190 49 187
3 191 7 190
3 194 192 193
3 193 53 194
3 192 52 193
3 194 51 192
3 196 195 193
3 193 52 196
3 195 53 193
3 196 16 195
3 198 197 192
3 192 51 198
3 197 52 192
3 198 14 197
3 200 199 194
3 194 53 200
3 199 51 194
3 200 15 199
3 203 201 202
3 202 45 203
3 201 52 202
3 203 54 201
3 197 175 202
3 202 52 197
3 175 45 202
3 197 14 175
3 204 196 201
3 201 54 204
3 196 52 201
3 204 16 196
3 176 205 203
3 203 45 176
3 205 54 203
3 176 4 205
3 208 206 207
3 207 55 208
3 206 51 207
3 208 50 206
3 199 209 207
3 207 51 199
3 209 55 207
3 199 15 209
3 188 198 206
3 206 50 188
3 198 51 206
3 188 14 198
3 210 191 208
3 208 55 210
3 191 50 208
3 210 7 191
3 213 211 212
3 212 57 213
3 211 53 212
3 213 56 211
3 195 214 212
3 212 53 195
3 214 57 212
3 195 16 214
3 215 200 211
3 211 56 215
3 200 53 211
3 215 15 200
3 217 216 213
3 213 57 217
3 216 56 213
3 217 9 216
3 220 218 219
3 219 60 220
3 218 59 219
3 220 58 218
3 222 221 219
3 219 59 222
3 221 60 219
3 222 19 221
3 224 223 218
3 218 58 224
3 223 59 218
3 224 18 223
3 226 225 220
3 220 60 226
3 225 58 220
3 226 17 225
3 229 227 228
3 228 62 229
3 227 59 228
3 229 61 227
3 223 230 228
3 228 59 223
3 230 62 228
3 223 18 230
3 231 222 227
3 227 61 231
3 222 59 227
3 231 19 222
3 233 232 229
3 229 62 233
3 232 61 229
3 233 5 232
3 236 234 235
3 235 64 236
3 234 58 235
3 236 63 234
3 225 237 235
3 235 58 225
3 237 64 235
3 225 17 237
3 238 224 234
3 234 63 238
3 224 58 234
3 238 18 224
3 240 239 236
3 236 64 240
3 239 63 236
3 240 6 239
3 243 241 242
3 242 66 243
3 241 60 242
3 243 65 241
3 221 244 242
3 242 60 221
3 244 66 242
3 221 19 244
3 245 226 241
3 241 65 245
3 226 60 241
3 245 17 226
3 247 246 243
3 243 66 247
3 246 65 243
3 247 11 246
3 250 248 249
3 249 69 250
3 248 68 249
3 250 67 248
3 252 251 249
3 249 68 252
3 251 69 249
3 252 18 251
3 254 253 248
3 248 67 254
3 253 68 248
3 254 21 253
3 256 255 250
3 250 69 256
3 255 67 250
3 256 20 255
3 259 257 258
3 258 70 259
3 257 68 258
3 259 62 257
3 253 260 258
3 258 68 253
3 260 70 258
3 253 21 260
3 230 252 257
3 257 62 230
3 252 68 257
3 230 18 252
3 261 233 259
3 259 70 261
3 233 62 259
3 261 5 233
3 264 262 263
3 263 72 264
3 262 67 263
3 264 71 262
3 255 265 263
3 263 67 255
3 265 72 263
3 255 20 265
3 266 254 262
3 262 71 266
3 254 67 262
3 266 21 254
3 268 267 264
3 264 72 268
3 267 71 264
3 268 10 267
3 271 269 270
3 270 63 271
3 269 69 270
3 271 73 269
3 251 238 270
3 270 69 251
3 238 63 270
3 251 18 238
3 272 256 269
3 269 73 272
3 256 69 269
3 272 20 256
3 239 273 271
3 271 63 239
3 273 73 271
3 239 6 273
3 276 274 275
3 275 76 276
3 274 75 275
3 276 74 274
3 278 277 275
3 275 75 278
3 277 76 275
3 278 24 277
3 280 279 274
3 274 74 280
3 279 75 274
3 280 23 279
3 282 281 276
3 276 76 282
3 281 74 276
3 282 22 281
3 285 283 284
3 284 78 285
3 283 75 284
3 285 77 283
3 279 286 284
3 284 75 279
3 286 78 284
3 279 23 286
3 287 278 283
3 283 77 287
3 278 75 283
3 287 24 278
3 289 288 285
3 285 78 289
3 288 77 285
3 289 0 288
3 292 290 291
3 291 80 292
3 290 74 291
3 292 79 290
3 281 293 291
3 291 74 281
3 293 80 291
3 281 22 293
3 294 280 290
3 290 79 294
3 280 74 290
3 294 23 280
3 296 295 292
3 292 80 296
3 295 79 292
3 296 4 295
3 299 297 298
3 298 82 299
3 297 76 298
3 299 81 297
3 277 300 298
3 298 76 277
3 300 82 298
3 277 24 300
3 301 282 297
3 297 81 301
3 282 76 297
3 301 22 282
3 303 302 299
3 299 82 303
3 302 81 299
3 303 3 302
3 306 304 305
3 305 85 306
3 304 84 305
3 306 83 304
3 308 307 305
3 305 84 308
3 307 85 305
3 308 26 307
3 310 309 304
3 304 83 310
3 309 84 304
3 310 24 309
3 312 311 306
3 306 85 312
3 311 83 306
3 312 25 311
3 315 313 314
3 314 77 315
3 313 84 314
3 315 86 313
3 309 287 314
3 314 84 309
3 287 77 314
3 309 24 287
3 316 308 313
3 313 86 316
3 308 84 313
3 316 26 308
3 288 317 315
3 315 77 288
3 317 86 315
3 288 0 317
3 320 318 319
3 319 87 320
3 318 83 319
3 320 82 318
3 311 321 319
3 319 83 311
3 321 87 319
3 311 25 321
3 300 310 318
3 318 82 300
3 310 83 318
3 300 24 310
3 322 303 320
3 320 87 322
3 303 82 320
3 322 3 303
3 325 323 324
3 324 89 325
3 323 85 324
3 325 88 323
3 307 326 324
3 324 85 307
3 326 89 324
3 307 26 326
3 327 312 323
3 323 88 327
3 312 85 323
3 327 25 312
3 329 328 325
3 325 89 329
3 328 88 325
3 329 5 328
3 332 330 331
3 331 92 332
3 330 91 331
3 332 90 330
3 334 333 331
3 331 91 334
3 333 92 331
3 334 29 333
3 336 335 330
3 330 90 336
3 335 91 330
3 336 28 335
3 338 337 332
3 332 92 338
3 337 90 332
3 338 27 337
3 341 339 340
3 340 94 341
3 339 91 340
3 341 93 339
3 335 342 340
3 340 91 335
3 342 94 340
3 335 28 342
3 343 334 339
3 339 93 343
3 334 91 339
3 343 29 334
3 345 344 341
3 341 94 345
3 344 93 341
3 345 2 344
3 348 346 347
3 347 96 348
3 346 90 347
3 348 95 346
3 337 349 347
3 347 90 337
3 349 96 347
3 337 27 349
3 350 336 346
3 346 95 350
3 336 90 346
3 350 28 336
3 352 351 348
3 348 96 352
3 351 95 348
3 352 7 351
3 355 353 354
3 354 98 355
3 353 92 354
3 355 97 353
3 333 356 354
3 354 92 333
3 356 98 354
3 333 29 356
3 357 338 353
3 353 97 357
3 338 92 353
3 357 27 338
3 359 358 355
3 355 98 359
3 358 97 355
3 359 1 358
3 362 360 361
3 361 101 362
3 360 100 361
3 362 99 360
3 364 363 361
3 361 100 364
3 363 101 361
3 364 31 363
3 366 365 360
3 360 99 366
3 365 100 360
3 366 29 365
3 368 367 362
3 362 101 368
3 367 99 362
3 368 30 367
3 371 369 370
3 370 93 371
3 369 100 370
3 371 102 369
3 365 343 370
3 370 100 365
3 343 93 370
3 365 29 343
3 372 364 369
3 369 102 372
3 364 100 369
3 372 31 364
3 344 373 371
3 371 93 344
3 373 102 371
3 344 2 373
3 376 374 375
3 375 103 376
3 374 99 375
3 376 98 374
3 367 377 375
3 375 99 367
3 377 103 375
3 367 30 377
3 356 366 374
3 374 98 356
3 366 99 374
3 356 29 366
3 378 359 376
3 376 103 378
3 359 98 376
3 378 1 359
3 381 379 380
3 380 105 381
3 379 101 380
3 381 104 379
3 363 382 380
3 380 101 363
3 382 105 380
3 363 31 382
3 383 368 379
3 379 104 383
3 368 101 379
3 383 30 368
3 385 384 381
3 381 105 385
3 384 104 381
3 385 6 384
3 388 386 387
3 387 108 388
3 386 107 387
3 388 106 386
3 390 389 387
3 387 107 390
3 389 108 387
3 390 34 389
3 392 391 386
3 386 106 392
3 391 107 386
3 392 33 391
3 394 393 388
3 388 108 394
3 393 106 388
3 394 32 393
3 397 395 396
3 396 110 397
3 395 107 396
3 397 109 395
3 391 398 396
3 396 107 391
3 398 110 396
3 391 33 398
3 399 390 395
3 395 109 399
3 390 107 395
3 399 34 390
3 401 400 397
3 397 110 401
3 400 109 397
3 401 8 400
3 404 402 403
3 403 112 404
3 402 106 403
3 404 111 402
3 393 405 403
3 403 106 393
3 405 112 403
3 393 32 405
3 406 392 402
3 402 111 406
3 392 106 402
3 406 33 392
3 408 407 404
3 404 112 408
3 407 111 404
3 408 0 407
3 411 409 410
3 410 114 411
3 409 108 410
3 411 113 409
3 389 412 410
3 410 108 389
3 412 114 410
3 389 34 412
3 413 394 409
3 409 113 413
3 394 108 409
3 413 32 394
3 415 414 411
3 411 114 415
3 414 113 411
3 415 11 414
3 418 416 417
3 417 117 418
3 416 116 417
3 418 115 416
3 420 419 417
3 417 116 420
3 419 117 417
3 420 36 419
3 422 421 416
3 416 115 422
3 421 116 416
3 422 34 421
3 424 423 418
3 418 117 424
3 423 115 418
3 424 35 423
3 427 425 426
3 426 109 427
3 425 116 426
3 427 118 425
3 421 399 426
3 426 116 421
3 399 109 426
3 421 34 399
3 428 420 425
3 425 118 428
3 420 116 425
3 428 36 420
3 400 429 427
3 427 109 400
3 429 118 427
3 400 8 429
3 432 430 431
3 431 119 432
3 430 115 431
3 432 114 430
3 423 433 431
3 431 115 423
3 433 119 431
3 423 35 433
3 412 422 430
3 430 114 412
3 422 115 430
3 412 34 422
3 434 415 432
3 432 119 434
3 415 114 432
3 434 11 415
3 437 435 436
3 436 121 437
3 435 117 436
3 437 120 435
3 419 438 436
3 436 117 419
3 438 121 436
3 419 36 438
3 439 424 435
3 435 120 439
3 424 117 435
3 439 35 424
3 441 440 437
3 437 121 441
3 440 120 437
3 441 1 440
3 444 442 443
3 443 124 444
3 442 123 443
3 444 122 442
3 446 445 443
3 443 123 446
3 445 124 443
3 446 39 445
3 448 447 442
3 442 122 448
3 447 123 442
3 448 38 447
3 450 449 444
3 444 124 450
3 449 122 444
3 450 37 449
3 453 451 452
3 452 126 453
3 451 123 452
3 453 125 451
3 447 454 452
3 452 123 447
3 454 126 452
3 447 38 454
3 455 446 451
3 451 125 455
3 446 123 451
3 455 39 446
3 457 456 453
3 453 126 457
3 456 125 453
3 457 9 456
3 460 458 459
3 459 128 460
3 458 122 459
3 460 127 458
3 449 461 459
3 459 122 449
3 461 128 459
3 449 37 461
3 462 448 458
3 458 127 462
3 448 122 458
3 462 38 448
3 464 463 460
3 460 128 464
3 463 127 460
3 464 10 463
3 467 465 466
3 466 130 467
3 465 124 466
3 467 129 465
3 445 468 466
3 466 124 445
3 468 130 466
3 445 39 468
3 469 450 465
3 465 129 469
3 450 124 465
3 469 37 450
3 471 470 467
3 467 130 471
3 470 129 467
3 471 3 470
3 474 472 473
3 473 133 474
3 472 132 473
3 474 131 472
3 476 475 473
3 473 132 476
3 475 133 473
3 476 38 475
3 478 477 472
3 472 131 478
3 477 132 472
3 478 41 477
3 480 479 474
3 474 133 480
3 479 131 474
3 480 40 479
3 483 481 482
3 482 134 483
3 481 132 482
3 483 126 481
3 477 484 482
3 482 132 477
3 484 134 482
3 477 41 484
3 454 476 481
3 481 126 454
3 476 132 481
3 454 38 476
3 485 457 483
3 483 134 485
3 457 126 483
3 485 9 457
3 488 486 487
3 487 136 488
3 486 131 487
3 488 135 486
3 479 489 487
3 487 131 479
3 489 136 487
3 479 40 489
3 490 478 486
3 486 135 490
3 478 131 486
3 490 41 478
3 492 491 488
3 488 136 492
3 491 135 488
3 492 2 491
3 495 493 494
3 494 127 495
3 493 133 494
3 495 137 493
3 475 462 494
3 494 133 475
3 462 127 494
3 475 38 462
3 496 480 493
3 493 137 496
3 480 133 493
3 496 40 480
3 463 497 495
3 495 127 463
3 497 137 495
3 463 10 497
3 500 498 499
3 499 140 500
3 498 139 499
3 500 138 498
3 502 501 499
3 499 139 502
3 501 140 499
3 502 33 501
3 504 503 498
3 498 138 504
3 503 139 498
3 504 13 503
3 506 505 500
3 500 140 506
3 505 138 500
3 506 23 505
3 509 507 508
3 508 47 509
3 507 139 508
3 509 110 507
3 503 182 508
3 508 139 503
3 182 47 508
3 503 13 182
3 398 502 507
3 507 110 398
3 502 139 507
3 398 33 502
3 183 401 509
3 509 47 183
3 401 110 509
3 183 8 401
3 512 510 511
3 511 79 512
3 510 138 511
3 512 46 510
3 505 294 511
3 511 138 505
3 294 79 511
3 505 23 294
3 174 504 510
3 510 46 174
3 504 138 510
3 174 13 504
3 295 177 512
3 512 79 295
3 177 46 512
3 295 4 177
3 515 513 514
3 514 111 515
3 513 140 514
3 515 78 513
3 501 406 514
3 514 140 501
3 406 111 514
3 501 33 406
3 286 506 513
3 513 78 286
3 506 140 513
3 286 23 506
3 407 289 515
3 515 111 407
3 289 78 515
3 407 0 289
3 518 516 517
3 517 143 518
3 516 142 517
3 518 141 516
3 520 519 517
3 517 142 520
3 519 143 517
3 520 19 519
3 522 521 516
3 516 141 522
3 521 142 516
3 522 32 521
3 524 523 518
3 518 143 524
3 523 141 518
3 524 26 523
3 527 525 526
3 526 113 527
3 525 142 526
3 527 66 525
3 521 413 526
3 526 142 521
3 413 113 526
3 521 32 413
3 244 520 525
3 525 66 244
3 520 142 525
3 244 19 520
3 414 247 527
3 527 113 414
3 247 66 527
3 414 11 247
3 530 528 529
3 529 86 530
3 528 141 529
3 530 112 528
3 523 316 529
3 529 141 523
3 316 86 529
3 523 26 316
3 405 522 528
3 528 112 405
3 522 141 528
3 405 32 522
3 317 408 530
3 530 86 317
3 408 112 530
3 317 0 408
3 533 531 532
3 532 61 533
3 531 143 532
3 533 89 531
3 519 231 532
3 532 143 519
3 231 61 532
3 519 19 231
3 326 524 531
3 531 89 326
3 524 143 531
3 326 26 524
3 232 329 533
3 533 61 232
3 329 89 533
3 232 5 329
3 536 534 535
3 535 146 536
3 534 145 535
3 536 144 534
3 538 537 535
3 535 145 538
3 537 146 535
3 538 22 537
3 540 539 534
3 534 144 540
3 539 145 534
3 540 16 539
3 542 541 536
3 536 146 542
3 541 144 536
3 542 39 541
3 545 543 544
3 544 54 545
3 543 145 544
3 545 80 543
3 539 204 544
3 544 145 539
3 204 54 544
3 539 16 204
3 293 538 543
3 543 80 293
3 538 145 543
3 293 22 538
3 205 296 545
3 545 54 205
3 296 80 545
3 205 4 296
3 548 546 547
3 547 125 548
3 546 144 547
3 548 57 546
3 541 455 547
3 547 144 541
3 455 125 547
3 541 39 455
3 214 540 546
3 546 57 214
3 540 144 546
3 214 16 540
3 456 217 548
3 548 125 456
3 217 57 548
3 456 9 217
3 551 549 550
3 550 81 551
3 549 146 550
3 551 130 549
3 537 301 550
3 550 146 537
3 301 81 550
3 537 22 301
3 468 542 549
3 549 130 468
3 542 146 549
3 468 39 542
3 302 471 551
3 551 81 302
3 471 130 551
3 302 3 471
3 554 552 553
3 553 149 554
3 552 148 553
3 554 147 552
3 556 555 553
3 553 148 556
3 555 149 553
3 556 21 555
3 558 557 552
3 552 147 558
3 557 148 552
3 558 25 557
3 560 559 554
3 554 149 560
3 559 147 554
3 560 37 559
3 563 561 562
3 562 88 563
3 561 148 562
3 563 70 561
3 557 327 562
3 562 148 557
3 327 88 562
3 557 25 327
3 260 556 561
3 561 70 260
3 556 148 561
3 260 21 556
3 328 261 563
3 563 88 328
3 261 70 563
3 328 5 261
3 566 564 565
3 565 129 566
3 564 147 565
3 566 87 564
3 559 469 565
3 565 147 559
3 469 129 565
3 559 37 469
3 321 558 564
3 564 87 321
3 558 147 564
3 321 25 558
3 470 322 566
3 566 129 470
3 322 87 566
3 470 3 322
3 569 567 568
3 568 71 569
3 567 149 568
3 569 128 567
3 555 266 568
3 568 149 555
3 266 71 568
3 555 21 266
3 461 560 567
3 567 128 461
3 560 149 567
3 461 37 560
3 267 464 569
3 569 71 267
3 464 128 569
3 267 10 464
3 572 570 571
3 571 152 572
3 570 151 571
3 572 150 570
3 574 573 571
3 571 151 574
3 573 152 571
3 574 27 573
3 576 575 570
3 570 150 576
3 575 151 570
3 576 12 575
3 578 577 572
3 572 152 578
3 577 150 572
3 578 36 577
3 581 579 580
3 580 49 581
3 579 151 580
3 581 96 579
3 575 189 580
3 580 151 575
3 189 49 580
3 575 12 189
3 349 574 579
3 579 96 349
3 574 151 579
3 349 27 574
3 190 352 581
3 581 49 190
3 352 96 581
3 190 7 352
3 584 582 583
3 583 118 584
3 582 150 583
3 584 48 582
3 577 428 583
3 583 150 577
3 428 118 583
3 577 36 428
3 181 576 582
3 582 48 181
3 576 150 582
3 181 12 576
3 429 184 584
3 584 118 429
3 184 48 584
3 429 8 184
3 587 585 586
3 586 97 587
3 585 152 586
3 587 121 585
3 573 357 586
3 586 152 573
3 357 97 586
3 573 27 357
3 438 578 585
3 585 121 438
3 578 152 585
3 438 36 578
3 358 441 587
3 587 97 358
3 441 121 587
3 358 1 441
3 590 588 589
3 589 155 590
3 588 154 589
3 590 153 588
3 592 591 589
3 589 154 592
3 591 155 589
3 592 17 591
3 594 593 588
3 588 153 594
3 593 154 588
3 594 30 593
3 596 595 590
3 590 155 596
3 595 153 590
3 596 35 595
3 599 597 598
3 598 104 599
3 597 154 598
3 599 64 597
3 593 383 598
3 598 154 593
3 383 104 598
3 593 30 383
3 237 592 597
3 597 64 237
3 592 154 597
3 237 17 592
3 384 240 599
3 599 104 384
3 240 64 599
3 384 6 240
3 602 600 601
3 601 120 602
3 600 153 601
3 602 103 600
3 595 439 601
3 601 153 595
3 439 120 601
3 595 35 439
3 377 594 600
3 600 103 377
3 594 153 600
3 377 30 594
3 440 378 602
3 602 120 440
3 378 103 602
3 440 1 378
3 605 603 604
3 604 65 605
3 603 155 604
3 605 119 603
3 591 245 604
3 604 155 591
3 245 65 604
3 591 17 245
3 433 596 603
3 603 119 433
3 596 155 603
3 433 35 596
3 246 434 605
3 605 65 246
3 434 119 605
3 246 11 434
3 608 606 607
3 607 158 608
3 606 157 607
3 608 156 606
3 610 609 607
3 607 157 610
3 609 158 607
3 610 15 609
3 612 611 606
3 606 156 612
3 611 157 606
3 612 28 611
3 614 613 608
3 608 158 614
3 613 156 608
3 614 41 613
3 617 615 616
3 616 95 617
3 615 157 616
3 617 55 615
3 611 350 616
3 616 157 611
3 350 95 616
3 611 28 350
3 209 610 615
3 615 55 209
3 610 157 615
3 209 15 610
3 351 210 617
3 617 95 351
3 210 55 617
3 351 7 210
3 620 618 619
3 619 135 620
3 618 156 619
3 620 94 618
3 613 490 619
3 619 156 613
3 490 135 619
3 613 41 490
3 342 612 618
3 618 94 342
3 612 156 618
3 342 28 612
3 491 345 620
3 620 135 491
3 345 94 620
3 491 2 345
3 623 621 622
3 622 56 623
3 621 158 622
3 623 134 621
3 609 215 622
3 622 158 609
3 215 56 622
3 609 15 215
3 484 614 621
3 621 134 484
3 614 158 621
3 484 41 614
3 216 485 623
3 623 56 216
3 485 134 623
3 216 9 485
3 626 624 625
3 625 161 626
3 624 160 625
3 626 159 624
3 628 627 625
3 625 160 628
3 627 161 625
3 628 31 627
3 630 629 624
3 624 159 630
3 629 160 624
3 630 20 629
3 632 631 626
3 626 161 632
3 631 159 626
3 632 40 631
3 635 633 634
3 634 73 635
3 633 160 634
3 635 105 633
3 629 272 634
3 634 160 629
3 272 73 634
3 629 20 272
3 382 628 633
3 633 105 382
3 628 160 633
3 382 31 628
3 273 385 635
3 635 73 273
3 385 105 635
3 273 6 385
3 638 636 637
3 637 137 638
3 636 159 637
3 638 72 636
3 631 496 637
3 637 159 631
3 496 137 637
3 631 40 496
3 265 630 636
3 636 72 265
3 630 159 636
3 265 20 630
3 497 268 638
3 638 137 497
3 268 72 638
3 497 10 268
3 641 639 640
3 640 102 641
3 639 161 640
3 641 136 639
3 627 372 640
3 640 161 627
3 372 102 640
3 627 31 372
3 489 632 639
3 639 136 489
3 632 161 639
3 489 40 632
3 373 492 641
3 641 102 373
3 492 136 641
3 373 2 492
