# vtk DataFile Version 3.0
this file was written using fslvtkio
ASCII
DATASET POLYDATA
POINTS 642 float
118.456 103.584 138.486
107.669 104.567 136.335
104.424 107.237 126.966
113.813 106.073 129.75
113.536 99.7747 132.065
115.414 110.213 134.328
108.206 110.004 133.185
107.964 100.365 130.679
112.348 98.7681 140.154
108.369 103.703 123.348
109.18 110.543 125.279
113.179 106.616 141.499
110.109 98.6292 135.496
113.887 97.8014 136.227
110.531 98.1685 130.745
107.353 100.908 125.972
110.895 101.485 127.612
110.652 108.446 137.602
111.737 110.319 133.751
115.076 108.034 138.236
108.057 110.625 128.804
112.57 110.637 129.772
113.68 102.956 130.897
116.398 100.772 135.759
116.94 105.084 133.927
115.617 108.544 131.659
118.206 107.628 136.907
107.454 102.051 133.839
105.733 103.547 127.995
105.464 106.12 131.821
107.172 107.939 135.64
105.118 109.856 129.978
117.373 105.273 142.276
116.456 100.499 140.981
113.302 102.574 142.727
109.805 105.66 139.922
109.931 101.581 138.713
112.211 108.622 126.529
107.857 108.128 121.985
111.239 105.16 125.801
104.903 110.38 124.19
105.008 105.372 123.004
111.779 97.3653 135.972
112.278 97.4464 133.444
110.242 97.8028 133.179
112.174 98.7819 131.355
114.045 98.3395 133.824
113.187 97.9537 138.434
111.189 98.401 137.946
108.96 99.3593 133.059
108.908 98.8112 130.651
108.961 99.1799 128.333
110.798 99.5613 128.911
109.282 100.685 126.445
112.241 100.501 129.842
107.611 100.52 128.354
107.798 101.958 124.22
109.683 102.462 125.286
111.334 109.355 135.746
113.397 109.391 136.234
112.868 108.231 137.966
115.318 109.392 136.457
113.599 110.358 134.176
109.898 110.21 133.417
109.415 109.35 135.451
111.92 107.584 139.691
114.241 107.227 140.008
110.322 110.793 129.37
112.1 110.877 131.767
109.97 110.759 131.303
114.034 110.545 132.071
110.894 110.597 127.619
108.521 110.623 126.976
108.064 110.541 130.984
115.175 101.911 133.368
116.546 102.96 134.923
115.466 103.775 132.484
117.76 104.332 136.209
117.546 102.058 137.223
115.072 100.072 133.808
113.504 101.357 131.525
113.834 104.526 130.129
115.389 105.541 131.81
116.569 106.898 132.769
118.007 106.398 135.28
117.559 108.473 134.154
118.537 105.63 137.787
114.644 107.248 130.598
115.844 109.709 132.84
116.983 109.257 135.76
106.416 102.83 130.934
105.48 104.685 129.966
106.225 104.01 132.637
104.808 106.715 129.411
104.955 105.358 127.297
106.798 101.887 129.292
107.715 101.135 132.284
107.444 103.318 135.09
106.493 105.319 134.128
106.06 107.174 133.8
105.052 108.043 131.069
105.884 109.013 132.929
104.418 108.701 128.352
107.401 106.244 136.049
107.487 109.208 134.559
106.558 110.11 131.632
117.663 102.731 142.65
115.101 101.074 143.123
115.536 104.109 143.791
112.678 100.348 141.817
114.371 99.2277 140.882
117.948 101.91 139.877
118.668 104.303 140.566
115.203 106.18 142.286
113.309 104.882 142.456
111.632 104.054 141.409
111.489 101.926 140.921
109.933 103.535 139.658
111.154 100.085 139.458
111.373 106.287 140.978
108.52 104.989 138.249
108.592 103.03 137.559
110.264 108.619 123.85
109.748 106.595 123.453
111.636 107.028 125.71
109.817 104.496 124.366
107.922 105.765 122.237
108.565 110.097 123.214
110.825 109.764 125.664
113.034 107.276 128.08
112.544 105.627 127.805
104.233 108.298 122.6
105.897 106.726 121.24
106.149 109.956 122.113
106.461 103.962 122.413
104.559 106.496 124.845
104.16 108.794 125.41
107.077 110.695 124.488
115.45 99.0099 135.962
115.185 98.8778 138.727
116.839 100.324 138.319
117.937 106.231 139.557
116.206 106.685 140.413
116.816 107.985 137.866
111.028 103.323 126.551
112.274 102.283 129.139
112.377 104.024 128.353
113.881 108.526 129.143
114.412 109.886 130.477
112.629 109.868 127.955
109.87 100.003 137.198
108.736 100.323 134.754
108.602 101.679 136.303
108.288 106.84 138.025
108.624 108.489 136.915
109.919 107.517 139.26
105.267 104.32 125.329
106.39 102.221 126.758
105.947 102.74 124.045
106.349 110.72 126.387
106.343 110.582 129.18
104.615 110.286 126.985
112.033 97.2836 134.69
111.214 97.5037 133.352
110.999 97.4485 134.567
110.428 97.7688 131.971
111.383 97.7339 132.169
113.064 97.4315 134.83
112.843 97.4142 136.059
110.834 97.8011 135.69
110.178 98.0443 134.426
112.269 97.9948 132.304
113.207 97.7389 133.626
113.148 98.3896 132.559
114.004 97.9058 134.955
111.403 98.347 131.089
112.887 99.2276 131.738
113.82 98.973 132.806
112.477 97.4995 137.192
111.353 97.7294 137.004
112.064 97.885 138.242
110.618 98.4156 136.711
113.542 97.8071 137.33
112.734 98.1531 139.406
111.767 98.4807 139.098
109.544 98.4929 133.22
109.565 98.1931 131.928
108.957 99.0141 131.911
109.635 98.2441 130.67
109.519 98.9013 134.303
108.448 99.8244 131.841
108.419 99.5855 130.695
109.935 99.2373 128.59
110.038 100.132 127.711
109.139 99.8592 127.324
110.14 100.987 127.009
110.795 100.502 128.188
110.693 98.6979 129.718
109.751 98.5677 129.471
108.235 100.008 127.167
108.354 100.59 126.161
111.539 100.034 129.275
111.472 99.0726 130.056
112.224 99.5735 130.481
111.568 100.947 128.719
112.858 100.089 131.05
108.899 98.8519 129.437
108.213 99.7701 128.312
108.258 99.6453 129.505
107.485 100.616 127.176
107.778 100.411 129.559
108.554 101.213 125.298
109.535 101.496 125.817
108.805 102.057 124.711
110.298 101.896 126.423
107.539 101.247 124.979
108.118 102.786 123.705
109.05 103.02 124.268
112.359 109.366 135.992
113.166 108.791 137.061
112.08 108.796 136.871
113.974 108.214 138.073
114.227 108.762 137.25
112.556 109.932 135.126
111.611 109.864 134.835
111.078 108.875 136.705
111.765 108.338 137.731
114.367 109.364 136.41
113.458 109.973 135.267
114.46 109.994 135.375
112.661 110.329 134.066
115.198 108.723 137.367
115.365 109.994 135.385
114.513 110.336 134.285
110.68 109.812 134.63
110.397 109.355 135.638
109.721 109.791 134.462
110.063 108.91 136.546
110.838 110.242 133.608
109.02 110.129 133.296
108.82 109.721 134.31
112.381 107.856 138.766
113.553 107.72 138.932
113.078 107.433 139.832
114.654 107.582 139.063
111.334 108.008 138.603
112.556 107.196 140.688
113.719 107.004 140.865
111.235 110.875 130.532
111.047 110.795 131.559
110.139 110.835 130.33
110.879 110.591 132.552
111.853 110.671 132.758
112.282 110.874 130.732
111.464 110.808 129.609
109.214 110.726 129.153
109.053 110.773 130.064
112.794 110.628 133.025
113.025 110.722 131.903
113.792 110.585 133.146
113.293 110.656 130.901
114.761 110.449 133.259
110.631 110.821 128.514
109.431 110.762 128.233
109.7 110.653 127.335
108.318 110.638 127.902
111.783 110.7 128.715
109.951 110.506 126.476
108.852 110.619 126.152
108.976 110.679 131.097
109.957 110.547 132.416
108.976 110.488 132.237
108.049 110.65 129.897
108.134 110.302 132.121
115.866 102.404 134.158
116.066 103.382 133.637
115.273 102.846 132.847
116.229 104.356 133.271
116.724 103.969 134.392
116.437 101.888 135.305
115.822 101.398 134.57
114.447 102.464 132.202
114.583 103.275 131.774
117.127 103.602 135.574
117.031 102.478 136.07
117.688 103.188 136.687
116.99 101.384 136.477
117.329 104.647 135.059
118.161 103.962 137.345
118.074 102.842 137.849
115.151 100.994 133.631
114.345 101.619 132.476
114.337 100.724 132.697
113.616 102.17 131.306
115.714 100.415 134.857
114.287 99.8423 132.885
113.501 100.556 131.79
114.691 104.066 131.318
115.467 104.667 132.174
114.675 104.927 131.006
116.227 105.279 132.87
113.822 103.732 130.502
113.861 105.328 129.958
114.588 105.799 130.764
117.443 106.662 133.966
117.972 107.448 134.72
117.235 107.637 133.428
118.016 108.146 135.495
118.261 107.101 136.05
117.511 105.69 134.554
116.811 105.99 133.319
116.227 107.808 132.284
116.729 108.535 132.921
118.333 106.061 136.454
117.812 105.318 135.684
118.213 104.989 136.949
118.404 106.641 137.332
118.544 104.602 138.188
115.942 106.156 132.334
115.602 107.117 131.743
115.004 106.421 131.208
115.182 107.889 131.135
114.19 106.604 130.179
116.794 109.198 133.544
117.42 108.971 134.975
116.591 109.632 134.324
117.702 108.505 136.315
115.896 109.164 132.269
115.689 110.056 133.611
116.196 109.846 135.045
105.882 103.715 130.438
105.819 104.354 131.328
106.303 103.369 131.85
105.793 105.018 132.121
105.479 105.321 130.931
105.626 104.077 129.047
106.055 103.215 129.511
106.893 102.523 132.378
106.805 103.026 133.086
105.131 105.658 129.663
105.188 104.979 128.66
104.866 105.952 128.404
105.328 104.439 127.634
105.136 106.336 130.602
104.611 106.942 128.172
104.701 106.331 127.162
106.601 102.376 130.08
107.047 102.011 131.621
107.195 101.536 130.825
107.537 101.638 132.992
106.218 102.717 128.618
107.361 101.087 130.012
107.853 100.718 131.481
106.816 103.61 133.838
106.272 104.66 133.344
106.933 104.281 134.523
105.906 105.685 132.964
107.408 102.708 134.408
107.526 104.005 135.671
107.121 104.957 135.177
105.505 107.578 132.477
105.442 108.551 132.027
105.879 108.071 133.471
105.482 109.432 131.506
104.971 109.016 130.639
105.253 107.085 131.488
105.711 106.665 132.818
106.571 107.632 134.67
106.401 108.494 134.278
104.716 108.406 129.785
104.892 107.326 130.286
104.589 107.695 128.959
104.694 109.345 129.179
104.362 107.927 127.661
106.221 106.211 133.911
106.73 106.762 134.879
106.929 105.835 135.051
107.225 107.11 135.905
107.503 105.369 136.162
106.619 109.139 133.778
106.117 109.684 132.319
106.995 109.699 133.13
105.745 110.115 130.857
107.171 108.638 135.053
107.855 109.653 133.842
107.402 110.063 132.459
116.503 101.95 143.204
115.486 102.579 143.709
116.796 103.392 143.63
114.405 103.254 143.494
114.173 101.859 143.285
115.975 100.792 142.307
117.041 101.558 142.02
117.688 104.08 142.79
116.643 104.727 143.377
113.78 100.608 142.648
114.789 100.08 142.08
113.512 99.6006 141.595
115.467 99.8899 141.106
113.032 101.418 142.441
112.412 99.4746 140.986
113.274 98.8412 140.527
117.894 102.242 141.308
118.361 103.462 141.76
118.474 103.038 140.372
118.202 104.709 141.609
117.302 101.238 140.631
118.327 102.693 139.125
118.722 103.906 139.449
115.476 105.203 143.181
114.362 104.462 143.207
114.222 105.644 142.602
113.468 103.744 142.814
116.309 105.698 142.534
114.131 106.525 141.92
113.166 105.892 142.022
111.621 102.972 141.287
110.701 102.747 140.309
110.715 103.793 140.56
109.975 102.533 139.318
110.675 101.826 139.827
112.345 102.174 141.949
112.523 103.298 142.161
110.7 104.793 140.665
109.949 104.578 139.864
111.278 101.042 140.231
112.064 101.154 141.533
111.814 100.195 140.737
110.564 100.883 139.116
111.688 99.3155 139.859
112.471 104.369 142.072
111.435 105.154 141.243
112.272 105.541 141.729
110.594 105.918 140.554
112.199 106.559 141.304
109.184 104.284 139.011
109.222 103.227 138.72
108.576 103.977 137.979
109.277 102.338 138.244
109.135 105.319 139.104
108.023 104.725 137.307
108.033 103.772 136.962
109.984 107.617 123.544
110.742 106.856 124.514
110.981 107.812 124.716
111.335 106.109 125.569
110.556 105.901 124.558
108.87 107.351 122.652
109.081 108.374 122.85
111.206 108.602 125.14
111.828 107.909 125.913
109.779 105.538 123.815
108.861 106.246 122.743
108.952 105.09 123.164
107.892 106.96 121.937
110.539 104.906 124.964
109.134 104.078 123.822
108.092 104.665 122.76
109.397 109.346 123.365
110.519 109.305 124.641
109.75 109.986 124.286
111.562 109.222 125.922
108.248 109.189 122.461
108.907 110.442 124.247
110.009 110.169 125.474
112.307 107.194 126.83
112.024 106.291 126.707
112.724 106.495 127.841
111.855 105.442 126.717
112.651 107.929 127.213
113.418 106.65 128.964
113.226 105.832 128.8
104.914 107.635 121.468
105.969 108.461 121.415
104.994 109.253 121.934
107.042 109.069 121.848
106.908 107.466 121.421
105.131 106.05 121.826
104.516 106.846 122.528
104.345 109.598 123.103
105.325 110.291 122.925
107.016 106.186 121.625
106.087 105.347 121.662
107.123 104.89 122.291
105.587 104.652 122.457
107.467 103.713 122.813
104.275 107.333 123.635
104.114 108.67 123.914
104.23 107.677 125.014
104.265 109.684 124.56
104.652 106.061 123.756
104.497 106.83 125.962
104.236 107.95 126.234
106.528 110.59 123.202
107.474 110.059 122.57
107.854 110.54 123.798
105.923 110.667 124.133
108.174 110.662 124.913
115.408 98.8465 137.332
116.078 99.5507 138.581
116.219 99.5546 137.179
116.703 100.367 139.682
115.823 99.637 139.917
114.563 98.2725 137.461
114.725 98.3306 136.121
116.02 99.8298 135.923
116.717 100.416 136.942
114.863 99.0036 139.902
114.179 98.3275 138.569
113.741 98.4655 139.705
114.706 98.6484 134.914
115.326 99.514 134.821
114.564 99.1988 133.748
117.297 101.059 137.711
117.361 101.057 139.241
117.82 101.892 138.511
117.179 106.419 140.177
116.511 107.127 139.132
117.384 107.062 138.751
115.991 107.921 138.163
115.625 107.29 139.253
116.853 106.132 141.497
117.823 105.701 141.036
118.078 106.922 138.185
117.618 107.863 137.502
115.208 106.933 140.148
115.83 106.418 141.49
114.733 106.776 141.179
118.385 105.322 140.189
118.337 106.017 138.574
118.705 104.966 139.102
116.988 108.724 136.861
116.061 108.748 137.242
116.15 109.427 136.143
111.585 102.788 127.881
112.251 103.199 128.776
111.716 103.7 127.4
112.99 103.469 129.612
112.956 102.65 130.013
111.578 101.894 128.315
110.929 102.406 127.111
111.17 104.243 126.14
111.8 104.564 127.06
112.907 101.841 130.296
112.249 101.401 129.373
112.871 100.942 130.634
110.394 102.858 125.938
110.49 103.919 125.423
109.806 103.458 124.807
112.409 104.843 127.944
113.067 104.244 129.282
113.16 105.052 128.993
114.287 109.245 129.772
113.482 109.845 129.286
113.332 109.242 128.497
112.675 110.332 128.865
113.487 110.313 130.099
115.085 109.23 131.017
114.788 108.551 130.358
113.074 108.589 127.828
112.472 109.282 127.22
114.158 110.292 131.177
115.09 109.742 131.655
114.976 110.212 132.44
114.304 107.883 129.879
113.39 107.92 128.531
113.773 107.219 129.432
111.787 109.812 126.837
111.831 110.313 127.8
110.886 110.256 126.643
109.33 100.15 135.961
108.631 100.997 135.539
109.261 100.888 136.772
107.971 101.815 135.078
108.09 101.204 134.324
109.426 99.4778 135.142
109.961 99.2893 136.357
109.862 100.798 137.955
109.222 101.596 137.545
108.153 100.714 133.546
108.896 99.8126 133.956
108.355 100.263 132.678
110.504 99.1789 137.518
110.495 100.062 138.338
111.151 99.2327 138.711
108.602 102.336 136.981
107.949 102.456 135.686
107.987 103.145 136.35
108.364 107.785 137.616
109.24 108.011 138.132
109.014 107.232 138.726
110.255 108.049 138.428
109.628 108.477 137.303
107.81 108.245 136.371
107.665 107.422 136.92
108.998 106.271 139.023
109.734 106.661 139.744
109.062 108.937 136.232
108.017 108.798 135.728
108.44 109.303 135.001
107.736 106.542 137.103
108.407 105.896 138.194
107.867 105.582 137.204
110.554 106.908 140.2
110.889 107.688 139.447
111.544 107.148 140.534
105.773 103.191 125.949
106.113 102.466 125.366
105.587 103.572 124.616
106.594 101.739 124.981
106.761 101.515 126.307
105.986 102.904 127.267
105.505 103.881 126.639
105.041 104.783 124.101
105.436 104.008 123.397
106.948 101.323 127.503
106.552 102.081 128.015
107.187 101.22 128.788
105.121 104.805 126.318
104.837 105.37 124.937
104.758 105.846 126.046
106.079 103.247 123.016
106.796 102.055 124.006
107.145 102.865 123.262
106.242 110.649 127.679
105.418 110.586 128.001
105.369 110.7 126.516
104.852 110.089 128.483
105.638 110.344 129.459
107.125 110.612 128.873
107.192 110.594 127.597
105.562 110.746 125.223
104.647 110.362 125.496
106.347 110.453 130.417
107.219 110.588 130.056
107.281 110.339 131.278
107.44 110.614 126.728
106.622 110.766 125.376
107.76 110.638 125.768
104.272 109.616 126.116
104.437 109.53 127.77
104.237 108.701 126.949
POLYGONS 1280  5120
3 164 162 163
3 163 44 164
3 162 43 163
3 164 42 162
3 166 165 163
3 163 43 166
3 165 44 163
3 166 14 165
3 168 167 162
3 162 42 168
3 167 43 162
3 168 13 167
3 170 169 164
3 164 44 170
3 169 42 164
3 170 12 169
3 173 171 172
3 172 46 173
3 171 43 172
3 173 45 171
3 167 174 172
3 172 43 167
3 174 46 172
3 167 13 174
3 175 166 171
3 171 45 175
3 166 43 171
3 175 14 166
3 177 176 173
3 173 46 177
3 176 45 173
3 177 4 176
3 180 178 179
3 179 48 180
3 178 42 179
3 180 47 178
3 169 181 179
3 179 42 169
3 181 48 179
3 169 12 181
3 182 168 178
3 178 47 182
3 168 42 178
3 182 13 168
3 184 183 180
3 180 48 184
3 183 47 180
3 184 8 183
3 187 185 186
3 186 50 187
3 185 44 186
3 187 49 185
3 165 188 186
3 186 44 165
3 188 50 186
3 165 14 188
3 189 170 185
3 185 49 189
3 170 44 185
3 189 12 170
3 191 190 187
3 187 50 191
3 190 49 187
3 191 7 190
3 194 192 193
3 193 53 194
3 192 52 193
3 194 51 192
3 196 195 193
3 193 52 196
3 195 53 193
3 196 16 195
3 198 197 192
3 192 51 198
3 197 52 192
3 198 14 197
3 200 199 194
3 194 53 200
3 199 51 194
3 200 15 199
3 203 201 202
3 202 45 203
3 201 52 202
3 203 54 201
3 197 175 202
3 202 52 197
3 175 45 202
3 197 14 175
3 204 196 201
3 201 54 204
3 196 52 201
3 204 16 196
3 176 205 203
3 203 45 176
3 205 54 203
3 176 4 205
3 208 206 207
3 207 55 208
3 206 51 207
3 208 50 206
3 199 209 207
3 207 51 199
3 209 55 207
3 199 15 209
3 188 198 206
3 206 50 188
3 198 51 206
3 188 14 198
3 210 191 208
3 208 55 210
3 191 50 208
3 210 7 191
3 213 211 212
3 212 57 213
3 211 53 212
3 213 56 211
3 195 214 212
3 212 53 195
3 214 57 212
3 195 16 214
3 215 200 211
3 211 56 215
3 200 53 211
3 215 15 200
3 217 216 213
3 213 57 217
3 216 56 213
3 217 9 216
3 220 218 219
3 219 60 220
3 218 59 219
3 220 58 218
3 222 221 219
3 219 59 222
3 221 60 219
3 222 19 221
3 224 223 218
3 218 58 224
3 223 59 218
3 224 18 223
3 226 225 220
3 220 60 226
3 225 58 220
3 226 17 225
3 229 227 228
3 228 62 229
3 227 59 228
3 229 61 227
3 223 230 228
3 228 59 223
3 230 62 228
3 223 18 230
3 231 222 227
3 227 61 231
3 222 59 227
3 231 19 222
3 233 232 229
3 229 62 233
3 232 61 229
3 233 5 232
3 236 234 235
3 235 64 236
3 234 58 235
3 236 63 234
3 225 237 235
3 235 58 225
3 237 64 235
3 225 17 237
3 238 224 234
3 234 63 238
3 224 58 234
3 238 18 224
3 240 239 236
3 236 64 240
3 239 63 236
3 240 6 239
3 243 241 242
3 242 66 243
3 241 60 242
3 243 65 241
3 221 244 242
3 242 60 221
3 244 66 242
3 221 19 244
3 245 226 241
3 241 65 245
3 226 60 241
3 245 17 226
3 247 246 243
3 243 66 247
3 246 65 243
3 247 11 246
3 250 248 249
3 249 69 250
3 248 68 249
3 250 67 248
3 252 251 249
3 249 68 252
3 251 69 249
3 252 18 251
3 254 253 248
3 248 67 254
3 253 68 248
3 254 21 253
3 256 255 250
3 250 69 256
3 255 67 250
3 256 20 255
3 259 257 258
3 258 70 259
3 257 68 258
3 259 62 257
3 253 260 258
3 258 68 253
3 260 70 258
3 253 21 260
3 230 252 257
3 257 62 230
3 252 68 257
3 230 18 252
3 261 233 259
3 259 70 261
3 233 62 259
3 261 5 233
3 264 262 263
3 263 72 264
3 262 67 263
3 264 71 262
3 255 265 263
3 263 67 255
3 265 72 263
3 255 20 265
3 266 254 262
3 262 71 266
3 254 67 262
3 266 21 254
3 268 267 264
3 264 72 268
3 267 71 264
3 268 10 267
3 271 269 270
3 270 63 271
3 269 69 270
3 271 73 269
3 251 238 270
3 270 69 251
3 238 63 270
3 251 18 238
3 272 256 269
3 269 73 272
3 256 69 269
3 272 20 256
3 239 273 271
3 271 63 239
3 273 73 271
3 239 6 273
3 276 274 275
3 275 76 276
3 274 75 275
3 276 74 274
3 278 277 275
3 275 75 278
3 277 76 275
3 278 24 277
3 280 279 274
3 274 74 280
3 279 75 274
3 280 23 279
3 282 281 276
3 276 76 282
3 281 74 276
3 282 22 281
3 285 283 284
3 284 78 285
3 283 75 284
3 285 77 283
3 279 286 284
3 284 75 279
3 286 78 284
3 279 23 286
3 287 278 283
3 283 77 287
3 278 75 283
3 287 24 278
3 289 288 285
3 285 78 289
3 288 77 285
3 289 0 288
3 292 290 291
3 291 80 292
3 290 74 291
3 292 79 290
3 281 293 291
3 291 74 281
3 293 80 291
3 281 22 293
3 294 280 290
3 290 79 294
3 280 74 290
3 294 23 280
3 296 295 292
3 292 80 296
3 295 79 292
3 296 4 295
3 299 297 298
3 298 82 299
3 297 76 298
3 299 81 297
3 277 300 298
3 298 76 277
3 300 82 298
3 277 24 300
3 301 282 297
3 297 81 301
3 282 76 297
3 301 22 282
3 303 302 299
3 299 82 303
3 302 81 299
3 303 3 302
3 306 304 305
3 305 85 306
3 304 84 305
3 306 83 304
3 308 307 305
3 305 84 308
3 307 85 305
3 308 26 307
3 310 309 304
3 304 83 310
3 309 84 304
3 310 24 309
3 312 311 306
3 306 85 312
3 311 83 306
3 312 25 311
3 315 313 314
3 314 77 315
3 313 84 314
3 315 86 313
3 309 287 314
3 314 84 309
3 287 77 314
3 309 24 287
3 316 308 313
3 313 86 316
3 308 84 313
3 316 26 308
3 288 317 315
3 315 77 288
3 317 86 315
3 288 0 317
3 320 318 319
3 319 87 320
3 318 83 319
3 320 82 318
3 311 321 319
3 319 83 311
3 321 87 319
3 311 25 321
3 300 310 318
3 318 82 300
3 310 83 318
3 300 24 310
3 322 303 320
3 320 87 322
3 303 82 320
3 322 3 303
3 325 323 324
3 324 89 325
3 323 85 324
3 325 88 323
3 307 326 324
3 324 85 307
3 326 89 324
3 307 26 326
3 327 312 323
3 323 88 327
3 312 85 323
3 327 25 312
3 329 328 325
3 325 89 329
3 328 88 325
3 329 5 328
3 332 330 331
3 331 92 332
3 330 91 331
3 332 90 330
3 334 333 331
3 331 91 334
3 333 92 331
3 334 29 333
3 336 335 330
3 330 90 336
3 335 91 330
3 336 28 335
3 338 337 332
3 332 92 338
3 337 90 332
3 338 27 337
3 341 339 340
3 340 94 341
3 339 91 340
3 341 93 339
3 335 342 340
3 340 91 335
3 342 94 340
3 335 28 342
3 343 334 339
3 339 93 343
3 334 91 339
3 343 29 334
3 345 344 341
3 341 94 345
3 344 93 341
3 345 2 344
3 348 346 347
3 347 96 348
3 346 90 347
3 348 95 346
3 337 349 347
3 347 90 337
3 349 96 347
3 337 27 349
3 350 336 346
3 346 95 350
3 336 90 346
3 350 28 336
3 352 351 348
3 348 96 352
3 351 95 348
3 352 7 351
3 355 353 354
3 354 98 355
3 353 92 354
3 355 97 353
3 333 356 354
3 354 92 333
3 356 98 354
3 333 29 356
3 357 338 353
3 353 97 357
3 338 92 353
3 357 27 338
3 359 358 355
3 355 98 359
3 358 97 355
3 359 1 358
3 362 360 361
3 361 101 362
3 360 100 361
3 362 99 360
3 364 363 361
3 361 100 364
3 363 101 361
3 364 31 363
3 366 365 360
3 360 99 366
3 365 100 360
3 366 29 365
3 368 367 362
3 362 101 368
3 367 99 362
3 368 30 367
3 371 369 370
3 370 93 371
3 369 100 370
3 371 102 369
3 365 343 370
3 370 100 365
3 343 93 370
3 365 29 343
3 372 364 369
3 369 102 372
3 364 100 369
3 372 31 364
3 344 373 371
3 371 93 344
3 373 102 371
3 344 2 373
3 376 374 375
3 375 103 376
3 374 99 375
3 376 98 374
3 367 377 375
3 375 99 367
3 377 103 375
3 367 30 377
3 356 366 374
3 374 98 356
3 366 99 374
3 356 29 366
3 378 359 376
3 376 103 378
3 359 98 376
3 378 1 359
3 381 379 380
3 380 105 381
3 379 101 380
3 381 104 379
3 363 382 380
3 380 101 363
3 382 105 380
3 363 31 382
3 383 368 379
3 379 104 383
3 368 101 379
3 383 30 368
3 385 384 381
3 381 105 385
3 384 104 381
3 385 6 384
3 388 386 387
3 387 108 388
3 386 107 387
3 388 106 386
3 390 389 387
3 387 107 390
3 389 108 387
3 390 34 389
3 392 391 386
3 386 106 392
3 391 107 386
3 392 33 391
3 394 393 388
3 388 108 394
3 393 106 388
3 394 32 393
3 397 395 396
3 396 110 397
3 395 107 396
3 397 109 395
3 391 398 396
3 396 107 391
3 398 110 396
3 391 33 398
3 399 390 395
3 395 109 399
3 390 107 395
3 399 34 390
3 401 400 397
3 397 110 401
3 400 109 397
3 401 8 400
3 404 402 403
3 403 112 404
3 402 106 403
3 404 111 402
3 393 405 403
3 403 106 393
3 405 112 403
3 393 32 405
3 406 392 402
3 402 111 406
3 392 106 402
3 406 33 392
3 408 407 404
3 404 112 408
3 407 111 404
3 408 0 407
3 411 409 410
3 410 114 411
3 409 108 410
3 411 113 409
3 389 412 410
3 410 108 389
3 412 114 410
3 389 34 412
3 413 394 409
3 409 113 413
3 394 108 409
3 413 32 394
3 415 414 411
3 411 114 415
3 414 113 411
3 415 11 414
3 418 416 417
3 417 117 418
3 416 116 417
3 418 115 416
3 420 419 417
3 417 116 420
3 419 117 417
3 420 36 419
3 422 421 416
3 416 115 422
3 421 116 416
3 422 34 421
3 424 423 418
3 418 117 424
3 423 115 418
3 424 35 423
3 427 425 426
3 426 109 427
3 425 116 426
3 427 118 425
3 421 399 426
3 426 116 421
3 399 109 426
3 421 34 399
3 428 420 425
3 425 118 428
3 420 116 425
3 428 36 420
3 400 429 427
3 427 109 400
3 429 118 427
3 400 8 429
3 432 430 431
3 431 119 432
3 430 115 431
3 432 114 430
3 423 433 431
3 431 115 423
3 433 119 431
3 423 35 433
3 412 422 430
3 430 114 412
3 422 115 430
3 412 34 422
3 434 415 432
3 432 119 434
3 415 114 432
3 434 11 415
3 437 435 436
3 436 121 437
3 435 117 436
3 437 120 435
3 419 438 436
3 436 117 419
3 438 121 436
3 419 36 438
3 439 424 435
3 435 120 439
3 424 117 435
3 439 35 424
3 441 440 437
3 437 121 441
3 440 120 437
3 441 1 440
3 444 442 443
3 443 124 444
3 442 123 443
3 444 122 442
3 446 445 443
3 443 123 446
3 445 124 443
3 446 39 445
3 448 447 442
3 442 122 448
3 447 123 442
3 448 38 447
3 450 449 444
3 444 124 450
3 449 122 444
3 450 37 449
3 453 451 452
3 452 126 453
3 451 123 452
3 453 125 451
3 447 454 452
3 452 123 447
3 454 126 452
3 447 38 454
3 455 446 451
3 451 125 455
3 446 123 451
3 455 39 446
3 457 456 453
3 453 126 457
3 456 125 453
3 457 9 456
3 460 458 459
3 459 128 460
3 458 122 459
3 460 127 458
3 449 461 459
3 459 122 449
3 461 128 459
3 449 37 461
3 462 448 458
3 458 127 462
3 448 122 458
3 462 38 448
3 464 463 460
3 460 128 464
3 463 127 460
3 464 10 463
3 467 465 466
3 466 130 467
3 465 124 466
3 467 129 465
3 445 468 466
3 466 124 445
3 468 130 466
3 445 39 468
3 469 450 465
3 465 129 469
3 450 124 465
3 469 37 450
3 471 470 467
3 467 130 471
3 470 129 467
3 471 3 470
3 474 472 473
3 473 133 474
3 472 132 473
3 474 131 472
3 476 475 473
3 473 132 476
3 475 133 473
3 476 38 475
3 478 477 472
3 472 131 478
3 477 132 472
3 478 41 477
3 480 479 474
3 474 133 480
3 479 131 474
3 480 40 479
3 483 481 482
3 482 134 483
3 481 132 482
3 483 126 481
3 477 484 482
3 482 132 477
3 484 134 482
3 477 41 484
3 454 476 481
3 481 126 454
3 476 132 481
3 454 38 476
3 485 457 483
3 483 134 485
3 457 126 483
3 485 9 457
3 488 486 487
3 487 136 488
3 486 131 487
3 488 135 486
3 479 489 487
3 487 131 479
3 489 136 487
3 479 40 489
3 490 478 486
3 486 135 490
3 478 131 486
3 490 41 478
3 492 491 488
3 488 136 492
3 491 135 488
3 492 2 491
3 495 493 494
3 494 127 495
3 493 133 494
3 495 137 493
3 475 462 494
3 494 133 475
3 462 127 494
3 475 38 462
3 496 480 493
3 493 137 496
3 480 133 493
3 496 40 480
3 463 497 495
3 495 127 463
3 497 137 495
3 463 10 497
3 500 498 499
3 499 140 500
3 498 139 499
3 500 138 498
3 502 501 499
3 499 139 502
3 501 140 499
3 502 33 501
3 504 503 498
3 498 138 504
3 503 139 498
3 504 13 503
3 506 505 500
3 500 140 506
3 505 138 500
3 506 23 505
3 509 507 508
3 508 47 509
3 507 139 508
3 509 110 507
3 503 182 508
3 508 139 503
3 182 47 508
3 503 13 182
3 398 502 507
3 507 110 398
3 502 139 507
3 398 33 502
3 183 401 509
3 509 47 183
3 401 110 509
3 183 8 401
3 512 510 511
3 511 79 512
3 510 138 511
3 512 46 510
3 505 294 511
3 511 138 505
3 294 79 511
3 505 23 294
3 174 504 510
3 510 46 174
3 504 138 510
3 174 13 504
3 295 177 512
3 512 79 295
3 177 46 512
3 295 4 177
3 515 513 514
3 514 111 515
3 513 140 514
3 515 78 513
3 501 406 514
3 514 140 501
3 406 111 514
3 501 33 406
3 286 506 513
3 513 78 286
3 506 140 513
3 286 23 506
3 407 289 515
3 515 111 407
3 289 78 515
3 407 0 289
3 518 516 517
3 517 143 518
3 516 142 517
3 518 141 516
3 520 519 517
3 517 142 520
3 519 143 517
3 520 19 519
3 522 521 516
3 516 141 522
3 521 142 516
3 522 32 521
3 524 523 518
3 518 143 524
3 523 141 518
3 524 26 523
3 527 525 526
3 526 113 527
3 525 142 526
3 527 66 525
3 521 413 526
3 526 142 521
3 413 113 526
3 521 32 413
3 244 520 525
3 525 66 244
3 520 142 525
3 244 19 520
3 414 247 527
3 527 113 414
3 247 66 527
3 414 11 247
3 530 528 529
3 529 86 530
3 528 141 529
3 530 112 528
3 523 316 529
3 529 141 523
3 316 86 529
3 523 26 316
3 405 522 528
3 528 112 405
3 522 141 528
3 405 32 522
3 317 408 530
3 530 86 317
3 408 112 530
3 317 0 408
3 533 531 532
3 532 61 533
3 531 143 532
3 533 89 531
3 519 231 532
3 532 143 519
3 231 61 532
3 519 19 231
3 326 524 531
3 531 89 326
3 524 143 531
3 326 26 524
3 232 329 533
3 533 61 232
3 329 89 533
3 232 5 329
3 536 534 535
3 535 146 536
3 534 145 535
3 536 144 534
3 538 537 535
3 535 145 538
3 537 146 535
3 538 22 537
3 540 539 534
3 534 144 540
3 539 145 534
3 540 16 539
3 542 541 536
3 536 146 542
3 541 144 536
3 542 39 541
3 545 543 544
3 544 54 545
3 543 145 544
3 545 80 543
3 539 204 544
3 544 145 539
3 204 54 544
3 539 16 204
3 293 538 543
3 543 80 293
3 538 145 543
3 293 22 538
3 205 296 545
3 545 54 205
3 296 80 545
3 205 4 296
3 548 546 547
3 547 125 548
3 546 144 547
3 548 57 546
3 541 455 547
3 547 144 541
3 455 125 547
3 541 39 455
3 214 540 546
3 546 57 214
3 540 144 546
3 214 16 540
3 456 217 548
3 548 125 456
3 217 57 548
3 456 9 217
3 551 549 550
3 550 81 551
3 549 146 550
3 551 130 549
3 537 301 550
3 550 146 537
3 301 81 550
3 537 22 301
3 468 542 549
3 549 130 468
3 542 146 549
3 468 39 542
3 302 471 551
3 551 81 302
3 471 130 551
3 302 3 471
3 554 552 553
3 553 149 554
3 552 148 553
3 554 147 552
3 556 555 553
3 553 148 556
3 555 149 553
3 556 21 555
3 558 557 552
3 552 147 558
3 557 148 552
3 558 25 557
3 560 559 554
3 554 149 560
3 559 147 554
3 560 37 559
3 563 561 562
3 562 88 563
3 561 148 562
3 563 70 561
3 557 327 562
3 562 148 557
3 327 88 562
3 557 25 327
3 260 556 561
3 561 70 260
3 556 148 561
3 260 21 556
3 328 261 563
3 563 88 328
3 261 70 563
3 328 5 261
3 566 564 565
3 565 129 566
3 564 147 565
3 566 87 564
3 559 469 565
3 565 147 559
3 469 129 565
3 559 37 469
3 321 558 564
3 564 87 321
3 558 147 564
3 321 25 558
3 470 322 566
3 566 129 470
3 322 87 566
3 470 3 322
3 569 567 568
3 568 71 569
3 567 149 568
3 569 128 567
3 555 266 568
3 568 149 555
3 266 71 568
3 555 21 266
3 461 560 567
3 567 128 461
3 560 149 567
3 461 37 560
3 267 464 569
3 569 71 267
3 464 128 569
3 267 10 464
3 572 570 571
3 571 152 572
3 570 151 571
3 572 150 570
3 574 573 571
3 571 151 574
3 573 152 571
3 574 27 573
3 576 575 570
3 570 150 576
3 575 151 570
3 576 12 575
3 578 577 572
3 572 152 578
3 577 150 572
3 578 36 577
3 581 579 580
3 580 49 581
3 579 151 580
3 581 96 579
3 575 189 580
3 580 151 575
3 189 49 580
3 575 12 189
3 349 574 579
3 579 96 349
3 574 151 579
3 349 27 574
3 190 352 581
3 581 49 190
3 352 96 581
3 190 7 352
3 584 582 583
3 583 118 584
3 582 150 583
3 584 48 582
3 577 428 583
3 583 150 577
3 428 118 583
3 577 36 428
3 181 576 582
3 582 48 181
3 576 150 582
3 181 12 576
3 429 184 584
3 584 118 429
3 184 48 584
3 429 8 184
3 587 585 586
3 586 97 587
3 585 152 586
3 587 121 585
3 573 357 586
3 586 152 573
3 357 97 586
3 573 27 357
3 438 578 585
3 585 121 438
3 578 152 585
3 438 36 578
3 358 441 587
3 587 97 358
3 441 121 587
3 358 1 441
3 590 588 589
3 589 155 590
3 588 154 589
3 590 153 588
3 592 591 589
3 589 154 592
3 591 155 589
3 592 17 591
3 594 593 588
3 588 153 594
3 593 154 588
3 594 30 593
3 596 595 590
3 590 155 596
3 595 153 590
3 596 35 595
3 599 597 598
3 598 104 599
3 597 154 598
3 599 64 597
3 593 383 598
3 598 154 593
3 383 104 598
3 593 30 383
3 237 592 597
3 597 64 237
3 592 154 597
3 237 17 592
3 384 240 599
3 599 104 384
3 240 64 599
3 384 6 240
3 602 600 601
3 601 120 602
3 600 153 601
3 602 103 600
3 595 439 601
3 601 153 595
3 439 120 601
3 595 35 439
3 377 594 600
3 600 103 377
3 594 153 600
3 377 30 594
3 440 378 602
3 602 120 440
3 378 103 602
3 440 1 378
3 605 603 604
3 604 65 605
3 603 155 604
3 605 119 603
3 591 245 604
3 604 155 591
3 245 65 604
3 591 17 245
3 433 596 603
3 603 119 433
3 596 155 603
3 433 35 596
3 246 434 605
3 605 65 246
3 434 119 605
3 246 11 434
3 608 606 607
3 607 158 608
3 606 157 607
3 608 156 606
3 610 609 607
3 607 157 610
3 609 158 607
3 610 15 609
3 612 611 606
3 606 156 612
3 611 157 606
3 612 28 611
3 614 613 608
3 608 158 614
3 613 156 608
3 614 41 613
3 617 615 616
3 616 95 617
3 615 157 616
3 617 55 615
3 611 350 616
3 616 157 611
3 350 95 616
3 611 28 350
3 209 610 615
3 615 55 209
3 610 157 615
3 209 15 610
3 351 210 617
3 617 95 351
3 210 55 617
3 351 7 210
3 620 618 619
3 619 135 620
3 618 156 619
3 620 94 618
3 613 490 619
3 619 156 613
3 490 135 619
3 613 41 490
3 342 612 618
3 618 94 342
3 612 156 618
3 342 28 612
3 491 345 620
3 620 135 491
3 345 94 620
3 491 2 345
3 623 621 622
3 622 56 623
3 621 158 622
3 623 134 621
3 609 215 622
3 622 158 609
3 215 56 622
3 609 15 215
3 484 614 621
3 621 134 484
3 614 158 621
3 484 41 614
3 216 485 623
3 623 56 216
3 485 134 623
3 216 9 485
3 626 624 625
3 625 161 626
3 624 160 625
3 626 159 624
3 628 627 625
3 625 160 628
3 627 161 625
3 628 31 627
3 630 629 624
3 624 159 630
3 629 160 624
3 630 20 629
3 632 631 626
3 626 161 632
3 631 159 626
3 632 40 631
3 635 633 634
3 634 73 635
3 633 160 634
3 635 105 633
3 629 272 634
3 634 160 629
3 272 73 634
3 629 20 272
3 382 628 633
3 633 105 382
3 628 160 633
3 382 31 628
3 273 385 635
3 635 73 273
3 385 105 635
3 273 6 385
3 638 636 637
3 637 137 638
3 636 159 637
3 638 72 636
3 631 496 637
3 637 159 631
3 496 137 637
3 631 40 496
3 265 630 636
3 636 72 265
3 630 159 636
3 265 20 630
3 497 268 638
3 638 137 497
3 268 72 638
3 497 10 268
3 641 639 640
3 640 102 641
3 639 161 640
3 641 136 639
3 627 372 640
3 640 161 627
3 372 102 640
3 627 31 372
3 489 632 639
3 639 136 489
3 632 161 639
3 489 40 632
3 373 492 641
3 641 102 373
3 492 136 641
3 373 2 492
