# vtk DataFile Version 3.0
this file was written using fslvtkio
ASCII
DATASET POLYDATA
POINTS 732 float
153.492 131.367 133.402
152.202 131.007 132.329
153.405 131.327 131.736
154.498 131.344 131.497
155.062 131.333 133.608
155.942 131.058 131.672
156.525 130.912 133.463
157.419 130.397 132.32
152.568 131.128 134.888
151.285 130.744 134.314
154.24 130.946 135.418
155.868 130.705 135.224
157.5 129.87 133.988
151.328 130.679 136.264
149.591 129.441 136.37
150.178 130.041 135.003
152.798 130.689 136.606
154.117 129.766 136.827
155.642 129.476 136.388
157.026 129.424 135.471
150.873 129.187 137.311
149.728 128.014 137.387
152.415 129.245 137.318
153.818 128.314 137.039
155.189 127.728 136.272
156.836 128.236 135.984
151.127 127.632 137.437
152.721 127.408 137.263
153.462 130.922 130.163
151.578 130.137 130.129
152.352 130.111 128.685
154.167 130.61 128.397
155.331 131.182 129.959
156.088 130.664 128.633
157.124 130.523 130.507
157.67 130.183 128.971
158.539 129.7 130.438
159.271 129.467 129.166
151.167 130.269 131.651
149.232 129.24 131.783
149.762 129.314 130.447
158.523 129.358 132.144
159.587 128.364 130.609
149.183 129.206 133.208
147.333 128.304 133.744
147.348 128.418 132.322
150.473 129.965 133.564
158.726 128.458 133.233
159.405 127.906 132.066
148.606 129.024 135.001
147.251 127.642 135.399
159.105 126.81 133.299
157.876 128.085 134.518
148.472 128.136 136.605
147.489 126.757 136.636
153.969 127.104 136.576
153.966 125.759 135.689
152.789 126.206 136.775
155.472 126.165 135.389
156.707 126.966 135.282
149.246 126.57 137.405
151.141 126.036 137.129
157.512 130.288 125.96
155.758 130.392 125.427
156.799 130.056 124.315
158.379 129.967 124.4
159.233 129.76 125.948
160.007 129.717 124.531
150.926 129.268 127.33
149.637 128.554 126.91
151.003 128.698 126.182
152.365 129.085 125.775
153.074 130.077 127.07
154.186 129.814 125.501
155.344 130.442 126.937
157.175 130.319 127.517
158.964 129.679 127.606
160.58 129.086 125.769
160.482 128.924 127.193
161.671 128.087 125.902
148.385 128.73 129.002
146.918 128.041 128.556
148.345 128.331 127.658
150.338 129.138 129.047
160.308 128.517 128.755
161.444 127.557 127.651
146.05 127.968 130.549
144.474 126.884 130.542
145.74 127.719 129.43
147.635 128.652 130.837
160.184 126.971 130.106
160.831 126.622 128.856
145.523 127.278 132.513
143.849 126.268 132.387
160.264 125.439 130.011
159.804 126.521 131.595
144.383 126.021 134.27
143.866 123.972 133.943
142.754 124.97 133.088
145.97 127.362 134.355
158.835 125.369 132.533
157.915 126.475 134.198
145.608 124.43 135.033
145.962 125.943 135.639
146.721 124.417 136.066
152.437 125.482 135.965
152.015 124.713 134.9
151.018 125.183 136.184
153.34 124.616 134.217
154.781 125.164 134.282
156.378 125.644 134.23
147.653 125.427 136.932
149.603 124.967 136.842
155.196 129.371 122.775
153.835 128.417 122.4
154.895 128.83 121.804
156.116 129.388 121.528
157.39 129.724 122.833
158.073 129.643 121.462
159.369 129.536 123.116
159.836 129.302 121.57
161.012 128.926 123.042
161.54 128.344 122.086
150.994 128.426 124.88
149.611 127.768 124.6
150.881 127.83 123.566
152.254 127.968 123.128
153.337 128.991 124.116
155.202 129.658 124.095
161.2 128.87 124.389
162.23 127.725 124.144
148.206 127.841 126.677
147.115 126.996 126.401
148.417 127.389 125.374
162.09 126.61 126.043
145.419 127.075 128.47
144.227 125.445 128.18
145.748 126.081 126.973
161.571 125.977 127.621
143.66 125.953 129.558
142.132 124.286 130.428
143.034 123.915 129.12
160.815 124.868 128.614
142.701 125.299 131.471
142.302 123.048 132.508
159.944 123.612 129.601
159.66 124.86 131.184
144.158 122.45 133.131
154.406 124.127 133
153.39 123.092 132.121
152.949 123.936 133.078
155.964 124.36 133.189
155.239 123.218 132.076
157.537 125.138 133.221
157.093 123.891 132.157
158.482 123.969 131.525
145.631 123.361 134.133
148.601 124.328 135.67
147.364 123.489 134.646
150.254 124.604 135.435
149.839 123.968 134.437
151.637 124.054 133.56
154.68 128.446 120.708
153.253 127.323 120.054
154.485 127.81 119.56
155.609 128.384 119.244
156.835 129.161 120.256
157.781 128.76 119.022
158.872 129.25 120.081
159.994 128.317 119.051
160.668 128.82 120.491
161.742 127.682 120.356
150.876 127.207 122.313
149.303 126.631 122.604
149.9 126.306 121.039
151.353 126.807 120.296
152.756 127.497 121.547
162.307 127.236 121.972
148.57 126.955 124.117
147.26 125.16 124.07
148.261 125.612 123.092
162.698 126.479 123.196
162.75 126.131 124.603
162.981 124.86 123.018
146.817 125.98 125.403
145.178 124.754 126.601
146.046 124.172 125.165
162.524 125.241 125.681
162.875 124.233 124.425
144.187 123.6 127.832
161.985 123.765 125.727
161.708 124.739 127.02
142.011 122.417 130.714
143.484 122.316 128.701
160.811 123.505 127.909
143.552 121.356 131.841
156.04 122.282 131.348
154.613 120.833 130.272
154.43 121.792 131.291
157.515 122.844 130.969
156.517 121.461 130.43
158.955 123.451 130.579
158.234 122.076 129.641
159.629 122.636 128.639
145.288 121.69 132.348
148.962 123.186 133.462
148.297 122.164 132.266
147.563 122.867 133.268
150.542 123.213 132.964
149.562 122.236 131.936
151.982 123.204 132.558
151.204 122.094 131.786
152.888 121.941 131.445
146.218 122.644 133.331
154.266 127.363 118.38
152.931 126.244 117.654
153.907 126.982 117.157
155.071 127.517 116.879
156.302 128.13 117.983
157.196 127.824 116.742
158.393 128.218 117.841
159.293 127.243 116.798
159.587 127.764 117.951
160.622 127.097 117.984
152.497 126.441 119.113
150.944 125.647 118.808
152.01 125.824 118.309
161.629 126.889 119.265
162.672 126.185 120.554
162.653 125.031 119.487
148.463 125.6 121.796
147.576 124.134 122.627
148.604 124.478 120.65
149.924 125.594 119.767
163.059 125.71 121.867
162.926 124.175 121.178
146.695 123.171 123.915
162.814 123.25 122.717
144.844 122.936 126.291
146.043 122.225 125.099
162.59 122.682 124.402
144.757 121.743 127.427
162.015 122.647 125.457
161.155 122.674 126.585
143.171 121.235 130.156
144.622 121.008 128.474
158.707 121.484 128.06
157.622 120.329 127.33
157.459 120.872 128.818
160.099 122.334 127.48
159.5 121.066 126.84
144.782 120.526 130.667
146.037 121.167 131.338
148.158 121.307 131.157
146.846 120.308 130.448
150.033 121.261 130.826
148.675 120.157 130.099
151.671 121.099 130.527
150.357 120.082 129.592
153.243 121.148 130.535
152.318 120.283 129.547
154.256 120.05 129.232
156.163 120.669 129.436
146.86 121.758 132.113
153.691 126.2 116.186
152.624 125.334 115.679
153.671 125.904 114.945
154.734 126.523 114.678
155.797 127.268 115.601
156.761 126.814 114.549
157.764 127.425 115.588
158.65 126.476 114.642
159.078 126.902 115.629
160.269 126.212 115.555
151.427 125.355 117.418
150.283 124.666 117.037
151.571 124.896 116.406
161.114 126.136 116.831
161.923 125.836 118.266
162.405 124.554 117.587
149.402 124.305 118.944
149.015 122.716 118.486
149.179 124.01 117.67
162.662 123.512 119.427
147.865 122.924 121.651
148.805 122.701 120.415
162.799 122.573 121.133
147.412 121.917 123.118
148.343 121.441 122.029
162.411 121.864 122.984
145.824 120.973 126.182
147.031 120.817 124.498
161.776 121.684 124.96
161.779 121.231 123.806
160.805 120.637 124.43
146.334 120.255 127.64
147.163 119.754 126.073
160.683 121.143 126.001
159.656 120.123 125.041
159.04 120.195 126.04
145.495 120.334 129.301
147.314 120.014 129.059
148.117 119.655 127.257
148.881 119.891 128.389
151.114 119.588 128.511
149.82 119.568 127.259
152.951 119.613 128.293
151.688 119.499 127.115
154.806 119.865 128.055
153.617 119.447 126.95
156.318 120.15 127.968
155.521 119.599 126.784
157.415 119.862 126.259
155.812 125.96 112.446
154.483 125.508 111.837
155.716 125.634 111.317
157.036 125.533 111.244
158.055 125.552 112.592
158.517 125.005 111.569
153.656 125.697 113.699
152.002 124.55 114.018
152.799 124.814 112.648
155.683 126.428 113.6
157.73 126.216 113.434
159.562 125.235 112.74
160.068 125.678 114.099
161.054 124.751 112.994
161.55 124.58 114.546
161.897 123.374 113.954
151.406 124.519 115.467
149.874 123.628 115.305
150.48 123.659 114.144
161.729 125.176 115.869
162.25 123.513 115.965
149.319 123.517 116.593
148.595 122.252 116.149
149.015 123.094 115.442
162.574 122.94 117.74
149.427 121.508 117.62
149.822 121.495 118.959
150.842 120.511 118.494
162.585 122.02 119.445
149.561 121.394 120.195
150.612 120.601 119.759
162.248 121.289 121.329
148.43 120.158 123.468
149.281 120.486 121.795
161.475 120.735 122.903
161.364 120.375 121.924
160.277 119.725 122.581
148.554 119.478 124.978
149.823 119.295 123.194
150.521 119.14 124.65
152.688 118.995 124.574
151.5 118.701 123.462
154.604 118.896 124.427
153.316 118.603 123.278
156.324 118.807 124.348
155.195 118.508 123.186
158.054 119.104 124.025
156.922 118.619 123.111
159.672 119.886 123.896
158.736 119.021 122.807
148.704 119.308 126.339
150.19 119.26 125.997
152.179 119.269 125.8
154.035 119.22 125.635
155.818 119.123 125.482
157.76 119.388 125.091
155.832 124.984 110.284
153.931 124.871 110.124
154.925 124.683 109.009
156.649 124.464 108.938
158.031 124.461 110.389
158.483 123.728 108.936
159.806 124.005 110.588
160.041 123.403 109.597
151.289 123.743 111.483
150.023 122.966 110.945
151.14 123.455 110.334
152.195 124.221 110.086
153.246 124.901 111.245
159.985 124.536 111.676
160.949 123.286 111.157
161.339 123.653 112.319
161.688 122.275 112.214
149.427 122.803 112.773
147.775 121.617 113.199
148.44 122.062 111.795
150.999 123.601 112.886
162.289 122.193 114.363
148.785 122.616 114.343
148.158 120.823 114.536
162.501 121.979 116.199
148.981 120.81 115.781
149.24 121.213 116.707
150.359 120.32 116.943
162.279 121.271 117.864
151.816 119.643 119.649
151.675 119.789 117.78
152.897 118.972 118.408
162.055 120.686 119.729
150.692 120.052 120.942
152.354 118.982 120.95
153.251 118.782 119.647
161.289 119.974 121.033
161.188 119.474 119.783
160.157 119.095 120.508
150.675 119.458 122.127
152.239 118.979 122.174
153.809 118.578 120.792
154.148 118.651 121.999
156.153 118.397 121.923
155.336 118.254 120.709
157.931 118.669 121.672
157.103 118.189 120.473
159.591 119.244 121.521
158.724 118.462 120.35
152.926 124.11 107.585
151.744 123.479 106.92
152.899 123.965 106.228
154.206 124.007 106.182
155.058 124.413 107.726
156.032 123.726 106.309
157.059 123.945 107.689
157.821 123.249 106.606
158.563 123.36 107.638
159.639 122.101 107.393
151.089 123.343 109.121
149.157 121.92 109.351
150.348 122.548 108.041
153.226 124.388 108.888
159.98 122.556 108.78
160.931 122.58 110.431
160.986 121.645 110.482
148.918 122.141 110.48
147.108 121.007 111.63
147.148 120.782 110.031
161.877 120.911 112.467
147.386 119.714 112.897
162.168 120.658 114.377
148.826 119.607 113.865
149.805 119.736 115.263
151.411 119.25 115.195
150.45 118.997 114.052
152.354 118.643 114.428
162.161 120.386 115.987
151.464 119.604 116.316
152.642 118.782 115.872
161.52 119.803 117.263
160.928 119.28 115.613
160.342 118.839 116.641
154.507 118.225 118.375
153.139 118.671 117.097
156.192 117.839 118.17
154.767 117.866 117.09
156.343 117.797 116.649
159.957 118.783 118.043
159.046 118.411 116.404
158.521 118.183 117.63
161.442 119.868 118.656
154.756 118.144 119.622
156.366 117.984 119.417
157.365 117.964 117.594
158.192 118.034 119.074
160.002 118.722 119.407
153.183 123.356 105.172
151.516 122.792 105.105
152.663 122.733 103.669
154.411 122.633 103.637
155.246 123.224 105.008
156.347 122.342 103.814
157.1 123.028 105.314
157.939 121.979 104.789
158.702 122.421 106.076
159.285 121.256 105.835
148.932 121.296 106.989
147.84 120.556 106.727
148.926 121.076 105.673
149.953 121.838 105.311
150.662 122.617 106.553
160.082 120.338 107.29
146.624 120.259 108.785
145.087 119.069 108.896
146.277 119.638 107.448
148.753 121.413 108.356
160.439 121.095 108.773
160.81 120.545 110.273
145.636 118.703 110.667
146.888 118.743 111.231
161.192 119.917 111.368
160.81 119.544 110
160.314 118.832 110.737
148.341 118.586 112.076
149.751 118.903 112.915
151.882 118.406 113.149
150.363 117.973 111.872
153.658 118.019 112.986
152.188 117.808 111.723
153.722 117.93 111.568
161.188 119.594 112.648
159.661 118.755 111.93
153.923 118.079 114.424
155.031 118.318 112.424
155.762 118.327 113.785
157.833 118.768 113.478
156.433 118.636 112.214
159.699 118.986 113.35
158.11 118.671 112.026
161.113 119.526 114.329
154.024 117.962 115.877
155.59 117.841 115.428
157.202 118.464 114.609
159.308 118.728 114.852
157.703 118.226 115.794
151.033 121.534 102.494
149.715 120.705 102.185
150.967 121.129 101.399
152.501 121.142 101.235
153.361 121.947 102.362
154.552 120.86 101.128
155.363 121.833 102.45
156.076 120.416 101.686
157.028 121.275 102.856
157.454 119.712 102.563
149.138 120.964 104.227
146.998 120.052 104.268
148.46 120.519 103.341
150.998 122.394 103.536
158.213 120.86 104.089
159.262 119.814 105.514
146.972 120.013 106.002
144.849 117.887 107.366
145.484 119.635 105.826
159.374 119 106.691
145.367 117.185 108.858
160.143 119.468 108.816
159.262 118.829 107.928
145.81 117.596 110.049
149.006 117.466 111.107
147.499 117.155 110.435
151.168 116.997 110.81
149.692 116.727 109.897
153.315 117.427 110.453
151.756 116.799 109.352
155.457 117.872 109.89
153.895 117.436 108.897
157.378 118.141 109.571
155.931 117.824 108.367
159.269 118.407 109.352
157.797 117.937 108.199
155.122 118.19 110.944
156.817 118.568 110.84
158.579 118.544 110.712
150.974 120.453 100.473
149.224 119.893 100.527
150.638 119.927 99.4659
152.283 119.767 98.8785
153.298 120.437 100.018
154.229 119.342 98.9872
155.039 119.721 100.172
155.71 118.036 99.7344
147.845 119.973 102.562
146.396 119.259 102.808
147.803 119.479 101.481
156.159 119.007 101.073
156.961 118.259 102.413
143.221 118.393 105.61
142.476 116.771 104.684
143.296 118.42 103.863
144.785 118.844 103.275
144.87 119.373 105.035
158.51 119.27 104.101
157.673 118.121 103.88
143.147 116.769 106.935
146.517 116.195 108.154
145.024 115.815 106.983
148.575 116.11 107.774
147.192 115.707 106.819
149.258 115.907 106.311
158.506 118.363 105.437
157.305 117.501 105.343
146.915 116.435 109.47
148.618 116.248 109.14
150.409 116.182 107.013
150.805 116.391 108.173
152.894 116.835 107.738
152.194 116.386 106.41
154.963 117.502 107.298
153.883 116.827 106.146
157.126 117.615 106.821
155.782 117.236 105.855
158.605 118.087 107.028
150.156 119.331 98.5815
148.792 119.007 98.1636
149.806 118.372 96.0529
151.235 118.678 96.6253
152.238 118.938 97.85
153.163 117.742 96.6914
147.904 119.153 100.19
147.018 118.427 99.4416
147.964 118.656 98.6127
154.127 118.235 98.1515
155.159 116.959 99.0024
143.892 117.994 102.421
142.529 116.979 102.688
143.958 117.529 101.236
145.409 117.875 100.61
146.062 118.656 101.577
156.17 117.157 101.718
155.463 116.184 101.035
143.625 115.601 103.925
143.45 115.74 105.813
145.148 115.398 105.152
146.067 115.331 103.528
147.165 115.179 104.049
155.096 116.258 103.422
154.582 115.743 102.34
153.229 115.533 103.525
156.591 117.289 103.233
146.826 115.492 105.561
151.134 115.715 105.507
149.028 115.398 105.165
153.231 116.085 104.836
151.288 115.281 104.355
154.888 116.779 104.937
156.281 117.152 104.448
148.168 118.098 96.9106
147.198 117.308 96.7064
148.686 116.975 95.069
150.619 117.08 94.8033
151.969 117.288 95.6506
153.163 115.881 96.4413
144.453 117.239 99.7663
143.71 116.518 98.8942
144.758 116.707 97.9085
145.815 117.003 97.3952
146.323 117.757 98.5801
154.244 116.463 97.6522
154.513 115.713 99.6469
142.57 116.665 101.05
142.124 114.883 100.883
142.424 116.184 99.59
153.908 115.347 101.432
153.715 115.098 100.007
152.865 114.7 100.676
142.828 115.39 102.673
144.502 114.777 102.339
146.112 114.719 102.37
148.787 114.889 103.894
147.981 114.369 102.521
150.646 114.928 103.404
149.7 114.146 102.264
152.324 115.095 102.597
151.421 114.382 101.585
145.106 116.17 96.0932
143.706 115.759 96.3199
145.104 115.04 94.6721
147.117 115.755 94.5744
146.79 116.627 95.7418
148.874 115.161 94.1338
150.224 115.511 94.3284
151.735 115.505 95.1317
152.517 114.437 96.312
141.771 115.187 99.0171
140.57 114.511 98.3818
141.495 114.767 97.5507
142.364 115.252 96.8934
143.093 115.847 98.2907
153.607 114.949 98.5276
152.785 114.057 97.8893
141.698 113.535 99.9104
143.98 114.102 101.391
143.403 113.066 100.31
145.905 113.888 101.211
145.212 112.664 100.247
147.647 113.54 101.287
147 112.457 100.154
149.293 113.375 100.836
148.442 112.338 99.8703
150.738 113.691 100.348
149.791 112.408 99.1203
152.232 114.111 99.6462
151.283 113.132 98.9284
141.265 114.348 95.9002
139.853 112.843 95.6638
142.126 112.753 94.8792
143.462 113.631 94.4575
143.15 114.96 95.2455
145.278 113.441 94.0173
146.71 114.162 93.9704
148.362 113.519 93.6546
150.074 113.698 94.0912
151.354 113.75 95.445
150.688 112.626 95.4819
139.769 114.064 97.1103
138.904 112.989 98.2271
138.829 112.314 96.5621
150.991 112.484 97.4139
149.947 111.713 96.3443
149.538 111.474 97.7656
152.155 113.409 97.3084
140.276 112.986 99.0835
141.897 111.923 99.2273
143.309 111.836 99.3292
144.941 111.419 99.3732
146.651 111.332 99.3027
148.268 111.071 98.4835
141.062 111.497 95.5561
142.643 111.028 95.2198
143.679 111.616 94.6134
144.94 111.924 94.0852
146.775 112.323 93.8675
148.232 111.827 94.3817
147.581 110.417 95.1145
149.472 112.024 94.788
139.304 111.296 98.247
139.954 110.67 96.4916
148.847 110.708 96.2679
147.639 110.175 97.124
140.803 111.054 98.6382
142.852 110.622 98.5143
144.551 110.243 98.4614
146.362 110.115 98.217
141.959 110.082 96.2842
143.599 110.086 95.8827
144.866 110.508 95.3303
146.112 110.724 94.6532
141.401 110.187 97.7288
143.172 109.578 97.4369
144.869 109.466 97.1417
146.274 109.631 96.3122
POLYGONS 1460  5840
3 0 1 2
3 0 3 4
3 2 3 0
3 4 5 6
3 3 5 4
3 5 7 6
3 8 1 0
3 9 1 8
3 4 10 0
3 10 8 0
3 6 11 4
3 11 10 4
3 12 6 7
3 11 6 12
3 13 14 15
3 9 13 15
3 9 8 13
3 8 16 13
3 10 17 8
3 17 16 8
3 11 18 10
3 18 17 10
3 19 11 12
3 18 11 19
3 20 14 13
3 21 14 20
3 16 22 13
3 22 20 13
3 23 17 24
3 23 22 17
3 22 16 17
3 18 24 17
3 25 24 18
3 19 25 18
3 20 26 21
3 22 26 20
3 27 26 22
3 23 27 22
3 28 29 30
3 28 31 32
3 30 31 28
3 32 33 34
3 31 33 32
3 34 35 36
3 33 35 34
3 35 37 36
3 38 39 40
3 29 38 40
3 28 38 29
3 28 1 38
3 28 2 1
3 3 2 28
3 32 3 28
3 5 3 32
3 34 5 32
3 7 5 34
3 7 34 41
3 41 34 36
3 42 36 37
3 41 36 42
3 43 44 45
3 39 43 45
3 39 38 43
3 38 46 43
3 1 9 46
3 38 1 46
3 41 47 12
3 7 41 12
3 48 41 42
3 47 41 48
3 49 44 43
3 50 44 49
3 15 14 49
3 15 49 46
3 46 49 43
3 9 15 46
3 47 51 52
3 47 52 12
3 12 52 19
3 48 51 47
3 53 50 49
3 54 50 53
3 14 21 53
3 49 14 53
3 55 56 57
3 55 23 24
3 55 24 56
3 56 24 58
3 25 59 24
3 24 59 58
3 52 25 19
3 59 25 52
3 53 60 54
3 21 60 53
3 21 26 60
3 26 61 60
3 57 27 55
3 57 61 27
3 61 26 27
3 23 55 27
3 62 63 64
3 62 65 66
3 64 65 62
3 65 67 66
3 68 69 70
3 68 71 72
3 70 71 68
3 72 73 74
3 71 73 72
3 63 74 73
3 63 62 74
3 62 75 74
3 66 76 62
3 76 75 62
3 77 66 67
3 77 78 66
3 78 76 66
3 77 79 78
3 80 81 82
3 69 80 82
3 69 68 80
3 68 83 80
3 30 29 83
3 30 83 72
3 72 83 68
3 31 30 72
3 74 31 72
3 33 31 74
3 75 33 74
3 35 33 75
3 76 35 75
3 37 35 76
3 37 76 84
3 84 76 78
3 85 78 79
3 84 78 85
3 86 87 88
3 81 86 88
3 81 80 86
3 80 89 86
3 40 39 89
3 40 89 83
3 83 89 80
3 29 40 83
3 84 90 42
3 37 84 42
3 91 84 85
3 90 84 91
3 92 87 86
3 93 87 92
3 45 44 92
3 45 92 89
3 89 92 86
3 39 45 89
3 90 94 95
3 90 95 42
3 42 95 48
3 91 94 90
3 96 97 98
3 93 96 98
3 93 92 96
3 92 99 96
3 44 50 99
3 92 44 99
3 51 100 101
3 52 51 101
3 95 51 48
3 100 51 95
3 96 102 97
3 102 103 104
3 102 96 103
3 96 99 103
3 50 54 103
3 99 50 103
3 105 106 107
3 105 57 56
3 105 56 106
3 106 56 108
3 58 109 56
3 56 109 108
3 59 110 58
3 58 110 109
3 101 59 52
3 110 59 101
3 103 111 104
3 54 111 103
3 54 60 111
3 60 112 111
3 107 61 105
3 107 112 61
3 112 60 61
3 57 105 61
3 113 114 115
3 113 116 117
3 115 116 113
3 117 118 119
3 116 118 117
3 119 120 121
3 118 120 119
3 120 122 121
3 123 124 125
3 123 126 127
3 125 126 123
3 114 127 126
3 114 113 127
3 113 128 127
3 64 63 128
3 64 128 117
3 117 128 113
3 65 64 117
3 119 65 117
3 67 65 119
3 67 119 129
3 129 119 121
3 130 121 122
3 129 121 130
3 131 132 133
3 124 131 133
3 123 131 124
3 123 69 131
3 123 70 69
3 71 70 123
3 127 71 123
3 73 71 127
3 128 73 127
3 63 73 128
3 67 129 77
3 129 79 77
3 129 130 79
3 130 134 79
3 135 136 137
3 132 135 137
3 131 135 132
3 131 81 135
3 131 82 81
3 69 82 131
3 79 134 85
3 134 138 85
3 139 140 141
3 136 139 141
3 135 139 136
3 135 87 139
3 135 88 87
3 81 88 135
3 85 138 91
3 138 142 91
3 143 140 139
3 144 140 143
3 87 93 143
3 139 87 143
3 94 145 146
3 95 94 146
3 142 94 91
3 145 94 142
3 98 144 143
3 98 97 144
3 97 147 144
3 93 98 143
3 148 149 150
3 148 151 152
3 149 148 152
3 151 153 154
3 152 151 154
3 153 101 100
3 153 100 154
3 154 100 155
3 146 100 95
3 155 100 146
3 97 156 147
3 102 156 97
3 104 157 158
3 104 158 102
3 102 158 156
3 157 159 160
3 158 157 160
3 159 107 106
3 159 106 160
3 160 106 161
3 150 108 148
3 150 161 108
3 161 106 108
3 109 148 108
3 151 148 109
3 110 151 109
3 153 151 110
3 101 153 110
3 104 111 157
3 112 157 111
3 159 157 112
3 107 159 112
3 162 163 164
3 162 165 166
3 164 165 162
3 166 167 168
3 165 167 166
3 168 169 170
3 167 169 168
3 169 171 170
3 172 173 174
3 172 175 176
3 174 175 172
3 163 176 175
3 162 176 163
3 162 114 176
3 162 115 114
3 116 115 162
3 166 116 162
3 118 116 166
3 168 118 166
3 120 118 168
3 170 120 168
3 170 122 120
3 170 171 122
3 171 177 122
3 178 179 180
3 173 178 180
3 172 178 173
3 172 124 178
3 172 125 124
3 126 125 172
3 176 126 172
3 114 126 176
3 181 182 130
3 181 130 177
3 177 130 122
3 181 183 182
3 184 185 186
3 179 184 186
3 178 184 179
3 178 132 184
3 178 133 132
3 124 133 178
3 182 187 134
3 130 182 134
3 188 182 183
3 187 182 188
3 137 185 184
3 137 136 185
3 136 189 185
3 132 137 184
3 187 190 191
3 187 191 134
3 134 191 138
3 188 190 187
3 141 192 193
3 140 192 141
3 189 136 141
3 193 189 141
3 138 191 142
3 191 194 142
3 140 144 192
3 192 144 195
3 196 197 198
3 196 199 200
3 197 196 200
3 199 201 202
3 200 199 202
3 201 146 145
3 201 145 202
3 202 145 203
3 194 145 142
3 203 145 194
3 144 147 195
3 195 147 204
3 205 206 207
3 205 208 209
3 206 205 209
3 208 210 211
3 209 208 211
3 210 150 149
3 210 149 211
3 211 149 212
3 198 152 196
3 198 212 152
3 212 149 152
3 154 196 152
3 199 196 154
3 155 199 154
3 201 199 155
3 146 201 155
3 147 213 204
3 156 213 147
3 207 158 205
3 207 213 158
3 213 156 158
3 160 205 158
3 208 205 160
3 161 208 160
3 210 208 161
3 150 210 161
3 214 215 216
3 214 217 218
3 216 217 214
3 218 219 220
3 217 219 218
3 220 221 222
3 219 221 220
3 221 223 222
3 224 225 226
3 215 224 226
3 214 224 215
3 214 163 224
3 214 164 163
3 165 164 214
3 218 165 214
3 167 165 218
3 220 167 218
3 169 167 220
3 222 169 220
3 171 227 228
3 169 227 171
3 169 223 227
3 169 222 223
3 227 229 228
3 230 231 232
3 230 174 173
3 230 232 174
3 232 233 174
3 225 224 175
3 225 175 233
3 233 175 174
3 163 175 224
3 228 234 177
3 171 228 177
3 235 228 229
3 234 228 235
3 180 231 230
3 180 179 231
3 179 236 231
3 173 180 230
3 177 234 181
3 234 183 181
3 234 235 183
3 235 237 183
3 186 238 239
3 185 238 186
3 236 179 186
3 239 236 186
3 183 237 188
3 237 240 188
3 185 189 238
3 238 189 241
3 190 242 243
3 191 190 243
3 240 190 188
3 242 190 240
3 193 244 245
3 192 244 193
3 241 189 193
3 245 241 193
3 246 247 248
3 246 249 250
3 247 246 250
3 249 243 250
3 249 194 243
3 194 191 243
3 251 195 252
3 251 244 195
3 244 192 195
3 252 253 254
3 251 252 254
3 253 255 256
3 254 253 256
3 255 257 258
3 256 255 258
3 257 259 260
3 258 257 260
3 259 198 197
3 259 197 260
3 260 197 261
3 200 262 197
3 197 262 261
3 248 202 246
3 248 262 202
3 262 200 202
3 203 246 202
3 249 246 203
3 194 249 203
3 252 204 263
3 195 204 252
3 206 263 207
3 206 253 263
3 253 252 263
3 209 253 206
3 255 253 209
3 211 255 209
3 257 255 211
3 212 257 211
3 259 257 212
3 198 259 212
3 204 213 263
3 207 263 213
3 264 265 266
3 264 267 268
3 266 267 264
3 268 269 270
3 267 269 268
3 270 271 272
3 269 271 270
3 271 273 272
3 274 275 276
3 265 274 276
3 264 274 265
3 264 215 274
3 264 216 215
3 217 216 264
3 268 217 264
3 219 217 268
3 270 219 268
3 221 219 270
3 272 221 270
3 223 277 278
3 221 277 223
3 221 273 277
3 221 272 273
3 277 279 278
3 280 281 282
3 275 280 282
3 274 280 275
3 274 225 280
3 274 226 225
3 215 226 274
3 223 278 227
3 278 229 227
3 278 279 229
3 279 283 229
3 232 231 284
3 280 285 281
3 280 232 285
3 280 233 232
3 284 285 232
3 225 233 280
3 229 283 235
3 283 286 235
3 284 287 288
3 284 231 287
3 231 236 287
3 285 284 288
3 235 286 237
3 286 289 237
3 239 238 290
3 239 290 291
3 239 291 236
3 236 291 287
3 292 293 294
3 292 289 293
3 292 240 289
3 240 237 289
3 290 241 295
3 238 241 290
3 296 291 290
3 295 296 290
3 297 298 299
3 294 298 297
3 292 294 297
3 292 297 243
3 292 243 242
3 240 292 242
3 245 244 300
3 245 295 241
3 245 300 295
3 300 301 295
3 302 296 295
3 302 295 303
3 303 295 301
3 303 304 305
3 302 303 305
3 304 306 307
3 305 304 307
3 306 308 309
3 307 306 309
3 308 310 311
3 309 308 311
3 310 248 247
3 310 247 311
3 311 247 312
3 299 250 297
3 299 312 250
3 312 247 250
3 243 297 250
3 244 251 300
3 254 300 251
3 301 300 254
3 256 301 254
3 303 301 256
3 258 303 256
3 304 303 258
3 260 304 258
3 306 304 260
3 261 306 260
3 308 306 261
3 262 308 261
3 310 308 262
3 248 310 262
3 313 314 315
3 313 316 317
3 315 316 313
3 316 318 317
3 319 320 321
3 314 319 321
3 314 313 319
3 313 322 319
3 317 323 313
3 323 322 313
3 324 317 318
3 324 325 317
3 325 323 317
3 325 326 327
3 324 326 325
3 326 328 327
3 329 330 331
3 320 329 331
3 319 329 320
3 319 265 329
3 319 266 265
3 267 266 319
3 322 267 319
3 269 267 322
3 323 269 322
3 271 269 323
3 325 271 323
3 273 271 325
3 273 325 332
3 332 325 327
3 333 327 328
3 332 327 333
3 334 335 336
3 330 334 336
3 329 334 330
3 329 275 334
3 329 276 275
3 265 276 329
3 273 332 277
3 332 279 277
3 332 333 279
3 333 337 279
3 338 281 339
3 338 335 281
3 282 281 334
3 334 281 335
3 282 334 275
3 339 340 338
3 279 337 283
3 337 341 283
3 339 342 343
3 339 281 342
3 281 285 342
3 340 339 343
3 283 341 286
3 341 344 286
3 288 287 345
3 288 345 346
3 288 346 285
3 285 346 342
3 347 348 349
3 347 344 348
3 347 289 344
3 289 286 344
3 345 291 350
3 287 291 345
3 351 346 345
3 351 345 352
3 352 345 350
3 352 353 354
3 351 352 354
3 353 355 356
3 354 353 356
3 355 357 358
3 356 355 358
3 357 359 360
3 358 357 360
3 359 361 362
3 360 359 362
3 349 362 361
3 347 349 361
3 347 361 294
3 347 294 293
3 289 347 293
3 350 296 363
3 291 296 350
3 352 350 364
3 364 350 363
3 353 352 365
3 365 352 364
3 355 353 366
3 366 353 365
3 357 355 367
3 367 355 366
3 359 357 368
3 368 357 367
3 298 368 299
3 298 361 368
3 361 359 368
3 294 361 298
3 296 302 363
3 305 363 302
3 364 363 305
3 307 364 305
3 365 364 307
3 309 365 307
3 366 365 309
3 311 366 309
3 367 366 311
3 312 367 311
3 368 367 312
3 299 368 312
3 369 370 371
3 369 372 373
3 371 372 369
3 373 374 375
3 372 374 373
3 374 376 375
3 377 378 379
3 377 380 381
3 379 380 377
3 370 381 380
3 369 381 370
3 369 314 381
3 369 315 314
3 316 315 369
3 373 316 369
3 318 316 373
3 318 373 382
3 382 373 375
3 383 375 376
3 383 384 375
3 384 382 375
3 383 385 384
3 386 387 388
3 378 386 388
3 378 377 386
3 377 389 386
3 321 320 389
3 321 389 381
3 381 389 377
3 314 321 381
3 318 382 324
3 326 324 382
3 384 326 382
3 384 328 326
3 384 385 328
3 385 390 328
3 391 387 386
3 392 387 391
3 331 330 391
3 331 391 389
3 389 391 386
3 320 331 389
3 328 390 333
3 390 393 333
3 394 335 395
3 394 392 335
3 336 335 391
3 391 335 392
3 336 391 330
3 395 396 394
3 333 393 337
3 393 397 337
3 335 338 395
3 340 398 399
3 338 340 399
3 338 399 396
3 338 396 395
3 399 398 400
3 337 397 341
3 397 401 341
3 343 342 402
3 343 398 340
3 343 402 398
3 402 403 398
3 404 400 398
3 403 404 398
3 405 406 407
3 405 401 406
3 405 344 401
3 344 341 401
3 402 346 408
3 342 346 402
3 403 402 409
3 409 402 408
3 410 404 403
3 410 403 411
3 411 403 409
3 411 412 413
3 410 411 413
3 412 414 415
3 413 412 415
3 414 416 417
3 415 414 417
3 407 417 416
3 405 407 416
3 405 416 349
3 405 349 348
3 344 405 348
3 346 351 408
3 354 408 351
3 409 408 354
3 356 409 354
3 411 409 356
3 358 411 356
3 412 411 358
3 360 412 358
3 414 412 360
3 362 414 360
3 416 414 362
3 349 416 362
3 418 419 420
3 418 421 422
3 420 421 418
3 422 423 424
3 421 423 422
3 424 425 426
3 423 425 424
3 425 427 426
3 428 429 430
3 419 428 430
3 419 418 428
3 418 431 428
3 371 370 431
3 371 431 422
3 422 431 418
3 372 371 422
3 424 372 422
3 374 372 424
3 426 374 424
3 376 432 433
3 374 432 376
3 374 427 432
3 374 426 427
3 432 434 433
3 435 436 437
3 429 435 437
3 428 435 429
3 428 378 435
3 428 379 378
3 380 379 428
3 431 380 428
3 370 380 431
3 376 433 383
3 433 385 383
3 433 434 385
3 434 438 385
3 388 436 435
3 388 387 436
3 387 439 436
3 378 388 435
3 385 438 390
3 438 440 390
3 441 392 442
3 441 439 392
3 439 387 392
3 442 443 444
3 441 442 444
3 444 443 445
3 390 440 393
3 440 446 393
3 392 394 442
3 396 442 394
3 396 447 442
3 447 443 442
3 448 445 443
3 447 448 443
3 449 450 451
3 449 446 450
3 449 397 446
3 397 393 446
3 396 399 447
3 400 452 453
3 399 400 453
3 399 453 448
3 399 448 447
3 452 454 455
3 453 452 455
3 455 454 456
3 457 458 459
3 451 458 457
3 451 457 449
3 449 457 460
3 397 460 401
3 449 460 397
3 452 404 461
3 400 404 452
3 454 452 462
3 462 452 461
3 463 456 454
3 463 454 464
3 464 454 462
3 459 463 464
3 459 464 457
3 457 464 465
3 406 465 407
3 406 460 465
3 460 457 465
3 401 460 406
3 404 410 461
3 413 461 410
3 462 461 413
3 415 462 413
3 464 462 415
3 417 464 415
3 465 464 417
3 407 465 417
3 466 467 468
3 466 469 470
3 468 469 466
3 470 471 472
3 469 471 470
3 472 473 474
3 471 473 472
3 473 475 474
3 476 477 478
3 476 479 480
3 478 479 476
3 467 480 479
3 466 480 467
3 466 419 480
3 466 420 419
3 421 420 466
3 470 421 466
3 423 421 470
3 472 423 470
3 425 423 472
3 474 425 472
3 474 427 425
3 474 475 427
3 475 481 427
3 482 483 484
3 477 482 484
3 477 476 482
3 476 485 482
3 430 429 485
3 430 485 480
3 480 485 476
3 419 430 480
3 427 481 486
3 432 427 486
3 486 434 432
3 487 434 486
3 482 488 483
3 437 436 489
3 437 489 482
3 437 482 485
3 482 489 488
3 429 437 485
3 490 491 492
3 490 487 491
3 490 438 487
3 438 434 487
3 493 439 494
3 493 489 439
3 489 436 439
3 494 495 496
3 493 494 496
3 495 497 498
3 496 495 498
3 498 497 499
3 500 490 492
3 501 500 492
3 438 500 440
3 490 500 438
3 439 441 494
3 444 494 441
3 495 494 444
3 445 495 444
3 445 502 495
3 502 497 495
3 503 499 497
3 503 497 504
3 504 497 502
3 504 505 506
3 503 504 506
3 505 507 508
3 506 505 508
3 501 508 507
3 501 507 500
3 500 507 509
3 440 509 446
3 500 509 440
3 502 448 510
3 445 448 502
3 504 502 511
3 511 502 510
3 505 504 512
3 512 504 511
3 507 505 513
3 513 505 512
3 450 513 451
3 450 509 513
3 509 507 513
3 446 509 450
3 448 453 510
3 455 510 453
3 511 510 455
3 456 511 455
3 456 514 511
3 514 512 511
3 458 514 459
3 458 513 514
3 513 512 514
3 451 513 458
3 456 463 514
3 459 514 463
3 515 516 517
3 515 518 519
3 517 518 515
3 519 520 521
3 518 520 519
3 521 522 523
3 520 522 521
3 522 524 523
3 525 526 527
3 516 525 527
3 516 515 525
3 515 528 525
3 468 467 528
3 468 528 519
3 519 528 515
3 469 468 519
3 521 469 519
3 471 469 521
3 523 471 521
3 523 524 529
3 523 529 471
3 471 529 473
3 529 475 473
3 530 475 529
3 531 532 533
3 526 531 533
3 525 531 526
3 525 477 531
3 525 478 477
3 479 478 525
3 528 479 525
3 467 479 528
3 475 530 481
3 530 534 481
3 484 532 531
3 484 483 532
3 483 535 532
3 477 484 531
3 536 486 481
3 536 481 537
3 537 481 534
3 486 536 487
3 483 538 535
3 488 538 483
3 489 539 540
3 489 540 488
3 488 540 538
3 539 541 542
3 540 539 542
3 541 543 544
3 542 541 544
3 543 545 546
3 544 543 546
3 545 547 548
3 546 545 548
3 547 549 550
3 548 547 550
3 537 550 549
3 536 537 549
3 536 549 492
3 536 492 491
3 487 536 491
3 489 493 539
3 496 539 493
3 541 539 496
3 498 541 496
3 543 541 498
3 499 543 498
3 499 551 543
3 551 545 543
3 547 545 552
3 552 545 551
3 549 547 553
3 553 547 552
3 492 553 501
3 549 553 492
3 499 503 551
3 506 551 503
3 552 551 506
3 508 552 506
3 553 552 508
3 501 553 508
3 554 555 556
3 554 557 558
3 556 557 554
3 558 559 560
3 557 559 558
3 559 561 560
3 562 563 564
3 555 562 564
3 554 562 555
3 554 516 562
3 554 517 516
3 518 517 554
3 558 518 554
3 520 518 558
3 560 520 558
3 560 561 565
3 560 565 520
3 520 565 522
3 565 524 522
3 566 524 565
3 567 568 569
3 567 570 571
3 569 570 567
3 563 571 570
3 562 571 563
3 562 526 571
3 562 527 526
3 516 527 562
3 572 529 524
3 572 524 573
3 573 524 566
3 529 572 530
3 567 574 568
3 571 532 567
3 571 533 532
3 567 532 574
3 575 576 532
3 574 532 576
3 575 577 578
3 575 578 576
3 571 526 533
3 578 577 579
3 580 572 573
3 581 580 573
3 530 580 534
3 572 580 530
3 575 535 582
3 532 535 575
3 577 575 583
3 583 575 582
3 584 579 577
3 584 577 585
3 585 577 583
3 585 586 587
3 584 585 587
3 586 588 589
3 587 586 589
3 588 590 591
3 589 588 591
3 581 591 590
3 581 590 580
3 580 590 592
3 534 592 537
3 580 592 534
3 535 538 582
3 540 582 538
3 583 582 540
3 542 583 540
3 585 583 542
3 544 585 542
3 586 585 544
3 546 586 544
3 588 586 546
3 548 588 546
3 590 588 548
3 550 590 548
3 592 590 550
3 537 592 550
3 593 594 595
3 593 596 597
3 595 596 593
3 596 598 597
3 599 600 601
3 594 599 601
3 593 599 594
3 593 555 599
3 593 556 555
3 557 556 593
3 597 557 593
3 597 598 602
3 597 602 557
3 557 602 559
3 602 561 559
3 603 561 602
3 604 605 606
3 604 607 608
3 606 607 604
3 600 608 607
3 599 608 600
3 599 563 608
3 599 564 563
3 555 564 599
3 609 565 561
3 609 561 610
3 610 561 603
3 565 609 566
3 611 568 612
3 611 605 568
3 569 568 604
3 604 568 605
3 613 614 611
3 613 611 612
3 608 570 604
3 604 570 569
3 570 608 563
3 613 615 614
3 616 617 618
3 610 617 616
3 610 616 609
3 609 616 619
3 566 619 573
3 609 619 566
3 568 574 612
3 576 612 574
3 613 612 576
3 613 620 615
3 613 576 620
3 576 578 620
3 579 621 622
3 579 622 578
3 578 622 620
3 621 623 624
3 622 621 624
3 618 624 623
3 618 623 616
3 616 623 625
3 619 616 626
3 626 616 625
3 573 626 581
3 619 626 573
3 579 584 621
3 587 621 584
3 623 621 587
3 589 623 587
3 625 623 589
3 591 625 589
3 626 625 591
3 581 626 591
3 627 628 629
3 627 595 594
3 627 629 595
3 629 630 595
3 596 595 631
3 595 630 631
3 631 598 596
3 632 598 631
3 633 634 635
3 633 636 637
3 635 636 633
3 628 637 636
3 627 637 628
3 627 600 637
3 627 601 600
3 594 601 627
3 598 632 638
3 602 598 638
3 638 603 602
3 639 603 638
3 640 641 642
3 634 640 642
3 633 640 634
3 633 605 640
3 633 606 605
3 607 606 633
3 637 607 633
3 600 607 637
3 643 644 645
3 643 639 644
3 643 610 639
3 610 603 639
3 640 646 641
3 605 646 640
3 605 611 646
3 611 647 646
3 614 648 611
3 611 648 647
3 615 649 650
3 615 650 614
3 614 650 648
3 649 651 652
3 650 649 652
3 651 653 654
3 652 651 654
3 645 654 653
3 643 645 653
3 643 653 618
3 643 618 617
3 610 643 617
3 615 620 649
3 622 649 620
3 651 649 622
3 624 651 622
3 653 651 624
3 618 653 624
3 655 656 657
3 655 658 659
3 657 658 655
3 659 629 628
3 659 658 629
3 658 660 629
3 630 629 661
3 629 660 661
3 631 630 662
3 630 661 662
3 662 632 631
3 663 632 662
3 664 665 666
3 664 667 668
3 666 667 664
3 656 668 667
3 655 668 656
3 655 634 668
3 655 635 634
3 636 635 655
3 659 636 655
3 628 636 659
3 669 638 632
3 669 632 670
3 670 632 663
3 638 669 639
3 664 671 665
3 668 641 664
3 668 642 641
3 664 641 671
3 672 673 641
3 671 641 673
3 672 674 675
3 672 675 673
3 668 634 642
3 674 676 677
3 675 674 677
3 676 678 679
3 677 676 679
3 678 680 681
3 679 678 681
3 680 682 683
3 681 680 683
3 670 683 682
3 669 670 682
3 669 682 645
3 669 645 644
3 639 669 644
3 641 646 672
3 647 672 646
3 674 672 647
3 648 674 647
3 676 674 648
3 650 676 648
3 678 676 650
3 652 678 650
3 680 678 652
3 654 680 652
3 682 680 654
3 645 682 654
3 684 685 686
3 684 687 688
3 686 687 684
3 688 657 656
3 688 687 657
3 687 689 657
3 658 657 690
3 657 689 690
3 660 658 691
3 658 690 691
3 661 660 692
3 660 691 692
3 693 692 694
3 693 662 692
3 662 661 692
3 662 693 663
3 695 696 697
3 685 695 697
3 684 695 685
3 684 665 695
3 684 666 665
3 667 666 684
3 688 667 684
3 656 667 688
3 698 699 700
3 694 699 698
3 694 698 693
3 693 698 701
3 663 701 670
3 693 701 663
3 695 702 696
3 665 702 695
3 665 671 702
3 671 703 702
3 673 704 671
3 671 704 703
3 675 705 673
3 673 705 704
3 677 706 675
3 675 706 705
3 679 707 677
3 677 707 706
3 700 681 698
3 700 707 681
3 707 679 681
3 683 698 681
3 701 698 683
3 670 701 683
3 686 708 709
3 685 708 686
3 687 686 710
3 686 709 710
3 689 687 711
3 687 710 711
3 690 689 712
3 689 711 712
3 713 712 714
3 713 691 712
3 691 690 712
3 691 715 692
3 713 715 691
3 692 715 694
3 697 696 716
3 697 716 717
3 697 717 685
3 685 717 708
3 718 713 714
3 719 718 714
3 699 718 700
3 699 715 718
3 715 713 718
3 694 715 699
3 696 702 716
3 716 720 717
3 716 702 720
3 702 703 720
3 704 721 703
3 703 721 720
3 705 722 704
3 704 722 721
3 706 723 705
3 705 723 722
3 719 707 718
3 719 723 707
3 723 706 707
3 700 718 707
3 709 708 724
3 709 725 710
3 724 725 709
3 710 726 711
3 725 726 710
3 711 727 712
3 726 727 711
3 712 727 714
3 724 717 728
3 708 717 724
3 725 724 729
3 729 724 728
3 726 725 730
3 730 725 729
3 727 726 731
3 731 726 730
3 714 731 719
3 727 731 714
3 717 720 728
3 721 728 720
3 729 728 721
3 722 729 721
3 730 729 722
3 723 730 722
3 731 730 723
3 719 731 723
