# vtk DataFile Version 3.0
this file was written using fslvtkio
ASCII
DATASET POLYDATA
POINTS 642 float
159.042 101.587 141.897
148.028 99.627 142.537
154.269 101.645 128.939
160.992 106.259 123.699
159.988 94.9144 127.85
156.43 108.744 137.877
149.464 107.941 140.309
152.869 92.2053 128.899
154.245 92.5254 145.369
155.975 100.151 113.398
156.73 111.757 122.417
149.344 106.843 153.894
153.381 90.0228 136.88
157.538 92.5172 136.796
156.925 90.1783 126.6
154.174 94.3762 120.042
158.481 96.3842 118.696
145.502 111.007 147.194
152.413 109.283 140.058
152.554 109.248 147.445
155.23 108.882 130.679
158.074 112.509 127.676
160.854 100.403 124.184
160.028 97.8618 135.144
161.646 103.576 132.758
160.275 109.045 129.933
158.046 106.158 141.497
150.249 94.5625 136.653
152.169 97.0455 127.379
151.314 100.154 136.206
146.093 105.251 142.964
153.222 104.859 134.887
154.987 103.511 149.883
156.921 97.0827 145.511
151.387 98.9539 153.027
146.631 103.302 149.6
150.288 95.6981 145.077
160.673 112.13 119.669
156.587 107.855 115.516
159.65 104.394 115.491
156.24 106.129 124.806
154.506 101.389 120.376
155.927 90.1184 136.959
157.639 90.9149 131.794
155.364 89.3653 131.832
158.759 92.4819 127.061
159.049 93.5048 132.329
156.191 92.0552 141.565
153.732 90.4376 141.671
152.902 90.689 132.634
154.406 90.2441 127.139
155.245 91.2656 122.322
157.741 92.7758 122.399
156.549 93.9147 117.956
159.224 95.5607 123.183
153.43 92.777 124.452
155.47 97.1937 116.423
157.765 97.9552 114.423
148.546 111.292 144.212
151.752 110.207 144.015
149.175 110.753 148.053
154.436 108.87 142.844
154.627 109.362 138.862
150.651 108.988 140.425
146.059 110.124 143.173
147.17 108.936 150.936
151.032 108.539 151.092
156.29 111.175 128.981
155.686 109.889 133.94
154.203 109.135 134.89
157.228 109.757 132.883
157.443 113.745 124.734
155.724 110.764 126.131
152.872 107.896 135.944
161.074 98.935 129.645
161.06 100.644 133.619
161.518 101.871 128.579
160.301 102.468 137.379
159.703 99.579 138.832
160.225 96.1406 131.755
160.441 97.4901 125.85
161.112 103.334 123.708
161.54 105.01 128.157
161.123 106.467 132.019
160.419 105.125 136.926
159.782 107.44 136.105
158.682 103.986 142.032
161.072 107.995 126.577
158.519 108.821 134.2
157.241 107.803 140.035
150.973 95.6298 131.93
151.61 98.3734 131.706
150.138 97.4076 135.663
152.929 100.778 132.756
153.158 99.5595 127.971
152.293 94.4409 127.801
151.47 93.065 132.836
149.288 96.92 139.728
149.219 99.8479 139.336
149.226 102.648 140.062
152.022 102.817 136.501
149.558 104.858 139.457
154.084 103.259 131.898
146.928 102.458 143.078
147.03 107.18 141.796
151.445 106.334 137.833
155.934 100.164 148.647
154.512 97.8152 150.316
153.399 101.494 152.911
152.943 95.1689 149.449
155.483 94.7204 146.128
158.174 99.4226 144.034
157.485 102.356 146.114
152.454 105.237 152.799
149.901 103.08 154.957
148.961 101.384 151.928
150.709 97.3763 149.346
148.727 99.6473 148.151
151.987 93.5718 145.589
147.176 105.257 152.455
147.054 101.365 146.128
148.872 97.8263 144.063
158.952 111.508 115.762
158.609 106.926 112.442
160.307 108.435 117.091
158.177 102.105 112.431
155.961 104.069 113.541
157.101 110.34 119.044
158.789 113.657 120.431
160.572 108.823 121.403
160.665 105.362 119.591
155.617 104.131 122.042
155.689 104.422 117.414
156.343 107.097 119.82
155.413 100.879 116.906
154.351 101.541 124.57
155.399 103.638 126.856
156.398 108.915 123.307
158.736 95.1584 136.722
157.431 94.5659 141.613
158.629 97.1651 140.557
156.763 105.139 146.307
153.995 106.688 149.161
155.495 107.47 144.985
159.251 100.37 116.221
160.004 98.6655 120.792
160.448 102.136 119.377
160.583 110.923 124.373
159.112 110.805 128.492
160.332 114.14 123.876
151.609 92.1296 141.412
151.523 92.092 136.946
149.937 94.6565 141.047
145.558 104.604 146.217
144.171 108.193 144.883
145.166 107.316 148.942
153.368 98.8983 123.556
153.141 95.8188 123.388
154.36 97.968 119.74
155.902 107.855 127.707
154.17 106.854 132.873
155.234 105.363 129.836
156.892 90.3054 134.329
156.7 89.8126 131.779
155.727 89.4281 134.38
156.258 89.6552 129.265
157.372 90.4953 129.221
157.683 91.5577 134.258
156.884 91.214 136.721
154.695 89.6371 136.84
154.337 89.4755 134.343
158.245 91.6044 129.473
158.42 92.1592 132.086
158.986 92.857 129.746
158.3 92.886 134.524
157.957 91.2657 126.822
159.44 93.728 127.406
159.608 94.123 129.979
156.123 91.0323 139.196
154.938 90.076 139.364
155.186 90.9219 141.448
153.513 90.1001 139.32
156.914 92.2447 139.204
155.276 91.997 143.635
154.081 91.1798 143.575
154.119 89.8971 132.101
154.986 89.832 129.439
153.878 90.5184 130.003
155.632 89.7528 126.735
153.16 90.2466 134.608
152.889 91.3896 130.582
153.504 91.1462 128.046
156.702 91.5636 122.146
157.206 93.1019 120.07
155.778 92.0545 119.914
157.615 95.0054 118.21
158.13 94.3838 120.422
157.42 91.2673 124.428
156.146 90.363 124.297
154.451 92.6203 120.938
155.052 93.7083 118.616
158.593 94.2537 122.588
158.417 92.5848 124.6
159.194 93.8515 124.945
158.925 95.8298 120.825
159.746 95.1173 125.522
154.793 90.4293 124.725
154.146 91.8749 123.284
153.69 91.309 125.694
153.706 93.4127 122.196
153.034 92.2827 126.71
155.836 95.2485 116.559
157.313 95.9077 116.145
156.43 97.0592 114.877
158.269 97.1023 116.572
154.799 95.6308 118.12
155.792 98.7052 114.917
156.721 98.7683 113.062
150.315 110.935 144.132
150.543 110.746 146.104
148.737 111.362 146.076
150.949 110.135 147.927
152.081 109.942 145.812
151.772 110.082 142.083
150.335 110.363 142.418
146.837 111.716 145.735
147.33 111.126 147.697
153.135 109.621 143.645
153.11 109.83 141.738
154.363 109.395 141.148
153.485 109.316 139.604
153.582 109.134 145.314
155.525 108.712 140.279
155.631 109.054 138.215
149.137 110.317 142.373
147.088 111.14 143.737
148.174 109.768 142.201
145.3 111.057 145.027
151.429 109.287 140.31
149.951 108.478 140.491
147.887 108.76 141.883
148.116 110.174 149.632
150.116 109.939 149.797
149.104 109.172 151.275
151.784 109.041 149.401
146.376 110.114 149.181
148.265 107.998 152.579
150.236 107.959 152.709
156.425 110.214 131.121
154.852 109.63 134.604
155.572 109.699 131.78
153.247 109.24 137.642
154.061 109.525 137.286
156.988 110.756 130.501
157.071 112.113 128.378
155.642 110.053 129.716
154.772 109.031 132.494
154.946 109.662 136.791
156.413 109.824 133.32
155.962 109.423 135.964
157.59 110.654 130.124
156.828 109.236 135.491
156.625 112.951 126.854
155.96 111.357 127.473
156.248 112.398 125.441
155.659 109.877 128.242
157.8 113.844 126.398
156.912 112.974 123.37
156.035 111.462 124.194
153.532 108.554 135.516
152.569 108.891 137.98
151.952 108.327 138.253
154.121 108.266 133.339
151.431 107.707 138.559
161.313 99.7021 131.662
161.452 101.221 131.122
161.315 100.392 129.059
161.579 102.725 130.707
161.489 102.052 133.106
160.645 99.1922 134.12
160.874 98.3074 132.313
161.073 99.6376 126.919
161.273 101.047 126.425
160.841 101.495 135.492
160.375 99.9832 136.078
160.119 100.958 137.906
159.85 98.717 136.961
161.167 102.972 135.096
159.618 101.989 139.704
159.442 100.603 140.409
160.776 97.4874 130.607
160.849 98.1812 127.745
160.671 96.7283 128.768
160.72 98.934 124.938
160.133 97.0141 133.435
160.225 95.4349 129.859
160.253 96.1305 126.86
161.457 102.52 126.118
161.528 103.406 128.285
161.388 104.063 126.03
161.501 104.251 130.399
161.054 101.839 123.903
161.059 104.857 123.801
161.202 105.655 125.963
161.124 105.799 134.522
160.231 106.376 136.699
160.719 107.061 134.057
159.127 106.816 138.833
159.456 105.708 139.208
161.22 104.4 134.83
161.44 104.998 132.499
160.738 107.801 131.225
160.132 108.13 133.167
159.538 104.564 139.531
160.409 103.839 137.225
159.605 103.321 139.576
158.376 105.114 141.808
158.904 102.773 141.967
161.346 105.814 130.131
161.147 107.319 129.43
161.347 106.551 127.727
160.787 108.589 128.3
161.108 107.182 125.086
159.155 108.202 135.181
158.575 107.611 138.092
158.067 108.228 137.104
157.69 107.058 140.886
159.486 109.004 132.074
157.445 108.718 136.044
156.739 108.245 138.923
151.14 97.0747 131.668
150.878 97.941 133.715
150.362 96.5514 133.744
150.77 98.7941 135.687
151.471 99.216 133.902
151.891 97.6222 129.6
151.616 96.2933 129.734
150.468 95.1265 134.209
149.938 95.9802 135.953
152.305 99.6041 132.154
152.443 98.8688 129.856
153.058 100.076 130.365
152.538 98.3495 127.547
152.121 100.466 134.487
153.675 101.233 130.927
153.731 100.683 128.554
151.63 94.9959 129.852
151.088 94.3599 132.335
151.805 93.7214 130.407
150.81 93.8276 134.707
152.183 95.7672 127.481
152.533 93.2533 128.269
152.132 92.4657 130.857
149.453 97.0408 137.592
149.85 98.5122 137.467
149.245 98.3285 139.296
150.211 99.9458 137.67
149.599 95.5862 138.197
148.793 98.3041 141.224
148.613 99.6966 141.078
150.806 102.538 138.535
151.177 103.809 138.326
149.388 103.771 139.9
151.464 104.755 137.569
152.483 103.924 136.024
151.586 101.547 136.592
150.398 101.393 138.174
147.685 103.867 141.516
147.737 105 141.132
153.118 102.987 134.412
152.545 101.782 134.667
153.408 102.109 132.714
153.653 104.071 133.43
154.493 102.312 130.417
149.385 101.222 139.639
148.01 102.595 141.579
148.302 101.137 141.302
146.345 103.831 143.152
147.549 101.013 142.819
148.259 105.934 140.633
150.317 105.672 138.722
149.165 106.697 139.987
152.315 105.602 136.4
146.28 106.376 142.398
148.254 107.672 141.15
150.445 107.149 139.188
155.21 99.0516 149.561
153.937 99.5618 151.81
154.67 100.787 150.809
152.496 100.202 153.53
153.161 98.1586 152.251
155.792 97.3945 148.079
156.447 98.5293 147.32
155.444 101.874 149.555
154.15 102.55 151.516
153.638 96.5689 150.149
155.075 96.107 148.422
154.473 94.7456 148.215
156.152 96.0228 146.18
152.146 97.112 151.452
153.572 93.706 147.502
154.967 93.4293 145.912
157.129 99.6954 146.456
156.68 101.27 147.537
157.879 100.813 145.332
156.326 102.877 148.104
157.516 98.2961 144.909
158.771 100.492 142.983
158.39 101.947 144.013
152.87 103.383 153.145
151.826 102.298 154.269
151.322 104.406 154.458
150.65 100.96 154.198
153.684 104.289 151.476
151.006 106.303 153.705
149.437 105.157 154.824
149.79 99.3453 150.868
149.768 98.617 148.835
148.772 100.456 150.052
149.63 97.7568 146.898
150.501 96.6935 147.27
150.982 98.1555 151.225
149.995 100.092 152.695
147.794 102.275 150.885
147.73 101.51 149.136
151.394 95.6176 147.589
151.835 96.3511 149.58
152.333 94.3786 147.625
151.097 94.6932 145.457
153.044 92.6235 145.623
149.063 102.011 153.739
147.842 103.203 152.487
148.187 104.058 154.228
146.754 104.227 151.092
147.955 106.209 153.609
147.822 100.583 147.286
148.816 98.7489 146.148
148.118 99.7036 145.266
149.644 96.9074 144.734
146.716 102.282 147.961
147.47 100.434 144.287
148.326 98.7831 143.319
158.975 109.516 113.812
159.759 108.001 114.69
160.192 110.175 116.052
159.895 106.472 115.989
159.33 105.787 113.741
157.285 107.895 113.424
157.617 109.761 115.242
160.475 112.244 117.27
160.57 110.437 118.319
158.377 104.538 112.087
156.796 105.883 111.792
156.694 103.318 111.166
156.278 106.075 114.062
159.065 103.459 113.77
156.791 100.783 111.996
155.802 101.989 113.057
157.719 111.141 117.217
159.02 112.757 117.928
157.84 112.201 119.426
160.188 113.66 119.456
157 109.353 117.077
156.923 111.135 120.822
157.522 112.843 121.43
160.461 108.577 119.16
160.456 106.719 117.987
160.716 107.066 120.39
160.227 105.011 117.381
160.591 110.366 120.527
160.832 107.472 122.531
161.028 105.748 121.727
155.589 104.302 119.709
155.95 105.909 118.354
155.98 105.565 120.903
156.369 107.608 117.52
155.972 106.138 116.102
155.172 102.95 118.953
155.026 102.894 120.997
155.986 105.261 123.276
156.355 106.621 122.198
155.833 104.36 115.462
155.454 102.676 117.033
155.616 102.456 114.983
154.929 101.168 118.611
155.593 100.522 115.153
154.996 102.786 123.191
155.551 103.936 124.36
155.038 102.662 125.523
155.801 104.848 125.79
154.376 101.509 122.359
154.473 101.449 126.824
154.873 102.52 127.956
156.556 108.135 121.479
156.633 108.73 119.065
156.783 109.639 121.071
156.378 107.498 123.783
156.47 110.353 122.944
158.093 94.779 139.129
158.055 95.8356 141.19
158.675 96.1902 138.634
157.867 97.0053 143.086
157.143 95.7905 143.654
157.516 93.4913 139.298
158.148 93.7884 136.833
159.366 96.5554 136.157
159.281 97.4554 137.921
156.54 94.5914 144.086
156.847 93.3036 141.736
155.947 93.252 143.964
158.828 94.3307 134.626
159.528 95.6844 134.372
159.561 94.8402 132.285
159.141 98.3584 139.811
158.475 98.1901 142.523
159.097 99.339 141.527
155.412 105.834 147.907
154.829 107.167 147.278
156.123 106.36 145.78
154.161 108.334 146.41
153.375 108.152 148.443
154.502 105.102 149.705
155.822 104.336 148.153
157.338 105.725 144.045
156.776 106.763 143.387
152.65 107.642 150.204
153.31 105.972 151.038
151.902 107.009 152.039
157.127 103.805 146.452
157.802 104.589 144.284
158.115 103.29 144.299
156.308 107.526 142.414
155.024 108.309 143.977
155.899 108.278 141.415
159.789 99.4288 118.454
160.266 100.403 120.114
159.969 101.307 117.661
160.703 101.227 121.736
160.445 99.6126 122.427
159.367 97.6131 119.518
159.045 98.382 117.254
159.485 102.334 115.537
160.105 103.199 117.198
160.222 98.1116 123.256
159.571 97.1176 121.811
160.002 96.6099 124.292
158.638 99.141 115.088
158.74 101.223 114.088
157.943 99.9113 113.088
160.547 103.738 119.27
160.838 102.712 121.555
160.944 104.297 121.535
160.035 111.188 126.38
159.896 112.592 126.069
160.632 112.588 123.859
159.254 113.601 126.147
158.45 111.454 127.82
159.557 109.885 129.452
160.456 109.996 127.259
160.691 111.794 121.889
160.704 113.525 121.577
158.209 110.194 130.386
158.773 109.522 131.238
157.821 109.267 133.295
160.877 109.368 125.607
160.566 110.005 122.857
160.912 108.477 123.99
159.655 114.591 122.083
158.878 114.478 124.575
158.057 113.937 122.772
151.537 91.9585 139.182
150.614 93.1797 139.098
150.698 93.3358 141.245
150.059 94.4471 138.89
150.714 93.3084 136.942
152.415 90.9818 136.867
152.486 90.8761 139.23
150.917 93.7633 143.296
150.146 95.0261 143.071
151.305 92.6085 134.887
152.187 91.3865 134.867
151.999 91.8028 132.766
152.509 91.1029 141.576
151.786 92.8505 143.598
152.712 91.689 143.761
149.479 96.2157 142.691
149.469 95.7776 140.458
148.959 97.266 141.963
144.799 106.436 145.769
144.55 107.968 146.958
145.24 105.941 147.613
144.975 109.375 148.206
144.365 109.83 146.026
144.955 106.574 143.997
145.367 105.055 144.511
145.879 103.972 147.966
145.812 105.25 149.36
144.541 109.589 143.781
145.093 107.837 142.951
146.375 108.535 142.38
145.902 103.456 144.599
146.27 102.973 146.316
146.717 101.864 144.508
146.138 106.133 150.638
145.731 108.397 150.111
146.798 107.287 152.035
153.121 97.4233 123.386
153.602 96.789 121.48
153.758 98.4496 121.598
154.232 96.175 119.775
153.596 95.0536 121.653
152.622 96.4611 125.244
152.724 97.8946 125.326
154.006 100.024 121.847
154.358 99.6693 119.982
153.187 94.2831 123.669
152.567 95.08 125.482
152.734 93.6371 125.911
153.104 99.227 125.69
153.864 100.287 123.864
153.752 100.426 126.196
154.905 99.3948 118.243
154.835 97.5043 118.044
155.449 99.0378 116.56
155.135 107.268 130.21
154.646 106.155 131.355
155.601 106.517 128.745
154.193 105.113 132.358
153.698 105.826 134.057
154.668 107.827 131.739
155.421 108.501 129.147
156.082 107.079 126.242
155.859 105.737 127.225
152.902 106.53 135.388
153.582 107.394 134.415
152.101 107.187 136.989
155.794 109.291 126.944
156.155 108.403 125.423
156.086 109.914 124.865
155.425 104.566 128.283
154.769 104.298 130.976
155.105 103.338 129.438
POLYGONS 1280  5120
3 164 162 163
3 163 44 164
3 162 43 163
3 164 42 162
3 166 165 163
3 163 43 166
3 165 44 163
3 166 14 165
3 168 167 162
3 162 42 168
3 167 43 162
3 168 13 167
3 170 169 164
3 164 44 170
3 169 42 164
3 170 12 169
3 173 171 172
3 172 46 173
3 171 43 172
3 173 45 171
3 167 174 172
3 172 43 167
3 174 46 172
3 167 13 174
3 175 166 171
3 171 45 175
3 166 43 171
3 175 14 166
3 177 176 173
3 173 46 177
3 176 45 173
3 177 4 176
3 180 178 179
3 179 48 180
3 178 42 179
3 180 47 178
3 169 181 179
3 179 42 169
3 181 48 179
3 169 12 181
3 182 168 178
3 178 47 182
3 168 42 178
3 182 13 168
3 184 183 180
3 180 48 184
3 183 47 180
3 184 8 183
3 187 185 186
3 186 50 187
3 185 44 186
3 187 49 185
3 165 188 186
3 186 44 165
3 188 50 186
3 165 14 188
3 189 170 185
3 185 49 189
3 170 44 185
3 189 12 170
3 191 190 187
3 187 50 191
3 190 49 187
3 191 7 190
3 194 192 193
3 193 53 194
3 192 52 193
3 194 51 192
3 196 195 193
3 193 52 196
3 195 53 193
3 196 16 195
3 198 197 192
3 192 51 198
3 197 52 192
3 198 14 197
3 200 199 194
3 194 53 200
3 199 51 194
3 200 15 199
3 203 201 202
3 202 45 203
3 201 52 202
3 203 54 201
3 197 175 202
3 202 52 197
3 175 45 202
3 197 14 175
3 204 196 201
3 201 54 204
3 196 52 201
3 204 16 196
3 176 205 203
3 203 45 176
3 205 54 203
3 176 4 205
3 208 206 207
3 207 55 208
3 206 51 207
3 208 50 206
3 199 209 207
3 207 51 199
3 209 55 207
3 199 15 209
3 188 198 206
3 206 50 188
3 198 51 206
3 188 14 198
3 210 191 208
3 208 55 210
3 191 50 208
3 210 7 191
3 213 211 212
3 212 57 213
3 211 53 212
3 213 56 211
3 195 214 212
3 212 53 195
3 214 57 212
3 195 16 214
3 215 200 211
3 211 56 215
3 200 53 211
3 215 15 200
3 217 216 213
3 213 57 217
3 216 56 213
3 217 9 216
3 220 218 219
3 219 60 220
3 218 59 219
3 220 58 218
3 222 221 219
3 219 59 222
3 221 60 219
3 222 19 221
3 224 223 218
3 218 58 224
3 223 59 218
3 224 18 223
3 226 225 220
3 220 60 226
3 225 58 220
3 226 17 225
3 229 227 228
3 228 62 229
3 227 59 228
3 229 61 227
3 223 230 228
3 228 59 223
3 230 62 228
3 223 18 230
3 231 222 227
3 227 61 231
3 222 59 227
3 231 19 222
3 233 232 229
3 229 62 233
3 232 61 229
3 233 5 232
3 236 234 235
3 235 64 236
3 234 58 235
3 236 63 234
3 225 237 235
3 235 58 225
3 237 64 235
3 225 17 237
3 238 224 234
3 234 63 238
3 224 58 234
3 238 18 224
3 240 239 236
3 236 64 240
3 239 63 236
3 240 6 239
3 243 241 242
3 242 66 243
3 241 60 242
3 243 65 241
3 221 244 242
3 242 60 221
3 244 66 242
3 221 19 244
3 245 226 241
3 241 65 245
3 226 60 241
3 245 17 226
3 247 246 243
3 243 66 247
3 246 65 243
3 247 11 246
3 250 248 249
3 249 69 250
3 248 68 249
3 250 67 248
3 252 251 249
3 249 68 252
3 251 69 249
3 252 18 251
3 254 253 248
3 248 67 254
3 253 68 248
3 254 21 253
3 256 255 250
3 250 69 256
3 255 67 250
3 256 20 255
3 259 257 258
3 258 70 259
3 257 68 258
3 259 62 257
3 253 260 258
3 258 68 253
3 260 70 258
3 253 21 260
3 230 252 257
3 257 62 230
3 252 68 257
3 230 18 252
3 261 233 259
3 259 70 261
3 233 62 259
3 261 5 233
3 264 262 263
3 263 72 264
3 262 67 263
3 264 71 262
3 255 265 263
3 263 67 255
3 265 72 263
3 255 20 265
3 266 254 262
3 262 71 266
3 254 67 262
3 266 21 254
3 268 267 264
3 264 72 268
3 267 71 264
3 268 10 267
3 271 269 270
3 270 63 271
3 269 69 270
3 271 73 269
3 251 238 270
3 270 69 251
3 238 63 270
3 251 18 238
3 272 256 269
3 269 73 272
3 256 69 269
3 272 20 256
3 239 273 271
3 271 63 239
3 273 73 271
3 239 6 273
3 276 274 275
3 275 76 276
3 274 75 275
3 276 74 274
3 278 277 275
3 275 75 278
3 277 76 275
3 278 24 277
3 280 279 274
3 274 74 280
3 279 75 274
3 280 23 279
3 282 281 276
3 276 76 282
3 281 74 276
3 282 22 281
3 285 283 284
3 284 78 285
3 283 75 284
3 285 77 283
3 279 286 284
3 284 75 279
3 286 78 284
3 279 23 286
3 287 278 283
3 283 77 287
3 278 75 283
3 287 24 278
3 289 288 285
3 285 78 289
3 288 77 285
3 289 0 288
3 292 290 291
3 291 80 292
3 290 74 291
3 292 79 290
3 281 293 291
3 291 74 281
3 293 80 291
3 281 22 293
3 294 280 290
3 290 79 294
3 280 74 290
3 294 23 280
3 296 295 292
3 292 80 296
3 295 79 292
3 296 4 295
3 299 297 298
3 298 82 299
3 297 76 298
3 299 81 297
3 277 300 298
3 298 76 277
3 300 82 298
3 277 24 300
3 301 282 297
3 297 81 301
3 282 76 297
3 301 22 282
3 303 302 299
3 299 82 303
3 302 81 299
3 303 3 302
3 306 304 305
3 305 85 306
3 304 84 305
3 306 83 304
3 308 307 305
3 305 84 308
3 307 85 305
3 308 26 307
3 310 309 304
3 304 83 310
3 309 84 304
3 310 24 309
3 312 311 306
3 306 85 312
3 311 83 306
3 312 25 311
3 315 313 314
3 314 77 315
3 313 84 314
3 315 86 313
3 309 287 314
3 314 84 309
3 287 77 314
3 309 24 287
3 316 308 313
3 313 86 316
3 308 84 313
3 316 26 308
3 288 317 315
3 315 77 288
3 317 86 315
3 288 0 317
3 320 318 319
3 319 87 320
3 318 83 319
3 320 82 318
3 311 321 319
3 319 83 311
3 321 87 319
3 311 25 321
3 300 310 318
3 318 82 300
3 310 83 318
3 300 24 310
3 322 303 320
3 320 87 322
3 303 82 320
3 322 3 303
3 325 323 324
3 324 89 325
3 323 85 324
3 325 88 323
3 307 326 324
3 324 85 307
3 326 89 324
3 307 26 326
3 327 312 323
3 323 88 327
3 312 85 323
3 327 25 312
3 329 328 325
3 325 89 329
3 328 88 325
3 329 5 328
3 332 330 331
3 331 92 332
3 330 91 331
3 332 90 330
3 334 333 331
3 331 91 334
3 333 92 331
3 334 29 333
3 336 335 330
3 330 90 336
3 335 91 330
3 336 28 335
3 338 337 332
3 332 92 338
3 337 90 332
3 338 27 337
3 341 339 340
3 340 94 341
3 339 91 340
3 341 93 339
3 335 342 340
3 340 91 335
3 342 94 340
3 335 28 342
3 343 334 339
3 339 93 343
3 334 91 339
3 343 29 334
3 345 344 341
3 341 94 345
3 344 93 341
3 345 2 344
3 348 346 347
3 347 96 348
3 346 90 347
3 348 95 346
3 337 349 347
3 347 90 337
3 349 96 347
3 337 27 349
3 350 336 346
3 346 95 350
3 336 90 346
3 350 28 336
3 352 351 348
3 348 96 352
3 351 95 348
3 352 7 351
3 355 353 354
3 354 98 355
3 353 92 354
3 355 97 353
3 333 356 354
3 354 92 333
3 356 98 354
3 333 29 356
3 357 338 353
3 353 97 357
3 338 92 353
3 357 27 338
3 359 358 355
3 355 98 359
3 358 97 355
3 359 1 358
3 362 360 361
3 361 101 362
3 360 100 361
3 362 99 360
3 364 363 361
3 361 100 364
3 363 101 361
3 364 31 363
3 366 365 360
3 360 99 366
3 365 100 360
3 366 29 365
3 368 367 362
3 362 101 368
3 367 99 362
3 368 30 367
3 371 369 370
3 370 93 371
3 369 100 370
3 371 102 369
3 365 343 370
3 370 100 365
3 343 93 370
3 365 29 343
3 372 364 369
3 369 102 372
3 364 100 369
3 372 31 364
3 344 373 371
3 371 93 344
3 373 102 371
3 344 2 373
3 376 374 375
3 375 103 376
3 374 99 375
3 376 98 374
3 367 377 375
3 375 99 367
3 377 103 375
3 367 30 377
3 356 366 374
3 374 98 356
3 366 99 374
3 356 29 366
3 378 359 376
3 376 103 378
3 359 98 376
3 378 1 359
3 381 379 380
3 380 105 381
3 379 101 380
3 381 104 379
3 363 382 380
3 380 101 363
3 382 105 380
3 363 31 382
3 383 368 379
3 379 104 383
3 368 101 379
3 383 30 368
3 385 384 381
3 381 105 385
3 384 104 381
3 385 6 384
3 388 386 387
3 387 108 388
3 386 107 387
3 388 106 386
3 390 389 387
3 387 107 390
3 389 108 387
3 390 34 389
3 392 391 386
3 386 106 392
3 391 107 386
3 392 33 391
3 394 393 388
3 388 108 394
3 393 106 388
3 394 32 393
3 397 395 396
3 396 110 397
3 395 107 396
3 397 109 395
3 391 398 396
3 396 107 391
3 398 110 396
3 391 33 398
3 399 390 395
3 395 109 399
3 390 107 395
3 399 34 390
3 401 400 397
3 397 110 401
3 400 109 397
3 401 8 400
3 404 402 403
3 403 112 404
3 402 106 403
3 404 111 402
3 393 405 403
3 403 106 393
3 405 112 403
3 393 32 405
3 406 392 402
3 402 111 406
3 392 106 402
3 406 33 392
3 408 407 404
3 404 112 408
3 407 111 404
3 408 0 407
3 411 409 410
3 410 114 411
3 409 108 410
3 411 113 409
3 389 412 410
3 410 108 389
3 412 114 410
3 389 34 412
3 413 394 409
3 409 113 413
3 394 108 409
3 413 32 394
3 415 414 411
3 411 114 415
3 414 113 411
3 415 11 414
3 418 416 417
3 417 117 418
3 416 116 417
3 418 115 416
3 420 419 417
3 417 116 420
3 419 117 417
3 420 36 419
3 422 421 416
3 416 115 422
3 421 116 416
3 422 34 421
3 424 423 418
3 418 117 424
3 423 115 418
3 424 35 423
3 427 425 426
3 426 109 427
3 425 116 426
3 427 118 425
3 421 399 426
3 426 116 421
3 399 109 426
3 421 34 399
3 428 420 425
3 425 118 428
3 420 116 425
3 428 36 420
3 400 429 427
3 427 109 400
3 429 118 427
3 400 8 429
3 432 430 431
3 431 119 432
3 430 115 431
3 432 114 430
3 423 433 431
3 431 115 423
3 433 119 431
3 423 35 433
3 412 422 430
3 430 114 412
3 422 115 430
3 412 34 422
3 434 415 432
3 432 119 434
3 415 114 432
3 434 11 415
3 437 435 436
3 436 121 437
3 435 117 436
3 437 120 435
3 419 438 436
3 436 117 419
3 438 121 436
3 419 36 438
3 439 424 435
3 435 120 439
3 424 117 435
3 439 35 424
3 441 440 437
3 437 121 441
3 440 120 437
3 441 1 440
3 444 442 443
3 443 124 444
3 442 123 443
3 444 122 442
3 446 445 443
3 443 123 446
3 445 124 443
3 446 39 445
3 448 447 442
3 442 122 448
3 447 123 442
3 448 38 447
3 450 449 444
3 444 124 450
3 449 122 444
3 450 37 449
3 453 451 452
3 452 126 453
3 451 123 452
3 453 125 451
3 447 454 452
3 452 123 447
3 454 126 452
3 447 38 454
3 455 446 451
3 451 125 455
3 446 123 451
3 455 39 446
3 457 456 453
3 453 126 457
3 456 125 453
3 457 9 456
3 460 458 459
3 459 128 460
3 458 122 459
3 460 127 458
3 449 461 459
3 459 122 449
3 461 128 459
3 449 37 461
3 462 448 458
3 458 127 462
3 448 122 458
3 462 38 448
3 464 463 460
3 460 128 464
3 463 127 460
3 464 10 463
3 467 465 466
3 466 130 467
3 465 124 466
3 467 129 465
3 445 468 466
3 466 124 445
3 468 130 466
3 445 39 468
3 469 450 465
3 465 129 469
3 450 124 465
3 469 37 450
3 471 470 467
3 467 130 471
3 470 129 467
3 471 3 470
3 474 472 473
3 473 133 474
3 472 132 473
3 474 131 472
3 476 475 473
3 473 132 476
3 475 133 473
3 476 38 475
3 478 477 472
3 472 131 478
3 477 132 472
3 478 41 477
3 480 479 474
3 474 133 480
3 479 131 474
3 480 40 479
3 483 481 482
3 482 134 483
3 481 132 482
3 483 126 481
3 477 484 482
3 482 132 477
3 484 134 482
3 477 41 484
3 454 476 481
3 481 126 454
3 476 132 481
3 454 38 476
3 485 457 483
3 483 134 485
3 457 126 483
3 485 9 457
3 488 486 487
3 487 136 488
3 486 131 487
3 488 135 486
3 479 489 487
3 487 131 479
3 489 136 487
3 479 40 489
3 490 478 486
3 486 135 490
3 478 131 486
3 490 41 478
3 492 491 488
3 488 136 492
3 491 135 488
3 492 2 491
3 495 493 494
3 494 127 495
3 493 133 494
3 495 137 493
3 475 462 494
3 494 133 475
3 462 127 494
3 475 38 462
3 496 480 493
3 493 137 496
3 480 133 493
3 496 40 480
3 463 497 495
3 495 127 463
3 497 137 495
3 463 10 497
3 500 498 499
3 499 140 500
3 498 139 499
3 500 138 498
3 502 501 499
3 499 139 502
3 501 140 499
3 502 33 501
3 504 503 498
3 498 138 504
3 503 139 498
3 504 13 503
3 506 505 500
3 500 140 506
3 505 138 500
3 506 23 505
3 509 507 508
3 508 47 509
3 507 139 508
3 509 110 507
3 503 182 508
3 508 139 503
3 182 47 508
3 503 13 182
3 398 502 507
3 507 110 398
3 502 139 507
3 398 33 502
3 183 401 509
3 509 47 183
3 401 110 509
3 183 8 401
3 512 510 511
3 511 79 512
3 510 138 511
3 512 46 510
3 505 294 511
3 511 138 505
3 294 79 511
3 505 23 294
3 174 504 510
3 510 46 174
3 504 138 510
3 174 13 504
3 295 177 512
3 512 79 295
3 177 46 512
3 295 4 177
3 515 513 514
3 514 111 515
3 513 140 514
3 515 78 513
3 501 406 514
3 514 140 501
3 406 111 514
3 501 33 406
3 286 506 513
3 513 78 286
3 506 140 513
3 286 23 506
3 407 289 515
3 515 111 407
3 289 78 515
3 407 0 289
3 518 516 517
3 517 143 518
3 516 142 517
3 518 141 516
3 520 519 517
3 517 142 520
3 519 143 517
3 520 19 519
3 522 521 516
3 516 141 522
3 521 142 516
3 522 32 521
3 524 523 518
3 518 143 524
3 523 141 518
3 524 26 523
3 527 525 526
3 526 113 527
3 525 142 526
3 527 66 525
3 521 413 526
3 526 142 521
3 413 113 526
3 521 32 413
3 244 520 525
3 525 66 244
3 520 142 525
3 244 19 520
3 414 247 527
3 527 113 414
3 247 66 527
3 414 11 247
3 530 528 529
3 529 86 530
3 528 141 529
3 530 112 528
3 523 316 529
3 529 141 523
3 316 86 529
3 523 26 316
3 405 522 528
3 528 112 405
3 522 141 528
3 405 32 522
3 317 408 530
3 530 86 317
3 408 112 530
3 317 0 408
3 533 531 532
3 532 61 533
3 531 143 532
3 533 89 531
3 519 231 532
3 532 143 519
3 231 61 532
3 519 19 231
3 326 524 531
3 531 89 326
3 524 143 531
3 326 26 524
3 232 329 533
3 533 61 232
3 329 89 533
3 232 5 329
3 536 534 535
3 535 146 536
3 534 145 535
3 536 144 534
3 538 537 535
3 535 145 538
3 537 146 535
3 538 22 537
3 540 539 534
3 534 144 540
3 539 145 534
3 540 16 539
3 542 541 536
3 536 146 542
3 541 144 536
3 542 39 541
3 545 543 544
3 544 54 545
3 543 145 544
3 545 80 543
3 539 204 544
3 544 145 539
3 204 54 544
3 539 16 204
3 293 538 543
3 543 80 293
3 538 145 543
3 293 22 538
3 205 296 545
3 545 54 205
3 296 80 545
3 205 4 296
3 548 546 547
3 547 125 548
3 546 144 547
3 548 57 546
3 541 455 547
3 547 144 541
3 455 125 547
3 541 39 455
3 214 540 546
3 546 57 214
3 540 144 546
3 214 16 540
3 456 217 548
3 548 125 456
3 217 57 548
3 456 9 217
3 551 549 550
3 550 81 551
3 549 146 550
3 551 130 549
3 537 301 550
3 550 146 537
3 301 81 550
3 537 22 301
3 468 542 549
3 549 130 468
3 542 146 549
3 468 39 542
3 302 471 551
3 551 81 302
3 471 130 551
3 302 3 471
3 554 552 553
3 553 149 554
3 552 148 553
3 554 147 552
3 556 555 553
3 553 148 556
3 555 149 553
3 556 21 555
3 558 557 552
3 552 147 558
3 557 148 552
3 558 25 557
3 560 559 554
3 554 149 560
3 559 147 554
3 560 37 559
3 563 561 562
3 562 88 563
3 561 148 562
3 563 70 561
3 557 327 562
3 562 148 557
3 327 88 562
3 557 25 327
3 260 556 561
3 561 70 260
3 556 148 561
3 260 21 556
3 328 261 563
3 563 88 328
3 261 70 563
3 328 5 261
3 566 564 565
3 565 129 566
3 564 147 565
3 566 87 564
3 559 469 565
3 565 147 559
3 469 129 565
3 559 37 469
3 321 558 564
3 564 87 321
3 558 147 564
3 321 25 558
3 470 322 566
3 566 129 470
3 322 87 566
3 470 3 322
3 569 567 568
3 568 71 569
3 567 149 568
3 569 128 567
3 555 266 568
3 568 149 555
3 266 71 568
3 555 21 266
3 461 560 567
3 567 128 461
3 560 149 567
3 461 37 560
3 267 464 569
3 569 71 267
3 464 128 569
3 267 10 464
3 572 570 571
3 571 152 572
3 570 151 571
3 572 150 570
3 574 573 571
3 571 151 574
3 573 152 571
3 574 27 573
3 576 575 570
3 570 150 576
3 575 151 570
3 576 12 575
3 578 577 572
3 572 152 578
3 577 150 572
3 578 36 577
3 581 579 580
3 580 49 581
3 579 151 580
3 581 96 579
3 575 189 580
3 580 151 575
3 189 49 580
3 575 12 189
3 349 574 579
3 579 96 349
3 574 151 579
3 349 27 574
3 190 352 581
3 581 49 190
3 352 96 581
3 190 7 352
3 584 582 583
3 583 118 584
3 582 150 583
3 584 48 582
3 577 428 583
3 583 150 577
3 428 118 583
3 577 36 428
3 181 576 582
3 582 48 181
3 576 150 582
3 181 12 576
3 429 184 584
3 584 118 429
3 184 48 584
3 429 8 184
3 587 585 586
3 586 97 587
3 585 152 586
3 587 121 585
3 573 357 586
3 586 152 573
3 357 97 586
3 573 27 357
3 438 578 585
3 585 121 438
3 578 152 585
3 438 36 578
3 358 441 587
3 587 97 358
3 441 121 587
3 358 1 441
3 590 588 589
3 589 155 590
3 588 154 589
3 590 153 588
3 592 591 589
3 589 154 592
3 591 155 589
3 592 17 591
3 594 593 588
3 588 153 594
3 593 154 588
3 594 30 593
3 596 595 590
3 590 155 596
3 595 153 590
3 596 35 595
3 599 597 598
3 598 104 599
3 597 154 598
3 599 64 597
3 593 383 598
3 598 154 593
3 383 104 598
3 593 30 383
3 237 592 597
3 597 64 237
3 592 154 597
3 237 17 592
3 384 240 599
3 599 104 384
3 240 64 599
3 384 6 240
3 602 600 601
3 601 120 602
3 600 153 601
3 602 103 600
3 595 439 601
3 601 153 595
3 439 120 601
3 595 35 439
3 377 594 600
3 600 103 377
3 594 153 600
3 377 30 594
3 440 378 602
3 602 120 440
3 378 103 602
3 440 1 378
3 605 603 604
3 604 65 605
3 603 155 604
3 605 119 603
3 591 245 604
3 604 155 591
3 245 65 604
3 591 17 245
3 433 596 603
3 603 119 433
3 596 155 603
3 433 35 596
3 246 434 605
3 605 65 246
3 434 119 605
3 246 11 434
3 608 606 607
3 607 158 608
3 606 157 607
3 608 156 606
3 610 609 607
3 607 157 610
3 609 158 607
3 610 15 609
3 612 611 606
3 606 156 612
3 611 157 606
3 612 28 611
3 614 613 608
3 608 158 614
3 613 156 608
3 614 41 613
3 617 615 616
3 616 95 617
3 615 157 616
3 617 55 615
3 611 350 616
3 616 157 611
3 350 95 616
3 611 28 350
3 209 610 615
3 615 55 209
3 610 157 615
3 209 15 610
3 351 210 617
3 617 95 351
3 210 55 617
3 351 7 210
3 620 618 619
3 619 135 620
3 618 156 619
3 620 94 618
3 613 490 619
3 619 156 613
3 490 135 619
3 613 41 490
3 342 612 618
3 618 94 342
3 612 156 618
3 342 28 612
3 491 345 620
3 620 135 491
3 345 94 620
3 491 2 345
3 623 621 622
3 622 56 623
3 621 158 622
3 623 134 621
3 609 215 622
3 622 158 609
3 215 56 622
3 609 15 215
3 484 614 621
3 621 134 484
3 614 158 621
3 484 41 614
3 216 485 623
3 623 56 216
3 485 134 623
3 216 9 485
3 626 624 625
3 625 161 626
3 624 160 625
3 626 159 624
3 628 627 625
3 625 160 628
3 627 161 625
3 628 31 627
3 630 629 624
3 624 159 630
3 629 160 624
3 630 20 629
3 632 631 626
3 626 161 632
3 631 159 626
3 632 40 631
3 635 633 634
3 634 73 635
3 633 160 634
3 635 105 633
3 629 272 634
3 634 160 629
3 272 73 634
3 629 20 272
3 382 628 633
3 633 105 382
3 628 160 633
3 382 31 628
3 273 385 635
3 635 73 273
3 385 105 635
3 273 6 385
3 638 636 637
3 637 137 638
3 636 159 637
3 638 72 636
3 631 496 637
3 637 159 631
3 496 137 637
3 631 40 496
3 265 630 636
3 636 72 265
3 630 159 636
3 265 20 630
3 497 268 638
3 638 137 497
3 268 72 638
3 497 10 268
3 641 639 640
3 640 102 641
3 639 161 640
3 641 136 639
3 627 372 640
3 640 161 627
3 372 102 640
3 627 31 372
3 489 632 639
3 639 136 489
3 632 161 639
3 489 40 632
3 373 492 641
3 641 102 373
3 492 136 641
3 373 2 492
