# vtk DataFile Version 3.0
this file was written using fslvtkio
ASCII
DATASET POLYDATA
POINTS 642 float
146.757 99.2265 121.511
129.973 100.071 124.221
133.851 106.197 107.907
151.826 106.768 106.117
147.118 93.1936 110.952
145.532 110.262 116.377
134.559 111.207 118.44
134.96 93.7934 112.054
138.71 90.7697 127.042
143.022 102.703 100.708
144.059 116.037 102.433
138.077 104.429 132.657
136.175 90.1287 119.777
143.764 89.6508 119.557
141.507 91.1332 110.725
138.837 97.5722 104.971
146.593 96.1888 103.196
134.719 109.036 127.716
140.441 111.942 116.692
141.132 106.928 124.46
139.566 113.734 108.869
146.595 114.465 108.732
150.61 99.4792 106.685
147.849 95.0833 117.208
149.994 102.982 113.131
149.741 110.089 109.996
146.276 105.16 119.487
131.623 95.334 119.014
133.363 99.7616 109.446
129.945 103.145 116.086
130.605 107.001 123.458
132.735 110.233 112.219
142.862 100.94 127.939
144.129 93.5893 126.834
137.07 96.9837 132.451
131.694 103.176 132.007
132.638 94.4346 127.398
152.566 114.798 102.861
143.951 110.89 98.4972
149.674 104.978 100.748
137.09 112.345 102.695
136.791 104.906 101.23
140.075 89.1158 119.415
142.56 89.3275 115.058
138.757 90.1845 115.074
144.705 91.2192 110.272
145.636 90.9593 115.37
141.579 89.4842 123.515
137.406 90.0495 123.54
135.234 91.3581 115.767
137.99 92.1574 111.102
140.09 93.8655 107.554
143.913 93.3935 106.644
142.566 96.238 103.825
147.337 94.5095 106.766
136.891 95.6004 108.464
140.742 99.7986 102.247
144.733 99.0998 101.521
137.628 109.981 122.736
140.459 109.541 120.96
138.377 108.389 126.391
143.228 108.342 120.174
143.057 111.426 116.8
137.604 111.398 118.004
134.551 110.436 123.262
136.601 107.421 130.642
139.792 105.816 128.777
142.903 115.177 108.835
143.619 113.436 112.424
140.034 112.895 112.907
146.042 112.539 112.813
145.508 116.466 105.894
141.142 115.695 105.612
137.098 111.888 113.523
149.313 97.4254 111.826
148.575 99.0481 114.611
150.4 100.902 110.382
147.996 100.942 117.092
147.449 97.1164 119.372
147.699 94.0348 114.025
149.041 96.1737 108.974
151.415 102.904 106.341
151.223 104.962 109.724
150.406 106.751 112.043
148.019 104.012 116.032
148.567 107.514 114.74
146.725 102.33 120.728
151.23 109.335 107.721
148.014 110.197 113.711
145.67 107.525 117.916
131.748 97.3457 114.123
131.106 101.109 112.692
130.005 98.9894 117.093
131.333 104.664 111.747
133.356 102.988 108.54
134.024 96.7262 110.595
132.937 94.2421 115.516
130.089 97.4589 121.357
129.651 101.526 120.075
130.159 105.294 119.634
131.203 106.855 114.337
131.433 108.46 117.628
132.994 108.306 109.964
130.114 103.633 123.853
131.911 109.945 121.121
133.475 111.145 115.181
143.443 97.1462 128.392
141.144 94.2538 130.878
140.641 98.7797 131.958
137.635 93.3867 130.365
141.957 91.3105 127.433
145.764 96.4865 124.436
145.084 99.9999 124.839
140.696 102.634 130.206
137.218 101.109 133.464
133.799 100.406 133.317
134.236 95.7658 130.826
131.312 98.6034 130.254
135.239 92.0889 127.532
134.379 105.319 133.553
130.397 101.249 128.143
130.776 97.017 125.97
148.916 113.402 99.6263
146.988 108.453 99.5375
151.142 110.251 100.951
146.221 103.751 100.438
143.287 106.654 99.359
143.943 114.132 99.7639
148.679 116.347 102.654
152.758 110.305 104.116
152.025 105.618 103.017
136.335 108.982 100.668
140.005 107.928 98.8837
139.891 112.081 99.1757
139.805 103.812 100.742
134.742 105.618 104.017
135.096 109.15 104.988
140.049 114.825 102.325
146.393 92.0252 118.703
144.425 91.1254 123.536
146.279 94.1546 122.236
144.79 103.022 123.933
142.325 104.209 126.489
144.023 106.019 122.336
148.171 100.355 101.249
149.432 97.397 104.565
151.118 101.866 102.875
151.941 113.199 106.565
148.102 111.991 109.88
149.624 116.686 106.174
133.919 91.1609 123.977
133.259 91.9624 119.482
131.74 94.4979 123.396
130.533 104.754 128.002
131.878 108.91 125.829
132.726 107.004 131.045
135.114 102.298 105.125
135.88 98.6816 106.73
137.533 101.128 102.991
137.77 113.623 106.14
136.154 111.511 110.842
135.321 110.725 107.724
141.234 88.9633 117.18
140.575 89.5914 115.088
139.344 89.5492 117.254
140.257 90.4683 112.976
141.891 89.9248 113.035
143.117 89.1541 117.289
141.989 88.9968 119.341
138.208 89.5773 119.436
137.58 89.9921 117.531
143.56 90.0964 112.765
144.174 89.8821 115.165
144.933 90.6605 112.996
144.699 90.0531 117.438
143.073 90.8719 110.576
145.926 91.9315 110.705
146.19 91.7229 113.015
140.829 89.0002 121.407
138.773 89.3557 121.436
139.549 89.3555 123.183
136.816 89.9804 121.618
142.69 89.3458 121.529
140.092 89.8722 125.126
138.16 90.2181 125.141
136.988 90.6425 115.557
138.446 90.9781 113.038
136.71 91.5888 113.474
139.749 91.5178 110.977
135.741 90.5602 117.747
135.186 92.3306 113.689
136.429 92.7554 111.628
141.932 93.552 107.055
143.137 94.7182 105.15
141.183 95.0414 105.577
144.545 95.9616 103.542
145.129 94.6533 104.847
142.678 92.1954 108.538
140.837 92.3728 109.02
139.588 95.6458 106.083
140.607 96.6018 104.486
145.719 93.6002 106.49
144.304 92.055 108.329
146.109 92.6047 108.389
146.988 95.0589 104.741
147.229 93.6845 108.868
139.021 92.9032 109.249
138.364 94.6781 107.76
137.245 93.6782 109.567
138.061 96.3614 106.611
135.858 94.4789 110.235
141.527 97.8186 102.986
143.659 97.4667 102.438
142.634 99.1849 101.87
145.706 97.4114 102.094
139.779 98.4657 103.504
141.951 101.085 101.315
143.817 100.701 100.976
139.254 109.804 121.926
139.567 108.679 123.774
138.033 109.265 124.58
139.822 107.706 125.286
140.711 108.247 122.949
140.184 110.589 118.893
138.91 110.65 120.012
136.285 109.426 125.253
136.633 108.791 126.962
141.71 108.868 120.627
141.504 110.194 118.588
142.76 109.541 118.478
141.723 111.785 116.79
142.092 107.668 122.305
144.102 109.128 117.949
144.23 110.838 116.664
137.558 110.772 120.413
136.082 110.124 123.176
136.058 110.784 120.821
134.657 109.684 125.542
139.064 111.588 117.592
136.144 111.302 118.333
134.641 110.947 120.751
137.653 108.079 128.448
139.394 107.256 127.55
138.447 106.87 129.884
140.476 106.375 126.598
135.823 108.328 129.031
137.519 106.149 131.879
139.127 105.311 130.886
143.189 114.08 110.387
141.859 113.345 112.548
141.631 113.693 110.575
140.344 112.614 114.825
142.121 112.821 114.535
144.855 113.926 110.192
144.635 115.015 109.012
141.292 114.529 108.93
140.08 113.282 110.604
143.185 112.607 115.128
144.739 113.058 112.604
144.703 112.219 115.036
146.122 113.342 110.489
145.873 111.626 114.851
144.063 116.257 107.703
141.887 116.011 107.491
143.348 116.204 105.852
140.232 115.18 107.475
145.892 115.994 107.818
144.611 116.45 104.188
142.533 116.091 104.124
138.653 112.413 113.043
138.83 112.101 115.584
137.335 111.798 115.688
138.497 112.47 111.055
135.827 111.535 116.212
149.004 98.1637 113.37
149.774 100.009 112.56
149.852 99.1264 111.037
150.274 101.785 111.834
149.413 100.959 113.731
148.254 97.0636 115.781
148.372 96.4802 114.353
149.929 98.5344 109.337
150.574 100.056 108.786
148.369 99.9883 115.865
148.067 98.0332 116.982
147.826 99.0341 118.133
147.701 96.1205 118.229
148.715 101.85 114.836
147.417 100.134 119.254
147.181 98.2569 120.378
148.433 95.7614 112.99
149.238 96.794 110.39
148.334 95.0637 111.551
149.923 97.8841 107.832
147.787 94.7386 115.534
147.412 93.3351 112.632
148.118 94.6073 110.027
150.951 101.842 108.343
150.858 102.785 110.133
151.234 103.677 108.28
150.673 103.958 111.468
150.976 101.115 106.535
151.688 104.712 106.488
151.349 105.75 107.932
149.202 105.178 114.19
148.053 105.662 115.522
149.464 107.001 113.54
147.1 106.145 116.673
147.107 104.751 117.64
149.114 103.636 114.32
150.178 105.006 112.674
150.308 108.515 111.146
149.567 108.878 112.604
147.352 103.268 118.317
148.148 102.534 116.446
147.41 101.736 118.774
146.589 103.808 120.096
146.836 100.817 121.084
150.921 106.072 110.797
150.777 108.117 109.683
151.135 107.148 108.761
150.387 109.86 108.761
151.618 107.954 107.049
148.493 108.955 114.198
147.018 107.5 116.194
147.114 109.01 115.885
145.996 106.323 118.479
149.131 110.157 111.935
146.795 110.283 115.368
145.487 108.737 117.152
131.298 99.2106 113.219
130.353 100.044 114.811
130.845 98.1844 115.496
129.782 100.958 116.387
130.135 101.898 114.444
132.141 100.141 111.164
132.268 98.4544 111.82
131.439 96.4288 116.551
130.643 97.145 117.739
131.097 102.845 112.266
132.283 101.94 110.64
132.477 103.72 110.275
133.225 101.317 108.995
130.405 103.777 113.924
132.718 105.426 109.925
133.583 104.629 108.191
132.854 96.914 112.331
132.364 95.8457 114.891
133.352 95.3395 113.103
132.231 94.8002 117.356
133.506 98.2122 110.04
134.441 95.2257 111.317
133.866 93.6981 113.827
129.943 98.0878 119.165
129.65 100.226 118.483
129.679 99.4517 120.663
129.733 102.259 117.976
130.817 96.3435 120.013
129.869 98.8064 122.717
129.758 100.805 122.116
130.442 105.751 116.864
131.308 107.471 116.007
130.685 106.754 118.582
131.93 109.252 115.029
131.925 108.689 113.333
130.439 104.976 115.366
129.937 104.284 117.725
130.353 106.297 121.412
130.949 107.672 120.233
131.765 107.597 112.113
130.968 105.648 113.129
132.066 106.51 110.982
132.608 109.299 111.033
133.439 107.161 109.092
129.81 103.468 119.724
130.02 104.611 121.749
129.842 102.747 121.82
130.165 105.419 123.801
129.993 101.847 123.934
131.586 109.211 119.401
132.063 110.066 116.527
132.416 110.841 118.162
132.84 110.781 113.743
131.207 108.357 122.232
133.12 111.01 119.823
134.051 111.312 116.799
142.629 95.758 130.088
141.146 96.467 131.531
142.275 97.6325 130.468
139.211 97.5497 132.396
139.358 95.5138 131.834
142.808 93.8007 129.333
143.684 95.1931 128.115
142.875 99.0063 128.919
141.725 99.7145 130.408
139.41 93.6335 130.784
141.482 92.53 129.491
139.844 92.0239 129.262
143.063 92.457 127.578
137.404 95.0506 131.68
137.897 91.9241 128.886
140.24 90.9114 127.453
144.569 96.6591 126.513
144.091 98.6491 126.873
145.385 98.2606 124.938
143.903 100.225 126.736
144.948 94.9973 125.932
146.271 97.8721 122.989
146.042 99.6531 123.181
140.568 100.993 131.478
139.035 99.8965 132.73
139.187 102.049 132.589
137.327 98.9698 132.97
141.84 101.548 129.281
139.556 103.565 131.24
137.597 103.077 133.468
133.798 98.057 132.233
132.701 97.4458 130.901
132.397 99.4771 132.135
131.924 96.5599 129.126
133.074 95.2614 129.5
135.378 96.3962 131.959
135.276 98.5204 132.903
132.355 101.752 133.028
131.305 100.744 131.348
134.539 93.944 129.37
135.943 94.5721 130.8
136.198 92.7953 129.154
133.78 93.2201 127.698
136.961 91.2925 127.191
135.636 100.493 133.437
133.903 102.624 133.814
135.673 103.107 133.954
132.739 104.2 133.574
136.258 104.946 133.4
130.635 99.7837 129.288
130.981 97.5737 128.117
130.426 99.0871 126.944
131.643 95.7342 127.007
130.94 102.04 130.148
130.218 100.592 126.117
130.231 98.4124 124.95
147.895 110.602 99.1206
148.946 109.192 100.259
150.055 111.778 100.184
150.22 107.871 100.673
148.514 106.923 100.218
145.792 110.175 98.5912
146.815 112.382 99.0038
151.029 114.317 100.828
152.059 112.667 101.397
146.604 106.123 100.017
145.167 107.855 99.1922
144.707 105.515 99.9462
143.608 108.794 98.5603
147.948 104.445 100.481
144.61 103.201 100.567
143.007 104.627 100.14
146.796 114.275 99.6659
149.133 115.3 100.844
146.63 115.525 100.965
150.929 115.96 102.522
144.263 112.645 98.9924
143.753 115.184 100.963
146.15 116.243 102.495
152.395 110.116 102.004
151.71 107.568 101.423
152.533 107.944 103.615
151.12 105.701 101.238
153.084 112.241 102.946
152.235 108.442 105.25
152.062 106.005 104.718
138.016 108.682 99.3147
139.821 109.983 98.6534
137.913 110.553 99.3807
141.849 111.398 98.7034
141.819 109.378 98.4428
138.22 106.693 99.7624
136.644 107.128 100.531
136.671 110.941 101.068
138.11 112.374 100.367
141.786 107.363 98.9737
139.834 105.936 99.7186
141.482 105.257 99.8984
138.299 104.597 100.757
141.377 103.219 100.697
135.337 107.354 102.096
135.512 109.372 102.53
134.774 107.545 104.218
135.99 110.817 103.4
135.635 105.478 102.216
134.251 105.909 105.852
134.438 107.531 106.422
139.827 113.704 100.332
141.96 113.134 99.3805
141.696 114.658 100.658
138.438 113.683 102.15
141.979 115.609 102.512
145.438 91.5104 121.135
145.657 92.5087 122.983
146.415 93.0835 120.49
145.44 93.7449 124.584
144.451 92.3599 125.201
144.198 90.2452 121.641
145.14 90.7025 119.234
147.13 93.5292 118.177
147.081 94.5359 119.716
143.317 91.3692 125.648
143.085 90.1482 123.598
141.539 90.3657 125.686
146.111 91.4407 117.093
147.236 93.1382 116.355
146.782 92.4471 114.623
146.885 95.6422 120.794
146.061 95.2383 123.53
146.624 96.8169 121.916
143.592 103.56 125.395
143.05 105.042 124.35
144.418 104.53 123.243
142.575 106.462 123.351
141.724 105.641 125.368
142.696 102.578 127.303
143.845 101.975 125.939
145.652 104.15 121.824
145.317 105.609 121.122
141.14 105.026 127.405
141.619 103.303 128.378
140.336 104.344 129.464
144.821 101.441 124.605
145.836 102.729 122.359
145.949 101.164 122.849
145.095 106.802 120.215
143.629 107.26 121.436
144.564 108.037 119.116
149.089 98.7041 102.438
150.325 99.5381 103.345
149.93 100.906 101.73
150.98 100.475 104.616
150.213 98.4422 105.429
148.147 96.783 103.696
147.489 98.0417 101.917
148.999 102.572 100.824
150.622 103.24 101.432
149.38 96.8911 106.853
148.377 95.892 105.586
148.263 95.245 108.015
146.438 99.5271 101.249
147.241 102.003 100.7
145.431 101.329 100.736
151.588 103.844 102.577
151.472 102.202 104.67
151.711 104.183 104.636
150.025 113.244 107.861
149.516 114.789 107.785
151.705 115.407 106.261
147.896 115.253 107.965
147.32 112.871 109.507
148.916 111.158 109.813
150.244 111.47 108.04
152.931 113.998 104.564
151.37 116.332 104.348
147.037 112.258 111.441
148.182 111.16 111.833
146.928 111.218 113.655
151.581 111.181 107.106
152.757 112.117 105.039
152.2 109.828 106.021
148.984 116.537 104.319
147.302 116.47 106.778
146.354 116.565 104.238
133.424 91.4079 121.797
132.46 92.9131 121.666
132.712 92.6286 123.659
131.744 94.5644 121.203
132.405 93.5565 119.554
134.476 90.7447 119.712
134.904 90.4054 121.86
133.128 92.6316 125.677
132.105 94.1698 125.346
132.886 93.2047 117.479
134.128 91.5806 117.731
133.938 92.6393 115.625
135.517 90.4437 123.701
134.377 91.5379 125.922
136.221 90.8466 125.575
131.171 95.5996 124.79
130.98 95.9422 122.157
130.36 97.1359 123.588
131.216 106.859 127.471
132.062 107.846 128.583
131.531 105.974 129.611
133.579 108.364 129.315
133.202 109.21 126.771
131.09 107.785 124.945
130.505 105.897 125.864
131.062 103.889 129.972
132.018 105.101 131.712
133.116 110.079 124.51
131.768 109.38 123.406
133.164 110.663 122.026
130.182 104.161 125.794
130.415 102.973 128.076
130.133 102.303 125.87
133.242 106.132 132.487
134.765 107.715 130.57
135.827 106.452 132.282
135.319 100.422 106.058
136.697 99.8223 104.937
136.165 101.688 103.916
138.111 99.3529 104.067
137.356 98.0858 105.801
134.623 99.3419 107.957
134.306 100.943 107.291
135.787 103.506 102.935
137.15 102.974 102.097
136.419 97.1063 107.457
134.92 97.7827 108.678
135.351 96.1164 109.402
134.173 102.551 106.855
134.9 103.965 104.305
134.174 104.224 106.365
138.621 102.455 101.702
139.079 100.401 102.683
140.321 101.759 101.576
137.187 112.129 108.495
135.49 111.155 109.468
136.415 112.169 106.88
133.963 110.362 110.028
134.289 111.012 111.669
137.948 112.431 109.753
138.554 113.552 107.675
137.379 113.022 104.468
136.198 111.528 105.125
134.725 111.404 113.076
136.677 111.712 112.173
135.371 111.402 114.686
139.202 114.775 106.177
138.671 114.244 104.135
140.45 115.344 104.132
135.278 110.027 106.201
134.121 109.373 108.851
134.349 108.313 107.629
POLYGONS 1280  5120
3 164 162 163
3 163 44 164
3 162 43 163
3 164 42 162
3 166 165 163
3 163 43 166
3 165 44 163
3 166 14 165
3 168 167 162
3 162 42 168
3 167 43 162
3 168 13 167
3 170 169 164
3 164 44 170
3 169 42 164
3 170 12 169
3 173 171 172
3 172 46 173
3 171 43 172
3 173 45 171
3 167 174 172
3 172 43 167
3 174 46 172
3 167 13 174
3 175 166 171
3 171 45 175
3 166 43 171
3 175 14 166
3 177 176 173
3 173 46 177
3 176 45 173
3 177 4 176
3 180 178 179
3 179 48 180
3 178 42 179
3 180 47 178
3 169 181 179
3 179 42 169
3 181 48 179
3 169 12 181
3 182 168 178
3 178 47 182
3 168 42 178
3 182 13 168
3 184 183 180
3 180 48 184
3 183 47 180
3 184 8 183
3 187 185 186
3 186 50 187
3 185 44 186
3 187 49 185
3 165 188 186
3 186 44 165
3 188 50 186
3 165 14 188
3 189 170 185
3 185 49 189
3 170 44 185
3 189 12 170
3 191 190 187
3 187 50 191
3 190 49 187
3 191 7 190
3 194 192 193
3 193 53 194
3 192 52 193
3 194 51 192
3 196 195 193
3 193 52 196
3 195 53 193
3 196 16 195
3 198 197 192
3 192 51 198
3 197 52 192
3 198 14 197
3 200 199 194
3 194 53 200
3 199 51 194
3 200 15 199
3 203 201 202
3 202 45 203
3 201 52 202
3 203 54 201
3 197 175 202
3 202 52 197
3 175 45 202
3 197 14 175
3 204 196 201
3 201 54 204
3 196 52 201
3 204 16 196
3 176 205 203
3 203 45 176
3 205 54 203
3 176 4 205
3 208 206 207
3 207 55 208
3 206 51 207
3 208 50 206
3 199 209 207
3 207 51 199
3 209 55 207
3 199 15 209
3 188 198 206
3 206 50 188
3 198 51 206
3 188 14 198
3 210 191 208
3 208 55 210
3 191 50 208
3 210 7 191
3 213 211 212
3 212 57 213
3 211 53 212
3 213 56 211
3 195 214 212
3 212 53 195
3 214 57 212
3 195 16 214
3 215 200 211
3 211 56 215
3 200 53 211
3 215 15 200
3 217 216 213
3 213 57 217
3 216 56 213
3 217 9 216
3 220 218 219
3 219 60 220
3 218 59 219
3 220 58 218
3 222 221 219
3 219 59 222
3 221 60 219
3 222 19 221
3 224 223 218
3 218 58 224
3 223 59 218
3 224 18 223
3 226 225 220
3 220 60 226
3 225 58 220
3 226 17 225
3 229 227 228
3 228 62 229
3 227 59 228
3 229 61 227
3 223 230 228
3 228 59 223
3 230 62 228
3 223 18 230
3 231 222 227
3 227 61 231
3 222 59 227
3 231 19 222
3 233 232 229
3 229 62 233
3 232 61 229
3 233 5 232
3 236 234 235
3 235 64 236
3 234 58 235
3 236 63 234
3 225 237 235
3 235 58 225
3 237 64 235
3 225 17 237
3 238 224 234
3 234 63 238
3 224 58 234
3 238 18 224
3 240 239 236
3 236 64 240
3 239 63 236
3 240 6 239
3 243 241 242
3 242 66 243
3 241 60 242
3 243 65 241
3 221 244 242
3 242 60 221
3 244 66 242
3 221 19 244
3 245 226 241
3 241 65 245
3 226 60 241
3 245 17 226
3 247 246 243
3 243 66 247
3 246 65 243
3 247 11 246
3 250 248 249
3 249 69 250
3 248 68 249
3 250 67 248
3 252 251 249
3 249 68 252
3 251 69 249
3 252 18 251
3 254 253 248
3 248 67 254
3 253 68 248
3 254 21 253
3 256 255 250
3 250 69 256
3 255 67 250
3 256 20 255
3 259 257 258
3 258 70 259
3 257 68 258
3 259 62 257
3 253 260 258
3 258 68 253
3 260 70 258
3 253 21 260
3 230 252 257
3 257 62 230
3 252 68 257
3 230 18 252
3 261 233 259
3 259 70 261
3 233 62 259
3 261 5 233
3 264 262 263
3 263 72 264
3 262 67 263
3 264 71 262
3 255 265 263
3 263 67 255
3 265 72 263
3 255 20 265
3 266 254 262
3 262 71 266
3 254 67 262
3 266 21 254
3 268 267 264
3 264 72 268
3 267 71 264
3 268 10 267
3 271 269 270
3 270 63 271
3 269 69 270
3 271 73 269
3 251 238 270
3 270 69 251
3 238 63 270
3 251 18 238
3 272 256 269
3 269 73 272
3 256 69 269
3 272 20 256
3 239 273 271
3 271 63 239
3 273 73 271
3 239 6 273
3 276 274 275
3 275 76 276
3 274 75 275
3 276 74 274
3 278 277 275
3 275 75 278
3 277 76 275
3 278 24 277
3 280 279 274
3 274 74 280
3 279 75 274
3 280 23 279
3 282 281 276
3 276 76 282
3 281 74 276
3 282 22 281
3 285 283 284
3 284 78 285
3 283 75 284
3 285 77 283
3 279 286 284
3 284 75 279
3 286 78 284
3 279 23 286
3 287 278 283
3 283 77 287
3 278 75 283
3 287 24 278
3 289 288 285
3 285 78 289
3 288 77 285
3 289 0 288
3 292 290 291
3 291 80 292
3 290 74 291
3 292 79 290
3 281 293 291
3 291 74 281
3 293 80 291
3 281 22 293
3 294 280 290
3 290 79 294
3 280 74 290
3 294 23 280
3 296 295 292
3 292 80 296
3 295 79 292
3 296 4 295
3 299 297 298
3 298 82 299
3 297 76 298
3 299 81 297
3 277 300 298
3 298 76 277
3 300 82 298
3 277 24 300
3 301 282 297
3 297 81 301
3 282 76 297
3 301 22 282
3 303 302 299
3 299 82 303
3 302 81 299
3 303 3 302
3 306 304 305
3 305 85 306
3 304 84 305
3 306 83 304
3 308 307 305
3 305 84 308
3 307 85 305
3 308 26 307
3 310 309 304
3 304 83 310
3 309 84 304
3 310 24 309
3 312 311 306
3 306 85 312
3 311 83 306
3 312 25 311
3 315 313 314
3 314 77 315
3 313 84 314
3 315 86 313
3 309 287 314
3 314 84 309
3 287 77 314
3 309 24 287
3 316 308 313
3 313 86 316
3 308 84 313
3 316 26 308
3 288 317 315
3 315 77 288
3 317 86 315
3 288 0 317
3 320 318 319
3 319 87 320
3 318 83 319
3 320 82 318
3 311 321 319
3 319 83 311
3 321 87 319
3 311 25 321
3 300 310 318
3 318 82 300
3 310 83 318
3 300 24 310
3 322 303 320
3 320 87 322
3 303 82 320
3 322 3 303
3 325 323 324
3 324 89 325
3 323 85 324
3 325 88 323
3 307 326 324
3 324 85 307
3 326 89 324
3 307 26 326
3 327 312 323
3 323 88 327
3 312 85 323
3 327 25 312
3 329 328 325
3 325 89 329
3 328 88 325
3 329 5 328
3 332 330 331
3 331 92 332
3 330 91 331
3 332 90 330
3 334 333 331
3 331 91 334
3 333 92 331
3 334 29 333
3 336 335 330
3 330 90 336
3 335 91 330
3 336 28 335
3 338 337 332
3 332 92 338
3 337 90 332
3 338 27 337
3 341 339 340
3 340 94 341
3 339 91 340
3 341 93 339
3 335 342 340
3 340 91 335
3 342 94 340
3 335 28 342
3 343 334 339
3 339 93 343
3 334 91 339
3 343 29 334
3 345 344 341
3 341 94 345
3 344 93 341
3 345 2 344
3 348 346 347
3 347 96 348
3 346 90 347
3 348 95 346
3 337 349 347
3 347 90 337
3 349 96 347
3 337 27 349
3 350 336 346
3 346 95 350
3 336 90 346
3 350 28 336
3 352 351 348
3 348 96 352
3 351 95 348
3 352 7 351
3 355 353 354
3 354 98 355
3 353 92 354
3 355 97 353
3 333 356 354
3 354 92 333
3 356 98 354
3 333 29 356
3 357 338 353
3 353 97 357
3 338 92 353
3 357 27 338
3 359 358 355
3 355 98 359
3 358 97 355
3 359 1 358
3 362 360 361
3 361 101 362
3 360 100 361
3 362 99 360
3 364 363 361
3 361 100 364
3 363 101 361
3 364 31 363
3 366 365 360
3 360 99 366
3 365 100 360
3 366 29 365
3 368 367 362
3 362 101 368
3 367 99 362
3 368 30 367
3 371 369 370
3 370 93 371
3 369 100 370
3 371 102 369
3 365 343 370
3 370 100 365
3 343 93 370
3 365 29 343
3 372 364 369
3 369 102 372
3 364 100 369
3 372 31 364
3 344 373 371
3 371 93 344
3 373 102 371
3 344 2 373
3 376 374 375
3 375 103 376
3 374 99 375
3 376 98 374
3 367 377 375
3 375 99 367
3 377 103 375
3 367 30 377
3 356 366 374
3 374 98 356
3 366 99 374
3 356 29 366
3 378 359 376
3 376 103 378
3 359 98 376
3 378 1 359
3 381 379 380
3 380 105 381
3 379 101 380
3 381 104 379
3 363 382 380
3 380 101 363
3 382 105 380
3 363 31 382
3 383 368 379
3 379 104 383
3 368 101 379
3 383 30 368
3 385 384 381
3 381 105 385
3 384 104 381
3 385 6 384
3 388 386 387
3 387 108 388
3 386 107 387
3 388 106 386
3 390 389 387
3 387 107 390
3 389 108 387
3 390 34 389
3 392 391 386
3 386 106 392
3 391 107 386
3 392 33 391
3 394 393 388
3 388 108 394
3 393 106 388
3 394 32 393
3 397 395 396
3 396 110 397
3 395 107 396
3 397 109 395
3 391 398 396
3 396 107 391
3 398 110 396
3 391 33 398
3 399 390 395
3 395 109 399
3 390 107 395
3 399 34 390
3 401 400 397
3 397 110 401
3 400 109 397
3 401 8 400
3 404 402 403
3 403 112 404
3 402 106 403
3 404 111 402
3 393 405 403
3 403 106 393
3 405 112 403
3 393 32 405
3 406 392 402
3 402 111 406
3 392 106 402
3 406 33 392
3 408 407 404
3 404 112 408
3 407 111 404
3 408 0 407
3 411 409 410
3 410 114 411
3 409 108 410
3 411 113 409
3 389 412 410
3 410 108 389
3 412 114 410
3 389 34 412
3 413 394 409
3 409 113 413
3 394 108 409
3 413 32 394
3 415 414 411
3 411 114 415
3 414 113 411
3 415 11 414
3 418 416 417
3 417 117 418
3 416 116 417
3 418 115 416
3 420 419 417
3 417 116 420
3 419 117 417
3 420 36 419
3 422 421 416
3 416 115 422
3 421 116 416
3 422 34 421
3 424 423 418
3 418 117 424
3 423 115 418
3 424 35 423
3 427 425 426
3 426 109 427
3 425 116 426
3 427 118 425
3 421 399 426
3 426 116 421
3 399 109 426
3 421 34 399
3 428 420 425
3 425 118 428
3 420 116 425
3 428 36 420
3 400 429 427
3 427 109 400
3 429 118 427
3 400 8 429
3 432 430 431
3 431 119 432
3 430 115 431
3 432 114 430
3 423 433 431
3 431 115 423
3 433 119 431
3 423 35 433
3 412 422 430
3 430 114 412
3 422 115 430
3 412 34 422
3 434 415 432
3 432 119 434
3 415 114 432
3 434 11 415
3 437 435 436
3 436 121 437
3 435 117 436
3 437 120 435
3 419 438 436
3 436 117 419
3 438 121 436
3 419 36 438
3 439 424 435
3 435 120 439
3 424 117 435
3 439 35 424
3 441 440 437
3 437 121 441
3 440 120 437
3 441 1 440
3 444 442 443
3 443 124 444
3 442 123 443
3 444 122 442
3 446 445 443
3 443 123 446
3 445 124 443
3 446 39 445
3 448 447 442
3 442 122 448
3 447 123 442
3 448 38 447
3 450 449 444
3 444 124 450
3 449 122 444
3 450 37 449
3 453 451 452
3 452 126 453
3 451 123 452
3 453 125 451
3 447 454 452
3 452 123 447
3 454 126 452
3 447 38 454
3 455 446 451
3 451 125 455
3 446 123 451
3 455 39 446
3 457 456 453
3 453 126 457
3 456 125 453
3 457 9 456
3 460 458 459
3 459 128 460
3 458 122 459
3 460 127 458
3 449 461 459
3 459 122 449
3 461 128 459
3 449 37 461
3 462 448 458
3 458 127 462
3 448 122 458
3 462 38 448
3 464 463 460
3 460 128 464
3 463 127 460
3 464 10 463
3 467 465 466
3 466 130 467
3 465 124 466
3 467 129 465
3 445 468 466
3 466 124 445
3 468 130 466
3 445 39 468
3 469 450 465
3 465 129 469
3 450 124 465
3 469 37 450
3 471 470 467
3 467 130 471
3 470 129 467
3 471 3 470
3 474 472 473
3 473 133 474
3 472 132 473
3 474 131 472
3 476 475 473
3 473 132 476
3 475 133 473
3 476 38 475
3 478 477 472
3 472 131 478
3 477 132 472
3 478 41 477
3 480 479 474
3 474 133 480
3 479 131 474
3 480 40 479
3 483 481 482
3 482 134 483
3 481 132 482
3 483 126 481
3 477 484 482
3 482 132 477
3 484 134 482
3 477 41 484
3 454 476 481
3 481 126 454
3 476 132 481
3 454 38 476
3 485 457 483
3 483 134 485
3 457 126 483
3 485 9 457
3 488 486 487
3 487 136 488
3 486 131 487
3 488 135 486
3 479 489 487
3 487 131 479
3 489 136 487
3 479 40 489
3 490 478 486
3 486 135 490
3 478 131 486
3 490 41 478
3 492 491 488
3 488 136 492
3 491 135 488
3 492 2 491
3 495 493 494
3 494 127 495
3 493 133 494
3 495 137 493
3 475 462 494
3 494 133 475
3 462 127 494
3 475 38 462
3 496 480 493
3 493 137 496
3 480 133 493
3 496 40 480
3 463 497 495
3 495 127 463
3 497 137 495
3 463 10 497
3 500 498 499
3 499 140 500
3 498 139 499
3 500 138 498
3 502 501 499
3 499 139 502
3 501 140 499
3 502 33 501
3 504 503 498
3 498 138 504
3 503 139 498
3 504 13 503
3 506 505 500
3 500 140 506
3 505 138 500
3 506 23 505
3 509 507 508
3 508 47 509
3 507 139 508
3 509 110 507
3 503 182 508
3 508 139 503
3 182 47 508
3 503 13 182
3 398 502 507
3 507 110 398
3 502 139 507
3 398 33 502
3 183 401 509
3 509 47 183
3 401 110 509
3 183 8 401
3 512 510 511
3 511 79 512
3 510 138 511
3 512 46 510
3 505 294 511
3 511 138 505
3 294 79 511
3 505 23 294
3 174 504 510
3 510 46 174
3 504 138 510
3 174 13 504
3 295 177 512
3 512 79 295
3 177 46 512
3 295 4 177
3 515 513 514
3 514 111 515
3 513 140 514
3 515 78 513
3 501 406 514
3 514 140 501
3 406 111 514
3 501 33 406
3 286 506 513
3 513 78 286
3 506 140 513
3 286 23 506
3 407 289 515
3 515 111 407
3 289 78 515
3 407 0 289
3 518 516 517
3 517 143 518
3 516 142 517
3 518 141 516
3 520 519 517
3 517 142 520
3 519 143 517
3 520 19 519
3 522 521 516
3 516 141 522
3 521 142 516
3 522 32 521
3 524 523 518
3 518 143 524
3 523 141 518
3 524 26 523
3 527 525 526
3 526 113 527
3 525 142 526
3 527 66 525
3 521 413 526
3 526 142 521
3 413 113 526
3 521 32 413
3 244 520 525
3 525 66 244
3 520 142 525
3 244 19 520
3 414 247 527
3 527 113 414
3 247 66 527
3 414 11 247
3 530 528 529
3 529 86 530
3 528 141 529
3 530 112 528
3 523 316 529
3 529 141 523
3 316 86 529
3 523 26 316
3 405 522 528
3 528 112 405
3 522 141 528
3 405 32 522
3 317 408 530
3 530 86 317
3 408 112 530
3 317 0 408
3 533 531 532
3 532 61 533
3 531 143 532
3 533 89 531
3 519 231 532
3 532 143 519
3 231 61 532
3 519 19 231
3 326 524 531
3 531 89 326
3 524 143 531
3 326 26 524
3 232 329 533
3 533 61 232
3 329 89 533
3 232 5 329
3 536 534 535
3 535 146 536
3 534 145 535
3 536 144 534
3 538 537 535
3 535 145 538
3 537 146 535
3 538 22 537
3 540 539 534
3 534 144 540
3 539 145 534
3 540 16 539
3 542 541 536
3 536 146 542
3 541 144 536
3 542 39 541
3 545 543 544
3 544 54 545
3 543 145 544
3 545 80 543
3 539 204 544
3 544 145 539
3 204 54 544
3 539 16 204
3 293 538 543
3 543 80 293
3 538 145 543
3 293 22 538
3 205 296 545
3 545 54 205
3 296 80 545
3 205 4 296
3 548 546 547
3 547 125 548
3 546 144 547
3 548 57 546
3 541 455 547
3 547 144 541
3 455 125 547
3 541 39 455
3 214 540 546
3 546 57 214
3 540 144 546
3 214 16 540
3 456 217 548
3 548 125 456
3 217 57 548
3 456 9 217
3 551 549 550
3 550 81 551
3 549 146 550
3 551 130 549
3 537 301 550
3 550 146 537
3 301 81 550
3 537 22 301
3 468 542 549
3 549 130 468
3 542 146 549
3 468 39 542
3 302 471 551
3 551 81 302
3 471 130 551
3 302 3 471
3 554 552 553
3 553 149 554
3 552 148 553
3 554 147 552
3 556 555 553
3 553 148 556
3 555 149 553
3 556 21 555
3 558 557 552
3 552 147 558
3 557 148 552
3 558 25 557
3 560 559 554
3 554 149 560
3 559 147 554
3 560 37 559
3 563 561 562
3 562 88 563
3 561 148 562
3 563 70 561
3 557 327 562
3 562 148 557
3 327 88 562
3 557 25 327
3 260 556 561
3 561 70 260
3 556 148 561
3 260 21 556
3 328 261 563
3 563 88 328
3 261 70 563
3 328 5 261
3 566 564 565
3 565 129 566
3 564 147 565
3 566 87 564
3 559 469 565
3 565 147 559
3 469 129 565
3 559 37 469
3 321 558 564
3 564 87 321
3 558 147 564
3 321 25 558
3 470 322 566
3 566 129 470
3 322 87 566
3 470 3 322
3 569 567 568
3 568 71 569
3 567 149 568
3 569 128 567
3 555 266 568
3 568 149 555
3 266 71 568
3 555 21 266
3 461 560 567
3 567 128 461
3 560 149 567
3 461 37 560
3 267 464 569
3 569 71 267
3 464 128 569
3 267 10 464
3 572 570 571
3 571 152 572
3 570 151 571
3 572 150 570
3 574 573 571
3 571 151 574
3 573 152 571
3 574 27 573
3 576 575 570
3 570 150 576
3 575 151 570
3 576 12 575
3 578 577 572
3 572 152 578
3 577 150 572
3 578 36 577
3 581 579 580
3 580 49 581
3 579 151 580
3 581 96 579
3 575 189 580
3 580 151 575
3 189 49 580
3 575 12 189
3 349 574 579
3 579 96 349
3 574 151 579
3 349 27 574
3 190 352 581
3 581 49 190
3 352 96 581
3 190 7 352
3 584 582 583
3 583 118 584
3 582 150 583
3 584 48 582
3 577 428 583
3 583 150 577
3 428 118 583
3 577 36 428
3 181 576 582
3 582 48 181
3 576 150 582
3 181 12 576
3 429 184 584
3 584 118 429
3 184 48 584
3 429 8 184
3 587 585 586
3 586 97 587
3 585 152 586
3 587 121 585
3 573 357 586
3 586 152 573
3 357 97 586
3 573 27 357
3 438 578 585
3 585 121 438
3 578 152 585
3 438 36 578
3 358 441 587
3 587 97 358
3 441 121 587
3 358 1 441
3 590 588 589
3 589 155 590
3 588 154 589
3 590 153 588
3 592 591 589
3 589 154 592
3 591 155 589
3 592 17 591
3 594 593 588
3 588 153 594
3 593 154 588
3 594 30 593
3 596 595 590
3 590 155 596
3 595 153 590
3 596 35 595
3 599 597 598
3 598 104 599
3 597 154 598
3 599 64 597
3 593 383 598
3 598 154 593
3 383 104 598
3 593 30 383
3 237 592 597
3 597 64 237
3 592 154 597
3 237 17 592
3 384 240 599
3 599 104 384
3 240 64 599
3 384 6 240
3 602 600 601
3 601 120 602
3 600 153 601
3 602 103 600
3 595 439 601
3 601 153 595
3 439 120 601
3 595 35 439
3 377 594 600
3 600 103 377
3 594 153 600
3 377 30 594
3 440 378 602
3 602 120 440
3 378 103 602
3 440 1 378
3 605 603 604
3 604 65 605
3 603 155 604
3 605 119 603
3 591 245 604
3 604 155 591
3 245 65 604
3 591 17 245
3 433 596 603
3 603 119 433
3 596 155 603
3 433 35 596
3 246 434 605
3 605 65 246
3 434 119 605
3 246 11 434
3 608 606 607
3 607 158 608
3 606 157 607
3 608 156 606
3 610 609 607
3 607 157 610
3 609 158 607
3 610 15 609
3 612 611 606
3 606 156 612
3 611 157 606
3 612 28 611
3 614 613 608
3 608 158 614
3 613 156 608
3 614 41 613
3 617 615 616
3 616 95 617
3 615 157 616
3 617 55 615
3 611 350 616
3 616 157 611
3 350 95 616
3 611 28 350
3 209 610 615
3 615 55 209
3 610 157 615
3 209 15 610
3 351 210 617
3 617 95 351
3 210 55 617
3 351 7 210
3 620 618 619
3 619 135 620
3 618 156 619
3 620 94 618
3 613 490 619
3 619 156 613
3 490 135 619
3 613 41 490
3 342 612 618
3 618 94 342
3 612 156 618
3 342 28 612
3 491 345 620
3 620 135 491
3 345 94 620
3 491 2 345
3 623 621 622
3 622 56 623
3 621 158 622
3 623 134 621
3 609 215 622
3 622 158 609
3 215 56 622
3 609 15 215
3 484 614 621
3 621 134 484
3 614 158 621
3 484 41 614
3 216 485 623
3 623 56 216
3 485 134 623
3 216 9 485
3 626 624 625
3 625 161 626
3 624 160 625
3 626 159 624
3 628 627 625
3 625 160 628
3 627 161 625
3 628 31 627
3 630 629 624
3 624 159 630
3 629 160 624
3 630 20 629
3 632 631 626
3 626 161 632
3 631 159 626
3 632 40 631
3 635 633 634
3 634 73 635
3 633 160 634
3 635 105 633
3 629 272 634
3 634 160 629
3 272 73 634
3 629 20 272
3 382 628 633
3 633 105 382
3 628 160 633
3 382 31 628
3 273 385 635
3 635 73 273
3 385 105 635
3 273 6 385
3 638 636 637
3 637 137 638
3 636 159 637
3 638 72 636
3 631 496 637
3 637 159 631
3 496 137 637
3 631 40 496
3 265 630 636
3 636 72 265
3 630 159 636
3 265 20 630
3 497 268 638
3 638 137 497
3 268 72 638
3 497 10 268
3 641 639 640
3 640 102 641
3 639 161 640
3 641 136 639
3 627 372 640
3 640 161 627
3 372 102 640
3 627 31 372
3 489 632 639
3 639 136 489
3 632 161 639
3 489 40 632
3 373 492 641
3 641 102 373
3 492 136 641
3 373 2 492
