# vtk DataFile Version 3.0
this file was written using fslvtkio
ASCII
DATASET POLYDATA
POINTS 642 float
111.537 100.718 141.446
104.927 103.488 149.506
99.7858 106.776 133.412
105.893 103.085 126.199
107.104 92.8868 131.034
109.294 108.091 138.879
106.469 110.255 141.778
101.444 96.363 137.484
108.821 94.876 148.89
101.268 101.254 121.305
102.092 114.708 123.653
116.632 107.863 152.901
104.285 93.4138 143.972
108.029 92.0304 140.081
103.186 91.9363 133.48
100.752 97.8057 128.988
103.71 94.3486 123.609
112.506 111.152 149.132
108.877 110.093 140.592
117.647 110.566 145.232
103.078 113.198 131.488
105.016 111.141 129.693
107.148 97.7705 126.387
110.29 96.0258 136.217
108.15 101.162 134.1
105.661 106.005 132.226
111.723 105.181 141.556
102.525 99.2385 144.547
99.8613 101.493 135.182
101.96 105.049 141.972
106.642 108.089 147.696
102.201 109.669 137.007
116.269 104.102 147.628
111.65 97.8029 145.686
112.813 101.177 154.019
110.404 106.022 154.658
106.535 98.3704 152.237
104.354 108.326 122.669
100.696 108.829 118.907
104.394 101.891 118.291
100.492 111.239 126.931
100.069 104.583 126.554
105.903 91.4165 142.247
105.464 90.6529 136.836
103.654 92.2591 138.703
105.182 91.2474 131.787
107.713 91.9661 135.524
108.457 93.1366 144.791
106.388 93.0827 147.244
102.891 94.8722 140.706
102.094 94.1209 135.671
101.66 94.5388 131.037
103.15 92.7296 128.396
101.952 95.8034 126.292
105.568 92.9016 126.97
100.721 96.8334 133.311
101.055 99.4201 125.081
102.139 97.7638 122.226
111.561 111.337 145.356
113.378 110.489 144.08
115.54 112.123 147.525
113.182 108.84 142.693
109.214 109.309 139.675
107.845 110.536 141.275
109.247 110.626 145.896
114.963 110.178 151.616
118.472 109.914 149.01
104.405 113.561 130.154
105.718 110.285 134.654
105.453 110.823 135.835
106.204 109.02 134.927
104.183 113.659 126.224
102.154 116.332 127.657
104.816 110.999 137.364
108.861 96.7156 131.242
109.644 98.6454 134.475
108.233 99.391 130.148
109.845 100.772 137.871
110.908 98.3671 138.705
108.88 94.1628 133.568
107.31 94.9915 128.434
106.871 100.65 126.116
106.796 101.961 130.21
106.851 103.585 133.695
108.929 103.017 137.878
108.189 105.209 137.291
111.55 103.042 141.934
105.458 104.553 129.182
107.047 107.169 135.764
110.825 106.85 140.414
101.04 100.361 139.901
100.536 103.207 138.792
101.953 102.192 143.241
100.617 106.036 137.77
99.8357 104.217 134.307
100.5 98.7956 136.371
102.057 97.6843 141.087
103.415 101.213 147.53
103.352 104.273 146.09
104.079 106.612 144.776
101.98 107.586 140.148
104.276 108.601 142.685
100.796 108.494 134.958
105.922 105.919 149.101
106.677 109.431 144.782
104.193 110.068 139.506
114.044 100.934 147.452
112.544 99.5163 150.103
115.145 102.823 151.252
110.422 97.8508 151.833
110.363 96.2892 147.524
112.207 99.245 143.301
113.876 102.139 144.599
117.298 106.18 150.158
115.245 104.639 154.708
111.969 103.418 156.611
109.65 99.0669 154.922
108.356 102.092 154.686
107.584 95.5805 151.553
113.689 107.628 155.097
107.418 104.364 152.422
105.84 101.134 151.153
103.236 109.503 118.66
102.764 105.261 115.818
104.621 105.486 119.789
102.117 100.607 118.09
101.119 104.685 119.448
101.047 112.979 120.197
103.496 111.594 122.823
104.988 105.457 124.438
105.573 102.656 122.316
100.046 108.048 126.315
100.369 106.752 122.426
100.308 110.725 122.699
100.523 103.034 123.622
99.6859 105.759 130.062
99.9039 108.856 130.365
100.285 114.301 125.201
109.497 93.8325 138.229
109.904 94.6605 142.942
111.056 96.4901 141.071
115.035 104.771 144.426
118.102 107.279 146.115
115.276 107.467 143.597
104.093 97.8815 120.019
105.964 95.8184 123.973
105.613 99.5693 122.353
104.702 107.151 127.291
105.297 108.416 131.27
104.568 110.148 126.186
105.196 95.5921 148.549
103.452 96.341 144.882
104.275 98.545 148.627
108.646 107.325 151.509
109.279 109.768 148.961
111.619 109.186 152.449
99.6413 102.822 130.884
100.037 99.6661 131.913
100.186 101.242 127.681
101.151 113.429 129.309
102.682 111.223 134.324
100.618 110.884 131.837
105.61 90.8523 139.499
104.344 91.1488 137.873
104.626 91.6107 140.54
103.363 91.9003 136.162
104.191 91.0146 135.303
106.734 91.1652 138.49
106.95 91.4614 140.947
104.902 92.2188 143.046
103.945 92.7195 141.342
105.365 90.6509 134.414
106.692 91.1248 136.135
106.37 91.5702 133.704
107.771 91.9267 137.838
104.107 91.2003 132.71
106.198 92.0341 131.344
107.268 92.4537 133.253
107.241 92.0057 143.522
106.059 92.1096 144.726
107.375 92.6941 145.902
105.277 93.1176 145.65
108.193 92.4841 142.456
108.577 93.8427 146.923
107.723 93.5949 148.195
103.221 93.5291 139.83
102.824 93.0535 137.191
102.372 94.2606 138.226
102.5 92.8839 134.655
103.51 93.9911 142.306
102.139 95.5598 138.985
101.754 95.2316 136.642
102.334 93.5449 129.745
102.53 94.2296 127.267
101.785 95.0977 128.661
102.762 94.9426 124.932
103.373 93.3202 125.969
103.153 92.2953 130.937
102.38 93.1729 132.181
101.198 96.1274 129.79
101.275 96.6911 127.709
104.242 92.3448 127.486
104.064 91.6355 130.069
105.33 91.9889 129.307
104.666 93.3072 125.078
106.33 92.8593 129.055
101.828 94.1695 133.387
101.274 95.6973 132.096
101.31 95.3956 134.431
100.772 97.1575 131.088
101.069 96.5535 135.48
101.421 97.5919 125.721
102.16 96.7033 124.267
101.579 98.5353 123.656
102.857 95.9757 122.747
100.882 98.4994 127.032
101.149 100.315 123.125
101.644 99.5931 121.665
112.191 110.736 144.476
114.627 111.418 145.492
113.374 112.029 146.229
116.851 111.73 146.476
115.771 110.844 144.823
111.018 110.181 142.696
110.487 110.583 143.18
112.137 111.566 147.272
114.025 111.825 148.365
113.712 109.794 143.463
111.4 109.789 142.09
111.451 109.11 141.644
109.142 109.76 140.155
115.526 109.526 144.014
110.957 108.408 140.773
109.211 108.731 139.353
109.717 110.711 143.533
110.463 111.122 145.761
108.835 110.55 143.765
110.82 111.028 147.775
108.443 110.385 140.971
107.187 110.465 141.537
107.747 110.341 143.718
115.578 111.485 149.607
117.318 111.456 148.468
116.879 110.516 150.439
118.589 110.565 147.037
113.847 111.002 150.492
116.072 109.227 152.37
117.547 108.971 150.977
104.878 111.687 132.146
105.669 110.538 135.294
104.509 112.134 132.701
107.156 110.474 138.207
107.337 110.077 137.792
105.006 110.888 131.797
104.92 112.464 129.85
103.622 113.957 130.726
104.068 112.113 133.07
107.42 109.629 137.554
105.719 109.82 134.448
107.529 109.086 137.187
105.166 109.904 132.069
107.779 108.469 137.072
104.44 114.013 128.165
103.622 115.294 128.768
103.324 115.226 126.699
102.442 115.401 129.701
104.814 112.462 127.855
103.192 114.341 124.865
101.955 115.784 125.507
105.112 110.895 136.341
106.78 110.676 138.768
106.255 110.875 139.196
103.996 111.533 134.356
105.659 110.594 139.613
109.422 97.6213 132.894
108.883 98.9802 132.353
108.599 98.0165 130.547
108.255 100.248 132.123
108.939 99.9244 134.065
110.136 97.2868 135.131
109.706 96.2923 133.707
108 97.2291 128.797
107.799 98.5478 128.259
109.737 99.7245 136.041
110.398 98.4212 136.467
110.429 99.5236 138.072
110.78 97.1446 137.391
109.003 100.92 135.919
110.812 100.748 139.624
111.097 99.561 140.062
109.018 95.4196 132.377
108.117 95.8651 129.815
108.107 94.5717 131.069
107.346 96.3383 127.337
109.67 95.0621 134.815
107.925 93.4398 132.337
107.209 93.8652 129.771
107.456 99.8925 128.127
107.503 100.626 130.182
106.939 101.266 128.21
107.471 101.497 132.124
107.021 99.19 126.203
106.438 101.951 126.206
106.272 102.528 128.228
107.655 103.098 135.864
108.482 104.091 137.7
107.16 104.336 135.586
109.71 105.071 139.418
109.99 104.1 139.652
108.349 102.065 136.02
107.492 102.35 133.995
106.386 104.822 133.294
106.877 105.457 134.982
110.283 103.102 139.869
109.427 101.954 137.859
110.579 101.939 139.807
111.557 104.163 141.797
111.464 101.781 141.66
106.797 102.808 132.009
106.106 104.125 131.61
106.161 103.301 129.99
105.495 105.328 130.753
105.662 103.786 127.666
107.593 106.194 136.533
109.36 105.98 138.953
108.801 106.833 138.224
111.342 106.015 141.053
106.255 106.593 133.992
108.084 107.608 137.439
110.041 107.536 139.573
100.636 101.744 139.451
101.272 102.69 141.028
101.462 101.224 141.647
101.828 103.639 142.538
101.118 104.081 140.446
100.132 102.278 137.121
100.328 100.932 137.603
101.775 99.857 142.222
102.114 100.683 143.779
100.508 104.62 138.337
99.9767 103.683 136.633
100.092 105.067 136.175
99.7946 102.858 134.841
101.015 105.477 139.952
100.199 106.419 135.627
99.8311 105.59 134.084
100.664 99.5683 138.104
101.502 99.0292 140.578
101.208 98.2348 138.853
102.196 98.4566 142.839
100.077 100.15 135.81
100.937 97.521 137.008
101.747 96.907 139.287
102.634 101.657 145.368
102.533 103.184 144.66
103.133 102.737 146.633
102.664 104.585 144.023
102.81 100.191 146.077
104.071 102.453 148.486
104.071 103.852 147.849
102.968 107.051 142.427
102.998 108.176 141.298
104.172 107.659 143.696
103.207 109.063 140.099
102.282 108.676 138.81
101.95 106.351 141.202
102.916 105.903 143.43
105.256 107.337 146.153
105.438 108.218 145.141
101.389 108.12 137.658
101.126 106.876 139.088
100.697 107.362 136.625
101.52 109.19 136.017
100.259 107.638 134.167
103.696 105.519 145.448
105.007 106.279 146.955
104.52 105.162 147.518
106.312 107.045 148.364
105.358 104.684 149.308
105.459 108.957 143.825
104.218 109.499 141.199
105.441 109.627 142.288
103.21 109.809 138.39
106.7 108.865 146.41
106.61 109.939 143.209
105.359 110.155 140.754
113.376 100.254 148.844
113.947 101.123 150.887
114.649 101.838 149.374
114.094 101.942 152.83
112.793 100.381 152.131
112.168 98.7 147.958
112.804 99.3898 146.856
115.216 102.455 147.81
115.842 103.423 149.473
111.583 98.7643 151.098
111.348 97.9796 148.871
110.532 97.0342 149.793
111.067 97.0725 146.619
111.582 99.5035 153.038
109.552 96.1545 150.482
109.547 95.5457 148.206
113.072 99.97 145.499
114.196 101.44 145.994
112.978 100.635 144.021
115.217 102.937 146.202
112.158 98.5494 144.675
111.857 99.9044 142.171
112.537 101.381 143.011
116.259 104.445 150.978
115.319 103.619 153.064
116.544 105.334 152.638
114.194 102.836 154.636
116.922 105.099 148.92
117.416 107.139 151.636
116.078 106.347 154.039
110.866 101.08 156.12
108.974 100.575 155.263
110.05 102.658 156.023
107.488 100.168 153.751
107.858 98.5675 154.004
111.39 100.005 154.785
112.605 101.87 155.744
111.05 104.777 155.915
109.463 103.993 154.913
108.537 97.2187 153.46
110.179 98.2916 153.522
109.054 96.4667 151.921
107.012 96.924 152.195
108.237 94.9167 150.235
113.775 103.912 156.169
112.863 105.608 156.289
114.701 106.115 155.54
111.967 106.852 155.331
115.307 107.959 154.214
108.017 103.197 153.472
106.983 101.442 153.033
106.497 102.747 151.945
106.226 99.8145 152.008
108.913 105.007 153.686
106.211 103.872 150.872
105.309 102.36 150.243
103.282 107.553 117.021
104.059 105.551 117.445
104.104 107.332 118.806
104.518 103.821 118.786
103.904 103.525 116.616
101.574 107.138 117.048
101.836 109.511 117.56
104.04 108.938 120.371
104.576 107.13 120.92
102.275 102.891 116.613
101.56 104.875 117.443
101.518 102.736 118.468
100.915 106.653 118.858
103.43 101.08 117.133
101.644 101.052 119.744
101.127 102.861 120.307
102.227 111.289 119.077
103.472 110.761 120.686
102.673 112.698 121.156
103.968 109.899 122.524
100.657 111.072 119.098
101.552 114.335 121.966
102.977 113.194 123.297
104.916 105.645 121.979
105.075 104.029 120.927
105.429 104.22 123.173
105.003 102.363 120.184
104.812 106.859 123.176
105.49 104.227 125.427
105.993 102.964 124.3
100.182 107.599 124.259
100.416 108.759 122.418
100.161 109.396 124.399
100.476 109.94 120.7
100.539 107.765 120.571
100.094 105.794 124.403
100.063 106.383 126.172
100.292 109.643 126.532
100.157 111.125 124.857
100.653 105.834 120.803
100.361 104.902 122.894
100.71 103.9 121.519
100.227 103.968 124.956
100.904 102.095 122.389
100.001 106.84 128.144
100.134 108.435 128.344
99.8549 107.292 130.227
100.355 109.924 128.533
99.9129 105.293 128.156
99.4045 106.226 131.955
99.6345 107.785 132.036
100.127 112.593 123.736
100.266 111.919 121.309
100.081 113.952 122.484
100.423 112.755 125.847
100.628 115.442 124.2
109.738 94.1358 140.556
110.642 95.5201 142.014
110.236 95.1939 139.576
111.427 96.984 143.46
110.764 96.1914 144.334
108.981 93.2894 141.509
108.826 92.9238 139.201
110.037 94.8975 137.305
110.696 96.1022 138.563
110.148 95.4478 145.292
109.172 93.8844 143.807
109.446 94.5756 146.147
108.653 92.8379 136.93
109.359 93.9278 135.918
108.399 93.0742 134.606
111.089 97.3644 139.811
111.695 97.8106 142.359
111.479 98.6363 141.047
116.567 105.858 145.141
117.004 107.447 144.674
115.041 106.094 143.85
116.79 108.884 144.219
118.495 109.072 145.56
117.167 105.659 146.819
116.1 104.397 145.873
113.451 105.107 143.124
113.479 106.281 142.773
118.728 108.618 147.387
117.956 106.591 148.061
118.239 107.884 149.496
114.597 103.498 144.697
113.194 103.97 143.329
112.82 102.723 143.314
112.846 107.055 142.263
114.253 108.233 143.255
111.767 107.826 141.62
105.08 96.8433 122.003
105.829 97.7779 123.125
104.957 98.8869 120.903
106.384 98.5971 124.376
106.567 96.7906 125.085
104.973 94.9293 123.314
104.008 95.9457 121.599
104.209 99.7932 118.685
104.89 100.673 120.172
106.628 95.3617 126.159
105.806 94.1712 125.169
106.575 93.9123 127.452
102.846 97.3293 120.845
102.968 98.8358 118.493
102.023 99.1982 120.146
105.528 101.139 122.201
106.362 100.055 124.304
106.367 101.59 124.238
104.841 107.95 129.112
104.83 109.228 128.412
104.576 108.559 126.521
104.817 110.714 127.983
104.983 109.628 130.324
105.44 107.23 131.661
104.916 106.639 129.793
104.62 107.706 124.81
104.379 109.307 124.398
105.698 108.878 133.057
105.989 107.758 133.648
106.748 108.158 135.586
104.972 105.82 128.478
104.776 106.353 125.837
105.187 105.032 126.942
104.201 111.007 124.464
104.569 111.805 126.4
103.919 112.685 124.734
104.257 95.8978 146.738
103.714 97.3783 146.826
104.792 97.1196 148.722
103.312 98.8127 146.641
102.994 97.8288 144.906
103.854 94.8614 144.527
104.697 94.443 146.327
105.769 96.909 150.482
105.425 98.3635 150.452
102.702 97.0087 143.102
103.1 95.474 142.9
102.457 96.2886 141.059
105.638 94.1767 148.097
106.264 95.5063 150.365
106.871 94.2054 149.497
105.112 99.7569 150.13
103.809 99.8485 148.206
104.472 101.1 149.486
108.925 108.793 150.417
110.461 109.6 150.877
110.053 108.173 152.183
112.091 110.397 150.811
110.776 110.483 149.265
107.933 108.937 148.417
107.613 107.865 149.765
109.469 106.731 153.235
111.009 107.723 153.762
109.229 110.336 147.384
107.779 109.628 146.878
107.781 110.073 145.177
107.297 106.625 150.449
108.141 105.872 152.242
106.806 105.22 150.848
112.48 108.423 154.093
113.13 109.847 152.166
114.303 109.08 153.522
99.8479 101.255 131.395
100.1 100.408 129.827
99.9301 102.089 129.194
100.444 99.5115 128.352
100.311 98.7287 130.399
99.8011 100.571 133.504
99.6783 102.048 132.977
99.8276 103.704 128.713
100.044 102.941 127.105
100.346 98.2478 132.518
100.031 99.243 134.179
100.433 97.8433 134.784
99.5575 103.411 132.625
99.5776 104.292 130.332
99.3939 104.871 132.252
100.368 102.216 125.672
100.528 100.303 126.392
100.725 101.214 124.388
101.727 112.434 131.778
101.396 111.416 133.07
100.845 112.061 130.317
101.241 110.453 134.474
102.371 110.525 135.609
102.969 112.023 132.931
102.096 113.657 130.604
100.836 112.513 127.869
100.567 111.104 129.211
103.423 110.619 137.059
103.773 111.081 135.658
104.509 110.472 138.381
101.395 115.158 128.898
100.706 114.086 127.352
100.709 115.76 126.655
100.242 110.018 130.981
100.624 109.776 133.593
99.9812 108.818 132.716
POLYGONS 1280  5120
3 164 162 163
3 163 44 164
3 162 43 163
3 164 42 162
3 166 165 163
3 163 43 166
3 165 44 163
3 166 14 165
3 168 167 162
3 162 42 168
3 167 43 162
3 168 13 167
3 170 169 164
3 164 44 170
3 169 42 164
3 170 12 169
3 173 171 172
3 172 46 173
3 171 43 172
3 173 45 171
3 167 174 172
3 172 43 167
3 174 46 172
3 167 13 174
3 175 166 171
3 171 45 175
3 166 43 171
3 175 14 166
3 177 176 173
3 173 46 177
3 176 45 173
3 177 4 176
3 180 178 179
3 179 48 180
3 178 42 179
3 180 47 178
3 169 181 179
3 179 42 169
3 181 48 179
3 169 12 181
3 182 168 178
3 178 47 182
3 168 42 178
3 182 13 168
3 184 183 180
3 180 48 184
3 183 47 180
3 184 8 183
3 187 185 186
3 186 50 187
3 185 44 186
3 187 49 185
3 165 188 186
3 186 44 165
3 188 50 186
3 165 14 188
3 189 170 185
3 185 49 189
3 170 44 185
3 189 12 170
3 191 190 187
3 187 50 191
3 190 49 187
3 191 7 190
3 194 192 193
3 193 53 194
3 192 52 193
3 194 51 192
3 196 195 193
3 193 52 196
3 195 53 193
3 196 16 195
3 198 197 192
3 192 51 198
3 197 52 192
3 198 14 197
3 200 199 194
3 194 53 200
3 199 51 194
3 200 15 199
3 203 201 202
3 202 45 203
3 201 52 202
3 203 54 201
3 197 175 202
3 202 52 197
3 175 45 202
3 197 14 175
3 204 196 201
3 201 54 204
3 196 52 201
3 204 16 196
3 176 205 203
3 203 45 176
3 205 54 203
3 176 4 205
3 208 206 207
3 207 55 208
3 206 51 207
3 208 50 206
3 199 209 207
3 207 51 199
3 209 55 207
3 199 15 209
3 188 198 206
3 206 50 188
3 198 51 206
3 188 14 198
3 210 191 208
3 208 55 210
3 191 50 208
3 210 7 191
3 213 211 212
3 212 57 213
3 211 53 212
3 213 56 211
3 195 214 212
3 212 53 195
3 214 57 212
3 195 16 214
3 215 200 211
3 211 56 215
3 200 53 211
3 215 15 200
3 217 216 213
3 213 57 217
3 216 56 213
3 217 9 216
3 220 218 219
3 219 60 220
3 218 59 219
3 220 58 218
3 222 221 219
3 219 59 222
3 221 60 219
3 222 19 221
3 224 223 218
3 218 58 224
3 223 59 218
3 224 18 223
3 226 225 220
3 220 60 226
3 225 58 220
3 226 17 225
3 229 227 228
3 228 62 229
3 227 59 228
3 229 61 227
3 223 230 228
3 228 59 223
3 230 62 228
3 223 18 230
3 231 222 227
3 227 61 231
3 222 59 227
3 231 19 222
3 233 232 229
3 229 62 233
3 232 61 229
3 233 5 232
3 236 234 235
3 235 64 236
3 234 58 235
3 236 63 234
3 225 237 235
3 235 58 225
3 237 64 235
3 225 17 237
3 238 224 234
3 234 63 238
3 224 58 234
3 238 18 224
3 240 239 236
3 236 64 240
3 239 63 236
3 240 6 239
3 243 241 242
3 242 66 243
3 241 60 242
3 243 65 241
3 221 244 242
3 242 60 221
3 244 66 242
3 221 19 244
3 245 226 241
3 241 65 245
3 226 60 241
3 245 17 226
3 247 246 243
3 243 66 247
3 246 65 243
3 247 11 246
3 250 248 249
3 249 69 250
3 248 68 249
3 250 67 248
3 252 251 249
3 249 68 252
3 251 69 249
3 252 18 251
3 254 253 248
3 248 67 254
3 253 68 248
3 254 21 253
3 256 255 250
3 250 69 256
3 255 67 250
3 256 20 255
3 259 257 258
3 258 70 259
3 257 68 258
3 259 62 257
3 253 260 258
3 258 68 253
3 260 70 258
3 253 21 260
3 230 252 257
3 257 62 230
3 252 68 257
3 230 18 252
3 261 233 259
3 259 70 261
3 233 62 259
3 261 5 233
3 264 262 263
3 263 72 264
3 262 67 263
3 264 71 262
3 255 265 263
3 263 67 255
3 265 72 263
3 255 20 265
3 266 254 262
3 262 71 266
3 254 67 262
3 266 21 254
3 268 267 264
3 264 72 268
3 267 71 264
3 268 10 267
3 271 269 270
3 270 63 271
3 269 69 270
3 271 73 269
3 251 238 270
3 270 69 251
3 238 63 270
3 251 18 238
3 272 256 269
3 269 73 272
3 256 69 269
3 272 20 256
3 239 273 271
3 271 63 239
3 273 73 271
3 239 6 273
3 276 274 275
3 275 76 276
3 274 75 275
3 276 74 274
3 278 277 275
3 275 75 278
3 277 76 275
3 278 24 277
3 280 279 274
3 274 74 280
3 279 75 274
3 280 23 279
3 282 281 276
3 276 76 282
3 281 74 276
3 282 22 281
3 285 283 284
3 284 78 285
3 283 75 284
3 285 77 283
3 279 286 284
3 284 75 279
3 286 78 284
3 279 23 286
3 287 278 283
3 283 77 287
3 278 75 283
3 287 24 278
3 289 288 285
3 285 78 289
3 288 77 285
3 289 0 288
3 292 290 291
3 291 80 292
3 290 74 291
3 292 79 290
3 281 293 291
3 291 74 281
3 293 80 291
3 281 22 293
3 294 280 290
3 290 79 294
3 280 74 290
3 294 23 280
3 296 295 292
3 292 80 296
3 295 79 292
3 296 4 295
3 299 297 298
3 298 82 299
3 297 76 298
3 299 81 297
3 277 300 298
3 298 76 277
3 300 82 298
3 277 24 300
3 301 282 297
3 297 81 301
3 282 76 297
3 301 22 282
3 303 302 299
3 299 82 303
3 302 81 299
3 303 3 302
3 306 304 305
3 305 85 306
3 304 84 305
3 306 83 304
3 308 307 305
3 305 84 308
3 307 85 305
3 308 26 307
3 310 309 304
3 304 83 310
3 309 84 304
3 310 24 309
3 312 311 306
3 306 85 312
3 311 83 306
3 312 25 311
3 315 313 314
3 314 77 315
3 313 84 314
3 315 86 313
3 309 287 314
3 314 84 309
3 287 77 314
3 309 24 287
3 316 308 313
3 313 86 316
3 308 84 313
3 316 26 308
3 288 317 315
3 315 77 288
3 317 86 315
3 288 0 317
3 320 318 319
3 319 87 320
3 318 83 319
3 320 82 318
3 311 321 319
3 319 83 311
3 321 87 319
3 311 25 321
3 300 310 318
3 318 82 300
3 310 83 318
3 300 24 310
3 322 303 320
3 320 87 322
3 303 82 320
3 322 3 303
3 325 323 324
3 324 89 325
3 323 85 324
3 325 88 323
3 307 326 324
3 324 85 307
3 326 89 324
3 307 26 326
3 327 312 323
3 323 88 327
3 312 85 323
3 327 25 312
3 329 328 325
3 325 89 329
3 328 88 325
3 329 5 328
3 332 330 331
3 331 92 332
3 330 91 331
3 332 90 330
3 334 333 331
3 331 91 334
3 333 92 331
3 334 29 333
3 336 335 330
3 330 90 336
3 335 91 330
3 336 28 335
3 338 337 332
3 332 92 338
3 337 90 332
3 338 27 337
3 341 339 340
3 340 94 341
3 339 91 340
3 341 93 339
3 335 342 340
3 340 91 335
3 342 94 340
3 335 28 342
3 343 334 339
3 339 93 343
3 334 91 339
3 343 29 334
3 345 344 341
3 341 94 345
3 344 93 341
3 345 2 344
3 348 346 347
3 347 96 348
3 346 90 347
3 348 95 346
3 337 349 347
3 347 90 337
3 349 96 347
3 337 27 349
3 350 336 346
3 346 95 350
3 336 90 346
3 350 28 336
3 352 351 348
3 348 96 352
3 351 95 348
3 352 7 351
3 355 353 354
3 354 98 355
3 353 92 354
3 355 97 353
3 333 356 354
3 354 92 333
3 356 98 354
3 333 29 356
3 357 338 353
3 353 97 357
3 338 92 353
3 357 27 338
3 359 358 355
3 355 98 359
3 358 97 355
3 359 1 358
3 362 360 361
3 361 101 362
3 360 100 361
3 362 99 360
3 364 363 361
3 361 100 364
3 363 101 361
3 364 31 363
3 366 365 360
3 360 99 366
3 365 100 360
3 366 29 365
3 368 367 362
3 362 101 368
3 367 99 362
3 368 30 367
3 371 369 370
3 370 93 371
3 369 100 370
3 371 102 369
3 365 343 370
3 370 100 365
3 343 93 370
3 365 29 343
3 372 364 369
3 369 102 372
3 364 100 369
3 372 31 364
3 344 373 371
3 371 93 344
3 373 102 371
3 344 2 373
3 376 374 375
3 375 103 376
3 374 99 375
3 376 98 374
3 367 377 375
3 375 99 367
3 377 103 375
3 367 30 377
3 356 366 374
3 374 98 356
3 366 99 374
3 356 29 366
3 378 359 376
3 376 103 378
3 359 98 376
3 378 1 359
3 381 379 380
3 380 105 381
3 379 101 380
3 381 104 379
3 363 382 380
3 380 101 363
3 382 105 380
3 363 31 382
3 383 368 379
3 379 104 383
3 368 101 379
3 383 30 368
3 385 384 381
3 381 105 385
3 384 104 381
3 385 6 384
3 388 386 387
3 387 108 388
3 386 107 387
3 388 106 386
3 390 389 387
3 387 107 390
3 389 108 387
3 390 34 389
3 392 391 386
3 386 106 392
3 391 107 386
3 392 33 391
3 394 393 388
3 388 108 394
3 393 106 388
3 394 32 393
3 397 395 396
3 396 110 397
3 395 107 396
3 397 109 395
3 391 398 396
3 396 107 391
3 398 110 396
3 391 33 398
3 399 390 395
3 395 109 399
3 390 107 395
3 399 34 390
3 401 400 397
3 397 110 401
3 400 109 397
3 401 8 400
3 404 402 403
3 403 112 404
3 402 106 403
3 404 111 402
3 393 405 403
3 403 106 393
3 405 112 403
3 393 32 405
3 406 392 402
3 402 111 406
3 392 106 402
3 406 33 392
3 408 407 404
3 404 112 408
3 407 111 404
3 408 0 407
3 411 409 410
3 410 114 411
3 409 108 410
3 411 113 409
3 389 412 410
3 410 108 389
3 412 114 410
3 389 34 412
3 413 394 409
3 409 113 413
3 394 108 409
3 413 32 394
3 415 414 411
3 411 114 415
3 414 113 411
3 415 11 414
3 418 416 417
3 417 117 418
3 416 116 417
3 418 115 416
3 420 419 417
3 417 116 420
3 419 117 417
3 420 36 419
3 422 421 416
3 416 115 422
3 421 116 416
3 422 34 421
3 424 423 418
3 418 117 424
3 423 115 418
3 424 35 423
3 427 425 426
3 426 109 427
3 425 116 426
3 427 118 425
3 421 399 426
3 426 116 421
3 399 109 426
3 421 34 399
3 428 420 425
3 425 118 428
3 420 116 425
3 428 36 420
3 400 429 427
3 427 109 400
3 429 118 427
3 400 8 429
3 432 430 431
3 431 119 432
3 430 115 431
3 432 114 430
3 423 433 431
3 431 115 423
3 433 119 431
3 423 35 433
3 412 422 430
3 430 114 412
3 422 115 430
3 412 34 422
3 434 415 432
3 432 119 434
3 415 114 432
3 434 11 415
3 437 435 436
3 436 121 437
3 435 117 436
3 437 120 435
3 419 438 436
3 436 117 419
3 438 121 436
3 419 36 438
3 439 424 435
3 435 120 439
3 424 117 435
3 439 35 424
3 441 440 437
3 437 121 441
3 440 120 437
3 441 1 440
3 444 442 443
3 443 124 444
3 442 123 443
3 444 122 442
3 446 445 443
3 443 123 446
3 445 124 443
3 446 39 445
3 448 447 442
3 442 122 448
3 447 123 442
3 448 38 447
3 450 449 444
3 444 124 450
3 449 122 444
3 450 37 449
3 453 451 452
3 452 126 453
3 451 123 452
3 453 125 451
3 447 454 452
3 452 123 447
3 454 126 452
3 447 38 454
3 455 446 451
3 451 125 455
3 446 123 451
3 455 39 446
3 457 456 453
3 453 126 457
3 456 125 453
3 457 9 456
3 460 458 459
3 459 128 460
3 458 122 459
3 460 127 458
3 449 461 459
3 459 122 449
3 461 128 459
3 449 37 461
3 462 448 458
3 458 127 462
3 448 122 458
3 462 38 448
3 464 463 460
3 460 128 464
3 463 127 460
3 464 10 463
3 467 465 466
3 466 130 467
3 465 124 466
3 467 129 465
3 445 468 466
3 466 124 445
3 468 130 466
3 445 39 468
3 469 450 465
3 465 129 469
3 450 124 465
3 469 37 450
3 471 470 467
3 467 130 471
3 470 129 467
3 471 3 470
3 474 472 473
3 473 133 474
3 472 132 473
3 474 131 472
3 476 475 473
3 473 132 476
3 475 133 473
3 476 38 475
3 478 477 472
3 472 131 478
3 477 132 472
3 478 41 477
3 480 479 474
3 474 133 480
3 479 131 474
3 480 40 479
3 483 481 482
3 482 134 483
3 481 132 482
3 483 126 481
3 477 484 482
3 482 132 477
3 484 134 482
3 477 41 484
3 454 476 481
3 481 126 454
3 476 132 481
3 454 38 476
3 485 457 483
3 483 134 485
3 457 126 483
3 485 9 457
3 488 486 487
3 487 136 488
3 486 131 487
3 488 135 486
3 479 489 487
3 487 131 479
3 489 136 487
3 479 40 489
3 490 478 486
3 486 135 490
3 478 131 486
3 490 41 478
3 492 491 488
3 488 136 492
3 491 135 488
3 492 2 491
3 495 493 494
3 494 127 495
3 493 133 494
3 495 137 493
3 475 462 494
3 494 133 475
3 462 127 494
3 475 38 462
3 496 480 493
3 493 137 496
3 480 133 493
3 496 40 480
3 463 497 495
3 495 127 463
3 497 137 495
3 463 10 497
3 500 498 499
3 499 140 500
3 498 139 499
3 500 138 498
3 502 501 499
3 499 139 502
3 501 140 499
3 502 33 501
3 504 503 498
3 498 138 504
3 503 139 498
3 504 13 503
3 506 505 500
3 500 140 506
3 505 138 500
3 506 23 505
3 509 507 508
3 508 47 509
3 507 139 508
3 509 110 507
3 503 182 508
3 508 139 503
3 182 47 508
3 503 13 182
3 398 502 507
3 507 110 398
3 502 139 507
3 398 33 502
3 183 401 509
3 509 47 183
3 401 110 509
3 183 8 401
3 512 510 511
3 511 79 512
3 510 138 511
3 512 46 510
3 505 294 511
3 511 138 505
3 294 79 511
3 505 23 294
3 174 504 510
3 510 46 174
3 504 138 510
3 174 13 504
3 295 177 512
3 512 79 295
3 177 46 512
3 295 4 177
3 515 513 514
3 514 111 515
3 513 140 514
3 515 78 513
3 501 406 514
3 514 140 501
3 406 111 514
3 501 33 406
3 286 506 513
3 513 78 286
3 506 140 513
3 286 23 506
3 407 289 515
3 515 111 407
3 289 78 515
3 407 0 289
3 518 516 517
3 517 143 518
3 516 142 517
3 518 141 516
3 520 519 517
3 517 142 520
3 519 143 517
3 520 19 519
3 522 521 516
3 516 141 522
3 521 142 516
3 522 32 521
3 524 523 518
3 518 143 524
3 523 141 518
3 524 26 523
3 527 525 526
3 526 113 527
3 525 142 526
3 527 66 525
3 521 413 526
3 526 142 521
3 413 113 526
3 521 32 413
3 244 520 525
3 525 66 244
3 520 142 525
3 244 19 520
3 414 247 527
3 527 113 414
3 247 66 527
3 414 11 247
3 530 528 529
3 529 86 530
3 528 141 529
3 530 112 528
3 523 316 529
3 529 141 523
3 316 86 529
3 523 26 316
3 405 522 528
3 528 112 405
3 522 141 528
3 405 32 522
3 317 408 530
3 530 86 317
3 408 112 530
3 317 0 408
3 533 531 532
3 532 61 533
3 531 143 532
3 533 89 531
3 519 231 532
3 532 143 519
3 231 61 532
3 519 19 231
3 326 524 531
3 531 89 326
3 524 143 531
3 326 26 524
3 232 329 533
3 533 61 232
3 329 89 533
3 232 5 329
3 536 534 535
3 535 146 536
3 534 145 535
3 536 144 534
3 538 537 535
3 535 145 538
3 537 146 535
3 538 22 537
3 540 539 534
3 534 144 540
3 539 145 534
3 540 16 539
3 542 541 536
3 536 146 542
3 541 144 536
3 542 39 541
3 545 543 544
3 544 54 545
3 543 145 544
3 545 80 543
3 539 204 544
3 544 145 539
3 204 54 544
3 539 16 204
3 293 538 543
3 543 80 293
3 538 145 543
3 293 22 538
3 205 296 545
3 545 54 205
3 296 80 545
3 205 4 296
3 548 546 547
3 547 125 548
3 546 144 547
3 548 57 546
3 541 455 547
3 547 144 541
3 455 125 547
3 541 39 455
3 214 540 546
3 546 57 214
3 540 144 546
3 214 16 540
3 456 217 548
3 548 125 456
3 217 57 548
3 456 9 217
3 551 549 550
3 550 81 551
3 549 146 550
3 551 130 549
3 537 301 550
3 550 146 537
3 301 81 550
3 537 22 301
3 468 542 549
3 549 130 468
3 542 146 549
3 468 39 542
3 302 471 551
3 551 81 302
3 471 130 551
3 302 3 471
3 554 552 553
3 553 149 554
3 552 148 553
3 554 147 552
3 556 555 553
3 553 148 556
3 555 149 553
3 556 21 555
3 558 557 552
3 552 147 558
3 557 148 552
3 558 25 557
3 560 559 554
3 554 149 560
3 559 147 554
3 560 37 559
3 563 561 562
3 562 88 563
3 561 148 562
3 563 70 561
3 557 327 562
3 562 148 557
3 327 88 562
3 557 25 327
3 260 556 561
3 561 70 260
3 556 148 561
3 260 21 556
3 328 261 563
3 563 88 328
3 261 70 563
3 328 5 261
3 566 564 565
3 565 129 566
3 564 147 565
3 566 87 564
3 559 469 565
3 565 147 559
3 469 129 565
3 559 37 469
3 321 558 564
3 564 87 321
3 558 147 564
3 321 25 558
3 470 322 566
3 566 129 470
3 322 87 566
3 470 3 322
3 569 567 568
3 568 71 569
3 567 149 568
3 569 128 567
3 555 266 568
3 568 149 555
3 266 71 568
3 555 21 266
3 461 560 567
3 567 128 461
3 560 149 567
3 461 37 560
3 267 464 569
3 569 71 267
3 464 128 569
3 267 10 464
3 572 570 571
3 571 152 572
3 570 151 571
3 572 150 570
3 574 573 571
3 571 151 574
3 573 152 571
3 574 27 573
3 576 575 570
3 570 150 576
3 575 151 570
3 576 12 575
3 578 577 572
3 572 152 578
3 577 150 572
3 578 36 577
3 581 579 580
3 580 49 581
3 579 151 580
3 581 96 579
3 575 189 580
3 580 151 575
3 189 49 580
3 575 12 189
3 349 574 579
3 579 96 349
3 574 151 579
3 349 27 574
3 190 352 581
3 581 49 190
3 352 96 581
3 190 7 352
3 584 582 583
3 583 118 584
3 582 150 583
3 584 48 582
3 577 428 583
3 583 150 577
3 428 118 583
3 577 36 428
3 181 576 582
3 582 48 181
3 576 150 582
3 181 12 576
3 429 184 584
3 584 118 429
3 184 48 584
3 429 8 184
3 587 585 586
3 586 97 587
3 585 152 586
3 587 121 585
3 573 357 586
3 586 152 573
3 357 97 586
3 573 27 357
3 438 578 585
3 585 121 438
3 578 152 585
3 438 36 578
3 358 441 587
3 587 97 358
3 441 121 587
3 358 1 441
3 590 588 589
3 589 155 590
3 588 154 589
3 590 153 588
3 592 591 589
3 589 154 592
3 591 155 589
3 592 17 591
3 594 593 588
3 588 153 594
3 593 154 588
3 594 30 593
3 596 595 590
3 590 155 596
3 595 153 590
3 596 35 595
3 599 597 598
3 598 104 599
3 597 154 598
3 599 64 597
3 593 383 598
3 598 154 593
3 383 104 598
3 593 30 383
3 237 592 597
3 597 64 237
3 592 154 597
3 237 17 592
3 384 240 599
3 599 104 384
3 240 64 599
3 384 6 240
3 602 600 601
3 601 120 602
3 600 153 601
3 602 103 600
3 595 439 601
3 601 153 595
3 439 120 601
3 595 35 439
3 377 594 600
3 600 103 377
3 594 153 600
3 377 30 594
3 440 378 602
3 602 120 440
3 378 103 602
3 440 1 378
3 605 603 604
3 604 65 605
3 603 155 604
3 605 119 603
3 591 245 604
3 604 155 591
3 245 65 604
3 591 17 245
3 433 596 603
3 603 119 433
3 596 155 603
3 433 35 596
3 246 434 605
3 605 65 246
3 434 119 605
3 246 11 434
3 608 606 607
3 607 158 608
3 606 157 607
3 608 156 606
3 610 609 607
3 607 157 610
3 609 158 607
3 610 15 609
3 612 611 606
3 606 156 612
3 611 157 606
3 612 28 611
3 614 613 608
3 608 158 614
3 613 156 608
3 614 41 613
3 617 615 616
3 616 95 617
3 615 157 616
3 617 55 615
3 611 350 616
3 616 157 611
3 350 95 616
3 611 28 350
3 209 610 615
3 615 55 209
3 610 157 615
3 209 15 610
3 351 210 617
3 617 95 351
3 210 55 617
3 351 7 210
3 620 618 619
3 619 135 620
3 618 156 619
3 620 94 618
3 613 490 619
3 619 156 613
3 490 135 619
3 613 41 490
3 342 612 618
3 618 94 342
3 612 156 618
3 342 28 612
3 491 345 620
3 620 135 491
3 345 94 620
3 491 2 345
3 623 621 622
3 622 56 623
3 621 158 622
3 623 134 621
3 609 215 622
3 622 158 609
3 215 56 622
3 609 15 215
3 484 614 621
3 621 134 484
3 614 158 621
3 484 41 614
3 216 485 623
3 623 56 216
3 485 134 623
3 216 9 485
3 626 624 625
3 625 161 626
3 624 160 625
3 626 159 624
3 628 627 625
3 625 160 628
3 627 161 625
3 628 31 627
3 630 629 624
3 624 159 630
3 629 160 624
3 630 20 629
3 632 631 626
3 626 161 632
3 631 159 626
3 632 40 631
3 635 633 634
3 634 73 635
3 633 160 634
3 635 105 633
3 629 272 634
3 634 160 629
3 272 73 634
3 629 20 272
3 382 628 633
3 633 105 382
3 628 160 633
3 382 31 628
3 273 385 635
3 635 73 273
3 385 105 635
3 273 6 385
3 638 636 637
3 637 137 638
3 636 159 637
3 638 72 636
3 631 496 637
3 637 159 631
3 496 137 637
3 631 40 496
3 265 630 636
3 636 72 265
3 630 159 636
3 265 20 630
3 497 268 638
3 638 137 497
3 268 72 638
3 497 10 268
3 641 639 640
3 640 102 641
3 639 161 640
3 641 136 639
3 627 372 640
3 640 161 627
3 372 102 640
3 627 31 372
3 489 632 639
3 639 136 489
3 632 161 639
3 489 40 632
3 373 492 641
3 641 102 373
3 492 136 641
3 373 2 492
