# vtk DataFile Version 3.0
this file was written using fslvtkio
ASCII
DATASET POLYDATA
POINTS 642 float
116.134 122.628 138.098
102.865 121.235 141.667
103.232 122.823 135.798
113.405 122.217 133.012
114.499 116.754 131.865
111.724 129.357 139.261
103.028 129.568 141.358
106.787 116.692 134.35
110.67 118.237 139.166
107.427 119.803 128.556
106.897 124.741 135.751
109.19 125.73 142.912
108.759 116.845 136.754
113.524 116.283 135.795
110.637 115.588 132.531
106.779 117.093 130.265
111.544 117.535 128.113
105.698 128.524 143.98
107.493 130.709 140.773
111.151 129.04 142.758
104.848 128.38 138.462
108.906 126.821 138.106
115.574 119.735 130.521
117.171 119.008 134.992
116.796 123.196 134.94
112.888 125.249 136.737
114.697 127.002 139.305
104.341 118.299 138.466
104.492 119.495 134.598
101.046 121.726 139.298
101.373 125.767 142.752
102.222 126.191 139.016
112.933 124.378 140.997
114.258 119.627 138.53
109.769 121.931 141.269
105.264 124.159 142.862
106.582 119.173 140.727
110.051 123.19 134.196
106.629 123.012 131.261
111.304 121.018 129.329
103.928 124.791 135.078
103.345 121.122 130.68
111.003 116.36 135.992
112.218 115.081 134.177
109.826 115.201 134.729
112.745 115.806 131.947
114.301 116.065 133.938
112.167 116.985 137.56
109.658 117.447 138.1
107.582 116.234 135.666
108.593 115.871 133.515
108.849 116.376 131.329
111.208 116.132 130.01
108.926 116.626 128.771
113.418 116.829 129.716
106.917 116.816 132.449
106.577 118.22 128.915
109.397 118.522 127.922
106.682 129.827 142.633
109.313 130.22 142.183
108.624 129.048 143.883
111.923 130.166 141.141
109.791 130.208 140.005
105.117 130.392 141.134
104.16 129.18 142.747
107.629 127.321 143.58
110.381 127.346 143.118
106.904 127.736 138.4
108.203 129.22 139.191
105.782 129.919 139.367
110.197 128.075 138.72
107.788 125.46 137.104
105.901 126.217 137.431
103.518 129.93 139.319
117.429 119.33 132.41
118.064 121.292 134.72
116.616 121.397 132.432
117.377 123.207 136.695
117.497 120.591 136.926
116.118 117.454 133.333
115.491 117.961 130.822
114.592 121.28 131.388
115.032 122.515 133.922
115.009 124.464 135.792
116.231 125.34 137.163
114.379 126.868 137.536
115.552 124.663 138.715
113.228 123.382 135.01
112.298 127.348 138.06
113.488 128.876 139.362
103.881 118.653 136.589
102.691 120.4 137.151
102.306 119.639 138.963
101.911 122.306 137.445
103.829 121.174 135.152
105.662 117.987 134.514
105.534 117.328 136.292
103.19 119.305 140.325
101.498 121.3 140.874
100.795 123.649 141.159
101.212 124.015 139.301
101.002 126.112 141.019
102.627 124.296 137.492
101.774 123.307 142.333
102.113 127.876 142.251
101.881 128.356 140.189
113.452 122.135 139.593
112.084 120.845 140.031
111.521 122.923 141.148
110.317 119.838 140.407
112.553 118.635 139.006
115.472 120.981 138.372
114.23 123.527 139.176
111.324 125.064 142.352
109.377 123.815 142.28
107.453 122.896 142.207
108.063 120.712 141.183
105.843 121.553 141.995
108.733 118.61 140.057
107.13 125.181 143.14
103.891 122.771 142.398
104.545 119.919 141.239
108.581 123.08 132.403
108.874 121.956 130.309
110.708 122.106 131.618
109.356 120.224 128.725
106.802 121.582 129.716
106.715 123.87 133.434
108.366 123.879 134.963
111.74 122.597 133.675
112.566 121.517 131.143
103.171 123.433 132.181
104.682 122.535 130.715
104.92 124.182 132.807
105.046 120.445 129.119
103.065 121.754 133.173
102.906 124.038 135.387
105.405 124.872 135.487
115.616 117.402 135.433
114.197 117.587 137.475
116.172 118.957 137.183
113.606 125.636 140.157
112.218 126.724 141.996
113.126 128.398 141.38
111.494 119.247 128.292
114.37 118.351 128.626
113.719 120.224 129.527
111.445 124.01 135.652
110.819 125.863 137.321
109.478 124.678 136.301
107.557 117.905 138.915
106.59 117.267 137.718
105.231 118.336 139.745
103.126 125.052 143.301
103.155 127.563 143.608
105.22 126.495 143.64
103.78 119.783 132.555
105.365 117.956 132.44
105.197 118.548 130.286
104.443 126.275 137.038
103.13 127.981 138.441
103.055 125.743 136.911
111.658 115.418 135.241
110.959 115.072 134.461
110.404 115.426 135.532
110.316 115.067 133.594
111.385 115.168 133.435
112.87 115.505 135.076
112.202 116.229 135.787
109.883 116.488 136.297
109.324 115.819 135.753
112.479 115.425 133.17
113.343 115.461 134.08
113.514 115.899 133.022
114.075 115.936 134.941
111.7 115.49 132.128
113.624 116.341 131.887
114.443 116.47 132.894
111.6 116.724 136.744
110.318 116.852 136.987
110.914 117.019 137.744
109.213 117.112 137.425
112.732 116.742 136.554
111.368 117.543 138.391
110.209 117.723 138.682
108.68 115.657 135.181
109.191 115.234 133.995
108.144 115.754 134.564
109.628 115.63 133.021
108.269 116.484 136.152
107.059 116.204 135.071
107.599 116.168 133.975
109.972 116.194 130.723
110.132 116.356 129.403
108.902 116.366 129.971
110.258 117.013 128.262
111.347 116.717 128.925
110.895 115.774 131.2
109.783 115.962 131.842
107.874 116.763 130.777
107.74 116.654 129.482
112.276 116.422 129.723
111.997 115.795 130.86
113.049 116.261 130.699
112.519 117.087 128.782
113.908 116.793 130.822
108.843 116.054 132.527
107.808 116.473 131.909
107.844 116.425 133.068
106.931 116.961 131.404
106.991 116.808 133.478
107.731 117.27 128.699
109.137 117.44 127.979
107.968 118.287 128.049
110.377 117.978 127.895
106.615 117.46 129.452
106.99 119.042 128.476
108.367 119.138 128.169
108.008 129.95 142.403
108.824 129.667 143.131
107.587 129.642 143.443
109.83 129.052 143.388
110.143 129.713 142.623
108.442 130.596 141.597
107.145 130.368 141.84
106.246 129.455 143.624
107.213 129.043 144.128
110.658 130.272 141.766
109.672 130.584 141.094
110.842 130.363 140.63
108.733 130.544 140.491
111.601 129.8 142.156
111.731 129.948 140.073
110.771 129.903 139.691
105.932 130.115 141.969
105.449 129.604 142.748
104.739 129.775 142.083
104.805 129.02 143.47
106.359 130.511 141.082
103.985 130.164 141.284
103.593 129.36 142.015
108.107 128.213 143.941
109.561 128.268 143.753
109.051 127.399 143.445
110.709 128.222 143.241
106.677 128.057 143.965
108.497 126.517 143.18
109.784 126.509 142.953
107.518 128.559 138.734
107.028 129.633 139.248
106.339 128.964 138.769
106.638 130.412 140.067
107.858 130.162 139.803
108.504 128.043 138.702
107.935 127.39 138.265
105.865 128.161 138.482
105.235 129.267 138.834
108.905 129.757 139.553
109.182 128.587 139.033
109.954 129.33 139.247
109.504 127.471 138.447
110.942 128.832 138.886
107.349 126.579 137.928
106.322 127.026 138.01
106.925 125.965 137.328
105.375 127.251 138.081
108.262 126.068 137.663
107.345 125.121 136.425
106.488 125.42 136.622
104.62 130.037 139.372
105.434 130.51 140.186
104.186 130.361 140.226
104.289 129.348 138.782
103.129 129.941 140.437
117.856 120.336 133.441
117.51 121.485 133.407
117.323 120.545 132.28
116.89 122.316 133.732
117.717 122.434 134.592
117.831 120.039 134.671
117.521 119.153 133.696
116.652 119.643 131.332
116.379 120.645 131.377
118.024 122.254 135.757
117.947 120.908 135.794
117.502 121.921 136.743
117.466 119.834 135.924
117.462 123.395 135.718
116.826 122.853 137.43
116.932 121.689 137.554
116.996 118.26 132.883
116.615 118.562 131.573
116.123 117.61 132.052
115.747 118.887 130.532
116.801 118.301 134.056
115.349 116.91 132.595
115.041 117.319 131.359
115.716 121.424 131.692
115.978 122.07 133.122
115.035 121.954 132.569
116.011 122.852 134.331
115.13 120.412 130.93
114.075 122.026 132.123
114.275 122.281 133.467
115.841 125.157 136.184
115.387 126.197 137.275
114.763 125.684 136.66
114.852 127.25 138.433
115.658 126.329 138.297
116.686 124.293 135.901
115.933 123.823 135.212
113.962 124.967 136.344
113.732 126.067 137.13
116.056 125.134 138.183
116.929 124.372 136.868
116.552 123.902 137.785
115.235 125.832 138.985
115.899 123.601 138.256
115.089 123.536 134.819
114.091 124.007 135.33
114.115 122.929 134.524
113.095 124.307 135.913
113.35 122.606 134.084
113.385 127.152 137.755
113.978 127.923 138.513
113.094 128.368 138.468
114.146 128.039 139.459
112.645 126.333 137.406
112.036 128.416 138.663
112.681 129.329 139.332
103.273 119.477 136.87
102.354 119.978 138.027
103.134 119.078 137.82
101.533 120.556 139.055
101.689 120.88 138.235
103.948 120.118 135.994
104.289 119.223 135.709
103.992 118.427 137.553
103.284 118.833 138.708
102.121 121.288 137.332
103.387 120.867 136.225
102.836 121.629 136.454
104.083 120.22 134.911
101.348 121.995 138.418
102.763 122.621 136.643
103.393 121.98 135.545
104.899 118.505 135.673
104.653 117.996 136.542
105.567 117.696 135.559
104.92 117.842 137.291
105.017 118.76 134.597
106.308 117.372 134.507
106.255 117.002 135.342
102.708 119.317 139.664
101.762 120.29 139.853
102.278 120.139 140.594
101.13 121.445 140.142
103.617 118.614 139.435
102.898 120.195 141.166
102.175 121.209 141.314
100.732 123.773 140.246
101.044 125.048 140.125
100.742 124.864 141.086
101.594 126.176 139.992
101.686 125.278 139.169
100.942 122.805 139.415
100.841 122.603 140.32
100.953 124.745 141.974
101.206 125.889 141.886
101.819 124.282 138.337
101.375 123.095 138.412
102.184 123.37 137.455
102.32 125.259 138.355
102.964 123.547 136.653
101.043 122.437 140.98
101.09 123.488 141.898
101.539 122.246 141.639
101.262 124.52 142.695
102.332 122.203 141.914
101.354 127.119 141.7
101.488 127.259 140.688
101.659 128.175 141.32
101.979 127.204 139.655
101.73 126.82 142.528
102.538 128.831 141.772
102.287 129.168 140.853
112.834 121.43 139.821
111.806 121.895 140.633
112.543 122.519 140.464
110.695 122.357 141.271
110.976 121.39 140.744
113.113 120.28 139.275
113.756 120.923 139.034
113.125 123.15 140.34
112.381 123.55 141.116
111.253 120.322 140.272
112.316 119.686 139.493
111.473 119.211 139.784
113.414 119.121 138.796
110.079 120.922 140.792
110.516 118.855 139.917
111.566 118.381 139.027
114.358 121.544 138.876
113.891 122.793 139.46
114.76 122.33 138.649
113.507 123.876 140.077
114.874 120.324 138.467
115.732 121.831 138.119
115.18 123.116 138.576
111.481 123.915 141.835
110.538 123.359 141.714
110.434 124.354 142.242
109.564 122.857 141.773
112.256 124.7 141.831
110.208 125.45 142.686
109.236 124.83 142.719
107.776 121.865 141.635
107.017 121.054 141.65
106.631 122.278 142.074
106.257 120.342 141.416
107.284 119.984 141.011
108.924 121.388 141.229
108.588 122.403 141.779
106.345 123.478 142.503
105.605 122.896 142.328
108.311 119.661 140.659
109.145 120.407 140.735
109.522 119.218 140.254
107.613 118.885 140.413
109.735 118.38 139.608
108.42 123.395 142.27
107.276 124.007 142.722
108.262 124.476 142.767
106.187 124.659 142.996
108.13 125.547 143.138
104.855 122.146 142.223
105.224 120.735 141.658
104.289 121.339 141.873
105.585 119.578 141.076
104.593 123.493 142.559
103.335 121.942 142.131
103.685 120.514 141.473
108.716 122.541 131.378
109.88 121.976 130.862
109.642 122.555 131.955
110.991 121.494 130.458
110.014 121.461 129.836
107.733 122.594 130.793
107.694 123.02 131.792
109.447 122.988 133.189
110.347 122.698 132.798
109.142 121.293 129.442
107.878 121.716 130.152
108.127 120.804 129.272
106.616 122.326 130.519
110.288 120.805 128.906
108.475 119.899 128.545
107.106 120.64 129.078
107.611 123.505 132.889
108.493 123.349 133.706
107.628 123.749 134.148
109.236 123.51 134.413
106.753 123.51 132.247
106.863 124.116 134.71
107.635 124.397 135.314
111.253 122.392 132.65
111.585 121.728 131.314
112.171 122.082 132.271
112.009 121.266 130.181
110.891 122.883 133.907
112.566 122.384 133.336
113.083 121.958 132.025
103.884 122.986 131.473
104.879 123.409 131.774
104.081 124.086 132.401
105.785 123.605 131.908
105.579 122.9 130.992
103.811 122.057 130.52
102.99 122.379 131.363
103.617 124.193 133.522
104.312 124.389 133.88
105.694 122.232 130.104
104.791 121.763 129.71
105.843 121.154 129.269
104.234 120.832 129.805
106.178 120.021 128.759
102.648 122.636 132.559
102.942 123.741 133.706
102.794 122.901 134.28
103.286 124.458 135.043
103.028 121.42 131.845
103.246 122.252 134.602
103.073 123.386 135.711
105.125 124.421 134.166
105.849 123.93 133.125
106.027 124.265 134.474
104.704 124.859 135.286
106.159 124.886 135.677
114.902 117.467 136.477
115.259 118.183 137.349
115.856 118.219 136.29
115.327 119.159 137.866
114.498 118.434 138.138
113.85 116.953 136.585
114.627 116.746 135.592
116.407 118.208 135.213
116.808 118.931 136.13
113.47 117.957 138.3
113.201 117.181 137.481
112.393 117.72 138.379
115.083 116.539 134.754
115.958 117.421 134.506
115.159 116.883 133.752
116.864 119.715 136.995
115.984 119.829 137.849
116.557 120.678 137.757
112.977 126.199 141.151
112.672 127.562 141.79
113.454 126.931 140.87
112.263 128.931 142.241
111.777 127.961 142.574
112.611 125.522 141.524
113.303 125.042 140.621
114.216 126.282 139.931
113.933 127.672 140.349
111.406 127.112 142.698
111.909 125.85 142.247
110.837 126.21 142.643
113.927 124.55 139.718
114.425 125.13 139.369
114.814 124.084 138.903
113.49 128.785 140.4
112.77 129.596 141.49
112.776 129.648 140.182
113.019 118.832 128.229
114.302 119.455 128.762
112.844 119.764 128.688
114.734 120.037 129.937
115.126 119.142 129.526
113.001 117.909 128.299
111.562 118.481 128.093
111.503 120.11 128.777
112.552 120.662 129.39
115.012 118.134 129.578
113.93 117.387 129.023
114.413 117.394 130.398
110.503 118.827 128.045
110.387 119.77 128.583
109.304 119.319 128.267
113.075 120.876 130.316
114.125 120.623 130.549
113.472 121.414 131.322
111.148 124.933 136.471
110.105 125.18 136.919
110.414 124.36 135.872
109.126 125.601 137.262
109.808 126.283 137.693
111.842 125.532 137.04
112.104 124.554 136.234
110.672 123.474 135.102
109.816 123.871 135.279
110.403 126.916 138.052
111.551 126.651 137.649
111.183 127.558 138.423
112.344 123.694 135.372
111.543 123.091 134.82
112.509 122.897 134.44
109.013 124.308 135.553
108.583 125.021 136.666
108.127 124.672 135.996
107.047 117.452 138.385
105.847 117.759 138.824
106.373 118.175 139.259
104.715 118.171 139.196
105.419 117.762 138.035
107.779 117.132 137.303
108.227 117.314 137.917
106.996 118.489 139.775
105.881 118.669 140.214
105.977 117.293 137.038
107.214 116.96 136.589
106.569 116.744 135.953
108.673 117.631 138.534
108.061 118.364 139.474
109.097 118.024 139.076
104.829 118.914 140.643
104.133 118.579 140.041
103.855 119.456 140.839
103.051 126.335 143.439
104.159 127.115 143.738
104.147 125.84 143.478
105.424 127.593 143.871
104.373 128.125 143.882
102.167 126.757 143.105
102.077 125.417 143.194
104.219 124.663 143.103
105.216 125.333 143.238
103.572 128.542 143.391
102.471 127.783 142.976
103.106 128.618 142.508
102.295 124.232 142.83
103.524 123.915 142.754
102.797 122.95 142.316
106.205 125.877 143.393
106.366 127.079 143.721
107.347 126.33 143.397
104.527 118.756 132.551
105.29 118.127 131.378
104.467 119.201 131.414
105.835 117.643 130.233
105.987 117.372 131.402
104.815 118.678 133.529
104.045 119.462 133.589
103.519 120.39 131.608
104.378 119.718 130.368
106.13 117.337 132.414
105.527 117.998 133.465
106.3 117.319 133.467
103.825 120.469 133.944
103.368 120.849 132.906
103.596 121.54 134.33
105.024 119.429 129.877
105.87 118.277 129.679
105.924 119.317 129.019
103.763 127.128 137.763
103.106 126.7 137.853
103.674 126.047 136.902
102.567 125.981 138.123
102.513 127.138 138.729
103.917 128.323 138.411
104.619 127.278 137.93
104.194 125.645 136.043
103.408 125.502 135.967
102.37 128.362 139.122
103.263 129.171 138.787
102.567 129.356 139.709
105.154 126.345 137.366
105 125.712 136.288
105.711 125.568 136.446
102.999 124.925 136.233
102.791 125.101 137.41
102.803 124.275 136.573
POLYGONS 1280  5120
3 164 162 163
3 163 44 164
3 162 43 163
3 164 42 162
3 166 165 163
3 163 43 166
3 165 44 163
3 166 14 165
3 168 167 162
3 162 42 168
3 167 43 162
3 168 13 167
3 170 169 164
3 164 44 170
3 169 42 164
3 170 12 169
3 173 171 172
3 172 46 173
3 171 43 172
3 173 45 171
3 167 174 172
3 172 43 167
3 174 46 172
3 167 13 174
3 175 166 171
3 171 45 175
3 166 43 171
3 175 14 166
3 177 176 173
3 173 46 177
3 176 45 173
3 177 4 176
3 180 178 179
3 179 48 180
3 178 42 179
3 180 47 178
3 169 181 179
3 179 42 169
3 181 48 179
3 169 12 181
3 182 168 178
3 178 47 182
3 168 42 178
3 182 13 168
3 184 183 180
3 180 48 184
3 183 47 180
3 184 8 183
3 187 185 186
3 186 50 187
3 185 44 186
3 187 49 185
3 165 188 186
3 186 44 165
3 188 50 186
3 165 14 188
3 189 170 185
3 185 49 189
3 170 44 185
3 189 12 170
3 191 190 187
3 187 50 191
3 190 49 187
3 191 7 190
3 194 192 193
3 193 53 194
3 192 52 193
3 194 51 192
3 196 195 193
3 193 52 196
3 195 53 193
3 196 16 195
3 198 197 192
3 192 51 198
3 197 52 192
3 198 14 197
3 200 199 194
3 194 53 200
3 199 51 194
3 200 15 199
3 203 201 202
3 202 45 203
3 201 52 202
3 203 54 201
3 197 175 202
3 202 52 197
3 175 45 202
3 197 14 175
3 204 196 201
3 201 54 204
3 196 52 201
3 204 16 196
3 176 205 203
3 203 45 176
3 205 54 203
3 176 4 205
3 208 206 207
3 207 55 208
3 206 51 207
3 208 50 206
3 199 209 207
3 207 51 199
3 209 55 207
3 199 15 209
3 188 198 206
3 206 50 188
3 198 51 206
3 188 14 198
3 210 191 208
3 208 55 210
3 191 50 208
3 210 7 191
3 213 211 212
3 212 57 213
3 211 53 212
3 213 56 211
3 195 214 212
3 212 53 195
3 214 57 212
3 195 16 214
3 215 200 211
3 211 56 215
3 200 53 211
3 215 15 200
3 217 216 213
3 213 57 217
3 216 56 213
3 217 9 216
3 220 218 219
3 219 60 220
3 218 59 219
3 220 58 218
3 222 221 219
3 219 59 222
3 221 60 219
3 222 19 221
3 224 223 218
3 218 58 224
3 223 59 218
3 224 18 223
3 226 225 220
3 220 60 226
3 225 58 220
3 226 17 225
3 229 227 228
3 228 62 229
3 227 59 228
3 229 61 227
3 223 230 228
3 228 59 223
3 230 62 228
3 223 18 230
3 231 222 227
3 227 61 231
3 222 59 227
3 231 19 222
3 233 232 229
3 229 62 233
3 232 61 229
3 233 5 232
3 236 234 235
3 235 64 236
3 234 58 235
3 236 63 234
3 225 237 235
3 235 58 225
3 237 64 235
3 225 17 237
3 238 224 234
3 234 63 238
3 224 58 234
3 238 18 224
3 240 239 236
3 236 64 240
3 239 63 236
3 240 6 239
3 243 241 242
3 242 66 243
3 241 60 242
3 243 65 241
3 221 244 242
3 242 60 221
3 244 66 242
3 221 19 244
3 245 226 241
3 241 65 245
3 226 60 241
3 245 17 226
3 247 246 243
3 243 66 247
3 246 65 243
3 247 11 246
3 250 248 249
3 249 69 250
3 248 68 249
3 250 67 248
3 252 251 249
3 249 68 252
3 251 69 249
3 252 18 251
3 254 253 248
3 248 67 254
3 253 68 248
3 254 21 253
3 256 255 250
3 250 69 256
3 255 67 250
3 256 20 255
3 259 257 258
3 258 70 259
3 257 68 258
3 259 62 257
3 253 260 258
3 258 68 253
3 260 70 258
3 253 21 260
3 230 252 257
3 257 62 230
3 252 68 257
3 230 18 252
3 261 233 259
3 259 70 261
3 233 62 259
3 261 5 233
3 264 262 263
3 263 72 264
3 262 67 263
3 264 71 262
3 255 265 263
3 263 67 255
3 265 72 263
3 255 20 265
3 266 254 262
3 262 71 266
3 254 67 262
3 266 21 254
3 268 267 264
3 264 72 268
3 267 71 264
3 268 10 267
3 271 269 270
3 270 63 271
3 269 69 270
3 271 73 269
3 251 238 270
3 270 69 251
3 238 63 270
3 251 18 238
3 272 256 269
3 269 73 272
3 256 69 269
3 272 20 256
3 239 273 271
3 271 63 239
3 273 73 271
3 239 6 273
3 276 274 275
3 275 76 276
3 274 75 275
3 276 74 274
3 278 277 275
3 275 75 278
3 277 76 275
3 278 24 277
3 280 279 274
3 274 74 280
3 279 75 274
3 280 23 279
3 282 281 276
3 276 76 282
3 281 74 276
3 282 22 281
3 285 283 284
3 284 78 285
3 283 75 284
3 285 77 283
3 279 286 284
3 284 75 279
3 286 78 284
3 279 23 286
3 287 278 283
3 283 77 287
3 278 75 283
3 287 24 278
3 289 288 285
3 285 78 289
3 288 77 285
3 289 0 288
3 292 290 291
3 291 80 292
3 290 74 291
3 292 79 290
3 281 293 291
3 291 74 281
3 293 80 291
3 281 22 293
3 294 280 290
3 290 79 294
3 280 74 290
3 294 23 280
3 296 295 292
3 292 80 296
3 295 79 292
3 296 4 295
3 299 297 298
3 298 82 299
3 297 76 298
3 299 81 297
3 277 300 298
3 298 76 277
3 300 82 298
3 277 24 300
3 301 282 297
3 297 81 301
3 282 76 297
3 301 22 282
3 303 302 299
3 299 82 303
3 302 81 299
3 303 3 302
3 306 304 305
3 305 85 306
3 304 84 305
3 306 83 304
3 308 307 305
3 305 84 308
3 307 85 305
3 308 26 307
3 310 309 304
3 304 83 310
3 309 84 304
3 310 24 309
3 312 311 306
3 306 85 312
3 311 83 306
3 312 25 311
3 315 313 314
3 314 77 315
3 313 84 314
3 315 86 313
3 309 287 314
3 314 84 309
3 287 77 314
3 309 24 287
3 316 308 313
3 313 86 316
3 308 84 313
3 316 26 308
3 288 317 315
3 315 77 288
3 317 86 315
3 288 0 317
3 320 318 319
3 319 87 320
3 318 83 319
3 320 82 318
3 311 321 319
3 319 83 311
3 321 87 319
3 311 25 321
3 300 310 318
3 318 82 300
3 310 83 318
3 300 24 310
3 322 303 320
3 320 87 322
3 303 82 320
3 322 3 303
3 325 323 324
3 324 89 325
3 323 85 324
3 325 88 323
3 307 326 324
3 324 85 307
3 326 89 324
3 307 26 326
3 327 312 323
3 323 88 327
3 312 85 323
3 327 25 312
3 329 328 325
3 325 89 329
3 328 88 325
3 329 5 328
3 332 330 331
3 331 92 332
3 330 91 331
3 332 90 330
3 334 333 331
3 331 91 334
3 333 92 331
3 334 29 333
3 336 335 330
3 330 90 336
3 335 91 330
3 336 28 335
3 338 337 332
3 332 92 338
3 337 90 332
3 338 27 337
3 341 339 340
3 340 94 341
3 339 91 340
3 341 93 339
3 335 342 340
3 340 91 335
3 342 94 340
3 335 28 342
3 343 334 339
3 339 93 343
3 334 91 339
3 343 29 334
3 345 344 341
3 341 94 345
3 344 93 341
3 345 2 344
3 348 346 347
3 347 96 348
3 346 90 347
3 348 95 346
3 337 349 347
3 347 90 337
3 349 96 347
3 337 27 349
3 350 336 346
3 346 95 350
3 336 90 346
3 350 28 336
3 352 351 348
3 348 96 352
3 351 95 348
3 352 7 351
3 355 353 354
3 354 98 355
3 353 92 354
3 355 97 353
3 333 356 354
3 354 92 333
3 356 98 354
3 333 29 356
3 357 338 353
3 353 97 357
3 338 92 353
3 357 27 338
3 359 358 355
3 355 98 359
3 358 97 355
3 359 1 358
3 362 360 361
3 361 101 362
3 360 100 361
3 362 99 360
3 364 363 361
3 361 100 364
3 363 101 361
3 364 31 363
3 366 365 360
3 360 99 366
3 365 100 360
3 366 29 365
3 368 367 362
3 362 101 368
3 367 99 362
3 368 30 367
3 371 369 370
3 370 93 371
3 369 100 370
3 371 102 369
3 365 343 370
3 370 100 365
3 343 93 370
3 365 29 343
3 372 364 369
3 369 102 372
3 364 100 369
3 372 31 364
3 344 373 371
3 371 93 344
3 373 102 371
3 344 2 373
3 376 374 375
3 375 103 376
3 374 99 375
3 376 98 374
3 367 377 375
3 375 99 367
3 377 103 375
3 367 30 377
3 356 366 374
3 374 98 356
3 366 99 374
3 356 29 366
3 378 359 376
3 376 103 378
3 359 98 376
3 378 1 359
3 381 379 380
3 380 105 381
3 379 101 380
3 381 104 379
3 363 382 380
3 380 101 363
3 382 105 380
3 363 31 382
3 383 368 379
3 379 104 383
3 368 101 379
3 383 30 368
3 385 384 381
3 381 105 385
3 384 104 381
3 385 6 384
3 388 386 387
3 387 108 388
3 386 107 387
3 388 106 386
3 390 389 387
3 387 107 390
3 389 108 387
3 390 34 389
3 392 391 386
3 386 106 392
3 391 107 386
3 392 33 391
3 394 393 388
3 388 108 394
3 393 106 388
3 394 32 393
3 397 395 396
3 396 110 397
3 395 107 396
3 397 109 395
3 391 398 396
3 396 107 391
3 398 110 396
3 391 33 398
3 399 390 395
3 395 109 399
3 390 107 395
3 399 34 390
3 401 400 397
3 397 110 401
3 400 109 397
3 401 8 400
3 404 402 403
3 403 112 404
3 402 106 403
3 404 111 402
3 393 405 403
3 403 106 393
3 405 112 403
3 393 32 405
3 406 392 402
3 402 111 406
3 392 106 402
3 406 33 392
3 408 407 404
3 404 112 408
3 407 111 404
3 408 0 407
3 411 409 410
3 410 114 411
3 409 108 410
3 411 113 409
3 389 412 410
3 410 108 389
3 412 114 410
3 389 34 412
3 413 394 409
3 409 113 413
3 394 108 409
3 413 32 394
3 415 414 411
3 411 114 415
3 414 113 411
3 415 11 414
3 418 416 417
3 417 117 418
3 416 116 417
3 418 115 416
3 420 419 417
3 417 116 420
3 419 117 417
3 420 36 419
3 422 421 416
3 416 115 422
3 421 116 416
3 422 34 421
3 424 423 418
3 418 117 424
3 423 115 418
3 424 35 423
3 427 425 426
3 426 109 427
3 425 116 426
3 427 118 425
3 421 399 426
3 426 116 421
3 399 109 426
3 421 34 399
3 428 420 425
3 425 118 428
3 420 116 425
3 428 36 420
3 400 429 427
3 427 109 400
3 429 118 427
3 400 8 429
3 432 430 431
3 431 119 432
3 430 115 431
3 432 114 430
3 423 433 431
3 431 115 423
3 433 119 431
3 423 35 433
3 412 422 430
3 430 114 412
3 422 115 430
3 412 34 422
3 434 415 432
3 432 119 434
3 415 114 432
3 434 11 415
3 437 435 436
3 436 121 437
3 435 117 436
3 437 120 435
3 419 438 436
3 436 117 419
3 438 121 436
3 419 36 438
3 439 424 435
3 435 120 439
3 424 117 435
3 439 35 424
3 441 440 437
3 437 121 441
3 440 120 437
3 441 1 440
3 444 442 443
3 443 124 444
3 442 123 443
3 444 122 442
3 446 445 443
3 443 123 446
3 445 124 443
3 446 39 445
3 448 447 442
3 442 122 448
3 447 123 442
3 448 38 447
3 450 449 444
3 444 124 450
3 449 122 444
3 450 37 449
3 453 451 452
3 452 126 453
3 451 123 452
3 453 125 451
3 447 454 452
3 452 123 447
3 454 126 452
3 447 38 454
3 455 446 451
3 451 125 455
3 446 123 451
3 455 39 446
3 457 456 453
3 453 126 457
3 456 125 453
3 457 9 456
3 460 458 459
3 459 128 460
3 458 122 459
3 460 127 458
3 449 461 459
3 459 122 449
3 461 128 459
3 449 37 461
3 462 448 458
3 458 127 462
3 448 122 458
3 462 38 448
3 464 463 460
3 460 128 464
3 463 127 460
3 464 10 463
3 467 465 466
3 466 130 467
3 465 124 466
3 467 129 465
3 445 468 466
3 466 124 445
3 468 130 466
3 445 39 468
3 469 450 465
3 465 129 469
3 450 124 465
3 469 37 450
3 471 470 467
3 467 130 471
3 470 129 467
3 471 3 470
3 474 472 473
3 473 133 474
3 472 132 473
3 474 131 472
3 476 475 473
3 473 132 476
3 475 133 473
3 476 38 475
3 478 477 472
3 472 131 478
3 477 132 472
3 478 41 477
3 480 479 474
3 474 133 480
3 479 131 474
3 480 40 479
3 483 481 482
3 482 134 483
3 481 132 482
3 483 126 481
3 477 484 482
3 482 132 477
3 484 134 482
3 477 41 484
3 454 476 481
3 481 126 454
3 476 132 481
3 454 38 476
3 485 457 483
3 483 134 485
3 457 126 483
3 485 9 457
3 488 486 487
3 487 136 488
3 486 131 487
3 488 135 486
3 479 489 487
3 487 131 479
3 489 136 487
3 479 40 489
3 490 478 486
3 486 135 490
3 478 131 486
3 490 41 478
3 492 491 488
3 488 136 492
3 491 135 488
3 492 2 491
3 495 493 494
3 494 127 495
3 493 133 494
3 495 137 493
3 475 462 494
3 494 133 475
3 462 127 494
3 475 38 462
3 496 480 493
3 493 137 496
3 480 133 493
3 496 40 480
3 463 497 495
3 495 127 463
3 497 137 495
3 463 10 497
3 500 498 499
3 499 140 500
3 498 139 499
3 500 138 498
3 502 501 499
3 499 139 502
3 501 140 499
3 502 33 501
3 504 503 498
3 498 138 504
3 503 139 498
3 504 13 503
3 506 505 500
3 500 140 506
3 505 138 500
3 506 23 505
3 509 507 508
3 508 47 509
3 507 139 508
3 509 110 507
3 503 182 508
3 508 139 503
3 182 47 508
3 503 13 182
3 398 502 507
3 507 110 398
3 502 139 507
3 398 33 502
3 183 401 509
3 509 47 183
3 401 110 509
3 183 8 401
3 512 510 511
3 511 79 512
3 510 138 511
3 512 46 510
3 505 294 511
3 511 138 505
3 294 79 511
3 505 23 294
3 174 504 510
3 510 46 174
3 504 138 510
3 174 13 504
3 295 177 512
3 512 79 295
3 177 46 512
3 295 4 177
3 515 513 514
3 514 111 515
3 513 140 514
3 515 78 513
3 501 406 514
3 514 140 501
3 406 111 514
3 501 33 406
3 286 506 513
3 513 78 286
3 506 140 513
3 286 23 506
3 407 289 515
3 515 111 407
3 289 78 515
3 407 0 289
3 518 516 517
3 517 143 518
3 516 142 517
3 518 141 516
3 520 519 517
3 517 142 520
3 519 143 517
3 520 19 519
3 522 521 516
3 516 141 522
3 521 142 516
3 522 32 521
3 524 523 518
3 518 143 524
3 523 141 518
3 524 26 523
3 527 525 526
3 526 113 527
3 525 142 526
3 527 66 525
3 521 413 526
3 526 142 521
3 413 113 526
3 521 32 413
3 244 520 525
3 525 66 244
3 520 142 525
3 244 19 520
3 414 247 527
3 527 113 414
3 247 66 527
3 414 11 247
3 530 528 529
3 529 86 530
3 528 141 529
3 530 112 528
3 523 316 529
3 529 141 523
3 316 86 529
3 523 26 316
3 405 522 528
3 528 112 405
3 522 141 528
3 405 32 522
3 317 408 530
3 530 86 317
3 408 112 530
3 317 0 408
3 533 531 532
3 532 61 533
3 531 143 532
3 533 89 531
3 519 231 532
3 532 143 519
3 231 61 532
3 519 19 231
3 326 524 531
3 531 89 326
3 524 143 531
3 326 26 524
3 232 329 533
3 533 61 232
3 329 89 533
3 232 5 329
3 536 534 535
3 535 146 536
3 534 145 535
3 536 144 534
3 538 537 535
3 535 145 538
3 537 146 535
3 538 22 537
3 540 539 534
3 534 144 540
3 539 145 534
3 540 16 539
3 542 541 536
3 536 146 542
3 541 144 536
3 542 39 541
3 545 543 544
3 544 54 545
3 543 145 544
3 545 80 543
3 539 204 544
3 544 145 539
3 204 54 544
3 539 16 204
3 293 538 543
3 543 80 293
3 538 145 543
3 293 22 538
3 205 296 545
3 545 54 205
3 296 80 545
3 205 4 296
3 548 546 547
3 547 125 548
3 546 144 547
3 548 57 546
3 541 455 547
3 547 144 541
3 455 125 547
3 541 39 455
3 214 540 546
3 546 57 214
3 540 144 546
3 214 16 540
3 456 217 548
3 548 125 456
3 217 57 548
3 456 9 217
3 551 549 550
3 550 81 551
3 549 146 550
3 551 130 549
3 537 301 550
3 550 146 537
3 301 81 550
3 537 22 301
3 468 542 549
3 549 130 468
3 542 146 549
3 468 39 542
3 302 471 551
3 551 81 302
3 471 130 551
3 302 3 471
3 554 552 553
3 553 149 554
3 552 148 553
3 554 147 552
3 556 555 553
3 553 148 556
3 555 149 553
3 556 21 555
3 558 557 552
3 552 147 558
3 557 148 552
3 558 25 557
3 560 559 554
3 554 149 560
3 559 147 554
3 560 37 559
3 563 561 562
3 562 88 563
3 561 148 562
3 563 70 561
3 557 327 562
3 562 148 557
3 327 88 562
3 557 25 327
3 260 556 561
3 561 70 260
3 556 148 561
3 260 21 556
3 328 261 563
3 563 88 328
3 261 70 563
3 328 5 261
3 566 564 565
3 565 129 566
3 564 147 565
3 566 87 564
3 559 469 565
3 565 147 559
3 469 129 565
3 559 37 469
3 321 558 564
3 564 87 321
3 558 147 564
3 321 25 558
3 470 322 566
3 566 129 470
3 322 87 566
3 470 3 322
3 569 567 568
3 568 71 569
3 567 149 568
3 569 128 567
3 555 266 568
3 568 149 555
3 266 71 568
3 555 21 266
3 461 560 567
3 567 128 461
3 560 149 567
3 461 37 560
3 267 464 569
3 569 71 267
3 464 128 569
3 267 10 464
3 572 570 571
3 571 152 572
3 570 151 571
3 572 150 570
3 574 573 571
3 571 151 574
3 573 152 571
3 574 27 573
3 576 575 570
3 570 150 576
3 575 151 570
3 576 12 575
3 578 577 572
3 572 152 578
3 577 150 572
3 578 36 577
3 581 579 580
3 580 49 581
3 579 151 580
3 581 96 579
3 575 189 580
3 580 151 575
3 189 49 580
3 575 12 189
3 349 574 579
3 579 96 349
3 574 151 579
3 349 27 574
3 190 352 581
3 581 49 190
3 352 96 581
3 190 7 352
3 584 582 583
3 583 118 584
3 582 150 583
3 584 48 582
3 577 428 583
3 583 150 577
3 428 118 583
3 577 36 428
3 181 576 582
3 582 48 181
3 576 150 582
3 181 12 576
3 429 184 584
3 584 118 429
3 184 48 584
3 429 8 184
3 587 585 586
3 586 97 587
3 585 152 586
3 587 121 585
3 573 357 586
3 586 152 573
3 357 97 586
3 573 27 357
3 438 578 585
3 585 121 438
3 578 152 585
3 438 36 578
3 358 441 587
3 587 97 358
3 441 121 587
3 358 1 441
3 590 588 589
3 589 155 590
3 588 154 589
3 590 153 588
3 592 591 589
3 589 154 592
3 591 155 589
3 592 17 591
3 594 593 588
3 588 153 594
3 593 154 588
3 594 30 593
3 596 595 590
3 590 155 596
3 595 153 590
3 596 35 595
3 599 597 598
3 598 104 599
3 597 154 598
3 599 64 597
3 593 383 598
3 598 154 593
3 383 104 598
3 593 30 383
3 237 592 597
3 597 64 237
3 592 154 597
3 237 17 592
3 384 240 599
3 599 104 384
3 240 64 599
3 384 6 240
3 602 600 601
3 601 120 602
3 600 153 601
3 602 103 600
3 595 439 601
3 601 153 595
3 439 120 601
3 595 35 439
3 377 594 600
3 600 103 377
3 594 153 600
3 377 30 594
3 440 378 602
3 602 120 440
3 378 103 602
3 440 1 378
3 605 603 604
3 604 65 605
3 603 155 604
3 605 119 603
3 591 245 604
3 604 155 591
3 245 65 604
3 591 17 245
3 433 596 603
3 603 119 433
3 596 155 603
3 433 35 596
3 246 434 605
3 605 65 246
3 434 119 605
3 246 11 434
3 608 606 607
3 607 158 608
3 606 157 607
3 608 156 606
3 610 609 607
3 607 157 610
3 609 158 607
3 610 15 609
3 612 611 606
3 606 156 612
3 611 157 606
3 612 28 611
3 614 613 608
3 608 158 614
3 613 156 608
3 614 41 613
3 617 615 616
3 616 95 617
3 615 157 616
3 617 55 615
3 611 350 616
3 616 157 611
3 350 95 616
3 611 28 350
3 209 610 615
3 615 55 209
3 610 157 615
3 209 15 610
3 351 210 617
3 617 95 351
3 210 55 617
3 351 7 210
3 620 618 619
3 619 135 620
3 618 156 619
3 620 94 618
3 613 490 619
3 619 156 613
3 490 135 619
3 613 41 490
3 342 612 618
3 618 94 342
3 612 156 618
3 342 28 612
3 491 345 620
3 620 135 491
3 345 94 620
3 491 2 345
3 623 621 622
3 622 56 623
3 621 158 622
3 623 134 621
3 609 215 622
3 622 158 609
3 215 56 622
3 609 15 215
3 484 614 621
3 621 134 484
3 614 158 621
3 484 41 614
3 216 485 623
3 623 56 216
3 485 134 623
3 216 9 485
3 626 624 625
3 625 161 626
3 624 160 625
3 626 159 624
3 628 627 625
3 625 160 628
3 627 161 625
3 628 31 627
3 630 629 624
3 624 159 630
3 629 160 624
3 630 20 629
3 632 631 626
3 626 161 632
3 631 159 626
3 632 40 631
3 635 633 634
3 634 73 635
3 633 160 634
3 635 105 633
3 629 272 634
3 634 160 629
3 272 73 634
3 629 20 272
3 382 628 633
3 633 105 382
3 628 160 633
3 382 31 628
3 273 385 635
3 635 73 273
3 385 105 635
3 273 6 385
3 638 636 637
3 637 137 638
3 636 159 637
3 638 72 636
3 631 496 637
3 637 159 631
3 496 137 637
3 631 40 496
3 265 630 636
3 636 72 265
3 630 159 636
3 265 20 630
3 497 268 638
3 638 137 497
3 268 72 638
3 497 10 268
3 641 639 640
3 640 102 641
3 639 161 640
3 641 136 639
3 627 372 640
3 640 161 627
3 372 102 640
3 627 31 372
3 489 632 639
3 639 136 489
3 632 161 639
3 489 40 632
3 373 492 641
3 641 102 373
3 492 136 641
3 373 2 492
