# vtk DataFile Version 3.0
this file was written using fslvtkio
ASCII
DATASET POLYDATA
POINTS 1068 float
114.419 158.228 151.171
113.41 157.827 153.027
114.038 156.844 152.633
115.245 156.892 151.923
116.113 158.27 150.257
116.718 157.064 151.662
117.858 158.206 150.311
118.17 157.13 152.023
119.42 158.053 150.893
119.686 157.163 152.554
114.04 159.158 152.559
112.868 158.349 154.345
115.413 159.681 151.235
117.138 159.814 150.596
119.044 159.631 150.839
120.471 158.77 151.78
113.455 159.569 154.06
112.669 159.022 155.613
114.765 160.207 152.955
116.368 160.493 152.291
118.11 160.491 152.166
119.666 159.947 152.62
114.091 160.279 154.799
115.692 160.673 154.065
117.258 160.74 153.859
118.749 160.643 153.801
118.703 151.782 151.632
117.708 150.707 151.622
118.48 150.061 150.539
119.663 150.361 150.412
119.937 151.555 151.842
120.79 150.45 151.199
117.591 152.63 152.447
116.548 153.028 152.868
116.797 151.312 152.589
118.561 153.147 153.287
119.501 152.657 153.355
120.774 151.565 152.856
117.027 154.743 153.106
115.88 154.019 153.347
118.066 154.376 153.596
119.165 154.545 154.068
120.193 153.179 154.338
114.565 155.797 153.302
113.436 156.315 154.024
114.187 155.147 154.823
114.966 154.462 154.172
115.733 155.734 153.087
117.105 156.274 153.16
118.395 156.157 153.576
119.617 156.121 154.039
120.151 154.885 154.654
112.616 156.839 154.945
121.005 157.454 153.229
112.125 157.471 156.095
121.237 159.138 153.347
111.87 158.12 157.194
119.911 159.992 154.362
113.377 159.929 156.395
112.364 159.21 157.684
114.625 160.522 155.974
116.029 160.612 155.624
117.219 160.527 155.626
118.447 160.305 155.576
113.662 160.105 157.656
115.102 160.404 157.252
116.234 160.316 156.825
122.458 145.915 149.434
120.929 145.398 149.653
122.065 144.157 150.67
123.367 144.094 150.284
123.965 145.789 150.413
124.436 144.434 150.678
124.8 145.754 151.178
125.211 144.537 151.589
120.692 147.167 148.935
119.064 147.581 150.014
119.785 146.239 150.476
122.131 147.767 149.655
123.374 147.471 150.427
124.653 147.253 151.253
125.424 146.13 152.117
119.417 148.803 149.737
118.235 148.848 151.078
120.927 148.934 150.072
122.425 149.065 150.971
123.842 148.81 151.757
125.119 147.914 152.608
117.649 149.723 152.603
121.836 150.382 152.051
123.05 150.145 152.96
124.605 149.462 153.267
116.084 151.967 153.848
117.026 150.524 153.934
121.354 151.937 153.946
122.449 151.56 154.187
123.981 150.822 154.53
115.722 153.15 154.482
114.912 153.397 155.467
115.516 151.987 155.364
121.116 153.897 155.067
122.404 152.972 155.209
123.493 151.995 155.164
113.204 155.372 155.782
113.972 153.985 156.114
120.731 156.096 154.796
121.264 155.498 155.709
122.032 154.148 156.073
112.401 155.852 156.832
121.777 157.59 154.563
121.557 156.69 155.886
121.608 155.393 156.586
111.855 156.456 157.951
121.087 159.182 155.157
121.7 158.033 156.042
111.639 158.044 158.66
119.793 159.672 155.781
120.45 158.854 156.482
112.07 159.19 159.603
118.166 159.626 157.542
117.096 160.037 156.948
119.302 159.467 157.071
113.168 159.894 159.168
114.555 160.061 158.911
115.846 159.982 158.378
120.795 144.898 151.574
121.878 143.334 152.182
123.013 142.818 151.608
124.394 143.075 151.315
125.045 144.083 152.753
119.019 147.481 151.729
119.889 146.202 152.093
125.488 145.837 153.429
118.355 148.421 152.669
125.806 147.046 153.728
125.682 148.479 153.975
125.986 147.289 155.157
117.735 148.947 154.01
125.263 149.754 154.583
125.949 148.626 155.506
116.198 150.869 155.166
116.876 149.789 155.249
125.327 150.361 155.395
125.824 149.638 156.467
114.672 152.445 156.713
115.338 151.051 156.6
123.574 153.009 156.072
124.526 151.919 155.92
125.356 150.962 156.232
112.987 154.158 157.266
114.118 152.976 157.7
123.167 153.461 156.839
124.211 152.919 157.47
112.336 154.665 158.388
121.782 156.364 157.043
122.158 154.929 157.404
122.993 153.923 157.567
111.614 156.4 159.385
121.381 157.595 157.327
122.036 156.262 158.39
111.56 157.679 160.277
121.144 157.449 158.331
120.233 158.602 157.688
111.991 158.517 161.066
117.022 159.837 158.266
117.973 159.396 158.888
119.199 158.914 158.926
112.983 159.342 160.949
114.18 159.751 160.553
115.447 159.693 160.04
116.686 159.509 159.54
121.421 144.101 152.943
121.751 142.91 153.715
122.678 142.095 153.109
124.109 142.501 152.964
124.627 144.181 154.335
119.51 146.886 153.424
120.333 145.722 153.372
120.859 144.467 153.94
125.198 145.269 154.861
125.639 146.298 154.683
125.353 146.055 156.001
118.58 147.636 154.04
118.99 146.762 155.137
125.617 147.013 156.681
117.533 148.455 155.387
125.67 148.114 157.314
116.069 149.909 156.773
116.843 149.226 156.144
125.669 149.015 158.073
114.831 151.223 158.077
115.559 150.415 157.614
124.997 151.711 157.349
125.439 150.328 157.965
113.223 152.929 158.935
114.115 151.99 158.692
124.736 152.262 158.402
124.876 151.316 158.916
112.415 153.857 159.488
111.945 153.787 160.869
112.726 152.895 160.183
122.63 154.847 158.429
123.666 153.54 158.663
124.277 152.54 159.421
111.87 155.036 159.932
111.411 154.735 161.546
122.428 155.51 159.186
122.899 154.673 159.602
111.323 156.245 160.92
111.132 155.718 162.379
120.314 158.026 158.867
121.31 156.913 159.388
121.931 155.816 160.067
111.38 157.339 161.85
111.303 156.843 163.203
119.024 158.271 160.614
118.006 159.021 160.166
119.953 157.835 159.924
112.193 158.565 162.503
113.219 159.09 162.669
114.131 159.264 162.057
115.38 159.351 161.602
116.646 159.178 161.029
123.019 141.593 154.807
121.715 142.021 155.025
122.131 141.17 156.484
123.274 141.77 156.191
123.911 142.63 154.717
123.76 143.025 156.277
121.196 143.297 154.936
124.25 143.785 156.777
119.909 145.752 155.276
120.568 144.306 155.576
124.98 144.712 156.34
125.101 145.508 157.469
117.85 147.559 156.128
118.484 146.233 156.981
125.471 146.428 158.391
116.584 148.751 157.016
116.449 148.235 158.276
117.141 147.875 157.23
125.377 147.628 159.061
115.444 149.747 158.536
114.922 149.284 159.994
115.718 148.529 159.433
125.315 148.988 159.5
114.275 150.914 159.53
113.528 150.635 161.021
114.173 149.538 161.095
124.954 150.087 159.892
113.269 151.825 160.224
112.281 152.335 161.423
112.72 151.081 161.811
124.504 151.241 160.406
111.61 153.132 162.274
123.847 152.341 160.922
123.246 153.422 160.08
111.217 154.016 163.137
122.468 154.583 160.721
111.134 155.077 163.893
121.608 155.506 161.376
120.931 156.732 160.601
111.306 156.112 164.734
118.698 157.599 161.761
117.832 158.61 161.479
119.853 157.239 161.178
111.786 157.673 163.937
112.81 158.48 163.867
114.116 158.866 163.676
115.329 158.862 163.022
116.666 158.697 162.513
121.228 141.991 156.67
120.301 142.618 157.801
120.828 141.1 157.74
122.107 140.502 157.538
123.009 141.761 157.548
123.526 142.178 158.39
120.696 143.178 156.446
120.077 144.498 157.116
124.018 142.911 159.041
119.219 145.315 157.186
124.71 144.154 158.205
124.785 145.034 159.135
117.426 147.137 157.911
116.801 146.372 159.711
117.703 145.952 158.806
118.351 145.095 158.606
125.015 146.064 159.996
116.267 147.324 159.426
115.439 147.625 160.805
116.098 146.494 161.151
125.039 147.427 160.615
114.685 148.032 161.766
124.758 148.707 161.064
113.271 149.827 162.259
114.002 148.618 162.569
124.431 149.919 161.525
112.039 151.639 162.909
112.419 150.298 163.236
123.913 151.082 161.757
111.573 152.317 163.853
123.233 152.166 162.122
122.869 153.344 161.404
111.159 153.245 164.638
122.092 154.209 161.994
111.331 154.362 165.331
121.306 155.134 162.672
120.658 156.32 161.899
111.606 155.353 165.913
117.717 158.04 162.36
118.341 157.289 162.701
119.431 156.825 162.548
111.881 156.981 165.327
112.727 157.901 165.287
114 158.207 165.052
115.289 158.227 164.518
116.383 158.08 163.916
117.304 157.754 163.327
121.412 139.685 158.206
120.22 140.753 158.881
120.638 138.74 158.831
122.091 138.289 158.965
122.62 139.869 158.273
122.704 139.276 159.481
122.87 140.793 158.784
122.952 140.298 160.016
119.652 142.678 158.796
123.358 141.192 160.449
119.323 144.007 158.684
123.703 142.146 160.958
118.883 144.5 158.726
118.259 143.985 160.044
118.821 143.784 159.487
124.373 143.59 160.012
124.666 144.562 160.886
116.74 145.111 160.853
117.608 144.728 159.946
124.704 145.83 161.541
115.12 146.381 162.659
115.883 145.319 162.215
124.578 147.239 162.115
114.215 147.098 163.272
124.167 148.611 162.538
113.013 148.824 163.506
113.581 147.92 163.409
123.647 149.929 162.931
111.724 150.612 164.467
112.118 149.383 164.266
123.416 151.207 162.805
111.32 151.418 165.368
122.859 151.812 163.167
122.334 152.879 162.798
111.102 152.669 166.153
121.651 153.797 163.257
111.427 153.735 166.736
120.753 154.571 163.676
120.198 155.766 162.972
112 154.671 166.983
119.182 156.046 163.806
118.218 156.765 163.568
112.123 156.312 166.461
112.957 157.151 166.437
114.075 157.602 166.238
115.25 157.645 165.779
116.223 157.371 165.136
117.19 157.123 164.337
121.138 137.198 159.401
119.938 138.497 159.782
120.448 136.256 160.262
121.719 136.126 160.249
122.371 137.228 160.056
122.355 136.44 161.428
119.657 140.369 159.888
122.616 138.437 160.788
122.801 139.446 161.736
119.24 141.591 160.048
118.498 140.873 161.243
119.151 140.484 160.612
123.192 140.327 162.455
118.633 142.858 160.112
117.778 142.29 161.331
123.472 141.585 162.559
117.254 143.677 161.217
116.66 142.645 162.463
117.205 142.394 161.83
124.165 143.098 161.6
124.269 144.274 162.48
116.234 144.079 162.255
114.92 144.629 163.56
115.544 143.178 163.176
124.186 145.744 162.968
113.837 145.647 164.09
124.026 147.202 163.492
113.151 147.203 164.012
112.236 146.81 165.198
112.826 145.99 164.851
123.554 148.556 163.917
112.333 148.119 164.699
111.604 149.031 165.465
111.637 147.461 165.961
123.295 149.692 163.972
122.975 149.144 164.912
122.695 150.431 164.515
111.346 149.909 166.191
123.072 150.827 163.663
122.244 151.688 164.12
111.252 151.057 166.873
121.596 152.584 164.193
111.366 152.202 167.603
120.915 153.462 164.443
111.974 153.221 167.895
120.447 154.256 164.38
119.928 155.139 164.23
112.296 154.517 167.759
112.451 155.58 167.368
112.92 155.229 168.299
119.096 155.5 164.544
118.175 156.144 164.602
113.173 156.361 167.373
114.257 156.748 167.181
115.213 156.889 166.674
116.209 156.59 166.286
117.068 156.383 165.313
119.506 137.399 160.66
118.84 137.194 161.593
119.313 135.928 161.255
120.393 134.874 160.839
121.778 135.069 161.155
122.134 135.352 162.842
119.181 139.148 161.044
118.377 138.055 162.278
122.452 137.554 162.387
122.663 138.755 163.419
118.212 139.641 162.226
117.033 139.482 163.173
117.814 138.715 162.793
123.05 140.031 164.188
117.337 141.192 162.477
116.179 140.688 163.606
123.258 141.621 163.626
123.714 142.856 162.76
123.515 142.977 163.859
115.916 141.898 163.332
114.513 142.805 164.244
115.079 141.198 164.114
123.745 144.363 163.911
113.634 143.904 164.902
123.795 145.801 164.266
113.009 144.773 165.203
123.383 146.975 164.693
111.739 145.614 166.019
112.347 145.049 165.664
123.081 147.898 165.382
111.237 148.164 167.01
111.136 146.493 166.786
122.26 148.803 165.863
122.152 150.294 165.273
111.095 149.435 167.716
121.495 151.252 165.398
111.313 150.662 168.417
120.779 152.253 165.349
111.888 151.827 168.939
120.182 153.816 165.059
120.257 152.788 165.641
119.842 153.31 166.02
112.503 152.862 168.797
112.556 154.046 168.414
113.04 153.823 169.009
119.347 154.774 165.291
119.104 153.666 166.376
118.616 154.541 166.146
113.644 154.721 169.16
117.214 155.764 166.285
117.272 155.152 167.035
116.471 155.65 167.053
118.215 155.443 165.563
117.874 154.834 166.76
113.66 155.748 168.376
114.501 155.974 168.06
115.526 156.078 167.489
121.045 133.629 161.239
119.606 133.801 161.452
119.763 132.884 161.939
121.197 132.632 162.13
121.889 134.009 162.188
121.845 133.41 163.499
118.128 135.802 162.49
118.795 134.694 161.84
121.759 134.981 164.375
117.459 137.606 163.052
116.721 136.688 163.877
117.395 136.141 163.202
122.289 136.907 163.815
122.448 138.401 164.914
116.177 138.349 163.823
114.9 138.662 164.963
115.612 137.203 164.729
122.68 139.8 165.865
115.305 139.718 164.146
114.116 140.74 165.088
123.119 141.384 164.818
123.168 142.896 165.209
113.438 142.043 165.546
123.208 144.341 165.059
112.584 142.746 165.984
111.839 142.003 167.338
112.58 141.435 166.721
123.176 145.396 165.569
112.113 143.868 166.326
111.347 143.231 167.622
122.922 146.366 166.121
111.315 144.832 167.053
110.893 146.399 167.898
111.055 144.461 168.049
122.452 147.523 166.457
111 147.757 168.498
121.8 148.263 166.803
121.482 149.581 166.367
111.234 149.01 169.175
120.904 150.688 166.595
111.789 150.222 169.756
120.174 151.812 166.321
120.252 150.622 167.503
119.616 151.488 167.329
112.472 151.263 169.828
117.852 153.028 167.985
117.562 151.819 169.074
117.196 152.996 168.475
118.654 152.506 167.619
118.276 151.869 168.556
119.351 152.544 166.877
118.867 151.294 168.138
113.031 152.277 169.616
113.678 153.323 169.635
117.286 154.377 167.71
116.682 153.787 168.512
118.273 153.59 167.145
114.304 154.011 169.471
114.488 155.004 168.868
115.354 155.168 168.496
115.11 154.078 169.282
116.301 154.962 168.007
115.9 154.036 168.934
118.496 131.349 163.248
117.426 131.719 163.868
117.743 129.779 163.791
119.233 129.869 163.216
119.566 131.693 162.497
120.474 130.692 163.202
121.304 131.779 162.936
121.27 131.575 164.077
118.373 133.43 162.722
117.142 133.16 163.846
121.324 133.009 164.91
117.357 134.783 163.364
116.223 134.676 164.69
116.308 133.578 164.794
121.465 134.635 165.862
116.16 135.836 164.46
114.783 136.41 165.599
115.427 135.154 165.265
121.976 136.568 165.248
122.151 137.982 166.45
114.164 138.45 165.751
122.315 139.256 166.864
113.548 139.452 166.074
112.359 139.008 167.187
113.187 138.098 166.674
122.863 141.163 166.012
122.355 140.54 167.292
112.985 140.502 166.339
111.831 140.302 167.828
122.789 142.21 166.419
122.934 143.6 166.498
111.196 141.422 168.718
122.54 144.724 166.883
111.023 143.196 168.576
110.877 144.723 168.925
110.773 142.645 169.562
122.226 146.151 167.053
110.829 146.142 169.329
121.934 147.21 167.216
121.69 146.292 167.854
121.362 147.671 167.76
111.29 147.306 169.858
120.992 148.942 167.543
111.79 148.508 170.462
120.606 149.679 167.701
112.297 149.52 170.841
112.616 150.675 170.545
113.248 150.071 171.137
119.589 150.6 168.152
119.696 149.587 168.629
119.131 150.205 168.973
120.153 149.308 168.287
112.957 151.398 170.279
113.579 151.122 170.761
117.196 150.787 169.924
116.812 152.237 169.528
118.156 150.632 169.376
114.626 153.07 169.989
113.979 152.073 170.172
115.515 153.043 169.77
115.044 151.98 170.439
116.309 152.997 169.435
115.896 151.893 170.129
115.592 130.326 165.766
114.353 129.96 166.687
115.025 128.735 166.151
116.19 128.977 164.912
116.662 130.593 164.735
117.601 128.396 164.181
119.269 128.464 163.978
120.574 129.648 164.144
120.901 130.897 165.271
115.109 131.829 166.004
114.151 131.847 166.808
116.078 132.164 165.107
120.894 132.419 166.172
115.181 133.87 166.077
114.007 133.427 167.102
121.03 133.627 167.058
114.168 135.092 166.371
113.066 135.816 167.303
113.375 134.381 167.409
121.747 136.169 166.452
121.323 135.213 167.482
113.702 136.98 166.44
112.397 137.299 167.73
121.781 136.995 167.397
121.867 138.527 167.822
111.491 138.564 168.424
121.802 139.806 168.429
111.145 139.829 169.368
122.318 142.065 167.392
121.759 141.302 168.563
110.833 141.08 170.329
122.07 143.149 167.87
121.417 142.51 169.085
110.833 144.363 170.047
110.835 142.683 170.706
121.519 144.088 168.706
121.09 143.385 169.676
120.954 144.6 169.5
121.959 144.84 167.831
111.14 145.586 170.673
121.263 145.886 168.731
120.476 145.514 169.762
111.606 146.783 171.083
120.74 147.195 168.807
120.038 146.72 169.853
112.304 147.464 171.37
119.913 148.087 169.143
119.611 147.324 169.878
119.244 147.857 170.05
120.52 148.571 168.306
112.707 148.47 171.491
114.368 150.105 171.36
113.556 149.09 171.714
114.749 149.183 172.022
119.027 149.085 169.473
118.5 148.369 170.316
118.151 149.426 169.933
114.565 151.111 170.818
115.437 149.774 171.462
115.561 150.719 170.808
116.376 150.985 170.217
116.405 149.744 170.959
117.359 149.634 170.492
116.565 126.105 165.283
115.074 126.012 166.172
115.337 124.942 166.044
116.901 124.636 165.514
118.205 126.227 165.294
118.211 125.182 165.821
119.153 126.616 165.867
118.877 125.889 166.58
115.414 127.344 165.934
113.912 127.972 167.31
114.147 126.54 167.134
116.674 127.547 164.834
118.074 127.48 164.812
119.495 127.61 165.198
119.434 127.545 166.634
113.438 129.958 167.638
120.306 129.066 165.488
120.344 130.553 166.567
113.302 131.994 167.679
120.49 132.03 167.493
113.204 133.241 167.824
112.409 134.166 168.295
112.588 132.683 168.377
120.773 133.74 168.317
112.067 135.775 168.484
120.912 135.3 168.943
111.413 136.959 169.026
121.511 136.789 168.417
121.402 138.213 169.028
111.017 138.098 169.909
121.261 139.637 169.489
110.929 139.324 170.783
121.132 140.989 169.837
111.01 140.428 171.581
120.956 142.164 169.904
111.15 143.879 171.397
111.25 141.981 171.74
120.619 142.66 170.154
120.241 143.626 170.344
111.767 145.156 171.832
111.907 143.592 172.332
119.747 145.3 170.463
112.369 146.428 172.05
112.814 145.099 172.652
119.403 146.662 170.601
119.198 145.373 171.138
118.766 146.196 171.35
112.999 147.332 171.957
113.343 146.502 172.638
117.596 147.488 171.511
117.276 146.46 172.141
116.757 147.374 171.991
118.518 147.34 170.944
118.119 146.284 171.879
113.687 147.983 172.253
115.907 148.85 172.074
114.798 148.163 172.455
116.811 148.58 171.525
115.894 147.547 172.3
117.752 148.518 170.869
113.863 110.859 162.902
113.018 111.138 163.094
113.056 109.743 162.475
113.842 109.759 163.078
114.405 110.641 163.748
114.021 109.856 164.145
113.95 112.041 163.253
113.435 112.727 163.608
114.663 111.811 163.817
114.413 111.112 164.909
114.384 113.171 164.036
114.812 112.634 164.759
113.67 123.816 167.422
112.289 124.363 168.737
112.589 123.01 168.27
114.352 122.669 166.847
115.191 123.767 166.19
116.227 122.326 166.007
117.165 123.366 165.843
117.934 122.495 166.887
113.692 125.114 167.501
112.776 126.171 168.417
118.386 124.36 166.584
118.904 125.918 167.55
112.801 128.194 168.258
119.141 127.482 168.289
112.638 129.635 168.525
111.997 130.363 169.342
112.106 128.699 169.228
119.855 129.043 167.108
119.961 130.539 168.114
112.649 131.134 168.475
111.823 132.421 169.18
120.157 132.11 168.696
111.562 134.097 169.493
120.231 133.453 169.533
111.122 135.406 169.951
119.952 134.372 170.348
110.919 136.562 170.737
120.9 136.634 169.447
120.096 135.846 170.26
111.047 137.747 171.669
120.692 137.769 170.073
120.009 137.407 170.958
111.305 138.965 172.391
120.588 139.308 170.465
119.906 139.457 171.177
111.555 140.591 172.774
120.402 141.359 170.541
119.626 140.74 171.294
112.016 142.168 172.92
119.723 142.431 171.133
119.083 141.067 171.858
118.777 142.061 172.085
112.754 143.564 173.128
117.783 143.774 172.488
117.036 142.862 173.198
116.761 143.862 172.979
118.8 143.322 171.874
117.923 142.286 172.879
119.374 144.104 171.018
113.624 144.596 173.197
114.233 145.781 172.974
115.559 145.548 173.055
114.729 144.642 173.419
116.677 144.944 172.735
115.849 144.375 173.367
117.473 145.369 172.258
118.471 144.871 171.856
114.22 147.044 172.578
115.2 146.749 172.762
116.398 146.277 172.557
111.423 109.016 162.369
111.109 109.915 163.477
110.395 108.578 163.645
111.364 107.581 162.983
112.608 108.407 162.245
112.432 107.807 163.635
112.114 110.422 162.824
111.567 111.223 164.008
113.416 108.751 163.497
113.623 109.273 164.805
112.567 112.461 163.824
111.777 112.438 164.866
113.872 110.472 165.575
112.692 114.179 164.827
111.769 114.085 165.841
113.746 114.16 164.305
114.889 114.22 164.947
114.766 112.571 165.907
112.863 115.658 165.809
111.905 115.303 166.847
113.953 115.93 165.262
115.054 115.769 165.08
115.395 114.159 166.043
115.79 115.474 165.713
115.792 115.073 166.772
112.603 116.915 166.583
111.669 116.573 167.732
113.807 117.567 165.895
115.061 117.57 165.571
115.986 117.016 165.848
116.123 116.436 166.947
112.344 117.978 167.197
113.34 118.963 166.517
112.332 119.12 167.836
114.902 119.178 165.865
116.259 118.69 166.223
116.37 117.92 167.275
112.875 120.396 167.384
111.889 120.208 168.793
114.236 120.456 166.361
116.33 120.083 166.218
116.836 119.299 167.958
111.918 121.319 168.851
113.014 121.813 167.606
111.621 122.437 169.826
115.103 121.384 166.222
117.239 120.317 167.981
117.163 121.21 166.509
117.289 121.483 168.384
111.398 123.699 170.381
117.658 122.896 168.653
111.892 125.356 169.841
111.559 126.537 170.363
111.293 124.829 171.345
118.295 124.189 168.022
118.504 125.499 169
112.135 127.043 169.333
111.518 128.493 170.264
118.466 126.659 169.77
111.59 130.639 170.365
119.441 128.957 168.652
118.772 128.164 170.059
111.405 132.351 170.516
119.355 130.024 169.356
119.619 131.466 169.761
111.103 133.822 170.924
119.478 132.643 170.631
111.075 135.032 171.607
119.291 133.66 171.2
118.765 132.449 171.519
118.524 133.507 172.105
111.246 136.285 172.416
119.204 134.942 171.444
118.361 135.171 172.58
111.806 137.494 173.209
119.378 136.37 171.732
118.433 136.639 172.86
112.083 139.106 173.538
118.701 137.793 172.424
117.747 137.364 173.38
117.663 138.469 173.435
119.434 138.129 171.649
112.446 140.734 173.634
118.191 139.309 172.761
117.507 139.776 173.433
119.026 139.457 172.095
112.87 142.123 173.595
118.347 140.768 172.629
117.575 141.046 173.389
113.541 142.854 173.639
113.998 143.656 173.554
115.181 143.472 173.664
114.719 142.599 173.943
116.245 143.332 173.577
115.939 142.27 173.944
116.895 141.724 173.779
110.714 109.981 164.662
110.113 108.466 165.031
111.008 107.45 164.42
111.877 107.665 165.29
110.79 111.262 165.614
112.821 108.307 164.919
113.036 109.131 166.024
111.21 112.586 166.11
113.918 111.102 166.432
111.24 113.571 167.093
114.37 112.563 167.188
111.348 114.866 167.969
115 113.973 166.998
115.45 115.5 167.767
111.265 115.68 168.822
115.745 116.971 168.353
111.792 117.655 168.169
111.261 116.867 169.103
116.058 118.321 168.927
111.644 118.453 168.869
111.492 119.472 169.702
115.952 119.386 169.889
111.353 120.755 170.604
111.432 121.575 171.92
116.238 120.544 170.228
116.84 121.869 170.274
111.335 122.998 172.417
116.92 122.997 170.524
111.216 126.652 171.441
111.423 124.779 172.906
117.599 124.176 169.591
117.569 125.16 170.548
111.316 128.723 171.426
117.778 126.616 171.069
111.339 130.534 171.633
117.913 128.027 171.463
111.319 132.044 171.926
118.935 129.94 170.419
118.218 129.493 171.437
111.322 133.444 172.414
118.784 131.108 171.144
118.069 131.603 172.201
111.607 134.572 173.181
117.735 133.236 172.919
112.044 135.787 173.63
117.488 134.721 173.436
116.962 133.54 173.842
116.668 134.761 174.289
112.519 136.681 174.094
112.841 138.053 174.315
114.272 137.554 174.787
113.44 136.53 174.68
115.622 136.914 174.836
114.612 135.989 174.974
116.745 136.089 174.363
115.82 135.321 174.985
117.696 136.259 173.672
113.164 139.609 174.226
114.28 138.961 174.557
115.513 138.334 174.656
116.651 137.602 174.176
113.501 141.059 174.109
114.427 140.325 174.322
115.511 139.673 174.4
116.618 139.013 174.109
113.862 142.027 173.926
114.748 141.558 174.252
115.751 140.995 174.251
116.648 140.396 173.91
110.407 109.543 165.976
110.689 107.99 166.202
110.483 110.528 166.883
110.866 109.033 167.178
111.958 108.246 166.692
110.727 111.917 167.332
111.024 110.61 167.969
111.834 109.416 167.958
112.739 109.56 167.19
113.445 110.993 167.333
111.037 113.33 168.445
113.904 112.674 168.163
111.398 114.552 169.323
114.71 114.156 168.182
115.007 115.793 168.985
111.429 115.607 170.129
115.264 117.358 169.756
111.245 116.707 170.5
115.16 118.595 170.689
111.262 117.919 169.949
111.24 118.488 170.908
114.99 119.914 171.737
111.351 119.504 171.2
112.593 121.294 173.544
111.791 119.844 172.499
114.576 121.104 172.917
113.464 119.781 173.191
115.786 121.439 171.479
112.257 123.026 173.75
113.997 122.64 173.879
115.514 122.428 172.308
111.256 126.87 172.615
111.824 125.736 173.768
112.743 124.272 174.315
114.27 124.129 174.101
114.976 125.311 173.828
115.351 123.804 173.042
116.42 123.897 171.508
111.4 128.753 172.73
115.88 125.719 172.873
115.428 126.813 173.926
116.615 125.332 171.863
111.509 130.282 172.912
116.226 127.731 173.119
115.604 128.441 174.216
116.923 126.923 172.202
111.626 131.634 173.21
116.479 129.469 173.496
115.637 130.009 174.496
117.297 128.799 172.444
111.777 132.884 173.604
116.43 131.096 173.839
115.394 131.388 174.698
117.45 130.442 172.741
112.225 133.368 174.246
112.532 134.401 174.68
113.97 133.575 175.278
113.126 132.815 174.984
115.34 132.735 175.029
114.317 132.065 175.231
116.285 132.382 174.308
117.149 132.171 173.472
112.776 135.694 174.546
113.693 135.11 174.982
114.974 134.419 175.189
116.033 133.702 174.662
111.273 112.083 168.939
112.088 111.11 168.924
112.809 110.705 168.222
111.645 113.505 170.029
112.472 112.639 169.876
113.233 112.273 168.952
111.994 114.744 170.863
112.841 114.179 170.89
113.643 113.976 170.191
114.161 114.103 169.169
111.949 116.048 171.484
112.967 115.774 171.511
113.753 115.69 171.01
114.44 115.827 170.015
111.533 117.278 171.483
112.631 117.078 172.065
113.624 117.196 171.906
114.583 117.282 170.993
111.894 118.379 172.094
112.913 118.549 172.619
114.238 118.751 172.059
111.825 127.339 173.729
112.736 126.123 174.536
113.727 125.208 174.562
112.004 128.757 174
112.956 127.52 174.78
114.177 126.497 174.675
112.133 130.103 174.302
113.164 128.878 174.983
114.5 127.834 174.887
112.34 131.318 174.397
113.291 130.188 174.98
114.566 129.311 174.959
112.474 132.331 174.63
113.312 131.464 175.171
114.482 130.62 175.053
POLYGONS 2132  8528
3 0 1 2
3 0 3 4
3 2 3 0
3 4 5 6
3 3 5 4
3 6 7 8
3 5 7 6
3 7 9 8
3 10 1 0
3 11 1 10
3 4 12 0
3 12 10 0
3 6 13 4
3 13 12 4
3 8 14 6
3 14 13 6
3 15 8 9
3 14 8 15
3 16 11 10
3 17 11 16
3 12 18 10
3 18 16 10
3 13 19 12
3 19 18 12
3 14 20 13
3 20 19 13
3 21 14 15
3 20 14 21
3 16 22 17
3 18 22 16
3 23 22 18
3 19 23 18
3 24 23 19
3 20 24 19
3 25 24 20
3 21 25 20
3 26 27 28
3 26 29 30
3 28 29 26
3 29 31 30
3 32 33 34
3 27 32 34
3 27 26 32
3 26 35 32
3 30 36 26
3 36 35 26
3 37 30 31
3 36 30 37
3 38 33 32
3 39 33 38
3 35 40 32
3 40 38 32
3 36 41 35
3 41 40 35
3 42 36 37
3 41 36 42
3 43 44 45
3 43 46 47
3 45 46 43
3 39 47 46
3 39 38 47
3 38 48 47
3 40 49 38
3 49 48 38
3 50 41 51
3 50 49 41
3 49 40 41
3 42 51 41
3 2 44 43
3 2 1 44
3 1 52 44
3 3 2 43
3 47 3 43
3 5 3 47
3 48 5 47
3 7 5 48
3 49 7 48
3 49 9 7
3 49 50 9
3 50 53 9
3 1 11 52
3 52 11 54
3 9 53 15
3 53 55 15
3 11 17 54
3 54 17 56
3 15 55 21
3 55 57 21
3 58 17 22
3 58 59 17
3 59 56 17
3 22 23 60
3 58 22 60
3 23 24 61
3 60 23 61
3 62 61 24
3 62 24 63
3 63 24 25
3 57 25 21
3 63 25 57
3 58 64 59
3 60 64 58
3 65 64 60
3 61 65 60
3 66 65 61
3 62 66 61
3 67 68 69
3 67 70 71
3 69 70 67
3 71 72 73
3 70 72 71
3 72 74 73
3 75 76 77
3 68 75 77
3 68 67 75
3 67 78 75
3 71 79 67
3 79 78 67
3 73 80 71
3 80 79 71
3 81 73 74
3 80 73 81
3 82 76 75
3 83 76 82
3 78 84 75
3 84 82 75
3 79 85 78
3 85 84 78
3 80 86 79
3 86 85 79
3 87 80 81
3 86 80 87
3 28 83 82
3 28 27 83
3 27 88 83
3 29 28 82
3 84 29 82
3 31 29 84
3 31 84 89
3 89 84 85
3 86 90 85
3 90 89 85
3 91 86 87
3 90 86 91
3 34 92 93
3 33 92 34
3 88 27 34
3 93 88 34
3 89 94 37
3 31 89 37
3 90 95 89
3 95 94 89
3 96 90 91
3 95 90 96
3 97 98 99
3 97 99 92
3 97 92 39
3 39 92 33
3 94 100 42
3 37 94 42
3 101 95 102
3 101 100 95
3 100 94 95
3 96 102 95
3 45 103 104
3 44 103 45
3 98 97 46
3 98 46 104
3 104 46 45
3 39 46 97
3 51 105 50
3 51 42 100
3 51 100 105
3 105 100 106
3 107 100 101
3 106 100 107
3 44 52 103
3 103 52 108
3 105 109 53
3 50 105 53
3 110 106 111
3 110 109 106
3 109 105 106
3 107 111 106
3 52 54 108
3 108 54 112
3 109 113 55
3 53 109 55
3 114 109 110
3 113 109 114
3 54 56 112
3 112 56 115
3 113 116 57
3 55 113 57
3 117 113 114
3 116 113 117
3 56 59 115
3 115 59 118
3 63 119 120
3 62 63 120
3 116 63 57
3 116 121 63
3 121 119 63
3 117 121 116
3 59 122 118
3 64 122 59
3 65 123 64
3 64 123 122
3 66 124 65
3 65 124 123
3 120 66 62
3 124 66 120
3 69 125 126
3 68 125 69
3 70 69 127
3 69 126 127
3 72 70 128
3 70 127 128
3 128 74 72
3 129 74 128
3 77 130 131
3 76 130 77
3 125 68 77
3 131 125 77
3 74 129 81
3 129 132 81
3 76 83 130
3 130 83 133
3 134 135 87
3 134 87 132
3 132 87 81
3 134 136 135
3 83 88 133
3 133 88 137
3 135 138 91
3 87 135 91
3 139 135 136
3 138 135 139
3 93 140 141
3 92 140 93
3 137 88 93
3 141 137 93
3 138 142 96
3 91 138 96
3 143 138 139
3 142 138 143
3 99 144 145
3 98 144 99
3 140 92 99
3 145 140 99
3 102 146 101
3 102 147 146
3 96 147 102
3 96 148 147
3 96 142 148
3 143 148 142
3 104 149 150
3 103 149 104
3 144 98 104
3 150 144 104
3 146 151 107
3 101 146 107
3 152 146 147
3 151 146 152
3 103 108 149
3 149 108 153
3 111 154 110
3 111 155 154
3 107 155 111
3 107 156 155
3 107 151 156
3 152 156 151
3 108 112 153
3 153 112 157
3 154 158 114
3 110 154 114
3 159 154 155
3 158 154 159
3 112 115 157
3 157 115 160
3 158 161 162
3 158 162 114
3 114 162 117
3 159 161 158
3 115 118 160
3 160 118 163
3 119 164 120
3 165 164 119
3 165 119 166
3 166 119 121
3 162 121 117
3 166 121 162
3 118 167 163
3 122 167 118
3 123 168 122
3 122 168 167
3 124 169 123
3 123 169 168
3 164 124 120
3 164 170 124
3 170 169 124
3 165 170 164
3 126 125 171
3 172 126 171
3 172 173 126
3 173 127 126
3 128 127 174
3 127 173 174
3 174 129 128
3 175 129 174
3 131 130 176
3 131 176 177
3 125 131 177
3 125 177 178
3 125 178 171
3 172 171 178
3 179 180 132
3 179 132 175
3 175 132 129
3 179 181 180
3 176 182 183
3 176 130 182
3 130 133 182
3 177 176 183
3 132 180 134
3 180 136 134
3 180 181 136
3 181 184 136
3 133 137 182
3 182 137 185
3 136 184 139
3 184 186 139
3 141 187 188
3 140 187 141
3 185 137 141
3 188 185 141
3 139 186 143
3 186 189 143
3 145 190 191
3 144 190 145
3 187 140 145
3 191 187 145
3 148 192 147
3 148 193 192
3 148 143 193
3 143 189 193
3 150 194 195
3 149 194 150
3 190 144 150
3 195 190 150
3 192 196 152
3 147 192 152
3 197 192 193
3 196 192 197
3 198 199 200
3 198 200 194
3 198 194 153
3 153 194 149
3 156 201 155
3 156 202 201
3 152 202 156
3 152 203 202
3 152 196 203
3 197 203 196
3 204 199 198
3 205 199 204
3 153 157 204
3 198 153 204
3 201 206 159
3 155 201 159
3 207 201 202
3 206 201 207
3 208 205 204
3 209 205 208
3 157 160 208
3 204 157 208
3 161 210 162
3 161 211 210
3 159 211 161
3 159 212 211
3 159 206 212
3 207 212 206
3 213 209 208
3 214 209 213
3 160 163 213
3 208 160 213
3 166 215 216
3 165 166 216
3 210 166 162
3 210 217 166
3 217 215 166
3 211 217 210
3 213 218 214
3 163 218 213
3 163 167 218
3 167 219 218
3 168 220 167
3 167 220 219
3 169 221 168
3 168 221 220
3 170 222 169
3 169 222 221
3 216 170 165
3 222 170 216
3 223 224 225
3 223 226 227
3 225 226 223
3 226 228 227
3 173 224 223
3 173 172 224
3 172 229 224
3 174 173 223
3 227 174 223
3 227 175 174
3 227 228 175
3 228 230 175
3 178 231 232
3 177 231 178
3 229 172 178
3 232 229 178
3 175 230 233
3 179 175 233
3 233 181 179
3 234 181 233
3 183 235 236
3 182 235 183
3 231 177 183
3 236 231 183
3 181 234 184
3 234 237 184
3 238 239 240
3 238 240 235
3 238 235 185
3 185 235 182
3 184 237 186
3 237 241 186
3 242 243 244
3 239 242 244
3 238 242 239
3 238 187 242
3 238 188 187
3 185 188 238
3 186 241 189
3 241 245 189
3 246 247 248
3 243 246 248
3 242 246 243
3 242 190 246
3 242 191 190
3 187 191 242
3 189 245 193
3 245 249 193
3 250 251 252
3 247 250 252
3 246 250 247
3 246 194 250
3 246 195 194
3 190 195 246
3 193 249 197
3 249 253 197
3 200 251 250
3 200 199 251
3 199 254 251
3 194 200 250
3 203 255 256
3 202 203 256
3 253 203 197
3 255 203 253
3 199 205 254
3 254 205 257
3 202 256 207
3 256 258 207
3 205 209 257
3 257 209 259
3 212 260 261
3 211 212 261
3 258 212 207
3 260 212 258
3 209 214 259
3 259 214 262
3 215 263 264
3 216 215 264
3 217 265 215
3 215 265 263
3 261 217 211
3 265 217 261
3 214 266 262
3 218 266 214
3 219 267 218
3 218 267 266
3 220 268 219
3 219 268 267
3 221 269 220
3 220 269 268
3 222 270 221
3 221 270 269
3 264 222 216
3 270 222 264
3 271 272 273
3 271 225 224
3 271 273 225
3 273 274 225
3 226 225 275
3 225 274 275
3 275 228 226
3 276 228 275
3 277 272 271
3 278 272 277
3 224 229 277
3 271 224 277
3 228 276 230
3 276 279 230
3 232 278 277
3 232 231 278
3 231 280 278
3 229 232 277
3 230 279 281
3 233 230 281
3 281 234 233
3 282 234 281
3 283 284 285
3 283 236 235
3 283 285 236
3 285 286 236
3 280 231 236
3 286 280 236
3 234 282 237
3 282 287 237
3 288 289 290
3 284 288 290
3 283 288 284
3 283 239 288
3 283 240 239
3 235 240 283
3 237 287 241
3 287 291 241
3 244 289 288
3 244 243 289
3 243 292 289
3 239 244 288
3 241 291 245
3 291 293 245
3 248 294 295
3 247 294 248
3 292 243 248
3 295 292 248
3 245 293 249
3 293 296 249
3 252 297 298
3 251 297 252
3 294 247 252
3 298 294 252
3 249 296 253
3 296 299 253
3 251 254 297
3 297 254 300
3 255 301 302
3 256 255 302
3 299 255 253
3 301 255 299
3 254 257 300
3 300 257 303
3 256 302 258
3 302 304 258
3 257 259 303
3 303 259 305
3 260 306 307
3 261 260 307
3 304 260 258
3 306 260 304
3 259 262 305
3 305 262 308
3 263 309 264
3 310 309 263
3 310 263 311
3 311 263 265
3 307 265 261
3 311 265 307
3 262 312 308
3 266 312 262
3 267 313 266
3 266 313 312
3 268 314 267
3 267 314 313
3 269 315 268
3 268 315 314
3 270 316 269
3 269 316 315
3 309 270 264
3 309 317 270
3 317 316 270
3 310 317 309
3 318 319 320
3 318 321 322
3 320 321 318
3 322 323 324
3 321 323 322
3 323 325 324
3 273 319 318
3 273 272 319
3 272 326 319
3 274 273 318
3 322 274 318
3 275 274 322
3 324 275 322
3 324 276 275
3 324 325 276
3 325 327 276
3 272 278 326
3 326 278 328
3 276 327 279
3 327 329 279
3 330 331 332
3 330 332 328
3 330 328 280
3 280 328 278
3 279 329 333
3 281 279 333
3 333 282 281
3 334 282 333
3 285 335 336
3 284 335 285
3 331 330 286
3 331 286 336
3 336 286 285
3 280 286 330
3 282 334 287
3 334 337 287
3 290 338 339
3 289 338 290
3 335 284 290
3 339 335 290
3 287 337 291
3 337 340 291
3 289 292 338
3 338 292 341
3 291 340 293
3 340 342 293
3 295 343 344
3 294 343 295
3 341 292 295
3 344 341 295
3 293 342 296
3 342 345 296
3 298 346 347
3 297 346 298
3 343 294 298
3 347 343 298
3 296 345 299
3 345 348 299
3 297 300 346
3 346 300 349
3 301 350 351
3 302 301 351
3 348 301 299
3 350 301 348
3 300 303 349
3 349 303 352
3 302 351 304
3 351 353 304
3 303 305 352
3 352 305 354
3 306 355 356
3 307 306 356
3 353 306 304
3 355 306 353
3 305 308 354
3 354 308 357
3 311 358 359
3 310 311 359
3 356 311 307
3 358 311 356
3 308 360 357
3 312 360 308
3 313 361 312
3 312 361 360
3 314 362 313
3 313 362 361
3 315 363 314
3 314 363 362
3 316 364 315
3 315 364 363
3 317 365 316
3 316 365 364
3 359 317 310
3 365 317 359
3 366 367 368
3 366 369 370
3 368 369 366
3 369 371 370
3 320 367 366
3 320 319 367
3 319 372 367
3 321 320 366
3 370 321 366
3 370 371 373
3 370 373 321
3 321 373 323
3 373 325 323
3 374 325 373
3 375 376 377
3 375 377 372
3 375 372 326
3 326 372 319
3 325 374 327
3 374 378 327
3 379 376 375
3 380 376 379
3 326 328 379
3 375 326 379
3 327 378 329
3 378 381 329
3 382 383 384
3 380 382 384
3 379 382 380
3 379 331 382
3 379 332 331
3 328 332 379
3 329 381 385
3 333 329 385
3 385 334 333
3 386 334 385
3 387 388 389
3 383 387 389
3 382 387 383
3 382 335 387
3 382 336 335
3 331 336 382
3 334 386 337
3 386 390 337
3 339 388 387
3 339 338 388
3 338 391 388
3 335 339 387
3 337 390 340
3 390 392 340
3 393 394 395
3 393 395 391
3 393 391 341
3 341 391 338
3 340 392 342
3 392 396 342
3 397 398 399
3 394 397 399
3 393 397 394
3 393 343 397
3 393 344 343
3 341 344 393
3 400 401 402
3 400 396 401
3 400 345 396
3 345 342 396
3 347 398 397
3 347 346 398
3 346 403 398
3 343 347 397
3 404 400 402
3 405 404 402
3 345 404 348
3 400 404 345
3 346 349 403
3 403 349 406
3 350 404 405
3 350 405 351
3 351 405 407
3 348 404 350
3 349 352 406
3 406 352 408
3 351 407 353
3 407 409 353
3 352 354 408
3 408 354 410
3 355 411 412
3 356 355 412
3 409 355 353
3 411 355 409
3 413 357 414
3 413 410 357
3 410 354 357
3 413 414 415
3 358 416 417
3 359 358 417
3 412 358 356
3 416 358 412
3 357 360 414
3 414 418 415
3 414 360 418
3 360 361 418
3 362 419 361
3 361 419 418
3 363 420 362
3 362 420 419
3 364 421 363
3 363 421 420
3 365 422 364
3 364 422 421
3 417 365 359
3 422 365 417
3 423 424 425
3 423 368 367
3 423 425 368
3 425 426 368
3 369 368 427
3 368 426 427
3 427 371 369
3 428 371 427
3 429 424 423
3 430 424 429
3 367 372 429
3 423 367 429
3 371 428 431
3 373 371 431
3 431 374 373
3 432 374 431
3 433 434 435
3 430 433 435
3 429 433 430
3 429 376 433
3 429 377 376
3 372 377 429
3 374 432 378
3 432 436 378
3 437 434 433
3 438 434 437
3 376 380 437
3 433 376 437
3 439 440 381
3 439 381 436
3 436 381 378
3 439 441 440
3 442 443 444
3 438 442 444
3 437 442 438
3 437 383 442
3 437 384 383
3 380 384 437
3 381 440 385
3 440 386 385
3 440 441 386
3 441 445 386
3 389 443 442
3 389 388 443
3 388 446 443
3 383 389 442
3 386 445 390
3 445 447 390
3 388 391 446
3 446 391 448
3 390 447 392
3 447 449 392
3 395 450 451
3 394 450 395
3 448 391 395
3 451 448 395
3 392 449 396
3 449 452 396
3 399 453 454
3 398 453 399
3 450 394 399
3 454 450 399
3 401 455 456
3 402 401 456
3 452 401 396
3 455 401 452
3 398 403 453
3 453 403 457
3 402 456 405
3 456 458 405
3 403 406 457
3 457 406 459
3 405 458 407
3 458 460 407
3 406 408 459
3 459 408 461
3 462 463 464
3 462 460 463
3 462 409 460
3 409 407 460
3 465 410 466
3 465 461 410
3 461 408 410
3 465 466 467
3 468 469 470
3 464 469 468
3 462 464 468
3 462 468 412
3 462 412 411
3 409 462 411
3 410 413 466
3 466 413 415
3 466 415 467
3 467 415 471
3 472 473 474
3 472 475 476
3 473 472 476
3 470 476 475
3 468 470 475
3 468 475 417
3 468 417 416
3 412 468 416
3 415 477 471
3 418 477 415
3 419 478 418
3 418 478 477
3 420 479 419
3 419 479 478
3 474 421 472
3 474 479 421
3 479 420 421
3 422 472 421
3 475 472 422
3 417 475 422
3 480 481 482
3 480 483 484
3 482 483 480
3 483 485 484
3 425 486 487
3 424 486 425
3 481 480 426
3 481 426 487
3 487 426 425
3 427 426 480
3 484 427 480
3 484 428 427
3 484 485 428
3 485 488 428
3 489 490 491
3 489 491 486
3 489 486 430
3 430 486 424
3 428 488 492
3 431 428 492
3 492 432 431
3 493 432 492
3 494 495 496
3 490 494 496
3 489 494 490
3 489 434 494
3 489 435 434
3 430 435 489
3 432 493 436
3 493 497 436
3 498 495 494
3 499 495 498
3 434 438 498
3 494 434 498
3 436 497 500
3 439 436 500
3 500 441 439
3 501 441 500
3 444 499 498
3 444 443 499
3 443 502 499
3 438 444 498
3 441 501 445
3 501 503 445
3 504 505 506
3 504 506 502
3 504 502 446
3 446 502 443
3 445 503 447
3 503 507 447
3 508 505 504
3 509 505 508
3 446 448 508
3 504 446 508
3 447 507 449
3 507 510 449
3 511 512 513
3 509 511 513
3 508 511 509
3 508 450 511
3 508 451 450
3 448 451 508
3 449 510 452
3 510 514 452
3 454 512 511
3 454 453 512
3 453 515 512
3 450 454 511
3 455 516 517
3 456 455 517
3 514 455 452
3 516 455 514
3 453 457 515
3 515 457 518
3 456 517 458
3 517 519 458
3 457 459 518
3 518 459 520
3 521 522 523
3 521 519 522
3 521 460 519
3 460 458 519
3 459 461 520
3 520 461 524
3 525 526 527
3 525 528 529
3 526 525 529
3 528 530 531
3 529 528 531
3 523 531 530
3 521 523 530
3 521 530 464
3 521 464 463
3 460 521 463
3 461 532 524
3 465 532 461
3 532 465 467
3 533 532 467
3 534 525 527
3 535 534 527
3 528 525 536
3 536 525 534
3 469 536 470
3 469 530 536
3 530 528 536
3 464 530 469
3 537 471 538
3 537 533 471
3 533 467 471
3 538 539 540
3 537 538 540
3 539 541 542
3 540 539 542
3 535 542 541
3 534 535 541
3 534 541 474
3 534 474 473
3 476 534 473
3 536 534 476
3 470 536 476
3 471 477 538
3 478 538 477
3 539 538 478
3 479 539 478
3 541 539 479
3 474 541 479
3 543 544 545
3 543 546 547
3 545 546 543
3 547 548 549
3 546 548 547
3 548 550 549
3 551 544 543
3 552 544 551
3 482 481 551
3 482 551 547
3 547 551 543
3 483 482 547
3 549 483 547
3 549 485 483
3 549 550 485
3 550 553 485
3 554 555 556
3 552 554 556
3 551 554 552
3 551 486 554
3 551 487 486
3 481 487 551
3 485 553 488
3 553 557 488
3 558 559 560
3 555 558 560
3 554 558 555
3 554 490 558
3 554 491 490
3 486 491 554
3 488 557 561
3 492 488 561
3 561 493 492
3 562 493 561
3 496 559 558
3 496 495 559
3 495 563 559
3 490 496 558
3 493 562 497
3 562 564 497
3 565 566 567
3 565 567 563
3 565 563 499
3 499 563 495
3 568 500 497
3 568 497 569
3 569 497 564
3 500 568 501
3 570 566 565
3 571 566 570
3 499 502 570
3 565 499 570
3 568 569 572
3 572 501 568
3 572 573 501
3 573 503 501
3 506 571 570
3 506 505 571
3 505 574 571
3 502 506 570
3 503 573 507
3 573 575 507
3 576 577 578
3 576 578 574
3 576 574 509
3 509 574 505
3 507 575 510
3 575 579 510
3 513 577 576
3 513 512 577
3 512 580 577
3 509 513 576
3 581 582 583
3 581 579 582
3 581 514 579
3 514 510 579
3 512 515 580
3 580 515 584
3 516 581 583
3 516 583 517
3 517 583 585
3 514 581 516
3 515 518 584
3 584 518 586
3 517 585 519
3 585 587 519
3 588 520 589
3 588 586 520
3 586 518 520
3 588 589 590
3 591 592 593
3 591 523 522
3 591 522 592
3 592 522 594
3 587 522 519
3 594 522 587
3 589 524 595
3 520 524 589
3 596 590 589
3 595 596 589
3 526 597 598
3 527 526 598
3 529 599 526
3 526 599 597
3 593 531 591
3 593 599 531
3 599 529 531
3 523 591 531
3 524 532 595
3 533 600 601
3 532 533 601
3 532 601 596
3 532 596 595
3 600 602 603
3 601 600 603
3 602 604 605
3 603 602 605
3 604 598 605
3 604 535 598
3 535 527 598
3 533 537 600
3 540 600 537
3 602 600 540
3 542 602 540
3 604 602 542
3 535 604 542
3 606 607 608
3 606 609 610
3 608 609 606
3 610 545 544
3 610 609 545
3 609 611 545
3 546 545 612
3 545 611 612
3 548 546 613
3 546 612 613
3 613 550 548
3 614 550 613
3 615 607 606
3 616 607 615
3 610 617 606
3 617 615 606
3 544 552 617
3 610 544 617
3 550 614 553
3 614 618 553
3 619 616 615
3 620 616 619
3 556 555 619
3 556 619 617
3 617 619 615
3 552 556 617
3 553 618 557
3 618 621 557
3 622 623 624
3 620 622 624
3 619 622 620
3 619 559 622
3 619 560 559
3 555 560 619
3 625 561 557
3 625 557 626
3 626 557 621
3 561 625 562
3 627 623 622
3 628 623 627
3 559 563 627
3 622 559 627
3 625 626 629
3 629 562 625
3 629 630 562
3 630 564 562
3 567 628 627
3 567 566 628
3 566 631 628
3 563 567 627
3 564 630 569
3 630 632 569
3 566 571 631
3 631 571 633
3 634 572 569
3 634 569 635
3 635 569 632
3 572 634 573
3 571 574 633
3 633 574 636
3 637 634 635
3 638 637 635
3 573 637 575
3 634 637 573
3 578 639 640
3 577 639 578
3 636 574 578
3 640 636 578
3 641 642 643
3 638 642 641
3 638 641 637
3 637 641 644
3 575 644 579
3 637 644 575
3 577 580 639
3 639 580 645
3 646 641 643
3 647 646 643
3 582 646 583
3 582 644 646
3 644 641 646
3 579 644 582
3 580 584 645
3 645 584 648
3 649 646 647
3 650 649 647
3 583 649 585
3 646 649 583
3 584 586 648
3 648 586 651
3 652 653 654
3 650 653 652
3 650 652 649
3 649 652 655
3 585 655 587
3 649 655 585
3 586 656 651
3 588 656 586
3 590 657 658
3 590 658 588
3 588 658 656
3 658 657 659
3 660 661 662
3 654 661 660
3 652 654 660
3 652 660 593
3 652 593 592
3 594 652 592
3 655 652 594
3 587 655 594
3 657 596 663
3 590 596 657
3 664 659 657
3 664 657 665
3 665 657 663
3 665 666 667
3 664 665 667
3 666 598 597
3 666 597 667
3 667 597 668
3 662 599 660
3 662 668 599
3 668 597 599
3 593 660 599
3 596 601 663
3 603 663 601
3 665 663 603
3 605 665 603
3 666 665 605
3 598 666 605
3 669 670 671
3 669 672 673
3 671 672 669
3 673 674 675
3 672 674 673
3 674 676 675
3 677 678 679
3 670 677 679
3 670 669 677
3 669 680 677
3 673 681 669
3 681 680 669
3 675 682 673
3 682 681 673
3 683 675 676
3 682 675 683
3 608 678 677
3 608 607 678
3 607 684 678
3 609 608 677
3 680 609 677
3 611 609 680
3 681 611 680
3 612 611 681
3 682 612 681
3 682 683 685
3 682 685 612
3 612 685 613
3 685 614 613
3 686 614 685
3 607 616 684
3 684 616 687
3 614 686 618
3 686 688 618
3 689 690 691
3 689 691 687
3 689 687 620
3 620 687 616
3 618 688 621
3 688 692 621
3 624 690 689
3 624 623 690
3 623 693 690
3 620 624 689
3 621 692 626
3 692 694 626
3 623 628 693
3 693 628 695
3 626 694 696
3 629 626 696
3 696 630 629
3 697 630 696
3 628 631 695
3 695 631 698
3 630 697 632
3 697 699 632
3 631 633 698
3 698 633 700
3 632 699 635
3 699 701 635
3 633 636 700
3 700 636 702
3 635 701 638
3 701 703 638
3 640 639 704
3 640 704 705
3 640 705 636
3 636 705 702
3 642 706 707
3 643 642 707
3 703 642 638
3 706 642 703
3 704 645 708
3 639 645 704
3 709 705 704
3 708 709 704
3 643 707 647
3 707 710 647
3 708 648 711
3 645 648 708
3 712 709 708
3 711 712 708
3 713 714 715
3 713 710 714
3 713 650 710
3 650 647 710
3 711 651 716
3 648 651 711
3 717 712 711
3 716 717 711
3 718 719 720
3 718 721 722
3 719 718 722
3 715 722 721
3 713 715 721
3 713 721 654
3 713 654 653
3 650 713 653
3 651 656 716
3 716 723 717
3 716 656 723
3 656 658 723
3 659 724 725
3 659 725 658
3 658 725 723
3 724 726 727
3 725 724 727
3 720 727 726
3 720 726 718
3 718 726 728
3 661 728 662
3 661 721 728
3 721 718 728
3 654 721 661
3 659 664 724
3 667 724 664
3 726 724 667
3 668 726 667
3 728 726 668
3 662 728 668
3 729 730 731
3 729 732 733
3 731 732 729
3 732 734 733
3 735 730 729
3 736 730 735
3 733 737 729
3 737 735 729
3 738 733 734
3 737 733 738
3 735 739 736
3 737 739 735
3 740 739 737
3 738 740 737
3 741 742 743
3 741 744 745
3 743 744 741
3 745 746 747
3 744 746 745
3 746 748 747
3 749 742 741
3 750 742 749
3 671 670 749
3 671 749 745
3 745 749 741
3 672 671 745
3 747 672 745
3 747 748 751
3 747 751 672
3 672 751 674
3 751 676 674
3 752 676 751
3 679 750 749
3 679 678 750
3 678 753 750
3 670 679 749
3 676 752 683
3 752 754 683
3 755 756 757
3 755 757 753
3 755 753 684
3 684 753 678
3 683 754 758
3 685 683 758
3 758 686 685
3 759 686 758
3 760 756 755
3 761 756 760
3 684 687 760
3 755 684 760
3 686 759 688
3 759 762 688
3 691 761 760
3 691 690 761
3 690 763 761
3 687 691 760
3 688 762 692
3 762 764 692
3 690 693 763
3 763 693 765
3 692 764 694
3 764 766 694
3 693 695 765
3 765 695 767
3 768 696 694
3 768 694 769
3 769 694 766
3 696 768 697
3 695 698 767
3 767 698 770
3 771 768 769
3 772 771 769
3 697 771 699
3 768 771 697
3 698 700 770
3 770 700 773
3 774 771 772
3 775 774 772
3 699 774 701
3 771 774 699
3 700 702 773
3 773 702 776
3 777 774 775
3 778 777 775
3 701 777 703
3 774 777 701
3 702 705 776
3 776 705 779
3 780 781 782
3 778 781 780
3 777 778 780
3 777 780 707
3 777 707 706
3 703 777 706
3 705 709 779
3 779 709 783
3 784 785 786
3 784 787 788
3 785 784 788
3 782 788 787
3 782 787 780
3 780 787 789
3 707 789 710
3 780 789 707
3 790 712 791
3 790 783 712
3 783 709 712
3 791 792 793
3 790 791 793
3 792 794 795
3 793 792 795
3 786 795 794
3 786 794 784
3 784 794 796
3 787 784 797
3 797 784 796
3 714 797 715
3 714 789 797
3 789 787 797
3 710 789 714
3 791 717 798
3 712 717 791
3 792 791 799
3 799 791 798
3 794 792 800
3 800 792 799
3 719 800 720
3 719 796 800
3 796 794 800
3 722 796 719
3 797 796 722
3 715 797 722
3 717 723 798
3 725 798 723
3 799 798 725
3 727 799 725
3 800 799 727
3 720 800 727
3 801 802 803
3 801 804 805
3 803 804 801
3 804 806 805
3 807 802 801
3 808 802 807
3 731 730 807
3 731 807 805
3 805 807 801
3 805 806 809
3 805 809 731
3 731 809 732
3 809 734 732
3 810 734 809
3 811 808 807
3 812 808 811
3 730 736 811
3 807 730 811
3 734 810 738
3 810 813 738
3 814 812 811
3 815 812 814
3 736 739 816
3 736 816 811
3 811 816 814
3 739 740 817
3 816 739 817
3 740 818 817
3 740 738 818
3 738 813 818
3 819 815 814
3 820 815 819
3 816 821 814
3 821 819 814
3 817 822 816
3 822 821 816
3 823 817 818
3 823 824 817
3 824 822 817
3 823 825 824
3 826 820 819
3 827 820 826
3 821 828 819
3 828 826 819
3 822 829 821
3 829 828 821
3 824 830 822
3 830 829 822
3 831 824 825
3 830 824 831
3 826 832 827
3 832 833 834
3 832 826 833
3 826 828 833
3 829 835 828
3 835 833 828
3 830 836 829
3 836 835 829
3 837 830 831
3 836 830 837
3 838 834 833
3 839 834 838
3 835 840 833
3 840 838 833
3 836 841 835
3 841 840 835
3 842 836 837
3 841 836 842
3 838 843 839
3 843 844 845
3 843 838 844
3 838 840 844
3 841 846 840
3 846 844 840
3 847 841 842
3 847 848 841
3 848 846 841
3 847 849 848
3 743 845 844
3 743 742 845
3 742 850 845
3 744 743 844
3 846 744 844
3 746 744 846
3 848 746 846
3 848 748 746
3 848 849 748
3 849 851 748
3 852 853 854
3 852 854 850
3 852 850 750
3 750 850 742
3 748 851 855
3 751 748 855
3 855 752 751
3 856 752 855
3 857 853 852
3 858 853 857
3 750 753 857
3 852 750 857
3 752 856 754
3 856 859 754
3 757 858 857
3 757 756 858
3 756 860 858
3 753 757 857
3 861 758 754
3 861 754 862
3 862 754 859
3 758 861 759
3 756 761 860
3 860 761 863
3 861 862 864
3 864 759 861
3 864 865 759
3 865 762 759
3 761 763 863
3 863 763 866
3 762 865 764
3 865 867 764
3 763 765 866
3 866 765 868
3 869 870 871
3 869 867 870
3 869 766 867
3 766 764 867
3 765 767 868
3 868 767 872
3 873 869 871
3 874 873 871
3 766 873 769
3 869 873 766
3 767 770 872
3 872 770 875
3 876 873 874
3 877 876 874
3 769 876 772
3 873 876 769
3 770 773 875
3 875 773 878
3 879 880 881
3 877 880 879
3 877 879 876
3 876 879 882
3 772 882 775
3 876 882 772
3 773 776 878
3 878 776 883
3 884 879 881
3 885 884 881
3 882 879 886
3 886 879 884
3 775 886 778
3 882 886 775
3 776 779 883
3 883 779 887
3 888 884 885
3 889 888 885
3 781 888 782
3 781 886 888
3 886 884 888
3 778 886 781
3 890 783 891
3 890 887 783
3 887 779 783
3 891 892 893
3 890 891 893
3 892 894 895
3 893 892 895
3 894 786 785
3 894 785 895
3 895 785 896
3 889 788 888
3 889 896 788
3 896 785 788
3 782 888 788
3 783 790 891
3 793 891 790
3 892 891 793
3 795 892 793
3 894 892 795
3 786 894 795
3 803 897 898
3 802 897 803
3 804 803 899
3 803 898 899
3 899 806 804
3 900 806 899
3 802 808 897
3 897 808 901
3 806 900 902
3 809 806 902
3 902 810 809
3 903 810 902
3 808 812 901
3 901 812 904
3 810 903 813
3 903 905 813
3 812 815 904
3 904 815 906
3 813 905 818
3 905 907 818
3 815 820 906
3 906 820 908
3 818 907 909
3 823 818 909
3 909 825 823
3 910 825 909
3 820 827 908
3 908 827 911
3 825 910 831
3 910 912 831
3 913 827 832
3 913 914 827
3 914 911 827
3 832 834 913
3 831 912 837
3 912 915 837
3 913 916 914
3 916 913 834
3 916 834 917
3 917 834 839
3 837 915 842
3 915 918 842
3 839 919 917
3 843 919 839
3 919 843 845
3 920 919 845
3 842 918 921
3 847 842 921
3 921 849 847
3 922 849 921
3 845 850 920
3 920 850 923
3 849 922 851
3 922 924 851
3 854 925 926
3 853 925 854
3 923 850 854
3 926 923 854
3 851 924 927
3 855 851 927
3 927 856 855
3 928 856 927
3 853 858 925
3 925 858 929
3 856 928 859
3 928 930 859
3 858 860 929
3 929 860 931
3 859 930 862
3 930 932 862
3 860 863 931
3 931 863 933
3 934 864 862
3 934 862 935
3 935 862 932
3 864 934 865
3 863 866 933
3 933 866 936
3 937 934 935
3 938 937 935
3 865 937 867
3 934 937 865
3 866 868 936
3 936 868 939
3 870 937 938
3 870 938 871
3 871 938 940
3 867 937 870
3 868 872 939
3 939 872 941
3 942 943 944
3 942 940 943
3 942 874 940
3 874 871 940
3 945 875 946
3 945 941 875
3 941 872 875
3 946 947 948
3 945 946 948
3 947 949 950
3 948 947 950
3 949 951 952
3 950 949 952
3 944 952 951
3 944 951 942
3 942 951 953
3 874 953 877
3 942 953 874
3 946 878 954
3 875 878 946
3 947 946 955
3 955 946 954
3 949 947 956
3 956 947 955
3 951 949 957
3 957 949 956
3 880 957 881
3 880 953 957
3 953 951 957
3 877 953 880
3 954 883 958
3 878 883 954
3 955 954 959
3 959 954 958
3 956 955 960
3 960 955 959
3 957 956 961
3 961 956 960
3 881 961 885
3 957 961 881
3 958 887 962
3 883 887 958
3 959 958 963
3 963 958 962
3 960 959 964
3 964 959 963
3 961 960 965
3 965 960 964
3 885 965 889
3 961 965 885
3 887 890 962
3 893 962 890
3 963 962 893
3 895 963 893
3 964 963 895
3 896 964 895
3 965 964 896
3 889 965 896
3 898 897 966
3 898 967 899
3 966 967 898
3 899 967 900
3 966 901 968
3 897 901 966
3 967 966 969
3 969 966 968
3 900 970 902
3 900 967 970
3 967 969 970
3 902 970 903
3 968 971 972
3 968 901 971
3 901 904 971
3 969 968 972
3 973 969 972
3 970 969 973
3 974 970 973
3 974 903 970
3 974 975 903
3 975 905 903
3 904 906 971
3 971 906 976
3 905 975 907
3 975 977 907
3 906 908 976
3 976 908 978
3 907 977 979
3 909 907 979
3 979 910 909
3 980 910 979
3 908 911 978
3 978 911 981
3 910 980 912
3 980 982 912
3 911 914 981
3 981 914 983
3 912 982 915
3 982 984 915
3 914 985 983
3 916 985 914
3 985 916 917
3 986 985 917
3 915 984 918
3 984 987 918
3 917 988 986
3 919 988 917
3 920 989 990
3 920 990 919
3 919 990 988
3 989 991 992
3 990 989 992
3 921 991 993
3 921 987 991
3 921 918 987
3 992 991 987
3 921 993 922
3 989 923 994
3 920 923 989
3 991 989 995
3 995 989 994
3 993 991 996
3 996 991 995
3 922 996 924
3 993 996 922
3 926 997 998
3 925 997 926
3 994 923 926
3 994 926 999
3 999 926 998
3 995 994 999
3 1000 995 999
3 1000 1001 1002
3 1000 1002 995
3 995 1002 996
3 924 1003 927
3 924 996 1003
3 996 1002 1003
3 927 1003 928
3 925 929 997
3 997 929 1004
3 1005 1002 1001
3 1006 1005 1001
3 1003 1002 1007
3 1007 1002 1005
3 928 1007 930
3 1003 1007 928
3 929 931 1004
3 1004 931 1008
3 1009 1005 1006
3 1010 1009 1006
3 1007 1005 1011
3 1011 1005 1009
3 930 1011 932
3 1007 1011 930
3 931 933 1008
3 1008 933 1012
3 1013 1009 1010
3 1014 1013 1010
3 1011 1009 1015
3 1015 1009 1013
3 932 1015 935
3 1011 1015 932
3 933 936 1012
3 1012 936 1016
3 1017 1013 1014
3 1018 1017 1014
3 1015 1013 1019
3 1019 1013 1017
3 935 1019 938
3 1015 1019 935
3 1020 939 1021
3 1020 1016 939
3 1016 936 939
3 1021 1022 1023
3 1020 1021 1023
3 1022 1024 1025
3 1023 1022 1025
3 1018 1025 1024
3 1018 1024 1017
3 1017 1024 1026
3 1019 1017 1027
3 1027 1017 1026
3 938 1027 940
3 1019 1027 938
3 1021 941 1028
3 939 941 1021
3 1022 1021 1029
3 1029 1021 1028
3 1024 1022 1030
3 1030 1022 1029
3 1026 1024 1031
3 1031 1024 1030
3 943 1031 944
3 943 1027 1031
3 1027 1026 1031
3 940 1027 943
3 941 945 1028
3 948 1028 945
3 1029 1028 948
3 950 1029 948
3 1030 1029 950
3 952 1030 950
3 1031 1030 952
3 944 1031 952
3 972 971 1032
3 972 1033 973
3 1032 1033 972
3 973 1034 974
3 1033 1034 973
3 974 1034 975
3 1032 976 1035
3 971 976 1032
3 1033 1032 1036
3 1036 1032 1035
3 1034 1033 1037
3 1037 1033 1036
3 975 1037 977
3 1034 1037 975
3 1035 978 1038
3 976 978 1035
3 1036 1035 1039
3 1039 1035 1038
3 1037 1036 1040
3 1040 1036 1039
3 977 1041 979
3 977 1037 1041
3 1037 1040 1041
3 979 1041 980
3 1038 981 1042
3 978 981 1038
3 1039 1038 1043
3 1043 1038 1042
3 1040 1039 1044
3 1044 1039 1043
3 1041 1040 1045
3 1045 1040 1044
3 980 1045 982
3 1041 1045 980
3 1042 983 1046
3 981 983 1042
3 1043 1042 1047
3 1047 1042 1046
3 1044 1043 1048
3 1048 1043 1047
3 1045 1044 1049
3 1049 1044 1048
3 982 1049 984
3 1045 1049 982
3 983 985 1046
3 986 1046 985
3 986 1050 1046
3 1050 1047 1046
3 1048 1047 1051
3 1051 1047 1050
3 1049 1048 1052
3 1052 1048 1051
3 984 1052 987
3 1049 1052 984
3 986 988 1050
3 990 1050 988
3 1051 1050 990
3 992 1051 990
3 1052 1051 992
3 987 1052 992
3 998 997 1053
3 998 1054 999
3 1053 1054 998
3 999 1055 1000
3 1054 1055 999
3 1000 1055 1001
3 1053 1004 1056
3 997 1004 1053
3 1054 1053 1057
3 1057 1053 1056
3 1055 1054 1058
3 1058 1054 1057
3 1001 1058 1006
3 1055 1058 1001
3 1056 1008 1059
3 1004 1008 1056
3 1057 1056 1060
3 1060 1056 1059
3 1058 1057 1061
3 1061 1057 1060
3 1006 1061 1010
3 1058 1061 1006
3 1059 1012 1062
3 1008 1012 1059
3 1060 1059 1063
3 1063 1059 1062
3 1061 1060 1064
3 1064 1060 1063
3 1010 1064 1014
3 1061 1064 1010
3 1062 1016 1065
3 1012 1016 1062
3 1063 1062 1066
3 1066 1062 1065
3 1064 1063 1067
3 1067 1063 1066
3 1014 1067 1018
3 1064 1067 1014
3 1016 1020 1065
3 1023 1065 1020
3 1066 1065 1023
3 1025 1066 1023
3 1067 1066 1025
3 1018 1067 1025
