# vtk DataFile Version 3.0
this file was written using fslvtkio
ASCII
DATASET POLYDATA
POINTS 642 float
116.336 138.24 132.41
103.075 141.334 133.322
103.348 134.664 132.073
114.93 132.689 133.176
115.173 131.974 137.965
112.52 138.755 125.465
103.832 140.676 125.415
107.209 133.819 138.391
110.777 139.145 136.571
108.962 127.989 135.665
107.991 134.996 130.695
109.202 142.826 129.041
108.988 136.693 138.208
113.844 135.929 138.561
111.26 132.307 139.157
107.651 129.476 138.174
112.846 127.784 137.644
105.872 143.939 125.998
108.376 140.159 124.306
111.472 142.967 125.963
105.876 137.665 126.811
110.04 137.464 127.974
117.038 130.142 134.978
117.682 135.407 135.926
118.01 134.991 131.641
114.096 136.334 129.71
115.071 139.323 128.342
104.664 138.165 136.414
104.912 133.758 135.608
101.763 138.552 132.782
101.628 142.291 128.769
102.817 137.925 128.542
113.319 141.477 130.65
114.36 138.749 135.223
109.799 141.237 132.855
105.331 142.725 130.403
106.769 140.588 135.486
111.415 133.825 132.564
108.09 130.51 132.578
113.102 128.331 133.673
104.72 133.766 130.253
104.565 129.694 134.373
111.367 136.049 138.665
112.681 134.228 139.566
110.312 134.641 139.566
113.431 131.876 139.041
114.731 134.091 138.62
112.317 137.52 137.643
109.793 137.874 137.275
107.982 135.322 138.686
109.202 133.126 139.139
109.635 130.945 138.661
112.099 129.872 138.825
109.912 128.313 138.586
114.359 129.659 138.001
107.638 131.828 138.19
107.777 128.126 137.127
110.769 127.442 136.84
107.222 142.19 125.273
109.727 141.915 125.077
108.831 143.92 125.707
112.211 141.033 125.21
110.618 139.484 124.6
106.091 140.527 124.841
104.701 142.276 125.604
107.717 143.481 127.409
110.488 143.292 127.482
107.962 137.647 127.161
109.245 138.277 125.246
106.861 138.72 125.193
111.379 137.786 126.293
108.867 136.588 129.881
106.878 136.55 128.992
104.727 138.702 125.491
117.98 132.857 135.495
118.772 135.074 133.741
117.805 132.525 133.559
118.073 137.007 131.866
117.757 137.208 134.311
116.625 133.636 137.279
116.408 130.922 136.763
116.275 130.989 133.377
116.395 133.746 132.477
116.175 135.577 130.479
117.063 137.21 129.709
115.403 137.251 128.057
115.771 138.775 130.485
114.53 134.774 131.941
113.352 137.369 127.373
113.905 139.251 126.541
104.376 135.968 136.056
103.225 136.234 134.286
102.899 138.445 134.917
102.469 136.412 132.373
104.123 134.184 133.887
106.113 133.774 137.014
105.911 135.732 137.498
103.36 140.073 135.391
101.775 140.381 133.281
101.085 140.555 130.897
102.001 138.375 130.62
101.584 140.182 128.609
102.94 136.3 130.421
101.957 142.051 131.27
102.642 141.649 126.884
102.722 139.309 126.672
113.685 139.971 132.872
112.223 140.371 134.126
111.705 141.36 131.959
110.381 140.46 134.986
112.616 139.049 136.066
115.611 138.667 133.932
114.493 139.462 131.513
111.47 142.524 129.79
109.391 142.163 130.934
107.47 142.057 131.726
108.147 141.212 134.094
105.96 141.756 132.982
108.849 139.985 136.161
107.192 143.03 129.524
104.076 142.156 131.752
104.768 140.949 134.584
110.114 131.813 132.6
110.539 129.473 133.351
112.335 130.872 133.234
111.076 127.899 134.99
108.448 128.979 133.945
108.035 132.686 131.667
109.631 134.427 131.678
113.206 133.294 133.086
114.356 130.409 133.327
104.291 131.204 132.011
106.099 129.834 133.056
106.131 131.854 131.422
106.67 128.429 135.223
103.73 132.176 133.475
103.318 133.94 130.817
106.403 134.389 130.426
116.018 135.804 137.501
114.405 137.591 137.103
116.39 137.447 135.902
113.824 140.353 129.453
112.534 142.455 128.249
113.283 141.391 126.867
113.235 127.445 135.789
115.729 128.293 136.576
115.645 128.54 134.239
112.68 135.362 131.47
111.947 136.837 129.101
110.626 136.003 130.855
107.742 138.763 136.936
106.779 137.47 137.599
105.442 139.616 136.472
103.355 142.978 129.432
103.557 143.164 127.049
105.337 143.554 128.076
104.52 131.566 135.457
106.128 131.553 137.187
106.184 129.279 136.833
105.347 135.881 128.753
104.013 137.412 126.994
103.725 135.587 129.055
112.07 135.229 139.384
111.466 134.396 139.597
110.861 135.492 139.503
110.865 133.454 139.638
111.913 133.369 139.458
113.245 135.149 139.164
112.56 135.861 138.66
110.198 136.258 138.527
109.694 135.692 139.134
113.03 133.154 139.305
113.793 134.214 139.155
114.054 133.09 138.879
114.469 135.101 138.753
112.346 132.069 139.279
114.319 131.908 138.454
114.965 133.048 138.264
111.874 136.702 138.08
110.576 136.859 137.95
111.085 137.568 137.614
109.459 137.237 137.756
113.002 136.647 138.059
111.488 138.29 137.088
110.354 138.559 136.996
109.139 135.024 139.172
109.74 133.797 139.581
108.629 134.254 139.193
110.244 132.689 139.316
108.56 136.006 138.51
107.46 134.61 138.751
108.13 133.542 138.879
110.846 130.496 138.827
111.093 129.166 138.712
109.825 129.599 138.768
111.302 128.014 138.134
112.347 128.721 138.253
111.651 131.073 139.091
110.531 131.532 139.006
108.717 130.234 138.386
108.663 128.867 138.608
113.161 129.638 138.483
112.777 130.784 139.08
113.817 130.684 138.605
113.641 128.543 137.881
114.744 130.847 137.985
109.555 132.097 138.99
108.573 131.427 138.599
108.511 132.542 138.583
107.75 130.767 138.093
107.54 132.91 138.221
108.789 127.977 138.065
110.294 127.525 137.84
109.205 127.526 137.096
111.692 127.356 137.361
107.569 128.594 137.943
108.402 127.895 136.387
109.809 127.608 136.247
108.521 141.978 125.27
109.169 142.916 125.344
107.898 143.193 125.224
110.132 143.484 125.823
110.538 142.573 125.366
109.093 141.209 124.608
107.889 141.363 124.868
106.523 143.413 125.267
107.389 144.186 125.638
111.032 141.622 125.022
110.254 140.776 124.598
111.451 140.362 124.778
109.549 139.868 124.323
111.831 142.119 125.448
112.291 139.876 125.262
111.595 139.168 124.92
106.701 141.404 125.015
105.984 142.279 125.252
105.472 141.466 125.265
105.127 143.188 125.609
107.258 140.465 124.604
104.894 140.623 124.971
104.239 141.469 125.499
108.281 144.023 126.471
109.724 143.91 126.515
109.153 143.462 127.372
110.947 143.507 126.68
106.813 143.902 126.603
108.522 143.116 128.251
109.812 142.969 128.306
108.619 137.853 126.102
108.084 138.427 125.083
107.355 138.027 126.022
107.591 139.374 124.553
108.792 139.059 124.559
109.641 137.791 126.437
109.03 137.52 127.375
106.896 137.751 126.888
106.281 138.194 125.976
109.894 138.796 124.749
110.281 138.048 125.75
110.98 138.455 125.132
110.675 137.591 126.996
111.983 138.121 125.671
108.372 137.27 128.447
107.348 137.244 128.034
107.909 136.639 129.268
106.361 137.138 127.835
109.376 137.122 128.938
108.413 135.739 130.336
107.512 135.757 129.925
105.75 138.756 125.26
106.449 139.549 124.695
105.292 139.655 124.982
105.331 138.083 126.011
104.152 139.711 125.271
118.32 133.896 134.593
118.484 133.746 133.478
118.286 132.545 134.451
118.125 133.851 132.52
118.708 134.839 132.544
118.287 135.097 134.897
117.951 134.117 135.659
117.633 131.491 135.212
117.735 131.297 134.16
118.778 136.061 132.814
118.436 136.171 134.088
117.92 137.057 133.108
117.826 136.328 135.095
118.466 135.931 131.554
117.215 137.624 132.19
117.151 137.755 133.293
117.495 133.216 136.435
117.26 131.842 136.169
116.781 132.305 137.086
116.862 130.38 135.873
117.296 134.433 136.569
115.961 132.786 137.805
115.823 131.496 137.398
117.157 131.513 133.368
117.23 133.101 132.909
116.488 132.405 133.028
117.316 134.26 132.054
116.79 130.446 134.201
115.646 131.812 133.071
115.728 133.249 132.91
116.904 136.084 129.768
116.319 137.175 128.774
115.886 136.353 129.127
115.531 138.346 127.953
116.272 138.335 128.861
117.748 135.945 130.641
117.121 135.156 131.133
115.167 136.025 130.001
114.856 136.7 128.721
116.582 138.226 130.001
117.688 137.056 130.721
116.961 137.913 131.208
115.557 139.049 129.413
116.047 138.387 131.51
116.38 134.698 131.52
115.326 135.136 131.171
115.463 134.304 132.237
114.321 135.6 130.831
114.735 133.83 132.808
114.42 137.285 127.655
114.73 138.251 127.214
113.919 138.049 126.656
114.576 139.425 127.327
113.781 136.871 128.462
112.946 138.033 126.324
113.266 139.059 125.838
103.852 136.109 135.158
102.968 137.338 134.59
103.629 137.246 135.528
102.237 138.427 133.914
102.366 137.445 133.624
104.283 135.051 134.83
104.678 134.904 135.741
104.421 137.143 136.236
103.682 138.304 135.786
102.746 136.38 133.335
103.716 135.207 134.057
103.184 135.435 133.213
104.424 133.99 134.847
102.088 137.537 132.522
103.002 135.583 132.218
103.615 134.482 133.045
105.265 134.93 136.468
105.01 135.938 136.836
105.909 134.875 137.261
105.301 136.959 136.897
105.491 133.77 136.316
106.698 133.882 137.704
106.579 134.758 138.005
103.017 139.271 135.248
102.204 139.366 134.213
102.522 140.187 134.417
101.695 139.583 133.025
103.857 139.131 136.111
103.115 140.889 134.413
102.353 140.985 133.411
101.378 139.435 130.791
101.873 139.221 129.652
101.224 140.335 129.719
102.231 138.971 128.583
102.319 138.137 129.443
101.642 138.607 131.776
101.299 139.568 131.913
101.118 141.495 129.85
101.568 141.274 128.756
102.3 137.286 130.435
102.037 137.39 131.522
102.567 136.35 131.357
102.787 137.206 129.444
103.097 135.522 131.222
101.261 140.483 132.128
101.205 141.509 131.117
101.707 141.284 132.402
101.421 142.383 130.034
102.517 141.65 132.385
101.825 140.99 127.607
102.129 139.778 127.592
102.388 140.561 126.703
102.702 138.653 127.659
102.058 141.992 127.805
103.14 141.175 126.006
103.152 140.052 125.86
113.017 140.249 133.538
111.945 140.897 133.023
112.795 140.828 132.437
110.781 141.33 132.457
111.055 140.879 133.493
113.213 139.59 134.647
113.942 139.425 134.086
113.432 140.708 131.854
112.66 141.536 131.393
111.354 140.517 134.594
112.41 139.73 135.173
111.537 139.874 135.576
113.489 138.886 135.627
110.079 140.81 133.872
110.61 139.905 135.936
111.658 139.029 136.359
114.571 139.244 133.458
114.163 139.814 132.222
115.006 138.989 132.687
113.849 140.431 131.157
114.974 138.714 134.549
115.917 138.347 133.149
115.343 138.743 131.946
111.648 142.045 130.958
110.625 141.747 131.438
110.511 142.23 130.454
109.581 141.69 131.893
112.541 142.229 130.216
110.238 142.659 129.368
109.24 142.552 129.926
107.817 141.55 132.798
107.086 141.536 133.582
106.679 141.89 132.29
106.391 141.208 134.241
107.412 140.944 134.72
108.944 141.219 133.366
108.618 141.664 132.306
106.377 142.396 131.127
105.686 142.165 131.652
108.417 140.649 135.133
109.187 140.748 134.398
109.588 140.273 135.527
107.797 140.371 135.902
109.847 139.525 136.393
108.412 142.131 131.31
107.33 142.626 130.67
108.277 142.643 130.273
106.273 142.894 129.969
108.171 142.995 129.231
105.006 142.01 132.36
105.39 141.406 133.806
104.455 141.594 133.166
105.79 140.824 135.003
104.706 142.324 130.999
103.499 141.819 132.602
103.887 141.16 133.959
110.279 130.571 132.822
111.545 130.014 133.216
111.232 131.325 132.944
112.705 129.518 133.436
111.795 128.868 133.579
109.294 130.065 132.913
109.173 131.035 132.482
110.896 132.738 132.697
111.888 132.343 132.942
110.877 128.496 133.868
109.516 129.354 133.693
109.794 128.477 134.582
108.17 129.775 133.15
112.044 127.922 134.159
110.067 127.909 135.507
108.677 128.424 134.879
109.034 132.232 132.154
109.906 133.175 132.33
108.967 133.482 131.822
110.558 134.032 132.209
108.103 131.522 132.082
108.055 133.918 131.305
108.769 134.641 131.088
112.839 132.089 133.217
113.279 130.516 133.358
113.793 131.705 133.276
113.815 129.235 133.352
112.325 133.528 132.857
114.061 132.985 133.241
114.722 131.559 133.212
105.152 130.516 132.615
106.145 130.953 132.294
105.232 131.492 131.511
107.081 131.116 132.076
106.987 130.229 132.712
105.194 129.641 133.548
104.24 130.421 133.125
104.514 132.4 131.074
105.345 132.731 130.937
107.173 129.329 133.318
106.292 128.973 133.973
107.407 128.616 134.473
105.636 128.972 134.836
107.788 128.179 135.55
103.687 131.621 132.723
103.702 132.528 131.39
103.319 133.081 132.109
103.877 133.639 130.495
104.002 130.844 133.922
103.537 133.415 132.765
103.314 134.371 131.428
106.21 133.069 130.931
107.1 132.206 131.612
107.188 133.485 131.092
105.595 134.057 130.301
107.233 134.747 130.545
115.303 136.845 137.451
115.448 137.53 136.585
116.282 136.668 136.713
115.376 138.068 135.596
114.583 138.196 136.238
114.166 136.795 137.89
114.968 135.897 138.081
116.874 135.624 136.718
117.164 136.511 135.977
113.578 138.327 136.662
113.407 137.539 137.509
112.504 138.324 136.874
115.521 134.996 138.259
116.447 134.802 137.45
115.624 133.953 137.882
117.184 137.378 135.205
116.119 138.118 135.02
116.752 138.03 134.228
113.331 141.576 128.852
112.925 142.051 127.528
113.637 140.96 128.254
112.535 142.39 126.183
112.11 142.937 127.012
112.979 141.986 129.484
113.654 141.025 129.993
114.457 140.03 128.928
114.103 140.338 127.684
111.634 143.018 127.764
112.17 142.591 129.034
110.958 142.809 128.621
114.188 139.968 130.517
114.685 139.531 130
114.987 139.062 131.008
113.679 140.368 126.622
112.901 141.405 125.737
113.08 140.155 125.744
114.701 127.502 136.193
115.969 128.031 135.363
114.764 127.6 134.892
116.419 129.165 134.633
116.585 128.997 135.711
114.338 128.024 137.15
113.127 127.526 136.761
113.317 127.761 134.616
114.439 128.392 133.88
116.171 129.362 136.728
115.026 128.902 137.475
115.346 130.31 137.377
112.03 127.344 136.474
112.095 127.644 135.356
110.942 127.603 136.019
114.975 129.382 133.637
115.938 129.784 133.934
115.238 130.707 133.388
112.298 136.148 130.36
111.235 136.559 130.098
111.633 135.562 131.106
110.265 136.886 129.596
110.963 137.118 128.567
113.005 136.57 129.417
113.304 135.906 130.636
111.984 134.789 132.176
111.049 134.94 131.781
111.594 137.252 127.65
112.692 137.002 128.083
112.339 137.578 126.912
113.629 135.107 131.673
112.911 134.481 132.432
113.874 134.118 132.564
110.209 135.173 131.303
109.699 136.323 130.454
109.258 135.491 130.89
107.186 138.159 137.416
106.03 138.635 137.122
106.615 139.119 136.606
104.958 138.974 136.638
105.672 137.832 137.045
107.952 137.103 137.881
108.418 137.706 137.603
107.209 139.653 136.31
106.139 140.027 136.02
106.305 136.674 137.568
107.462 136.333 138.001
106.888 135.522 138.173
108.835 138.326 137.198
108.244 139.359 136.458
109.254 138.945 136.779
105.081 140.413 135.682
104.324 139.874 136.19
104.106 140.579 135.074
103.399 143.059 128.195
104.365 143.485 127.419
104.308 143.249 128.694
105.571 143.671 126.965
104.63 143.546 126.441
102.539 142.654 127.8
102.333 142.875 129.063
104.335 142.879 129.846
105.303 143.138 129.244
103.954 142.937 126.102
102.95 142.423 126.867
103.605 141.982 126.08
102.463 142.591 130.299
103.701 142.483 130.586
102.998 142.061 131.557
106.291 143.283 128.792
106.471 143.595 127.584
107.418 143.304 128.407
105.242 131.566 136.469
106.053 130.326 137.199
105.335 130.424 136.142
106.767 129.239 137.65
106.814 130.543 137.855
105.405 132.623 136.46
104.628 132.649 135.701
104.502 130.611 135.004
105.467 129.405 135.775
106.833 131.656 137.725
106.104 132.635 137.061
106.858 132.731 137.695
104.274 132.946 134.705
103.975 131.849 134.389
103.993 133.222 133.641
106.324 128.975 136.101
106.986 128.714 137.08
107.359 128.318 136.199
104.65 136.576 127.799
103.87 136.576 128.095
104.49 135.663 128.869
103.177 136.905 128.727
103.281 137.662 127.637
104.921 137.447 126.825
105.598 136.885 127.751
105.012 134.774 129.465
104.13 134.601 129.459
103.288 138.268 126.673
104.313 138.017 126.114
103.637 138.969 125.885
106.15 136.299 128.797
105.921 135.15 129.504
106.701 135.439 129.738
103.499 134.844 129.882
103.331 136.123 129.626
103.121 135.262 130.478
POLYGONS 1280  5120
3 164 162 163
3 163 44 164
3 162 43 163
3 164 42 162
3 166 165 163
3 163 43 166
3 165 44 163
3 166 14 165
3 168 167 162
3 162 42 168
3 167 43 162
3 168 13 167
3 170 169 164
3 164 44 170
3 169 42 164
3 170 12 169
3 173 171 172
3 172 46 173
3 171 43 172
3 173 45 171
3 167 174 172
3 172 43 167
3 174 46 172
3 167 13 174
3 175 166 171
3 171 45 175
3 166 43 171
3 175 14 166
3 177 176 173
3 173 46 177
3 176 45 173
3 177 4 176
3 180 178 179
3 179 48 180
3 178 42 179
3 180 47 178
3 169 181 179
3 179 42 169
3 181 48 179
3 169 12 181
3 182 168 178
3 178 47 182
3 168 42 178
3 182 13 168
3 184 183 180
3 180 48 184
3 183 47 180
3 184 8 183
3 187 185 186
3 186 50 187
3 185 44 186
3 187 49 185
3 165 188 186
3 186 44 165
3 188 50 186
3 165 14 188
3 189 170 185
3 185 49 189
3 170 44 185
3 189 12 170
3 191 190 187
3 187 50 191
3 190 49 187
3 191 7 190
3 194 192 193
3 193 53 194
3 192 52 193
3 194 51 192
3 196 195 193
3 193 52 196
3 195 53 193
3 196 16 195
3 198 197 192
3 192 51 198
3 197 52 192
3 198 14 197
3 200 199 194
3 194 53 200
3 199 51 194
3 200 15 199
3 203 201 202
3 202 45 203
3 201 52 202
3 203 54 201
3 197 175 202
3 202 52 197
3 175 45 202
3 197 14 175
3 204 196 201
3 201 54 204
3 196 52 201
3 204 16 196
3 176 205 203
3 203 45 176
3 205 54 203
3 176 4 205
3 208 206 207
3 207 55 208
3 206 51 207
3 208 50 206
3 199 209 207
3 207 51 199
3 209 55 207
3 199 15 209
3 188 198 206
3 206 50 188
3 198 51 206
3 188 14 198
3 210 191 208
3 208 55 210
3 191 50 208
3 210 7 191
3 213 211 212
3 212 57 213
3 211 53 212
3 213 56 211
3 195 214 212
3 212 53 195
3 214 57 212
3 195 16 214
3 215 200 211
3 211 56 215
3 200 53 211
3 215 15 200
3 217 216 213
3 213 57 217
3 216 56 213
3 217 9 216
3 220 218 219
3 219 60 220
3 218 59 219
3 220 58 218
3 222 221 219
3 219 59 222
3 221 60 219
3 222 19 221
3 224 223 218
3 218 58 224
3 223 59 218
3 224 18 223
3 226 225 220
3 220 60 226
3 225 58 220
3 226 17 225
3 229 227 228
3 228 62 229
3 227 59 228
3 229 61 227
3 223 230 228
3 228 59 223
3 230 62 228
3 223 18 230
3 231 222 227
3 227 61 231
3 222 59 227
3 231 19 222
3 233 232 229
3 229 62 233
3 232 61 229
3 233 5 232
3 236 234 235
3 235 64 236
3 234 58 235
3 236 63 234
3 225 237 235
3 235 58 225
3 237 64 235
3 225 17 237
3 238 224 234
3 234 63 238
3 224 58 234
3 238 18 224
3 240 239 236
3 236 64 240
3 239 63 236
3 240 6 239
3 243 241 242
3 242 66 243
3 241 60 242
3 243 65 241
3 221 244 242
3 242 60 221
3 244 66 242
3 221 19 244
3 245 226 241
3 241 65 245
3 226 60 241
3 245 17 226
3 247 246 243
3 243 66 247
3 246 65 243
3 247 11 246
3 250 248 249
3 249 69 250
3 248 68 249
3 250 67 248
3 252 251 249
3 249 68 252
3 251 69 249
3 252 18 251
3 254 253 248
3 248 67 254
3 253 68 248
3 254 21 253
3 256 255 250
3 250 69 256
3 255 67 250
3 256 20 255
3 259 257 258
3 258 70 259
3 257 68 258
3 259 62 257
3 253 260 258
3 258 68 253
3 260 70 258
3 253 21 260
3 230 252 257
3 257 62 230
3 252 68 257
3 230 18 252
3 261 233 259
3 259 70 261
3 233 62 259
3 261 5 233
3 264 262 263
3 263 72 264
3 262 67 263
3 264 71 262
3 255 265 263
3 263 67 255
3 265 72 263
3 255 20 265
3 266 254 262
3 262 71 266
3 254 67 262
3 266 21 254
3 268 267 264
3 264 72 268
3 267 71 264
3 268 10 267
3 271 269 270
3 270 63 271
3 269 69 270
3 271 73 269
3 251 238 270
3 270 69 251
3 238 63 270
3 251 18 238
3 272 256 269
3 269 73 272
3 256 69 269
3 272 20 256
3 239 273 271
3 271 63 239
3 273 73 271
3 239 6 273
3 276 274 275
3 275 76 276
3 274 75 275
3 276 74 274
3 278 277 275
3 275 75 278
3 277 76 275
3 278 24 277
3 280 279 274
3 274 74 280
3 279 75 274
3 280 23 279
3 282 281 276
3 276 76 282
3 281 74 276
3 282 22 281
3 285 283 284
3 284 78 285
3 283 75 284
3 285 77 283
3 279 286 284
3 284 75 279
3 286 78 284
3 279 23 286
3 287 278 283
3 283 77 287
3 278 75 283
3 287 24 278
3 289 288 285
3 285 78 289
3 288 77 285
3 289 0 288
3 292 290 291
3 291 80 292
3 290 74 291
3 292 79 290
3 281 293 291
3 291 74 281
3 293 80 291
3 281 22 293
3 294 280 290
3 290 79 294
3 280 74 290
3 294 23 280
3 296 295 292
3 292 80 296
3 295 79 292
3 296 4 295
3 299 297 298
3 298 82 299
3 297 76 298
3 299 81 297
3 277 300 298
3 298 76 277
3 300 82 298
3 277 24 300
3 301 282 297
3 297 81 301
3 282 76 297
3 301 22 282
3 303 302 299
3 299 82 303
3 302 81 299
3 303 3 302
3 306 304 305
3 305 85 306
3 304 84 305
3 306 83 304
3 308 307 305
3 305 84 308
3 307 85 305
3 308 26 307
3 310 309 304
3 304 83 310
3 309 84 304
3 310 24 309
3 312 311 306
3 306 85 312
3 311 83 306
3 312 25 311
3 315 313 314
3 314 77 315
3 313 84 314
3 315 86 313
3 309 287 314
3 314 84 309
3 287 77 314
3 309 24 287
3 316 308 313
3 313 86 316
3 308 84 313
3 316 26 308
3 288 317 315
3 315 77 288
3 317 86 315
3 288 0 317
3 320 318 319
3 319 87 320
3 318 83 319
3 320 82 318
3 311 321 319
3 319 83 311
3 321 87 319
3 311 25 321
3 300 310 318
3 318 82 300
3 310 83 318
3 300 24 310
3 322 303 320
3 320 87 322
3 303 82 320
3 322 3 303
3 325 323 324
3 324 89 325
3 323 85 324
3 325 88 323
3 307 326 324
3 324 85 307
3 326 89 324
3 307 26 326
3 327 312 323
3 323 88 327
3 312 85 323
3 327 25 312
3 329 328 325
3 325 89 329
3 328 88 325
3 329 5 328
3 332 330 331
3 331 92 332
3 330 91 331
3 332 90 330
3 334 333 331
3 331 91 334
3 333 92 331
3 334 29 333
3 336 335 330
3 330 90 336
3 335 91 330
3 336 28 335
3 338 337 332
3 332 92 338
3 337 90 332
3 338 27 337
3 341 339 340
3 340 94 341
3 339 91 340
3 341 93 339
3 335 342 340
3 340 91 335
3 342 94 340
3 335 28 342
3 343 334 339
3 339 93 343
3 334 91 339
3 343 29 334
3 345 344 341
3 341 94 345
3 344 93 341
3 345 2 344
3 348 346 347
3 347 96 348
3 346 90 347
3 348 95 346
3 337 349 347
3 347 90 337
3 349 96 347
3 337 27 349
3 350 336 346
3 346 95 350
3 336 90 346
3 350 28 336
3 352 351 348
3 348 96 352
3 351 95 348
3 352 7 351
3 355 353 354
3 354 98 355
3 353 92 354
3 355 97 353
3 333 356 354
3 354 92 333
3 356 98 354
3 333 29 356
3 357 338 353
3 353 97 357
3 338 92 353
3 357 27 338
3 359 358 355
3 355 98 359
3 358 97 355
3 359 1 358
3 362 360 361
3 361 101 362
3 360 100 361
3 362 99 360
3 364 363 361
3 361 100 364
3 363 101 361
3 364 31 363
3 366 365 360
3 360 99 366
3 365 100 360
3 366 29 365
3 368 367 362
3 362 101 368
3 367 99 362
3 368 30 367
3 371 369 370
3 370 93 371
3 369 100 370
3 371 102 369
3 365 343 370
3 370 100 365
3 343 93 370
3 365 29 343
3 372 364 369
3 369 102 372
3 364 100 369
3 372 31 364
3 344 373 371
3 371 93 344
3 373 102 371
3 344 2 373
3 376 374 375
3 375 103 376
3 374 99 375
3 376 98 374
3 367 377 375
3 375 99 367
3 377 103 375
3 367 30 377
3 356 366 374
3 374 98 356
3 366 99 374
3 356 29 366
3 378 359 376
3 376 103 378
3 359 98 376
3 378 1 359
3 381 379 380
3 380 105 381
3 379 101 380
3 381 104 379
3 363 382 380
3 380 101 363
3 382 105 380
3 363 31 382
3 383 368 379
3 379 104 383
3 368 101 379
3 383 30 368
3 385 384 381
3 381 105 385
3 384 104 381
3 385 6 384
3 388 386 387
3 387 108 388
3 386 107 387
3 388 106 386
3 390 389 387
3 387 107 390
3 389 108 387
3 390 34 389
3 392 391 386
3 386 106 392
3 391 107 386
3 392 33 391
3 394 393 388
3 388 108 394
3 393 106 388
3 394 32 393
3 397 395 396
3 396 110 397
3 395 107 396
3 397 109 395
3 391 398 396
3 396 107 391
3 398 110 396
3 391 33 398
3 399 390 395
3 395 109 399
3 390 107 395
3 399 34 390
3 401 400 397
3 397 110 401
3 400 109 397
3 401 8 400
3 404 402 403
3 403 112 404
3 402 106 403
3 404 111 402
3 393 405 403
3 403 106 393
3 405 112 403
3 393 32 405
3 406 392 402
3 402 111 406
3 392 106 402
3 406 33 392
3 408 407 404
3 404 112 408
3 407 111 404
3 408 0 407
3 411 409 410
3 410 114 411
3 409 108 410
3 411 113 409
3 389 412 410
3 410 108 389
3 412 114 410
3 389 34 412
3 413 394 409
3 409 113 413
3 394 108 409
3 413 32 394
3 415 414 411
3 411 114 415
3 414 113 411
3 415 11 414
3 418 416 417
3 417 117 418
3 416 116 417
3 418 115 416
3 420 419 417
3 417 116 420
3 419 117 417
3 420 36 419
3 422 421 416
3 416 115 422
3 421 116 416
3 422 34 421
3 424 423 418
3 418 117 424
3 423 115 418
3 424 35 423
3 427 425 426
3 426 109 427
3 425 116 426
3 427 118 425
3 421 399 426
3 426 116 421
3 399 109 426
3 421 34 399
3 428 420 425
3 425 118 428
3 420 116 425
3 428 36 420
3 400 429 427
3 427 109 400
3 429 118 427
3 400 8 429
3 432 430 431
3 431 119 432
3 430 115 431
3 432 114 430
3 423 433 431
3 431 115 423
3 433 119 431
3 423 35 433
3 412 422 430
3 430 114 412
3 422 115 430
3 412 34 422
3 434 415 432
3 432 119 434
3 415 114 432
3 434 11 415
3 437 435 436
3 436 121 437
3 435 117 436
3 437 120 435
3 419 438 436
3 436 117 419
3 438 121 436
3 419 36 438
3 439 424 435
3 435 120 439
3 424 117 435
3 439 35 424
3 441 440 437
3 437 121 441
3 440 120 437
3 441 1 440
3 444 442 443
3 443 124 444
3 442 123 443
3 444 122 442
3 446 445 443
3 443 123 446
3 445 124 443
3 446 39 445
3 448 447 442
3 442 122 448
3 447 123 442
3 448 38 447
3 450 449 444
3 444 124 450
3 449 122 444
3 450 37 449
3 453 451 452
3 452 126 453
3 451 123 452
3 453 125 451
3 447 454 452
3 452 123 447
3 454 126 452
3 447 38 454
3 455 446 451
3 451 125 455
3 446 123 451
3 455 39 446
3 457 456 453
3 453 126 457
3 456 125 453
3 457 9 456
3 460 458 459
3 459 128 460
3 458 122 459
3 460 127 458
3 449 461 459
3 459 122 449
3 461 128 459
3 449 37 461
3 462 448 458
3 458 127 462
3 448 122 458
3 462 38 448
3 464 463 460
3 460 128 464
3 463 127 460
3 464 10 463
3 467 465 466
3 466 130 467
3 465 124 466
3 467 129 465
3 445 468 466
3 466 124 445
3 468 130 466
3 445 39 468
3 469 450 465
3 465 129 469
3 450 124 465
3 469 37 450
3 471 470 467
3 467 130 471
3 470 129 467
3 471 3 470
3 474 472 473
3 473 133 474
3 472 132 473
3 474 131 472
3 476 475 473
3 473 132 476
3 475 133 473
3 476 38 475
3 478 477 472
3 472 131 478
3 477 132 472
3 478 41 477
3 480 479 474
3 474 133 480
3 479 131 474
3 480 40 479
3 483 481 482
3 482 134 483
3 481 132 482
3 483 126 481
3 477 484 482
3 482 132 477
3 484 134 482
3 477 41 484
3 454 476 481
3 481 126 454
3 476 132 481
3 454 38 476
3 485 457 483
3 483 134 485
3 457 126 483
3 485 9 457
3 488 486 487
3 487 136 488
3 486 131 487
3 488 135 486
3 479 489 487
3 487 131 479
3 489 136 487
3 479 40 489
3 490 478 486
3 486 135 490
3 478 131 486
3 490 41 478
3 492 491 488
3 488 136 492
3 491 135 488
3 492 2 491
3 495 493 494
3 494 127 495
3 493 133 494
3 495 137 493
3 475 462 494
3 494 133 475
3 462 127 494
3 475 38 462
3 496 480 493
3 493 137 496
3 480 133 493
3 496 40 480
3 463 497 495
3 495 127 463
3 497 137 495
3 463 10 497
3 500 498 499
3 499 140 500
3 498 139 499
3 500 138 498
3 502 501 499
3 499 139 502
3 501 140 499
3 502 33 501
3 504 503 498
3 498 138 504
3 503 139 498
3 504 13 503
3 506 505 500
3 500 140 506
3 505 138 500
3 506 23 505
3 509 507 508
3 508 47 509
3 507 139 508
3 509 110 507
3 503 182 508
3 508 139 503
3 182 47 508
3 503 13 182
3 398 502 507
3 507 110 398
3 502 139 507
3 398 33 502
3 183 401 509
3 509 47 183
3 401 110 509
3 183 8 401
3 512 510 511
3 511 79 512
3 510 138 511
3 512 46 510
3 505 294 511
3 511 138 505
3 294 79 511
3 505 23 294
3 174 504 510
3 510 46 174
3 504 138 510
3 174 13 504
3 295 177 512
3 512 79 295
3 177 46 512
3 295 4 177
3 515 513 514
3 514 111 515
3 513 140 514
3 515 78 513
3 501 406 514
3 514 140 501
3 406 111 514
3 501 33 406
3 286 506 513
3 513 78 286
3 506 140 513
3 286 23 506
3 407 289 515
3 515 111 407
3 289 78 515
3 407 0 289
3 518 516 517
3 517 143 518
3 516 142 517
3 518 141 516
3 520 519 517
3 517 142 520
3 519 143 517
3 520 19 519
3 522 521 516
3 516 141 522
3 521 142 516
3 522 32 521
3 524 523 518
3 518 143 524
3 523 141 518
3 524 26 523
3 527 525 526
3 526 113 527
3 525 142 526
3 527 66 525
3 521 413 526
3 526 142 521
3 413 113 526
3 521 32 413
3 244 520 525
3 525 66 244
3 520 142 525
3 244 19 520
3 414 247 527
3 527 113 414
3 247 66 527
3 414 11 247
3 530 528 529
3 529 86 530
3 528 141 529
3 530 112 528
3 523 316 529
3 529 141 523
3 316 86 529
3 523 26 316
3 405 522 528
3 528 112 405
3 522 141 528
3 405 32 522
3 317 408 530
3 530 86 317
3 408 112 530
3 317 0 408
3 533 531 532
3 532 61 533
3 531 143 532
3 533 89 531
3 519 231 532
3 532 143 519
3 231 61 532
3 519 19 231
3 326 524 531
3 531 89 326
3 524 143 531
3 326 26 524
3 232 329 533
3 533 61 232
3 329 89 533
3 232 5 329
3 536 534 535
3 535 146 536
3 534 145 535
3 536 144 534
3 538 537 535
3 535 145 538
3 537 146 535
3 538 22 537
3 540 539 534
3 534 144 540
3 539 145 534
3 540 16 539
3 542 541 536
3 536 146 542
3 541 144 536
3 542 39 541
3 545 543 544
3 544 54 545
3 543 145 544
3 545 80 543
3 539 204 544
3 544 145 539
3 204 54 544
3 539 16 204
3 293 538 543
3 543 80 293
3 538 145 543
3 293 22 538
3 205 296 545
3 545 54 205
3 296 80 545
3 205 4 296
3 548 546 547
3 547 125 548
3 546 144 547
3 548 57 546
3 541 455 547
3 547 144 541
3 455 125 547
3 541 39 455
3 214 540 546
3 546 57 214
3 540 144 546
3 214 16 540
3 456 217 548
3 548 125 456
3 217 57 548
3 456 9 217
3 551 549 550
3 550 81 551
3 549 146 550
3 551 130 549
3 537 301 550
3 550 146 537
3 301 81 550
3 537 22 301
3 468 542 549
3 549 130 468
3 542 146 549
3 468 39 542
3 302 471 551
3 551 81 302
3 471 130 551
3 302 3 471
3 554 552 553
3 553 149 554
3 552 148 553
3 554 147 552
3 556 555 553
3 553 148 556
3 555 149 553
3 556 21 555
3 558 557 552
3 552 147 558
3 557 148 552
3 558 25 557
3 560 559 554
3 554 149 560
3 559 147 554
3 560 37 559
3 563 561 562
3 562 88 563
3 561 148 562
3 563 70 561
3 557 327 562
3 562 148 557
3 327 88 562
3 557 25 327
3 260 556 561
3 561 70 260
3 556 148 561
3 260 21 556
3 328 261 563
3 563 88 328
3 261 70 563
3 328 5 261
3 566 564 565
3 565 129 566
3 564 147 565
3 566 87 564
3 559 469 565
3 565 147 559
3 469 129 565
3 559 37 469
3 321 558 564
3 564 87 321
3 558 147 564
3 321 25 558
3 470 322 566
3 566 129 470
3 322 87 566
3 470 3 322
3 569 567 568
3 568 71 569
3 567 149 568
3 569 128 567
3 555 266 568
3 568 149 555
3 266 71 568
3 555 21 266
3 461 560 567
3 567 128 461
3 560 149 567
3 461 37 560
3 267 464 569
3 569 71 267
3 464 128 569
3 267 10 464
3 572 570 571
3 571 152 572
3 570 151 571
3 572 150 570
3 574 573 571
3 571 151 574
3 573 152 571
3 574 27 573
3 576 575 570
3 570 150 576
3 575 151 570
3 576 12 575
3 578 577 572
3 572 152 578
3 577 150 572
3 578 36 577
3 581 579 580
3 580 49 581
3 579 151 580
3 581 96 579
3 575 189 580
3 580 151 575
3 189 49 580
3 575 12 189
3 349 574 579
3 579 96 349
3 574 151 579
3 349 27 574
3 190 352 581
3 581 49 190
3 352 96 581
3 190 7 352
3 584 582 583
3 583 118 584
3 582 150 583
3 584 48 582
3 577 428 583
3 583 150 577
3 428 118 583
3 577 36 428
3 181 576 582
3 582 48 181
3 576 150 582
3 181 12 576
3 429 184 584
3 584 118 429
3 184 48 584
3 429 8 184
3 587 585 586
3 586 97 587
3 585 152 586
3 587 121 585
3 573 357 586
3 586 152 573
3 357 97 586
3 573 27 357
3 438 578 585
3 585 121 438
3 578 152 585
3 438 36 578
3 358 441 587
3 587 97 358
3 441 121 587
3 358 1 441
3 590 588 589
3 589 155 590
3 588 154 589
3 590 153 588
3 592 591 589
3 589 154 592
3 591 155 589
3 592 17 591
3 594 593 588
3 588 153 594
3 593 154 588
3 594 30 593
3 596 595 590
3 590 155 596
3 595 153 590
3 596 35 595
3 599 597 598
3 598 104 599
3 597 154 598
3 599 64 597
3 593 383 598
3 598 154 593
3 383 104 598
3 593 30 383
3 237 592 597
3 597 64 237
3 592 154 597
3 237 17 592
3 384 240 599
3 599 104 384
3 240 64 599
3 384 6 240
3 602 600 601
3 601 120 602
3 600 153 601
3 602 103 600
3 595 439 601
3 601 153 595
3 439 120 601
3 595 35 439
3 377 594 600
3 600 103 377
3 594 153 600
3 377 30 594
3 440 378 602
3 602 120 440
3 378 103 602
3 440 1 378
3 605 603 604
3 604 65 605
3 603 155 604
3 605 119 603
3 591 245 604
3 604 155 591
3 245 65 604
3 591 17 245
3 433 596 603
3 603 119 433
3 596 155 603
3 433 35 596
3 246 434 605
3 605 65 246
3 434 119 605
3 246 11 434
3 608 606 607
3 607 158 608
3 606 157 607
3 608 156 606
3 610 609 607
3 607 157 610
3 609 158 607
3 610 15 609
3 612 611 606
3 606 156 612
3 611 157 606
3 612 28 611
3 614 613 608
3 608 158 614
3 613 156 608
3 614 41 613
3 617 615 616
3 616 95 617
3 615 157 616
3 617 55 615
3 611 350 616
3 616 157 611
3 350 95 616
3 611 28 350
3 209 610 615
3 615 55 209
3 610 157 615
3 209 15 610
3 351 210 617
3 617 95 351
3 210 55 617
3 351 7 210
3 620 618 619
3 619 135 620
3 618 156 619
3 620 94 618
3 613 490 619
3 619 156 613
3 490 135 619
3 613 41 490
3 342 612 618
3 618 94 342
3 612 156 618
3 342 28 612
3 491 345 620
3 620 135 491
3 345 94 620
3 491 2 345
3 623 621 622
3 622 56 623
3 621 158 622
3 623 134 621
3 609 215 622
3 622 158 609
3 215 56 622
3 609 15 215
3 484 614 621
3 621 134 484
3 614 158 621
3 484 41 614
3 216 485 623
3 623 56 216
3 485 134 623
3 216 9 485
3 626 624 625
3 625 161 626
3 624 160 625
3 626 159 624
3 628 627 625
3 625 160 628
3 627 161 625
3 628 31 627
3 630 629 624
3 624 159 630
3 629 160 624
3 630 20 629
3 632 631 626
3 626 161 632
3 631 159 626
3 632 40 631
3 635 633 634
3 634 73 635
3 633 160 634
3 635 105 633
3 629 272 634
3 634 160 629
3 272 73 634
3 629 20 272
3 382 628 633
3 633 105 382
3 628 160 633
3 382 31 628
3 273 385 635
3 635 73 273
3 385 105 635
3 273 6 385
3 638 636 637
3 637 137 638
3 636 159 637
3 638 72 636
3 631 496 637
3 637 159 631
3 496 137 637
3 631 40 496
3 265 630 636
3 636 72 265
3 630 159 636
3 265 20 630
3 497 268 638
3 638 137 497
3 268 72 638
3 497 10 268
3 641 639 640
3 640 102 641
3 639 161 640
3 641 136 639
3 627 372 640
3 640 161 627
3 372 102 640
3 627 31 372
3 489 632 639
3 639 136 489
3 632 161 639
3 489 40 632
3 373 492 641
3 641 102 373
3 492 136 641
3 373 2 492
