# vtk DataFile Version 3.0
this file was written using fslvtkio
ASCII
DATASET POLYDATA
POINTS 642 float
159.486 138.957 134.125
144.512 137.245 134.866
145.67 131.981 133.108
158.561 133.319 131.941
156.393 130.715 138.142
157.293 139.234 125.62
147.613 137.854 127.472
147.86 129.802 139.182
151.871 136.933 138.706
153.081 128.146 135.363
152.939 134.682 130.715
152 140.725 131.423
149.431 133.449 140.046
154.499 133.926 139.451
152.78 128.764 139.806
150.452 126.393 137.639
156.118 126.418 137.111
149.456 140.849 128.727
152.153 139.084 125.477
154.959 141.784 127.672
150.594 136.609 128.952
155.257 136.301 126.911
158.466 131.277 135.075
158.591 135.061 136.649
160.854 136.204 132.314
159.597 136.045 127.659
159.641 140.195 129.387
144.828 133.673 137.631
144.819 129.539 135.923
142.374 134.453 132.873
145.262 138.118 130.904
146.322 135.286 130.804
156.168 140.473 132.383
155.91 138.041 136.548
151.834 139.202 135.322
148.053 139.367 133.269
147.524 137.267 137.921
156.184 134.224 130.948
152.668 131.373 132.959
156.518 129.846 133.775
149.299 133.39 132.236
148.719 129.254 134.48
152.131 133.612 140.138
153.521 131.448 139.698
151.197 131.281 139.939
154.922 129.567 139.252
155.606 132.231 138.901
153.186 135.719 139.601
150.553 135.459 139.912
148.566 131.547 139.695
150.266 128.976 139.929
151.741 126.573 139.567
154.805 127.036 139.158
153.681 125.013 137.766
156.591 128.494 138.003
148.888 127.732 138.765
152.032 126.843 136.419
154.693 126.636 135.886
150.661 140.565 126.592
153.444 141.289 125.802
152.065 141.618 127.901
156.474 141.231 126.134
154.842 139.37 125.066
149.67 138.524 126.199
148.341 139.671 127.768
150.764 141.121 130.016
153.402 141.242 129.601
152.872 136.634 127.918
153.795 137.558 125.839
151.25 137.449 126.645
156.481 137.428 125.533
154.038 135.756 129.08
151.888 135.681 129.836
149.063 137.012 127.837
158.762 133.097 135.734
160.238 135.525 134.775
159.674 133.921 133.819
160.658 137.835 133.263
159.314 137.254 135.61
157.298 132.768 137.341
157.607 130.79 136.739
158.846 132.206 133.424
160.018 134.481 131.775
160.726 136.233 129.818
160.936 138.269 130.662
160.392 138.217 128.103
159.886 139.777 131.91
159.142 134.793 129.996
158.843 137.561 126.11
158.76 140.099 127.072
144.05 131.538 136.853
142.57 131.801 134.495
142.804 133.955 135.496
143.738 132.739 132.811
144.746 130.541 134.025
146.151 129.441 137.867
146.223 131.788 138.51
144.223 135.715 136.448
143.002 136.098 134.011
143.114 136.512 131.572
144.034 134.661 131.453
144.972 136.502 129.856
145.821 133.71 132.267
144.514 137.72 132.911
146.235 138.449 128.724
147.008 136.531 128.937
156.212 139.712 134.906
154.014 138.925 136.097
154.129 139.907 133.968
151.77 138.112 137.116
153.909 137.478 137.774
157.91 138.633 135.668
158.103 139.976 133.389
154.049 140.631 131.768
151.931 140.017 133.325
149.842 139.378 134.428
149.62 138.227 136.478
147.653 138.338 135.544
149.663 137.096 138.558
150.06 140.154 132.284
146.037 138.456 134.169
145.603 137.435 136.693
154.617 132.701 132.207
154.715 130.682 133.242
156.466 132.037 132.459
154.897 128.728 134.683
152.861 129.687 134.127
152.844 133.256 132.03
154.586 134.558 130.787
157.563 133.656 131.345
157.815 131.406 132.863
148.869 131.22 133.164
150.733 130.339 133.675
150.967 132.318 132.681
150.991 128.694 135.202
146.872 130.574 133.723
147.438 132.607 132.856
151.192 134.141 131.551
156.527 134.417 138.086
155.348 136.244 138.282
157.43 136.819 137.033
157.973 140.797 130.907
155.663 141.137 130.016
157.499 141.364 128.388
156.513 127.675 135.078
157.746 128.574 136.358
158.068 129.855 134.335
157.844 135.081 129.294
157.578 135.814 126.74
155.921 135.465 128.994
148.093 135.641 139.531
146.88 133.654 139.322
145.811 135.76 138.264
146.715 138.86 132.017
147.44 139.512 129.904
148.722 140.292 130.956
146.613 128.848 135.011
147.469 127.663 136.938
149.393 127.657 135.988
149.947 135.111 130.718
148.511 135.969 130.04
147.856 134.464 131.703
152.89 132.607 140.044
152.424 131.341 139.916
151.636 132.498 140.167
151.991 130.113 139.999
153.096 130.177 139.844
154.032 132.707 139.785
153.389 133.69 139.943
150.827 133.474 140.116
150.392 132.4 140.081
154.165 130.494 139.621
154.627 131.847 139.446
155.111 130.95 139.069
155.1 133.024 139.34
153.904 129.143 139.613
155.721 130.171 138.763
155.947 131.431 138.437
152.67 134.588 139.998
151.306 134.442 140.079
151.913 135.47 139.881
149.987 134.43 140.05
153.826 134.817 139.67
152.482 136.404 139.239
151.269 136.306 139.473
149.96 131.382 139.876
150.804 130.172 139.915
149.497 130.363 139.835
151.56 128.813 139.977
149.003 132.46 139.98
148.237 130.671 139.445
149.033 129.325 139.646
153.322 126.682 139.344
154.408 125.624 138.763
152.689 125.403 138.906
155.264 125.233 137.623
155.543 126.405 138.293
153.825 127.808 139.628
152.376 127.638 139.838
151.083 126.026 138.624
151.978 125.368 137.773
155.84 127.616 138.656
154.887 128.336 139.346
155.847 129 138.709
156.467 127.342 137.756
156.461 129.639 138.067
150.984 127.761 139.94
150.311 127.004 139.22
149.605 128.233 139.511
149.621 126.776 138.303
148.272 128.744 139.103
152.812 125.644 136.945
154.444 125.485 136.705
153.492 126.428 136.213
155.596 126.102 136.375
151.251 126.362 136.977
152.661 127.536 135.962
153.915 127.412 135.678
151.957 141.082 126.059
152.736 141.735 126.813
151.287 141.413 127.146
153.498 141.724 127.666
154.173 141.737 126.698
152.701 140.227 125.517
151.33 139.863 125.862
150.092 140.891 127.571
150.745 141.246 128.178
154.938 141.338 125.825
154.085 140.37 125.306
155.512 140.408 125.459
153.468 139.341 125.165
155.683 141.764 126.806
156.853 140.203 125.781
156.118 139.358 125.31
150.184 139.516 126.364
149.516 140.177 127.167
148.947 139.184 126.814
148.938 140.309 128.205
150.881 138.897 125.824
148.529 138.213 126.749
147.82 138.791 127.343
151.371 141.429 128.903
152.785 141.559 128.683
152.065 141.25 129.7
154.142 141.526 128.613
150.175 141.107 129.254
151.445 140.913 130.7
152.652 141.05 130.53
153.362 137.001 126.799
152.485 137.534 126.138
152.108 137.024 127.306
151.643 138.181 125.866
152.954 138.374 125.49
154.608 136.975 126.31
154.087 136.52 127.347
151.694 136.675 128.353
150.983 136.982 127.765
154.232 138.469 125.292
155.106 137.513 125.539
155.639 138.421 125.24
155.872 136.739 126.017
156.899 138.375 125.437
153.53 136.164 128.381
152.31 136.242 128.845
152.934 135.789 129.439
151.296 136.146 129.342
154.669 136.019 127.975
153.457 135.35 129.965
152.471 135.215 130.277
150.139 137.219 127.168
150.47 137.916 126.232
149.317 137.631 126.783
149.88 136.809 128.411
148.303 137.373 127.489
159.511 134.25 135.279
160.103 134.599 134.264
159.169 133.446 134.788
160.515 135.006 133.136
160.716 135.825 133.621
159.534 135.26 135.785
158.739 134.075 136.16
158.71 132.222 135.352
159.094 132.576 134.482
160.613 136.721 134.096
159.872 136.448 135.21
160.117 137.5 134.5
159.096 136.183 136.214
160.97 136.917 132.8
160.089 138.492 133.675
159.524 138.138 134.853
158.06 132.946 136.506
158.151 131.912 136.182
157.467 131.798 136.986
158.071 131.012 135.885
157.918 133.911 136.986
156.762 131.687 137.733
157.045 130.719 137.535
159.356 132.911 133.609
160.049 134.207 132.843
159.384 133.37 132.65
160.593 135.339 131.975
158.808 131.705 134.289
158.709 132.799 132.624
159.329 133.825 131.777
160.93 137.246 130.252
160.718 138.299 129.417
160.777 137.213 128.961
160.171 139.247 128.685
160.51 139.3 129.939
161.021 137.201 131.437
160.79 136.235 131.038
160.262 136.191 128.642
160.294 137.087 127.705
160.452 139.081 131.247
160.955 137.985 131.996
160.325 138.814 132.507
159.877 140.072 130.618
159.677 139.378 133.02
160.422 135.257 130.814
160.081 135.358 129.655
159.659 134.498 130.825
159.432 135.468 128.818
158.849 134.115 131.098
159.781 137.942 127.032
159.726 139.147 127.524
159.031 138.921 126.528
159.41 140.258 128.135
159.47 136.714 126.782
158.143 138.441 125.792
158.099 139.718 126.169
143.088 131.596 135.706
142.458 132.872 134.985
143.259 132.739 136.217
142.352 134.16 134.218
142.195 133.146 133.718
143.522 130.644 135.237
144.119 130.46 136.396
144.291 132.665 137.172
143.646 133.746 136.623
142.96 132.259 133.489
143.487 130.997 134.176
143.938 131.588 133.358
144.469 129.978 134.846
142.865 133.467 132.811
144.644 132.256 132.921
145.07 131.345 133.422
145.018 130.508 137.366
145.1 131.645 137.688
145.979 130.678 138.231
145.362 132.699 138.077
145.364 129.387 136.982
147.02 129.641 138.625
147.047 130.858 138.937
143.511 134.816 136.026
142.736 135.048 134.855
143.446 135.877 135.342
142.473 135.329 133.501
144.332 134.676 137.132
144.251 136.562 135.606
143.707 136.718 134.43
143.209 135.454 131.253
144.437 135.548 130.614
143.918 136.497 130.572
145.501 135.776 130.169
145.161 134.972 131.04
143.006 134.391 132.054
142.526 135.495 132.237
143.99 137.393 131.144
144.799 137.457 130.191
144.909 134.178 131.915
143.797 133.775 132.287
144.773 133.237 132.593
145.998 134.546 131.631
145.622 132.814 132.778
142.735 136.327 132.771
143.624 137.225 132.206
143.502 137.029 133.318
144.718 137.886 131.858
144.34 137.538 133.876
145.514 137.393 129.274
145.985 136.48 129.347
146.328 137.319 128.487
146.644 135.995 129.961
145.703 138.325 129.798
146.854 138.218 127.885
147.294 137.135 128.034
155.104 139.327 135.587
154.087 139.53 135.162
155.172 139.882 134.498
153.077 139.564 134.686
152.998 139.125 135.643
155.018 138.583 136.403
156.077 138.998 135.871
156.192 140.074 133.664
155.154 140.203 133.259
152.922 138.503 136.545
154.001 138.149 136.875
152.856 137.847 137.401
154.923 137.671 137.071
151.827 138.677 136.208
151.829 137.497 137.973
152.865 137.221 138.335
157.149 139.309 135.36
157.197 139.87 134.144
158.112 139.405 134.648
157.154 140.281 132.887
156.913 138.418 136.154
158.834 138.725 135.023
158.93 139.516 133.851
154.115 140.271 132.851
153.05 139.94 133.638
153.012 140.352 132.582
151.948 139.654 134.358
155.121 140.534 132.046
152.974 140.659 131.53
151.92 140.374 132.342
149.731 138.777 135.416
148.607 138.306 136.027
148.75 138.858 134.921
147.514 137.874 136.77
148.536 137.793 137.21
150.709 138.713 135.891
150.807 139.272 134.928
148.864 139.364 133.936
147.862 138.894 134.446
149.58 137.67 137.528
150.74 138.163 136.773
150.72 137.572 137.831
148.602 137.217 138.261
150.801 137.03 138.724
150.921 139.723 133.943
149.893 139.765 133.42
150.925 140.04 132.856
149.023 139.837 132.829
151.061 140.457 131.815
146.858 138.453 134.883
146.576 138.021 136.233
145.704 138.095 135.477
146.509 137.44 137.399
147.149 138.847 133.74
145.129 137.918 134.586
144.933 137.39 135.822
154.682 131.731 132.787
155.642 131.279 132.835
155.58 132.449 132.361
156.449 130.883 133.05
155.658 130.227 133.433
153.754 131.028 133.05
153.702 131.978 132.624
155.491 133.426 131.668
156.231 133.198 131.834
154.88 129.756 133.945
153.853 130.113 133.633
153.92 129.253 134.467
152.818 130.485 133.356
155.716 129.329 134.3
153.975 128.338 135.06
152.941 128.855 134.872
153.745 132.943 132.095
154.65 133.647 131.501
153.775 133.851 131.395
155.393 134.357 130.896
152.816 132.276 132.438
152.878 134.065 131.335
153.729 134.619 130.724
157.002 132.859 132.013
157.151 131.654 132.614
157.629 132.649 132.27
157.221 130.56 133.26
156.884 133.919 131.135
158.105 133.434 131.681
158.195 132.436 132.523
149.771 130.726 133.412
150.819 131.25 133.101
149.948 131.731 132.91
151.81 131.847 132.785
151.707 130.873 133.329
149.731 129.781 134.074
148.782 130.302 133.819
149.09 132.299 132.759
150.097 132.785 132.477
151.826 129.971 133.788
150.851 129.469 134.255
151.905 129.165 134.621
149.868 128.934 134.864
152.055 128.392 135.381
147.907 130.868 133.408
148.117 131.909 133.018
147.106 131.545 133.215
148.382 132.942 132.527
147.802 129.934 134.087
146.111 131.26 133.399
146.481 132.259 133.016
151.05 133.304 132.199
151.962 132.769 132.39
151.983 133.694 131.751
150.253 133.782 131.955
152.108 134.428 131.094
155.979 135.281 138.326
156.404 136.512 137.607
157.129 135.613 137.638
156.75 137.488 136.813
155.722 137.139 137.439
154.958 135.062 139.051
155.519 134.033 138.898
157.628 134.775 137.387
158.136 135.935 136.972
154.736 136.969 138.067
154.323 135.91 138.973
153.604 136.712 138.686
156.052 133.275 138.605
156.959 133.609 137.712
156.45 132.477 138.097
158.42 136.962 136.433
157.653 137.721 136.293
158.638 137.918 135.73
156.869 140.985 130.464
156.593 141.329 129.179
157.822 141.062 129.637
156.253 141.677 127.972
155.342 141.43 128.856
155.942 140.83 131.187
157.042 140.685 131.628
158.91 140.678 130.171
158.723 140.952 128.84
154.522 141.184 129.76
154.847 140.915 130.909
153.696 140.976 130.695
158.025 140.387 132.145
159.048 140.445 131.396
159 140.008 132.668
158.323 141.061 127.646
156.985 141.498 127.245
157.695 140.747 126.444
157.42 127.752 135.719
157.943 129.15 135.316
157.306 128.729 134.792
158.313 130.543 134.696
158.03 130.039 135.669
157.106 127.416 136.847
156.439 126.841 136.014
156.519 128.908 134.53
157.355 129.694 133.958
157.653 129.825 136.411
157.235 128.456 137.189
157.141 129.688 137.349
155.605 127.106 135.467
155.73 128.3 134.933
154.832 127.744 135.286
157.991 130.591 133.521
158.533 131.065 133.895
158.472 131.813 133.138
157.778 135.411 127.963
156.704 135.56 127.843
156.932 135.192 129.126
155.693 135.801 127.8
156.433 136.007 126.785
158.668 135.824 127.058
158.649 135.483 128.345
157.014 134.658 130.231
156.075 134.951 130.118
157.102 136.464 125.946
158.387 136.449 126.178
157.691 137.432 125.763
158.534 134.949 129.495
157.704 134.354 130.39
158.394 134.16 130.697
155.238 135.132 130.039
155.002 135.642 128.969
154.313 135.272 130.012
147.463 134.612 139.546
146.249 134.689 138.821
146.932 135.697 138.967
145.194 134.764 138.058
145.78 133.656 138.498
148.099 133.518 139.894
148.715 134.498 139.829
147.742 136.592 138.829
146.612 136.595 138.268
146.59 132.716 138.745
147.766 132.599 139.548
147.42 131.688 139.169
149.337 135.487 139.777
148.842 136.552 139.138
150.069 136.447 139.404
145.658 136.672 137.58
144.901 135.719 137.464
144.872 136.648 136.642
147.053 139.224 130.945
148.132 139.961 130.378
147.742 139.566 131.555
149.135 140.646 129.781
148.462 140.172 129.315
146.308 138.903 130.403
145.934 138.62 131.49
147.396 139.09 132.648
148.399 139.763 132.144
147.95 139.654 128.823
146.777 139.115 129.382
147.237 139.1 128.269
145.528 138.402 132.462
146.425 138.632 133.058
145.223 138.214 133.54
149.345 140.24 131.663
149.71 140.792 130.436
150.437 140.62 131.164
146.888 128.185 135.924
148.393 127.42 136.363
147.98 128.204 135.486
149.823 126.843 136.729
148.995 126.931 137.342
145.987 128.514 136.53
145.533 128.971 135.401
147.697 128.928 134.728
148.997 128.462 135.28
148.135 127.536 137.945
146.671 128.495 137.436
147.483 128.626 138.358
145.597 129.592 134.547
146.782 129.647 134.323
145.839 130.491 133.93
150.188 128.221 135.672
150.653 127.196 136.292
151.43 127.86 135.924
149.274 135.571 130.388
148.17 135.263 130.885
148.939 134.81 131.301
147.065 134.881 131.332
147.413 135.637 130.482
149.563 136.283 129.445
150.267 135.827 129.729
149.624 134.416 131.683
148.606 133.94 131.966
147.758 136.264 129.566
148.822 136.544 128.978
148.043 136.858 128.439
150.932 135.41 130.246
150.595 134.647 131.199
151.59 134.909 130.731
147.655 133.525 132.252
146.843 134.083 131.982
146.637 133.204 132.587
POLYGONS 1280  5120
3 164 162 163
3 163 44 164
3 162 43 163
3 164 42 162
3 166 165 163
3 163 43 166
3 165 44 163
3 166 14 165
3 168 167 162
3 162 42 168
3 167 43 162
3 168 13 167
3 170 169 164
3 164 44 170
3 169 42 164
3 170 12 169
3 173 171 172
3 172 46 173
3 171 43 172
3 173 45 171
3 167 174 172
3 172 43 167
3 174 46 172
3 167 13 174
3 175 166 171
3 171 45 175
3 166 43 171
3 175 14 166
3 177 176 173
3 173 46 177
3 176 45 173
3 177 4 176
3 180 178 179
3 179 48 180
3 178 42 179
3 180 47 178
3 169 181 179
3 179 42 169
3 181 48 179
3 169 12 181
3 182 168 178
3 178 47 182
3 168 42 178
3 182 13 168
3 184 183 180
3 180 48 184
3 183 47 180
3 184 8 183
3 187 185 186
3 186 50 187
3 185 44 186
3 187 49 185
3 165 188 186
3 186 44 165
3 188 50 186
3 165 14 188
3 189 170 185
3 185 49 189
3 170 44 185
3 189 12 170
3 191 190 187
3 187 50 191
3 190 49 187
3 191 7 190
3 194 192 193
3 193 53 194
3 192 52 193
3 194 51 192
3 196 195 193
3 193 52 196
3 195 53 193
3 196 16 195
3 198 197 192
3 192 51 198
3 197 52 192
3 198 14 197
3 200 199 194
3 194 53 200
3 199 51 194
3 200 15 199
3 203 201 202
3 202 45 203
3 201 52 202
3 203 54 201
3 197 175 202
3 202 52 197
3 175 45 202
3 197 14 175
3 204 196 201
3 201 54 204
3 196 52 201
3 204 16 196
3 176 205 203
3 203 45 176
3 205 54 203
3 176 4 205
3 208 206 207
3 207 55 208
3 206 51 207
3 208 50 206
3 199 209 207
3 207 51 199
3 209 55 207
3 199 15 209
3 188 198 206
3 206 50 188
3 198 51 206
3 188 14 198
3 210 191 208
3 208 55 210
3 191 50 208
3 210 7 191
3 213 211 212
3 212 57 213
3 211 53 212
3 213 56 211
3 195 214 212
3 212 53 195
3 214 57 212
3 195 16 214
3 215 200 211
3 211 56 215
3 200 53 211
3 215 15 200
3 217 216 213
3 213 57 217
3 216 56 213
3 217 9 216
3 220 218 219
3 219 60 220
3 218 59 219
3 220 58 218
3 222 221 219
3 219 59 222
3 221 60 219
3 222 19 221
3 224 223 218
3 218 58 224
3 223 59 218
3 224 18 223
3 226 225 220
3 220 60 226
3 225 58 220
3 226 17 225
3 229 227 228
3 228 62 229
3 227 59 228
3 229 61 227
3 223 230 228
3 228 59 223
3 230 62 228
3 223 18 230
3 231 222 227
3 227 61 231
3 222 59 227
3 231 19 222
3 233 232 229
3 229 62 233
3 232 61 229
3 233 5 232
3 236 234 235
3 235 64 236
3 234 58 235
3 236 63 234
3 225 237 235
3 235 58 225
3 237 64 235
3 225 17 237
3 238 224 234
3 234 63 238
3 224 58 234
3 238 18 224
3 240 239 236
3 236 64 240
3 239 63 236
3 240 6 239
3 243 241 242
3 242 66 243
3 241 60 242
3 243 65 241
3 221 244 242
3 242 60 221
3 244 66 242
3 221 19 244
3 245 226 241
3 241 65 245
3 226 60 241
3 245 17 226
3 247 246 243
3 243 66 247
3 246 65 243
3 247 11 246
3 250 248 249
3 249 69 250
3 248 68 249
3 250 67 248
3 252 251 249
3 249 68 252
3 251 69 249
3 252 18 251
3 254 253 248
3 248 67 254
3 253 68 248
3 254 21 253
3 256 255 250
3 250 69 256
3 255 67 250
3 256 20 255
3 259 257 258
3 258 70 259
3 257 68 258
3 259 62 257
3 253 260 258
3 258 68 253
3 260 70 258
3 253 21 260
3 230 252 257
3 257 62 230
3 252 68 257
3 230 18 252
3 261 233 259
3 259 70 261
3 233 62 259
3 261 5 233
3 264 262 263
3 263 72 264
3 262 67 263
3 264 71 262
3 255 265 263
3 263 67 255
3 265 72 263
3 255 20 265
3 266 254 262
3 262 71 266
3 254 67 262
3 266 21 254
3 268 267 264
3 264 72 268
3 267 71 264
3 268 10 267
3 271 269 270
3 270 63 271
3 269 69 270
3 271 73 269
3 251 238 270
3 270 69 251
3 238 63 270
3 251 18 238
3 272 256 269
3 269 73 272
3 256 69 269
3 272 20 256
3 239 273 271
3 271 63 239
3 273 73 271
3 239 6 273
3 276 274 275
3 275 76 276
3 274 75 275
3 276 74 274
3 278 277 275
3 275 75 278
3 277 76 275
3 278 24 277
3 280 279 274
3 274 74 280
3 279 75 274
3 280 23 279
3 282 281 276
3 276 76 282
3 281 74 276
3 282 22 281
3 285 283 284
3 284 78 285
3 283 75 284
3 285 77 283
3 279 286 284
3 284 75 279
3 286 78 284
3 279 23 286
3 287 278 283
3 283 77 287
3 278 75 283
3 287 24 278
3 289 288 285
3 285 78 289
3 288 77 285
3 289 0 288
3 292 290 291
3 291 80 292
3 290 74 291
3 292 79 290
3 281 293 291
3 291 74 281
3 293 80 291
3 281 22 293
3 294 280 290
3 290 79 294
3 280 74 290
3 294 23 280
3 296 295 292
3 292 80 296
3 295 79 292
3 296 4 295
3 299 297 298
3 298 82 299
3 297 76 298
3 299 81 297
3 277 300 298
3 298 76 277
3 300 82 298
3 277 24 300
3 301 282 297
3 297 81 301
3 282 76 297
3 301 22 282
3 303 302 299
3 299 82 303
3 302 81 299
3 303 3 302
3 306 304 305
3 305 85 306
3 304 84 305
3 306 83 304
3 308 307 305
3 305 84 308
3 307 85 305
3 308 26 307
3 310 309 304
3 304 83 310
3 309 84 304
3 310 24 309
3 312 311 306
3 306 85 312
3 311 83 306
3 312 25 311
3 315 313 314
3 314 77 315
3 313 84 314
3 315 86 313
3 309 287 314
3 314 84 309
3 287 77 314
3 309 24 287
3 316 308 313
3 313 86 316
3 308 84 313
3 316 26 308
3 288 317 315
3 315 77 288
3 317 86 315
3 288 0 317
3 320 318 319
3 319 87 320
3 318 83 319
3 320 82 318
3 311 321 319
3 319 83 311
3 321 87 319
3 311 25 321
3 300 310 318
3 318 82 300
3 310 83 318
3 300 24 310
3 322 303 320
3 320 87 322
3 303 82 320
3 322 3 303
3 325 323 324
3 324 89 325
3 323 85 324
3 325 88 323
3 307 326 324
3 324 85 307
3 326 89 324
3 307 26 326
3 327 312 323
3 323 88 327
3 312 85 323
3 327 25 312
3 329 328 325
3 325 89 329
3 328 88 325
3 329 5 328
3 332 330 331
3 331 92 332
3 330 91 331
3 332 90 330
3 334 333 331
3 331 91 334
3 333 92 331
3 334 29 333
3 336 335 330
3 330 90 336
3 335 91 330
3 336 28 335
3 338 337 332
3 332 92 338
3 337 90 332
3 338 27 337
3 341 339 340
3 340 94 341
3 339 91 340
3 341 93 339
3 335 342 340
3 340 91 335
3 342 94 340
3 335 28 342
3 343 334 339
3 339 93 343
3 334 91 339
3 343 29 334
3 345 344 341
3 341 94 345
3 344 93 341
3 345 2 344
3 348 346 347
3 347 96 348
3 346 90 347
3 348 95 346
3 337 349 347
3 347 90 337
3 349 96 347
3 337 27 349
3 350 336 346
3 346 95 350
3 336 90 346
3 350 28 336
3 352 351 348
3 348 96 352
3 351 95 348
3 352 7 351
3 355 353 354
3 354 98 355
3 353 92 354
3 355 97 353
3 333 356 354
3 354 92 333
3 356 98 354
3 333 29 356
3 357 338 353
3 353 97 357
3 338 92 353
3 357 27 338
3 359 358 355
3 355 98 359
3 358 97 355
3 359 1 358
3 362 360 361
3 361 101 362
3 360 100 361
3 362 99 360
3 364 363 361
3 361 100 364
3 363 101 361
3 364 31 363
3 366 365 360
3 360 99 366
3 365 100 360
3 366 29 365
3 368 367 362
3 362 101 368
3 367 99 362
3 368 30 367
3 371 369 370
3 370 93 371
3 369 100 370
3 371 102 369
3 365 343 370
3 370 100 365
3 343 93 370
3 365 29 343
3 372 364 369
3 369 102 372
3 364 100 369
3 372 31 364
3 344 373 371
3 371 93 344
3 373 102 371
3 344 2 373
3 376 374 375
3 375 103 376
3 374 99 375
3 376 98 374
3 367 377 375
3 375 99 367
3 377 103 375
3 367 30 377
3 356 366 374
3 374 98 356
3 366 99 374
3 356 29 366
3 378 359 376
3 376 103 378
3 359 98 376
3 378 1 359
3 381 379 380
3 380 105 381
3 379 101 380
3 381 104 379
3 363 382 380
3 380 101 363
3 382 105 380
3 363 31 382
3 383 368 379
3 379 104 383
3 368 101 379
3 383 30 368
3 385 384 381
3 381 105 385
3 384 104 381
3 385 6 384
3 388 386 387
3 387 108 388
3 386 107 387
3 388 106 386
3 390 389 387
3 387 107 390
3 389 108 387
3 390 34 389
3 392 391 386
3 386 106 392
3 391 107 386
3 392 33 391
3 394 393 388
3 388 108 394
3 393 106 388
3 394 32 393
3 397 395 396
3 396 110 397
3 395 107 396
3 397 109 395
3 391 398 396
3 396 107 391
3 398 110 396
3 391 33 398
3 399 390 395
3 395 109 399
3 390 107 395
3 399 34 390
3 401 400 397
3 397 110 401
3 400 109 397
3 401 8 400
3 404 402 403
3 403 112 404
3 402 106 403
3 404 111 402
3 393 405 403
3 403 106 393
3 405 112 403
3 393 32 405
3 406 392 402
3 402 111 406
3 392 106 402
3 406 33 392
3 408 407 404
3 404 112 408
3 407 111 404
3 408 0 407
3 411 409 410
3 410 114 411
3 409 108 410
3 411 113 409
3 389 412 410
3 410 108 389
3 412 114 410
3 389 34 412
3 413 394 409
3 409 113 413
3 394 108 409
3 413 32 394
3 415 414 411
3 411 114 415
3 414 113 411
3 415 11 414
3 418 416 417
3 417 117 418
3 416 116 417
3 418 115 416
3 420 419 417
3 417 116 420
3 419 117 417
3 420 36 419
3 422 421 416
3 416 115 422
3 421 116 416
3 422 34 421
3 424 423 418
3 418 117 424
3 423 115 418
3 424 35 423
3 427 425 426
3 426 109 427
3 425 116 426
3 427 118 425
3 421 399 426
3 426 116 421
3 399 109 426
3 421 34 399
3 428 420 425
3 425 118 428
3 420 116 425
3 428 36 420
3 400 429 427
3 427 109 400
3 429 118 427
3 400 8 429
3 432 430 431
3 431 119 432
3 430 115 431
3 432 114 430
3 423 433 431
3 431 115 423
3 433 119 431
3 423 35 433
3 412 422 430
3 430 114 412
3 422 115 430
3 412 34 422
3 434 415 432
3 432 119 434
3 415 114 432
3 434 11 415
3 437 435 436
3 436 121 437
3 435 117 436
3 437 120 435
3 419 438 436
3 436 117 419
3 438 121 436
3 419 36 438
3 439 424 435
3 435 120 439
3 424 117 435
3 439 35 424
3 441 440 437
3 437 121 441
3 440 120 437
3 441 1 440
3 444 442 443
3 443 124 444
3 442 123 443
3 444 122 442
3 446 445 443
3 443 123 446
3 445 124 443
3 446 39 445
3 448 447 442
3 442 122 448
3 447 123 442
3 448 38 447
3 450 449 444
3 444 124 450
3 449 122 444
3 450 37 449
3 453 451 452
3 452 126 453
3 451 123 452
3 453 125 451
3 447 454 452
3 452 123 447
3 454 126 452
3 447 38 454
3 455 446 451
3 451 125 455
3 446 123 451
3 455 39 446
3 457 456 453
3 453 126 457
3 456 125 453
3 457 9 456
3 460 458 459
3 459 128 460
3 458 122 459
3 460 127 458
3 449 461 459
3 459 122 449
3 461 128 459
3 449 37 461
3 462 448 458
3 458 127 462
3 448 122 458
3 462 38 448
3 464 463 460
3 460 128 464
3 463 127 460
3 464 10 463
3 467 465 466
3 466 130 467
3 465 124 466
3 467 129 465
3 445 468 466
3 466 124 445
3 468 130 466
3 445 39 468
3 469 450 465
3 465 129 469
3 450 124 465
3 469 37 450
3 471 470 467
3 467 130 471
3 470 129 467
3 471 3 470
3 474 472 473
3 473 133 474
3 472 132 473
3 474 131 472
3 476 475 473
3 473 132 476
3 475 133 473
3 476 38 475
3 478 477 472
3 472 131 478
3 477 132 472
3 478 41 477
3 480 479 474
3 474 133 480
3 479 131 474
3 480 40 479
3 483 481 482
3 482 134 483
3 481 132 482
3 483 126 481
3 477 484 482
3 482 132 477
3 484 134 482
3 477 41 484
3 454 476 481
3 481 126 454
3 476 132 481
3 454 38 476
3 485 457 483
3 483 134 485
3 457 126 483
3 485 9 457
3 488 486 487
3 487 136 488
3 486 131 487
3 488 135 486
3 479 489 487
3 487 131 479
3 489 136 487
3 479 40 489
3 490 478 486
3 486 135 490
3 478 131 486
3 490 41 478
3 492 491 488
3 488 136 492
3 491 135 488
3 492 2 491
3 495 493 494
3 494 127 495
3 493 133 494
3 495 137 493
3 475 462 494
3 494 133 475
3 462 127 494
3 475 38 462
3 496 480 493
3 493 137 496
3 480 133 493
3 496 40 480
3 463 497 495
3 495 127 463
3 497 137 495
3 463 10 497
3 500 498 499
3 499 140 500
3 498 139 499
3 500 138 498
3 502 501 499
3 499 139 502
3 501 140 499
3 502 33 501
3 504 503 498
3 498 138 504
3 503 139 498
3 504 13 503
3 506 505 500
3 500 140 506
3 505 138 500
3 506 23 505
3 509 507 508
3 508 47 509
3 507 139 508
3 509 110 507
3 503 182 508
3 508 139 503
3 182 47 508
3 503 13 182
3 398 502 507
3 507 110 398
3 502 139 507
3 398 33 502
3 183 401 509
3 509 47 183
3 401 110 509
3 183 8 401
3 512 510 511
3 511 79 512
3 510 138 511
3 512 46 510
3 505 294 511
3 511 138 505
3 294 79 511
3 505 23 294
3 174 504 510
3 510 46 174
3 504 138 510
3 174 13 504
3 295 177 512
3 512 79 295
3 177 46 512
3 295 4 177
3 515 513 514
3 514 111 515
3 513 140 514
3 515 78 513
3 501 406 514
3 514 140 501
3 406 111 514
3 501 33 406
3 286 506 513
3 513 78 286
3 506 140 513
3 286 23 506
3 407 289 515
3 515 111 407
3 289 78 515
3 407 0 289
3 518 516 517
3 517 143 518
3 516 142 517
3 518 141 516
3 520 519 517
3 517 142 520
3 519 143 517
3 520 19 519
3 522 521 516
3 516 141 522
3 521 142 516
3 522 32 521
3 524 523 518
3 518 143 524
3 523 141 518
3 524 26 523
3 527 525 526
3 526 113 527
3 525 142 526
3 527 66 525
3 521 413 526
3 526 142 521
3 413 113 526
3 521 32 413
3 244 520 525
3 525 66 244
3 520 142 525
3 244 19 520
3 414 247 527
3 527 113 414
3 247 66 527
3 414 11 247
3 530 528 529
3 529 86 530
3 528 141 529
3 530 112 528
3 523 316 529
3 529 141 523
3 316 86 529
3 523 26 316
3 405 522 528
3 528 112 405
3 522 141 528
3 405 32 522
3 317 408 530
3 530 86 317
3 408 112 530
3 317 0 408
3 533 531 532
3 532 61 533
3 531 143 532
3 533 89 531
3 519 231 532
3 532 143 519
3 231 61 532
3 519 19 231
3 326 524 531
3 531 89 326
3 524 143 531
3 326 26 524
3 232 329 533
3 533 61 232
3 329 89 533
3 232 5 329
3 536 534 535
3 535 146 536
3 534 145 535
3 536 144 534
3 538 537 535
3 535 145 538
3 537 146 535
3 538 22 537
3 540 539 534
3 534 144 540
3 539 145 534
3 540 16 539
3 542 541 536
3 536 146 542
3 541 144 536
3 542 39 541
3 545 543 544
3 544 54 545
3 543 145 544
3 545 80 543
3 539 204 544
3 544 145 539
3 204 54 544
3 539 16 204
3 293 538 543
3 543 80 293
3 538 145 543
3 293 22 538
3 205 296 545
3 545 54 205
3 296 80 545
3 205 4 296
3 548 546 547
3 547 125 548
3 546 144 547
3 548 57 546
3 541 455 547
3 547 144 541
3 455 125 547
3 541 39 455
3 214 540 546
3 546 57 214
3 540 144 546
3 214 16 540
3 456 217 548
3 548 125 456
3 217 57 548
3 456 9 217
3 551 549 550
3 550 81 551
3 549 146 550
3 551 130 549
3 537 301 550
3 550 146 537
3 301 81 550
3 537 22 301
3 468 542 549
3 549 130 468
3 542 146 549
3 468 39 542
3 302 471 551
3 551 81 302
3 471 130 551
3 302 3 471
3 554 552 553
3 553 149 554
3 552 148 553
3 554 147 552
3 556 555 553
3 553 148 556
3 555 149 553
3 556 21 555
3 558 557 552
3 552 147 558
3 557 148 552
3 558 25 557
3 560 559 554
3 554 149 560
3 559 147 554
3 560 37 559
3 563 561 562
3 562 88 563
3 561 148 562
3 563 70 561
3 557 327 562
3 562 148 557
3 327 88 562
3 557 25 327
3 260 556 561
3 561 70 260
3 556 148 561
3 260 21 556
3 328 261 563
3 563 88 328
3 261 70 563
3 328 5 261
3 566 564 565
3 565 129 566
3 564 147 565
3 566 87 564
3 559 469 565
3 565 147 559
3 469 129 565
3 559 37 469
3 321 558 564
3 564 87 321
3 558 147 564
3 321 25 558
3 470 322 566
3 566 129 470
3 322 87 566
3 470 3 322
3 569 567 568
3 568 71 569
3 567 149 568
3 569 128 567
3 555 266 568
3 568 149 555
3 266 71 568
3 555 21 266
3 461 560 567
3 567 128 461
3 560 149 567
3 461 37 560
3 267 464 569
3 569 71 267
3 464 128 569
3 267 10 464
3 572 570 571
3 571 152 572
3 570 151 571
3 572 150 570
3 574 573 571
3 571 151 574
3 573 152 571
3 574 27 573
3 576 575 570
3 570 150 576
3 575 151 570
3 576 12 575
3 578 577 572
3 572 152 578
3 577 150 572
3 578 36 577
3 581 579 580
3 580 49 581
3 579 151 580
3 581 96 579
3 575 189 580
3 580 151 575
3 189 49 580
3 575 12 189
3 349 574 579
3 579 96 349
3 574 151 579
3 349 27 574
3 190 352 581
3 581 49 190
3 352 96 581
3 190 7 352
3 584 582 583
3 583 118 584
3 582 150 583
3 584 48 582
3 577 428 583
3 583 150 577
3 428 118 583
3 577 36 428
3 181 576 582
3 582 48 181
3 576 150 582
3 181 12 576
3 429 184 584
3 584 118 429
3 184 48 584
3 429 8 184
3 587 585 586
3 586 97 587
3 585 152 586
3 587 121 585
3 573 357 586
3 586 152 573
3 357 97 586
3 573 27 357
3 438 578 585
3 585 121 438
3 578 152 585
3 438 36 578
3 358 441 587
3 587 97 358
3 441 121 587
3 358 1 441
3 590 588 589
3 589 155 590
3 588 154 589
3 590 153 588
3 592 591 589
3 589 154 592
3 591 155 589
3 592 17 591
3 594 593 588
3 588 153 594
3 593 154 588
3 594 30 593
3 596 595 590
3 590 155 596
3 595 153 590
3 596 35 595
3 599 597 598
3 598 104 599
3 597 154 598
3 599 64 597
3 593 383 598
3 598 154 593
3 383 104 598
3 593 30 383
3 237 592 597
3 597 64 237
3 592 154 597
3 237 17 592
3 384 240 599
3 599 104 384
3 240 64 599
3 384 6 240
3 602 600 601
3 601 120 602
3 600 153 601
3 602 103 600
3 595 439 601
3 601 153 595
3 439 120 601
3 595 35 439
3 377 594 600
3 600 103 377
3 594 153 600
3 377 30 594
3 440 378 602
3 602 120 440
3 378 103 602
3 440 1 378
3 605 603 604
3 604 65 605
3 603 155 604
3 605 119 603
3 591 245 604
3 604 155 591
3 245 65 604
3 591 17 245
3 433 596 603
3 603 119 433
3 596 155 603
3 433 35 596
3 246 434 605
3 605 65 246
3 434 119 605
3 246 11 434
3 608 606 607
3 607 158 608
3 606 157 607
3 608 156 606
3 610 609 607
3 607 157 610
3 609 158 607
3 610 15 609
3 612 611 606
3 606 156 612
3 611 157 606
3 612 28 611
3 614 613 608
3 608 158 614
3 613 156 608
3 614 41 613
3 617 615 616
3 616 95 617
3 615 157 616
3 617 55 615
3 611 350 616
3 616 157 611
3 350 95 616
3 611 28 350
3 209 610 615
3 615 55 209
3 610 157 615
3 209 15 610
3 351 210 617
3 617 95 351
3 210 55 617
3 351 7 210
3 620 618 619
3 619 135 620
3 618 156 619
3 620 94 618
3 613 490 619
3 619 156 613
3 490 135 619
3 613 41 490
3 342 612 618
3 618 94 342
3 612 156 618
3 342 28 612
3 491 345 620
3 620 135 491
3 345 94 620
3 491 2 345
3 623 621 622
3 622 56 623
3 621 158 622
3 623 134 621
3 609 215 622
3 622 158 609
3 215 56 622
3 609 15 215
3 484 614 621
3 621 134 484
3 614 158 621
3 484 41 614
3 216 485 623
3 623 56 216
3 485 134 623
3 216 9 485
3 626 624 625
3 625 161 626
3 624 160 625
3 626 159 624
3 628 627 625
3 625 160 628
3 627 161 625
3 628 31 627
3 630 629 624
3 624 159 630
3 629 160 624
3 630 20 629
3 632 631 626
3 626 161 632
3 631 159 626
3 632 40 631
3 635 633 634
3 634 73 635
3 633 160 634
3 635 105 633
3 629 272 634
3 634 160 629
3 272 73 634
3 629 20 272
3 382 628 633
3 633 105 382
3 628 160 633
3 382 31 628
3 273 385 635
3 635 73 273
3 385 105 635
3 273 6 385
3 638 636 637
3 637 137 638
3 636 159 637
3 638 72 636
3 631 496 637
3 637 159 631
3 496 137 637
3 631 40 496
3 265 630 636
3 636 72 265
3 630 159 636
3 265 20 630
3 497 268 638
3 638 137 497
3 268 72 638
3 497 10 268
3 641 639 640
3 640 102 641
3 639 161 640
3 641 136 639
3 627 372 640
3 640 161 627
3 372 102 640
3 627 31 372
3 489 632 639
3 639 136 489
3 632 161 639
3 489 40 632
3 373 492 641
3 641 102 373
3 492 136 641
3 373 2 492
