# vtk DataFile Version 3.0
this file was written using fslvtkio
ASCII
DATASET POLYDATA
POINTS 732 float
153.509 133.316 123.731
152.2 132.19 124.126
153.409 131.633 123.831
154.522 131.422 123.743
155.081 133.581 123.662
155.968 131.619 123.936
156.56 133.509 124.06
157.446 132.371 124.628
152.595 134.753 123.931
151.303 134.2 124.309
154.215 135.383 124.067
155.838 135.249 124.266
157.516 134.095 125.099
151.423 136.099 124.397
149.7 136.208 125.579
150.216 134.822 124.982
152.857 136.508 124.339
154.12 136.723 125.264
155.62 136.389 125.551
156.998 135.539 125.542
150.989 137.087 125.841
149.861 137.167 126.974
152.488 137.104 125.829
153.837 136.921 126.763
155.187 136.218 127.33
156.8 135.988 126.79
151.217 137.174 127.395
152.743 137.058 127.638
153.441 130.056 124.25
151.591 130.045 125.084
152.354 128.547 125.093
154.147 128.255 124.555
155.332 129.891 123.926
156.072 128.548 124.421
157.184 130.519 124.466
157.707 128.98 124.79
158.598 130.613 125.287
159.276 129.275 125.54
151.105 131.541 124.829
149.193 131.718 125.971
149.788 130.334 125.934
158.576 132.348 125.622
159.653 130.826 126.633
149.109 133.135 125.87
147.27 133.708 126.795
147.318 132.26 126.84
150.463 133.447 125.075
158.741 133.435 126.609
159.409 132.261 127.151
148.649 134.868 125.992
147.229 135.389 127.316
159.047 133.408 128.292
157.892 134.654 126.887
148.563 136.497 126.874
147.548 136.536 128.182
153.985 136.46 127.971
154.05 135.586 129.301
152.819 136.587 128.819
155.512 135.361 128.936
156.73 135.322 128.091
149.393 137.124 128.39
151.18 136.879 128.975
157.47 125.896 124.791
155.692 125.308 124.803
156.707 124.158 125.109
158.286 124.252 125.12
159.193 125.916 125.228
159.839 124.479 125.466
150.957 127.176 126.029
149.658 126.802 126.831
150.963 125.991 126.551
152.282 125.575 126.154
153.069 126.945 125.203
154.086 125.355 125.394
155.324 126.821 124.688
157.165 127.462 124.668
158.952 127.635 125.258
160.528 125.857 125.942
160.413 127.347 126.123
161.572 126.091 127.01
148.45 128.895 126.656
147.049 128.505 127.466
148.42 127.585 127.119
150.361 128.888 126.046
160.308 128.974 126.533
161.341 127.868 127.54
146.152 130.513 127.477
144.607 130.563 128.62
145.907 129.404 127.877
147.725 130.736 126.711
160.212 130.341 128.086
160.865 129.091 128.429
145.484 132.548 127.984
143.835 132.481 128.995
160.188 130.131 129.651
159.702 131.75 128.548
144.404 134.353 129.122
143.832 134.172 131.228
142.683 133.237 130.195
145.949 134.377 127.732
158.788 132.636 129.861
157.932 134.335 128.602
145.587 135.204 130.657
145.905 135.642 129.061
146.914 135.902 130.562
152.52 135.799 129.593
152.122 134.835 130.45
151.106 136.022 129.907
153.435 134.204 130.595
154.857 134.287 130.035
156.399 134.246 129.496
147.813 136.704 129.501
149.651 136.581 129.977
155.126 122.562 125.857
153.734 122.156 126.767
154.812 121.539 126.364
156.028 121.275 125.81
157.313 122.66 125.408
157.983 121.258 125.547
159.251 123.017 125.616
159.723 121.483 125.944
160.855 123.045 126.323
161.384 122.119 126.946
150.929 124.702 126.939
149.582 124.429 127.665
150.779 123.377 127.468
152.09 122.917 127.228
153.233 123.877 126.195
155.085 123.88 125.515
161.051 124.444 126.296
162.037 124.316 127.48
148.31 126.57 127.655
147.231 126.334 128.538
148.443 125.257 128.085
162.066 126.285 128.49
145.62 128.425 128.495
144.414 128.28 130.184
145.904 126.962 129.468
161.563 127.861 129.11
143.854 129.658 129.666
142.295 130.63 131.228
143.075 129.287 131.722
160.82 128.783 130.209
142.8 131.606 130.104
142.268 132.745 132.239
159.849 129.605 131.462
159.557 131.283 130.247
144.19 133.307 132.827
154.487 133.07 131.227
153.387 132.171 132.353
153.023 133.163 131.408
156.024 133.233 130.876
155.247 132.126 132.105
157.544 133.308 130.006
157.099 132.238 131.405
158.464 131.618 131.276
145.618 134.297 131.793
148.689 135.456 130.729
147.436 134.589 131.576
150.36 135.318 130.546
149.917 134.353 131.222
151.734 133.628 131.269
154.589 120.443 126.737
153.157 119.798 127.878
154.397 119.255 127.358
155.569 118.949 126.794
156.767 120.027 126.065
157.738 118.767 126.436
158.827 119.905 126.008
159.942 118.853 126.913
160.559 120.437 126.504
161.591 120.268 127.619
150.783 122.117 128.053
149.205 122.467 128.65
149.826 120.928 129.019
151.308 120.152 128.508
152.644 121.296 127.629
162.104 121.977 128.044
148.507 124.006 128.477
147.176 123.956 130.273
148.134 122.994 129.733
162.502 123.261 128.733
162.536 124.739 129.054
162.779 123.061 130.405
146.822 125.337 129.469
145.304 126.653 130.797
146.052 125.12 131.353
162.425 125.794 129.905
162.692 124.446 130.955
144.187 127.884 132.023
161.959 125.848 131.368
161.68 127.162 130.363
142.069 130.98 133.041
143.379 128.812 133.315
160.807 128.007 131.558
143.549 132.022 134.081
155.957 131.34 132.929
154.485 130.141 134.338
154.332 131.236 133.439
157.427 131.04 132.421
156.372 130.379 133.669
158.914 130.649 131.717
158.144 129.677 133.067
159.593 128.7 132.521
145.303 132.455 133.6
149.015 133.444 132.039
148.283 132.269 133.156
147.56 133.321 132.398
150.585 132.956 132.143
149.55 131.916 133.202
152.031 132.589 132.191
151.175 131.748 133.392
152.826 131.389 133.476
146.207 133.459 132.568
154.225 118.105 127.85
152.864 117.448 128.999
153.869 116.893 128.253
155.036 116.575 127.705
156.273 117.672 127.016
157.179 116.46 127.378
158.379 117.6 127.003
159.263 116.551 128.007
159.581 117.696 127.413
160.557 117.763 128.14
152.395 118.928 128.798
150.834 118.662 129.666
151.942 118.137 129.489
161.533 119.108 128.367
162.453 120.455 129.159
162.488 119.342 130.334
148.44 121.731 129.768
147.482 122.579 131.249
148.485 120.53 130.8
149.839 119.682 129.694
162.783 121.845 129.62
162.73 121.076 131.135
146.617 123.854 132.353
162.644 122.64 131.961
144.9 126.365 132.634
145.98 125.071 133.328
162.42 124.405 132.448
144.603 127.459 133.943
161.93 125.494 132.48
161.125 126.691 132.469
143.098 130.26 134.336
144.422 128.535 134.755
158.68 128.136 133.69
157.512 127.364 134.859
157.362 128.808 134.259
160.094 127.587 132.843
159.4 126.941 134.127
144.632 130.73 135.082
146.023 131.395 134.337
148.136 131.116 134.185
146.697 130.47 135.291
149.926 130.735 134.27
148.515 130.021 135.399
151.547 130.43 134.349
150.176 129.452 135.401
153.142 130.422 134.16
152.166 129.427 135.059
154.095 129.134 135.104
156.033 129.365 134.434
146.84 132.146 133.538
153.607 115.911 129.009
152.501 115.385 129.836
153.59 114.637 129.295
154.702 114.364 128.701
155.739 115.341 128.025
156.712 114.199 128.41
157.725 115.335 127.903
158.572 114.303 128.862
159.025 115.369 128.42
160.161 115.308 129.188
151.375 117.238 129.932
150.17 116.867 130.546
151.439 116.151 130.288
161.009 116.584 129.198
161.792 118.05 129.504
162.185 117.359 130.881
149.26 118.868 130.965
148.9 118.262 132.385
149.09 117.559 131.154
162.533 119.259 131.83
147.822 121.606 132.403
148.725 120.317 132.519
162.629 120.995 132.715
147.361 123.064 133.539
148.27 121.884 133.911
162.244 122.882 133.335
145.672 126.209 134.669
146.929 124.507 134.768
161.667 125.005 133.419
161.638 123.74 133.919
160.687 124.437 134.523
146.047 127.666 135.64
147.042 126.065 135.886
160.585 126.06 133.936
159.55 125.062 135.076
158.918 126.08 135.012
145.294 129.357 135.434
147.112 129.049 135.766
147.993 127.27 136.109
148.699 128.344 135.837
150.924 128.383 135.759
149.723 127.23 136.035
152.751 128.182 135.571
151.524 127.015 135.881
154.633 128.02 135.355
153.401 126.879 135.806
156.166 127.97 135.072
155.336 126.779 135.625
157.268 126.3 135.393
155.763 112.055 129.313
154.457 111.449 129.772
155.706 110.886 129.662
156.995 110.772 129.782
157.981 112.159 129.693
158.485 111.092 130.321
153.568 113.345 129.488
151.908 113.669 130.593
152.751 112.253 130.368
155.6 113.241 128.781
157.645 113.043 129.045
159.495 112.353 130.1
159.927 113.792 129.744
160.939 112.655 130.674
161.376 114.263 130.897
161.799 113.553 132.105
151.286 115.191 130.651
149.736 115.048 131.48
150.349 113.875 131.483
161.524 115.621 130.301
162.078 115.68 131.942
149.174 116.39 131.581
148.48 115.939 132.913
148.828 115.25 132.026
162.404 117.465 132.443
149.331 117.403 133.625
149.67 118.8 133.623
150.747 118.353 134.628
162.458 119.252 133.305
149.437 120.064 133.723
150.545 119.588 134.541
162.106 121.204 133.998
148.33 123.35 135.267
149.221 121.674 134.817
161.326 122.834 134.451
161.283 121.782 134.842
160.198 122.496 135.448
148.429 124.841 136.062
149.841 122.956 135.971
150.375 124.432 136.307
152.525 124.412 136.265
151.492 123.182 136.394
154.49 124.3 136.246
153.312 123.049 136.377
156.268 124.237 136.332
155.187 122.954 136.462
158.003 123.926 136.018
156.897 122.911 136.439
159.598 123.902 135.347
158.68 122.67 136.09
148.636 126.229 136.298
150.115 125.845 136.238
151.98 125.667 136.081
153.873 125.558 135.985
155.684 125.446 136.038
157.622 125.088 135.806
155.862 109.828 130.319
153.932 109.695 130.443
154.913 108.552 130.622
156.627 108.427 130.827
158.07 109.831 130.801
158.42 108.364 131.645
159.778 110.094 131.36
159.936 109.055 132.064
151.206 111.176 131.443
149.885 110.679 132.227
151.063 109.978 131.765
152.165 109.704 131.046
153.252 110.865 130.367
159.961 111.222 130.825
160.877 110.704 132.194
161.275 111.897 131.805
161.634 111.757 133.234
149.249 112.518 132.304
147.633 113.02 133.561
148.243 111.578 133.09
150.845 112.587 131.535
162.178 113.985 133.278
148.598 114.124 132.548
148.126 114.295 134.357
162.288 115.854 133.435
148.923 115.559 134.398
149.166 116.53 134.001
150.275 116.746 134.877
162.211 117.573 134.093
151.713 119.531 135.549
151.564 117.69 135.442
152.801 118.284 136.319
161.98 119.513 134.614
150.565 120.76 135.089
152.321 120.78 136.212
153.188 119.492 136.517
161.189 120.88 135.204
161.146 119.578 135.779
160.104 120.338 136.12
150.657 121.914 135.795
152.226 121.911 136.185
153.819 120.572 136.631
154.178 121.759 136.467
156.191 121.657 136.661
155.399 120.479 136.863
157.936 121.475 136.432
157.121 120.243 136.948
159.568 121.376 135.952
158.712 120.153 136.724
152.825 107.146 131.227
151.608 106.544 131.889
152.772 105.815 131.447
154.066 105.712 131.37
154.977 107.206 130.904
155.893 105.749 131.606
156.959 107.137 131.389
157.674 105.994 132.141
158.447 107.03 132.076
159.505 106.717 133.389
151.016 108.746 131.899
148.932 109.116 133.187
150.171 107.754 132.689
153.185 108.452 130.908
159.856 108.158 132.891
160.86 109.909 132.891
160.948 109.895 133.812
148.738 110.263 133.013
146.831 111.543 134.211
146.759 109.982 134.242
161.767 112.054 134.557
147.426 112.646 135.465
161.98 113.945 134.758
148.828 113.607 135.634
149.812 115.037 135.51
151.396 114.95 135.998
150.453 113.788 136.292
152.338 114.22 136.719
161.988 115.625 134.99
151.403 116.144 135.65
152.621 115.67 136.506
161.482 116.963 135.559
160.811 115.284 136.105
160.318 116.359 136.537
154.422 118.212 137.1
153.028 116.955 136.607
156.16 117.942 137.462
154.691 116.896 137.375
156.302 116.428 137.556
160.01 117.847 136.593
159.045 116.17 137.015
158.532 117.436 137.1
161.425 118.424 135.477
154.772 119.456 137.094
156.368 119.216 137.27
157.351 117.376 137.402
158.191 118.867 137.202
159.991 119.178 136.548
153.006 104.702 131.998
151.253 104.791 132.575
152.409 103.256 132.62
154.185 103.094 132.68
155.092 104.426 132.063
156.178 103.181 133.01
156.947 104.696 132.368
157.817 104.05 133.425
158.579 105.395 133.01
159.16 105.148 134.269
148.344 106.989 133.861
147.038 106.839 134.555
148.379 105.676 134.13
149.595 105.163 133.454
150.374 106.304 132.702
159.87 106.724 135.154
146.164 108.947 134.807
144.778 109.025 136.198
145.435 107.557 135.516
148.387 108.237 133.694
160.43 108.181 134.364
160.735 109.777 134.9
145.686 110.629 136.486
146.889 111.092 136.401
161.076 110.936 135.547
160.656 109.568 135.9
160.159 110.317 136.66
148.404 111.832 136.686
149.765 112.672 136.412
151.909 112.903 136.988
150.372 111.621 137.323
153.687 112.767 137.433
152.199 111.449 137.533
153.753 111.304 137.505
161.023 112.256 135.871
159.564 111.591 136.785
153.968 114.206 137.263
155.048 112.189 137.218
155.782 113.534 137.125
157.804 113.195 136.766
156.425 111.978 137.002
159.636 113.047 136.531
158.068 111.748 136.939
160.997 113.99 135.903
154.004 115.682 137.323
155.606 115.194 137.447
157.191 114.38 137.045
159.259 114.594 136.756
157.681 115.576 137.251
150.717 102.252 133.733
149.407 102.049 134.527
150.726 101.102 134.162
152.253 100.748 134.059
153.139 101.868 133.299
154.422 100.439 134.385
155.213 101.83 133.491
155.982 100.888 134.902
156.89 102.153 134.103
157.385 101.773 135.708
148.575 104.284 134.313
146.603 104.265 135.187
148.134 103.265 134.759
150.703 103.33 133.011
158.092 103.331 134.603
159.024 104.831 135.663
146.249 106.042 135.131
144.349 107.43 137.221
145.067 105.741 135.58
159.152 106.096 136.462
145.215 108.734 138.009
160.02 108.347 135.999
159.106 107.44 136.667
145.824 109.909 137.546
149.075 110.837 137.66
147.547 110.157 137.917
151.188 110.467 138.125
149.684 109.539 138.392
153.318 110.136 137.943
151.737 108.993 138.48
155.455 109.536 137.682
153.848 108.556 138.038
157.313 109.19 137.474
155.846 107.985 137.757
159.122 108.929 137.113
157.663 107.746 137.571
155.147 110.662 137.394
156.822 110.556 137.139
158.518 110.349 137.079
150.806 100.093 134.802
149.05 100.241 135.338
150.462 99.0588 135.333
152.118 98.3363 135.452
153.133 99.4649 134.834
154.091 98.3406 135.952
154.909 99.4955 135.613
155.593 98.9909 137.315
147.694 102.367 135.254
146.171 102.647 135.897
147.611 101.231 135.682
156.105 100.299 136.403
156.93 101.72 137.189
142.931 105.67 136.698
142.065 104.674 138.209
143.059 103.747 136.74
144.555 103.141 136.345
144.568 105.041 135.861
158.322 103.429 136.22
157.574 103.257 137.39
142.762 106.961 138.312
146.41 107.898 138.882
144.794 106.815 139.21
148.568 107.42 139.032
147.124 106.469 139.328
149.169 105.905 139.314
158.303 104.89 137.119
157.141 104.835 138.008
146.903 109.174 138.599
148.602 108.775 138.828
150.354 106.631 139.055
150.811 107.802 138.84
152.863 107.383 138.557
152.135 106.053 138.957
154.912 106.925 138.017
153.83 105.81 138.634
157.01 106.379 137.885
155.691 105.461 138.323
158.425 106.532 137.378
149.886 98.1828 135.886
148.569 97.8726 136.325
149.577 95.764 137.036
151.002 96.2219 136.673
152.032 97.29 136.265
152.991 96.1644 137.58
147.686 99.9539 136.046
146.794 99.133 136.803
147.739 98.3021 136.608
154.037 97.4267 137.004
155.087 98.2282 138.404
143.632 102.226 137.128
142.209 102.651 138.075
143.668 100.999 137.606
145.153 100.275 137.246
145.842 101.291 136.512
156.117 101.067 138.281
155.432 100.314 139.143
143.373 103.895 139.543
143.17 105.752 139.353
144.932 104.986 139.726
145.899 103.293 139.954
147.036 103.777 140.011
155.007 102.841 139.114
154.535 101.804 139.629
153.159 103.034 139.826
156.5 102.615 138.208
146.629 105.319 139.615
151.062 105.115 139.591
148.877 104.754 139.84
153.195 104.413 139.303
151.161 103.911 140.043
154.833 104.506 138.742
156.174 103.908 138.361
147.958 96.602 137.213
146.967 96.3186 137.945
148.492 94.7583 138.427
150.396 94.5544 138.379
151.814 95.24 138.099
153.136 95.8965 139.556
144.231 99.5188 137.988
143.519 98.6512 138.658
144.586 97.6093 138.548
145.591 97.0574 138.247
146.106 98.2471 137.471
154.14 96.9933 138.906
154.517 98.996 139.707
142.347 100.966 138.407
141.938 100.856 140.177
142.286 99.4151 138.917
153.928 100.9 140.063
153.785 99.464 140.387
152.897 100.218 140.75
142.556 102.662 139.728
144.301 102.281 140.492
145.925 102.197 140.541
148.685 103.558 140.365
147.898 102.25 140.907
150.578 102.994 140.473
149.661 101.896 141.15
152.309 102.159 140.328
151.414 101.143 141.015
144.935 95.7439 139.154
143.541 96.0193 139.498
144.934 94.2834 140.268
146.906 94.2 139.615
146.553 95.3224 138.661
148.671 93.8513 140.202
150.034 94.0515 139.913
151.625 94.7747 139.855
152.458 95.8302 140.986
141.632 98.8627 139.935
140.55 98.1328 140.774
141.384 97.2967 140.441
142.23 96.6098 139.988
142.873 98.1082 139.289
153.68 97.983 140.557
152.873 97.3857 141.449
141.614 99.8103 141.638
143.793 101.327 141.052
143.285 100.207 142.052
145.78 101.046 141.332
145.121 100.109 142.464
147.566 101.055 141.699
146.93 99.9885 142.777
149.303 100.597 141.97
148.458 99.6628 142.929
150.788 100.004 141.744
149.874 98.8372 142.898
152.324 99.1766 141.358
151.375 98.511 142.319
141.24 95.5711 140.978
139.839 95.349 142.484
141.958 94.5562 142.577
143.255 94.1018 141.68
142.981 94.8944 140.327
145.117 93.6548 141.886
146.52 93.6039 141.177
148.165 93.4418 141.779
149.879 93.8491 141.637
151.273 94.9862 141.602
150.634 95.082 142.781
139.865 96.8018 141.324
139.043 97.8996 142.321
138.875 96.2682 142.988
151.037 96.9946 142.963
149.937 96.0082 143.746
149.574 97.5384 143.815
152.168 96.7894 142.105
140.331 98.8334 142.259
141.869 99.0296 143.261
143.256 99.2174 143.383
144.89 99.218 143.688
146.628 99.1423 143.817
148.318 98.2986 144.107
140.867 95.2453 143.848
142.489 94.9776 144.297
143.577 94.3988 143.664
144.836 93.8212 143.406
146.628 93.6586 142.988
148.12 94.1387 143.486
147.485 94.9971 144.812
149.372 94.4882 143.337
139.432 97.9528 143.913
140.016 96.2772 144.604
148.816 96.1024 144.615
147.589 97.0118 145.019
140.817 98.4092 144.169
142.799 98.4038 144.593
144.514 98.3765 144.92
146.338 98.1256 145.004
141.867 96.1061 145.214
143.544 95.7812 145.203
144.791 95.2134 144.785
146.024 94.4967 144.576
141.387 97.5634 145.099
143.153 97.3644 145.662
144.835 97.0592 145.753
146.195 96.2468 145.564
POLYGONS 1460  5840
3 0 1 2
3 0 3 4
3 2 3 0
3 4 5 6
3 3 5 4
3 5 7 6
3 8 1 0
3 9 1 8
3 4 10 0
3 10 8 0
3 6 11 4
3 11 10 4
3 12 6 7
3 11 6 12
3 13 14 15
3 9 13 15
3 9 8 13
3 8 16 13
3 10 17 8
3 17 16 8
3 11 18 10
3 18 17 10
3 19 11 12
3 18 11 19
3 20 14 13
3 21 14 20
3 16 22 13
3 22 20 13
3 23 17 24
3 23 22 17
3 22 16 17
3 18 24 17
3 25 24 18
3 19 25 18
3 20 26 21
3 22 26 20
3 27 26 22
3 23 27 22
3 28 29 30
3 28 31 32
3 30 31 28
3 32 33 34
3 31 33 32
3 34 35 36
3 33 35 34
3 35 37 36
3 38 39 40
3 29 38 40
3 28 38 29
3 28 1 38
3 28 2 1
3 3 2 28
3 32 3 28
3 5 3 32
3 34 5 32
3 7 5 34
3 7 34 41
3 41 34 36
3 42 36 37
3 41 36 42
3 43 44 45
3 39 43 45
3 39 38 43
3 38 46 43
3 1 9 46
3 38 1 46
3 41 47 12
3 7 41 12
3 48 41 42
3 47 41 48
3 49 44 43
3 50 44 49
3 15 14 49
3 15 49 46
3 46 49 43
3 9 15 46
3 47 51 52
3 47 52 12
3 12 52 19
3 48 51 47
3 53 50 49
3 54 50 53
3 14 21 53
3 49 14 53
3 55 56 57
3 55 23 24
3 55 24 56
3 56 24 58
3 25 59 24
3 24 59 58
3 52 25 19
3 59 25 52
3 53 60 54
3 21 60 53
3 21 26 60
3 26 61 60
3 57 27 55
3 57 61 27
3 61 26 27
3 23 55 27
3 62 63 64
3 62 65 66
3 64 65 62
3 65 67 66
3 68 69 70
3 68 71 72
3 70 71 68
3 72 73 74
3 71 73 72
3 63 74 73
3 63 62 74
3 62 75 74
3 66 76 62
3 76 75 62
3 77 66 67
3 77 78 66
3 78 76 66
3 77 79 78
3 80 81 82
3 69 80 82
3 69 68 80
3 68 83 80
3 30 29 83
3 30 83 72
3 72 83 68
3 31 30 72
3 74 31 72
3 33 31 74
3 75 33 74
3 35 33 75
3 76 35 75
3 37 35 76
3 37 76 84
3 84 76 78
3 85 78 79
3 84 78 85
3 86 87 88
3 81 86 88
3 81 80 86
3 80 89 86
3 40 39 89
3 40 89 83
3 83 89 80
3 29 40 83
3 84 90 42
3 37 84 42
3 91 84 85
3 90 84 91
3 92 87 86
3 93 87 92
3 45 44 92
3 45 92 89
3 89 92 86
3 39 45 89
3 90 94 95
3 90 95 42
3 42 95 48
3 91 94 90
3 96 97 98
3 93 96 98
3 93 92 96
3 92 99 96
3 44 50 99
3 92 44 99
3 51 100 101
3 52 51 101
3 95 51 48
3 100 51 95
3 96 102 97
3 102 103 104
3 102 96 103
3 96 99 103
3 50 54 103
3 99 50 103
3 105 106 107
3 105 57 56
3 105 56 106
3 106 56 108
3 58 109 56
3 56 109 108
3 59 110 58
3 58 110 109
3 101 59 52
3 110 59 101
3 103 111 104
3 54 111 103
3 54 60 111
3 60 112 111
3 107 61 105
3 107 112 61
3 112 60 61
3 57 105 61
3 113 114 115
3 113 116 117
3 115 116 113
3 117 118 119
3 116 118 117
3 119 120 121
3 118 120 119
3 120 122 121
3 123 124 125
3 123 126 127
3 125 126 123
3 114 127 126
3 114 113 127
3 113 128 127
3 64 63 128
3 64 128 117
3 117 128 113
3 65 64 117
3 119 65 117
3 67 65 119
3 67 119 129
3 129 119 121
3 130 121 122
3 129 121 130
3 131 132 133
3 124 131 133
3 123 131 124
3 123 69 131
3 123 70 69
3 71 70 123
3 127 71 123
3 73 71 127
3 128 73 127
3 63 73 128
3 67 129 77
3 129 79 77
3 129 130 79
3 130 134 79
3 135 136 137
3 132 135 137
3 131 135 132
3 131 81 135
3 131 82 81
3 69 82 131
3 79 134 85
3 134 138 85
3 139 140 141
3 136 139 141
3 135 139 136
3 135 87 139
3 135 88 87
3 81 88 135
3 85 138 91
3 138 142 91
3 143 140 139
3 144 140 143
3 87 93 143
3 139 87 143
3 94 145 146
3 95 94 146
3 142 94 91
3 145 94 142
3 98 144 143
3 98 97 144
3 97 147 144
3 93 98 143
3 148 149 150
3 148 151 152
3 149 148 152
3 151 153 154
3 152 151 154
3 153 101 100
3 153 100 154
3 154 100 155
3 146 100 95
3 155 100 146
3 97 156 147
3 102 156 97
3 104 157 158
3 104 158 102
3 102 158 156
3 157 159 160
3 158 157 160
3 159 107 106
3 159 106 160
3 160 106 161
3 150 108 148
3 150 161 108
3 161 106 108
3 109 148 108
3 151 148 109
3 110 151 109
3 153 151 110
3 101 153 110
3 104 111 157
3 112 157 111
3 159 157 112
3 107 159 112
3 162 163 164
3 162 165 166
3 164 165 162
3 166 167 168
3 165 167 166
3 168 169 170
3 167 169 168
3 169 171 170
3 172 173 174
3 172 175 176
3 174 175 172
3 163 176 175
3 162 176 163
3 162 114 176
3 162 115 114
3 116 115 162
3 166 116 162
3 118 116 166
3 168 118 166
3 120 118 168
3 170 120 168
3 170 122 120
3 170 171 122
3 171 177 122
3 178 179 180
3 173 178 180
3 172 178 173
3 172 124 178
3 172 125 124
3 126 125 172
3 176 126 172
3 114 126 176
3 181 182 130
3 181 130 177
3 177 130 122
3 181 183 182
3 184 185 186
3 179 184 186
3 178 184 179
3 178 132 184
3 178 133 132
3 124 133 178
3 182 187 134
3 130 182 134
3 188 182 183
3 187 182 188
3 137 185 184
3 137 136 185
3 136 189 185
3 132 137 184
3 187 190 191
3 187 191 134
3 134 191 138
3 188 190 187
3 141 192 193
3 140 192 141
3 189 136 141
3 193 189 141
3 138 191 142
3 191 194 142
3 140 144 192
3 192 144 195
3 196 197 198
3 196 199 200
3 197 196 200
3 199 201 202
3 200 199 202
3 201 146 145
3 201 145 202
3 202 145 203
3 194 145 142
3 203 145 194
3 144 147 195
3 195 147 204
3 205 206 207
3 205 208 209
3 206 205 209
3 208 210 211
3 209 208 211
3 210 150 149
3 210 149 211
3 211 149 212
3 198 152 196
3 198 212 152
3 212 149 152
3 154 196 152
3 199 196 154
3 155 199 154
3 201 199 155
3 146 201 155
3 147 213 204
3 156 213 147
3 207 158 205
3 207 213 158
3 213 156 158
3 160 205 158
3 208 205 160
3 161 208 160
3 210 208 161
3 150 210 161
3 214 215 216
3 214 217 218
3 216 217 214
3 218 219 220
3 217 219 218
3 220 221 222
3 219 221 220
3 221 223 222
3 224 225 226
3 215 224 226
3 214 224 215
3 214 163 224
3 214 164 163
3 165 164 214
3 218 165 214
3 167 165 218
3 220 167 218
3 169 167 220
3 222 169 220
3 171 227 228
3 169 227 171
3 169 223 227
3 169 222 223
3 227 229 228
3 230 231 232
3 230 174 173
3 230 232 174
3 232 233 174
3 225 224 175
3 225 175 233
3 233 175 174
3 163 175 224
3 228 234 177
3 171 228 177
3 235 228 229
3 234 228 235
3 180 231 230
3 180 179 231
3 179 236 231
3 173 180 230
3 177 234 181
3 234 183 181
3 234 235 183
3 235 237 183
3 186 238 239
3 185 238 186
3 236 179 186
3 239 236 186
3 183 237 188
3 237 240 188
3 185 189 238
3 238 189 241
3 190 242 243
3 191 190 243
3 240 190 188
3 242 190 240
3 193 244 245
3 192 244 193
3 241 189 193
3 245 241 193
3 246 247 248
3 246 249 250
3 247 246 250
3 249 243 250
3 249 194 243
3 194 191 243
3 251 195 252
3 251 244 195
3 244 192 195
3 252 253 254
3 251 252 254
3 253 255 256
3 254 253 256
3 255 257 258
3 256 255 258
3 257 259 260
3 258 257 260
3 259 198 197
3 259 197 260
3 260 197 261
3 200 262 197
3 197 262 261
3 248 202 246
3 248 262 202
3 262 200 202
3 203 246 202
3 249 246 203
3 194 249 203
3 252 204 263
3 195 204 252
3 206 263 207
3 206 253 263
3 253 252 263
3 209 253 206
3 255 253 209
3 211 255 209
3 257 255 211
3 212 257 211
3 259 257 212
3 198 259 212
3 204 213 263
3 207 263 213
3 264 265 266
3 264 267 268
3 266 267 264
3 268 269 270
3 267 269 268
3 270 271 272
3 269 271 270
3 271 273 272
3 274 275 276
3 265 274 276
3 264 274 265
3 264 215 274
3 264 216 215
3 217 216 264
3 268 217 264
3 219 217 268
3 270 219 268
3 221 219 270
3 272 221 270
3 223 277 278
3 221 277 223
3 221 273 277
3 221 272 273
3 277 279 278
3 280 281 282
3 275 280 282
3 274 280 275
3 274 225 280
3 274 226 225
3 215 226 274
3 223 278 227
3 278 229 227
3 278 279 229
3 279 283 229
3 232 231 284
3 280 285 281
3 280 232 285
3 280 233 232
3 284 285 232
3 225 233 280
3 229 283 235
3 283 286 235
3 284 287 288
3 284 231 287
3 231 236 287
3 285 284 288
3 235 286 237
3 286 289 237
3 239 238 290
3 239 290 291
3 239 291 236
3 236 291 287
3 292 293 294
3 292 289 293
3 292 240 289
3 240 237 289
3 290 241 295
3 238 241 290
3 296 291 290
3 295 296 290
3 297 298 299
3 294 298 297
3 292 294 297
3 292 297 243
3 292 243 242
3 240 292 242
3 245 244 300
3 245 295 241
3 245 300 295
3 300 301 295
3 302 296 295
3 302 295 303
3 303 295 301
3 303 304 305
3 302 303 305
3 304 306 307
3 305 304 307
3 306 308 309
3 307 306 309
3 308 310 311
3 309 308 311
3 310 248 247
3 310 247 311
3 311 247 312
3 299 250 297
3 299 312 250
3 312 247 250
3 243 297 250
3 244 251 300
3 254 300 251
3 301 300 254
3 256 301 254
3 303 301 256
3 258 303 256
3 304 303 258
3 260 304 258
3 306 304 260
3 261 306 260
3 308 306 261
3 262 308 261
3 310 308 262
3 248 310 262
3 313 314 315
3 313 316 317
3 315 316 313
3 316 318 317
3 319 320 321
3 314 319 321
3 314 313 319
3 313 322 319
3 317 323 313
3 323 322 313
3 324 317 318
3 324 325 317
3 325 323 317
3 325 326 327
3 324 326 325
3 326 328 327
3 329 330 331
3 320 329 331
3 319 329 320
3 319 265 329
3 319 266 265
3 267 266 319
3 322 267 319
3 269 267 322
3 323 269 322
3 271 269 323
3 325 271 323
3 273 271 325
3 273 325 332
3 332 325 327
3 333 327 328
3 332 327 333
3 334 335 336
3 330 334 336
3 329 334 330
3 329 275 334
3 329 276 275
3 265 276 329
3 273 332 277
3 332 279 277
3 332 333 279
3 333 337 279
3 338 281 339
3 338 335 281
3 282 281 334
3 334 281 335
3 282 334 275
3 339 340 338
3 279 337 283
3 337 341 283
3 339 342 343
3 339 281 342
3 281 285 342
3 340 339 343
3 283 341 286
3 341 344 286
3 288 287 345
3 288 345 346
3 288 346 285
3 285 346 342
3 347 348 349
3 347 344 348
3 347 289 344
3 289 286 344
3 345 291 350
3 287 291 345
3 351 346 345
3 351 345 352
3 352 345 350
3 352 353 354
3 351 352 354
3 353 355 356
3 354 353 356
3 355 357 358
3 356 355 358
3 357 359 360
3 358 357 360
3 359 361 362
3 360 359 362
3 349 362 361
3 347 349 361
3 347 361 294
3 347 294 293
3 289 347 293
3 350 296 363
3 291 296 350
3 352 350 364
3 364 350 363
3 353 352 365
3 365 352 364
3 355 353 366
3 366 353 365
3 357 355 367
3 367 355 366
3 359 357 368
3 368 357 367
3 298 368 299
3 298 361 368
3 361 359 368
3 294 361 298
3 296 302 363
3 305 363 302
3 364 363 305
3 307 364 305
3 365 364 307
3 309 365 307
3 366 365 309
3 311 366 309
3 367 366 311
3 312 367 311
3 368 367 312
3 299 368 312
3 369 370 371
3 369 372 373
3 371 372 369
3 373 374 375
3 372 374 373
3 374 376 375
3 377 378 379
3 377 380 381
3 379 380 377
3 370 381 380
3 369 381 370
3 369 314 381
3 369 315 314
3 316 315 369
3 373 316 369
3 318 316 373
3 318 373 382
3 382 373 375
3 383 375 376
3 383 384 375
3 384 382 375
3 383 385 384
3 386 387 388
3 378 386 388
3 378 377 386
3 377 389 386
3 321 320 389
3 321 389 381
3 381 389 377
3 314 321 381
3 318 382 324
3 326 324 382
3 384 326 382
3 384 328 326
3 384 385 328
3 385 390 328
3 391 387 386
3 392 387 391
3 331 330 391
3 331 391 389
3 389 391 386
3 320 331 389
3 328 390 333
3 390 393 333
3 394 335 395
3 394 392 335
3 336 335 391
3 391 335 392
3 336 391 330
3 395 396 394
3 333 393 337
3 393 397 337
3 335 338 395
3 340 398 399
3 338 340 399
3 338 399 396
3 338 396 395
3 399 398 400
3 337 397 341
3 397 401 341
3 343 342 402
3 343 398 340
3 343 402 398
3 402 403 398
3 404 400 398
3 403 404 398
3 405 406 407
3 405 401 406
3 405 344 401
3 344 341 401
3 402 346 408
3 342 346 402
3 403 402 409
3 409 402 408
3 410 404 403
3 410 403 411
3 411 403 409
3 411 412 413
3 410 411 413
3 412 414 415
3 413 412 415
3 414 416 417
3 415 414 417
3 407 417 416
3 405 407 416
3 405 416 349
3 405 349 348
3 344 405 348
3 346 351 408
3 354 408 351
3 409 408 354
3 356 409 354
3 411 409 356
3 358 411 356
3 412 411 358
3 360 412 358
3 414 412 360
3 362 414 360
3 416 414 362
3 349 416 362
3 418 419 420
3 418 421 422
3 420 421 418
3 422 423 424
3 421 423 422
3 424 425 426
3 423 425 424
3 425 427 426
3 428 429 430
3 419 428 430
3 419 418 428
3 418 431 428
3 371 370 431
3 371 431 422
3 422 431 418
3 372 371 422
3 424 372 422
3 374 372 424
3 426 374 424
3 376 432 433
3 374 432 376
3 374 427 432
3 374 426 427
3 432 434 433
3 435 436 437
3 429 435 437
3 428 435 429
3 428 378 435
3 428 379 378
3 380 379 428
3 431 380 428
3 370 380 431
3 376 433 383
3 433 385 383
3 433 434 385
3 434 438 385
3 388 436 435
3 388 387 436
3 387 439 436
3 378 388 435
3 385 438 390
3 438 440 390
3 441 392 442
3 441 439 392
3 439 387 392
3 442 443 444
3 441 442 444
3 444 443 445
3 390 440 393
3 440 446 393
3 392 394 442
3 396 442 394
3 396 447 442
3 447 443 442
3 448 445 443
3 447 448 443
3 449 450 451
3 449 446 450
3 449 397 446
3 397 393 446
3 396 399 447
3 400 452 453
3 399 400 453
3 399 453 448
3 399 448 447
3 452 454 455
3 453 452 455
3 455 454 456
3 457 458 459
3 451 458 457
3 451 457 449
3 449 457 460
3 397 460 401
3 449 460 397
3 452 404 461
3 400 404 452
3 454 452 462
3 462 452 461
3 463 456 454
3 463 454 464
3 464 454 462
3 459 463 464
3 459 464 457
3 457 464 465
3 406 465 407
3 406 460 465
3 460 457 465
3 401 460 406
3 404 410 461
3 413 461 410
3 462 461 413
3 415 462 413
3 464 462 415
3 417 464 415
3 465 464 417
3 407 465 417
3 466 467 468
3 466 469 470
3 468 469 466
3 470 471 472
3 469 471 470
3 472 473 474
3 471 473 472
3 473 475 474
3 476 477 478
3 476 479 480
3 478 479 476
3 467 480 479
3 466 480 467
3 466 419 480
3 466 420 419
3 421 420 466
3 470 421 466
3 423 421 470
3 472 423 470
3 425 423 472
3 474 425 472
3 474 427 425
3 474 475 427
3 475 481 427
3 482 483 484
3 477 482 484
3 477 476 482
3 476 485 482
3 430 429 485
3 430 485 480
3 480 485 476
3 419 430 480
3 427 481 486
3 432 427 486
3 486 434 432
3 487 434 486
3 482 488 483
3 437 436 489
3 437 489 482
3 437 482 485
3 482 489 488
3 429 437 485
3 490 491 492
3 490 487 491
3 490 438 487
3 438 434 487
3 493 439 494
3 493 489 439
3 489 436 439
3 494 495 496
3 493 494 496
3 495 497 498
3 496 495 498
3 498 497 499
3 500 490 492
3 501 500 492
3 438 500 440
3 490 500 438
3 439 441 494
3 444 494 441
3 495 494 444
3 445 495 444
3 445 502 495
3 502 497 495
3 503 499 497
3 503 497 504
3 504 497 502
3 504 505 506
3 503 504 506
3 505 507 508
3 506 505 508
3 501 508 507
3 501 507 500
3 500 507 509
3 440 509 446
3 500 509 440
3 502 448 510
3 445 448 502
3 504 502 511
3 511 502 510
3 505 504 512
3 512 504 511
3 507 505 513
3 513 505 512
3 450 513 451
3 450 509 513
3 509 507 513
3 446 509 450
3 448 453 510
3 455 510 453
3 511 510 455
3 456 511 455
3 456 514 511
3 514 512 511
3 458 514 459
3 458 513 514
3 513 512 514
3 451 513 458
3 456 463 514
3 459 514 463
3 515 516 517
3 515 518 519
3 517 518 515
3 519 520 521
3 518 520 519
3 521 522 523
3 520 522 521
3 522 524 523
3 525 526 527
3 516 525 527
3 516 515 525
3 515 528 525
3 468 467 528
3 468 528 519
3 519 528 515
3 469 468 519
3 521 469 519
3 471 469 521
3 523 471 521
3 523 524 529
3 523 529 471
3 471 529 473
3 529 475 473
3 530 475 529
3 531 532 533
3 526 531 533
3 525 531 526
3 525 477 531
3 525 478 477
3 479 478 525
3 528 479 525
3 467 479 528
3 475 530 481
3 530 534 481
3 484 532 531
3 484 483 532
3 483 535 532
3 477 484 531
3 536 486 481
3 536 481 537
3 537 481 534
3 486 536 487
3 483 538 535
3 488 538 483
3 489 539 540
3 489 540 488
3 488 540 538
3 539 541 542
3 540 539 542
3 541 543 544
3 542 541 544
3 543 545 546
3 544 543 546
3 545 547 548
3 546 545 548
3 547 549 550
3 548 547 550
3 537 550 549
3 536 537 549
3 536 549 492
3 536 492 491
3 487 536 491
3 489 493 539
3 496 539 493
3 541 539 496
3 498 541 496
3 543 541 498
3 499 543 498
3 499 551 543
3 551 545 543
3 547 545 552
3 552 545 551
3 549 547 553
3 553 547 552
3 492 553 501
3 549 553 492
3 499 503 551
3 506 551 503
3 552 551 506
3 508 552 506
3 553 552 508
3 501 553 508
3 554 555 556
3 554 557 558
3 556 557 554
3 558 559 560
3 557 559 558
3 559 561 560
3 562 563 564
3 555 562 564
3 554 562 555
3 554 516 562
3 554 517 516
3 518 517 554
3 558 518 554
3 520 518 558
3 560 520 558
3 560 561 565
3 560 565 520
3 520 565 522
3 565 524 522
3 566 524 565
3 567 568 569
3 567 570 571
3 569 570 567
3 563 571 570
3 562 571 563
3 562 526 571
3 562 527 526
3 516 527 562
3 572 529 524
3 572 524 573
3 573 524 566
3 529 572 530
3 567 574 568
3 571 532 567
3 571 533 532
3 567 532 574
3 575 576 532
3 574 532 576
3 575 577 578
3 575 578 576
3 571 526 533
3 578 577 579
3 580 572 573
3 581 580 573
3 530 580 534
3 572 580 530
3 575 535 582
3 532 535 575
3 577 575 583
3 583 575 582
3 584 579 577
3 584 577 585
3 585 577 583
3 585 586 587
3 584 585 587
3 586 588 589
3 587 586 589
3 588 590 591
3 589 588 591
3 581 591 590
3 581 590 580
3 580 590 592
3 534 592 537
3 580 592 534
3 535 538 582
3 540 582 538
3 583 582 540
3 542 583 540
3 585 583 542
3 544 585 542
3 586 585 544
3 546 586 544
3 588 586 546
3 548 588 546
3 590 588 548
3 550 590 548
3 592 590 550
3 537 592 550
3 593 594 595
3 593 596 597
3 595 596 593
3 596 598 597
3 599 600 601
3 594 599 601
3 593 599 594
3 593 555 599
3 593 556 555
3 557 556 593
3 597 557 593
3 597 598 602
3 597 602 557
3 557 602 559
3 602 561 559
3 603 561 602
3 604 605 606
3 604 607 608
3 606 607 604
3 600 608 607
3 599 608 600
3 599 563 608
3 599 564 563
3 555 564 599
3 609 565 561
3 609 561 610
3 610 561 603
3 565 609 566
3 611 568 612
3 611 605 568
3 569 568 604
3 604 568 605
3 613 614 611
3 613 611 612
3 608 570 604
3 604 570 569
3 570 608 563
3 613 615 614
3 616 617 618
3 610 617 616
3 610 616 609
3 609 616 619
3 566 619 573
3 609 619 566
3 568 574 612
3 576 612 574
3 613 612 576
3 613 620 615
3 613 576 620
3 576 578 620
3 579 621 622
3 579 622 578
3 578 622 620
3 621 623 624
3 622 621 624
3 618 624 623
3 618 623 616
3 616 623 625
3 619 616 626
3 626 616 625
3 573 626 581
3 619 626 573
3 579 584 621
3 587 621 584
3 623 621 587
3 589 623 587
3 625 623 589
3 591 625 589
3 626 625 591
3 581 626 591
3 627 628 629
3 627 595 594
3 627 629 595
3 629 630 595
3 596 595 631
3 595 630 631
3 631 598 596
3 632 598 631
3 633 634 635
3 633 636 637
3 635 636 633
3 628 637 636
3 627 637 628
3 627 600 637
3 627 601 600
3 594 601 627
3 598 632 638
3 602 598 638
3 638 603 602
3 639 603 638
3 640 641 642
3 634 640 642
3 633 640 634
3 633 605 640
3 633 606 605
3 607 606 633
3 637 607 633
3 600 607 637
3 643 644 645
3 643 639 644
3 643 610 639
3 610 603 639
3 640 646 641
3 605 646 640
3 605 611 646
3 611 647 646
3 614 648 611
3 611 648 647
3 615 649 650
3 615 650 614
3 614 650 648
3 649 651 652
3 650 649 652
3 651 653 654
3 652 651 654
3 645 654 653
3 643 645 653
3 643 653 618
3 643 618 617
3 610 643 617
3 615 620 649
3 622 649 620
3 651 649 622
3 624 651 622
3 653 651 624
3 618 653 624
3 655 656 657
3 655 658 659
3 657 658 655
3 659 629 628
3 659 658 629
3 658 660 629
3 630 629 661
3 629 660 661
3 631 630 662
3 630 661 662
3 662 632 631
3 663 632 662
3 664 665 666
3 664 667 668
3 666 667 664
3 656 668 667
3 655 668 656
3 655 634 668
3 655 635 634
3 636 635 655
3 659 636 655
3 628 636 659
3 669 638 632
3 669 632 670
3 670 632 663
3 638 669 639
3 664 671 665
3 668 641 664
3 668 642 641
3 664 641 671
3 672 673 641
3 671 641 673
3 672 674 675
3 672 675 673
3 668 634 642
3 674 676 677
3 675 674 677
3 676 678 679
3 677 676 679
3 678 680 681
3 679 678 681
3 680 682 683
3 681 680 683
3 670 683 682
3 669 670 682
3 669 682 645
3 669 645 644
3 639 669 644
3 641 646 672
3 647 672 646
3 674 672 647
3 648 674 647
3 676 674 648
3 650 676 648
3 678 676 650
3 652 678 650
3 680 678 652
3 654 680 652
3 682 680 654
3 645 682 654
3 684 685 686
3 684 687 688
3 686 687 684
3 688 657 656
3 688 687 657
3 687 689 657
3 658 657 690
3 657 689 690
3 660 658 691
3 658 690 691
3 661 660 692
3 660 691 692
3 693 692 694
3 693 662 692
3 662 661 692
3 662 693 663
3 695 696 697
3 685 695 697
3 684 695 685
3 684 665 695
3 684 666 665
3 667 666 684
3 688 667 684
3 656 667 688
3 698 699 700
3 694 699 698
3 694 698 693
3 693 698 701
3 663 701 670
3 693 701 663
3 695 702 696
3 665 702 695
3 665 671 702
3 671 703 702
3 673 704 671
3 671 704 703
3 675 705 673
3 673 705 704
3 677 706 675
3 675 706 705
3 679 707 677
3 677 707 706
3 700 681 698
3 700 707 681
3 707 679 681
3 683 698 681
3 701 698 683
3 670 701 683
3 686 708 709
3 685 708 686
3 687 686 710
3 686 709 710
3 689 687 711
3 687 710 711
3 690 689 712
3 689 711 712
3 713 712 714
3 713 691 712
3 691 690 712
3 691 715 692
3 713 715 691
3 692 715 694
3 697 696 716
3 697 716 717
3 697 717 685
3 685 717 708
3 718 713 714
3 719 718 714
3 699 718 700
3 699 715 718
3 715 713 718
3 694 715 699
3 696 702 716
3 716 720 717
3 716 702 720
3 702 703 720
3 704 721 703
3 703 721 720
3 705 722 704
3 704 722 721
3 706 723 705
3 705 723 722
3 719 707 718
3 719 723 707
3 723 706 707
3 700 718 707
3 709 708 724
3 709 725 710
3 724 725 709
3 710 726 711
3 725 726 710
3 711 727 712
3 726 727 711
3 712 727 714
3 724 717 728
3 708 717 724
3 725 724 729
3 729 724 728
3 726 725 730
3 730 725 729
3 727 726 731
3 731 726 730
3 714 731 719
3 727 731 714
3 717 720 728
3 721 728 720
3 729 728 721
3 722 729 721
3 730 729 722
3 723 730 722
3 731 730 723
3 719 731 723
