# vtk DataFile Version 3.0
this file was written using fslvtkio
ASCII
DATASET POLYDATA
POINTS 642 float
146.193 122.385 155.954
129.986 124.936 154.986
133.452 108.616 149.392
150.825 107.018 149.008
146.485 111.861 162.21
144.745 117.024 145.367
134.239 119.074 144.172
134.578 112.823 161.609
138.54 127.928 164.076
142.2 101.629 153.004
143.142 102.917 139.615
137.926 133.421 150.485
135.97 120.619 164.919
143.325 120.501 165.37
141.005 111.592 164.231
138.252 105.771 158.034
145.709 104.271 159.367
134.537 128.487 146.026
139.837 117.277 143.654
140.804 125.323 148.155
138.958 109.466 142.205
145.751 109.399 141.235
149.822 107.606 156.16
147.248 118.091 160.144
149.284 114.069 152.547
148.775 110.836 145.639
145.764 120.405 150.164
131.478 119.747 159.836
132.957 110.132 155.725
129.828 116.725 152.183
130.479 124.098 148.186
132.314 112.742 145.188
142.474 128.728 154.114
143.806 127.699 161.343
136.982 133.319 157.857
131.722 132.751 151.71
132.66 128.144 160.454
151.219 103.499 141.157
143.067 99.1414 144.995
148.487 101.82 150.822
136.529 103.31 143.503
136.225 101.945 150.817
139.771 120.308 165.991
142.15 115.941 165.891
138.438 115.949 164.973
144.124 111.15 164.155
145.1 116.28 164.237
141.24 124.441 165.432
137.254 124.388 164.838
134.947 116.581 163.903
137.542 111.902 163.256
139.519 108.344 161.674
143.259 107.534 162.174
141.86 104.765 159.322
146.635 107.671 161.041
136.359 109.169 159.951
140.011 103.016 155.894
143.892 102.528 156.498
137.272 123.494 145.307
140 121.728 145.783
138.114 127.201 146.65
142.689 120.945 146.974
142.328 117.442 144.227
137.175 118.641 144.123
134.31 123.962 144.834
136.469 131.429 147.501
139.535 129.534 149.233
142.191 109.348 140.682
142.93 113.034 142.166
139.432 113.515 142.577
145.255 113.439 143.11
144.607 106.474 139.165
140.439 106.162 140.061
136.607 114.158 143.56
148.625 112.714 158.026
147.928 115.501 156.334
149.66 111.264 154.645
147.337 117.978 154.372
146.872 120.249 158.074
147.099 114.962 161.289
148.32 109.857 159.34
150.527 107.199 152.78
150.302 110.608 150.72
149.532 112.951 148.89
147.367 116.863 151.372
147.8 115.612 147.977
146.176 121.586 152.922
150.233 108.658 146.502
147.167 114.437 145.409
145.046 118.734 147.891
131.487 114.82 157.971
130.811 113.318 154.291
129.928 117.793 156.228
131.006 112.369 150.782
132.927 109.231 152.55
133.617 111.319 158.734
132.664 116.285 161.058
130.066 122.1 157.626
129.662 120.749 153.678
130.02 120.283 149.977
130.944 114.992 148.569
131.225 118.248 146.921
132.428 110.493 147.172
130.059 124.52 151.502
131.752 121.751 145.424
133.118 115.775 144.289
143.132 129.238 157.827
140.939 131.692 160.573
140.376 132.715 156.12
137.548 131.194 161.444
141.683 128.306 163.531
145.301 125.308 158.583
144.632 125.686 155.105
140.415 130.972 152.359
137.124 134.268 153.744
133.831 134.135 154.392
134.256 131.593 159.028
131.4 131.007 156.24
135.21 128.345 162.706
134.374 134.288 149.554
130.43 128.853 153.739
130.798 126.719 157.942
147.759 100.329 142.545
145.98 100.245 147.431
149.868 101.719 145.667
145.262 101.396 151.983
142.435 100.16 149.131
143.032 100.339 141.668
147.595 103.259 139.408
151.35 104.942 145.515
150.726 103.946 150.102
135.792 101.358 146.838
139.281 99.5398 147.876
139.174 99.7463 143.738
139.091 101.519 151.929
134.372 104.772 150.063
134.706 105.695 146.611
139.297 102.909 140.96
145.867 119.641 163.123
143.998 124.466 163.857
145.813 123.135 160.924
144.331 124.778 152.158
141.946 127.299 150.903
143.526 123.152 149.249
147.145 102.351 155.306
148.537 105.528 158.203
149.964 103.951 153.835
150.681 107.233 142.732
147.216 110.667 143.641
148.558 106.777 139.22
133.872 124.77 163.753
133.083 120.27 163.152
131.677 124.155 160.507
130.569 128.683 150.277
131.776 126.456 146.247
132.677 131.776 147.944
134.649 105.899 153.33
135.361 107.412 156.912
136.938 103.687 154.536
137.282 106.666 142.334
135.554 111.508 143.927
134.844 108.409 144.997
140.878 118.063 166.164
140.215 115.967 165.59
139.052 118.128 165.566
139.845 113.839 164.79
141.449 113.903 165.359
142.701 118.214 165.958
141.625 120.255 166.062
137.969 120.301 165.467
137.328 118.398 165.098
143.083 113.64 165.188
143.71 116.071 165.312
144.431 113.871 164.624
144.232 118.372 165.083
142.539 111.441 164.518
145.341 111.568 163.457
145.645 113.927 163.565
140.518 122.325 166.001
138.534 122.324 165.621
139.293 124.108 165.607
136.639 122.459 164.999
142.292 122.471 165.58
139.841 126.049 164.986
137.978 126.026 164.662
136.698 116.404 164.547
138.053 113.891 164.311
136.357 114.292 163.76
139.28 111.813 163.848
135.499 118.572 164.589
134.839 114.469 163.025
136.001 112.404 162.664
141.35 107.917 161.949
142.466 106.051 160.848
140.585 106.402 160.551
143.771 104.544 159.589
144.373 105.791 160.934
142.08 109.428 163.267
140.282 109.844 163.076
138.99 106.859 159.982
139.957 105.349 159.016
145.028 107.394 161.965
143.68 109.207 163.434
145.432 109.292 162.854
146.17 105.719 160.527
146.552 109.788 161.813
138.502 110.04 162.564
137.829 108.537 160.846
136.76 110.337 161.805
137.508 107.36 159.216
135.424 111.008 160.962
140.836 103.949 157.75
142.892 103.483 158.063
141.875 102.785 156.459
144.834 103.21 158.111
139.129 104.349 157.159
141.184 102.168 154.626
143 101.956 154.943
138.861 122.662 145.484
139.229 124.555 146.479
137.74 125.352 145.88
139.484 126.111 147.356
140.284 123.816 147.003
139.679 119.527 144.829
138.443 120.718 144.772
136.038 126.05 145.664
136.421 127.775 146.244
141.201 121.458 146.456
140.917 119.292 145.265
142.138 119.215 145.926
141.086 117.379 143.795
141.602 123.081 147.606
143.467 118.653 146.323
143.454 117.313 144.817
137.158 121.129 144.616
135.779 123.905 145.16
135.728 121.515 144.576
134.453 126.284 145.442
138.545 118.207 143.953
135.761 118.993 144.159
134.366 121.418 144.428
137.481 129.231 146.91
139.127 128.3 147.828
138.264 130.662 148.113
140.163 127.354 148.72
135.7 129.801 146.655
137.403 132.664 148.771
138.915 131.62 149.702
142.496 111.009 141.616
141.228 113.123 142.185
140.972 111.205 142.009
139.809 115.347 143.012
141.472 115.081 142.863
144.107 110.869 141.731
143.876 109.602 140.712
140.624 109.524 141.382
139.437 111.28 142.365
142.516 115.701 143.138
144.012 113.232 142.571
143.941 115.588 143.545
145.31 111.173 142.33
145.039 115.467 144.113
143.232 108.258 139.553
141.17 108.01 139.943
142.537 106.424 139.426
139.661 107.971 140.895
145.004 108.413 139.744
143.708 104.721 139.186
141.697 104.669 139.547
138.096 113.671 143.068
138.346 116.173 143.487
136.898 116.306 143.747
137.896 111.695 143.061
135.433 116.824 143.946
148.329 114.238 157.23
149.056 113.452 155.458
149.155 111.944 156.376
149.582 112.755 153.759
148.733 114.645 154.49
147.669 116.637 158.263
147.741 115.185 158.848
149.176 110.247 157.009
149.764 109.648 155.506
147.726 116.744 155.357
147.436 117.842 157.263
147.19 119.006 156.229
147.11 119.103 159.087
148.019 115.729 153.566
146.823 120.127 155.111
146.597 121.254 156.922
147.77 113.856 159.614
148.576 111.282 158.708
147.717 112.429 160.367
149.188 108.744 157.72
147.212 116.437 160.541
146.822 113.563 162.001
147.459 110.924 160.876
150.153 109.211 153.768
149.98 110.984 152.806
150.35 109.136 151.996
149.856 112.39 151.656
150.19 107.432 154.538
150.801 107.378 151.008
150.508 108.858 150.004
148.488 115.043 150.285
147.331 116.367 149.754
148.684 114.416 148.52
146.405 117.515 149.273
146.523 118.484 150.595
148.398 115.225 151.833
149.387 113.579 150.603
149.331 112.021 147.201
148.693 113.488 146.777
146.746 119.166 152.048
147.464 117.297 152.83
146.813 119.64 153.533
146.078 120.954 151.479
146.271 121.948 154.403
150.024 111.725 149.594
149.83 110.612 147.623
150.243 109.722 148.635
149.412 109.622 145.9
150.649 108.01 147.879
147.712 115.031 146.586
146.326 117.019 147.951
146.32 116.578 146.525
145.436 119.349 149.023
148.177 112.758 145.577
145.994 116.044 145.313
144.817 117.866 146.76
131.038 113.913 156.147
130.183 115.49 155.272
130.631 116.197 157.102
129.722 117.061 154.32
129.975 115.089 153.462
131.778 111.811 155.288
131.928 112.5 156.944
131.245 117.262 158.803
130.52 118.453 158.047
130.781 112.889 152.568
131.885 111.282 153.509
132.036 110.858 151.75
132.814 109.689 154.179
130.197 114.586 151.613
132.249 110.533 150.055
133.156 108.878 150.929
132.527 113.055 158.46
132.078 115.616 159.478
133.01 113.848 160.039
132.003 118.099 160.431
133.128 110.756 157.239
134.03 112.046 160.231
133.547 114.588 161.646
129.939 119.896 157.054
129.658 119.184 154.977
129.703 121.38 155.682
129.688 118.63 153.007
130.723 120.759 158.797
129.866 123.455 156.263
129.777 122.817 154.308
130.221 117.513 149.576
131.045 116.648 147.915
130.489 119.222 148.557
131.684 115.649 146.206
131.67 113.975 146.802
130.217 116.026 150.388
129.844 118.376 151.033
130.203 122.03 148.909
130.762 120.855 147.606
131.482 112.744 147.888
130.731 113.812 149.801
131.58 111.568 148.942
132.064 111.55 146.121
132.938 109.705 148.373
129.768 120.389 151.783
129.931 122.402 150.582
129.825 122.5 152.421
130.111 124.426 149.741
129.971 124.635 153.252
131.428 120.01 146.146
131.814 117.133 145.357
132.182 118.763 144.586
132.522 114.316 144.712
131.065 122.872 146.921
132.883 120.435 144.4
133.721 117.403 144.116
142.406 130.93 159.128
140.89 132.326 158.403
142.008 131.279 157.266
139.049 133.237 157.33
139.203 132.698 159.338
142.564 130.198 161.078
143.407 128.984 159.751
142.539 129.719 155.985
141.441 131.193 155.231
139.277 131.61 161.193
141.318 130.371 162.355
139.704 130.151 162.882
142.76 128.466 162.401
137.321 132.535 159.779
137.782 129.776 162.934
140.029 128.335 163.936
144.144 127.346 158.353
143.669 127.686 156.394
144.941 125.815 156.833
143.457 127.517 154.849
144.564 126.804 159.985
145.755 123.87 157.244
145.516 124.034 155.492
140.301 132.244 153.947
138.865 133.527 154.992
138.973 133.358 152.882
137.251 133.798 155.888
141.55 130.092 153.449
139.324 132.002 151.408
137.464 134.249 151.809
133.84 133.009 156.689
132.772 131.676 157.344
132.472 132.904 155.305
131.977 129.901 158.297
133.102 130.283 159.54
135.345 132.757 158.361
135.256 133.734 156.288
132.411 133.797 153.077
131.366 132.105 154.12
134.556 130.152 160.825
135.923 131.633 160.213
136.151 129.987 162.008
133.779 128.477 161.6
136.879 128.034 163.493
135.63 134.256 154.377
133.922 134.595 152.225
135.647 134.753 151.747
132.806 134.26 150.675
136.185 134.204 149.938
130.679 130.023 155.138
131.011 128.873 157.358
130.451 127.667 155.891
131.675 127.783 159.174
130.973 130.879 152.893
130.219 126.834 154.438
130.255 125.689 156.592
146.795 99.8754 145.294
147.879 100.971 146.73
148.888 100.848 144.154
148.994 101.523 148.042
147.428 101.008 148.915
144.801 99.3008 145.715
145.76 99.6882 143.507
149.826 101.394 141.59
150.725 102.104 143.279
145.607 100.83 149.68
144.231 99.8833 147.985
143.8 100.791 150.262
142.712 99.2143 147.078
146.887 101.475 151.32
143.739 101.509 152.526
142.187 100.974 151.142
145.741 100.323 141.59
147.994 101.446 140.558
145.618 101.57 140.233
149.739 103.115 139.91
143.344 99.6036 143.206
142.826 101.495 140.554
145.181 103.053 139.422
150.93 102.935 145.702
150.333 102.428 148.217
151.156 104.483 147.809
149.818 102.305 150.093
151.65 103.708 143.632
150.996 106.114 147.345
150.921 105.593 149.732
137.397 99.9799 147.09
139.075 99.2305 145.836
137.294 100.014 145.278
141.059 99.2937 144.455
140.997 99.0455 146.483
137.592 100.445 149.068
136.096 101.2 148.645
136.165 101.738 144.915
137.513 100.97 143.481
140.97 99.6537 148.474
139.122 100.458 149.848
140.713 100.713 150.505
137.66 101.502 151.123
140.608 101.513 152.508
134.88 102.805 148.42
135.054 103.235 146.452
134.413 104.954 148.208
135.516 104.076 145.004
135.152 102.937 150.252
133.908 106.609 149.755
134.08 107.155 148.148
139.098 100.903 142.104
141.133 99.9329 142.677
140.862 101.179 141.096
137.818 102.742 142.175
141.123 103.048 140.07
144.95 122.063 163.54
145.184 123.905 162.525
145.949 121.435 162.058
145.035 125.464 161.257
144.074 126.097 162.589
143.771 122.584 164.723
144.661 120.163 164.395
146.53 119.101 161.64
146.511 120.609 160.621
142.944 126.533 163.514
142.714 124.526 164.793
141.243 126.584 164.496
145.569 118.041 163.722
146.643 117.293 162.08
146.234 115.558 162.836
146.356 121.689 159.502
145.644 124.445 159.833
146.112 122.802 158.312
143.196 126.22 151.565
142.675 125.182 150.101
143.958 124.053 150.687
142.15 124.189 148.723
141.386 126.165 149.487
142.299 128.089 152.513
143.42 126.759 153.153
145.113 122.667 151.122
144.796 121.957 149.674
140.812 128.177 150.064
141.277 129.149 151.77
140.068 130.227 150.702
144.358 125.424 153.694
145.31 123.206 152.491
145.439 123.701 154.01
144.579 121.063 148.48
143.122 122.215 148.02
144.001 119.904 147.294
148.064 103.596 156.856
149.292 104.451 156.094
148.819 102.858 154.745
150.05 105.592 155.189
149.38 106.373 157.217
147.235 104.744 158.772
146.518 103.107 157.517
147.907 101.913 153.154
149.45 102.517 152.516
148.628 107.73 158.715
147.573 106.482 159.661
147.564 108.885 160.315
145.521 102.315 156.092
146.259 101.758 153.68
144.548 101.756 154.352
150.328 103.606 151.894
150.47 105.589 153.482
150.625 105.537 151.517
148.951 108.546 142.58
148.448 108.385 141.09
150.472 106.909 140.584
146.953 108.569 140.539
146.448 110.279 142.772
147.998 110.65 144.548
149.214 108.849 144.313
151.524 105.253 141.945
150.203 104.999 139.642
146.164 112.124 143.42
147.255 112.574 144.531
146.124 114.365 144.398
150.418 107.917 144.694
151.41 105.8 143.8
150.983 106.898 146.055
147.961 104.969 139.27
146.343 107.424 139.282
145.413 104.871 139.108
133.302 122.592 163.634
132.321 122.435 162.136
132.662 124.418 162.325
131.604 121.95 160.538
132.21 120.31 161.6
134.273 120.542 164.362
134.757 122.701 164.595
133.114 126.442 162.279
132.102 126.099 160.76
132.635 118.246 162.024
133.915 118.546 163.595
133.664 116.407 162.636
135.42 124.529 164.457
134.346 126.743 163.325
136.142 126.404 163.961
131.194 125.562 159.359
130.891 122.928 159.143
130.357 124.355 157.892
131.168 128.141 148.192
131.996 129.271 147.177
131.52 130.316 149.002
133.471 130.04 146.628
133.052 127.424 145.867
130.967 125.57 147.355
130.498 126.508 149.229
131.103 130.665 151.094
132.02 132.425 149.832
132.953 125.145 145.104
131.631 124.032 145.862
132.965 122.643 144.667
130.243 126.467 150.936
130.456 128.779 152.041
130.151 126.57 152.753
133.199 133.235 148.762
134.668 131.331 147.204
135.762 133.076 148.44
134.832 106.751 155.153
136.16 105.653 155.786
135.635 104.632 153.979
137.517 104.823 156.289
136.789 106.521 157.517
134.176 108.649 156.205
133.845 108.027 154.629
135.331 103.726 152.167
136.577 102.813 152.71
135.896 108.159 158.461
134.45 109.379 157.745
134.879 110.108 159.395
133.736 107.583 153.026
134.487 105.092 151.686
133.785 107.114 151.383
137.981 102.422 153.249
138.423 103.393 155.299
139.611 102.33 153.964
136.681 109.134 143.661
135.01 110.118 144.459
135.951 107.515 143.654
133.445 110.599 145.119
133.723 112.25 144.323
137.359 110.411 143.292
138.024 108.227 142.417
136.842 105.046 142.849
135.704 105.808 144.3
134.259 113.677 143.966
136.143 112.798 143.658
134.96 115.308 144.047
138.645 106.72 141.165
138.023 104.728 141.589
139.698 104.714 140.402
134.843 106.929 145.741
133.63 109.492 146.218
133.947 108.33 147.35
POLYGONS 1280  5120
3 164 162 163
3 163 44 164
3 162 43 163
3 164 42 162
3 166 165 163
3 163 43 166
3 165 44 163
3 166 14 165
3 168 167 162
3 162 42 168
3 167 43 162
3 168 13 167
3 170 169 164
3 164 44 170
3 169 42 164
3 170 12 169
3 173 171 172
3 172 46 173
3 171 43 172
3 173 45 171
3 167 174 172
3 172 43 167
3 174 46 172
3 167 13 174
3 175 166 171
3 171 45 175
3 166 43 171
3 175 14 166
3 177 176 173
3 173 46 177
3 176 45 173
3 177 4 176
3 180 178 179
3 179 48 180
3 178 42 179
3 180 47 178
3 169 181 179
3 179 42 169
3 181 48 179
3 169 12 181
3 182 168 178
3 178 47 182
3 168 42 178
3 182 13 168
3 184 183 180
3 180 48 184
3 183 47 180
3 184 8 183
3 187 185 186
3 186 50 187
3 185 44 186
3 187 49 185
3 165 188 186
3 186 44 165
3 188 50 186
3 165 14 188
3 189 170 185
3 185 49 189
3 170 44 185
3 189 12 170
3 191 190 187
3 187 50 191
3 190 49 187
3 191 7 190
3 194 192 193
3 193 53 194
3 192 52 193
3 194 51 192
3 196 195 193
3 193 52 196
3 195 53 193
3 196 16 195
3 198 197 192
3 192 51 198
3 197 52 192
3 198 14 197
3 200 199 194
3 194 53 200
3 199 51 194
3 200 15 199
3 203 201 202
3 202 45 203
3 201 52 202
3 203 54 201
3 197 175 202
3 202 52 197
3 175 45 202
3 197 14 175
3 204 196 201
3 201 54 204
3 196 52 201
3 204 16 196
3 176 205 203
3 203 45 176
3 205 54 203
3 176 4 205
3 208 206 207
3 207 55 208
3 206 51 207
3 208 50 206
3 199 209 207
3 207 51 199
3 209 55 207
3 199 15 209
3 188 198 206
3 206 50 188
3 198 51 206
3 188 14 198
3 210 191 208
3 208 55 210
3 191 50 208
3 210 7 191
3 213 211 212
3 212 57 213
3 211 53 212
3 213 56 211
3 195 214 212
3 212 53 195
3 214 57 212
3 195 16 214
3 215 200 211
3 211 56 215
3 200 53 211
3 215 15 200
3 217 216 213
3 213 57 217
3 216 56 213
3 217 9 216
3 220 218 219
3 219 60 220
3 218 59 219
3 220 58 218
3 222 221 219
3 219 59 222
3 221 60 219
3 222 19 221
3 224 223 218
3 218 58 224
3 223 59 218
3 224 18 223
3 226 225 220
3 220 60 226
3 225 58 220
3 226 17 225
3 229 227 228
3 228 62 229
3 227 59 228
3 229 61 227
3 223 230 228
3 228 59 223
3 230 62 228
3 223 18 230
3 231 222 227
3 227 61 231
3 222 59 227
3 231 19 222
3 233 232 229
3 229 62 233
3 232 61 229
3 233 5 232
3 236 234 235
3 235 64 236
3 234 58 235
3 236 63 234
3 225 237 235
3 235 58 225
3 237 64 235
3 225 17 237
3 238 224 234
3 234 63 238
3 224 58 234
3 238 18 224
3 240 239 236
3 236 64 240
3 239 63 236
3 240 6 239
3 243 241 242
3 242 66 243
3 241 60 242
3 243 65 241
3 221 244 242
3 242 60 221
3 244 66 242
3 221 19 244
3 245 226 241
3 241 65 245
3 226 60 241
3 245 17 226
3 247 246 243
3 243 66 247
3 246 65 243
3 247 11 246
3 250 248 249
3 249 69 250
3 248 68 249
3 250 67 248
3 252 251 249
3 249 68 252
3 251 69 249
3 252 18 251
3 254 253 248
3 248 67 254
3 253 68 248
3 254 21 253
3 256 255 250
3 250 69 256
3 255 67 250
3 256 20 255
3 259 257 258
3 258 70 259
3 257 68 258
3 259 62 257
3 253 260 258
3 258 68 253
3 260 70 258
3 253 21 260
3 230 252 257
3 257 62 230
3 252 68 257
3 230 18 252
3 261 233 259
3 259 70 261
3 233 62 259
3 261 5 233
3 264 262 263
3 263 72 264
3 262 67 263
3 264 71 262
3 255 265 263
3 263 67 255
3 265 72 263
3 255 20 265
3 266 254 262
3 262 71 266
3 254 67 262
3 266 21 254
3 268 267 264
3 264 72 268
3 267 71 264
3 268 10 267
3 271 269 270
3 270 63 271
3 269 69 270
3 271 73 269
3 251 238 270
3 270 69 251
3 238 63 270
3 251 18 238
3 272 256 269
3 269 73 272
3 256 69 269
3 272 20 256
3 239 273 271
3 271 63 239
3 273 73 271
3 239 6 273
3 276 274 275
3 275 76 276
3 274 75 275
3 276 74 274
3 278 277 275
3 275 75 278
3 277 76 275
3 278 24 277
3 280 279 274
3 274 74 280
3 279 75 274
3 280 23 279
3 282 281 276
3 276 76 282
3 281 74 276
3 282 22 281
3 285 283 284
3 284 78 285
3 283 75 284
3 285 77 283
3 279 286 284
3 284 75 279
3 286 78 284
3 279 23 286
3 287 278 283
3 283 77 287
3 278 75 283
3 287 24 278
3 289 288 285
3 285 78 289
3 288 77 285
3 289 0 288
3 292 290 291
3 291 80 292
3 290 74 291
3 292 79 290
3 281 293 291
3 291 74 281
3 293 80 291
3 281 22 293
3 294 280 290
3 290 79 294
3 280 74 290
3 294 23 280
3 296 295 292
3 292 80 296
3 295 79 292
3 296 4 295
3 299 297 298
3 298 82 299
3 297 76 298
3 299 81 297
3 277 300 298
3 298 76 277
3 300 82 298
3 277 24 300
3 301 282 297
3 297 81 301
3 282 76 297
3 301 22 282
3 303 302 299
3 299 82 303
3 302 81 299
3 303 3 302
3 306 304 305
3 305 85 306
3 304 84 305
3 306 83 304
3 308 307 305
3 305 84 308
3 307 85 305
3 308 26 307
3 310 309 304
3 304 83 310
3 309 84 304
3 310 24 309
3 312 311 306
3 306 85 312
3 311 83 306
3 312 25 311
3 315 313 314
3 314 77 315
3 313 84 314
3 315 86 313
3 309 287 314
3 314 84 309
3 287 77 314
3 309 24 287
3 316 308 313
3 313 86 316
3 308 84 313
3 316 26 308
3 288 317 315
3 315 77 288
3 317 86 315
3 288 0 317
3 320 318 319
3 319 87 320
3 318 83 319
3 320 82 318
3 311 321 319
3 319 83 311
3 321 87 319
3 311 25 321
3 300 310 318
3 318 82 300
3 310 83 318
3 300 24 310
3 322 303 320
3 320 87 322
3 303 82 320
3 322 3 303
3 325 323 324
3 324 89 325
3 323 85 324
3 325 88 323
3 307 326 324
3 324 85 307
3 326 89 324
3 307 26 326
3 327 312 323
3 323 88 327
3 312 85 323
3 327 25 312
3 329 328 325
3 325 89 329
3 328 88 325
3 329 5 328
3 332 330 331
3 331 92 332
3 330 91 331
3 332 90 330
3 334 333 331
3 331 91 334
3 333 92 331
3 334 29 333
3 336 335 330
3 330 90 336
3 335 91 330
3 336 28 335
3 338 337 332
3 332 92 338
3 337 90 332
3 338 27 337
3 341 339 340
3 340 94 341
3 339 91 340
3 341 93 339
3 335 342 340
3 340 91 335
3 342 94 340
3 335 28 342
3 343 334 339
3 339 93 343
3 334 91 339
3 343 29 334
3 345 344 341
3 341 94 345
3 344 93 341
3 345 2 344
3 348 346 347
3 347 96 348
3 346 90 347
3 348 95 346
3 337 349 347
3 347 90 337
3 349 96 347
3 337 27 349
3 350 336 346
3 346 95 350
3 336 90 346
3 350 28 336
3 352 351 348
3 348 96 352
3 351 95 348
3 352 7 351
3 355 353 354
3 354 98 355
3 353 92 354
3 355 97 353
3 333 356 354
3 354 92 333
3 356 98 354
3 333 29 356
3 357 338 353
3 353 97 357
3 338 92 353
3 357 27 338
3 359 358 355
3 355 98 359
3 358 97 355
3 359 1 358
3 362 360 361
3 361 101 362
3 360 100 361
3 362 99 360
3 364 363 361
3 361 100 364
3 363 101 361
3 364 31 363
3 366 365 360
3 360 99 366
3 365 100 360
3 366 29 365
3 368 367 362
3 362 101 368
3 367 99 362
3 368 30 367
3 371 369 370
3 370 93 371
3 369 100 370
3 371 102 369
3 365 343 370
3 370 100 365
3 343 93 370
3 365 29 343
3 372 364 369
3 369 102 372
3 364 100 369
3 372 31 364
3 344 373 371
3 371 93 344
3 373 102 371
3 344 2 373
3 376 374 375
3 375 103 376
3 374 99 375
3 376 98 374
3 367 377 375
3 375 99 367
3 377 103 375
3 367 30 377
3 356 366 374
3 374 98 356
3 366 99 374
3 356 29 366
3 378 359 376
3 376 103 378
3 359 98 376
3 378 1 359
3 381 379 380
3 380 105 381
3 379 101 380
3 381 104 379
3 363 382 380
3 380 101 363
3 382 105 380
3 363 31 382
3 383 368 379
3 379 104 383
3 368 101 379
3 383 30 368
3 385 384 381
3 381 105 385
3 384 104 381
3 385 6 384
3 388 386 387
3 387 108 388
3 386 107 387
3 388 106 386
3 390 389 387
3 387 107 390
3 389 108 387
3 390 34 389
3 392 391 386
3 386 106 392
3 391 107 386
3 392 33 391
3 394 393 388
3 388 108 394
3 393 106 388
3 394 32 393
3 397 395 396
3 396 110 397
3 395 107 396
3 397 109 395
3 391 398 396
3 396 107 391
3 398 110 396
3 391 33 398
3 399 390 395
3 395 109 399
3 390 107 395
3 399 34 390
3 401 400 397
3 397 110 401
3 400 109 397
3 401 8 400
3 404 402 403
3 403 112 404
3 402 106 403
3 404 111 402
3 393 405 403
3 403 106 393
3 405 112 403
3 393 32 405
3 406 392 402
3 402 111 406
3 392 106 402
3 406 33 392
3 408 407 404
3 404 112 408
3 407 111 404
3 408 0 407
3 411 409 410
3 410 114 411
3 409 108 410
3 411 113 409
3 389 412 410
3 410 108 389
3 412 114 410
3 389 34 412
3 413 394 409
3 409 113 413
3 394 108 409
3 413 32 394
3 415 414 411
3 411 114 415
3 414 113 411
3 415 11 414
3 418 416 417
3 417 117 418
3 416 116 417
3 418 115 416
3 420 419 417
3 417 116 420
3 419 117 417
3 420 36 419
3 422 421 416
3 416 115 422
3 421 116 416
3 422 34 421
3 424 423 418
3 418 117 424
3 423 115 418
3 424 35 423
3 427 425 426
3 426 109 427
3 425 116 426
3 427 118 425
3 421 399 426
3 426 116 421
3 399 109 426
3 421 34 399
3 428 420 425
3 425 118 428
3 420 116 425
3 428 36 420
3 400 429 427
3 427 109 400
3 429 118 427
3 400 8 429
3 432 430 431
3 431 119 432
3 430 115 431
3 432 114 430
3 423 433 431
3 431 115 423
3 433 119 431
3 423 35 433
3 412 422 430
3 430 114 412
3 422 115 430
3 412 34 422
3 434 415 432
3 432 119 434
3 415 114 432
3 434 11 415
3 437 435 436
3 436 121 437
3 435 117 436
3 437 120 435
3 419 438 436
3 436 117 419
3 438 121 436
3 419 36 438
3 439 424 435
3 435 120 439
3 424 117 435
3 439 35 424
3 441 440 437
3 437 121 441
3 440 120 437
3 441 1 440
3 444 442 443
3 443 124 444
3 442 123 443
3 444 122 442
3 446 445 443
3 443 123 446
3 445 124 443
3 446 39 445
3 448 447 442
3 442 122 448
3 447 123 442
3 448 38 447
3 450 449 444
3 444 124 450
3 449 122 444
3 450 37 449
3 453 451 452
3 452 126 453
3 451 123 452
3 453 125 451
3 447 454 452
3 452 123 447
3 454 126 452
3 447 38 454
3 455 446 451
3 451 125 455
3 446 123 451
3 455 39 446
3 457 456 453
3 453 126 457
3 456 125 453
3 457 9 456
3 460 458 459
3 459 128 460
3 458 122 459
3 460 127 458
3 449 461 459
3 459 122 449
3 461 128 459
3 449 37 461
3 462 448 458
3 458 127 462
3 448 122 458
3 462 38 448
3 464 463 460
3 460 128 464
3 463 127 460
3 464 10 463
3 467 465 466
3 466 130 467
3 465 124 466
3 467 129 465
3 445 468 466
3 466 124 445
3 468 130 466
3 445 39 468
3 469 450 465
3 465 129 469
3 450 124 465
3 469 37 450
3 471 470 467
3 467 130 471
3 470 129 467
3 471 3 470
3 474 472 473
3 473 133 474
3 472 132 473
3 474 131 472
3 476 475 473
3 473 132 476
3 475 133 473
3 476 38 475
3 478 477 472
3 472 131 478
3 477 132 472
3 478 41 477
3 480 479 474
3 474 133 480
3 479 131 474
3 480 40 479
3 483 481 482
3 482 134 483
3 481 132 482
3 483 126 481
3 477 484 482
3 482 132 477
3 484 134 482
3 477 41 484
3 454 476 481
3 481 126 454
3 476 132 481
3 454 38 476
3 485 457 483
3 483 134 485
3 457 126 483
3 485 9 457
3 488 486 487
3 487 136 488
3 486 131 487
3 488 135 486
3 479 489 487
3 487 131 479
3 489 136 487
3 479 40 489
3 490 478 486
3 486 135 490
3 478 131 486
3 490 41 478
3 492 491 488
3 488 136 492
3 491 135 488
3 492 2 491
3 495 493 494
3 494 127 495
3 493 133 494
3 495 137 493
3 475 462 494
3 494 133 475
3 462 127 494
3 475 38 462
3 496 480 493
3 493 137 496
3 480 133 493
3 496 40 480
3 463 497 495
3 495 127 463
3 497 137 495
3 463 10 497
3 500 498 499
3 499 140 500
3 498 139 499
3 500 138 498
3 502 501 499
3 499 139 502
3 501 140 499
3 502 33 501
3 504 503 498
3 498 138 504
3 503 139 498
3 504 13 503
3 506 505 500
3 500 140 506
3 505 138 500
3 506 23 505
3 509 507 508
3 508 47 509
3 507 139 508
3 509 110 507
3 503 182 508
3 508 139 503
3 182 47 508
3 503 13 182
3 398 502 507
3 507 110 398
3 502 139 507
3 398 33 502
3 183 401 509
3 509 47 183
3 401 110 509
3 183 8 401
3 512 510 511
3 511 79 512
3 510 138 511
3 512 46 510
3 505 294 511
3 511 138 505
3 294 79 511
3 505 23 294
3 174 504 510
3 510 46 174
3 504 138 510
3 174 13 504
3 295 177 512
3 512 79 295
3 177 46 512
3 295 4 177
3 515 513 514
3 514 111 515
3 513 140 514
3 515 78 513
3 501 406 514
3 514 140 501
3 406 111 514
3 501 33 406
3 286 506 513
3 513 78 286
3 506 140 513
3 286 23 506
3 407 289 515
3 515 111 407
3 289 78 515
3 407 0 289
3 518 516 517
3 517 143 518
3 516 142 517
3 518 141 516
3 520 519 517
3 517 142 520
3 519 143 517
3 520 19 519
3 522 521 516
3 516 141 522
3 521 142 516
3 522 32 521
3 524 523 518
3 518 143 524
3 523 141 518
3 524 26 523
3 527 525 526
3 526 113 527
3 525 142 526
3 527 66 525
3 521 413 526
3 526 142 521
3 413 113 526
3 521 32 413
3 244 520 525
3 525 66 244
3 520 142 525
3 244 19 520
3 414 247 527
3 527 113 414
3 247 66 527
3 414 11 247
3 530 528 529
3 529 86 530
3 528 141 529
3 530 112 528
3 523 316 529
3 529 141 523
3 316 86 529
3 523 26 316
3 405 522 528
3 528 112 405
3 522 141 528
3 405 32 522
3 317 408 530
3 530 86 317
3 408 112 530
3 317 0 408
3 533 531 532
3 532 61 533
3 531 143 532
3 533 89 531
3 519 231 532
3 532 143 519
3 231 61 532
3 519 19 231
3 326 524 531
3 531 89 326
3 524 143 531
3 326 26 524
3 232 329 533
3 533 61 232
3 329 89 533
3 232 5 329
3 536 534 535
3 535 146 536
3 534 145 535
3 536 144 534
3 538 537 535
3 535 145 538
3 537 146 535
3 538 22 537
3 540 539 534
3 534 144 540
3 539 145 534
3 540 16 539
3 542 541 536
3 536 146 542
3 541 144 536
3 542 39 541
3 545 543 544
3 544 54 545
3 543 145 544
3 545 80 543
3 539 204 544
3 544 145 539
3 204 54 544
3 539 16 204
3 293 538 543
3 543 80 293
3 538 145 543
3 293 22 538
3 205 296 545
3 545 54 205
3 296 80 545
3 205 4 296
3 548 546 547
3 547 125 548
3 546 144 547
3 548 57 546
3 541 455 547
3 547 144 541
3 455 125 547
3 541 39 455
3 214 540 546
3 546 57 214
3 540 144 546
3 214 16 540
3 456 217 548
3 548 125 456
3 217 57 548
3 456 9 217
3 551 549 550
3 550 81 551
3 549 146 550
3 551 130 549
3 537 301 550
3 550 146 537
3 301 81 550
3 537 22 301
3 468 542 549
3 549 130 468
3 542 146 549
3 468 39 542
3 302 471 551
3 551 81 302
3 471 130 551
3 302 3 471
3 554 552 553
3 553 149 554
3 552 148 553
3 554 147 552
3 556 555 553
3 553 148 556
3 555 149 553
3 556 21 555
3 558 557 552
3 552 147 558
3 557 148 552
3 558 25 557
3 560 559 554
3 554 149 560
3 559 147 554
3 560 37 559
3 563 561 562
3 562 88 563
3 561 148 562
3 563 70 561
3 557 327 562
3 562 148 557
3 327 88 562
3 557 25 327
3 260 556 561
3 561 70 260
3 556 148 561
3 260 21 556
3 328 261 563
3 563 88 328
3 261 70 563
3 328 5 261
3 566 564 565
3 565 129 566
3 564 147 565
3 566 87 564
3 559 469 565
3 565 147 559
3 469 129 565
3 559 37 469
3 321 558 564
3 564 87 321
3 558 147 564
3 321 25 558
3 470 322 566
3 566 129 470
3 322 87 566
3 470 3 322
3 569 567 568
3 568 71 569
3 567 149 568
3 569 128 567
3 555 266 568
3 568 149 555
3 266 71 568
3 555 21 266
3 461 560 567
3 567 128 461
3 560 149 567
3 461 37 560
3 267 464 569
3 569 71 267
3 464 128 569
3 267 10 464
3 572 570 571
3 571 152 572
3 570 151 571
3 572 150 570
3 574 573 571
3 571 151 574
3 573 152 571
3 574 27 573
3 576 575 570
3 570 150 576
3 575 151 570
3 576 12 575
3 578 577 572
3 572 152 578
3 577 150 572
3 578 36 577
3 581 579 580
3 580 49 581
3 579 151 580
3 581 96 579
3 575 189 580
3 580 151 575
3 189 49 580
3 575 12 189
3 349 574 579
3 579 96 349
3 574 151 579
3 349 27 574
3 190 352 581
3 581 49 190
3 352 96 581
3 190 7 352
3 584 582 583
3 583 118 584
3 582 150 583
3 584 48 582
3 577 428 583
3 583 150 577
3 428 118 583
3 577 36 428
3 181 576 582
3 582 48 181
3 576 150 582
3 181 12 576
3 429 184 584
3 584 118 429
3 184 48 584
3 429 8 184
3 587 585 586
3 586 97 587
3 585 152 586
3 587 121 585
3 573 357 586
3 586 152 573
3 357 97 586
3 573 27 357
3 438 578 585
3 585 121 438
3 578 152 585
3 438 36 578
3 358 441 587
3 587 97 358
3 441 121 587
3 358 1 441
3 590 588 589
3 589 155 590
3 588 154 589
3 590 153 588
3 592 591 589
3 589 154 592
3 591 155 589
3 592 17 591
3 594 593 588
3 588 153 594
3 593 154 588
3 594 30 593
3 596 595 590
3 590 155 596
3 595 153 590
3 596 35 595
3 599 597 598
3 598 104 599
3 597 154 598
3 599 64 597
3 593 383 598
3 598 154 593
3 383 104 598
3 593 30 383
3 237 592 597
3 597 64 237
3 592 154 597
3 237 17 592
3 384 240 599
3 599 104 384
3 240 64 599
3 384 6 240
3 602 600 601
3 601 120 602
3 600 153 601
3 602 103 600
3 595 439 601
3 601 153 595
3 439 120 601
3 595 35 439
3 377 594 600
3 600 103 377
3 594 153 600
3 377 30 594
3 440 378 602
3 602 120 440
3 378 103 602
3 440 1 378
3 605 603 604
3 604 65 605
3 603 155 604
3 605 119 603
3 591 245 604
3 604 155 591
3 245 65 604
3 591 17 245
3 433 596 603
3 603 119 433
3 596 155 603
3 433 35 596
3 246 434 605
3 605 65 246
3 434 119 605
3 246 11 434
3 608 606 607
3 607 158 608
3 606 157 607
3 608 156 606
3 610 609 607
3 607 157 610
3 609 158 607
3 610 15 609
3 612 611 606
3 606 156 612
3 611 157 606
3 612 28 611
3 614 613 608
3 608 158 614
3 613 156 608
3 614 41 613
3 617 615 616
3 616 95 617
3 615 157 616
3 617 55 615
3 611 350 616
3 616 157 611
3 350 95 616
3 611 28 350
3 209 610 615
3 615 55 209
3 610 157 615
3 209 15 610
3 351 210 617
3 617 95 351
3 210 55 617
3 351 7 210
3 620 618 619
3 619 135 620
3 618 156 619
3 620 94 618
3 613 490 619
3 619 156 613
3 490 135 619
3 613 41 490
3 342 612 618
3 618 94 342
3 612 156 618
3 342 28 612
3 491 345 620
3 620 135 491
3 345 94 620
3 491 2 345
3 623 621 622
3 622 56 623
3 621 158 622
3 623 134 621
3 609 215 622
3 622 158 609
3 215 56 622
3 609 15 215
3 484 614 621
3 621 134 484
3 614 158 621
3 484 41 614
3 216 485 623
3 623 56 216
3 485 134 623
3 216 9 485
3 626 624 625
3 625 161 626
3 624 160 625
3 626 159 624
3 628 627 625
3 625 160 628
3 627 161 625
3 628 31 627
3 630 629 624
3 624 159 630
3 629 160 624
3 630 20 629
3 632 631 626
3 626 161 632
3 631 159 626
3 632 40 631
3 635 633 634
3 634 73 635
3 633 160 634
3 635 105 633
3 629 272 634
3 634 160 629
3 272 73 634
3 629 20 272
3 382 628 633
3 633 105 382
3 628 160 633
3 382 31 628
3 273 385 635
3 635 73 273
3 385 105 635
3 273 6 385
3 638 636 637
3 637 137 638
3 636 159 637
3 638 72 636
3 631 496 637
3 637 159 631
3 496 137 637
3 631 40 496
3 265 630 636
3 636 72 265
3 630 159 636
3 265 20 630
3 497 268 638
3 638 137 497
3 268 72 638
3 497 10 268
3 641 639 640
3 640 102 641
3 639 161 640
3 641 136 639
3 627 372 640
3 640 161 627
3 372 102 640
3 627 31 372
3 489 632 639
3 639 136 489
3 632 161 639
3 489 40 632
3 373 492 641
3 641 102 373
3 492 136 641
3 373 2 492
