# vtk DataFile Version 3.0
this file was written using fslvtkio
ASCII
DATASET POLYDATA
POINTS 642 float
124.654 152.456 150.964
117.774 154.28 149.464
119.523 147.925 147.215
125.91 145.375 148.124
124.434 149.429 152.463
124.196 149.659 145.632
120.32 150.607 144.565
121.034 151.002 151.033
121.409 155.593 155.161
122.535 144.929 149.11
121.981 143.535 143.161
121.417 156.169 149.037
120.656 153.123 153.289
123.312 152.489 154.82
122.655 150.392 152.116
121.928 148.181 149.895
123.854 146.849 150.586
120.733 154.007 146.648
122.458 150.151 144.351
123.002 153.073 147.264
120.975 147.245 142.418
123.746 146.321 143.628
125.897 146.793 150.909
125.345 151.072 152.635
125.912 149.07 149.351
125.134 147.061 146.392
124.59 151.179 148.254
119.315 152.836 150.758
119.86 149.521 149.552
119.061 151.267 148.176
118.941 153.075 146.993
119.64 148.894 145.128
123.121 154.788 150.463
123.834 154.957 153.788
121.111 157.681 152.285
118.609 156.857 148.935
118.472 155.922 152.2
125.045 143.027 145.354
121.824 142.77 146.739
124.691 143.49 149.293
120.554 145.334 144.97
120.743 146.03 148.064
121.915 152.881 154.335
122.832 151.474 153.535
121.793 151.875 152.956
123.552 149.893 152.426
123.964 150.911 153.59
122.527 154.088 155.414
120.904 154.416 154.271
120.94 152.087 152.096
121.846 150.779 151.549
122.372 149.154 150.924
123.177 148.617 151.4
122.848 147.511 150.293
124.187 148.107 151.59
121.387 149.61 150.6
122.258 146.446 149.395
123.308 145.7 149.754
121.652 152.026 145.489
122.725 151.76 145.829
121.94 153.655 146.809
123.687 151.316 146.367
123.407 149.825 144.977
121.26 150.394 144.215
120.556 152.275 145.526
121.046 155.38 147.853
122.183 154.725 148.29
122.468 146.739 142.564
123.115 148.295 143.67
121.865 148.694 143.027
123.93 148.042 144.749
123.122 144.63 142.857
121.447 145.057 142.275
120.537 149.161 143.227
125.917 148.979 151.813
125.751 149.996 151.037
126.073 147.911 150.2
125.371 150.899 150.19
125.067 151.937 151.865
125.09 150.068 152.962
125.236 148.198 151.857
126.007 145.925 149.555
125.823 147.087 148.659
125.534 148.093 147.841
125.448 150.133 148.662
125.227 149.276 147.201
124.756 151.934 149.635
125.65 146.017 147.116
124.62 148.328 145.954
124.452 150.458 146.836
119.883 151.405 149.863
119.354 150.443 148.974
119.357 152.318 149.428
119.238 149.53 147.666
119.443 148.688 148.518
120.486 150.352 150.326
120.296 151.97 150.947
118.418 153.656 150.25
118.556 152.97 148.83
118.881 152.11 147.51
119.222 150.151 146.707
119.306 150.968 146.021
119.592 148.259 146.18
118.183 153.991 148.22
119.615 151.895 145.711
119.896 149.788 144.496
123.377 155.195 152.158
122.765 156.624 153.496
122.521 156.557 151.55
121.088 157.124 154.333
122.983 155.606 155.152
124.287 153.732 152.313
124.055 153.688 150.833
122.395 155.831 149.748
121.248 157.234 150.389
119.505 157.902 150.519
119.141 157.43 152.624
117.553 157.288 150.743
119.675 155.903 153.869
120.258 156.955 148.89
117.736 155.681 149.167
117.897 155.279 150.65
123.461 142.257 146.003
123.345 142.419 148.079
125.028 142.515 147.532
123.45 143.966 149.164
122.198 143.637 148.227
121.681 142.748 144.738
123.544 142.948 143.964
125.7 144.096 146.917
125.679 144.092 148.7
120.593 145.457 146.589
121.163 144.14 147.351
120.782 143.749 145.74
121.564 145.325 148.598
120.028 146.964 147.622
119.877 146.675 146.137
120.959 144.153 143.923
124.606 151.865 153.992
123.973 153.9 155.008
124.661 153.072 153.41
123.748 152.925 149.368
123.068 154.023 148.872
123.841 152.255 147.833
124.304 145.049 149.958
124.863 146.592 150.944
125.555 144.768 150.171
125.412 145.029 145.521
124.682 146.484 144.923
124.603 144.532 144.03
119.557 154.52 152.977
119.717 153.013 152.229
118.53 154.17 151.758
118.409 155.273 147.793
119.566 153.861 146.72
119.664 155.809 147.671
120.19 147.733 148.952
120.848 148.795 149.787
121.256 146.992 149.069
120.558 145.958 143.371
120.059 147.81 143.598
119.802 146.914 144.771
122.437 152.215 153.983
122.308 151.642 153.204
121.801 152.361 153.657
122.276 151.204 152.483
122.742 150.928 152.751
123.014 151.959 154.252
122.619 152.774 154.673
121.291 153.036 153.827
121.214 152.559 153.241
123.227 150.707 152.946
123.425 151.271 153.642
123.667 150.362 153.111
123.661 151.683 154.273
123.117 150.144 152.264
123.993 149.642 152.494
124.194 150.127 153.098
122.192 153.45 154.904
121.443 153.629 154.363
121.747 154.264 154.854
120.718 153.724 153.801
122.995 153.278 155.219
122.001 154.926 155.311
121.116 154.994 154.76
121.365 152.056 152.539
121.911 151.417 152.14
121.465 151.507 151.816
122.217 150.604 151.907
120.739 152.619 152.761
121.023 151.558 151.486
121.465 150.945 151.236
122.773 148.905 151.162
123.009 148.064 150.799
122.623 148.405 150.542
123.328 147.144 150.478
123.429 147.707 151.063
122.912 149.413 151.809
122.526 149.683 151.576
122.174 148.694 150.367
122.421 147.858 150.093
123.688 148.349 151.498
123.304 149.154 151.989
123.84 148.959 152.03
124.003 147.471 151.114
124.317 148.81 152.037
122.101 149.889 151.316
121.915 149.393 150.734
121.653 150.126 151.07
121.627 148.931 150.291
121.24 150.312 150.838
122.613 146.974 149.803
123.206 146.588 149.881
122.77 146.091 149.635
123.61 146.202 150.125
122.121 147.311 149.626
122.353 145.625 149.308
122.876 145.262 149.48
122.156 151.845 145.638
122.328 152.71 146.248
121.816 152.983 146.054
122.468 153.384 146.993
122.815 152.438 146.533
122.583 150.927 145.086
121.997 150.967 144.981
121.267 153.147 145.995
121.377 153.849 146.66
123.216 151.57 146.092
123.1 150.829 145.305
123.602 150.74 145.585
122.967 150.011 144.628
123.252 152.132 146.877
124.043 150.566 145.894
123.832 149.737 145.296
121.436 151.103 144.953
121.095 152.187 145.496
120.922 151.29 144.964
120.665 153.202 146.053
121.867 150.292 144.221
120.742 150.525 144.37
120.387 151.406 145.041
121.508 154.51 147.361
122.041 154.2 147.55
121.608 155.04 148.042
122.563 153.882 147.776
120.891 154.755 147.212
121.215 155.836 148.489
121.774 155.46 148.744
122.806 147.547 143.073
122.513 148.512 143.296
122.135 147.773 142.663
122.226 149.441 143.628
122.811 149.265 143.921
123.367 147.309 143.607
123.075 146.481 143.098
121.667 146.933 142.365
121.359 148.015 142.599
123.321 149.12 144.294
123.526 148.103 144.193
123.697 148.942 144.801
123.804 147.183 144.213
124.094 148.853 145.186
122.819 145.619 142.537
121.982 145.839 142.143
122.326 144.778 142.353
121.194 146.112 142.196
123.443 145.434 143.192
122.588 143.938 142.868
121.73 144.222 142.699
121.17 148.943 142.938
121.615 149.699 143.492
120.934 149.883 143.611
120.71 148.2 142.71
120.486 149.934 143.924
125.867 149.517 151.42
126.034 148.969 150.608
126.048 148.431 151
126.009 148.479 149.804
125.858 149.479 150.173
125.676 150.553 151.86
125.698 150.052 152.25
125.927 147.91 151.318
126.057 147.344 150.559
125.567 150.412 150.612
125.525 151.015 151.448
125.303 151.403 151.016
125.264 151.559 152.262
125.64 149.938 149.776
125.067 151.766 150.586
124.852 152.203 151.381
125.492 149.546 152.486
125.618 148.54 151.944
125.181 149.076 152.46
125.581 147.547 151.483
125.326 150.518 152.882
124.737 149.704 152.796
124.773 148.836 152.187
126.073 146.905 149.841
125.98 147.482 149.43
125.918 146.562 149.132
125.85 148.022 148.98
126.047 146.296 150.268
125.993 145.575 148.792
125.81 146.152 148.352
125.611 149.127 148.233
125.31 149.732 147.955
125.393 148.666 147.502
125.054 150.333 147.687
125.099 150.674 148.43
125.675 149.54 149.002
125.753 148.567 148.563
125.304 147.575 147.142
125.149 148.155 146.797
125.039 151.007 149.156
125.384 150.46 149.443
125.141 151.406 149.861
124.633 151.558 148.982
124.681 152.203 150.32
125.738 147.597 148.207
125.5 147.027 147.471
125.712 146.539 147.87
125.375 146.495 146.702
125.809 145.64 147.594
124.984 148.778 146.542
124.881 149.863 147.002
124.695 149.458 146.35
124.656 150.878 147.504
124.882 147.687 146.141
124.425 149.042 145.752
124.316 150.059 146.212
119.66 150.971 149.441
119.442 151.369 149.173
119.683 151.915 149.619
119.174 151.8 148.854
119.24 150.895 148.561
119.606 150.021 149.307
119.904 150.489 149.69
119.819 152.289 150.139
119.377 152.702 150.026
119.256 150.028 148.327
119.405 149.551 148.76
119.293 149.107 148.125
119.641 149.101 149.08
119.136 150.408 147.908
119.384 148.696 147.438
119.378 148.267 147.885
120.157 150.86 150.112
120.077 151.68 150.371
120.415 151.148 150.566
119.843 152.418 150.861
120.159 149.966 149.973
120.799 150.656 150.698
120.671 151.407 151.016
118.962 153.027 149.827
118.957 152.64 149.138
118.473 153.282 149.523
118.85 152.167 148.501
118.822 153.25 150.556
118.065 153.99 149.864
118.103 153.585 149.144
119.044 151.062 147.068
119.316 150.555 146.337
119.078 151.547 146.739
119.454 149.902 145.546
119.433 149.559 145.943
119.086 150.688 147.434
118.94 151.647 147.802
118.886 152.576 147.225
119.122 152.028 146.528
119.432 149.277 146.417
119.205 149.836 147.179
119.448 148.987 146.947
119.61 148.538 145.631
119.564 148.069 146.731
118.64 152.526 148.166
118.489 153.023 147.837
118.219 153.365 148.516
118.497 153.597 147.582
117.912 154.184 148.848
119.402 151.494 145.825
119.583 150.385 145.284
119.794 150.857 145.178
119.734 149.321 144.739
119.286 152.514 146.359
119.999 151.223 145.142
120.105 150.232 144.43
123.121 155.852 152.812
122.725 156.763 152.475
123.011 155.902 151.886
122.003 157.39 151.955
122.042 157.313 152.992
123.27 155.725 153.749
123.532 155.111 153.019
123.344 155.091 151.302
122.843 155.695 151.045
122.105 157.061 154.047
122.884 156.238 154.506
122.202 156.604 154.967
123.502 155.396 154.56
121.072 157.471 153.309
121.193 156.461 155.007
122.25 155.715 155.395
123.814 154.44 152.285
123.701 154.408 151.492
124.111 153.749 151.601
123.541 154.212 150.703
124.088 154.349 153.015
124.498 153.059 151.614
124.39 153.06 150.906
122.415 156.212 150.655
121.94 157.072 151.021
121.923 156.606 150.128
121.181 157.629 151.279
122.734 155.297 150.18
121.908 156.083 149.372
121.362 156.75 149.579
119.193 157.9 151.593
118.174 157.62 151.738
118.419 157.857 150.645
117.962 156.606 151.549
118.423 156.822 152.534
120.098 157.613 152.47
120.235 157.843 151.432
118.928 157.561 149.657
118.007 157.377 149.733
119.245 156.804 153.395
120.076 157.315 153.447
120.165 156.744 154.299
118.959 155.974 153.039
120.508 155.792 154.631
120.45 157.658 150.484
119.827 157.45 149.657
120.695 157.146 149.641
119.421 157.039 148.882
120.919 156.607 148.942
117.592 156.561 149.894
117.657 156.204 150.769
117.695 155.601 149.968
118.15 155.687 151.334
117.947 156.436 149.019
117.686 154.921 149.335
117.769 154.75 150.055
123.367 142.186 147.092
124.192 142.205 147.875
124.291 142.252 146.754
124.885 142.761 148.578
124.083 142.807 148.728
122.59 142.589 147.338
122.541 142.299 146.364
124.326 142.477 145.629
125.005 142.696 146.4
123.404 143.209 148.742
122.643 142.948 148.162
122.799 143.707 148.748
122.058 143.17 147.545
124.023 143.622 149.206
122.9 144.42 149.162
122.352 144.304 148.728
122.578 142.469 145.335
123.508 142.512 144.94
122.612 142.688 144.296
124.343 142.863 144.596
121.695 142.617 145.753
121.756 143.047 143.772
122.691 143.171 143.421
125.471 143.25 147.171
125.456 143.301 148.205
125.655 144.006 147.821
125.292 143.628 149.042
125.452 143.463 146.177
125.918 144.752 147.542
125.944 144.67 148.349
120.823 144.773 147.021
120.925 143.769 146.597
120.751 144.562 146.122
121.086 143.092 146.236
121.449 143.403 146.997
120.946 145.152 147.711
120.671 145.763 147.37
120.631 145.305 145.755
120.803 144.551 145.284
121.658 143.826 147.733
121.324 144.682 148.068
121.822 144.417 148.382
121.143 145.667 148.311
122.074 145.123 148.862
120.338 146.266 147.097
120.171 146.036 146.332
119.976 146.758 146.891
120.165 145.979 145.55
120.413 146.474 147.774
119.695 147.432 147.44
119.7 147.353 146.726
120.773 143.943 144.813
120.901 143.041 145.277
121.04 143.336 144.234
120.809 144.72 144.427
121.246 143.695 143.355
124.441 152.847 154.598
124.541 153.584 154.22
124.735 152.426 153.75
124.361 154.061 153.637
123.936 154.484 154.476
123.708 153.161 155.107
124.052 152.108 154.543
125.08 151.507 153.361
125.103 152.077 153.027
123.65 154.835 155.207
123.402 153.963 155.446
122.823 154.906 155.493
124.321 151.346 153.852
124.875 151.001 153.483
124.535 150.548 153.368
124.897 152.519 152.618
124.487 153.506 152.905
124.635 152.805 152.155
123.423 153.498 149.17
123.42 153.077 148.383
123.844 152.612 148.59
123.445 152.698 147.565
122.982 153.471 148.121
123.066 154.462 149.71
123.522 153.973 149.934
124.209 152.092 148.807
124.196 151.717 148.081
122.65 154.417 148.607
122.681 154.882 149.415
122.258 155.21 149.082
123.933 153.382 150.089
124.26 152.446 149.492
124.287 152.79 150.217
124.175 151.369 147.382
123.718 151.814 147.14
124.085 150.926 146.627
124.6 145.788 150.515
125.214 145.629 150.739
124.844 144.791 150.165
125.795 145.835 150.608
125.402 146.598 151.026
124.304 146.67 150.778
124.064 145.952 150.393
124.494 144.199 149.632
125.101 144.134 149.655
125.092 147.352 151.461
124.542 147.327 151.275
124.737 148.082 151.732
123.775 145.356 149.906
123.94 144.422 149.538
123.402 144.853 149.488
125.691 144.341 149.487
125.936 145.326 149.856
125.946 144.975 149.129
125.136 145.78 145.135
124.75 145.529 144.42
125.091 144.726 144.763
124.118 145.415 143.816
124.247 146.375 144.257
124.935 146.777 145.645
125.303 146.065 145.886
125.374 143.965 145.331
124.923 143.689 144.538
124.25 147.261 144.831
124.585 147.425 145.503
124.331 148.108 145.357
125.52 145.482 146.349
125.578 144.443 146.135
125.785 145.055 146.893
124.235 143.567 143.827
123.861 144.518 143.425
123.401 143.692 143.277
119.491 153.673 152.693
119.056 153.537 152.06
118.956 154.362 152.355
118.804 153.397 151.359
119.432 152.938 151.521
120.127 153.088 152.781
120.061 153.781 153.198
119.001 155.205 152.636
118.493 155.021 151.963
119.993 152.456 151.587
120.291 152.507 152.264
120.543 151.974 151.566
120.155 154.461 153.64
119.586 155.245 153.37
120.288 155.149 154.124
118.109 154.787 151.279
118.366 153.938 150.993
118.042 154.377 150.559
118.954 154.753 147.194
119.561 154.946 147.156
118.95 155.724 147.661
120.235 154.94 147.132
120.119 154.003 146.659
119.153 153.561 146.843
118.592 154.23 147.357
118.415 156.15 148.257
119.122 156.464 148.186
120.072 153.108 146.107
119.58 152.857 146.248
120.022 152.177 145.59
118.22 154.613 147.989
117.982 155.598 148.428
117.877 154.905 148.649
119.916 156.446 148.228
120.386 155.617 147.724
120.674 156.223 148.281
120.531 148.309 149.406
121.075 147.949 149.419
120.742 147.328 148.998
121.583 147.612 149.499
121.396 148.48 149.851
120.311 149.129 149.71
120.055 148.688 149.266
120.433 146.795 148.532
120.921 146.441 148.626
121.049 149.182 150.237
120.583 149.507 150.109
120.94 149.891 150.42
119.705 148.211 148.842
120.002 147.261 148.363
119.627 147.783 148.167
121.369 146.168 148.815
121.746 146.73 149.224
121.939 145.916 149.025
120.205 146.872 143.357
119.923 147.362 144.177
120.033 146.43 144.075
119.687 147.841 144.894
119.844 148.225 144.333
120.386 147.478 142.842
120.666 146.437 142.652
120.515 145.573 144.159
120.059 146.098 144.851
119.958 148.768 143.962
120.219 148.458 143.221
120.162 149.43 143.799
120.901 145.448 142.739
120.856 145.033 143.625
121.087 144.564 143.059
119.872 146.708 145.449
119.683 147.587 145.481
119.703 147.435 146.121
POLYGONS 1280  5120
3 164 162 163
3 163 44 164
3 162 43 163
3 164 42 162
3 166 165 163
3 163 43 166
3 165 44 163
3 166 14 165
3 168 167 162
3 162 42 168
3 167 43 162
3 168 13 167
3 170 169 164
3 164 44 170
3 169 42 164
3 170 12 169
3 173 171 172
3 172 46 173
3 171 43 172
3 173 45 171
3 167 174 172
3 172 43 167
3 174 46 172
3 167 13 174
3 175 166 171
3 171 45 175
3 166 43 171
3 175 14 166
3 177 176 173
3 173 46 177
3 176 45 173
3 177 4 176
3 180 178 179
3 179 48 180
3 178 42 179
3 180 47 178
3 169 181 179
3 179 42 169
3 181 48 179
3 169 12 181
3 182 168 178
3 178 47 182
3 168 42 178
3 182 13 168
3 184 183 180
3 180 48 184
3 183 47 180
3 184 8 183
3 187 185 186
3 186 50 187
3 185 44 186
3 187 49 185
3 165 188 186
3 186 44 165
3 188 50 186
3 165 14 188
3 189 170 185
3 185 49 189
3 170 44 185
3 189 12 170
3 191 190 187
3 187 50 191
3 190 49 187
3 191 7 190
3 194 192 193
3 193 53 194
3 192 52 193
3 194 51 192
3 196 195 193
3 193 52 196
3 195 53 193
3 196 16 195
3 198 197 192
3 192 51 198
3 197 52 192
3 198 14 197
3 200 199 194
3 194 53 200
3 199 51 194
3 200 15 199
3 203 201 202
3 202 45 203
3 201 52 202
3 203 54 201
3 197 175 202
3 202 52 197
3 175 45 202
3 197 14 175
3 204 196 201
3 201 54 204
3 196 52 201
3 204 16 196
3 176 205 203
3 203 45 176
3 205 54 203
3 176 4 205
3 208 206 207
3 207 55 208
3 206 51 207
3 208 50 206
3 199 209 207
3 207 51 199
3 209 55 207
3 199 15 209
3 188 198 206
3 206 50 188
3 198 51 206
3 188 14 198
3 210 191 208
3 208 55 210
3 191 50 208
3 210 7 191
3 213 211 212
3 212 57 213
3 211 53 212
3 213 56 211
3 195 214 212
3 212 53 195
3 214 57 212
3 195 16 214
3 215 200 211
3 211 56 215
3 200 53 211
3 215 15 200
3 217 216 213
3 213 57 217
3 216 56 213
3 217 9 216
3 220 218 219
3 219 60 220
3 218 59 219
3 220 58 218
3 222 221 219
3 219 59 222
3 221 60 219
3 222 19 221
3 224 223 218
3 218 58 224
3 223 59 218
3 224 18 223
3 226 225 220
3 220 60 226
3 225 58 220
3 226 17 225
3 229 227 228
3 228 62 229
3 227 59 228
3 229 61 227
3 223 230 228
3 228 59 223
3 230 62 228
3 223 18 230
3 231 222 227
3 227 61 231
3 222 59 227
3 231 19 222
3 233 232 229
3 229 62 233
3 232 61 229
3 233 5 232
3 236 234 235
3 235 64 236
3 234 58 235
3 236 63 234
3 225 237 235
3 235 58 225
3 237 64 235
3 225 17 237
3 238 224 234
3 234 63 238
3 224 58 234
3 238 18 224
3 240 239 236
3 236 64 240
3 239 63 236
3 240 6 239
3 243 241 242
3 242 66 243
3 241 60 242
3 243 65 241
3 221 244 242
3 242 60 221
3 244 66 242
3 221 19 244
3 245 226 241
3 241 65 245
3 226 60 241
3 245 17 226
3 247 246 243
3 243 66 247
3 246 65 243
3 247 11 246
3 250 248 249
3 249 69 250
3 248 68 249
3 250 67 248
3 252 251 249
3 249 68 252
3 251 69 249
3 252 18 251
3 254 253 248
3 248 67 254
3 253 68 248
3 254 21 253
3 256 255 250
3 250 69 256
3 255 67 250
3 256 20 255
3 259 257 258
3 258 70 259
3 257 68 258
3 259 62 257
3 253 260 258
3 258 68 253
3 260 70 258
3 253 21 260
3 230 252 257
3 257 62 230
3 252 68 257
3 230 18 252
3 261 233 259
3 259 70 261
3 233 62 259
3 261 5 233
3 264 262 263
3 263 72 264
3 262 67 263
3 264 71 262
3 255 265 263
3 263 67 255
3 265 72 263
3 255 20 265
3 266 254 262
3 262 71 266
3 254 67 262
3 266 21 254
3 268 267 264
3 264 72 268
3 267 71 264
3 268 10 267
3 271 269 270
3 270 63 271
3 269 69 270
3 271 73 269
3 251 238 270
3 270 69 251
3 238 63 270
3 251 18 238
3 272 256 269
3 269 73 272
3 256 69 269
3 272 20 256
3 239 273 271
3 271 63 239
3 273 73 271
3 239 6 273
3 276 274 275
3 275 76 276
3 274 75 275
3 276 74 274
3 278 277 275
3 275 75 278
3 277 76 275
3 278 24 277
3 280 279 274
3 274 74 280
3 279 75 274
3 280 23 279
3 282 281 276
3 276 76 282
3 281 74 276
3 282 22 281
3 285 283 284
3 284 78 285
3 283 75 284
3 285 77 283
3 279 286 284
3 284 75 279
3 286 78 284
3 279 23 286
3 287 278 283
3 283 77 287
3 278 75 283
3 287 24 278
3 289 288 285
3 285 78 289
3 288 77 285
3 289 0 288
3 292 290 291
3 291 80 292
3 290 74 291
3 292 79 290
3 281 293 291
3 291 74 281
3 293 80 291
3 281 22 293
3 294 280 290
3 290 79 294
3 280 74 290
3 294 23 280
3 296 295 292
3 292 80 296
3 295 79 292
3 296 4 295
3 299 297 298
3 298 82 299
3 297 76 298
3 299 81 297
3 277 300 298
3 298 76 277
3 300 82 298
3 277 24 300
3 301 282 297
3 297 81 301
3 282 76 297
3 301 22 282
3 303 302 299
3 299 82 303
3 302 81 299
3 303 3 302
3 306 304 305
3 305 85 306
3 304 84 305
3 306 83 304
3 308 307 305
3 305 84 308
3 307 85 305
3 308 26 307
3 310 309 304
3 304 83 310
3 309 84 304
3 310 24 309
3 312 311 306
3 306 85 312
3 311 83 306
3 312 25 311
3 315 313 314
3 314 77 315
3 313 84 314
3 315 86 313
3 309 287 314
3 314 84 309
3 287 77 314
3 309 24 287
3 316 308 313
3 313 86 316
3 308 84 313
3 316 26 308
3 288 317 315
3 315 77 288
3 317 86 315
3 288 0 317
3 320 318 319
3 319 87 320
3 318 83 319
3 320 82 318
3 311 321 319
3 319 83 311
3 321 87 319
3 311 25 321
3 300 310 318
3 318 82 300
3 310 83 318
3 300 24 310
3 322 303 320
3 320 87 322
3 303 82 320
3 322 3 303
3 325 323 324
3 324 89 325
3 323 85 324
3 325 88 323
3 307 326 324
3 324 85 307
3 326 89 324
3 307 26 326
3 327 312 323
3 323 88 327
3 312 85 323
3 327 25 312
3 329 328 325
3 325 89 329
3 328 88 325
3 329 5 328
3 332 330 331
3 331 92 332
3 330 91 331
3 332 90 330
3 334 333 331
3 331 91 334
3 333 92 331
3 334 29 333
3 336 335 330
3 330 90 336
3 335 91 330
3 336 28 335
3 338 337 332
3 332 92 338
3 337 90 332
3 338 27 337
3 341 339 340
3 340 94 341
3 339 91 340
3 341 93 339
3 335 342 340
3 340 91 335
3 342 94 340
3 335 28 342
3 343 334 339
3 339 93 343
3 334 91 339
3 343 29 334
3 345 344 341
3 341 94 345
3 344 93 341
3 345 2 344
3 348 346 347
3 347 96 348
3 346 90 347
3 348 95 346
3 337 349 347
3 347 90 337
3 349 96 347
3 337 27 349
3 350 336 346
3 346 95 350
3 336 90 346
3 350 28 336
3 352 351 348
3 348 96 352
3 351 95 348
3 352 7 351
3 355 353 354
3 354 98 355
3 353 92 354
3 355 97 353
3 333 356 354
3 354 92 333
3 356 98 354
3 333 29 356
3 357 338 353
3 353 97 357
3 338 92 353
3 357 27 338
3 359 358 355
3 355 98 359
3 358 97 355
3 359 1 358
3 362 360 361
3 361 101 362
3 360 100 361
3 362 99 360
3 364 363 361
3 361 100 364
3 363 101 361
3 364 31 363
3 366 365 360
3 360 99 366
3 365 100 360
3 366 29 365
3 368 367 362
3 362 101 368
3 367 99 362
3 368 30 367
3 371 369 370
3 370 93 371
3 369 100 370
3 371 102 369
3 365 343 370
3 370 100 365
3 343 93 370
3 365 29 343
3 372 364 369
3 369 102 372
3 364 100 369
3 372 31 364
3 344 373 371
3 371 93 344
3 373 102 371
3 344 2 373
3 376 374 375
3 375 103 376
3 374 99 375
3 376 98 374
3 367 377 375
3 375 99 367
3 377 103 375
3 367 30 377
3 356 366 374
3 374 98 356
3 366 99 374
3 356 29 366
3 378 359 376
3 376 103 378
3 359 98 376
3 378 1 359
3 381 379 380
3 380 105 381
3 379 101 380
3 381 104 379
3 363 382 380
3 380 101 363
3 382 105 380
3 363 31 382
3 383 368 379
3 379 104 383
3 368 101 379
3 383 30 368
3 385 384 381
3 381 105 385
3 384 104 381
3 385 6 384
3 388 386 387
3 387 108 388
3 386 107 387
3 388 106 386
3 390 389 387
3 387 107 390
3 389 108 387
3 390 34 389
3 392 391 386
3 386 106 392
3 391 107 386
3 392 33 391
3 394 393 388
3 388 108 394
3 393 106 388
3 394 32 393
3 397 395 396
3 396 110 397
3 395 107 396
3 397 109 395
3 391 398 396
3 396 107 391
3 398 110 396
3 391 33 398
3 399 390 395
3 395 109 399
3 390 107 395
3 399 34 390
3 401 400 397
3 397 110 401
3 400 109 397
3 401 8 400
3 404 402 403
3 403 112 404
3 402 106 403
3 404 111 402
3 393 405 403
3 403 106 393
3 405 112 403
3 393 32 405
3 406 392 402
3 402 111 406
3 392 106 402
3 406 33 392
3 408 407 404
3 404 112 408
3 407 111 404
3 408 0 407
3 411 409 410
3 410 114 411
3 409 108 410
3 411 113 409
3 389 412 410
3 410 108 389
3 412 114 410
3 389 34 412
3 413 394 409
3 409 113 413
3 394 108 409
3 413 32 394
3 415 414 411
3 411 114 415
3 414 113 411
3 415 11 414
3 418 416 417
3 417 117 418
3 416 116 417
3 418 115 416
3 420 419 417
3 417 116 420
3 419 117 417
3 420 36 419
3 422 421 416
3 416 115 422
3 421 116 416
3 422 34 421
3 424 423 418
3 418 117 424
3 423 115 418
3 424 35 423
3 427 425 426
3 426 109 427
3 425 116 426
3 427 118 425
3 421 399 426
3 426 116 421
3 399 109 426
3 421 34 399
3 428 420 425
3 425 118 428
3 420 116 425
3 428 36 420
3 400 429 427
3 427 109 400
3 429 118 427
3 400 8 429
3 432 430 431
3 431 119 432
3 430 115 431
3 432 114 430
3 423 433 431
3 431 115 423
3 433 119 431
3 423 35 433
3 412 422 430
3 430 114 412
3 422 115 430
3 412 34 422
3 434 415 432
3 432 119 434
3 415 114 432
3 434 11 415
3 437 435 436
3 436 121 437
3 435 117 436
3 437 120 435
3 419 438 436
3 436 117 419
3 438 121 436
3 419 36 438
3 439 424 435
3 435 120 439
3 424 117 435
3 439 35 424
3 441 440 437
3 437 121 441
3 440 120 437
3 441 1 440
3 444 442 443
3 443 124 444
3 442 123 443
3 444 122 442
3 446 445 443
3 443 123 446
3 445 124 443
3 446 39 445
3 448 447 442
3 442 122 448
3 447 123 442
3 448 38 447
3 450 449 444
3 444 124 450
3 449 122 444
3 450 37 449
3 453 451 452
3 452 126 453
3 451 123 452
3 453 125 451
3 447 454 452
3 452 123 447
3 454 126 452
3 447 38 454
3 455 446 451
3 451 125 455
3 446 123 451
3 455 39 446
3 457 456 453
3 453 126 457
3 456 125 453
3 457 9 456
3 460 458 459
3 459 128 460
3 458 122 459
3 460 127 458
3 449 461 459
3 459 122 449
3 461 128 459
3 449 37 461
3 462 448 458
3 458 127 462
3 448 122 458
3 462 38 448
3 464 463 460
3 460 128 464
3 463 127 460
3 464 10 463
3 467 465 466
3 466 130 467
3 465 124 466
3 467 129 465
3 445 468 466
3 466 124 445
3 468 130 466
3 445 39 468
3 469 450 465
3 465 129 469
3 450 124 465
3 469 37 450
3 471 470 467
3 467 130 471
3 470 129 467
3 471 3 470
3 474 472 473
3 473 133 474
3 472 132 473
3 474 131 472
3 476 475 473
3 473 132 476
3 475 133 473
3 476 38 475
3 478 477 472
3 472 131 478
3 477 132 472
3 478 41 477
3 480 479 474
3 474 133 480
3 479 131 474
3 480 40 479
3 483 481 482
3 482 134 483
3 481 132 482
3 483 126 481
3 477 484 482
3 482 132 477
3 484 134 482
3 477 41 484
3 454 476 481
3 481 126 454
3 476 132 481
3 454 38 476
3 485 457 483
3 483 134 485
3 457 126 483
3 485 9 457
3 488 486 487
3 487 136 488
3 486 131 487
3 488 135 486
3 479 489 487
3 487 131 479
3 489 136 487
3 479 40 489
3 490 478 486
3 486 135 490
3 478 131 486
3 490 41 478
3 492 491 488
3 488 136 492
3 491 135 488
3 492 2 491
3 495 493 494
3 494 127 495
3 493 133 494
3 495 137 493
3 475 462 494
3 494 133 475
3 462 127 494
3 475 38 462
3 496 480 493
3 493 137 496
3 480 133 493
3 496 40 480
3 463 497 495
3 495 127 463
3 497 137 495
3 463 10 497
3 500 498 499
3 499 140 500
3 498 139 499
3 500 138 498
3 502 501 499
3 499 139 502
3 501 140 499
3 502 33 501
3 504 503 498
3 498 138 504
3 503 139 498
3 504 13 503
3 506 505 500
3 500 140 506
3 505 138 500
3 506 23 505
3 509 507 508
3 508 47 509
3 507 139 508
3 509 110 507
3 503 182 508
3 508 139 503
3 182 47 508
3 503 13 182
3 398 502 507
3 507 110 398
3 502 139 507
3 398 33 502
3 183 401 509
3 509 47 183
3 401 110 509
3 183 8 401
3 512 510 511
3 511 79 512
3 510 138 511
3 512 46 510
3 505 294 511
3 511 138 505
3 294 79 511
3 505 23 294
3 174 504 510
3 510 46 174
3 504 138 510
3 174 13 504
3 295 177 512
3 512 79 295
3 177 46 512
3 295 4 177
3 515 513 514
3 514 111 515
3 513 140 514
3 515 78 513
3 501 406 514
3 514 140 501
3 406 111 514
3 501 33 406
3 286 506 513
3 513 78 286
3 506 140 513
3 286 23 506
3 407 289 515
3 515 111 407
3 289 78 515
3 407 0 289
3 518 516 517
3 517 143 518
3 516 142 517
3 518 141 516
3 520 519 517
3 517 142 520
3 519 143 517
3 520 19 519
3 522 521 516
3 516 141 522
3 521 142 516
3 522 32 521
3 524 523 518
3 518 143 524
3 523 141 518
3 524 26 523
3 527 525 526
3 526 113 527
3 525 142 526
3 527 66 525
3 521 413 526
3 526 142 521
3 413 113 526
3 521 32 413
3 244 520 525
3 525 66 244
3 520 142 525
3 244 19 520
3 414 247 527
3 527 113 414
3 247 66 527
3 414 11 247
3 530 528 529
3 529 86 530
3 528 141 529
3 530 112 528
3 523 316 529
3 529 141 523
3 316 86 529
3 523 26 316
3 405 522 528
3 528 112 405
3 522 141 528
3 405 32 522
3 317 408 530
3 530 86 317
3 408 112 530
3 317 0 408
3 533 531 532
3 532 61 533
3 531 143 532
3 533 89 531
3 519 231 532
3 532 143 519
3 231 61 532
3 519 19 231
3 326 524 531
3 531 89 326
3 524 143 531
3 326 26 524
3 232 329 533
3 533 61 232
3 329 89 533
3 232 5 329
3 536 534 535
3 535 146 536
3 534 145 535
3 536 144 534
3 538 537 535
3 535 145 538
3 537 146 535
3 538 22 537
3 540 539 534
3 534 144 540
3 539 145 534
3 540 16 539
3 542 541 536
3 536 146 542
3 541 144 536
3 542 39 541
3 545 543 544
3 544 54 545
3 543 145 544
3 545 80 543
3 539 204 544
3 544 145 539
3 204 54 544
3 539 16 204
3 293 538 543
3 543 80 293
3 538 145 543
3 293 22 538
3 205 296 545
3 545 54 205
3 296 80 545
3 205 4 296
3 548 546 547
3 547 125 548
3 546 144 547
3 548 57 546
3 541 455 547
3 547 144 541
3 455 125 547
3 541 39 455
3 214 540 546
3 546 57 214
3 540 144 546
3 214 16 540
3 456 217 548
3 548 125 456
3 217 57 548
3 456 9 217
3 551 549 550
3 550 81 551
3 549 146 550
3 551 130 549
3 537 301 550
3 550 146 537
3 301 81 550
3 537 22 301
3 468 542 549
3 549 130 468
3 542 146 549
3 468 39 542
3 302 471 551
3 551 81 302
3 471 130 551
3 302 3 471
3 554 552 553
3 553 149 554
3 552 148 553
3 554 147 552
3 556 555 553
3 553 148 556
3 555 149 553
3 556 21 555
3 558 557 552
3 552 147 558
3 557 148 552
3 558 25 557
3 560 559 554
3 554 149 560
3 559 147 554
3 560 37 559
3 563 561 562
3 562 88 563
3 561 148 562
3 563 70 561
3 557 327 562
3 562 148 557
3 327 88 562
3 557 25 327
3 260 556 561
3 561 70 260
3 556 148 561
3 260 21 556
3 328 261 563
3 563 88 328
3 261 70 563
3 328 5 261
3 566 564 565
3 565 129 566
3 564 147 565
3 566 87 564
3 559 469 565
3 565 147 559
3 469 129 565
3 559 37 469
3 321 558 564
3 564 87 321
3 558 147 564
3 321 25 558
3 470 322 566
3 566 129 470
3 322 87 566
3 470 3 322
3 569 567 568
3 568 71 569
3 567 149 568
3 569 128 567
3 555 266 568
3 568 149 555
3 266 71 568
3 555 21 266
3 461 560 567
3 567 128 461
3 560 149 567
3 461 37 560
3 267 464 569
3 569 71 267
3 464 128 569
3 267 10 464
3 572 570 571
3 571 152 572
3 570 151 571
3 572 150 570
3 574 573 571
3 571 151 574
3 573 152 571
3 574 27 573
3 576 575 570
3 570 150 576
3 575 151 570
3 576 12 575
3 578 577 572
3 572 152 578
3 577 150 572
3 578 36 577
3 581 579 580
3 580 49 581
3 579 151 580
3 581 96 579
3 575 189 580
3 580 151 575
3 189 49 580
3 575 12 189
3 349 574 579
3 579 96 349
3 574 151 579
3 349 27 574
3 190 352 581
3 581 49 190
3 352 96 581
3 190 7 352
3 584 582 583
3 583 118 584
3 582 150 583
3 584 48 582
3 577 428 583
3 583 150 577
3 428 118 583
3 577 36 428
3 181 576 582
3 582 48 181
3 576 150 582
3 181 12 576
3 429 184 584
3 584 118 429
3 184 48 584
3 429 8 184
3 587 585 586
3 586 97 587
3 585 152 586
3 587 121 585
3 573 357 586
3 586 152 573
3 357 97 586
3 573 27 357
3 438 578 585
3 585 121 438
3 578 152 585
3 438 36 578
3 358 441 587
3 587 97 358
3 441 121 587
3 358 1 441
3 590 588 589
3 589 155 590
3 588 154 589
3 590 153 588
3 592 591 589
3 589 154 592
3 591 155 589
3 592 17 591
3 594 593 588
3 588 153 594
3 593 154 588
3 594 30 593
3 596 595 590
3 590 155 596
3 595 153 590
3 596 35 595
3 599 597 598
3 598 104 599
3 597 154 598
3 599 64 597
3 593 383 598
3 598 154 593
3 383 104 598
3 593 30 383
3 237 592 597
3 597 64 237
3 592 154 597
3 237 17 592
3 384 240 599
3 599 104 384
3 240 64 599
3 384 6 240
3 602 600 601
3 601 120 602
3 600 153 601
3 602 103 600
3 595 439 601
3 601 153 595
3 439 120 601
3 595 35 439
3 377 594 600
3 600 103 377
3 594 153 600
3 377 30 594
3 440 378 602
3 602 120 440
3 378 103 602
3 440 1 378
3 605 603 604
3 604 65 605
3 603 155 604
3 605 119 603
3 591 245 604
3 604 155 591
3 245 65 604
3 591 17 245
3 433 596 603
3 603 119 433
3 596 155 603
3 433 35 596
3 246 434 605
3 605 65 246
3 434 119 605
3 246 11 434
3 608 606 607
3 607 158 608
3 606 157 607
3 608 156 606
3 610 609 607
3 607 157 610
3 609 158 607
3 610 15 609
3 612 611 606
3 606 156 612
3 611 157 606
3 612 28 611
3 614 613 608
3 608 158 614
3 613 156 608
3 614 41 613
3 617 615 616
3 616 95 617
3 615 157 616
3 617 55 615
3 611 350 616
3 616 157 611
3 350 95 616
3 611 28 350
3 209 610 615
3 615 55 209
3 610 157 615
3 209 15 610
3 351 210 617
3 617 95 351
3 210 55 617
3 351 7 210
3 620 618 619
3 619 135 620
3 618 156 619
3 620 94 618
3 613 490 619
3 619 156 613
3 490 135 619
3 613 41 490
3 342 612 618
3 618 94 342
3 612 156 618
3 342 28 612
3 491 345 620
3 620 135 491
3 345 94 620
3 491 2 345
3 623 621 622
3 622 56 623
3 621 158 622
3 623 134 621
3 609 215 622
3 622 158 609
3 215 56 622
3 609 15 215
3 484 614 621
3 621 134 484
3 614 158 621
3 484 41 614
3 216 485 623
3 623 56 216
3 485 134 623
3 216 9 485
3 626 624 625
3 625 161 626
3 624 160 625
3 626 159 624
3 628 627 625
3 625 160 628
3 627 161 625
3 628 31 627
3 630 629 624
3 624 159 630
3 629 160 624
3 630 20 629
3 632 631 626
3 626 161 632
3 631 159 626
3 632 40 631
3 635 633 634
3 634 73 635
3 633 160 634
3 635 105 633
3 629 272 634
3 634 160 629
3 272 73 634
3 629 20 272
3 382 628 633
3 633 105 382
3 628 160 633
3 382 31 628
3 273 385 635
3 635 73 273
3 385 105 635
3 273 6 385
3 638 636 637
3 637 137 638
3 636 159 637
3 638 72 636
3 631 496 637
3 637 159 631
3 496 137 637
3 631 40 496
3 265 630 636
3 636 72 265
3 630 159 636
3 265 20 630
3 497 268 638
3 638 137 497
3 268 72 638
3 497 10 268
3 641 639 640
3 640 102 641
3 639 161 640
3 641 136 639
3 627 372 640
3 640 161 627
3 372 102 640
3 627 31 372
3 489 632 639
3 639 136 489
3 632 161 639
3 489 40 632
3 373 492 641
3 641 102 373
3 492 136 641
3 373 2 492
