# vtk DataFile Version 3.0
this file was written using fslvtkio
ASCII
DATASET POLYDATA
POINTS 642 float
111.68 141.381 154.489
104.925 149.494 151.328
99.7725 133.167 147.891
105.917 126.027 152.001
106.874 130.837 162.228
109.375 138.785 146.947
106.616 141.519 144.675
101.292 137.272 158.4
108.634 148.825 160.338
101.251 121.128 153.71
102.356 123.392 140.423
116.691 153.172 147.306
104.115 143.773 161.494
107.834 139.909 163.208
102.997 133.167 162.853
100.507 128.794 157.053
103.539 123.297 160.526
112.676 149.416 143.85
108.875 140.526 144.98
117.893 145.588 144.534
103.182 130.769 140.858
105.181 129.382 143.697
107.017 126.181 157.39
110.133 136.2 159.264
108.089 134.095 153.971
105.695 132.114 148.993
111.918 141.602 149.916
102.434 144.472 155.551
99.6978 135.033 153.238
101.943 141.827 149.623
106.695 147.795 146.729
102.384 136.669 144.963
116.226 147.798 150.995
111.545 145.752 157.471
112.734 153.996 154.016
110.451 154.668 148.984
106.481 152.134 156.576
104.517 122.414 146.814
100.77 118.819 146.343
104.388 118.053 153.285
100.622 126.598 143.435
100.021 126.339 150.303
105.626 141.962 163.538
105.183 136.568 164.423
103.383 138.456 162.648
104.928 131.544 163.74
107.491 135.388 163.21
108.24 144.667 162.083
106.122 147.117 161.963
102.718 140.55 159.97
101.895 135.419 160.718
101.474 130.739 160.302
102.994 128.081 162.118
101.779 126.03 159.099
105.343 126.61 162.189
100.482 133.073 158
100.943 124.876 155.509
102.003 121.958 157.215
111.789 145.609 143.774
113.639 144.381 144.644
115.755 147.842 142.995
113.433 142.869 146.261
109.205 139.649 145.773
107.946 141.128 144.488
109.403 146.039 144.353
115.043 151.957 144.978
118.539 149.363 145.37
104.7 129.763 140.973
105.716 134.167 144.521
105.409 135.221 143.991
106.161 134.708 145.92
104.422 125.944 141.295
102.352 127.293 138.13
104.878 136.637 143.867
108.741 131.133 158.526
109.639 134.362 156.576
108.158 130.084 155.77
109.907 137.777 154.369
110.875 138.646 156.907
108.751 133.418 161.097
107.149 128.164 160.139
106.806 126.024 154.527
106.792 130.175 153.142
106.799 133.664 151.47
108.963 137.946 152.083
108.201 137.379 149.831
111.775 141.857 152.096
105.433 129.067 150.528
106.975 135.789 147.885
111.038 140.385 148.204
100.911 139.733 154.395
100.5 138.616 151.468
101.804 143.127 152.532
100.622 137.577 148.589
99.7585 134.082 150.496
100.273 136.14 155.963
101.974 140.963 157.084
103.391 147.437 153.565
103.338 146.022 150.45
104.107 144.743 148.11
102.071 139.952 147.052
104.356 142.55 146.102
100.851 134.621 146.072
105.914 149.171 148.885
106.791 144.757 145.447
104.316 139.171 144.636
113.876 147.563 154.227
112.312 150.148 155.712
114.995 151.351 152.246
110.303 151.95 157.435
110.193 147.537 158.978
112.194 143.307 156.024
113.909 144.713 153.002
117.397 150.452 149.071
115.179 154.891 150.504
111.845 156.461 151.777
109.56 154.909 156.07
108.382 154.614 152.953
107.42 151.515 159.396
113.753 155.302 147.507
107.421 152.556 150.551
105.858 151.095 153.753
103.371 118.31 145.838
102.815 115.614 149.893
104.73 119.488 149.717
102.179 117.966 154.387
101.21 119.28 150.337
101.309 119.863 142.34
103.673 122.561 143.613
105.036 124.22 149.647
105.502 122.124 152.546
100.025 126.116 146.765
100.431 122.349 148.202
100.449 122.571 144.109
100.362 123.379 151.908
99.654 129.822 148.98
99.9623 130.072 145.782
100.445 124.982 140.364
109.39 138.119 161.487
109.757 142.934 160.603
110.971 141.114 158.787
115.183 144.473 150.424
118.177 146.283 147.868
115.579 143.664 147.631
103.938 119.645 157.189
105.826 123.759 159.298
105.467 122.089 155.545
104.775 127.108 147.908
105.367 131.016 146.508
104.761 125.983 144.898
105.079 148.393 159.322
103.323 144.733 158.514
104.261 148.487 156.293
108.681 151.591 147.625
109.403 149.157 145.14
111.711 152.672 145.812
99.4833 130.665 151.959
99.7796 131.705 155.119
100.046 127.419 153.627
101.344 128.891 141.019
102.939 133.56 143.472
100.875 131.415 143.72
105.325 139.229 164.083
104.074 137.576 163.838
104.363 140.23 163.296
103.13 135.915 162.986
103.931 135.012 163.893
106.505 138.245 163.995
106.707 140.682 163.666
104.691 142.766 162.697
103.713 141.099 162.186
105.056 134.183 164.408
106.445 135.925 164.009
106.142 133.443 163.599
107.598 137.682 163.341
103.889 132.435 163.666
105.952 131.096 163.015
107.048 133.098 162.72
106.977 143.309 163.137
105.797 144.467 162.892
107.114 145.713 162.482
105.123 145.472 161.791
107.981 142.319 162.754
108.396 146.825 161.449
107.486 148.035 161.572
103.013 139.656 161.334
102.608 136.977 161.813
102.149 138.025 160.584
102.355 134.385 161.922
103.372 142.16 160.867
101.988 138.792 159.25
101.6 136.39 159.555
102.127 129.443 161.318
102.373 126.973 160.66
101.638 128.386 159.763
102.589 124.665 159.981
103.206 125.653 161.597
102.975 130.616 162.548
102.192 131.878 161.65
101.012 129.527 158.732
101.1 127.465 158.185
104.019 127.157 162.577
103.861 129.793 163.229
105.068 129.005 163.012
104.442 124.708 161.688
106.086 128.778 162.234
101.661 133.121 160.675
101.09 131.834 159.173
101.164 134.162 159.429
100.546 130.896 157.719
100.918 135.23 158.228
101.246 125.475 157.314
101.983 124.036 158.24
101.456 123.408 156.419
102.664 122.476 158.974
100.696 126.839 156.407
101.006 122.906 154.66
101.556 121.471 155.384
112.341 144.644 144.436
114.837 145.739 143.697
113.572 146.431 143.013
117.083 146.862 143.318
116.075 145.136 144.246
111.149 142.867 144.964
110.661 143.354 144.516
112.338 147.532 143.505
114.274 148.67 143.239
113.98 143.7 145.298
111.552 142.252 145.331
111.659 141.78 145.973
109.089 140.073 145.322
115.834 144.232 145.572
111.106 140.807 146.662
109.275 139.257 146.296
109.903 143.697 144.377
110.661 145.968 143.945
109.017 143.85 144.443
110.972 148 143.965
108.524 140.898 144.603
107.328 141.342 144.468
107.881 143.687 144.588
115.739 149.994 143.658
117.424 148.891 143.731
116.983 150.791 144.678
118.671 147.428 144.633
113.974 150.818 144.096
116.153 152.623 145.941
117.638 151.28 146.244
105.001 131.64 143.02
105.588 134.864 144.386
104.632 132.125 142.437
107.128 137.893 144.486
107.28 137.443 144.856
105.218 131.376 143.846
105.148 129.483 142.224
103.876 130.195 140.286
104.137 132.257 142.306
107.382 137.237 145.331
105.717 134.043 145.061
107.524 136.939 145.871
105.265 131.724 144.948
107.775 136.954 146.516
104.671 127.846 140.736
103.952 128.391 139.167
103.565 126.474 139.564
102.605 129.248 138.575
105.049 127.523 142.4
103.386 124.668 140.706
102.187 125.263 139.097
105.123 135.621 143.948
106.814 138.455 144.295
106.341 138.793 144.096
104.056 133.445 143.097
105.776 139.151 144.301
109.366 132.767 157.625
108.894 132.238 156.218
108.517 130.443 157.186
108.203 132.082 154.92
108.911 133.999 155.263
110.022 135.057 157.992
109.58 133.613 158.971
107.92 128.709 157.982
107.738 128.188 156.663
109.757 135.951 155.455
110.319 136.407 156.851
110.481 137.989 155.684
110.677 137.373 158.146
108.997 135.875 154.202
110.97 139.461 154.41
111.168 139.979 155.664
108.887 132.207 159.833
107.981 129.654 159.349
107.943 130.89 160.644
107.234 127.108 158.808
109.532 134.691 160.202
107.746 132.17 161.757
107.007 129.531 161.28
107.423 128.015 155.298
107.458 130.105 154.514
106.909 128.142 153.877
107.433 132.113 153.623
106.923 126.092 155.998
106.469 126.087 153.178
106.271 128.128 152.594
107.611 135.878 151.994
108.48 137.761 150.994
107.09 135.598 150.734
109.856 139.438 150.011
110.146 139.666 150.981
108.345 136.038 153.034
107.395 134.002 152.775
106.317 133.253 150.201
106.848 135.001 149.606
110.449 139.876 151.993
109.484 137.859 153.149
110.753 139.716 153.168
111.815 141.791 150.936
111.592 141.55 153.414
106.751 131.988 152.289
106.092 131.539 150.923
106.13 129.894 151.791
105.49 130.639 149.718
105.661 127.53 151.313
107.585 136.553 148.886
109.504 138.978 149.056
108.944 138.112 148.214
111.569 141.054 149.047
106.245 133.965 148.445
108.108 137.392 147.441
110.188 139.512 147.497
100.583 139.306 152.955
101.187 140.88 152.017
101.351 141.52 153.525
101.744 142.421 151.043
101.111 140.273 150.589
99.972 136.999 152.452
100.142 137.458 153.808
101.673 142.111 154.922
101.971 143.673 154.079
100.454 138.159 150.039
99.885 136.479 151.028
100.027 135.997 149.615
99.6413 134.664 151.857
101.084 139.742 149.151
100.213 135.435 148.231
99.7582 133.887 149.1
100.518 137.894 155.178
101.405 140.394 155.722
101.03 138.7 156.543
102.103 142.752 156.338
99.8417 135.626 154.589
100.734 136.815 157.247
101.594 139.115 157.876
102.546 145.258 153.102
102.43 144.535 151.535
103.091 146.568 152.026
102.613 143.934 150.114
102.764 145.975 154.583
104.002 148.436 152.336
104.076 147.797 150.886
102.996 142.379 147.586
103.13 141.126 146.516
104.222 143.673 147.037
103.369 139.809 145.628
102.433 138.597 145.983
102.003 141.078 148.262
102.896 143.35 148.771
105.317 146.17 147.422
105.482 145.108 146.558
101.501 137.351 146.482
101.19 138.881 147.726
100.751 136.373 147.244
101.658 135.72 145.389
100.297 133.885 146.979
103.702 145.385 149.208
105.03 146.956 148.484
104.543 147.475 149.584
106.334 148.428 147.776
105.393 149.326 150.144
105.522 143.805 145.785
104.343 140.945 145.221
105.573 142.112 145.185
103.378 138.007 144.844
106.794 146.478 146.021
106.748 143.112 144.923
105.513 140.429 144.675
113.17 148.973 154.919
113.705 150.945 154
114.391 149.488 153.249
113.88 152.827 153.127
112.652 152.161 154.82
112.026 148.021 156.573
112.687 146.948 155.831
115.068 147.974 152.639
115.714 149.622 151.683
111.43 151.147 156.516
111.2 148.876 157.318
110.401 149.864 158.206
110.931 146.622 158.228
111.491 153.064 155.756
109.397 150.504 159.068
109.385 148.18 159.717
112.992 145.543 155.27
114.104 146.097 153.749
112.978 144.034 154.583
115.178 146.345 152.209
112.055 144.721 156.702
111.908 142.148 155.343
112.604 143.038 153.79
116.27 151.193 150.746
115.248 153.173 151.444
116.529 152.827 149.801
114.098 154.606 152.274
116.942 149.117 150.064
117.515 151.893 148.04
116.038 154.249 148.795
110.811 156.039 154.072
108.954 155.161 154.491
110.023 155.92 152.44
107.484 153.669 154.842
107.827 153.903 156.413
111.32 154.787 155.209
112.545 155.652 153.32
111.018 155.839 150.322
109.449 154.91 151.061
108.369 153.425 157.803
110.086 153.634 156.967
108.911 151.975 158.722
106.879 152.092 158.023
108.03 150.158 160.194
113.645 156.188 151.283
112.797 156.227 149.567
114.709 155.766 149.052
112.003 155.428 148.242
115.325 154.412 147.19
108.032 153.506 151.79
106.952 153.024 153.513
106.457 152.004 152.149
106.195 151.955 155.106
108.943 153.784 149.946
106.272 150.894 151.002
105.312 150.195 152.498
103.381 116.698 147.715
104.198 117.141 149.695
104.247 118.477 147.939
104.565 118.533 151.397
103.969 116.324 151.647
101.633 116.914 148.058
101.935 117.31 145.814
104.198 120.07 146.333
104.704 120.61 148.059
102.302 116.509 152.132
101.654 117.282 150.211
101.619 118.291 152.255
101.014 118.779 148.42
103.403 116.903 154.016
101.68 119.588 153.935
101.126 120.09 152.139
102.39 118.775 144.12
103.606 120.372 144.562
102.873 120.881 142.656
104.116 122.232 145.301
100.787 118.747 144.153
101.809 121.659 140.969
103.208 123.027 141.961
105.024 121.7 149.499
105.108 120.688 151.146
105.416 122.932 150.925
105.003 119.991 152.821
104.894 122.877 148.274
105.5 125.217 150.867
105.98 124.116 152.191
100.198 124.188 147.278
100.535 122.43 146.138
100.223 124.263 145.404
100.594 120.612 145.095
100.669 120.586 147.252
100.066 124.227 149.122
100.051 126.012 148.487
100.352 126.294 145.116
100.328 124.647 143.613
100.757 120.633 149.147
100.273 122.623 150.049
100.713 121.312 151.072
100.119 124.703 150.942
100.761 122.198 152.885
100.07 127.903 147.944
100.223 128.062 146.291
99.8903 129.994 147.408
100.476 128.216 144.767
99.9132 127.927 149.515
99.3461 131.707 148.47
99.6339 131.776 146.842
100.257 123.43 142.154
100.405 121.016 143.042
100.332 122.19 140.99
100.579 125.55 141.893
100.918 123.886 139.519
109.561 140.51 161.116
110.506 142.034 159.743
110.093 139.559 160.103
111.316 143.505 158.269
110.666 144.356 159.076
108.78 141.411 161.958
108.67 139.077 162.349
109.889 137.241 160.406
110.557 138.599 159.197
110.002 145.284 159.818
108.994 143.728 161.397
109.275 146.124 160.666
108.528 136.795 162.448
109.172 135.809 161.312
108.174 134.477 162.104
111.075 139.789 157.948
111.618 142.36 157.461
111.49 141.006 156.622
116.673 145.262 149.362
117.22 144.823 147.737
115.23 143.896 149.07
117.06 144.387 146.231
118.663 145.877 146.09
117.208 146.957 149.493
116.076 146.014 150.735
113.661 143.112 150.032
113.719 142.826 148.824
118.659 147.644 146.622
117.903 148.274 148.613
118.256 149.772 147.419
114.706 144.727 151.705
113.443 143.27 151.21
112.973 143.26 152.435
113.077 142.31 148.052
114.524 143.356 146.874
111.97 141.699 147.259
104.853 121.73 158.129
105.61 122.856 157.3
104.848 120.557 156.203
106.245 124.159 156.538
106.431 124.853 158.351
104.777 123.062 160.021
103.799 121.27 159.01
104.114 118.373 155.359
104.839 119.819 154.472
106.511 125.91 159.792
105.605 124.864 160.924
106.399 127.19 161.248
102.642 120.555 157.761
102.85 118.243 156.316
101.956 119.954 155.797
105.431 122.051 154.05
106.315 124.149 155.118
106.308 124.106 153.592
104.902 128.962 147.056
104.971 128.2 145.753
104.708 126.324 146.503
104.983 127.745 144.21
105.094 130.047 145.261
105.507 131.533 147.748
104.985 129.624 148.367
104.726 124.592 147.397
104.536 124.18 145.8
105.71 132.833 146.056
105.913 133.562 147.247
106.772 135.459 146.82
105.103 128.308 149.228
104.873 125.641 148.731
105.215 126.756 150.053
104.412 124.22 144.1
104.802 126.166 143.244
104.13 124.511 142.405
104.119 146.6 158.978
103.649 146.723 157.474
104.745 148.577 157.739
103.235 146.544 156.006
102.902 144.804 157.01
103.741 144.374 159.996
104.594 146.135 160.417
105.691 150.329 158.002
105.373 150.344 156.527
102.617 142.961 157.79
102.953 142.745 159.364
102.343 140.884 158.508
105.466 147.958 160.735
106.158 150.256 159.391
106.681 149.347 160.739
105.179 149.973 155.085
103.773 148.094 154.976
104.433 149.421 153.732
109.028 150.498 146.169
110.566 151.103 145.348
110.087 152.31 146.776
112.233 151.083 144.591
110.915 149.543 144.458
108.025 148.515 145.934
107.66 149.844 147.016
109.495 153.314 148.218
111.033 153.867 147.267
109.365 147.543 144.632
107.892 146.966 145.297
107.932 145.185 144.879
107.351 150.549 148.266
108.162 152.37 149.073
106.843 150.943 149.648
112.51 154.363 146.702
113.191 152.481 145.256
114.323 153.761 146.107
99.6188 131.184 153.517
99.9214 129.616 154.42
99.8507 128.969 152.732
100.295 128.135 155.336
100.097 130.213 156.098
99.5685 133.312 154.185
99.4796 132.809 152.729
99.7615 128.502 151.127
99.9214 126.873 151.934
100.118 132.281 156.568
99.7883 133.938 155.543
100.235 134.556 156.939
99.3324 132.402 151.354
99.4835 130.091 150.475
99.2474 132.011 149.854
100.248 125.429 152.672
100.395 126.155 154.592
100.604 124.168 153.729
101.971 131.133 142.093
101.661 132.588 143.238
101.091 129.834 142.541
101.436 134.075 144.147
102.639 135.059 144.174
103.079 132.059 142.37
102.212 130.09 140.523
100.976 127.517 142.068
100.784 128.787 143.535
103.616 136.541 144.112
103.963 134.84 143.794
104.6 137.906 144.289
101.467 128.531 139.1
100.873 127.022 140.479
100.81 126.287 138.717
100.473 130.653 144.61
100.764 133.328 144.807
100.025 132.421 145.756
POLYGONS 1280  5120
3 164 162 163
3 163 44 164
3 162 43 163
3 164 42 162
3 166 165 163
3 163 43 166
3 165 44 163
3 166 14 165
3 168 167 162
3 162 42 168
3 167 43 162
3 168 13 167
3 170 169 164
3 164 44 170
3 169 42 164
3 170 12 169
3 173 171 172
3 172 46 173
3 171 43 172
3 173 45 171
3 167 174 172
3 172 43 167
3 174 46 172
3 167 13 174
3 175 166 171
3 171 45 175
3 166 43 171
3 175 14 166
3 177 176 173
3 173 46 177
3 176 45 173
3 177 4 176
3 180 178 179
3 179 48 180
3 178 42 179
3 180 47 178
3 169 181 179
3 179 42 169
3 181 48 179
3 169 12 181
3 182 168 178
3 178 47 182
3 168 42 178
3 182 13 168
3 184 183 180
3 180 48 184
3 183 47 180
3 184 8 183
3 187 185 186
3 186 50 187
3 185 44 186
3 187 49 185
3 165 188 186
3 186 44 165
3 188 50 186
3 165 14 188
3 189 170 185
3 185 49 189
3 170 44 185
3 189 12 170
3 191 190 187
3 187 50 191
3 190 49 187
3 191 7 190
3 194 192 193
3 193 53 194
3 192 52 193
3 194 51 192
3 196 195 193
3 193 52 196
3 195 53 193
3 196 16 195
3 198 197 192
3 192 51 198
3 197 52 192
3 198 14 197
3 200 199 194
3 194 53 200
3 199 51 194
3 200 15 199
3 203 201 202
3 202 45 203
3 201 52 202
3 203 54 201
3 197 175 202
3 202 52 197
3 175 45 202
3 197 14 175
3 204 196 201
3 201 54 204
3 196 52 201
3 204 16 196
3 176 205 203
3 203 45 176
3 205 54 203
3 176 4 205
3 208 206 207
3 207 55 208
3 206 51 207
3 208 50 206
3 199 209 207
3 207 51 199
3 209 55 207
3 199 15 209
3 188 198 206
3 206 50 188
3 198 51 206
3 188 14 198
3 210 191 208
3 208 55 210
3 191 50 208
3 210 7 191
3 213 211 212
3 212 57 213
3 211 53 212
3 213 56 211
3 195 214 212
3 212 53 195
3 214 57 212
3 195 16 214
3 215 200 211
3 211 56 215
3 200 53 211
3 215 15 200
3 217 216 213
3 213 57 217
3 216 56 213
3 217 9 216
3 220 218 219
3 219 60 220
3 218 59 219
3 220 58 218
3 222 221 219
3 219 59 222
3 221 60 219
3 222 19 221
3 224 223 218
3 218 58 224
3 223 59 218
3 224 18 223
3 226 225 220
3 220 60 226
3 225 58 220
3 226 17 225
3 229 227 228
3 228 62 229
3 227 59 228
3 229 61 227
3 223 230 228
3 228 59 223
3 230 62 228
3 223 18 230
3 231 222 227
3 227 61 231
3 222 59 227
3 231 19 222
3 233 232 229
3 229 62 233
3 232 61 229
3 233 5 232
3 236 234 235
3 235 64 236
3 234 58 235
3 236 63 234
3 225 237 235
3 235 58 225
3 237 64 235
3 225 17 237
3 238 224 234
3 234 63 238
3 224 58 234
3 238 18 224
3 240 239 236
3 236 64 240
3 239 63 236
3 240 6 239
3 243 241 242
3 242 66 243
3 241 60 242
3 243 65 241
3 221 244 242
3 242 60 221
3 244 66 242
3 221 19 244
3 245 226 241
3 241 65 245
3 226 60 241
3 245 17 226
3 247 246 243
3 243 66 247
3 246 65 243
3 247 11 246
3 250 248 249
3 249 69 250
3 248 68 249
3 250 67 248
3 252 251 249
3 249 68 252
3 251 69 249
3 252 18 251
3 254 253 248
3 248 67 254
3 253 68 248
3 254 21 253
3 256 255 250
3 250 69 256
3 255 67 250
3 256 20 255
3 259 257 258
3 258 70 259
3 257 68 258
3 259 62 257
3 253 260 258
3 258 68 253
3 260 70 258
3 253 21 260
3 230 252 257
3 257 62 230
3 252 68 257
3 230 18 252
3 261 233 259
3 259 70 261
3 233 62 259
3 261 5 233
3 264 262 263
3 263 72 264
3 262 67 263
3 264 71 262
3 255 265 263
3 263 67 255
3 265 72 263
3 255 20 265
3 266 254 262
3 262 71 266
3 254 67 262
3 266 21 254
3 268 267 264
3 264 72 268
3 267 71 264
3 268 10 267
3 271 269 270
3 270 63 271
3 269 69 270
3 271 73 269
3 251 238 270
3 270 69 251
3 238 63 270
3 251 18 238
3 272 256 269
3 269 73 272
3 256 69 269
3 272 20 256
3 239 273 271
3 271 63 239
3 273 73 271
3 239 6 273
3 276 274 275
3 275 76 276
3 274 75 275
3 276 74 274
3 278 277 275
3 275 75 278
3 277 76 275
3 278 24 277
3 280 279 274
3 274 74 280
3 279 75 274
3 280 23 279
3 282 281 276
3 276 76 282
3 281 74 276
3 282 22 281
3 285 283 284
3 284 78 285
3 283 75 284
3 285 77 283
3 279 286 284
3 284 75 279
3 286 78 284
3 279 23 286
3 287 278 283
3 283 77 287
3 278 75 283
3 287 24 278
3 289 288 285
3 285 78 289
3 288 77 285
3 289 0 288
3 292 290 291
3 291 80 292
3 290 74 291
3 292 79 290
3 281 293 291
3 291 74 281
3 293 80 291
3 281 22 293
3 294 280 290
3 290 79 294
3 280 74 290
3 294 23 280
3 296 295 292
3 292 80 296
3 295 79 292
3 296 4 295
3 299 297 298
3 298 82 299
3 297 76 298
3 299 81 297
3 277 300 298
3 298 76 277
3 300 82 298
3 277 24 300
3 301 282 297
3 297 81 301
3 282 76 297
3 301 22 282
3 303 302 299
3 299 82 303
3 302 81 299
3 303 3 302
3 306 304 305
3 305 85 306
3 304 84 305
3 306 83 304
3 308 307 305
3 305 84 308
3 307 85 305
3 308 26 307
3 310 309 304
3 304 83 310
3 309 84 304
3 310 24 309
3 312 311 306
3 306 85 312
3 311 83 306
3 312 25 311
3 315 313 314
3 314 77 315
3 313 84 314
3 315 86 313
3 309 287 314
3 314 84 309
3 287 77 314
3 309 24 287
3 316 308 313
3 313 86 316
3 308 84 313
3 316 26 308
3 288 317 315
3 315 77 288
3 317 86 315
3 288 0 317
3 320 318 319
3 319 87 320
3 318 83 319
3 320 82 318
3 311 321 319
3 319 83 311
3 321 87 319
3 311 25 321
3 300 310 318
3 318 82 300
3 310 83 318
3 300 24 310
3 322 303 320
3 320 87 322
3 303 82 320
3 322 3 303
3 325 323 324
3 324 89 325
3 323 85 324
3 325 88 323
3 307 326 324
3 324 85 307
3 326 89 324
3 307 26 326
3 327 312 323
3 323 88 327
3 312 85 323
3 327 25 312
3 329 328 325
3 325 89 329
3 328 88 325
3 329 5 328
3 332 330 331
3 331 92 332
3 330 91 331
3 332 90 330
3 334 333 331
3 331 91 334
3 333 92 331
3 334 29 333
3 336 335 330
3 330 90 336
3 335 91 330
3 336 28 335
3 338 337 332
3 332 92 338
3 337 90 332
3 338 27 337
3 341 339 340
3 340 94 341
3 339 91 340
3 341 93 339
3 335 342 340
3 340 91 335
3 342 94 340
3 335 28 342
3 343 334 339
3 339 93 343
3 334 91 339
3 343 29 334
3 345 344 341
3 341 94 345
3 344 93 341
3 345 2 344
3 348 346 347
3 347 96 348
3 346 90 347
3 348 95 346
3 337 349 347
3 347 90 337
3 349 96 347
3 337 27 349
3 350 336 346
3 346 95 350
3 336 90 346
3 350 28 336
3 352 351 348
3 348 96 352
3 351 95 348
3 352 7 351
3 355 353 354
3 354 98 355
3 353 92 354
3 355 97 353
3 333 356 354
3 354 92 333
3 356 98 354
3 333 29 356
3 357 338 353
3 353 97 357
3 338 92 353
3 357 27 338
3 359 358 355
3 355 98 359
3 358 97 355
3 359 1 358
3 362 360 361
3 361 101 362
3 360 100 361
3 362 99 360
3 364 363 361
3 361 100 364
3 363 101 361
3 364 31 363
3 366 365 360
3 360 99 366
3 365 100 360
3 366 29 365
3 368 367 362
3 362 101 368
3 367 99 362
3 368 30 367
3 371 369 370
3 370 93 371
3 369 100 370
3 371 102 369
3 365 343 370
3 370 100 365
3 343 93 370
3 365 29 343
3 372 364 369
3 369 102 372
3 364 100 369
3 372 31 364
3 344 373 371
3 371 93 344
3 373 102 371
3 344 2 373
3 376 374 375
3 375 103 376
3 374 99 375
3 376 98 374
3 367 377 375
3 375 99 367
3 377 103 375
3 367 30 377
3 356 366 374
3 374 98 356
3 366 99 374
3 356 29 366
3 378 359 376
3 376 103 378
3 359 98 376
3 378 1 359
3 381 379 380
3 380 105 381
3 379 101 380
3 381 104 379
3 363 382 380
3 380 101 363
3 382 105 380
3 363 31 382
3 383 368 379
3 379 104 383
3 368 101 379
3 383 30 368
3 385 384 381
3 381 105 385
3 384 104 381
3 385 6 384
3 388 386 387
3 387 108 388
3 386 107 387
3 388 106 386
3 390 389 387
3 387 107 390
3 389 108 387
3 390 34 389
3 392 391 386
3 386 106 392
3 391 107 386
3 392 33 391
3 394 393 388
3 388 108 394
3 393 106 388
3 394 32 393
3 397 395 396
3 396 110 397
3 395 107 396
3 397 109 395
3 391 398 396
3 396 107 391
3 398 110 396
3 391 33 398
3 399 390 395
3 395 109 399
3 390 107 395
3 399 34 390
3 401 400 397
3 397 110 401
3 400 109 397
3 401 8 400
3 404 402 403
3 403 112 404
3 402 106 403
3 404 111 402
3 393 405 403
3 403 106 393
3 405 112 403
3 393 32 405
3 406 392 402
3 402 111 406
3 392 106 402
3 406 33 392
3 408 407 404
3 404 112 408
3 407 111 404
3 408 0 407
3 411 409 410
3 410 114 411
3 409 108 410
3 411 113 409
3 389 412 410
3 410 108 389
3 412 114 410
3 389 34 412
3 413 394 409
3 409 113 413
3 394 108 409
3 413 32 394
3 415 414 411
3 411 114 415
3 414 113 411
3 415 11 414
3 418 416 417
3 417 117 418
3 416 116 417
3 418 115 416
3 420 419 417
3 417 116 420
3 419 117 417
3 420 36 419
3 422 421 416
3 416 115 422
3 421 116 416
3 422 34 421
3 424 423 418
3 418 117 424
3 423 115 418
3 424 35 423
3 427 425 426
3 426 109 427
3 425 116 426
3 427 118 425
3 421 399 426
3 426 116 421
3 399 109 426
3 421 34 399
3 428 420 425
3 425 118 428
3 420 116 425
3 428 36 420
3 400 429 427
3 427 109 400
3 429 118 427
3 400 8 429
3 432 430 431
3 431 119 432
3 430 115 431
3 432 114 430
3 423 433 431
3 431 115 423
3 433 119 431
3 423 35 433
3 412 422 430
3 430 114 412
3 422 115 430
3 412 34 422
3 434 415 432
3 432 119 434
3 415 114 432
3 434 11 415
3 437 435 436
3 436 121 437
3 435 117 436
3 437 120 435
3 419 438 436
3 436 117 419
3 438 121 436
3 419 36 438
3 439 424 435
3 435 120 439
3 424 117 435
3 439 35 424
3 441 440 437
3 437 121 441
3 440 120 437
3 441 1 440
3 444 442 443
3 443 124 444
3 442 123 443
3 444 122 442
3 446 445 443
3 443 123 446
3 445 124 443
3 446 39 445
3 448 447 442
3 442 122 448
3 447 123 442
3 448 38 447
3 450 449 444
3 444 124 450
3 449 122 444
3 450 37 449
3 453 451 452
3 452 126 453
3 451 123 452
3 453 125 451
3 447 454 452
3 452 123 447
3 454 126 452
3 447 38 454
3 455 446 451
3 451 125 455
3 446 123 451
3 455 39 446
3 457 456 453
3 453 126 457
3 456 125 453
3 457 9 456
3 460 458 459
3 459 128 460
3 458 122 459
3 460 127 458
3 449 461 459
3 459 122 449
3 461 128 459
3 449 37 461
3 462 448 458
3 458 127 462
3 448 122 458
3 462 38 448
3 464 463 460
3 460 128 464
3 463 127 460
3 464 10 463
3 467 465 466
3 466 130 467
3 465 124 466
3 467 129 465
3 445 468 466
3 466 124 445
3 468 130 466
3 445 39 468
3 469 450 465
3 465 129 469
3 450 124 465
3 469 37 450
3 471 470 467
3 467 130 471
3 470 129 467
3 471 3 470
3 474 472 473
3 473 133 474
3 472 132 473
3 474 131 472
3 476 475 473
3 473 132 476
3 475 133 473
3 476 38 475
3 478 477 472
3 472 131 478
3 477 132 472
3 478 41 477
3 480 479 474
3 474 133 480
3 479 131 474
3 480 40 479
3 483 481 482
3 482 134 483
3 481 132 482
3 483 126 481
3 477 484 482
3 482 132 477
3 484 134 482
3 477 41 484
3 454 476 481
3 481 126 454
3 476 132 481
3 454 38 476
3 485 457 483
3 483 134 485
3 457 126 483
3 485 9 457
3 488 486 487
3 487 136 488
3 486 131 487
3 488 135 486
3 479 489 487
3 487 131 479
3 489 136 487
3 479 40 489
3 490 478 486
3 486 135 490
3 478 131 486
3 490 41 478
3 492 491 488
3 488 136 492
3 491 135 488
3 492 2 491
3 495 493 494
3 494 127 495
3 493 133 494
3 495 137 493
3 475 462 494
3 494 133 475
3 462 127 494
3 475 38 462
3 496 480 493
3 493 137 496
3 480 133 493
3 496 40 480
3 463 497 495
3 495 127 463
3 497 137 495
3 463 10 497
3 500 498 499
3 499 140 500
3 498 139 499
3 500 138 498
3 502 501 499
3 499 139 502
3 501 140 499
3 502 33 501
3 504 503 498
3 498 138 504
3 503 139 498
3 504 13 503
3 506 505 500
3 500 140 506
3 505 138 500
3 506 23 505
3 509 507 508
3 508 47 509
3 507 139 508
3 509 110 507
3 503 182 508
3 508 139 503
3 182 47 508
3 503 13 182
3 398 502 507
3 507 110 398
3 502 139 507
3 398 33 502
3 183 401 509
3 509 47 183
3 401 110 509
3 183 8 401
3 512 510 511
3 511 79 512
3 510 138 511
3 512 46 510
3 505 294 511
3 511 138 505
3 294 79 511
3 505 23 294
3 174 504 510
3 510 46 174
3 504 138 510
3 174 13 504
3 295 177 512
3 512 79 295
3 177 46 512
3 295 4 177
3 515 513 514
3 514 111 515
3 513 140 514
3 515 78 513
3 501 406 514
3 514 140 501
3 406 111 514
3 501 33 406
3 286 506 513
3 513 78 286
3 506 140 513
3 286 23 506
3 407 289 515
3 515 111 407
3 289 78 515
3 407 0 289
3 518 516 517
3 517 143 518
3 516 142 517
3 518 141 516
3 520 519 517
3 517 142 520
3 519 143 517
3 520 19 519
3 522 521 516
3 516 141 522
3 521 142 516
3 522 32 521
3 524 523 518
3 518 143 524
3 523 141 518
3 524 26 523
3 527 525 526
3 526 113 527
3 525 142 526
3 527 66 525
3 521 413 526
3 526 142 521
3 413 113 526
3 521 32 413
3 244 520 525
3 525 66 244
3 520 142 525
3 244 19 520
3 414 247 527
3 527 113 414
3 247 66 527
3 414 11 247
3 530 528 529
3 529 86 530
3 528 141 529
3 530 112 528
3 523 316 529
3 529 141 523
3 316 86 529
3 523 26 316
3 405 522 528
3 528 112 405
3 522 141 528
3 405 32 522
3 317 408 530
3 530 86 317
3 408 112 530
3 317 0 408
3 533 531 532
3 532 61 533
3 531 143 532
3 533 89 531
3 519 231 532
3 532 143 519
3 231 61 532
3 519 19 231
3 326 524 531
3 531 89 326
3 524 143 531
3 326 26 524
3 232 329 533
3 533 61 232
3 329 89 533
3 232 5 329
3 536 534 535
3 535 146 536
3 534 145 535
3 536 144 534
3 538 537 535
3 535 145 538
3 537 146 535
3 538 22 537
3 540 539 534
3 534 144 540
3 539 145 534
3 540 16 539
3 542 541 536
3 536 146 542
3 541 144 536
3 542 39 541
3 545 543 544
3 544 54 545
3 543 145 544
3 545 80 543
3 539 204 544
3 544 145 539
3 204 54 544
3 539 16 204
3 293 538 543
3 543 80 293
3 538 145 543
3 293 22 538
3 205 296 545
3 545 54 205
3 296 80 545
3 205 4 296
3 548 546 547
3 547 125 548
3 546 144 547
3 548 57 546
3 541 455 547
3 547 144 541
3 455 125 547
3 541 39 455
3 214 540 546
3 546 57 214
3 540 144 546
3 214 16 540
3 456 217 548
3 548 125 456
3 217 57 548
3 456 9 217
3 551 549 550
3 550 81 551
3 549 146 550
3 551 130 549
3 537 301 550
3 550 146 537
3 301 81 550
3 537 22 301
3 468 542 549
3 549 130 468
3 542 146 549
3 468 39 542
3 302 471 551
3 551 81 302
3 471 130 551
3 302 3 471
3 554 552 553
3 553 149 554
3 552 148 553
3 554 147 552
3 556 555 553
3 553 148 556
3 555 149 553
3 556 21 555
3 558 557 552
3 552 147 558
3 557 148 552
3 558 25 557
3 560 559 554
3 554 149 560
3 559 147 554
3 560 37 559
3 563 561 562
3 562 88 563
3 561 148 562
3 563 70 561
3 557 327 562
3 562 148 557
3 327 88 562
3 557 25 327
3 260 556 561
3 561 70 260
3 556 148 561
3 260 21 556
3 328 261 563
3 563 88 328
3 261 70 563
3 328 5 261
3 566 564 565
3 565 129 566
3 564 147 565
3 566 87 564
3 559 469 565
3 565 147 559
3 469 129 565
3 559 37 469
3 321 558 564
3 564 87 321
3 558 147 564
3 321 25 558
3 470 322 566
3 566 129 470
3 322 87 566
3 470 3 322
3 569 567 568
3 568 71 569
3 567 149 568
3 569 128 567
3 555 266 568
3 568 149 555
3 266 71 568
3 555 21 266
3 461 560 567
3 567 128 461
3 560 149 567
3 461 37 560
3 267 464 569
3 569 71 267
3 464 128 569
3 267 10 464
3 572 570 571
3 571 152 572
3 570 151 571
3 572 150 570
3 574 573 571
3 571 151 574
3 573 152 571
3 574 27 573
3 576 575 570
3 570 150 576
3 575 151 570
3 576 12 575
3 578 577 572
3 572 152 578
3 577 150 572
3 578 36 577
3 581 579 580
3 580 49 581
3 579 151 580
3 581 96 579
3 575 189 580
3 580 151 575
3 189 49 580
3 575 12 189
3 349 574 579
3 579 96 349
3 574 151 579
3 349 27 574
3 190 352 581
3 581 49 190
3 352 96 581
3 190 7 352
3 584 582 583
3 583 118 584
3 582 150 583
3 584 48 582
3 577 428 583
3 583 150 577
3 428 118 583
3 577 36 428
3 181 576 582
3 582 48 181
3 576 150 582
3 181 12 576
3 429 184 584
3 584 118 429
3 184 48 584
3 429 8 184
3 587 585 586
3 586 97 587
3 585 152 586
3 587 121 585
3 573 357 586
3 586 152 573
3 357 97 586
3 573 27 357
3 438 578 585
3 585 121 438
3 578 152 585
3 438 36 578
3 358 441 587
3 587 97 358
3 441 121 587
3 358 1 441
3 590 588 589
3 589 155 590
3 588 154 589
3 590 153 588
3 592 591 589
3 589 154 592
3 591 155 589
3 592 17 591
3 594 593 588
3 588 153 594
3 593 154 588
3 594 30 593
3 596 595 590
3 590 155 596
3 595 153 590
3 596 35 595
3 599 597 598
3 598 104 599
3 597 154 598
3 599 64 597
3 593 383 598
3 598 154 593
3 383 104 598
3 593 30 383
3 237 592 597
3 597 64 237
3 592 154 597
3 237 17 592
3 384 240 599
3 599 104 384
3 240 64 599
3 384 6 240
3 602 600 601
3 601 120 602
3 600 153 601
3 602 103 600
3 595 439 601
3 601 153 595
3 439 120 601
3 595 35 439
3 377 594 600
3 600 103 377
3 594 153 600
3 377 30 594
3 440 378 602
3 602 120 440
3 378 103 602
3 440 1 378
3 605 603 604
3 604 65 605
3 603 155 604
3 605 119 603
3 591 245 604
3 604 155 591
3 245 65 604
3 591 17 245
3 433 596 603
3 603 119 433
3 596 155 603
3 433 35 596
3 246 434 605
3 605 65 246
3 434 119 605
3 246 11 434
3 608 606 607
3 607 158 608
3 606 157 607
3 608 156 606
3 610 609 607
3 607 157 610
3 609 158 607
3 610 15 609
3 612 611 606
3 606 156 612
3 611 157 606
3 612 28 611
3 614 613 608
3 608 158 614
3 613 156 608
3 614 41 613
3 617 615 616
3 616 95 617
3 615 157 616
3 617 55 615
3 611 350 616
3 616 157 611
3 350 95 616
3 611 28 350
3 209 610 615
3 615 55 209
3 610 157 615
3 209 15 610
3 351 210 617
3 617 95 351
3 210 55 617
3 351 7 210
3 620 618 619
3 619 135 620
3 618 156 619
3 620 94 618
3 613 490 619
3 619 156 613
3 490 135 619
3 613 41 490
3 342 612 618
3 618 94 342
3 612 156 618
3 342 28 612
3 491 345 620
3 620 135 491
3 345 94 620
3 491 2 345
3 623 621 622
3 622 56 623
3 621 158 622
3 623 134 621
3 609 215 622
3 622 158 609
3 215 56 622
3 609 15 215
3 484 614 621
3 621 134 484
3 614 158 621
3 484 41 614
3 216 485 623
3 623 56 216
3 485 134 623
3 216 9 485
3 626 624 625
3 625 161 626
3 624 160 625
3 626 159 624
3 628 627 625
3 625 160 628
3 627 161 625
3 628 31 627
3 630 629 624
3 624 159 630
3 629 160 624
3 630 20 629
3 632 631 626
3 626 161 632
3 631 159 626
3 632 40 631
3 635 633 634
3 634 73 635
3 633 160 634
3 635 105 633
3 629 272 634
3 634 160 629
3 272 73 634
3 629 20 272
3 382 628 633
3 633 105 382
3 628 160 633
3 382 31 628
3 273 385 635
3 635 73 273
3 385 105 635
3 273 6 385
3 638 636 637
3 637 137 638
3 636 159 637
3 638 72 636
3 631 496 637
3 637 159 631
3 496 137 637
3 631 40 496
3 265 630 636
3 636 72 265
3 630 159 636
3 265 20 630
3 497 268 638
3 638 137 497
3 268 72 638
3 497 10 268
3 641 639 640
3 640 102 641
3 639 161 640
3 641 136 639
3 627 372 640
3 640 161 627
3 372 102 640
3 627 31 372
3 489 632 639
3 639 136 489
3 632 161 639
3 489 40 632
3 373 492 641
3 641 102 373
3 492 136 641
3 373 2 492
