# vtk DataFile Version 3.0
this file was written using fslvtkio
ASCII
DATASET POLYDATA
POINTS 642 float
118.943 139.087 151.37
108.107 136.83 150.308
104.75 127.174 147.699
114.16 130.03 148.898
113.926 132.357 155.169
115.91 134.869 144.764
108.607 133.577 144.919
108.306 130.928 154.511
112.792 140.681 156.039
108.534 123.562 151.138
109.38 125.363 144.455
113.795 142.28 148.268
110.498 135.937 156.235
114.28 136.667 157.013
110.884 131.014 156.704
107.619 126.09 153.953
111.227 127.768 153.462
111.197 138.183 146.516
112.177 134.201 144.696
115.659 138.862 147.077
108.361 129.006 144.387
112.908 130.1 144.428
113.97 131.253 151.961
116.812 136.209 154.14
117.458 134.344 149.896
116.056 132.14 146.458
118.697 137.381 147.36
107.802 134.228 152.807
106.027 128.191 151.348
105.792 132.164 148.759
107.659 136.07 146.929
105.454 130.247 145.032
118.049 143.132 149.68
116.882 141.52 154.328
113.889 143.432 152.343
110.394 140.526 149.248
110.334 139.284 153.301
112.419 126.782 146.419
107.942 121.873 146.751
111.428 125.943 149.784
105.183 124.3 144.626
105.271 123.074 149.465
112.167 136.439 157.503
112.665 133.865 157.419
110.624 133.547 157.043
112.533 131.632 156.138
114.455 134.216 156.579
113.595 138.85 156.787
111.583 138.421 156.436
109.348 133.409 155.49
109.27 130.886 156.067
109.245 128.492 155.735
111.124 129.102 155.368
109.555 126.55 154.263
112.575 130.051 154.428
107.922 128.524 154.37
108.044 124.368 152.925
109.963 125.436 152.492
111.821 136.289 145.57
113.931 136.796 145.627
113.42 138.561 146.772
115.852 137.016 145.602
114.047 134.667 144.63
110.33 133.811 144.801
109.881 135.956 145.555
112.495 140.442 147.287
114.843 140.781 147.715
110.637 129.632 144.305
112.488 132.149 144.157
110.349 131.625 144.257
114.443 132.52 144.501
111.11 127.809 144.515
108.788 127.133 144.433
108.435 131.276 144.413
115.591 133.744 153.056
117.016 135.33 151.985
115.86 132.87 151.191
118.221 136.733 150.626
118.012 137.707 152.882
115.527 134.174 154.887
113.841 131.85 153.563
114.145 130.457 150.425
115.767 132.246 149.408
117.042 133.225 148.065
118.545 135.76 148.575
118.177 134.607 146.411
119.059 138.399 149.364
115 130.99 147.728
116.3 133.359 145.293
117.605 136.323 145.599
106.715 131.246 152.074
105.74 130.249 150.217
106.541 133.009 150.861
105.089 129.704 148.194
105.241 127.504 149.559
107.128 129.532 152.984
108.042 132.627 153.744
107.817 135.554 151.568
106.922 134.525 149.548
106.546 134.16 147.703
105.367 131.4 146.841
106.224 133.278 145.826
104.769 128.61 146.238
107.883 136.55 148.61
107.932 135.013 145.646
106.909 131.957 144.757
118.192 143.252 152.221
115.599 143.71 153.816
116.172 144.512 150.839
113.173 142.427 154.524
114.806 141.39 155.547
118.405 140.422 153.013
119.28 141.245 150.66
115.857 143.204 148.677
113.899 143.16 150.054
112.252 142.053 150.865
112.014 141.569 152.963
110.427 140.287 151.367
111.59 139.994 154.756
111.972 141.63 148.62
108.991 138.843 149.898
108.989 138.155 151.864
110.337 123.919 146.355
109.791 123.522 148.303
111.778 125.906 147.941
109.986 124.51 150.413
108.019 122.233 149.083
108.742 123.192 144.861
110.97 125.861 145.322
113.312 128.341 147.718
112.851 127.975 149.372
104.479 122.69 146.618
106.025 121.138 148.169
106.332 122.155 144.933
106.68 122.524 150.857
104.865 124.967 148.422
104.492 125.572 146.18
107.331 124.609 144.213
115.848 136.394 155.864
115.58 139.23 155.916
117.245 138.839 154.539
118.538 140.296 148.811
116.83 141.264 148.295
117.343 138.393 147.101
111.293 126.67 151.614
112.568 129.413 152.65
112.686 128.566 150.939
114.201 129.504 146.497
114.8 130.896 145.151
112.887 128.271 145.218
110.286 137.678 154.844
109.154 135.157 154.504
108.964 136.788 153.188
108.847 138.56 148.039
109.126 137.487 146.407
110.481 139.891 147.368
105.573 125.446 150.54
106.721 126.915 152.635
106.243 124.137 152.064
106.665 126.528 144.252
106.697 129.408 144.378
105.01 127.16 144.735
112.418 135.128 157.597
111.593 133.749 157.364
111.373 134.983 157.423
110.816 132.303 157.061
111.759 132.536 157.107
113.445 135.261 157.428
113.223 136.485 157.42
111.213 136.147 157.079
110.569 134.826 156.806
112.65 132.658 156.891
113.611 134.02 157.152
113.546 132.898 156.537
114.387 135.368 156.959
111.753 131.384 156.541
113.266 132.015 155.704
114.231 133.139 155.977
112.873 137.64 157.313
111.74 137.468 157.127
112.491 138.703 156.908
111.004 137.175 156.446
113.944 137.755 156.988
113.185 139.87 156.597
112.19 139.587 156.344
109.93 133.563 156.361
109.955 132.209 156.653
109.35 132.211 155.851
110.004 130.937 156.623
109.931 134.687 155.938
108.816 132.15 155.049
108.778 130.946 155.295
110.243 128.753 155.676
110.344 127.823 154.847
109.397 127.442 155.091
110.454 127.142 153.986
111.118 128.343 154.462
111.038 129.939 156.21
110.082 129.685 156.338
108.483 127.295 154.922
108.602 126.28 154.343
111.878 129.475 154.917
111.816 130.302 155.859
112.565 130.734 155.35
111.901 128.895 153.993
113.218 131.296 154.831
109.227 129.651 156.043
108.515 128.485 155.143
108.592 129.706 155.241
107.774 127.314 154.264
108.107 129.769 154.467
108.801 125.425 153.715
109.803 125.967 153.448
109.048 124.881 152.865
110.609 126.571 153.059
107.789 125.109 153.627
108.335 123.928 152.083
109.266 124.463 151.897
112.86 136.536 145.604
113.701 137.605 146.262
112.604 137.437 146.182
114.531 138.659 146.87
114.776 137.809 146.344
113.041 135.659 145.054
112.086 135.342 145.09
111.592 137.266 146.073
112.315 138.324 146.637
114.885 136.971 145.65
113.939 135.789 144.998
114.963 135.939 144.973
113.107 134.543 144.682
115.743 137.901 146.363
115.894 135.978 144.956
114.992 134.813 144.668
111.151 135.098 145.146
110.881 136.171 145.564
110.172 134.891 145.184
110.567 137.104 146.016
111.281 134.026 144.788
109.434 133.688 144.832
109.25 134.728 145.241
112.938 139.44 147.074
114.12 139.601 147.271
113.662 140.596 147.462
115.234 139.758 147.46
111.891 139.257 146.922
113.139 141.483 147.641
114.334 141.687 147.864
111.582 130.861 144.175
111.429 131.903 144.226
110.488 130.613 144.238
111.285 132.936 144.422
112.257 133.179 144.353
112.656 131.085 144.162
111.781 129.908 144.271
109.526 129.397 144.358
109.395 130.324 144.268
113.208 133.464 144.427
113.434 132.313 144.311
114.219 133.623 144.482
113.687 131.289 144.368
115.198 133.771 144.594
110.899 128.751 144.308
109.707 128.439 144.352
109.929 127.499 144.458
108.613 128.096 144.417
112.043 128.993 144.414
110.145 126.617 144.58
109.08 126.266 144.411
109.365 131.409 144.316
110.378 132.781 144.466
109.396 132.596 144.477
108.383 130.125 144.341
108.536 132.463 144.615
116.311 134.532 152.547
116.53 134.016 151.6
115.641 133.244 152.099
116.703 133.656 150.626
117.239 134.784 151.004
116.851 135.727 153.037
116.261 134.952 153.552
114.779 132.62 152.466
114.914 132.159 151.668
117.592 136.04 151.351
117.476 136.523 152.463
118.156 137.187 151.766
117.425 136.928 153.545
117.841 135.512 150.333
118.64 137.908 150.995
118.541 138.387 152.108
115.615 133.976 153.983
114.695 132.867 153.318
114.72 133.048 154.228
113.925 131.663 152.75
116.156 135.266 154.517
114.704 133.217 155.118
113.853 132.085 154.37
115.033 131.695 150.883
115.871 132.57 150.295
115.021 131.391 150.027
116.671 133.292 149.686
114.143 130.853 151.208
114.187 130.268 149.635
114.935 131.167 149.148
117.997 134.408 148.294
118.606 135.16 147.48
117.814 133.855 147.299
118.647 135.942 146.745
118.787 136.533 147.871
118.063 134.981 149.287
117.281 133.734 148.977
116.696 132.769 147.167
117.275 133.394 146.396
118.815 136.997 148.917
118.308 136.176 149.655
118.694 137.518 149.976
118.873 137.888 148.346
119.058 138.79 150.372
116.361 132.773 148.795
116.029 132.205 147.845
115.376 131.642 148.524
115.593 131.562 147.111
114.539 130.52 148.366
117.353 134.055 145.72
118.072 135.473 145.853
117.172 134.86 145.238
118.3 136.795 146.412
116.34 132.763 145.84
116.142 134.12 144.933
116.757 135.604 145.028
106.166 130.733 151.179
106.111 131.658 150.533
106.605 132.187 151.517
106.131 132.455 149.853
105.775 131.234 149.569
105.89 129.303 150.835
106.338 129.773 151.687
107.217 132.732 152.359
107.135 133.448 151.832
105.386 129.961 149.247
105.457 128.917 149.94
105.129 128.659 148.976
105.618 127.845 150.466
105.423 130.932 148.554
104.916 128.425 147.983
105.009 127.367 148.598
106.909 130.355 152.51
107.351 131.942 152.88
107.513 131.123 153.354
107.872 133.362 153.231
106.514 128.831 152.174
107.683 130.27 153.792
108.196 131.787 154.159
107.185 134.238 151.251
106.643 133.723 150.206
107.321 134.944 150.583
106.294 133.324 149.189
107.759 134.825 152.154
107.917 136.136 150.874
107.564 135.607 149.911
105.886 132.82 147.306
105.761 132.376 146.324
106.292 133.829 146.8
105.801 131.828 145.416
105.297 130.95 145.867
105.57 131.832 147.797
106.123 133.16 148.202
107.054 135.061 147.232
106.821 134.642 146.362
105.021 130.086 146.496
105.185 130.6 147.575
104.881 129.227 147.217
105.031 129.463 145.577
104.675 127.898 147.013
106.672 134.288 148.659
107.219 135.301 148.105
107.398 135.485 149.026
107.743 136.36 147.749
107.967 136.647 149.491
107.01 134.163 145.696
106.451 132.67 145.137
107.38 133.517 145.16
106.087 131.161 144.754
107.622 135.488 146.218
108.269 134.265 145.235
107.78 132.819 144.823
117.019 143.808 152.959
116.082 144.368 152.359
117.388 144.305 151.588
115.02 144.213 151.667
114.729 143.952 153.049
116.434 142.871 154.05
117.505 142.606 153.318
118.301 143.516 150.908
117.294 144.202 150.222
114.282 143.274 154.275
115.252 142.619 154.744
113.99 142.151 155.227
115.9 141.627 154.89
113.564 143.104 153.482
112.882 141.552 155.352
113.727 141.04 155.932
118.376 141.876 152.682
118.924 142.407 151.514
119.006 140.986 151.919
118.857 142.369 150.279
117.74 141.206 153.625
118.802 139.687 152.274
119.258 140.085 151.056
116.114 143.969 149.728
114.967 143.921 150.475
114.815 143.388 149.277
114.085 143.533 151.181
116.995 143.434 149.196
114.76 142.78 148.33
113.746 142.747 149.04
112.199 141.947 151.934
111.261 140.919 152.143
111.304 141.165 151.108
110.439 139.941 152.371
111.153 140.421 153.054
112.904 142.637 152.738
113.125 142.861 151.622
111.312 141.256 150.119
110.484 140.488 150.33
111.742 140.826 153.828
112.562 142.164 153.736
112.289 141.315 154.659
110.994 139.663 153.97
112.122 140.393 155.513
113.076 142.745 150.57
112.059 141.826 149.788
112.874 142.383 149.406
111.201 141.172 148.992
112.795 142.009 148.336
109.641 139.658 150.609
109.647 139.364 151.667
109.003 138.603 150.915
109.663 138.846 152.558
109.649 139.724 149.575
108.484 137.856 150.142
108.463 137.494 151.102
110.014 123.626 147.315
110.819 124.666 148.078
111.056 124.905 147.145
111.488 125.745 148.838
110.64 124.688 149.004
108.918 122.626 147.541
109.139 122.842 146.543
111.294 125.324 146.406
111.982 126.134 147.087
109.879 123.927 149.354
108.919 122.775 148.631
109.045 123.284 149.768
107.976 121.821 147.899
110.713 125.083 150.011
109.292 124.017 150.815
108.225 122.892 150.161
109.543 123.395 145.621
110.636 124.772 145.715
109.932 124.337 144.99
111.715 126.141 145.838
108.379 122.409 145.73
109.115 124.267 144.494
110.188 125.62 144.886
112.537 127.048 147.8
112.255 126.9 148.696
113.004 128.061 148.494
112.106 126.884 149.547
112.892 127.498 147.08
113.751 129.218 148.339
113.559 129.009 149.157
105.097 121.488 147.218
106.138 121.387 146.43
105.187 121.993 145.654
107.193 121.798 145.802
107.02 121.286 147.454
105.304 121.792 148.756
104.768 122.58 148.018
104.595 123.203 145.381
105.541 123.005 144.65
107.158 121.535 148.723
106.233 121.667 149.494
107.295 122.38 149.982
105.811 122.517 150.147
107.676 122.994 151.116
104.552 123.724 147.577
104.403 124.035 146.291
104.538 125.147 147.264
104.594 124.688 145.334
104.927 123.832 148.808
104.824 126.123 148.105
104.579 126.415 146.997
106.733 123.261 144.355
107.67 122.583 144.891
108.097 123.843 144.374
106.186 124.243 144.263
108.414 125.01 144.238
115.792 137.815 155.972
116.483 139.1 155.281
116.601 137.68 155.305
117.119 140.224 154.478
116.242 140.442 155.169
114.952 137.933 156.524
115.122 136.566 156.507
116.431 136.375 155.071
117.117 137.423 154.486
115.282 140.406 155.78
114.582 139.032 156.46
114.163 140.17 156.28
115.111 135.326 156.26
115.746 135.224 155.4
115.008 134.087 155.76
117.701 138.201 153.849
117.776 139.781 153.824
118.255 139.02 153.045
117.803 140.968 148.594
117.093 139.835 147.948
117.925 139.405 147.998
116.539 138.731 147.181
116.219 139.986 147.787
117.533 142.374 148.799
118.484 141.849 149.301
118.588 138.81 148.113
118.134 138.003 147.166
115.809 140.939 148.023
116.487 142.401 148.434
115.356 142.025 148.081
119.028 140.921 149.663
118.871 139.221 148.994
119.276 139.744 150.027
117.544 137.388 146.265
116.583 137.742 146.314
116.718 136.707 145.466
111.886 128.059 152.153
112.545 129.014 151.741
111.979 127.578 151.249
113.287 129.926 151.455
113.248 130.31 152.272
111.899 128.507 153.034
111.248 127.258 152.531
111.398 126.275 150.685
112.062 127.227 150.402
113.229 130.585 153.085
112.552 129.61 153.532
113.209 130.897 153.982
110.689 126.056 152.095
110.735 125.539 151.007
110.041 124.947 151.478
112.734 128.124 150.149
113.379 129.561 150.714
113.506 129.199 149.929
114.634 130.146 145.788
113.82 129.656 145.205
113.593 128.866 145.814
112.969 129.194 144.759
113.864 130.486 144.723
115.489 131.455 145.809
115.152 130.776 146.477
113.321 128.156 146.447
112.716 127.492 145.775
114.554 131.59 144.728
115.5 132.122 145.281
115.382 132.93 144.828
114.646 130.243 147.12
113.683 128.853 147.085
114.124 129.724 147.766
112.012 127.074 145.255
112.084 128.062 144.774
111.081 126.858 144.838
109.724 136.407 154.702
109.025 135.968 153.843
109.66 137.254 153.966
108.336 135.506 153.036
108.482 134.716 153.635
109.835 135.551 155.362
110.364 136.818 155.567
110.266 138.475 154.064
109.591 138.083 153.284
108.545 133.916 154.118
109.307 134.333 155.024
108.718 133.02 154.6
110.917 137.998 155.658
110.928 138.848 154.78
111.57 139.214 155.615
108.974 137.526 152.554
108.314 136.161 152.421
108.385 136.853 151.73
108.885 138.168 147.109
109.775 138.724 146.883
109.576 139.309 147.669
110.807 139.043 146.867
110.149 137.883 146.426
108.293 136.881 146.632
108.202 137.412 147.45
109.557 139.597 148.627
110.324 140.36 148.255
109.544 136.781 145.97
108.472 136.255 146.066
108.884 135.482 145.583
108.267 137.625 148.315
108.921 138.761 148.985
108.355 137.738 149.276
111.127 140.862 147.975
111.453 140.128 147.187
112.118 141.263 147.712
106.084 126.077 151.651
106.431 125.483 152.355
105.895 124.711 151.251
106.873 125.091 153.076
107.079 126.434 153.322
106.294 127.438 151.97
105.805 126.79 150.999
105.324 124.184 150.067
105.71 123.475 150.823
107.284 127.672 153.542
106.881 128.214 152.782
107.517 129.001 153.65
105.44 126.49 150.091
105.126 125.057 149.523
105.073 126.212 149.068
106.331 123.136 151.594
107.057 124.155 152.802
107.385 123.45 151.962
106.56 127.842 144.335
105.776 128.183 144.416
105.709 126.674 144.334
105.212 128.707 144.88
105.981 129.712 144.579
107.439 129.06 144.376
107.49 127.769 144.381
105.87 125.367 144.232
104.995 125.637 144.664
106.71 130.704 144.444
107.559 130.317 144.34
107.659 131.596 144.553
107.746 126.927 144.385
106.909 125.531 144.178
108.038 125.926 144.318
104.647 126.287 145.385
104.821 127.998 145.442
104.593 127.155 146.261
POLYGONS 1280  5120
3 164 162 163
3 163 44 164
3 162 43 163
3 164 42 162
3 166 165 163
3 163 43 166
3 165 44 163
3 166 14 165
3 168 167 162
3 162 42 168
3 167 43 162
3 168 13 167
3 170 169 164
3 164 44 170
3 169 42 164
3 170 12 169
3 173 171 172
3 172 46 173
3 171 43 172
3 173 45 171
3 167 174 172
3 172 43 167
3 174 46 172
3 167 13 174
3 175 166 171
3 171 45 175
3 166 43 171
3 175 14 166
3 177 176 173
3 173 46 177
3 176 45 173
3 177 4 176
3 180 178 179
3 179 48 180
3 178 42 179
3 180 47 178
3 169 181 179
3 179 42 169
3 181 48 179
3 169 12 181
3 182 168 178
3 178 47 182
3 168 42 178
3 182 13 168
3 184 183 180
3 180 48 184
3 183 47 180
3 184 8 183
3 187 185 186
3 186 50 187
3 185 44 186
3 187 49 185
3 165 188 186
3 186 44 165
3 188 50 186
3 165 14 188
3 189 170 185
3 185 49 189
3 170 44 185
3 189 12 170
3 191 190 187
3 187 50 191
3 190 49 187
3 191 7 190
3 194 192 193
3 193 53 194
3 192 52 193
3 194 51 192
3 196 195 193
3 193 52 196
3 195 53 193
3 196 16 195
3 198 197 192
3 192 51 198
3 197 52 192
3 198 14 197
3 200 199 194
3 194 53 200
3 199 51 194
3 200 15 199
3 203 201 202
3 202 45 203
3 201 52 202
3 203 54 201
3 197 175 202
3 202 52 197
3 175 45 202
3 197 14 175
3 204 196 201
3 201 54 204
3 196 52 201
3 204 16 196
3 176 205 203
3 203 45 176
3 205 54 203
3 176 4 205
3 208 206 207
3 207 55 208
3 206 51 207
3 208 50 206
3 199 209 207
3 207 51 199
3 209 55 207
3 199 15 209
3 188 198 206
3 206 50 188
3 198 51 206
3 188 14 198
3 210 191 208
3 208 55 210
3 191 50 208
3 210 7 191
3 213 211 212
3 212 57 213
3 211 53 212
3 213 56 211
3 195 214 212
3 212 53 195
3 214 57 212
3 195 16 214
3 215 200 211
3 211 56 215
3 200 53 211
3 215 15 200
3 217 216 213
3 213 57 217
3 216 56 213
3 217 9 216
3 220 218 219
3 219 60 220
3 218 59 219
3 220 58 218
3 222 221 219
3 219 59 222
3 221 60 219
3 222 19 221
3 224 223 218
3 218 58 224
3 223 59 218
3 224 18 223
3 226 225 220
3 220 60 226
3 225 58 220
3 226 17 225
3 229 227 228
3 228 62 229
3 227 59 228
3 229 61 227
3 223 230 228
3 228 59 223
3 230 62 228
3 223 18 230
3 231 222 227
3 227 61 231
3 222 59 227
3 231 19 222
3 233 232 229
3 229 62 233
3 232 61 229
3 233 5 232
3 236 234 235
3 235 64 236
3 234 58 235
3 236 63 234
3 225 237 235
3 235 58 225
3 237 64 235
3 225 17 237
3 238 224 234
3 234 63 238
3 224 58 234
3 238 18 224
3 240 239 236
3 236 64 240
3 239 63 236
3 240 6 239
3 243 241 242
3 242 66 243
3 241 60 242
3 243 65 241
3 221 244 242
3 242 60 221
3 244 66 242
3 221 19 244
3 245 226 241
3 241 65 245
3 226 60 241
3 245 17 226
3 247 246 243
3 243 66 247
3 246 65 243
3 247 11 246
3 250 248 249
3 249 69 250
3 248 68 249
3 250 67 248
3 252 251 249
3 249 68 252
3 251 69 249
3 252 18 251
3 254 253 248
3 248 67 254
3 253 68 248
3 254 21 253
3 256 255 250
3 250 69 256
3 255 67 250
3 256 20 255
3 259 257 258
3 258 70 259
3 257 68 258
3 259 62 257
3 253 260 258
3 258 68 253
3 260 70 258
3 253 21 260
3 230 252 257
3 257 62 230
3 252 68 257
3 230 18 252
3 261 233 259
3 259 70 261
3 233 62 259
3 261 5 233
3 264 262 263
3 263 72 264
3 262 67 263
3 264 71 262
3 255 265 263
3 263 67 255
3 265 72 263
3 255 20 265
3 266 254 262
3 262 71 266
3 254 67 262
3 266 21 254
3 268 267 264
3 264 72 268
3 267 71 264
3 268 10 267
3 271 269 270
3 270 63 271
3 269 69 270
3 271 73 269
3 251 238 270
3 270 69 251
3 238 63 270
3 251 18 238
3 272 256 269
3 269 73 272
3 256 69 269
3 272 20 256
3 239 273 271
3 271 63 239
3 273 73 271
3 239 6 273
3 276 274 275
3 275 76 276
3 274 75 275
3 276 74 274
3 278 277 275
3 275 75 278
3 277 76 275
3 278 24 277
3 280 279 274
3 274 74 280
3 279 75 274
3 280 23 279
3 282 281 276
3 276 76 282
3 281 74 276
3 282 22 281
3 285 283 284
3 284 78 285
3 283 75 284
3 285 77 283
3 279 286 284
3 284 75 279
3 286 78 284
3 279 23 286
3 287 278 283
3 283 77 287
3 278 75 283
3 287 24 278
3 289 288 285
3 285 78 289
3 288 77 285
3 289 0 288
3 292 290 291
3 291 80 292
3 290 74 291
3 292 79 290
3 281 293 291
3 291 74 281
3 293 80 291
3 281 22 293
3 294 280 290
3 290 79 294
3 280 74 290
3 294 23 280
3 296 295 292
3 292 80 296
3 295 79 292
3 296 4 295
3 299 297 298
3 298 82 299
3 297 76 298
3 299 81 297
3 277 300 298
3 298 76 277
3 300 82 298
3 277 24 300
3 301 282 297
3 297 81 301
3 282 76 297
3 301 22 282
3 303 302 299
3 299 82 303
3 302 81 299
3 303 3 302
3 306 304 305
3 305 85 306
3 304 84 305
3 306 83 304
3 308 307 305
3 305 84 308
3 307 85 305
3 308 26 307
3 310 309 304
3 304 83 310
3 309 84 304
3 310 24 309
3 312 311 306
3 306 85 312
3 311 83 306
3 312 25 311
3 315 313 314
3 314 77 315
3 313 84 314
3 315 86 313
3 309 287 314
3 314 84 309
3 287 77 314
3 309 24 287
3 316 308 313
3 313 86 316
3 308 84 313
3 316 26 308
3 288 317 315
3 315 77 288
3 317 86 315
3 288 0 317
3 320 318 319
3 319 87 320
3 318 83 319
3 320 82 318
3 311 321 319
3 319 83 311
3 321 87 319
3 311 25 321
3 300 310 318
3 318 82 300
3 310 83 318
3 300 24 310
3 322 303 320
3 320 87 322
3 303 82 320
3 322 3 303
3 325 323 324
3 324 89 325
3 323 85 324
3 325 88 323
3 307 326 324
3 324 85 307
3 326 89 324
3 307 26 326
3 327 312 323
3 323 88 327
3 312 85 323
3 327 25 312
3 329 328 325
3 325 89 329
3 328 88 325
3 329 5 328
3 332 330 331
3 331 92 332
3 330 91 331
3 332 90 330
3 334 333 331
3 331 91 334
3 333 92 331
3 334 29 333
3 336 335 330
3 330 90 336
3 335 91 330
3 336 28 335
3 338 337 332
3 332 92 338
3 337 90 332
3 338 27 337
3 341 339 340
3 340 94 341
3 339 91 340
3 341 93 339
3 335 342 340
3 340 91 335
3 342 94 340
3 335 28 342
3 343 334 339
3 339 93 343
3 334 91 339
3 343 29 334
3 345 344 341
3 341 94 345
3 344 93 341
3 345 2 344
3 348 346 347
3 347 96 348
3 346 90 347
3 348 95 346
3 337 349 347
3 347 90 337
3 349 96 347
3 337 27 349
3 350 336 346
3 346 95 350
3 336 90 346
3 350 28 336
3 352 351 348
3 348 96 352
3 351 95 348
3 352 7 351
3 355 353 354
3 354 98 355
3 353 92 354
3 355 97 353
3 333 356 354
3 354 92 333
3 356 98 354
3 333 29 356
3 357 338 353
3 353 97 357
3 338 92 353
3 357 27 338
3 359 358 355
3 355 98 359
3 358 97 355
3 359 1 358
3 362 360 361
3 361 101 362
3 360 100 361
3 362 99 360
3 364 363 361
3 361 100 364
3 363 101 361
3 364 31 363
3 366 365 360
3 360 99 366
3 365 100 360
3 366 29 365
3 368 367 362
3 362 101 368
3 367 99 362
3 368 30 367
3 371 369 370
3 370 93 371
3 369 100 370
3 371 102 369
3 365 343 370
3 370 100 365
3 343 93 370
3 365 29 343
3 372 364 369
3 369 102 372
3 364 100 369
3 372 31 364
3 344 373 371
3 371 93 344
3 373 102 371
3 344 2 373
3 376 374 375
3 375 103 376
3 374 99 375
3 376 98 374
3 367 377 375
3 375 99 367
3 377 103 375
3 367 30 377
3 356 366 374
3 374 98 356
3 366 99 374
3 356 29 366
3 378 359 376
3 376 103 378
3 359 98 376
3 378 1 359
3 381 379 380
3 380 105 381
3 379 101 380
3 381 104 379
3 363 382 380
3 380 101 363
3 382 105 380
3 363 31 382
3 383 368 379
3 379 104 383
3 368 101 379
3 383 30 368
3 385 384 381
3 381 105 385
3 384 104 381
3 385 6 384
3 388 386 387
3 387 108 388
3 386 107 387
3 388 106 386
3 390 389 387
3 387 107 390
3 389 108 387
3 390 34 389
3 392 391 386
3 386 106 392
3 391 107 386
3 392 33 391
3 394 393 388
3 388 108 394
3 393 106 388
3 394 32 393
3 397 395 396
3 396 110 397
3 395 107 396
3 397 109 395
3 391 398 396
3 396 107 391
3 398 110 396
3 391 33 398
3 399 390 395
3 395 109 399
3 390 107 395
3 399 34 390
3 401 400 397
3 397 110 401
3 400 109 397
3 401 8 400
3 404 402 403
3 403 112 404
3 402 106 403
3 404 111 402
3 393 405 403
3 403 106 393
3 405 112 403
3 393 32 405
3 406 392 402
3 402 111 406
3 392 106 402
3 406 33 392
3 408 407 404
3 404 112 408
3 407 111 404
3 408 0 407
3 411 409 410
3 410 114 411
3 409 108 410
3 411 113 409
3 389 412 410
3 410 108 389
3 412 114 410
3 389 34 412
3 413 394 409
3 409 113 413
3 394 108 409
3 413 32 394
3 415 414 411
3 411 114 415
3 414 113 411
3 415 11 414
3 418 416 417
3 417 117 418
3 416 116 417
3 418 115 416
3 420 419 417
3 417 116 420
3 419 117 417
3 420 36 419
3 422 421 416
3 416 115 422
3 421 116 416
3 422 34 421
3 424 423 418
3 418 117 424
3 423 115 418
3 424 35 423
3 427 425 426
3 426 109 427
3 425 116 426
3 427 118 425
3 421 399 426
3 426 116 421
3 399 109 426
3 421 34 399
3 428 420 425
3 425 118 428
3 420 116 425
3 428 36 420
3 400 429 427
3 427 109 400
3 429 118 427
3 400 8 429
3 432 430 431
3 431 119 432
3 430 115 431
3 432 114 430
3 423 433 431
3 431 115 423
3 433 119 431
3 423 35 433
3 412 422 430
3 430 114 412
3 422 115 430
3 412 34 422
3 434 415 432
3 432 119 434
3 415 114 432
3 434 11 415
3 437 435 436
3 436 121 437
3 435 117 436
3 437 120 435
3 419 438 436
3 436 117 419
3 438 121 436
3 419 36 438
3 439 424 435
3 435 120 439
3 424 117 435
3 439 35 424
3 441 440 437
3 437 121 441
3 440 120 437
3 441 1 440
3 444 442 443
3 443 124 444
3 442 123 443
3 444 122 442
3 446 445 443
3 443 123 446
3 445 124 443
3 446 39 445
3 448 447 442
3 442 122 448
3 447 123 442
3 448 38 447
3 450 449 444
3 444 124 450
3 449 122 444
3 450 37 449
3 453 451 452
3 452 126 453
3 451 123 452
3 453 125 451
3 447 454 452
3 452 123 447
3 454 126 452
3 447 38 454
3 455 446 451
3 451 125 455
3 446 123 451
3 455 39 446
3 457 456 453
3 453 126 457
3 456 125 453
3 457 9 456
3 460 458 459
3 459 128 460
3 458 122 459
3 460 127 458
3 449 461 459
3 459 122 449
3 461 128 459
3 449 37 461
3 462 448 458
3 458 127 462
3 448 122 458
3 462 38 448
3 464 463 460
3 460 128 464
3 463 127 460
3 464 10 463
3 467 465 466
3 466 130 467
3 465 124 466
3 467 129 465
3 445 468 466
3 466 124 445
3 468 130 466
3 445 39 468
3 469 450 465
3 465 129 469
3 450 124 465
3 469 37 450
3 471 470 467
3 467 130 471
3 470 129 467
3 471 3 470
3 474 472 473
3 473 133 474
3 472 132 473
3 474 131 472
3 476 475 473
3 473 132 476
3 475 133 473
3 476 38 475
3 478 477 472
3 472 131 478
3 477 132 472
3 478 41 477
3 480 479 474
3 474 133 480
3 479 131 474
3 480 40 479
3 483 481 482
3 482 134 483
3 481 132 482
3 483 126 481
3 477 484 482
3 482 132 477
3 484 134 482
3 477 41 484
3 454 476 481
3 481 126 454
3 476 132 481
3 454 38 476
3 485 457 483
3 483 134 485
3 457 126 483
3 485 9 457
3 488 486 487
3 487 136 488
3 486 131 487
3 488 135 486
3 479 489 487
3 487 131 479
3 489 136 487
3 479 40 489
3 490 478 486
3 486 135 490
3 478 131 486
3 490 41 478
3 492 491 488
3 488 136 492
3 491 135 488
3 492 2 491
3 495 493 494
3 494 127 495
3 493 133 494
3 495 137 493
3 475 462 494
3 494 133 475
3 462 127 494
3 475 38 462
3 496 480 493
3 493 137 496
3 480 133 493
3 496 40 480
3 463 497 495
3 495 127 463
3 497 137 495
3 463 10 497
3 500 498 499
3 499 140 500
3 498 139 499
3 500 138 498
3 502 501 499
3 499 139 502
3 501 140 499
3 502 33 501
3 504 503 498
3 498 138 504
3 503 139 498
3 504 13 503
3 506 505 500
3 500 140 506
3 505 138 500
3 506 23 505
3 509 507 508
3 508 47 509
3 507 139 508
3 509 110 507
3 503 182 508
3 508 139 503
3 182 47 508
3 503 13 182
3 398 502 507
3 507 110 398
3 502 139 507
3 398 33 502
3 183 401 509
3 509 47 183
3 401 110 509
3 183 8 401
3 512 510 511
3 511 79 512
3 510 138 511
3 512 46 510
3 505 294 511
3 511 138 505
3 294 79 511
3 505 23 294
3 174 504 510
3 510 46 174
3 504 138 510
3 174 13 504
3 295 177 512
3 512 79 295
3 177 46 512
3 295 4 177
3 515 513 514
3 514 111 515
3 513 140 514
3 515 78 513
3 501 406 514
3 514 140 501
3 406 111 514
3 501 33 406
3 286 506 513
3 513 78 286
3 506 140 513
3 286 23 506
3 407 289 515
3 515 111 407
3 289 78 515
3 407 0 289
3 518 516 517
3 517 143 518
3 516 142 517
3 518 141 516
3 520 519 517
3 517 142 520
3 519 143 517
3 520 19 519
3 522 521 516
3 516 141 522
3 521 142 516
3 522 32 521
3 524 523 518
3 518 143 524
3 523 141 518
3 524 26 523
3 527 525 526
3 526 113 527
3 525 142 526
3 527 66 525
3 521 413 526
3 526 142 521
3 413 113 526
3 521 32 413
3 244 520 525
3 525 66 244
3 520 142 525
3 244 19 520
3 414 247 527
3 527 113 414
3 247 66 527
3 414 11 247
3 530 528 529
3 529 86 530
3 528 141 529
3 530 112 528
3 523 316 529
3 529 141 523
3 316 86 529
3 523 26 316
3 405 522 528
3 528 112 405
3 522 141 528
3 405 32 522
3 317 408 530
3 530 86 317
3 408 112 530
3 317 0 408
3 533 531 532
3 532 61 533
3 531 143 532
3 533 89 531
3 519 231 532
3 532 143 519
3 231 61 532
3 519 19 231
3 326 524 531
3 531 89 326
3 524 143 531
3 326 26 524
3 232 329 533
3 533 61 232
3 329 89 533
3 232 5 329
3 536 534 535
3 535 146 536
3 534 145 535
3 536 144 534
3 538 537 535
3 535 145 538
3 537 146 535
3 538 22 537
3 540 539 534
3 534 144 540
3 539 145 534
3 540 16 539
3 542 541 536
3 536 146 542
3 541 144 536
3 542 39 541
3 545 543 544
3 544 54 545
3 543 145 544
3 545 80 543
3 539 204 544
3 544 145 539
3 204 54 544
3 539 16 204
3 293 538 543
3 543 80 293
3 538 145 543
3 293 22 538
3 205 296 545
3 545 54 205
3 296 80 545
3 205 4 296
3 548 546 547
3 547 125 548
3 546 144 547
3 548 57 546
3 541 455 547
3 547 144 541
3 455 125 547
3 541 39 455
3 214 540 546
3 546 57 214
3 540 144 546
3 214 16 540
3 456 217 548
3 548 125 456
3 217 57 548
3 456 9 217
3 551 549 550
3 550 81 551
3 549 146 550
3 551 130 549
3 537 301 550
3 550 146 537
3 301 81 550
3 537 22 301
3 468 542 549
3 549 130 468
3 542 146 549
3 468 39 542
3 302 471 551
3 551 81 302
3 471 130 551
3 302 3 471
3 554 552 553
3 553 149 554
3 552 148 553
3 554 147 552
3 556 555 553
3 553 148 556
3 555 149 553
3 556 21 555
3 558 557 552
3 552 147 558
3 557 148 552
3 558 25 557
3 560 559 554
3 554 149 560
3 559 147 554
3 560 37 559
3 563 561 562
3 562 88 563
3 561 148 562
3 563 70 561
3 557 327 562
3 562 148 557
3 327 88 562
3 557 25 327
3 260 556 561
3 561 70 260
3 556 148 561
3 260 21 556
3 328 261 563
3 563 88 328
3 261 70 563
3 328 5 261
3 566 564 565
3 565 129 566
3 564 147 565
3 566 87 564
3 559 469 565
3 565 147 559
3 469 129 565
3 559 37 469
3 321 558 564
3 564 87 321
3 558 147 564
3 321 25 558
3 470 322 566
3 566 129 470
3 322 87 566
3 470 3 322
3 569 567 568
3 568 71 569
3 567 149 568
3 569 128 567
3 555 266 568
3 568 149 555
3 266 71 568
3 555 21 266
3 461 560 567
3 567 128 461
3 560 149 567
3 461 37 560
3 267 464 569
3 569 71 267
3 464 128 569
3 267 10 464
3 572 570 571
3 571 152 572
3 570 151 571
3 572 150 570
3 574 573 571
3 571 151 574
3 573 152 571
3 574 27 573
3 576 575 570
3 570 150 576
3 575 151 570
3 576 12 575
3 578 577 572
3 572 152 578
3 577 150 572
3 578 36 577
3 581 579 580
3 580 49 581
3 579 151 580
3 581 96 579
3 575 189 580
3 580 151 575
3 189 49 580
3 575 12 189
3 349 574 579
3 579 96 349
3 574 151 579
3 349 27 574
3 190 352 581
3 581 49 190
3 352 96 581
3 190 7 352
3 584 582 583
3 583 118 584
3 582 150 583
3 584 48 582
3 577 428 583
3 583 150 577
3 428 118 583
3 577 36 428
3 181 576 582
3 582 48 181
3 576 150 582
3 181 12 576
3 429 184 584
3 584 118 429
3 184 48 584
3 429 8 184
3 587 585 586
3 586 97 587
3 585 152 586
3 587 121 585
3 573 357 586
3 586 152 573
3 357 97 586
3 573 27 357
3 438 578 585
3 585 121 438
3 578 152 585
3 438 36 578
3 358 441 587
3 587 97 358
3 441 121 587
3 358 1 441
3 590 588 589
3 589 155 590
3 588 154 589
3 590 153 588
3 592 591 589
3 589 154 592
3 591 155 589
3 592 17 591
3 594 593 588
3 588 153 594
3 593 154 588
3 594 30 593
3 596 595 590
3 590 155 596
3 595 153 590
3 596 35 595
3 599 597 598
3 598 104 599
3 597 154 598
3 599 64 597
3 593 383 598
3 598 154 593
3 383 104 598
3 593 30 383
3 237 592 597
3 597 64 237
3 592 154 597
3 237 17 592
3 384 240 599
3 599 104 384
3 240 64 599
3 384 6 240
3 602 600 601
3 601 120 602
3 600 153 601
3 602 103 600
3 595 439 601
3 601 153 595
3 439 120 601
3 595 35 439
3 377 594 600
3 600 103 377
3 594 153 600
3 377 30 594
3 440 378 602
3 602 120 440
3 378 103 602
3 440 1 378
3 605 603 604
3 604 65 605
3 603 155 604
3 605 119 603
3 591 245 604
3 604 155 591
3 245 65 604
3 591 17 245
3 433 596 603
3 603 119 433
3 596 155 603
3 433 35 596
3 246 434 605
3 605 65 246
3 434 119 605
3 246 11 434
3 608 606 607
3 607 158 608
3 606 157 607
3 608 156 606
3 610 609 607
3 607 157 610
3 609 158 607
3 610 15 609
3 612 611 606
3 606 156 612
3 611 157 606
3 612 28 611
3 614 613 608
3 608 158 614
3 613 156 608
3 614 41 613
3 617 615 616
3 616 95 617
3 615 157 616
3 617 55 615
3 611 350 616
3 616 157 611
3 350 95 616
3 611 28 350
3 209 610 615
3 615 55 209
3 610 157 615
3 209 15 610
3 351 210 617
3 617 95 351
3 210 55 617
3 351 7 210
3 620 618 619
3 619 135 620
3 618 156 619
3 620 94 618
3 613 490 619
3 619 156 613
3 490 135 619
3 613 41 490
3 342 612 618
3 618 94 342
3 612 156 618
3 342 28 612
3 491 345 620
3 620 135 491
3 345 94 620
3 491 2 345
3 623 621 622
3 622 56 623
3 621 158 622
3 623 134 621
3 609 215 622
3 622 158 609
3 215 56 622
3 609 15 215
3 484 614 621
3 621 134 484
3 614 158 621
3 484 41 614
3 216 485 623
3 623 56 216
3 485 134 623
3 216 9 485
3 626 624 625
3 625 161 626
3 624 160 625
3 626 159 624
3 628 627 625
3 625 160 628
3 627 161 625
3 628 31 627
3 630 629 624
3 624 159 630
3 629 160 624
3 630 20 629
3 632 631 626
3 626 161 632
3 631 159 626
3 632 40 631
3 635 633 634
3 634 73 635
3 633 160 634
3 635 105 633
3 629 272 634
3 634 160 629
3 272 73 634
3 629 20 272
3 382 628 633
3 633 105 382
3 628 160 633
3 382 31 628
3 273 385 635
3 635 73 273
3 385 105 635
3 273 6 385
3 638 636 637
3 637 137 638
3 636 159 637
3 638 72 636
3 631 496 637
3 637 159 631
3 496 137 637
3 631 40 496
3 265 630 636
3 636 72 265
3 630 159 636
3 265 20 630
3 497 268 638
3 638 137 497
3 268 72 638
3 497 10 268
3 641 639 640
3 640 102 641
3 639 161 640
3 641 136 639
3 627 372 640
3 640 161 627
3 372 102 640
3 627 31 372
3 489 632 639
3 639 136 489
3 632 161 639
3 489 40 632
3 373 492 641
3 641 102 373
3 492 136 641
3 373 2 492
