# vtk DataFile Version 3.0
this file was written using fslvtkio
ASCII
DATASET POLYDATA
POINTS 642 float
144.927 152.051 149.005
137.541 153.541 152.526
136.088 146.591 149.211
142.464 145.353 146.939
141.976 149.168 151.08
142.882 148.399 143.211
138.693 149.753 146.067
137.626 149.486 153.555
142.651 154.224 154.213
138.668 142.538 151.24
138.681 143.316 144.536
142.323 155.337 148.622
139.843 151.968 155.349
143.058 151.843 153.485
139.818 149.555 152.325
137.439 146.196 151.286
139.943 146.37 150.099
140.164 152.887 147.377
140.614 148.762 143.792
142.636 152.06 146.126
138.364 146.446 144.355
141.195 145.257 142.412
142.431 147.212 149.228
143.731 151.23 150.631
143.871 148.74 147.678
143.062 146.393 144.236
144.338 150.667 146.013
136.295 152.079 155.34
135.375 148.021 152.373
136.233 150.651 150.789
138.256 152.082 149.124
137.065 148.133 147.23
145.122 154.553 148.393
146.229 153.679 152.248
143.402 155.907 151.756
139.899 155.032 150.846
139.147 154.876 155.147
140.94 143.569 145.237
137.865 141.931 148.073
140.648 143.567 148.871
136.693 144.309 146.881
135.969 143.278 150.599
141.728 151.863 154.551
141.366 150.889 152.904
140.092 151.001 153.852
140.952 149.343 151.78
142.223 150.681 152.015
143.38 152.938 154.176
141.196 153.136 155.24
138.747 150.824 154.454
138.803 149.544 153.003
138.717 147.853 151.834
139.84 147.911 151.12
138.692 146.207 150.718
141.03 147.902 150.582
137.515 147.943 152.309
137.995 144.37 151.398
139.429 144.509 150.789
140.508 150.805 145.638
141.588 150.324 144.874
141.425 152.51 146.509
142.724 150.135 144.623
141.705 148.478 143.184
139.642 149.374 144.864
139.583 151.19 146.766
141.066 154.388 147.876
142.591 154.003 147.285
139.695 145.784 143.149
140.884 146.962 142.718
139.453 147.648 143.784
142.305 146.864 142.288
139.861 144.108 143.321
138.435 144.858 144.317
138.456 148.138 145.015
143.319 149.25 150.039
143.918 149.982 149.367
143.37 148.043 148.685
144.311 150.551 148.4
144.446 151.771 150.001
142.996 150.27 151.046
142.225 148.423 150.22
142.572 146.166 148.294
143.374 146.95 147.277
143.595 147.44 145.902
144.19 149.452 146.68
143.943 148.314 144.84
144.671 151.424 147.553
142.809 145.812 145.655
143.37 147.411 143.3
143.738 149.587 144.53
135.656 150.349 153.848
135.602 149.623 151.797
136.158 151.482 153.143
136.016 148.708 149.834
135.573 147.371 150.673
136.417 148.467 153.243
136.998 150.428 154.815
136.892 152.978 153.99
136.918 152.061 151.623
137.209 151.302 149.866
136.614 149.474 148.925
137.444 150.228 148.103
136.513 147.333 148.099
137.859 153.014 150.654
138.518 150.866 147.651
137.686 149.019 146.467
146.63 154.711 150.083
145.468 155.505 151.77
145.015 156.237 149.808
143.173 155.31 153.214
144.782 154.161 153.315
146.02 152.928 150.428
145.569 153.122 148.595
143.754 155.283 148.412
142.88 156.318 150.035
141.524 155.867 151.579
141.259 155.559 153.602
139.638 155.334 152.995
140.811 154.523 154.976
141.148 155.416 149.7
138.671 154.258 151.699
138.269 154.316 153.893
139.718 142.214 146.436
139.567 142.057 148.53
140.881 143.301 147.141
139.8 142.905 150.126
138.101 141.454 150.062
138.247 142.409 146.004
140.124 142.927 144.309
141.574 144.506 146.046
141.566 144.708 147.778
136.125 143.561 148.737
136.65 142.005 149.665
136.786 142.595 147.319
137.061 142.59 151.502
135.888 145.093 149.812
136.299 145.432 148.1
137.357 143.754 145.567
143.368 151.618 151.947
144.878 152.665 153.403
145.257 152.311 151.697
144.808 152.826 147.235
143.867 153.687 147.168
143.697 151.602 145.837
140.537 144.794 149.819
141.205 146.798 149.635
141.481 145.465 148.856
141.874 144.878 144.717
142.484 145.695 143.036
141.034 144.227 143.779
139.315 153.444 155.671
138.111 151.737 155.43
137.589 153.625 155.372
138.713 154.056 149.875
139.218 152.526 148.274
139.886 154.459 148.962
136.057 145.694 150.911
136.429 146.853 151.896
136.648 144.488 151.404
137.364 145.39 145.417
137.593 147.218 145.652
136.765 146.168 146.739
141.58 151.326 153.763
140.719 150.882 153.332
140.867 151.357 154.248
139.959 150.357 153.037
140.554 150.251 152.692
142.16 151.434 153.31
142.377 151.814 154.071
140.88 151.886 154.907
140.111 151.554 154.641
141.097 150.177 152.276
141.814 150.791 152.452
141.624 150.007 151.883
142.589 151.368 152.737
140.397 149.466 152.1
141.506 149.235 151.428
142.08 149.97 151.524
142.51 152.432 154.494
141.664 152.4 155.021
142.284 153.006 154.722
140.559 152.58 155.317
143.242 152.398 153.992
143.013 153.604 154.219
141.932 153.709 154.765
139.492 150.977 154.218
139.362 150.291 153.329
138.759 150.269 153.668
139.345 149.567 152.678
139.315 151.538 154.869
138.208 150.124 154.004
138.159 149.563 153.187
139.279 147.98 151.461
139.232 147.163 150.786
138.728 147.125 151.134
139.328 146.311 150.446
139.829 147.143 150.561
139.838 148.721 151.768
139.222 148.767 152.004
138.077 147.098 151.375
138.086 146.24 150.955
140.467 147.924 150.931
140.426 148.696 151.607
141.035 148.593 151.305
140.392 147.21 150.255
141.478 148.548 150.86
138.737 148.796 152.338
138.124 147.905 152.014
138.106 148.827 152.555
137.503 147.116 151.72
137.53 148.816 152.817
138.311 145.313 150.94
139.054 145.397 150.78
138.71 144.361 151.164
139.705 145.527 150.398
137.745 145.323 151.187
138.373 143.359 151.52
139.111 143.447 151.12
141.067 150.473 145.269
141.555 151.342 145.772
140.955 151.69 146.035
142.008 152.221 146.266
142.059 151.189 145.582
141.09 149.617 144.263
140.52 149.878 144.662
140.411 151.871 146.488
140.751 152.645 146.868
142.169 150.299 144.786
141.637 149.408 144.031
142.235 149.338 143.856
141.188 148.645 143.513
142.64 151.041 145.416
142.74 149.214 143.774
142.285 148.425 143.137
140.027 150.169 145.19
140.053 151.07 146.252
139.573 150.276 145.846
139.919 152.041 147.054
140.085 149.109 144.302
139.187 149.599 145.471
139.209 150.369 146.398
141.26 153.401 147.203
141.978 153.245 146.863
141.824 154.099 147.539
142.654 153.051 146.714
140.597 153.552 147.612
141.676 154.909 148.191
142.47 154.685 147.907
140.257 146.429 142.842
140.184 147.264 143.316
139.597 146.728 143.441
140.018 148.188 143.756
140.673 147.865 143.212
141.058 146.228 142.312
140.405 145.575 142.75
139.035 146.158 143.612
138.925 146.988 143.865
141.307 147.719 142.944
141.581 146.969 142.335
141.992 147.723 142.574
141.804 146.117 141.97
142.583 147.622 142.609
139.767 145.098 143.244
139.045 145.377 143.723
139.08 144.436 143.652
138.387 145.676 144.243
140.451 144.854 142.994
139.249 143.606 143.748
138.558 144.029 144.395
138.975 147.827 144.331
139.583 148.477 144.336
139.063 148.745 144.99
138.392 147.263 144.615
138.608 149.007 145.528
143.618 149.611 149.785
143.609 149.021 149.022
143.357 148.602 149.404
143.639 148.423 148.249
143.876 149.351 148.605
143.789 150.608 150.021
143.522 150.327 150.3
142.969 148.15 149.571
142.993 147.655 148.959
144.109 150.277 148.97
144.092 150.973 149.68
144.277 151.19 149.227
144.097 151.48 150.349
144.094 149.671 148.062
144.499 151.348 148.661
144.724 151.918 149.549
143.203 149.801 150.531
142.876 148.723 150.129
142.77 149.192 150.702
142.395 147.807 149.773
143.334 150.812 150.827
142.488 149.66 151.095
142.15 148.806 150.684
142.987 147.092 148.417
143.381 147.493 148.006
143.042 146.607 147.807
143.653 147.89 147.466
142.482 146.741 148.734
142.572 145.761 147.626
143.07 146.042 147.16
143.871 148.503 146.317
144.096 148.93 145.756
143.758 147.888 145.379
144.175 149.405 145.401
144.272 150.022 146.239
144.052 149.135 147.213
143.755 148.09 146.809
143.373 146.879 145.047
143.613 147.267 144.443
144.454 150.512 147.086
144.336 150.044 147.588
144.415 150.975 147.902
144.488 151.065 146.77
144.775 151.712 148.27
143.432 147.308 146.691
143.273 146.645 145.795
143.214 146.311 146.557
142.916 146.135 144.937
142.732 145.554 146.371
143.712 147.892 144.07
143.968 148.974 144.634
143.622 148.507 143.846
144.028 150.064 145.242
143.301 146.853 143.742
143.226 148.008 143.192
143.256 149.024 143.876
135.532 149.982 152.777
135.785 150.587 152.364
135.828 150.985 153.501
136.118 151.049 152.009
135.856 150.286 151.4
135.429 148.942 152.169
135.551 149.353 153.052
135.904 151.181 154.615
136.069 151.8 154.224
135.758 149.277 150.833
135.551 148.553 151.198
135.75 148.169 150.285
135.435 147.819 151.533
136.011 149.756 150.349
135.994 147.604 149.435
135.781 147.007 149.887
135.951 149.335 153.652
136.162 150.32 154.466
136.723 149.537 154.025
136.461 151.025 155.278
135.752 148.325 153.047
137.097 148.926 153.424
137.402 150.006 154.197
136.505 152.222 153.523
136.524 151.762 152.327
136.845 152.579 152.738
136.545 151.317 151.309
136.466 152.648 154.676
137.167 153.247 153.2
137.181 152.894 152.072
136.81 150.444 149.405
136.979 149.864 148.479
137.286 150.814 148.999
137.157 149.268 147.64
136.792 148.9 148.058
136.37 150.122 149.82
136.699 150.93 150.297
137.759 151.644 149.473
137.785 151.176 148.671
136.477 148.535 148.479
136.25 149.139 149.381
136.188 148.072 148.955
136.772 147.75 147.672
136.334 146.972 148.634
136.978 151.701 150.712
137.594 152.141 150.252
137.375 152.489 151.144
137.968 152.663 149.831
137.638 153.295 151.507
138.021 150.55 147.901
137.61 149.619 147.295
138.123 149.991 147.026
137.43 148.564 146.875
138.395 151.43 148.387
138.704 150.266 146.877
138.225 149.373 146.289
146.402 155.466 151.012
145.341 155.982 150.84
145.972 155.788 149.913
144.454 156.075 150.877
144.619 155.803 151.62
146.119 154.696 152.014
146.6 154.276 151.158
146.085 154.991 149.209
145.473 155.707 149.018
144.434 155.458 152.447
145.349 154.908 152.753
144.144 154.886 153.215
145.66 154.022 152.876
143.412 155.722 152.512
142.922 154.805 153.871
143.734 154.152 153.771
146.537 153.755 150.322
146.286 153.977 149.255
145.879 153.021 149.445
145.504 153.979 148.555
146.254 153.428 151.331
145.434 152.54 149.662
145.256 152.521 148.835
144.506 156.013 148.981
143.99 156.331 150.039
143.496 156.024 149.13
143.305 156.16 150.961
144.531 155.066 148.478
143.005 155.271 148.476
142.544 155.901 149.236
141.49 155.722 152.496
140.372 155.638 153.356
140.578 155.594 152.244
139.404 155.311 154.084
140.174 155.387 154.414
142.286 155.761 152.674
142.412 155.879 151.759
140.542 155.621 151.34
139.87 155.276 151.962
141.058 155.196 154.434
142.286 155.487 153.443
141.997 154.95 154.126
140.01 154.805 155.208
141.707 154.408 154.639
142.267 156.129 150.834
141.211 155.833 150.661
141.877 155.978 149.872
140.531 155.301 150.33
141.751 155.355 149.07
139.295 154.695 152.373
138.917 154.884 153.449
138.534 154.325 152.761
138.606 154.847 154.531
139.416 154.663 151.421
138.017 153.92 152.095
137.895 153.967 153.215
139.648 142.084 147.493
140.284 142.587 147.822
140.413 142.595 146.8
140.7 143.262 148.09
140.107 142.686 148.733
138.765 141.894 148.255
138.824 142.004 147.209
140.449 142.719 145.849
140.919 143.37 146.209
139.609 142.345 149.423
138.862 141.654 149.28
139.065 141.97 150.193
137.958 141.648 149.041
140.175 143.16 149.455
139.328 142.724 150.769
138.415 141.957 150.856
139.051 142.244 146.15
139.984 142.548 145.34
139.243 142.506 145.037
140.61 143.042 144.756
138.102 142.14 146.977
138.388 142.822 145.198
139.398 143.016 144.197
141.183 143.944 146.541
141.087 143.915 147.452
141.563 144.507 147.011
141.084 144.087 148.207
141.094 144.077 145.644
142.073 144.893 146.582
141.987 145.141 147.394
136.252 142.643 149.182
136.685 142.261 148.504
136.41 143.014 148.089
137.245 142.175 147.673
137.149 141.822 148.833
136.221 142.497 150.189
135.991 143.322 149.678
136.452 143.875 147.826
136.616 143.4 147.107
137.307 141.65 149.795
136.594 141.963 150.758
137.574 141.936 150.867
136.325 142.683 151.242
137.812 142.527 151.461
135.984 144.299 149.297
136.192 144.499 148.392
136.184 145.281 148.977
136.414 144.766 147.51
135.93 144.082 150.112
135.943 145.879 149.462
136.28 146.04 148.633
136.986 143.051 146.379
137.507 142.409 146.707
137.65 142.856 145.752
136.971 143.968 146.213
137.934 143.561 144.995
144.282 151.997 152.735
145.328 152.379 152.616
144.263 152.01 151.856
145.989 152.878 152.148
145.771 153.255 153.07
143.952 152.158 153.424
143.292 151.701 152.693
143.553 151.614 151.199
144.333 151.899 151.147
145.008 153.391 153.53
144.068 152.628 153.816
144.081 153.499 153.89
142.78 151.16 152.043
143.03 151.045 151.295
142.58 150.478 151.474
144.813 152.125 150.803
145.789 152.712 151.178
145.208 152.406 150.225
144.481 153.431 147.158
143.778 152.596 146.594
144.231 152.182 146.62
143.183 151.836 145.935
143.253 152.898 146.64
144.48 154.293 147.823
144.997 153.758 147.908
144.416 151.633 146.648
144.044 151.181 145.889
143.252 153.821 147.14
143.889 154.551 147.849
143.154 154.584 147.81
145.208 153.13 147.948
144.773 152.11 147.368
144.98 152.344 148.156
143.719 150.559 145.196
143.198 150.921 145.279
143.249 149.945 144.517
140.831 145.892 149.678
141.41 146.189 149.263
141.057 145.083 149.365
141.903 146.452 148.892
141.875 147.027 149.481
140.571 146.571 149.832
140.259 145.697 149.977
140.599 144.148 149.349
141.125 144.408 148.827
141.783 147.658 149.889
141.096 147.398 150.033
141.648 148.273 150.365
139.977 144.727 150.227
140.145 143.858 149.856
139.67 143.665 150.516
141.555 144.895 148.352
141.933 145.898 148.483
142.045 145.426 147.935
142.221 145.212 143.891
141.735 144.954 143.345
141.469 144.517 144.197
141.178 144.652 143.099
141.901 145.414 142.593
142.846 145.952 143.632
142.549 145.537 144.485
141.209 144.225 144.968
140.985 143.854 144.41
142.587 146.245 142.373
143.083 146.52 143.113
142.943 147.256 142.808
142.399 145.409 145.197
141.673 144.709 145.423
142.268 145.15 146.021
140.643 143.5 144.019
140.543 144.209 143.481
139.953 143.424 143.659
138.655 152.632 155.474
137.737 152.671 155.758
138.403 153.606 155.883
136.83 152.837 155.347
137.134 151.686 155.64
138.845 151.817 155.301
139.55 152.585 155.621
139.194 154.243 155.665
138.341 154.364 155.32
137.501 150.977 155.214
138.485 151.248 154.935
137.96 150.443 154.545
140.099 153.251 155.381
140.011 154.047 155.53
140.925 153.855 155.153
137.925 154.139 154.692
137.17 153.333 154.646
137.579 153.682 153.836
138.993 153.334 149.04
139.504 153.581 148.633
139.279 154.321 149.444
139.957 153.692 148.112
139.672 152.808 147.848
138.727 152.291 148.657
138.448 153.1 149.43
139.203 154.659 150.361
139.867 154.912 149.853
139.462 151.857 147.551
138.953 151.587 148.016
139.083 151.021 147.196
138.254 153.522 150.198
138.659 154.285 150.775
138.093 153.733 151.085
140.464 155.019 149.36
140.426 154.412 148.318
141.048 154.999 148.729
136.202 146.374 151.462
136.66 145.854 151.265
136.281 144.955 151.134
137.047 145.482 151.307
136.96 146.521 151.526
135.875 147.316 152.399
135.734 147.035 151.533
135.939 144.395 150.671
136.201 143.677 151.185
137.015 147.293 152.154
136.4 147.532 152.759
137.04 148.138 152.844
135.748 146.607 150.831
135.93 145.302 150.366
135.8 146.233 150.077
136.748 143.527 151.609
137.336 144.618 151.395
137.595 143.472 151.598
137.402 146.295 145.471
137.172 146.753 146.185
137.027 145.77 146.08
136.933 147.127 146.897
137.324 147.612 146.409
137.902 146.801 144.968
137.858 145.949 144.881
136.978 144.837 146.092
136.746 145.246 146.772
137.601 148.171 146.033
137.996 147.708 145.295
138.1 148.592 145.732
137.885 145.157 144.848
137.274 144.55 145.467
137.876 144.307 144.884
136.465 145.689 147.332
136.616 146.737 147.336
136.437 146.356 147.933
POLYGONS 1280  5120
3 164 162 163
3 163 44 164
3 162 43 163
3 164 42 162
3 166 165 163
3 163 43 166
3 165 44 163
3 166 14 165
3 168 167 162
3 162 42 168
3 167 43 162
3 168 13 167
3 170 169 164
3 164 44 170
3 169 42 164
3 170 12 169
3 173 171 172
3 172 46 173
3 171 43 172
3 173 45 171
3 167 174 172
3 172 43 167
3 174 46 172
3 167 13 174
3 175 166 171
3 171 45 175
3 166 43 171
3 175 14 166
3 177 176 173
3 173 46 177
3 176 45 173
3 177 4 176
3 180 178 179
3 179 48 180
3 178 42 179
3 180 47 178
3 169 181 179
3 179 42 169
3 181 48 179
3 169 12 181
3 182 168 178
3 178 47 182
3 168 42 178
3 182 13 168
3 184 183 180
3 180 48 184
3 183 47 180
3 184 8 183
3 187 185 186
3 186 50 187
3 185 44 186
3 187 49 185
3 165 188 186
3 186 44 165
3 188 50 186
3 165 14 188
3 189 170 185
3 185 49 189
3 170 44 185
3 189 12 170
3 191 190 187
3 187 50 191
3 190 49 187
3 191 7 190
3 194 192 193
3 193 53 194
3 192 52 193
3 194 51 192
3 196 195 193
3 193 52 196
3 195 53 193
3 196 16 195
3 198 197 192
3 192 51 198
3 197 52 192
3 198 14 197
3 200 199 194
3 194 53 200
3 199 51 194
3 200 15 199
3 203 201 202
3 202 45 203
3 201 52 202
3 203 54 201
3 197 175 202
3 202 52 197
3 175 45 202
3 197 14 175
3 204 196 201
3 201 54 204
3 196 52 201
3 204 16 196
3 176 205 203
3 203 45 176
3 205 54 203
3 176 4 205
3 208 206 207
3 207 55 208
3 206 51 207
3 208 50 206
3 199 209 207
3 207 51 199
3 209 55 207
3 199 15 209
3 188 198 206
3 206 50 188
3 198 51 206
3 188 14 198
3 210 191 208
3 208 55 210
3 191 50 208
3 210 7 191
3 213 211 212
3 212 57 213
3 211 53 212
3 213 56 211
3 195 214 212
3 212 53 195
3 214 57 212
3 195 16 214
3 215 200 211
3 211 56 215
3 200 53 211
3 215 15 200
3 217 216 213
3 213 57 217
3 216 56 213
3 217 9 216
3 220 218 219
3 219 60 220
3 218 59 219
3 220 58 218
3 222 221 219
3 219 59 222
3 221 60 219
3 222 19 221
3 224 223 218
3 218 58 224
3 223 59 218
3 224 18 223
3 226 225 220
3 220 60 226
3 225 58 220
3 226 17 225
3 229 227 228
3 228 62 229
3 227 59 228
3 229 61 227
3 223 230 228
3 228 59 223
3 230 62 228
3 223 18 230
3 231 222 227
3 227 61 231
3 222 59 227
3 231 19 222
3 233 232 229
3 229 62 233
3 232 61 229
3 233 5 232
3 236 234 235
3 235 64 236
3 234 58 235
3 236 63 234
3 225 237 235
3 235 58 225
3 237 64 235
3 225 17 237
3 238 224 234
3 234 63 238
3 224 58 234
3 238 18 224
3 240 239 236
3 236 64 240
3 239 63 236
3 240 6 239
3 243 241 242
3 242 66 243
3 241 60 242
3 243 65 241
3 221 244 242
3 242 60 221
3 244 66 242
3 221 19 244
3 245 226 241
3 241 65 245
3 226 60 241
3 245 17 226
3 247 246 243
3 243 66 247
3 246 65 243
3 247 11 246
3 250 248 249
3 249 69 250
3 248 68 249
3 250 67 248
3 252 251 249
3 249 68 252
3 251 69 249
3 252 18 251
3 254 253 248
3 248 67 254
3 253 68 248
3 254 21 253
3 256 255 250
3 250 69 256
3 255 67 250
3 256 20 255
3 259 257 258
3 258 70 259
3 257 68 258
3 259 62 257
3 253 260 258
3 258 68 253
3 260 70 258
3 253 21 260
3 230 252 257
3 257 62 230
3 252 68 257
3 230 18 252
3 261 233 259
3 259 70 261
3 233 62 259
3 261 5 233
3 264 262 263
3 263 72 264
3 262 67 263
3 264 71 262
3 255 265 263
3 263 67 255
3 265 72 263
3 255 20 265
3 266 254 262
3 262 71 266
3 254 67 262
3 266 21 254
3 268 267 264
3 264 72 268
3 267 71 264
3 268 10 267
3 271 269 270
3 270 63 271
3 269 69 270
3 271 73 269
3 251 238 270
3 270 69 251
3 238 63 270
3 251 18 238
3 272 256 269
3 269 73 272
3 256 69 269
3 272 20 256
3 239 273 271
3 271 63 239
3 273 73 271
3 239 6 273
3 276 274 275
3 275 76 276
3 274 75 275
3 276 74 274
3 278 277 275
3 275 75 278
3 277 76 275
3 278 24 277
3 280 279 274
3 274 74 280
3 279 75 274
3 280 23 279
3 282 281 276
3 276 76 282
3 281 74 276
3 282 22 281
3 285 283 284
3 284 78 285
3 283 75 284
3 285 77 283
3 279 286 284
3 284 75 279
3 286 78 284
3 279 23 286
3 287 278 283
3 283 77 287
3 278 75 283
3 287 24 278
3 289 288 285
3 285 78 289
3 288 77 285
3 289 0 288
3 292 290 291
3 291 80 292
3 290 74 291
3 292 79 290
3 281 293 291
3 291 74 281
3 293 80 291
3 281 22 293
3 294 280 290
3 290 79 294
3 280 74 290
3 294 23 280
3 296 295 292
3 292 80 296
3 295 79 292
3 296 4 295
3 299 297 298
3 298 82 299
3 297 76 298
3 299 81 297
3 277 300 298
3 298 76 277
3 300 82 298
3 277 24 300
3 301 282 297
3 297 81 301
3 282 76 297
3 301 22 282
3 303 302 299
3 299 82 303
3 302 81 299
3 303 3 302
3 306 304 305
3 305 85 306
3 304 84 305
3 306 83 304
3 308 307 305
3 305 84 308
3 307 85 305
3 308 26 307
3 310 309 304
3 304 83 310
3 309 84 304
3 310 24 309
3 312 311 306
3 306 85 312
3 311 83 306
3 312 25 311
3 315 313 314
3 314 77 315
3 313 84 314
3 315 86 313
3 309 287 314
3 314 84 309
3 287 77 314
3 309 24 287
3 316 308 313
3 313 86 316
3 308 84 313
3 316 26 308
3 288 317 315
3 315 77 288
3 317 86 315
3 288 0 317
3 320 318 319
3 319 87 320
3 318 83 319
3 320 82 318
3 311 321 319
3 319 83 311
3 321 87 319
3 311 25 321
3 300 310 318
3 318 82 300
3 310 83 318
3 300 24 310
3 322 303 320
3 320 87 322
3 303 82 320
3 322 3 303
3 325 323 324
3 324 89 325
3 323 85 324
3 325 88 323
3 307 326 324
3 324 85 307
3 326 89 324
3 307 26 326
3 327 312 323
3 323 88 327
3 312 85 323
3 327 25 312
3 329 328 325
3 325 89 329
3 328 88 325
3 329 5 328
3 332 330 331
3 331 92 332
3 330 91 331
3 332 90 330
3 334 333 331
3 331 91 334
3 333 92 331
3 334 29 333
3 336 335 330
3 330 90 336
3 335 91 330
3 336 28 335
3 338 337 332
3 332 92 338
3 337 90 332
3 338 27 337
3 341 339 340
3 340 94 341
3 339 91 340
3 341 93 339
3 335 342 340
3 340 91 335
3 342 94 340
3 335 28 342
3 343 334 339
3 339 93 343
3 334 91 339
3 343 29 334
3 345 344 341
3 341 94 345
3 344 93 341
3 345 2 344
3 348 346 347
3 347 96 348
3 346 90 347
3 348 95 346
3 337 349 347
3 347 90 337
3 349 96 347
3 337 27 349
3 350 336 346
3 346 95 350
3 336 90 346
3 350 28 336
3 352 351 348
3 348 96 352
3 351 95 348
3 352 7 351
3 355 353 354
3 354 98 355
3 353 92 354
3 355 97 353
3 333 356 354
3 354 92 333
3 356 98 354
3 333 29 356
3 357 338 353
3 353 97 357
3 338 92 353
3 357 27 338
3 359 358 355
3 355 98 359
3 358 97 355
3 359 1 358
3 362 360 361
3 361 101 362
3 360 100 361
3 362 99 360
3 364 363 361
3 361 100 364
3 363 101 361
3 364 31 363
3 366 365 360
3 360 99 366
3 365 100 360
3 366 29 365
3 368 367 362
3 362 101 368
3 367 99 362
3 368 30 367
3 371 369 370
3 370 93 371
3 369 100 370
3 371 102 369
3 365 343 370
3 370 100 365
3 343 93 370
3 365 29 343
3 372 364 369
3 369 102 372
3 364 100 369
3 372 31 364
3 344 373 371
3 371 93 344
3 373 102 371
3 344 2 373
3 376 374 375
3 375 103 376
3 374 99 375
3 376 98 374
3 367 377 375
3 375 99 367
3 377 103 375
3 367 30 377
3 356 366 374
3 374 98 356
3 366 99 374
3 356 29 366
3 378 359 376
3 376 103 378
3 359 98 376
3 378 1 359
3 381 379 380
3 380 105 381
3 379 101 380
3 381 104 379
3 363 382 380
3 380 101 363
3 382 105 380
3 363 31 382
3 383 368 379
3 379 104 383
3 368 101 379
3 383 30 368
3 385 384 381
3 381 105 385
3 384 104 381
3 385 6 384
3 388 386 387
3 387 108 388
3 386 107 387
3 388 106 386
3 390 389 387
3 387 107 390
3 389 108 387
3 390 34 389
3 392 391 386
3 386 106 392
3 391 107 386
3 392 33 391
3 394 393 388
3 388 108 394
3 393 106 388
3 394 32 393
3 397 395 396
3 396 110 397
3 395 107 396
3 397 109 395
3 391 398 396
3 396 107 391
3 398 110 396
3 391 33 398
3 399 390 395
3 395 109 399
3 390 107 395
3 399 34 390
3 401 400 397
3 397 110 401
3 400 109 397
3 401 8 400
3 404 402 403
3 403 112 404
3 402 106 403
3 404 111 402
3 393 405 403
3 403 106 393
3 405 112 403
3 393 32 405
3 406 392 402
3 402 111 406
3 392 106 402
3 406 33 392
3 408 407 404
3 404 112 408
3 407 111 404
3 408 0 407
3 411 409 410
3 410 114 411
3 409 108 410
3 411 113 409
3 389 412 410
3 410 108 389
3 412 114 410
3 389 34 412
3 413 394 409
3 409 113 413
3 394 108 409
3 413 32 394
3 415 414 411
3 411 114 415
3 414 113 411
3 415 11 414
3 418 416 417
3 417 117 418
3 416 116 417
3 418 115 416
3 420 419 417
3 417 116 420
3 419 117 417
3 420 36 419
3 422 421 416
3 416 115 422
3 421 116 416
3 422 34 421
3 424 423 418
3 418 117 424
3 423 115 418
3 424 35 423
3 427 425 426
3 426 109 427
3 425 116 426
3 427 118 425
3 421 399 426
3 426 116 421
3 399 109 426
3 421 34 399
3 428 420 425
3 425 118 428
3 420 116 425
3 428 36 420
3 400 429 427
3 427 109 400
3 429 118 427
3 400 8 429
3 432 430 431
3 431 119 432
3 430 115 431
3 432 114 430
3 423 433 431
3 431 115 423
3 433 119 431
3 423 35 433
3 412 422 430
3 430 114 412
3 422 115 430
3 412 34 422
3 434 415 432
3 432 119 434
3 415 114 432
3 434 11 415
3 437 435 436
3 436 121 437
3 435 117 436
3 437 120 435
3 419 438 436
3 436 117 419
3 438 121 436
3 419 36 438
3 439 424 435
3 435 120 439
3 424 117 435
3 439 35 424
3 441 440 437
3 437 121 441
3 440 120 437
3 441 1 440
3 444 442 443
3 443 124 444
3 442 123 443
3 444 122 442
3 446 445 443
3 443 123 446
3 445 124 443
3 446 39 445
3 448 447 442
3 442 122 448
3 447 123 442
3 448 38 447
3 450 449 444
3 444 124 450
3 449 122 444
3 450 37 449
3 453 451 452
3 452 126 453
3 451 123 452
3 453 125 451
3 447 454 452
3 452 123 447
3 454 126 452
3 447 38 454
3 455 446 451
3 451 125 455
3 446 123 451
3 455 39 446
3 457 456 453
3 453 126 457
3 456 125 453
3 457 9 456
3 460 458 459
3 459 128 460
3 458 122 459
3 460 127 458
3 449 461 459
3 459 122 449
3 461 128 459
3 449 37 461
3 462 448 458
3 458 127 462
3 448 122 458
3 462 38 448
3 464 463 460
3 460 128 464
3 463 127 460
3 464 10 463
3 467 465 466
3 466 130 467
3 465 124 466
3 467 129 465
3 445 468 466
3 466 124 445
3 468 130 466
3 445 39 468
3 469 450 465
3 465 129 469
3 450 124 465
3 469 37 450
3 471 470 467
3 467 130 471
3 470 129 467
3 471 3 470
3 474 472 473
3 473 133 474
3 472 132 473
3 474 131 472
3 476 475 473
3 473 132 476
3 475 133 473
3 476 38 475
3 478 477 472
3 472 131 478
3 477 132 472
3 478 41 477
3 480 479 474
3 474 133 480
3 479 131 474
3 480 40 479
3 483 481 482
3 482 134 483
3 481 132 482
3 483 126 481
3 477 484 482
3 482 132 477
3 484 134 482
3 477 41 484
3 454 476 481
3 481 126 454
3 476 132 481
3 454 38 476
3 485 457 483
3 483 134 485
3 457 126 483
3 485 9 457
3 488 486 487
3 487 136 488
3 486 131 487
3 488 135 486
3 479 489 487
3 487 131 479
3 489 136 487
3 479 40 489
3 490 478 486
3 486 135 490
3 478 131 486
3 490 41 478
3 492 491 488
3 488 136 492
3 491 135 488
3 492 2 491
3 495 493 494
3 494 127 495
3 493 133 494
3 495 137 493
3 475 462 494
3 494 133 475
3 462 127 494
3 475 38 462
3 496 480 493
3 493 137 496
3 480 133 493
3 496 40 480
3 463 497 495
3 495 127 463
3 497 137 495
3 463 10 497
3 500 498 499
3 499 140 500
3 498 139 499
3 500 138 498
3 502 501 499
3 499 139 502
3 501 140 499
3 502 33 501
3 504 503 498
3 498 138 504
3 503 139 498
3 504 13 503
3 506 505 500
3 500 140 506
3 505 138 500
3 506 23 505
3 509 507 508
3 508 47 509
3 507 139 508
3 509 110 507
3 503 182 508
3 508 139 503
3 182 47 508
3 503 13 182
3 398 502 507
3 507 110 398
3 502 139 507
3 398 33 502
3 183 401 509
3 509 47 183
3 401 110 509
3 183 8 401
3 512 510 511
3 511 79 512
3 510 138 511
3 512 46 510
3 505 294 511
3 511 138 505
3 294 79 511
3 505 23 294
3 174 504 510
3 510 46 174
3 504 138 510
3 174 13 504
3 295 177 512
3 512 79 295
3 177 46 512
3 295 4 177
3 515 513 514
3 514 111 515
3 513 140 514
3 515 78 513
3 501 406 514
3 514 140 501
3 406 111 514
3 501 33 406
3 286 506 513
3 513 78 286
3 506 140 513
3 286 23 506
3 407 289 515
3 515 111 407
3 289 78 515
3 407 0 289
3 518 516 517
3 517 143 518
3 516 142 517
3 518 141 516
3 520 519 517
3 517 142 520
3 519 143 517
3 520 19 519
3 522 521 516
3 516 141 522
3 521 142 516
3 522 32 521
3 524 523 518
3 518 143 524
3 523 141 518
3 524 26 523
3 527 525 526
3 526 113 527
3 525 142 526
3 527 66 525
3 521 413 526
3 526 142 521
3 413 113 526
3 521 32 413
3 244 520 525
3 525 66 244
3 520 142 525
3 244 19 520
3 414 247 527
3 527 113 414
3 247 66 527
3 414 11 247
3 530 528 529
3 529 86 530
3 528 141 529
3 530 112 528
3 523 316 529
3 529 141 523
3 316 86 529
3 523 26 316
3 405 522 528
3 528 112 405
3 522 141 528
3 405 32 522
3 317 408 530
3 530 86 317
3 408 112 530
3 317 0 408
3 533 531 532
3 532 61 533
3 531 143 532
3 533 89 531
3 519 231 532
3 532 143 519
3 231 61 532
3 519 19 231
3 326 524 531
3 531 89 326
3 524 143 531
3 326 26 524
3 232 329 533
3 533 61 232
3 329 89 533
3 232 5 329
3 536 534 535
3 535 146 536
3 534 145 535
3 536 144 534
3 538 537 535
3 535 145 538
3 537 146 535
3 538 22 537
3 540 539 534
3 534 144 540
3 539 145 534
3 540 16 539
3 542 541 536
3 536 146 542
3 541 144 536
3 542 39 541
3 545 543 544
3 544 54 545
3 543 145 544
3 545 80 543
3 539 204 544
3 544 145 539
3 204 54 544
3 539 16 204
3 293 538 543
3 543 80 293
3 538 145 543
3 293 22 538
3 205 296 545
3 545 54 205
3 296 80 545
3 205 4 296
3 548 546 547
3 547 125 548
3 546 144 547
3 548 57 546
3 541 455 547
3 547 144 541
3 455 125 547
3 541 39 455
3 214 540 546
3 546 57 214
3 540 144 546
3 214 16 540
3 456 217 548
3 548 125 456
3 217 57 548
3 456 9 217
3 551 549 550
3 550 81 551
3 549 146 550
3 551 130 549
3 537 301 550
3 550 146 537
3 301 81 550
3 537 22 301
3 468 542 549
3 549 130 468
3 542 146 549
3 468 39 542
3 302 471 551
3 551 81 302
3 471 130 551
3 302 3 471
3 554 552 553
3 553 149 554
3 552 148 553
3 554 147 552
3 556 555 553
3 553 148 556
3 555 149 553
3 556 21 555
3 558 557 552
3 552 147 558
3 557 148 552
3 558 25 557
3 560 559 554
3 554 149 560
3 559 147 554
3 560 37 559
3 563 561 562
3 562 88 563
3 561 148 562
3 563 70 561
3 557 327 562
3 562 148 557
3 327 88 562
3 557 25 327
3 260 556 561
3 561 70 260
3 556 148 561
3 260 21 556
3 328 261 563
3 563 88 328
3 261 70 563
3 328 5 261
3 566 564 565
3 565 129 566
3 564 147 565
3 566 87 564
3 559 469 565
3 565 147 559
3 469 129 565
3 559 37 469
3 321 558 564
3 564 87 321
3 558 147 564
3 321 25 558
3 470 322 566
3 566 129 470
3 322 87 566
3 470 3 322
3 569 567 568
3 568 71 569
3 567 149 568
3 569 128 567
3 555 266 568
3 568 149 555
3 266 71 568
3 555 21 266
3 461 560 567
3 567 128 461
3 560 149 567
3 461 37 560
3 267 464 569
3 569 71 267
3 464 128 569
3 267 10 464
3 572 570 571
3 571 152 572
3 570 151 571
3 572 150 570
3 574 573 571
3 571 151 574
3 573 152 571
3 574 27 573
3 576 575 570
3 570 150 576
3 575 151 570
3 576 12 575
3 578 577 572
3 572 152 578
3 577 150 572
3 578 36 577
3 581 579 580
3 580 49 581
3 579 151 580
3 581 96 579
3 575 189 580
3 580 151 575
3 189 49 580
3 575 12 189
3 349 574 579
3 579 96 349
3 574 151 579
3 349 27 574
3 190 352 581
3 581 49 190
3 352 96 581
3 190 7 352
3 584 582 583
3 583 118 584
3 582 150 583
3 584 48 582
3 577 428 583
3 583 150 577
3 428 118 583
3 577 36 428
3 181 576 582
3 582 48 181
3 576 150 582
3 181 12 576
3 429 184 584
3 584 118 429
3 184 48 584
3 429 8 184
3 587 585 586
3 586 97 587
3 585 152 586
3 587 121 585
3 573 357 586
3 586 152 573
3 357 97 586
3 573 27 357
3 438 578 585
3 585 121 438
3 578 152 585
3 438 36 578
3 358 441 587
3 587 97 358
3 441 121 587
3 358 1 441
3 590 588 589
3 589 155 590
3 588 154 589
3 590 153 588
3 592 591 589
3 589 154 592
3 591 155 589
3 592 17 591
3 594 593 588
3 588 153 594
3 593 154 588
3 594 30 593
3 596 595 590
3 590 155 596
3 595 153 590
3 596 35 595
3 599 597 598
3 598 104 599
3 597 154 598
3 599 64 597
3 593 383 598
3 598 154 593
3 383 104 598
3 593 30 383
3 237 592 597
3 597 64 237
3 592 154 597
3 237 17 592
3 384 240 599
3 599 104 384
3 240 64 599
3 384 6 240
3 602 600 601
3 601 120 602
3 600 153 601
3 602 103 600
3 595 439 601
3 601 153 595
3 439 120 601
3 595 35 439
3 377 594 600
3 600 103 377
3 594 153 600
3 377 30 594
3 440 378 602
3 602 120 440
3 378 103 602
3 440 1 378
3 605 603 604
3 604 65 605
3 603 155 604
3 605 119 603
3 591 245 604
3 604 155 591
3 245 65 604
3 591 17 245
3 433 596 603
3 603 119 433
3 596 155 603
3 433 35 596
3 246 434 605
3 605 65 246
3 434 119 605
3 246 11 434
3 608 606 607
3 607 158 608
3 606 157 607
3 608 156 606
3 610 609 607
3 607 157 610
3 609 158 607
3 610 15 609
3 612 611 606
3 606 156 612
3 611 157 606
3 612 28 611
3 614 613 608
3 608 158 614
3 613 156 608
3 614 41 613
3 617 615 616
3 616 95 617
3 615 157 616
3 617 55 615
3 611 350 616
3 616 157 611
3 350 95 616
3 611 28 350
3 209 610 615
3 615 55 209
3 610 157 615
3 209 15 610
3 351 210 617
3 617 95 351
3 210 55 617
3 351 7 210
3 620 618 619
3 619 135 620
3 618 156 619
3 620 94 618
3 613 490 619
3 619 156 613
3 490 135 619
3 613 41 490
3 342 612 618
3 618 94 342
3 612 156 618
3 342 28 612
3 491 345 620
3 620 135 491
3 345 94 620
3 491 2 345
3 623 621 622
3 622 56 623
3 621 158 622
3 623 134 621
3 609 215 622
3 622 158 609
3 215 56 622
3 609 15 215
3 484 614 621
3 621 134 484
3 614 158 621
3 484 41 614
3 216 485 623
3 623 56 216
3 485 134 623
3 216 9 485
3 626 624 625
3 625 161 626
3 624 160 625
3 626 159 624
3 628 627 625
3 625 160 628
3 627 161 625
3 628 31 627
3 630 629 624
3 624 159 630
3 629 160 624
3 630 20 629
3 632 631 626
3 626 161 632
3 631 159 626
3 632 40 631
3 635 633 634
3 634 73 635
3 633 160 634
3 635 105 633
3 629 272 634
3 634 160 629
3 272 73 634
3 629 20 272
3 382 628 633
3 633 105 382
3 628 160 633
3 382 31 628
3 273 385 635
3 635 73 273
3 385 105 635
3 273 6 385
3 638 636 637
3 637 137 638
3 636 159 637
3 638 72 636
3 631 496 637
3 637 159 631
3 496 137 637
3 631 40 496
3 265 630 636
3 636 72 265
3 630 159 636
3 265 20 630
3 497 268 638
3 638 137 497
3 268 72 638
3 497 10 268
3 641 639 640
3 640 102 641
3 639 161 640
3 641 136 639
3 627 372 640
3 640 161 627
3 372 102 640
3 627 31 372
3 489 632 639
3 639 136 489
3 632 161 639
3 489 40 632
3 373 492 641
3 641 102 373
3 492 136 641
3 373 2 492
