# vtk DataFile Version 3.0
this file was written using fslvtkio
ASCII
DATASET POLYDATA
POINTS 1068 float
114.287 103.724 158.075
113.163 101.908 157.668
113.906 102.296 156.695
115.132 103.006 156.729
115.993 104.589 158.067
116.547 103.32 156.879
117.711 104.545 157.962
118.015 102.979 156.919
119.246 103.986 157.782
119.517 102.422 156.948
113.845 102.36 158.999
112.605 100.566 158.153
115.298 103.651 159.489
117.025 104.308 159.612
118.927 104.109 159.378
120.322 103.137 158.459
113.248 100.855 159.387
112.42 99.2962 158.816
114.589 101.961 160.061
116.231 102.639 160.336
118.004 102.817 160.295
119.598 102.395 159.702
113.877 100.128 160.134
115.514 100.876 160.579
117.132 101.109 160.624
118.658 101.2 160.477
118.602 103.557 151.674
117.581 103.459 150.61
118.381 104.542 149.933
119.606 104.718 150.194
119.861 103.313 151.431
120.719 103.867 150.268
117.469 102.747 152.492
116.412 102.273 152.893
116.668 102.474 151.206
118.49 101.925 153.042
119.45 101.819 152.58
120.733 102.273 151.47
116.875 102.128 154.599
115.73 101.768 153.85
117.973 101.653 154.253
119.119 101.161 154.441
120.169 100.814 153.096
114.441 101.694 155.604
113.305 100.898 156.144
114.074 100.095 154.978
114.881 100.821 154.318
115.581 102.056 155.518
116.947 102.033 156.068
118.292 101.672 155.937
119.524 101.099 155.899
120.118 100.524 154.757
112.356 99.9762 156.642
120.796 101.704 157.194
111.854 98.8145 157.242
121.061 101.626 158.815
111.608 97.7271 157.902
119.822 100.651 159.784
113.143 98.5194 159.755
112.114 97.2359 159.01
114.391 98.9584 160.42
115.828 99.308 160.543
117.05 99.3596 160.408
118.32 99.4168 160.151
113.385 97.2732 160.008
114.85 97.6776 160.361
116.032 98.1126 160.285
122.429 105.537 145.723
120.913 105.272 145.232
122.008 104.362 143.98
123.329 104.778 143.914
123.915 104.59 145.617
124.423 104.374 144.258
124.769 103.821 145.547
125.186 103.423 144.332
120.65 105.96 146.967
119.047 104.876 147.484
119.739 104.458 146.083
122.063 105.299 147.577
123.285 104.522 147.292
124.591 103.736 147.043
125.389 102.882 145.886
119.335 105.271 148.627
118.128 103.92 148.773
120.863 104.943 148.738
122.37 104.026 148.918
123.802 103.259 148.639
125.083 102.416 147.684
117.55 102.405 149.652
121.793 102.999 150.241
123.039 102.116 150.031
124.604 101.801 149.303
115.992 101.193 151.872
116.921 101.071 150.443
121.338 101.191 151.872
122.447 100.927 151.456
124.002 100.596 150.704
115.59 100.572 153.007
114.839 99.4862 153.281
115.435 99.6034 151.89
121.12 100.091 153.793
122.372 99.8965 152.849
123.51 99.9662 151.892
113.017 99.1266 155.16
113.888 98.7765 153.833
120.643 100.286 155.886
121.219 99.3826 155.364
122.05 99.0678 154.064
112.155 98.0721 155.618
121.572 100.417 157.323
121.472 99.1758 156.505
121.605 98.5122 155.279
111.581 96.9753 156.232
120.973 99.9099 158.925
121.569 99.0542 157.828
111.334 96.2951 157.854
119.688 99.2667 159.484
120.421 98.5992 158.72
111.834 95.3639 158.983
118.029 97.4937 159.515
116.938 98.0259 159.97
119.22 97.9659 159.329
112.889 95.7912 159.756
114.274 96.0325 159.996
115.613 96.5694 159.962
120.779 103.369 144.727
121.862 102.88 143.135
123.023 103.49 142.604
124.395 103.74 142.872
125.043 102.239 143.849
118.97 103.194 147.419
119.831 102.832 146.046
125.47 101.566 145.553
118.251 102.295 148.339
125.795 101.313 146.832
125.719 101.105 148.28
126.018 99.9104 147.102
117.626 100.954 148.872
125.316 100.5 149.598
126.006 99.5598 148.451
116.137 99.799 150.802
116.783 99.707 149.702
125.386 99.7007 150.232
125.853 98.6129 149.501
114.553 98.2104 152.314
115.241 98.326 150.943
123.573 99.0171 152.892
124.55 99.1891 151.784
125.39 98.8543 150.82
112.845 97.5893 153.965
113.973 97.1806 152.806
123.169 98.2601 153.371
124.258 97.6208 152.816
112.163 96.5124 154.469
121.784 98.0284 156.254
122.236 97.7122 154.85
123.029 97.543 153.839
111.297 95.5652 156.224
121.355 97.7442 157.471
122.091 96.6716 156.172
111.265 94.6852 157.514
121.163 96.7239 157.333
120.219 97.3852 158.495
111.737 93.9196 158.364
116.833 96.7411 159.783
117.85 96.1518 159.324
119.123 96.1197 158.826
112.697 94.0574 159.243
113.883 94.4165 159.709
115.216 94.9234 159.658
116.497 95.443 159.477
121.395 102.064 143.891
121.709 101.361 142.67
122.726 101.982 141.911
124.16 102.075 142.302
124.568 100.643 143.933
119.428 101.522 146.757
120.221 101.561 145.488
120.805 101.041 144.248
125.152 100.157 145.049
125.624 100.358 146.086
125.326 99.0375 145.891
118.493 100.874 147.541
118.949 99.8045 146.602
125.653 98.3672 146.851
117.435 99.5253 148.349
125.723 97.7485 147.965
115.983 98.1291 149.808
116.745 98.7889 149.129
125.697 97.0057 148.892
114.692 96.8234 151.082
115.434 97.2895 150.284
125.055 97.7437 151.586
125.484 97.1082 150.197
113.091 95.9133 152.737
113.975 96.2031 151.827
124.758 96.6942 152.144
124.918 96.1681 151.204
112.19 95.4394 153.691
111.609 94.0744 153.661
112.478 94.7362 152.744
122.726 96.6483 154.77
123.715 96.4258 153.437
124.306 95.6659 152.44
111.557 95.0406 154.887
111.076 93.4202 154.635
122.505 95.8666 155.451
122.96 95.4539 154.601
110.974 94.0382 156.107
110.805 92.5691 155.605
120.294 96.2088 157.961
121.345 95.6528 156.84
121.966 94.9696 155.756
111.106 93.1299 157.221
111.035 91.7827 156.7
118.937 94.4363 158.239
117.893 94.8584 158.986
119.931 95.1248 157.804
111.944 92.4925 158.428
112.962 92.3303 159.004
113.861 92.9212 159.27
115.17 93.3738 159.361
116.456 93.9618 159.15
123.069 100.297 141.386
121.693 100.098 141.74
122.167 98.6696 140.844
123.334 98.9181 141.488
123.922 100.326 142.408
123.755 98.7322 142.726
121.157 100.104 143.04
124.194 98.2309 143.553
119.802 99.668 145.486
120.514 99.4068 144.05
124.926 98.6967 144.518
125.098 97.5585 145.341
117.784 98.82 147.409
118.491 97.9665 146.098
125.495 96.6611 146.287
116.524 97.8852 148.666
116.375 96.6474 148.116
117.082 97.6961 147.763
125.418 95.9952 147.501
115.305 96.3643 149.613
114.724 94.9494 149.107
115.583 95.4808 148.388
125.342 95.5573 148.883
114.126 95.3628 150.74
113.304 93.9163 150.498
113.917 93.8842 149.342
124.96 95.1892 149.987
113.093 94.6681 151.685
111.969 93.5204 152.218
112.47 93.1088 151.001
124.503 94.6852 151.142
111.316 92.6527 153.037
123.859 94.1575 152.275
123.303 95.0001 153.366
110.899 91.792 153.925
122.52 94.3144 154.555
110.817 91.0189 154.967
121.625 93.6936 155.472
120.974 94.436 156.731
111.036 90.2088 156.009
118.605 93.3059 157.597
117.675 93.588 158.549
119.817 93.8803 157.238
111.545 91.0779 157.552
112.557 91.1369 158.411
113.888 91.3253 158.844
115.149 91.9773 158.866
116.485 92.5148 158.669
121.197 98.4511 141.672
120.252 97.2643 142.294
120.845 97.3861 140.78
122.168 97.5993 140.199
123.054 97.5243 141.435
123.514 96.6302 141.935
120.66 98.5967 142.88
120.009 97.869 144.188
123.961 95.9896 142.703
119.135 97.7556 145.06
124.671 96.8387 143.965
124.802 95.8975 144.867
117.342 97.0437 146.97
116.671 95.2384 146.213
117.632 96.1648 145.798
118.265 96.3609 144.898
125.038 95.0459 145.946
116.146 95.5075 147.203
115.259 94.1018 147.463
115.905 93.7979 146.327
125.066 94.4285 147.319
114.45 93.1699 147.846
124.77 93.9981 148.626
112.971 92.7044 149.691
113.697 92.4052 148.438
124.436 93.53 149.843
111.734 92.0237 151.555
112.162 91.6954 150.23
123.935 93.2964 151.027
111.302 91.058 152.235
123.223 92.9505 152.15
122.894 93.6632 153.303
110.882 90.2592 153.164
122.089 93.0663 154.179
111.045 89.5637 154.298
121.298 92.4133 155.105
120.632 93.1873 156.29
111.368 89.0115 155.293
117.564 92.7091 158.011
118.234 92.3591 157.285
119.353 92.5317 156.811
111.641 89.6387 156.901
112.491 89.7027 157.855
113.776 89.932 158.211
115.086 90.4862 158.238
116.202 91.116 158.088
117.142 91.7242 157.736
121.423 96.9319 139.388
120.198 96.227 140.459
120.652 96.2757 138.468
122.131 96.1351 138.006
122.632 96.7465 139.633
122.659 95.572 139.049
122.854 96.2624 140.537
122.901 95.0294 140.092
119.596 96.2412 142.367
123.301 94.5861 140.985
119.237 96.3148 143.728
123.667 94.0851 141.961
118.75 96.272 144.251
118.098 94.9663 143.745
118.663 95.5476 143.535
124.369 95.0235 143.415
124.698 94.1599 144.419
116.593 94.1272 144.956
117.479 95.0547 144.568
124.74 93.4916 145.724
114.853 92.2798 146.179
115.666 92.7454 145.162
124.616 92.9228 147.169
113.949 91.683 146.935
124.192 92.4973 148.547
112.685 91.4653 148.673
113.303 91.5551 147.77
123.647 92.0967 149.878
111.436 90.4361 150.54
111.827 90.6728 149.296
123.406 92.2415 151.175
111.028 89.53 151.354
122.811 91.8849 151.8
122.348 92.2539 152.896
110.832 88.7417 152.627
121.615 91.7991 153.764
111.169 88.165 153.715
120.693 91.4156 154.56
120.163 92.1084 155.748
111.773 87.9355 154.653
119.096 91.2578 156.073
118.106 91.4768 156.784
111.915 88.4895 156.269
112.72 88.513 157.16
113.843 88.7301 157.629
115.053 89.2092 157.663
116.04 89.8878 157.367
117.027 90.7002 157.12
121.145 95.7285 136.937
119.931 95.3242 138.28
120.442 94.8135 136.072
121.749 94.8204 135.937
122.355 95.0116 137.039
122.308 93.6166 136.321
119.596 95.1963 140.118
122.531 94.2468 138.262
122.74 93.3157 139.26
119.141 95.0034 141.352
118.39 93.8054 140.665
119.067 94.4476 140.257
123.156 92.5993 140.163
118.526 94.9084 142.617
117.63 93.6864 142.099
123.47 92.4827 141.417
117.098 93.7658 143.533
116.438 92.586 142.483
116.996 93.2167 142.227
124.174 93.4402 142.952
124.294 92.5692 144.172
116.064 92.7054 143.962
114.662 91.4045 144.467
115.317 91.8044 143.052
124.233 92.0602 145.67
113.545 90.8952 145.469
124.058 91.5272 147.151
112.878 90.9508 147.046
111.986 89.7541 146.714
112.578 90.1028 145.87
123.551 91.0982 148.515
112.02 90.2697 147.994
111.327 89.4461 148.962
111.391 88.9672 147.39
123.287 91.0357 149.661
122.972 90.0772 149.13
122.68 90.4776 150.437
111.077 88.6969 149.844
123.053 91.3558 150.804
122.205 90.9126 151.703
110.972 88.0139 151.022
121.557 90.8335 152.574
111.115 87.2935 152.197
120.857 90.597 153.456
111.72 86.9821 153.257
120.36 90.6891 154.253
119.83 90.8493 155.13
112.098 87.1663 154.524
112.243 87.5644 155.594
112.743 86.6349 155.231
118.984 90.515 155.514
118.028 90.4618 156.157
112.957 87.5369 156.415
114.059 87.7566 156.811
115.021 88.2948 156.954
116.042 88.7073 156.632
116.904 89.7105 156.415
119.468 94.4525 137.223
118.774 93.4763 137.025
119.285 93.7973 135.78
120.382 94.2285 134.734
121.786 93.8851 134.975
122.078 92.186 135.272
119.113 94.0405 138.94
118.285 92.7711 137.891
122.383 92.6361 137.419
122.619 91.6108 138.637
118.093 92.8373 139.462
116.888 91.8532 139.338
117.691 92.2599 138.564
123.051 90.844 139.907
117.144 92.5817 141.009
115.99 91.4009 140.541
123.287 91.3965 141.498
123.74 92.2817 142.735
123.536 91.164 142.896
115.672 91.7176 141.748
114.269 90.7198 142.671
114.855 90.8649 141.081
123.788 91.1204 144.293
113.395 90.0359 143.78
123.825 90.7449 145.745
112.737 89.7586 144.641
123.41 90.3137 146.948
111.549 88.8941 145.524
112.106 89.2807 144.95
123.07 89.6123 147.875
110.979 87.9127 148.112
110.928 88.136 146.434
122.229 89.1222 148.814
122.1 89.7261 150.313
110.86 87.1928 149.41
121.424 89.624 151.249
111.087 86.5011 150.663
120.709 89.6772 152.264
111.709 86.0003 151.831
120.087 89.9934 153.821
120.17 89.4059 152.795
119.75 89.0284 153.323
112.276 86.1037 152.909
112.351 86.4875 154.078
112.831 85.8635 153.844
119.207 89.7959 154.779
119.006 88.6569 153.685
118.477 88.8989 154.538
113.465 85.7447 154.742
117.062 88.7259 155.792
117.125 87.9655 155.168
116.335 87.9147 155.699
118.047 89.5039 155.433
117.734 88.2579 154.84
113.48 86.5276 155.782
114.323 86.8678 156.057
115.369 87.4754 156.167
121.042 93.8381 133.514
119.55 93.6163 133.66
119.698 93.1284 132.743
121.153 92.9165 132.518
121.843 92.8556 133.917
121.722 91.5422 133.369
118.058 92.5465 135.654
118.732 93.2078 134.549
121.716 90.6604 134.905
117.367 91.9678 137.481
116.612 91.1321 136.569
117.304 91.8319 136.017
122.224 91.2036 136.814
122.442 90.1065 138.307
116.055 91.1443 138.254
114.692 90.0373 138.561
115.456 90.262 137.112
122.716 89.1578 139.703
115.112 90.8254 139.601
113.888 89.881 140.632
123.172 90.1948 141.28
123.198 89.8023 142.821
113.16 89.4436 141.925
123.243 89.9426 144.276
112.316 88.965 142.641
111.536 87.6167 141.921
112.227 88.2987 141.327
123.193 89.4294 145.357
111.856 88.6217 143.757
111.113 87.3173 143.17
122.897 88.8875 146.337
111.09 87.877 144.773
110.665 87.0363 146.391
110.828 86.8821 144.434
122.436 88.5342 147.506
110.78 86.434 147.759
121.764 88.1853 148.274
121.42 88.6139 149.592
111.029 85.7515 149.02
120.795 88.4457 150.679
111.609 85.2117 150.226
120.118 88.6955 151.835
120.137 87.5407 150.622
119.542 87.6648 151.507
112.314 85.141 151.265
117.749 86.9795 153.07
117.447 85.9005 151.848
117.088 86.4841 153.042
118.572 87.3664 152.532
118.167 86.4205 151.889
119.273 88.1418 152.578
118.776 86.8382 151.312
112.84 85.3093 152.303
113.504 85.2662 153.347
117.188 87.2707 154.404
116.579 86.4423 153.846
118.167 87.8548 153.613
114.162 85.41 154.07
114.334 86.0494 155.065
115.208 86.4507 155.244
114.965 85.6528 154.12
116.175 86.963 155.011
115.757 86.0191 154.1
118.397 91.8007 131.228
117.283 91.2102 131.587
117.639 91.2504 129.638
119.152 91.7826 129.771
119.482 92.5389 131.559
120.418 91.8321 130.594
121.238 92.0946 131.695
121.192 90.9457 131.499
118.266 92.3474 133.289
117.017 91.2085 133.025
121.232 90.127 132.937
117.253 91.6923 134.645
116.071 90.3307 134.549
116.148 90.2267 133.432
121.421 89.1744 134.535
116.015 90.5674 135.713
114.576 89.4262 136.304
115.241 89.7542 135.04
121.941 89.7653 136.489
122.147 88.5745 137.914
113.906 89.2643 138.346
122.292 88.16 139.184
113.265 88.9424 139.356
112.092 87.7814 138.973
112.926 88.3088 138.03
122.915 88.9915 141.069
122.351 87.7114 140.47
112.687 88.6694 140.414
111.533 87.1494 140.238
122.804 88.5802 142.134
122.94 88.4924 143.546
110.9 86.2378 141.374
122.531 88.1026 144.674
110.781 86.3587 143.158
110.631 86.0209 144.703
110.53 85.3883 142.61
122.178 87.9373 146.124
110.613 85.6058 146.141
121.876 87.7787 147.191
121.628 87.1231 146.268
121.273 87.2462 147.67
111.108 85.0939 147.324
120.939 87.4441 148.95
111.614 84.4747 148.532
120.532 87.2913 149.691
112.111 84.1165 149.538
112.445 84.4242 150.685
113.051 83.7683 150.1
119.484 86.8558 150.606
119.595 86.3413 149.593
119.006 86.0194 150.208
120.063 86.6954 149.334
112.783 84.6823 151.407
113.391 84.1854 151.145
117.06 85.0722 150.791
116.682 85.4526 152.255
118.028 85.6242 150.637
114.471 84.9415 153.088
113.811 84.7746 152.093
115.352 85.1935 153.073
114.895 84.5219 151.996
116.171 85.5422 153.036
115.76 84.8442 151.916
115.425 89.2662 130.168
114.174 88.2812 129.813
114.873 88.828 128.577
116.037 90.1432 128.818
116.504 90.3471 130.436
117.511 90.8749 128.26
119.216 91.0489 128.355
120.484 90.8695 129.562
120.807 89.742 130.8
114.933 89.0149 131.687
113.963 88.1796 131.73
115.908 89.944 132.026
120.812 88.8471 132.317
114.966 88.9487 133.714
113.782 87.9361 133.328
121.003 87.9584 133.522
113.952 88.6633 135.005
112.828 87.7037 135.773
113.123 87.6314 134.326
121.742 88.5722 136.064
121.328 87.5381 135.098
113.468 88.5681 136.9
112.145 87.2572 137.27
121.773 87.624 136.91
121.844 87.191 138.446
111.194 86.5619 138.551
121.781 86.5717 139.736
110.813 85.6154 139.816
122.304 87.5988 142.009
121.732 86.4273 141.258
110.55 84.6282 141.063
122.029 87.1135 143.101
121.387 85.8823 142.473
110.63 84.9078 144.353
110.622 84.2533 142.668
121.447 86.2859 144.045
121.026 85.3055 143.346
120.866 85.509 144.569
121.897 87.166 144.792
110.946 84.2777 145.602
121.187 86.2497 145.867
120.399 85.2211 145.498
111.442 83.8872 146.806
120.62 86.2254 147.169
119.938 85.1348 146.702
112.166 83.6344 147.481
119.808 85.8649 148.053
119.5 85.1226 147.305
119.149 84.9389 147.865
120.389 86.7304 148.559
112.554 83.501 148.493
114.213 83.5369 150.166
113.399 83.2237 149.106
114.599 82.9093 149.204
118.937 85.5048 149.113
118.394 84.6753 148.377
118.024 85.0697 149.445
114.425 84.1401 151.122
115.295 83.468 149.812
115.43 84.1549 150.739
116.233 84.77 150.987
116.278 83.978 149.76
117.218 84.4803 149.634
116.457 89.7485 125.935
114.928 88.8089 125.858
115.185 88.9763 124.781
116.804 89.5469 124.451
118.145 89.7699 126.049
118.17 89.2776 124.953
119.099 89.1768 126.43
118.888 88.4475 125.66
115.27 89.0677 127.185
113.7 87.6711 127.813
113.942 87.8523 126.386
116.555 90.2168 127.395
118.013 90.2421 127.319
119.433 89.8024 127.502
119.337 88.3509 127.368
113.245 87.3392 129.833
120.23 89.5056 128.936
120.257 88.4325 130.411
113.084 87.321 131.928
120.47 87.5006 131.906
112.948 87.2022 133.184
112.155 86.7113 134.159
112.362 86.6128 132.648
120.744 86.682 133.628
111.766 86.5244 135.763
120.895 86.081 135.196
111.084 85.984 136.961
121.49 86.6013 136.694
121.367 85.9898 138.122
110.661 85.088 138.102
121.214 85.5199 139.57
110.557 84.1822 139.335
121.098 85.1588 140.938
110.725 83.3887 140.44
120.926 85.0624 142.119
110.994 83.5803 143.868
111.043 83.2327 141.973
120.565 84.7995 142.613
120.189 84.6274 143.59
111.609 83.1312 145.164
111.738 82.6592 143.589
119.679 84.502 145.281
112.221 82.9429 146.435
112.653 82.3178 145.122
119.286 84.3933 146.65
119.121 83.8207 145.355
118.665 83.6319 146.183
112.872 83.0609 147.335
113.206 82.3465 146.492
117.478 83.4819 147.48
117.138 82.8671 146.45
116.644 82.9594 147.381
118.391 84.0571 147.335
117.97 83.1468 146.269
113.552 82.7691 147.985
115.776 82.8815 148.859
114.669 82.5162 148.167
116.684 83.4468 148.595
115.774 82.63 147.564
117.625 84.1363 148.519
113.894 92.34 110.524
112.972 92.3 110.738
113.085 92.843 109.297
113.828 92.1485 109.41
114.412 91.4377 110.335
114.017 91.0316 109.527
113.952 91.9996 111.705
113.412 91.6298 112.391
114.683 91.358 111.52
114.377 90.2272 110.865
114.4 91.1421 112.889
114.86 90.3781 112.383
113.463 87.6239 123.665
112.04 86.1907 124.248
112.356 86.7228 122.888
114.216 88.2237 122.498
115.068 88.8284 123.607
116.179 89.0721 122.158
117.107 89.1975 123.197
117.915 88.1305 122.305
113.453 87.4827 124.971
112.548 86.5442 126.035
118.342 88.4543 124.141
118.846 87.4527 125.698
112.591 86.6987 128.079
119.04 86.6951 127.273
112.435 86.4481 129.546
111.756 85.6592 130.328
111.87 85.7595 128.617
119.795 87.8807 128.854
119.89 86.8848 130.38
112.458 86.5056 131.078
111.579 85.8177 132.403
120.107 86.2888 131.973
111.305 85.5098 134.088
120.217 85.4513 133.34
110.854 85.0476 135.423
119.935 84.6384 134.257
110.636 84.2688 136.577
120.874 85.5664 136.528
120.076 84.7486 135.718
110.724 83.3277 137.76
120.667 84.9278 137.662
119.964 84.0463 137.297
111.009 82.5943 138.967
120.521 84.5457 139.213
119.824 83.8319 139.382
111.313 82.2123 140.598
120.371 84.4475 141.277
119.592 83.6814 140.679
111.806 82.0629 142.176
119.713 83.8437 142.389
119.032 83.1307 141.028
118.728 82.8949 142.052
112.592 81.8768 143.581
117.697 82.5211 143.743
116.95 81.7908 142.853
116.673 81.99 143.873
118.73 83.1332 143.294
117.84 82.1094 142.273
119.322 83.9459 144.067
113.477 81.7638 144.62
114.102 81.9592 145.811
115.451 81.8912 145.576
114.595 81.5295 144.659
116.588 82.2285 144.94
115.739 81.5829 144.391
117.368 82.7234 145.354
118.394 83.1193 144.862
114.082 82.4185 147.049
115.069 82.2263 146.747
116.289 82.4041 146.286
111.282 93.2147 108.414
110.93 92.031 109.488
110.202 91.7647 108.106
111.284 92.3906 107.035
112.591 93.1296 107.933
112.337 91.6138 107.392
112.011 92.7069 109.928
111.469 91.376 110.832
113.358 91.7396 108.4
113.534 90.3644 108.987
112.487 91.4879 112.113
111.696 90.3984 112.132
113.804 89.5378 110.235
112.619 90.3694 113.947
111.686 89.3164 113.872
113.704 90.8584 113.88
114.879 90.1823 114.003
114.721 89.1947 112.353
112.804 89.3447 115.461
111.794 88.2761 115.123
113.937 89.9029 115.723
115.057 90.0558 115.574
115.397 89.0487 113.975
115.802 89.3679 115.314
115.757 88.2798 114.947
112.511 88.5502 116.76
111.493 87.354 116.414
113.782 89.2271 117.39
115.079 89.5108 117.385
116.014 89.2261 116.846
116.14 88.0804 116.317
112.21 87.9037 117.832
113.294 88.5716 118.792
112.221 87.2291 118.994
114.918 89.1688 119.021
116.28 88.7993 118.571
116.399 87.7185 117.813
112.773 87.681 120.253
111.736 86.2187 120.099
114.199 88.705 120.297
116.333 88.8034 119.923
116.762 86.9904 119.213
111.734 86.1397 121.218
112.86 87.4357 121.67
111.38 85.1161 122.348
115.056 88.8388 121.214
117.16 86.9714 120.193
117.156 88.518 121.047
117.198 86.5807 121.337
111.173 84.5114 123.58
117.542 86.3209 122.727
111.637 85.091 125.237
111.304 84.5878 126.453
111.109 83.542 124.733
118.187 86.9831 123.991
118.416 86.0052 125.289
111.889 85.644 126.918
111.275 84.7114 128.432
118.347 85.2218 126.439
111.323 84.6373 130.589
119.337 86.3434 128.763
118.67 84.9329 127.943
111.152 84.4767 132.324
119.27 85.6471 129.852
119.563 85.217 131.32
110.886 84.0726 133.813
119.422 84.3604 132.519
110.833 83.3944 135.045
119.246 83.793 133.562
118.705 83.4745 132.33
118.49 82.8653 133.424
110.977 82.5885 136.305
119.167 83.5482 134.85
118.319 82.3851 135.099
111.539 81.8106 137.499
119.334 83.2752 136.261
118.341 82.1421 136.557
111.829 81.4532 139.119
118.628 82.5759 137.701
117.66 81.5968 137.303
117.547 81.5834 138.404
119.38 83.3367 138.034
112.254 81.388 140.744
118.101 82.2336 139.254
117.406 81.5709 139.739
118.942 82.8974 139.394
112.697 81.4392 142.129
118.289 82.3557 140.749
117.454 81.6469 141.02
113.378 81.3876 142.864
113.844 81.4345 143.682
115.046 81.3023 143.492
114.578 81.0786 142.596
116.121 81.4083 143.32
115.805 81.06 142.257
116.776 81.233 141.706
110.541 90.7161 109.631
109.961 90.2785 108.112
110.865 90.807 106.954
111.756 89.8888 107.291
110.671 89.6511 110.993
112.713 90.2463 107.978
112.944 89.0816 108.897
111.081 89.0867 112.356
113.837 88.6396 110.889
111.081 88.0179 113.397
114.288 87.8691 112.399
111.189 87.0868 114.694
114.959 88.0561 113.813
115.371 87.2518 115.411
111.099 86.2022 115.543
115.65 86.6487 116.91
111.601 86.8968 117.514
111.042 85.9185 116.762
115.961 86.0459 118.25
111.468 86.1777 118.349
111.321 85.3052 119.369
115.805 85.0434 119.333
111.17 84.3513 120.69
111.21 83.0054 121.504
116.07 84.6624 120.457
116.695 84.6307 121.729
111.095 82.4693 122.916
116.79 84.3639 122.833
110.988 83.4924 126.589
111.224 81.9738 124.692
117.471 85.3565 123.99
117.423 84.4026 124.944
111.061 83.5519 128.667
117.621 83.9135 126.41
111.056 83.3622 130.48
117.807 83.5215 127.835
111.095 83.0779 132.015
118.864 84.5756 129.755
118.146 83.5647 129.3
111.072 82.5839 133.442
118.708 83.8325 130.956
118.012 82.7924 131.491
111.336 81.7983 134.593
117.69 82.0404 133.135
111.778 81.3489 135.808
117.414 81.5458 134.643
116.865 81.1287 133.458
116.543 80.6997 134.707
112.3 80.9416 136.696
112.619 80.714 138.076
114.07 80.2568 137.558
113.242 80.3676 136.544
115.446 80.1779 136.898
114.422 80.0453 135.986
116.604 80.6366 136.052
115.663 80.0038 135.294
117.592 81.3287 136.186
112.971 80.8177 139.614
114.106 80.4761 138.964
115.361 80.3712 138.311
116.516 80.8362 137.547
113.327 80.9185 141.064
114.266 80.7063 140.324
115.358 80.6443 139.666
116.499 80.9235 138.975
113.696 81.0976 142.038
114.6 80.7772 141.546
115.598 80.7802 140.972
116.517 81.1038 140.382
110.268 89.2859 109.288
110.515 88.989 107.689
110.323 88.2786 110.342
110.699 87.9421 108.856
111.856 88.401 107.967
110.556 87.7929 111.768
110.876 87.0535 110.489
111.708 87.0333 109.233
112.648 87.8378 109.354
113.361 87.6912 110.827
110.875 86.5833 113.167
113.805 86.8319 112.55
111.23 85.6481 114.426
114.629 86.8227 114.055
114.903 85.9844 115.734
111.24 84.8198 115.488
115.137 85.1855 117.306
111.068 84.4594 116.62
115.015 84.2212 118.547
111.068 85.0507 117.826
111.05 84.06 118.422
114.845 83.1226 119.886
111.142 83.7634 119.459
112.362 81.3362 121.245
111.555 82.4325 119.808
114.362 81.8698 121.033
113.245 81.6918 119.778
115.608 83.3639 121.32
112.038 81.0895 122.943
113.791 80.8715 122.51
115.327 82.4939 122.293
111.053 82.3244 126.816
111.65 81.1515 125.671
112.57 80.5583 124.178
114.121 80.713 123.994
114.838 81.0476 125.189
115.166 81.7978 123.639
116.258 83.3399 123.715
111.167 82.2327 128.692
115.733 82.0452 125.547
115.315 81.0133 126.693
116.443 83.0606 125.154
111.28 82.0644 130.234
116.135 81.8359 127.596
115.538 80.7177 128.342
116.767 82.7692 126.768
111.396 81.7907 131.616
116.387 81.5001 129.361
115.541 80.4835 129.939
117.21 82.5281 128.646
111.558 81.4181 132.876
116.348 81.1862 130.986
115.275 80.3153 131.338
117.403 82.2888 130.302
111.986 80.7502 133.374
112.285 80.2908 134.419
113.789 79.6967 133.587
112.913 80.019 132.802
115.193 79.9364 132.725
114.128 79.7949 132.029
116.16 80.7044 132.31
117.048 81.5482 132.053
112.54 80.4546 135.727
113.488 79.9956 135.131
114.813 79.752 134.412
115.903 80.2915 133.665
111.14 86.0555 111.963
111.968 85.988 110.961
112.746 86.7337 110.539
111.495 84.9127 113.388
112.374 85.011 112.538
113.144 85.98 112.181
111.812 84.0005 114.632
112.747 83.9552 114.087
113.575 84.7067 113.903
114.08 85.7793 114.02
111.757 83.4073 115.954
112.835 83.3008 115.676
113.673 83.8429 115.635
114.358 84.8935 115.761
111.35 83.4496 117.218
112.449 82.7908 117.039
113.49 82.9433 117.175
114.45 83.8988 117.241
111.691 82.8116 118.352
112.728 82.2031 118.529
114.094 82.7874 118.734
111.63 81.2076 127.283
112.574 80.3769 126.05
113.578 80.3148 125.121
111.796 80.9627 128.713
112.791 80.15 127.47
114.044 80.1951 126.404
111.925 80.692 130.062
113.017 80.0226 128.836
114.376 80.0456 127.747
112.131 80.6064 131.291
113.123 80.0359 130.164
114.427 80.0343 129.256
112.255 80.3805 132.307
113.119 79.8261 131.429
114.331 79.9546 130.584
POLYGONS 2132  8528
3 0 1 2
3 0 3 4
3 2 3 0
3 4 5 6
3 3 5 4
3 6 7 8
3 5 7 6
3 7 9 8
3 10 1 0
3 11 1 10
3 4 12 0
3 12 10 0
3 6 13 4
3 13 12 4
3 8 14 6
3 14 13 6
3 15 8 9
3 14 8 15
3 16 11 10
3 17 11 16
3 12 18 10
3 18 16 10
3 13 19 12
3 19 18 12
3 14 20 13
3 20 19 13
3 21 14 15
3 20 14 21
3 16 22 17
3 18 22 16
3 23 22 18
3 19 23 18
3 24 23 19
3 20 24 19
3 25 24 20
3 21 25 20
3 26 27 28
3 26 29 30
3 28 29 26
3 29 31 30
3 32 33 34
3 27 32 34
3 27 26 32
3 26 35 32
3 30 36 26
3 36 35 26
3 37 30 31
3 36 30 37
3 38 33 32
3 39 33 38
3 35 40 32
3 40 38 32
3 36 41 35
3 41 40 35
3 42 36 37
3 41 36 42
3 43 44 45
3 43 46 47
3 45 46 43
3 39 47 46
3 39 38 47
3 38 48 47
3 40 49 38
3 49 48 38
3 50 41 51
3 50 49 41
3 49 40 41
3 42 51 41
3 2 44 43
3 2 1 44
3 1 52 44
3 3 2 43
3 47 3 43
3 5 3 47
3 48 5 47
3 7 5 48
3 49 7 48
3 49 9 7
3 49 50 9
3 50 53 9
3 1 11 52
3 52 11 54
3 9 53 15
3 53 55 15
3 11 17 54
3 54 17 56
3 15 55 21
3 55 57 21
3 58 17 22
3 58 59 17
3 59 56 17
3 22 23 60
3 58 22 60
3 23 24 61
3 60 23 61
3 62 61 24
3 62 24 63
3 63 24 25
3 57 25 21
3 63 25 57
3 58 64 59
3 60 64 58
3 65 64 60
3 61 65 60
3 66 65 61
3 62 66 61
3 67 68 69
3 67 70 71
3 69 70 67
3 71 72 73
3 70 72 71
3 72 74 73
3 75 76 77
3 68 75 77
3 68 67 75
3 67 78 75
3 71 79 67
3 79 78 67
3 73 80 71
3 80 79 71
3 81 73 74
3 80 73 81
3 82 76 75
3 83 76 82
3 78 84 75
3 84 82 75
3 79 85 78
3 85 84 78
3 80 86 79
3 86 85 79
3 87 80 81
3 86 80 87
3 28 83 82
3 28 27 83
3 27 88 83
3 29 28 82
3 84 29 82
3 31 29 84
3 31 84 89
3 89 84 85
3 86 90 85
3 90 89 85
3 91 86 87
3 90 86 91
3 34 92 93
3 33 92 34
3 88 27 34
3 93 88 34
3 89 94 37
3 31 89 37
3 90 95 89
3 95 94 89
3 96 90 91
3 95 90 96
3 97 98 99
3 97 99 92
3 97 92 39
3 39 92 33
3 94 100 42
3 37 94 42
3 101 95 102
3 101 100 95
3 100 94 95
3 96 102 95
3 45 103 104
3 44 103 45
3 98 97 46
3 98 46 104
3 104 46 45
3 39 46 97
3 51 105 50
3 51 42 100
3 51 100 105
3 105 100 106
3 107 100 101
3 106 100 107
3 44 52 103
3 103 52 108
3 105 109 53
3 50 105 53
3 110 106 111
3 110 109 106
3 109 105 106
3 107 111 106
3 52 54 108
3 108 54 112
3 109 113 55
3 53 109 55
3 114 109 110
3 113 109 114
3 54 56 112
3 112 56 115
3 113 116 57
3 55 113 57
3 117 113 114
3 116 113 117
3 56 59 115
3 115 59 118
3 63 119 120
3 62 63 120
3 116 63 57
3 116 121 63
3 121 119 63
3 117 121 116
3 59 122 118
3 64 122 59
3 65 123 64
3 64 123 122
3 66 124 65
3 65 124 123
3 120 66 62
3 124 66 120
3 69 125 126
3 68 125 69
3 70 69 127
3 69 126 127
3 72 70 128
3 70 127 128
3 128 74 72
3 129 74 128
3 77 130 131
3 76 130 77
3 125 68 77
3 131 125 77
3 74 129 81
3 129 132 81
3 76 83 130
3 130 83 133
3 134 135 87
3 134 87 132
3 132 87 81
3 134 136 135
3 83 88 133
3 133 88 137
3 135 138 91
3 87 135 91
3 139 135 136
3 138 135 139
3 93 140 141
3 92 140 93
3 137 88 93
3 141 137 93
3 138 142 96
3 91 138 96
3 143 138 139
3 142 138 143
3 99 144 145
3 98 144 99
3 140 92 99
3 145 140 99
3 102 146 101
3 102 147 146
3 96 147 102
3 96 148 147
3 96 142 148
3 143 148 142
3 104 149 150
3 103 149 104
3 144 98 104
3 150 144 104
3 146 151 107
3 101 146 107
3 152 146 147
3 151 146 152
3 103 108 149
3 149 108 153
3 111 154 110
3 111 155 154
3 107 155 111
3 107 156 155
3 107 151 156
3 152 156 151
3 108 112 153
3 153 112 157
3 154 158 114
3 110 154 114
3 159 154 155
3 158 154 159
3 112 115 157
3 157 115 160
3 158 161 162
3 158 162 114
3 114 162 117
3 159 161 158
3 115 118 160
3 160 118 163
3 119 164 120
3 165 164 119
3 165 119 166
3 166 119 121
3 162 121 117
3 166 121 162
3 118 167 163
3 122 167 118
3 123 168 122
3 122 168 167
3 124 169 123
3 123 169 168
3 164 124 120
3 164 170 124
3 170 169 124
3 165 170 164
3 126 125 171
3 172 126 171
3 172 173 126
3 173 127 126
3 128 127 174
3 127 173 174
3 174 129 128
3 175 129 174
3 131 130 176
3 131 176 177
3 125 131 177
3 125 177 178
3 125 178 171
3 172 171 178
3 179 180 132
3 179 132 175
3 175 132 129
3 179 181 180
3 176 182 183
3 176 130 182
3 130 133 182
3 177 176 183
3 132 180 134
3 180 136 134
3 180 181 136
3 181 184 136
3 133 137 182
3 182 137 185
3 136 184 139
3 184 186 139
3 141 187 188
3 140 187 141
3 185 137 141
3 188 185 141
3 139 186 143
3 186 189 143
3 145 190 191
3 144 190 145
3 187 140 145
3 191 187 145
3 148 192 147
3 148 193 192
3 148 143 193
3 143 189 193
3 150 194 195
3 149 194 150
3 190 144 150
3 195 190 150
3 192 196 152
3 147 192 152
3 197 192 193
3 196 192 197
3 198 199 200
3 198 200 194
3 198 194 153
3 153 194 149
3 156 201 155
3 156 202 201
3 152 202 156
3 152 203 202
3 152 196 203
3 197 203 196
3 204 199 198
3 205 199 204
3 153 157 204
3 198 153 204
3 201 206 159
3 155 201 159
3 207 201 202
3 206 201 207
3 208 205 204
3 209 205 208
3 157 160 208
3 204 157 208
3 161 210 162
3 161 211 210
3 159 211 161
3 159 212 211
3 159 206 212
3 207 212 206
3 213 209 208
3 214 209 213
3 160 163 213
3 208 160 213
3 166 215 216
3 165 166 216
3 210 166 162
3 210 217 166
3 217 215 166
3 211 217 210
3 213 218 214
3 163 218 213
3 163 167 218
3 167 219 218
3 168 220 167
3 167 220 219
3 169 221 168
3 168 221 220
3 170 222 169
3 169 222 221
3 216 170 165
3 222 170 216
3 223 224 225
3 223 226 227
3 225 226 223
3 226 228 227
3 173 224 223
3 173 172 224
3 172 229 224
3 174 173 223
3 227 174 223
3 227 175 174
3 227 228 175
3 228 230 175
3 178 231 232
3 177 231 178
3 229 172 178
3 232 229 178
3 175 230 233
3 179 175 233
3 233 181 179
3 234 181 233
3 183 235 236
3 182 235 183
3 231 177 183
3 236 231 183
3 181 234 184
3 234 237 184
3 238 239 240
3 238 240 235
3 238 235 185
3 185 235 182
3 184 237 186
3 237 241 186
3 242 243 244
3 239 242 244
3 238 242 239
3 238 187 242
3 238 188 187
3 185 188 238
3 186 241 189
3 241 245 189
3 246 247 248
3 243 246 248
3 242 246 243
3 242 190 246
3 242 191 190
3 187 191 242
3 189 245 193
3 245 249 193
3 250 251 252
3 247 250 252
3 246 250 247
3 246 194 250
3 246 195 194
3 190 195 246
3 193 249 197
3 249 253 197
3 200 251 250
3 200 199 251
3 199 254 251
3 194 200 250
3 203 255 256
3 202 203 256
3 253 203 197
3 255 203 253
3 199 205 254
3 254 205 257
3 202 256 207
3 256 258 207
3 205 209 257
3 257 209 259
3 212 260 261
3 211 212 261
3 258 212 207
3 260 212 258
3 209 214 259
3 259 214 262
3 215 263 264
3 216 215 264
3 217 265 215
3 215 265 263
3 261 217 211
3 265 217 261
3 214 266 262
3 218 266 214
3 219 267 218
3 218 267 266
3 220 268 219
3 219 268 267
3 221 269 220
3 220 269 268
3 222 270 221
3 221 270 269
3 264 222 216
3 270 222 264
3 271 272 273
3 271 225 224
3 271 273 225
3 273 274 225
3 226 225 275
3 225 274 275
3 275 228 226
3 276 228 275
3 277 272 271
3 278 272 277
3 224 229 277
3 271 224 277
3 228 276 230
3 276 279 230
3 232 278 277
3 232 231 278
3 231 280 278
3 229 232 277
3 230 279 281
3 233 230 281
3 281 234 233
3 282 234 281
3 283 284 285
3 283 236 235
3 283 285 236
3 285 286 236
3 280 231 236
3 286 280 236
3 234 282 237
3 282 287 237
3 288 289 290
3 284 288 290
3 283 288 284
3 283 239 288
3 283 240 239
3 235 240 283
3 237 287 241
3 287 291 241
3 244 289 288
3 244 243 289
3 243 292 289
3 239 244 288
3 241 291 245
3 291 293 245
3 248 294 295
3 247 294 248
3 292 243 248
3 295 292 248
3 245 293 249
3 293 296 249
3 252 297 298
3 251 297 252
3 294 247 252
3 298 294 252
3 249 296 253
3 296 299 253
3 251 254 297
3 297 254 300
3 255 301 302
3 256 255 302
3 299 255 253
3 301 255 299
3 254 257 300
3 300 257 303
3 256 302 258
3 302 304 258
3 257 259 303
3 303 259 305
3 260 306 307
3 261 260 307
3 304 260 258
3 306 260 304
3 259 262 305
3 305 262 308
3 263 309 264
3 310 309 263
3 310 263 311
3 311 263 265
3 307 265 261
3 311 265 307
3 262 312 308
3 266 312 262
3 267 313 266
3 266 313 312
3 268 314 267
3 267 314 313
3 269 315 268
3 268 315 314
3 270 316 269
3 269 316 315
3 309 270 264
3 309 317 270
3 317 316 270
3 310 317 309
3 318 319 320
3 318 321 322
3 320 321 318
3 322 323 324
3 321 323 322
3 323 325 324
3 273 319 318
3 273 272 319
3 272 326 319
3 274 273 318
3 322 274 318
3 275 274 322
3 324 275 322
3 324 276 275
3 324 325 276
3 325 327 276
3 272 278 326
3 326 278 328
3 276 327 279
3 327 329 279
3 330 331 332
3 330 332 328
3 330 328 280
3 280 328 278
3 279 329 333
3 281 279 333
3 333 282 281
3 334 282 333
3 285 335 336
3 284 335 285
3 331 330 286
3 331 286 336
3 336 286 285
3 280 286 330
3 282 334 287
3 334 337 287
3 290 338 339
3 289 338 290
3 335 284 290
3 339 335 290
3 287 337 291
3 337 340 291
3 289 292 338
3 338 292 341
3 291 340 293
3 340 342 293
3 295 343 344
3 294 343 295
3 341 292 295
3 344 341 295
3 293 342 296
3 342 345 296
3 298 346 347
3 297 346 298
3 343 294 298
3 347 343 298
3 296 345 299
3 345 348 299
3 297 300 346
3 346 300 349
3 301 350 351
3 302 301 351
3 348 301 299
3 350 301 348
3 300 303 349
3 349 303 352
3 302 351 304
3 351 353 304
3 303 305 352
3 352 305 354
3 306 355 356
3 307 306 356
3 353 306 304
3 355 306 353
3 305 308 354
3 354 308 357
3 311 358 359
3 310 311 359
3 356 311 307
3 358 311 356
3 308 360 357
3 312 360 308
3 313 361 312
3 312 361 360
3 314 362 313
3 313 362 361
3 315 363 314
3 314 363 362
3 316 364 315
3 315 364 363
3 317 365 316
3 316 365 364
3 359 317 310
3 365 317 359
3 366 367 368
3 366 369 370
3 368 369 366
3 369 371 370
3 320 367 366
3 320 319 367
3 319 372 367
3 321 320 366
3 370 321 366
3 370 371 373
3 370 373 321
3 321 373 323
3 373 325 323
3 374 325 373
3 375 376 377
3 375 377 372
3 375 372 326
3 326 372 319
3 325 374 327
3 374 378 327
3 379 376 375
3 380 376 379
3 326 328 379
3 375 326 379
3 327 378 329
3 378 381 329
3 382 383 384
3 380 382 384
3 379 382 380
3 379 331 382
3 379 332 331
3 328 332 379
3 329 381 385
3 333 329 385
3 385 334 333
3 386 334 385
3 387 388 389
3 383 387 389
3 382 387 383
3 382 335 387
3 382 336 335
3 331 336 382
3 334 386 337
3 386 390 337
3 339 388 387
3 339 338 388
3 338 391 388
3 335 339 387
3 337 390 340
3 390 392 340
3 393 394 395
3 393 395 391
3 393 391 341
3 341 391 338
3 340 392 342
3 392 396 342
3 397 398 399
3 394 397 399
3 393 397 394
3 393 343 397
3 393 344 343
3 341 344 393
3 400 401 402
3 400 396 401
3 400 345 396
3 345 342 396
3 347 398 397
3 347 346 398
3 346 403 398
3 343 347 397
3 404 400 402
3 405 404 402
3 345 404 348
3 400 404 345
3 346 349 403
3 403 349 406
3 350 404 405
3 350 405 351
3 351 405 407
3 348 404 350
3 349 352 406
3 406 352 408
3 351 407 353
3 407 409 353
3 352 354 408
3 408 354 410
3 355 411 412
3 356 355 412
3 409 355 353
3 411 355 409
3 413 357 414
3 413 410 357
3 410 354 357
3 413 414 415
3 358 416 417
3 359 358 417
3 412 358 356
3 416 358 412
3 357 360 414
3 414 418 415
3 414 360 418
3 360 361 418
3 362 419 361
3 361 419 418
3 363 420 362
3 362 420 419
3 364 421 363
3 363 421 420
3 365 422 364
3 364 422 421
3 417 365 359
3 422 365 417
3 423 424 425
3 423 368 367
3 423 425 368
3 425 426 368
3 369 368 427
3 368 426 427
3 427 371 369
3 428 371 427
3 429 424 423
3 430 424 429
3 367 372 429
3 423 367 429
3 371 428 431
3 373 371 431
3 431 374 373
3 432 374 431
3 433 434 435
3 430 433 435
3 429 433 430
3 429 376 433
3 429 377 376
3 372 377 429
3 374 432 378
3 432 436 378
3 437 434 433
3 438 434 437
3 376 380 437
3 433 376 437
3 439 440 381
3 439 381 436
3 436 381 378
3 439 441 440
3 442 443 444
3 438 442 444
3 437 442 438
3 437 383 442
3 437 384 383
3 380 384 437
3 381 440 385
3 440 386 385
3 440 441 386
3 441 445 386
3 389 443 442
3 389 388 443
3 388 446 443
3 383 389 442
3 386 445 390
3 445 447 390
3 388 391 446
3 446 391 448
3 390 447 392
3 447 449 392
3 395 450 451
3 394 450 395
3 448 391 395
3 451 448 395
3 392 449 396
3 449 452 396
3 399 453 454
3 398 453 399
3 450 394 399
3 454 450 399
3 401 455 456
3 402 401 456
3 452 401 396
3 455 401 452
3 398 403 453
3 453 403 457
3 402 456 405
3 456 458 405
3 403 406 457
3 457 406 459
3 405 458 407
3 458 460 407
3 406 408 459
3 459 408 461
3 462 463 464
3 462 460 463
3 462 409 460
3 409 407 460
3 465 410 466
3 465 461 410
3 461 408 410
3 465 466 467
3 468 469 470
3 464 469 468
3 462 464 468
3 462 468 412
3 462 412 411
3 409 462 411
3 410 413 466
3 466 413 415
3 466 415 467
3 467 415 471
3 472 473 474
3 472 475 476
3 473 472 476
3 470 476 475
3 468 470 475
3 468 475 417
3 468 417 416
3 412 468 416
3 415 477 471
3 418 477 415
3 419 478 418
3 418 478 477
3 420 479 419
3 419 479 478
3 474 421 472
3 474 479 421
3 479 420 421
3 422 472 421
3 475 472 422
3 417 475 422
3 480 481 482
3 480 483 484
3 482 483 480
3 483 485 484
3 425 486 487
3 424 486 425
3 481 480 426
3 481 426 487
3 487 426 425
3 427 426 480
3 484 427 480
3 484 428 427
3 484 485 428
3 485 488 428
3 489 490 491
3 489 491 486
3 489 486 430
3 430 486 424
3 428 488 492
3 431 428 492
3 492 432 431
3 493 432 492
3 494 495 496
3 490 494 496
3 489 494 490
3 489 434 494
3 489 435 434
3 430 435 489
3 432 493 436
3 493 497 436
3 498 495 494
3 499 495 498
3 434 438 498
3 494 434 498
3 436 497 500
3 439 436 500
3 500 441 439
3 501 441 500
3 444 499 498
3 444 443 499
3 443 502 499
3 438 444 498
3 441 501 445
3 501 503 445
3 504 505 506
3 504 506 502
3 504 502 446
3 446 502 443
3 445 503 447
3 503 507 447
3 508 505 504
3 509 505 508
3 446 448 508
3 504 446 508
3 447 507 449
3 507 510 449
3 511 512 513
3 509 511 513
3 508 511 509
3 508 450 511
3 508 451 450
3 448 451 508
3 449 510 452
3 510 514 452
3 454 512 511
3 454 453 512
3 453 515 512
3 450 454 511
3 455 516 517
3 456 455 517
3 514 455 452
3 516 455 514
3 453 457 515
3 515 457 518
3 456 517 458
3 517 519 458
3 457 459 518
3 518 459 520
3 521 522 523
3 521 519 522
3 521 460 519
3 460 458 519
3 459 461 520
3 520 461 524
3 525 526 527
3 525 528 529
3 526 525 529
3 528 530 531
3 529 528 531
3 523 531 530
3 521 523 530
3 521 530 464
3 521 464 463
3 460 521 463
3 461 532 524
3 465 532 461
3 532 465 467
3 533 532 467
3 534 525 527
3 535 534 527
3 528 525 536
3 536 525 534
3 469 536 470
3 469 530 536
3 530 528 536
3 464 530 469
3 537 471 538
3 537 533 471
3 533 467 471
3 538 539 540
3 537 538 540
3 539 541 542
3 540 539 542
3 535 542 541
3 534 535 541
3 534 541 474
3 534 474 473
3 476 534 473
3 536 534 476
3 470 536 476
3 471 477 538
3 478 538 477
3 539 538 478
3 479 539 478
3 541 539 479
3 474 541 479
3 543 544 545
3 543 546 547
3 545 546 543
3 547 548 549
3 546 548 547
3 548 550 549
3 551 544 543
3 552 544 551
3 482 481 551
3 482 551 547
3 547 551 543
3 483 482 547
3 549 483 547
3 549 485 483
3 549 550 485
3 550 553 485
3 554 555 556
3 552 554 556
3 551 554 552
3 551 486 554
3 551 487 486
3 481 487 551
3 485 553 488
3 553 557 488
3 558 559 560
3 555 558 560
3 554 558 555
3 554 490 558
3 554 491 490
3 486 491 554
3 488 557 561
3 492 488 561
3 561 493 492
3 562 493 561
3 496 559 558
3 496 495 559
3 495 563 559
3 490 496 558
3 493 562 497
3 562 564 497
3 565 566 567
3 565 567 563
3 565 563 499
3 499 563 495
3 568 500 497
3 568 497 569
3 569 497 564
3 500 568 501
3 570 566 565
3 571 566 570
3 499 502 570
3 565 499 570
3 568 569 572
3 572 501 568
3 572 573 501
3 573 503 501
3 506 571 570
3 506 505 571
3 505 574 571
3 502 506 570
3 503 573 507
3 573 575 507
3 576 577 578
3 576 578 574
3 576 574 509
3 509 574 505
3 507 575 510
3 575 579 510
3 513 577 576
3 513 512 577
3 512 580 577
3 509 513 576
3 581 582 583
3 581 579 582
3 581 514 579
3 514 510 579
3 512 515 580
3 580 515 584
3 516 581 583
3 516 583 517
3 517 583 585
3 514 581 516
3 515 518 584
3 584 518 586
3 517 585 519
3 585 587 519
3 588 520 589
3 588 586 520
3 586 518 520
3 588 589 590
3 591 592 593
3 591 523 522
3 591 522 592
3 592 522 594
3 587 522 519
3 594 522 587
3 589 524 595
3 520 524 589
3 596 590 589
3 595 596 589
3 526 597 598
3 527 526 598
3 529 599 526
3 526 599 597
3 593 531 591
3 593 599 531
3 599 529 531
3 523 591 531
3 524 532 595
3 533 600 601
3 532 533 601
3 532 601 596
3 532 596 595
3 600 602 603
3 601 600 603
3 602 604 605
3 603 602 605
3 604 598 605
3 604 535 598
3 535 527 598
3 533 537 600
3 540 600 537
3 602 600 540
3 542 602 540
3 604 602 542
3 535 604 542
3 606 607 608
3 606 609 610
3 608 609 606
3 610 545 544
3 610 609 545
3 609 611 545
3 546 545 612
3 545 611 612
3 548 546 613
3 546 612 613
3 613 550 548
3 614 550 613
3 615 607 606
3 616 607 615
3 610 617 606
3 617 615 606
3 544 552 617
3 610 544 617
3 550 614 553
3 614 618 553
3 619 616 615
3 620 616 619
3 556 555 619
3 556 619 617
3 617 619 615
3 552 556 617
3 553 618 557
3 618 621 557
3 622 623 624
3 620 622 624
3 619 622 620
3 619 559 622
3 619 560 559
3 555 560 619
3 625 561 557
3 625 557 626
3 626 557 621
3 561 625 562
3 627 623 622
3 628 623 627
3 559 563 627
3 622 559 627
3 625 626 629
3 629 562 625
3 629 630 562
3 630 564 562
3 567 628 627
3 567 566 628
3 566 631 628
3 563 567 627
3 564 630 569
3 630 632 569
3 566 571 631
3 631 571 633
3 634 572 569
3 634 569 635
3 635 569 632
3 572 634 573
3 571 574 633
3 633 574 636
3 637 634 635
3 638 637 635
3 573 637 575
3 634 637 573
3 578 639 640
3 577 639 578
3 636 574 578
3 640 636 578
3 641 642 643
3 638 642 641
3 638 641 637
3 637 641 644
3 575 644 579
3 637 644 575
3 577 580 639
3 639 580 645
3 646 641 643
3 647 646 643
3 582 646 583
3 582 644 646
3 644 641 646
3 579 644 582
3 580 584 645
3 645 584 648
3 649 646 647
3 650 649 647
3 583 649 585
3 646 649 583
3 584 586 648
3 648 586 651
3 652 653 654
3 650 653 652
3 650 652 649
3 649 652 655
3 585 655 587
3 649 655 585
3 586 656 651
3 588 656 586
3 590 657 658
3 590 658 588
3 588 658 656
3 658 657 659
3 660 661 662
3 654 661 660
3 652 654 660
3 652 660 593
3 652 593 592
3 594 652 592
3 655 652 594
3 587 655 594
3 657 596 663
3 590 596 657
3 664 659 657
3 664 657 665
3 665 657 663
3 665 666 667
3 664 665 667
3 666 598 597
3 666 597 667
3 667 597 668
3 662 599 660
3 662 668 599
3 668 597 599
3 593 660 599
3 596 601 663
3 603 663 601
3 665 663 603
3 605 665 603
3 666 665 605
3 598 666 605
3 669 670 671
3 669 672 673
3 671 672 669
3 673 674 675
3 672 674 673
3 674 676 675
3 677 678 679
3 670 677 679
3 670 669 677
3 669 680 677
3 673 681 669
3 681 680 669
3 675 682 673
3 682 681 673
3 683 675 676
3 682 675 683
3 608 678 677
3 608 607 678
3 607 684 678
3 609 608 677
3 680 609 677
3 611 609 680
3 681 611 680
3 612 611 681
3 682 612 681
3 682 683 685
3 682 685 612
3 612 685 613
3 685 614 613
3 686 614 685
3 607 616 684
3 684 616 687
3 614 686 618
3 686 688 618
3 689 690 691
3 689 691 687
3 689 687 620
3 620 687 616
3 618 688 621
3 688 692 621
3 624 690 689
3 624 623 690
3 623 693 690
3 620 624 689
3 621 692 626
3 692 694 626
3 623 628 693
3 693 628 695
3 626 694 696
3 629 626 696
3 696 630 629
3 697 630 696
3 628 631 695
3 695 631 698
3 630 697 632
3 697 699 632
3 631 633 698
3 698 633 700
3 632 699 635
3 699 701 635
3 633 636 700
3 700 636 702
3 635 701 638
3 701 703 638
3 640 639 704
3 640 704 705
3 640 705 636
3 636 705 702
3 642 706 707
3 643 642 707
3 703 642 638
3 706 642 703
3 704 645 708
3 639 645 704
3 709 705 704
3 708 709 704
3 643 707 647
3 707 710 647
3 708 648 711
3 645 648 708
3 712 709 708
3 711 712 708
3 713 714 715
3 713 710 714
3 713 650 710
3 650 647 710
3 711 651 716
3 648 651 711
3 717 712 711
3 716 717 711
3 718 719 720
3 718 721 722
3 719 718 722
3 715 722 721
3 713 715 721
3 713 721 654
3 713 654 653
3 650 713 653
3 651 656 716
3 716 723 717
3 716 656 723
3 656 658 723
3 659 724 725
3 659 725 658
3 658 725 723
3 724 726 727
3 725 724 727
3 720 727 726
3 720 726 718
3 718 726 728
3 661 728 662
3 661 721 728
3 721 718 728
3 654 721 661
3 659 664 724
3 667 724 664
3 726 724 667
3 668 726 667
3 728 726 668
3 662 728 668
3 729 730 731
3 729 732 733
3 731 732 729
3 732 734 733
3 735 730 729
3 736 730 735
3 733 737 729
3 737 735 729
3 738 733 734
3 737 733 738
3 735 739 736
3 737 739 735
3 740 739 737
3 738 740 737
3 741 742 743
3 741 744 745
3 743 744 741
3 745 746 747
3 744 746 745
3 746 748 747
3 749 742 741
3 750 742 749
3 671 670 749
3 671 749 745
3 745 749 741
3 672 671 745
3 747 672 745
3 747 748 751
3 747 751 672
3 672 751 674
3 751 676 674
3 752 676 751
3 679 750 749
3 679 678 750
3 678 753 750
3 670 679 749
3 676 752 683
3 752 754 683
3 755 756 757
3 755 757 753
3 755 753 684
3 684 753 678
3 683 754 758
3 685 683 758
3 758 686 685
3 759 686 758
3 760 756 755
3 761 756 760
3 684 687 760
3 755 684 760
3 686 759 688
3 759 762 688
3 691 761 760
3 691 690 761
3 690 763 761
3 687 691 760
3 688 762 692
3 762 764 692
3 690 693 763
3 763 693 765
3 692 764 694
3 764 766 694
3 693 695 765
3 765 695 767
3 768 696 694
3 768 694 769
3 769 694 766
3 696 768 697
3 695 698 767
3 767 698 770
3 771 768 769
3 772 771 769
3 697 771 699
3 768 771 697
3 698 700 770
3 770 700 773
3 774 771 772
3 775 774 772
3 699 774 701
3 771 774 699
3 700 702 773
3 773 702 776
3 777 774 775
3 778 777 775
3 701 777 703
3 774 777 701
3 702 705 776
3 776 705 779
3 780 781 782
3 778 781 780
3 777 778 780
3 777 780 707
3 777 707 706
3 703 777 706
3 705 709 779
3 779 709 783
3 784 785 786
3 784 787 788
3 785 784 788
3 782 788 787
3 782 787 780
3 780 787 789
3 707 789 710
3 780 789 707
3 790 712 791
3 790 783 712
3 783 709 712
3 791 792 793
3 790 791 793
3 792 794 795
3 793 792 795
3 786 795 794
3 786 794 784
3 784 794 796
3 787 784 797
3 797 784 796
3 714 797 715
3 714 789 797
3 789 787 797
3 710 789 714
3 791 717 798
3 712 717 791
3 792 791 799
3 799 791 798
3 794 792 800
3 800 792 799
3 719 800 720
3 719 796 800
3 796 794 800
3 722 796 719
3 797 796 722
3 715 797 722
3 717 723 798
3 725 798 723
3 799 798 725
3 727 799 725
3 800 799 727
3 720 800 727
3 801 802 803
3 801 804 805
3 803 804 801
3 804 806 805
3 807 802 801
3 808 802 807
3 731 730 807
3 731 807 805
3 805 807 801
3 805 806 809
3 805 809 731
3 731 809 732
3 809 734 732
3 810 734 809
3 811 808 807
3 812 808 811
3 730 736 811
3 807 730 811
3 734 810 738
3 810 813 738
3 814 812 811
3 815 812 814
3 736 739 816
3 736 816 811
3 811 816 814
3 739 740 817
3 816 739 817
3 740 818 817
3 740 738 818
3 738 813 818
3 819 815 814
3 820 815 819
3 816 821 814
3 821 819 814
3 817 822 816
3 822 821 816
3 823 817 818
3 823 824 817
3 824 822 817
3 823 825 824
3 826 820 819
3 827 820 826
3 821 828 819
3 828 826 819
3 822 829 821
3 829 828 821
3 824 830 822
3 830 829 822
3 831 824 825
3 830 824 831
3 826 832 827
3 832 833 834
3 832 826 833
3 826 828 833
3 829 835 828
3 835 833 828
3 830 836 829
3 836 835 829
3 837 830 831
3 836 830 837
3 838 834 833
3 839 834 838
3 835 840 833
3 840 838 833
3 836 841 835
3 841 840 835
3 842 836 837
3 841 836 842
3 838 843 839
3 843 844 845
3 843 838 844
3 838 840 844
3 841 846 840
3 846 844 840
3 847 841 842
3 847 848 841
3 848 846 841
3 847 849 848
3 743 845 844
3 743 742 845
3 742 850 845
3 744 743 844
3 846 744 844
3 746 744 846
3 848 746 846
3 848 748 746
3 848 849 748
3 849 851 748
3 852 853 854
3 852 854 850
3 852 850 750
3 750 850 742
3 748 851 855
3 751 748 855
3 855 752 751
3 856 752 855
3 857 853 852
3 858 853 857
3 750 753 857
3 852 750 857
3 752 856 754
3 856 859 754
3 757 858 857
3 757 756 858
3 756 860 858
3 753 757 857
3 861 758 754
3 861 754 862
3 862 754 859
3 758 861 759
3 756 761 860
3 860 761 863
3 861 862 864
3 864 759 861
3 864 865 759
3 865 762 759
3 761 763 863
3 863 763 866
3 762 865 764
3 865 867 764
3 763 765 866
3 866 765 868
3 869 870 871
3 869 867 870
3 869 766 867
3 766 764 867
3 765 767 868
3 868 767 872
3 873 869 871
3 874 873 871
3 766 873 769
3 869 873 766
3 767 770 872
3 872 770 875
3 876 873 874
3 877 876 874
3 769 876 772
3 873 876 769
3 770 773 875
3 875 773 878
3 879 880 881
3 877 880 879
3 877 879 876
3 876 879 882
3 772 882 775
3 876 882 772
3 773 776 878
3 878 776 883
3 884 879 881
3 885 884 881
3 882 879 886
3 886 879 884
3 775 886 778
3 882 886 775
3 776 779 883
3 883 779 887
3 888 884 885
3 889 888 885
3 781 888 782
3 781 886 888
3 886 884 888
3 778 886 781
3 890 783 891
3 890 887 783
3 887 779 783
3 891 892 893
3 890 891 893
3 892 894 895
3 893 892 895
3 894 786 785
3 894 785 895
3 895 785 896
3 889 788 888
3 889 896 788
3 896 785 788
3 782 888 788
3 783 790 891
3 793 891 790
3 892 891 793
3 795 892 793
3 894 892 795
3 786 894 795
3 803 897 898
3 802 897 803
3 804 803 899
3 803 898 899
3 899 806 804
3 900 806 899
3 802 808 897
3 897 808 901
3 806 900 902
3 809 806 902
3 902 810 809
3 903 810 902
3 808 812 901
3 901 812 904
3 810 903 813
3 903 905 813
3 812 815 904
3 904 815 906
3 813 905 818
3 905 907 818
3 815 820 906
3 906 820 908
3 818 907 909
3 823 818 909
3 909 825 823
3 910 825 909
3 820 827 908
3 908 827 911
3 825 910 831
3 910 912 831
3 913 827 832
3 913 914 827
3 914 911 827
3 832 834 913
3 831 912 837
3 912 915 837
3 913 916 914
3 916 913 834
3 916 834 917
3 917 834 839
3 837 915 842
3 915 918 842
3 839 919 917
3 843 919 839
3 919 843 845
3 920 919 845
3 842 918 921
3 847 842 921
3 921 849 847
3 922 849 921
3 845 850 920
3 920 850 923
3 849 922 851
3 922 924 851
3 854 925 926
3 853 925 854
3 923 850 854
3 926 923 854
3 851 924 927
3 855 851 927
3 927 856 855
3 928 856 927
3 853 858 925
3 925 858 929
3 856 928 859
3 928 930 859
3 858 860 929
3 929 860 931
3 859 930 862
3 930 932 862
3 860 863 931
3 931 863 933
3 934 864 862
3 934 862 935
3 935 862 932
3 864 934 865
3 863 866 933
3 933 866 936
3 937 934 935
3 938 937 935
3 865 937 867
3 934 937 865
3 866 868 936
3 936 868 939
3 870 937 938
3 870 938 871
3 871 938 940
3 867 937 870
3 868 872 939
3 939 872 941
3 942 943 944
3 942 940 943
3 942 874 940
3 874 871 940
3 945 875 946
3 945 941 875
3 941 872 875
3 946 947 948
3 945 946 948
3 947 949 950
3 948 947 950
3 949 951 952
3 950 949 952
3 944 952 951
3 944 951 942
3 942 951 953
3 874 953 877
3 942 953 874
3 946 878 954
3 875 878 946
3 947 946 955
3 955 946 954
3 949 947 956
3 956 947 955
3 951 949 957
3 957 949 956
3 880 957 881
3 880 953 957
3 953 951 957
3 877 953 880
3 954 883 958
3 878 883 954
3 955 954 959
3 959 954 958
3 956 955 960
3 960 955 959
3 957 956 961
3 961 956 960
3 881 961 885
3 957 961 881
3 958 887 962
3 883 887 958
3 959 958 963
3 963 958 962
3 960 959 964
3 964 959 963
3 961 960 965
3 965 960 964
3 885 965 889
3 961 965 885
3 887 890 962
3 893 962 890
3 963 962 893
3 895 963 893
3 964 963 895
3 896 964 895
3 965 964 896
3 889 965 896
3 898 897 966
3 898 967 899
3 966 967 898
3 899 967 900
3 966 901 968
3 897 901 966
3 967 966 969
3 969 966 968
3 900 970 902
3 900 967 970
3 967 969 970
3 902 970 903
3 968 971 972
3 968 901 971
3 901 904 971
3 969 968 972
3 973 969 972
3 970 969 973
3 974 970 973
3 974 903 970
3 974 975 903
3 975 905 903
3 904 906 971
3 971 906 976
3 905 975 907
3 975 977 907
3 906 908 976
3 976 908 978
3 907 977 979
3 909 907 979
3 979 910 909
3 980 910 979
3 908 911 978
3 978 911 981
3 910 980 912
3 980 982 912
3 911 914 981
3 981 914 983
3 912 982 915
3 982 984 915
3 914 985 983
3 916 985 914
3 985 916 917
3 986 985 917
3 915 984 918
3 984 987 918
3 917 988 986
3 919 988 917
3 920 989 990
3 920 990 919
3 919 990 988
3 989 991 992
3 990 989 992
3 921 991 993
3 921 987 991
3 921 918 987
3 992 991 987
3 921 993 922
3 989 923 994
3 920 923 989
3 991 989 995
3 995 989 994
3 993 991 996
3 996 991 995
3 922 996 924
3 993 996 922
3 926 997 998
3 925 997 926
3 994 923 926
3 994 926 999
3 999 926 998
3 995 994 999
3 1000 995 999
3 1000 1001 1002
3 1000 1002 995
3 995 1002 996
3 924 1003 927
3 924 996 1003
3 996 1002 1003
3 927 1003 928
3 925 929 997
3 997 929 1004
3 1005 1002 1001
3 1006 1005 1001
3 1003 1002 1007
3 1007 1002 1005
3 928 1007 930
3 1003 1007 928
3 929 931 1004
3 1004 931 1008
3 1009 1005 1006
3 1010 1009 1006
3 1007 1005 1011
3 1011 1005 1009
3 930 1011 932
3 1007 1011 930
3 931 933 1008
3 1008 933 1012
3 1013 1009 1010
3 1014 1013 1010
3 1011 1009 1015
3 1015 1009 1013
3 932 1015 935
3 1011 1015 932
3 933 936 1012
3 1012 936 1016
3 1017 1013 1014
3 1018 1017 1014
3 1015 1013 1019
3 1019 1013 1017
3 935 1019 938
3 1015 1019 935
3 1020 939 1021
3 1020 1016 939
3 1016 936 939
3 1021 1022 1023
3 1020 1021 1023
3 1022 1024 1025
3 1023 1022 1025
3 1018 1025 1024
3 1018 1024 1017
3 1017 1024 1026
3 1019 1017 1027
3 1027 1017 1026
3 938 1027 940
3 1019 1027 938
3 1021 941 1028
3 939 941 1021
3 1022 1021 1029
3 1029 1021 1028
3 1024 1022 1030
3 1030 1022 1029
3 1026 1024 1031
3 1031 1024 1030
3 943 1031 944
3 943 1027 1031
3 1027 1026 1031
3 940 1027 943
3 941 945 1028
3 948 1028 945
3 1029 1028 948
3 950 1029 948
3 1030 1029 950
3 952 1030 950
3 1031 1030 952
3 944 1031 952
3 972 971 1032
3 972 1033 973
3 1032 1033 972
3 973 1034 974
3 1033 1034 973
3 974 1034 975
3 1032 976 1035
3 971 976 1032
3 1033 1032 1036
3 1036 1032 1035
3 1034 1033 1037
3 1037 1033 1036
3 975 1037 977
3 1034 1037 975
3 1035 978 1038
3 976 978 1035
3 1036 1035 1039
3 1039 1035 1038
3 1037 1036 1040
3 1040 1036 1039
3 977 1041 979
3 977 1037 1041
3 1037 1040 1041
3 979 1041 980
3 1038 981 1042
3 978 981 1038
3 1039 1038 1043
3 1043 1038 1042
3 1040 1039 1044
3 1044 1039 1043
3 1041 1040 1045
3 1045 1040 1044
3 980 1045 982
3 1041 1045 980
3 1042 983 1046
3 981 983 1042
3 1043 1042 1047
3 1047 1042 1046
3 1044 1043 1048
3 1048 1043 1047
3 1045 1044 1049
3 1049 1044 1048
3 982 1049 984
3 1045 1049 982
3 983 985 1046
3 986 1046 985
3 986 1050 1046
3 1050 1047 1046
3 1048 1047 1051
3 1051 1047 1050
3 1049 1048 1052
3 1052 1048 1051
3 984 1052 987
3 1049 1052 984
3 986 988 1050
3 990 1050 988
3 1051 1050 990
3 992 1051 990
3 1052 1051 992
3 987 1052 992
3 998 997 1053
3 998 1054 999
3 1053 1054 998
3 999 1055 1000
3 1054 1055 999
3 1000 1055 1001
3 1053 1004 1056
3 997 1004 1053
3 1054 1053 1057
3 1057 1053 1056
3 1055 1054 1058
3 1058 1054 1057
3 1001 1058 1006
3 1055 1058 1001
3 1056 1008 1059
3 1004 1008 1056
3 1057 1056 1060
3 1060 1056 1059
3 1058 1057 1061
3 1061 1057 1060
3 1006 1061 1010
3 1058 1061 1006
3 1059 1012 1062
3 1008 1012 1059
3 1060 1059 1063
3 1063 1059 1062
3 1061 1060 1064
3 1064 1060 1063
3 1010 1064 1014
3 1061 1064 1010
3 1062 1016 1065
3 1012 1016 1062
3 1063 1062 1066
3 1066 1062 1065
3 1064 1063 1067
3 1067 1063 1066
3 1014 1067 1018
3 1064 1067 1014
3 1016 1020 1065
3 1023 1065 1020
3 1066 1065 1023
3 1025 1066 1023
3 1067 1066 1025
3 1018 1067 1025
