# vtk DataFile Version 3.0
this file was written using fslvtkio
ASCII
DATASET POLYDATA
POINTS 642 float
159.182 101.753 141.947
148.008 99.8126 142.486
154.363 101.8 128.816
161.11 106.423 123.644
160.077 95.0569 127.8
156.496 108.944 137.828
149.309 108.228 140.179
152.966 92.3108 128.823
154.272 92.6797 145.322
155.924 100.354 112.995
156.772 112.043 122.309
149.324 107.073 153.713
153.448 90.056 136.803
157.666 92.634 136.755
157.015 90.3524 126.487
154.261 94.5334 119.887
158.563 96.6186 118.5
145.419 111.353 146.957
152.363 109.595 139.971
152.562 109.547 147.316
155.248 109.176 130.484
158.22 112.752 127.516
160.975 100.558 124.14
160.164 98.0061 135.123
161.881 103.74 132.769
160.441 109.226 129.909
158.201 106.383 141.504
150.256 94.6447 136.607
152.248 97.1467 127.307
151.313 100.314 136.113
145.967 105.468 142.872
153.24 105.06 134.766
155.008 103.715 149.865
156.947 97.2431 145.567
151.278 99.1649 153.124
146.52 103.467 149.59
150.331 95.8693 145.031
160.734 112.257 119.564
156.587 108.032 115.369
159.641 104.515 115.328
156.298 106.363 124.697
154.546 101.583 120.125
156.033 90.206 136.864
157.753 90.9932 131.717
155.462 89.3955 131.767
158.845 92.6369 126.97
159.167 93.6082 132.273
156.263 92.1829 141.505
153.814 90.5229 141.598
152.98 90.7432 132.566
154.517 90.3624 127.042
155.366 91.3912 122.145
157.821 93.0371 122.24
156.638 94.1509 117.766
159.325 95.7376 123.083
153.549 92.8763 124.319
155.508 97.3763 116.157
157.794 98.2134 114.166
148.44 111.722 143.982
151.731 110.636 143.868
149.125 111.068 147.82
154.498 109.215 142.824
154.623 109.554 138.802
150.551 109.265 140.322
145.86 110.49 142.939
147.148 109.205 150.678
151.025 108.799 150.91
156.364 111.462 128.796
155.76 109.983 133.802
154.238 109.294 134.807
157.286 109.828 132.732
157.561 114.09 124.575
155.639 111.069 125.958
152.911 108.078 135.879
161.222 99.0714 129.629
161.226 100.792 133.606
161.679 102.031 128.562
160.412 102.635 137.371
159.83 99.7303 138.852
160.365 96.2654 131.729
160.534 97.6608 125.795
161.261 103.496 123.639
161.71 105.188 128.139
161.389 106.666 132.029
160.573 105.315 136.925
159.969 107.665 136.091
158.855 104.19 142.082
161.216 108.185 126.533
158.62 109.003 134.155
157.325 108.003 140.017
150.964 95.7068 131.865
151.676 98.4725 131.635
150.107 97.5351 135.556
153.005 100.923 132.663
153.265 99.6704 127.863
152.351 94.534 127.702
151.468 93.1264 132.795
149.292 97.0422 139.663
149.163 100.023 139.247
149.132 102.86 139.896
152.045 102.998 136.413
149.484 105.07 139.331
154.22 103.429 131.795
146.818 102.665 143.013
146.833 107.448 141.652
151.392 106.551 137.73
155.911 100.339 148.729
154.482 97.9944 150.474
153.355 101.7 152.994
152.914 95.4112 149.501
155.517 94.8657 146.184
158.266 99.5594 144.098
157.571 102.539 146.137
152.429 105.448 152.734
149.834 103.295 154.975
148.87 101.571 151.95
150.691 97.5931 149.367
148.694 99.8185 148.132
152.034 93.7617 145.545
147.136 105.508 152.34
146.997 101.553 146.09
148.9 97.9998 144.016
159.017 111.604 115.667
158.588 107.057 112.388
160.323 108.551 116.991
158.102 102.305 112.138
155.913 104.262 113.329
157.105 110.579 118.913
158.907 113.875 120.311
160.686 108.987 121.326
160.714 105.551 119.447
155.675 104.324 121.873
155.656 104.627 117.234
156.344 107.31 119.688
155.412 101.05 116.588
154.428 101.69 124.41
155.508 103.819 126.719
156.352 109.19 123.147
158.863 95.2834 136.717
157.508 94.7047 141.657
158.712 97.2982 140.574
156.878 105.367 146.304
154.008 106.912 149.087
155.576 107.724 144.965
159.323 100.552 116.092
160.086 98.8625 120.694
160.519 102.302 119.316
160.704 111.113 124.274
159.234 110.993 128.358
160.478 114.39 123.671
151.652 92.2056 141.354
151.538 92.1198 136.878
149.986 94.7564 140.981
145.491 104.83 146.181
144.103 108.436 144.773
145.133 107.572 148.836
153.444 99.0347 123.394
153.194 95.9426 123.261
154.407 98.13 119.589
155.93 108.12 127.583
154.274 107.076 132.783
155.327 105.574 129.745
157.007 90.3901 134.261
156.795 89.8838 131.728
155.835 89.475 134.297
156.356 89.7702 129.214
157.446 90.6037 129.17
157.806 91.6572 134.184
157.003 91.3224 136.649
154.791 89.6633 136.749
154.431 89.5314 134.264
158.325 91.7195 129.375
158.528 92.2613 131.978
159.09 92.9607 129.659
158.42 93.0015 134.467
158.036 91.4063 126.746
159.527 93.8889 127.333
159.73 94.239 129.943
156.208 91.1433 139.102
155.04 90.1763 139.272
155.273 91.0297 141.358
153.601 90.1593 139.233
157.025 92.3515 139.142
155.328 92.1505 143.583
154.129 91.3258 143.506
154.209 89.9414 132.01
155.081 89.919 129.356
153.978 90.5972 129.934
155.751 89.9139 126.64
153.223 90.289 134.535
152.975 91.4761 130.518
153.599 91.2477 127.95
156.819 91.7804 121.998
157.308 93.3666 119.888
155.9 92.2586 119.746
157.702 95.2776 117.983
158.224 94.6456 120.242
157.502 91.4834 124.301
156.261 90.535 124.156
154.549 92.7369 120.747
155.137 93.9031 118.454
158.691 94.4425 122.477
158.481 92.7632 124.5
159.275 94.0156 124.852
159.008 96.0508 120.694
159.828 95.285 125.426
154.92 90.5727 124.599
154.261 91.9616 123.121
153.832 91.4361 125.577
153.789 93.524 122.042
153.128 92.3889 126.601
155.89 95.4295 116.34
157.388 96.1188 115.912
156.457 97.2382 114.567
158.336 97.3516 116.314
154.87 95.8225 117.915
155.787 98.8843 114.548
156.745 98.9913 112.711
150.246 111.358 143.957
150.507 111.129 145.919
148.665 111.744 145.859
150.924 110.447 147.733
152.07 110.303 145.672
151.73 110.479 141.932
150.229 110.758 142.239
146.738 112.123 145.498
147.262 111.455 147.456
153.138 109.985 143.56
153.105 110.174 141.639
154.368 109.687 141.119
153.473 109.573 139.532
153.604 109.454 145.235
155.551 108.935 140.234
155.657 109.235 138.174
149.005 110.713 142.159
146.938 111.54 143.488
148.012 110.142 141.966
145.168 111.418 144.81
151.358 109.584 140.205
149.818 108.757 140.368
147.701 109.102 141.675
148.072 110.452 149.374
150.09 110.216 149.577
149.08 109.417 151.024
151.784 109.307 149.232
146.313 110.415 148.926
148.251 108.228 152.338
150.22 108.167 152.494
156.54 110.377 130.915
154.924 109.762 134.494
155.652 109.867 131.593
153.227 109.457 137.555
154.067 109.688 137.224
157.109 110.94 130.293
157.189 112.378 128.225
155.663 110.356 129.511
154.818 109.245 132.344
154.958 109.795 136.705
156.475 109.889 133.175
156 109.512 135.878
157.685 110.802 129.95
156.877 109.335 135.405
156.752 113.245 126.686
155.932 111.734 127.304
156.317 112.708 125.294
155.59 110.2 128.029
157.98 114.137 126.217
157.008 113.281 123.259
156.021 111.785 124.081
153.561 108.724 135.431
152.503 109.148 137.898
151.885 108.573 138.189
154.209 108.464 133.237
151.348 107.948 138.468
161.484 99.8455 131.636
161.668 101.365 131.107
161.474 100.542 129.023
161.794 102.878 130.699
161.697 102.201 133.101
160.803 99.3389 134.111
161.018 98.4404 132.285
161.194 99.7824 126.886
161.396 101.215 126.383
160.994 101.65 135.479
160.506 100.126 136.083
160.229 101.12 137.932
159.967 98.8564 136.977
161.351 103.145 135.096
159.752 102.165 139.743
159.558 100.761 140.459
160.907 97.6203 130.578
160.961 98.3253 127.717
160.773 96.8762 128.718
160.806 99.0973 124.879
160.283 97.1262 133.434
160.35 95.5543 129.826
160.335 96.2922 126.79
161.587 102.694 126.086
161.695 103.576 128.261
161.535 104.228 125.989
161.714 104.429 130.407
161.182 102.009 123.842
161.174 105.02 123.724
161.341 105.83 125.929
161.37 106.001 134.548
160.464 106.595 136.714
160.957 107.282 134.084
159.266 107.03 138.787
159.596 105.921 139.198
161.438 104.582 134.839
161.694 105.187 132.51
160.973 108.003 131.227
160.324 108.342 133.135
159.67 104.755 139.539
160.548 104.016 137.227
159.738 103.503 139.595
158.551 105.332 141.837
159.045 102.958 142.012
161.579 106 130.123
161.363 107.515 129.392
161.506 106.735 127.712
160.95 108.779 128.266
161.257 107.361 125.052
159.297 108.408 135.14
158.735 107.848 138.062
158.208 108.471 137.071
157.805 107.274 140.893
159.645 109.214 132.03
157.525 108.891 135.996
156.815 108.454 138.891
151.17 97.1671 131.595
150.887 98.0694 133.633
150.32 96.658 133.654
150.768 98.9369 135.605
151.498 99.3578 133.812
151.954 97.7236 129.529
151.646 96.3721 129.669
150.445 95.2005 134.141
149.91 96.0759 135.879
152.381 99.7225 132.064
152.523 98.9804 129.777
153.174 100.179 130.275
152.614 98.4676 127.453
152.149 100.619 134.375
153.809 101.358 130.839
153.846 100.809 128.428
151.667 95.0697 129.793
151.084 94.4219 132.281
151.837 93.7977 130.346
150.796 93.8874 134.677
152.233 95.8523 127.394
152.595 93.3504 128.179
152.195 92.5594 130.804
149.449 97.1559 137.514
149.831 98.6492 137.381
149.21 98.4695 139.217
150.202 100.11 137.604
149.613 95.6829 138.149
148.814 98.4706 141.174
148.586 99.8838 141.021
150.818 102.732 138.445
151.18 104.014 138.236
149.279 103.984 139.737
151.445 104.974 137.48
152.498 104.13 135.917
151.61 101.709 136.482
150.39 101.57 138.085
147.564 104.075 141.401
147.608 105.23 141.022
153.153 103.183 134.303
152.574 101.971 134.557
153.504 102.273 132.631
153.716 104.266 133.309
154.626 102.458 130.321
149.293 101.427 139.527
147.923 102.791 141.468
148.225 101.336 141.226
146.22 104.036 143.075
147.475 101.219 142.768
148.116 106.175 140.52
150.216 105.911 138.644
149.015 106.95 139.898
152.334 105.81 136.285
146.124 106.603 142.294
148.06 107.977 141.008
150.333 107.387 139.076
155.186 99.2256 149.673
153.894 99.7608 151.965
154.651 100.987 150.908
152.406 100.412 153.647
153.079 98.3624 152.381
155.761 97.5828 148.184
156.437 98.6964 147.399
155.431 102.076 149.599
154.138 102.762 151.57
153.595 96.767 150.25
155.058 96.2986 148.508
154.443 94.9693 148.269
156.167 96.1873 146.263
152.083 97.3384 151.533
153.599 93.9576 147.47
154.985 93.5966 145.926
157.138 99.8653 146.536
156.702 101.438 147.602
157.945 100.963 145.417
156.381 103.069 148.105
157.569 98.4466 144.973
158.882 100.641 143.055
158.515 102.112 144.055
152.821 103.594 153.148
151.775 102.524 154.335
151.29 104.618 154.422
150.554 101.187 154.284
153.68 104.487 151.448
150.971 106.51 153.576
149.409 105.392 154.752
149.717 99.539 150.893
149.731 98.8035 148.844
148.706 100.64 150.053
149.635 97.9362 146.874
150.514 96.8895 147.263
150.89 98.3372 151.297
149.915 100.298 152.75
147.713 102.468 150.892
147.682 101.686 149.132
151.422 95.8324 147.57
151.807 96.5792 149.613
152.369 94.6386 147.618
151.149 94.8758 145.407
153.068 92.8069 145.604
148.985 102.235 153.748
147.787 103.428 152.457
148.148 104.298 154.166
146.666 104.45 151.042
147.953 106.44 153.469
147.782 100.767 147.261
148.809 98.9248 146.119
148.092 99.8804 145.239
149.684 97.0771 144.677
146.652 102.449 147.931
147.407 100.598 144.23
148.343 98.9641 143.274
158.991 109.633 113.734
159.751 108.097 114.602
160.2 110.266 115.98
159.894 106.585 115.899
159.314 105.907 113.641
157.282 108.027 113.296
157.646 109.898 115.121
160.515 112.346 117.2
160.637 110.554 118.229
158.335 104.726 111.951
156.769 106.055 111.648
156.627 103.488 110.93
156.266 106.235 113.897
159.03 103.594 113.546
156.73 100.946 111.635
155.767 102.168 112.808
157.759 111.326 117.086
159.088 112.914 117.815
157.917 112.392 119.279
160.29 113.813 119.348
156.984 109.557 116.942
156.942 111.407 120.699
157.625 113.084 121.286
160.547 108.758 119.085
160.499 106.899 117.917
160.809 107.256 120.291
160.256 105.146 117.258
160.691 110.517 120.451
160.956 107.629 122.466
161.116 105.942 121.612
155.598 104.501 119.535
155.948 106.114 118.194
156.018 105.773 120.752
156.348 107.816 117.381
155.932 106.338 115.939
155.189 103.134 118.723
155.075 103.069 120.801
156.033 105.46 123.147
156.379 106.836 122.084
155.796 104.565 115.276
155.459 102.869 116.826
155.583 102.655 114.751
154.965 101.318 118.33
155.593 100.693 114.8
155.072 102.962 123.04
155.622 104.111 124.225
155.142 102.817 125.375
155.89 105.05 125.658
154.451 101.699 122.17
154.565 101.587 126.678
154.99 102.675 127.825
156.531 108.379 121.34
156.612 108.96 118.943
156.724 109.909 120.926
156.398 107.748 123.654
156.406 110.656 122.798
158.189 94.8968 139.132
158.135 95.9639 141.21
158.782 96.3021 138.652
157.94 97.1536 143.121
157.194 95.9341 143.717
157.592 93.6268 139.299
158.256 93.9147 136.832
159.481 96.691 136.155
159.4 97.5852 137.934
156.587 94.7298 144.108
156.93 93.4189 141.74
155.984 93.4023 143.962
158.946 94.4407 134.599
159.654 95.7988 134.349
159.687 94.9557 132.266
159.261 98.4964 139.845
158.557 98.3417 142.553
159.215 99.4863 141.561
155.479 106.058 147.885
154.872 107.404 147.229
156.219 106.596 145.785
154.187 108.59 146.345
153.398 108.417 148.36
154.5 105.311 149.66
155.902 104.552 148.15
157.499 105.976 144.069
156.907 107.009 143.399
152.651 107.887 150.112
153.298 106.197 150.969
151.888 107.228 151.913
157.234 104.013 146.453
157.983 104.818 144.317
158.289 103.484 144.346
156.407 107.79 142.424
155.096 108.61 143.965
155.945 108.522 141.403
159.875 99.6187 118.336
160.35 100.592 120.021
160.045 101.498 117.557
160.807 101.395 121.696
160.559 99.7846 122.352
159.449 97.8098 119.39
159.123 98.5825 117.087
159.522 102.51 115.407
160.17 103.357 117.124
160.318 98.2773 123.174
159.664 97.3101 121.703
160.077 96.798 124.202
158.703 99.3636 114.929
158.744 101.451 113.955
157.945 100.168 112.884
160.621 103.924 119.183
160.965 102.898 121.466
161.047 104.48 121.448
160.098 111.357 126.248
159.993 112.8 125.842
160.74 112.781 123.694
159.417 113.847 125.928
158.592 111.687 127.646
159.692 110.073 129.347
160.556 110.167 127.196
160.801 111.966 121.778
160.837 113.729 121.421
158.3 110.291 130.203
158.896 109.679 131.128
157.883 109.37 133.188
161.012 109.56 125.522
160.703 110.195 122.781
161.059 108.668 123.916
159.819 114.872 121.938
159.014 114.799 124.384
158.184 114.25 122.623
151.603 92.0359 139.112
150.626 93.2204 139.036
150.734 93.4065 141.167
150.079 94.5224 138.84
150.727 93.3644 136.882
152.451 91.0171 136.797
152.556 90.9518 139.157
150.95 93.8809 143.238
150.182 95.1401 143.01
151.329 92.6497 134.816
152.233 91.4373 134.796
152.044 91.8556 132.691
152.591 91.2026 141.509
151.81 92.9491 143.54
152.764 91.8366 143.701
149.495 96.329 142.639
149.511 95.8938 140.411
148.999 97.4141 141.907
144.749 106.676 145.733
144.517 108.224 146.859
145.213 106.165 147.571
144.943 109.666 148.008
144.314 110.109 145.86
144.838 106.788 143.939
145.256 105.301 144.452
145.803 104.159 147.944
145.729 105.448 149.34
144.358 109.902 143.596
144.923 108.082 142.804
146.157 108.859 142.171
145.813 103.668 144.532
146.191 103.157 146.276
146.62 102.049 144.458
146.018 106.384 150.603
145.723 108.648 149.95
146.791 107.545 151.887
153.168 97.5518 123.276
153.66 96.9364 121.343
153.819 98.6235 121.444
154.306 96.342 119.608
153.698 95.1905 121.522
152.682 96.5773 125.153
152.794 98.0161 125.22
154.055 100.224 121.663
154.396 99.863 119.787
153.273 94.3795 123.537
152.643 95.1753 125.356
152.805 93.7291 125.789
153.165 99.3568 125.557
153.925 100.426 123.716
153.82 100.556 126.05
154.921 99.554 118.038
154.884 97.668 117.867
155.446 99.1972 116.298
155.224 107.539 130.093
154.737 106.383 131.262
155.684 106.763 128.641
154.282 105.323 132.27
153.752 106.034 133.946
154.735 108.086 131.607
155.415 108.785 128.983
156.15 107.329 126.133
155.949 105.953 127.118
152.923 106.736 135.289
153.673 107.61 134.327
152.107 107.378 136.914
155.767 109.556 126.756
156.176 108.668 125.272
156.024 110.199 124.694
155.538 104.766 128.175
154.904 104.485 130.876
155.233 103.512 129.329
POLYGONS 1280  5120
3 164 162 163
3 163 44 164
3 162 43 163
3 164 42 162
3 166 165 163
3 163 43 166
3 165 44 163
3 166 14 165
3 168 167 162
3 162 42 168
3 167 43 162
3 168 13 167
3 170 169 164
3 164 44 170
3 169 42 164
3 170 12 169
3 173 171 172
3 172 46 173
3 171 43 172
3 173 45 171
3 167 174 172
3 172 43 167
3 174 46 172
3 167 13 174
3 175 166 171
3 171 45 175
3 166 43 171
3 175 14 166
3 177 176 173
3 173 46 177
3 176 45 173
3 177 4 176
3 180 178 179
3 179 48 180
3 178 42 179
3 180 47 178
3 169 181 179
3 179 42 169
3 181 48 179
3 169 12 181
3 182 168 178
3 178 47 182
3 168 42 178
3 182 13 168
3 184 183 180
3 180 48 184
3 183 47 180
3 184 8 183
3 187 185 186
3 186 50 187
3 185 44 186
3 187 49 185
3 165 188 186
3 186 44 165
3 188 50 186
3 165 14 188
3 189 170 185
3 185 49 189
3 170 44 185
3 189 12 170
3 191 190 187
3 187 50 191
3 190 49 187
3 191 7 190
3 194 192 193
3 193 53 194
3 192 52 193
3 194 51 192
3 196 195 193
3 193 52 196
3 195 53 193
3 196 16 195
3 198 197 192
3 192 51 198
3 197 52 192
3 198 14 197
3 200 199 194
3 194 53 200
3 199 51 194
3 200 15 199
3 203 201 202
3 202 45 203
3 201 52 202
3 203 54 201
3 197 175 202
3 202 52 197
3 175 45 202
3 197 14 175
3 204 196 201
3 201 54 204
3 196 52 201
3 204 16 196
3 176 205 203
3 203 45 176
3 205 54 203
3 176 4 205
3 208 206 207
3 207 55 208
3 206 51 207
3 208 50 206
3 199 209 207
3 207 51 199
3 209 55 207
3 199 15 209
3 188 198 206
3 206 50 188
3 198 51 206
3 188 14 198
3 210 191 208
3 208 55 210
3 191 50 208
3 210 7 191
3 213 211 212
3 212 57 213
3 211 53 212
3 213 56 211
3 195 214 212
3 212 53 195
3 214 57 212
3 195 16 214
3 215 200 211
3 211 56 215
3 200 53 211
3 215 15 200
3 217 216 213
3 213 57 217
3 216 56 213
3 217 9 216
3 220 218 219
3 219 60 220
3 218 59 219
3 220 58 218
3 222 221 219
3 219 59 222
3 221 60 219
3 222 19 221
3 224 223 218
3 218 58 224
3 223 59 218
3 224 18 223
3 226 225 220
3 220 60 226
3 225 58 220
3 226 17 225
3 229 227 228
3 228 62 229
3 227 59 228
3 229 61 227
3 223 230 228
3 228 59 223
3 230 62 228
3 223 18 230
3 231 222 227
3 227 61 231
3 222 59 227
3 231 19 222
3 233 232 229
3 229 62 233
3 232 61 229
3 233 5 232
3 236 234 235
3 235 64 236
3 234 58 235
3 236 63 234
3 225 237 235
3 235 58 225
3 237 64 235
3 225 17 237
3 238 224 234
3 234 63 238
3 224 58 234
3 238 18 224
3 240 239 236
3 236 64 240
3 239 63 236
3 240 6 239
3 243 241 242
3 242 66 243
3 241 60 242
3 243 65 241
3 221 244 242
3 242 60 221
3 244 66 242
3 221 19 244
3 245 226 241
3 241 65 245
3 226 60 241
3 245 17 226
3 247 246 243
3 243 66 247
3 246 65 243
3 247 11 246
3 250 248 249
3 249 69 250
3 248 68 249
3 250 67 248
3 252 251 249
3 249 68 252
3 251 69 249
3 252 18 251
3 254 253 248
3 248 67 254
3 253 68 248
3 254 21 253
3 256 255 250
3 250 69 256
3 255 67 250
3 256 20 255
3 259 257 258
3 258 70 259
3 257 68 258
3 259 62 257
3 253 260 258
3 258 68 253
3 260 70 258
3 253 21 260
3 230 252 257
3 257 62 230
3 252 68 257
3 230 18 252
3 261 233 259
3 259 70 261
3 233 62 259
3 261 5 233
3 264 262 263
3 263 72 264
3 262 67 263
3 264 71 262
3 255 265 263
3 263 67 255
3 265 72 263
3 255 20 265
3 266 254 262
3 262 71 266
3 254 67 262
3 266 21 254
3 268 267 264
3 264 72 268
3 267 71 264
3 268 10 267
3 271 269 270
3 270 63 271
3 269 69 270
3 271 73 269
3 251 238 270
3 270 69 251
3 238 63 270
3 251 18 238
3 272 256 269
3 269 73 272
3 256 69 269
3 272 20 256
3 239 273 271
3 271 63 239
3 273 73 271
3 239 6 273
3 276 274 275
3 275 76 276
3 274 75 275
3 276 74 274
3 278 277 275
3 275 75 278
3 277 76 275
3 278 24 277
3 280 279 274
3 274 74 280
3 279 75 274
3 280 23 279
3 282 281 276
3 276 76 282
3 281 74 276
3 282 22 281
3 285 283 284
3 284 78 285
3 283 75 284
3 285 77 283
3 279 286 284
3 284 75 279
3 286 78 284
3 279 23 286
3 287 278 283
3 283 77 287
3 278 75 283
3 287 24 278
3 289 288 285
3 285 78 289
3 288 77 285
3 289 0 288
3 292 290 291
3 291 80 292
3 290 74 291
3 292 79 290
3 281 293 291
3 291 74 281
3 293 80 291
3 281 22 293
3 294 280 290
3 290 79 294
3 280 74 290
3 294 23 280
3 296 295 292
3 292 80 296
3 295 79 292
3 296 4 295
3 299 297 298
3 298 82 299
3 297 76 298
3 299 81 297
3 277 300 298
3 298 76 277
3 300 82 298
3 277 24 300
3 301 282 297
3 297 81 301
3 282 76 297
3 301 22 282
3 303 302 299
3 299 82 303
3 302 81 299
3 303 3 302
3 306 304 305
3 305 85 306
3 304 84 305
3 306 83 304
3 308 307 305
3 305 84 308
3 307 85 305
3 308 26 307
3 310 309 304
3 304 83 310
3 309 84 304
3 310 24 309
3 312 311 306
3 306 85 312
3 311 83 306
3 312 25 311
3 315 313 314
3 314 77 315
3 313 84 314
3 315 86 313
3 309 287 314
3 314 84 309
3 287 77 314
3 309 24 287
3 316 308 313
3 313 86 316
3 308 84 313
3 316 26 308
3 288 317 315
3 315 77 288
3 317 86 315
3 288 0 317
3 320 318 319
3 319 87 320
3 318 83 319
3 320 82 318
3 311 321 319
3 319 83 311
3 321 87 319
3 311 25 321
3 300 310 318
3 318 82 300
3 310 83 318
3 300 24 310
3 322 303 320
3 320 87 322
3 303 82 320
3 322 3 303
3 325 323 324
3 324 89 325
3 323 85 324
3 325 88 323
3 307 326 324
3 324 85 307
3 326 89 324
3 307 26 326
3 327 312 323
3 323 88 327
3 312 85 323
3 327 25 312
3 329 328 325
3 325 89 329
3 328 88 325
3 329 5 328
3 332 330 331
3 331 92 332
3 330 91 331
3 332 90 330
3 334 333 331
3 331 91 334
3 333 92 331
3 334 29 333
3 336 335 330
3 330 90 336
3 335 91 330
3 336 28 335
3 338 337 332
3 332 92 338
3 337 90 332
3 338 27 337
3 341 339 340
3 340 94 341
3 339 91 340
3 341 93 339
3 335 342 340
3 340 91 335
3 342 94 340
3 335 28 342
3 343 334 339
3 339 93 343
3 334 91 339
3 343 29 334
3 345 344 341
3 341 94 345
3 344 93 341
3 345 2 344
3 348 346 347
3 347 96 348
3 346 90 347
3 348 95 346
3 337 349 347
3 347 90 337
3 349 96 347
3 337 27 349
3 350 336 346
3 346 95 350
3 336 90 346
3 350 28 336
3 352 351 348
3 348 96 352
3 351 95 348
3 352 7 351
3 355 353 354
3 354 98 355
3 353 92 354
3 355 97 353
3 333 356 354
3 354 92 333
3 356 98 354
3 333 29 356
3 357 338 353
3 353 97 357
3 338 92 353
3 357 27 338
3 359 358 355
3 355 98 359
3 358 97 355
3 359 1 358
3 362 360 361
3 361 101 362
3 360 100 361
3 362 99 360
3 364 363 361
3 361 100 364
3 363 101 361
3 364 31 363
3 366 365 360
3 360 99 366
3 365 100 360
3 366 29 365
3 368 367 362
3 362 101 368
3 367 99 362
3 368 30 367
3 371 369 370
3 370 93 371
3 369 100 370
3 371 102 369
3 365 343 370
3 370 100 365
3 343 93 370
3 365 29 343
3 372 364 369
3 369 102 372
3 364 100 369
3 372 31 364
3 344 373 371
3 371 93 344
3 373 102 371
3 344 2 373
3 376 374 375
3 375 103 376
3 374 99 375
3 376 98 374
3 367 377 375
3 375 99 367
3 377 103 375
3 367 30 377
3 356 366 374
3 374 98 356
3 366 99 374
3 356 29 366
3 378 359 376
3 376 103 378
3 359 98 376
3 378 1 359
3 381 379 380
3 380 105 381
3 379 101 380
3 381 104 379
3 363 382 380
3 380 101 363
3 382 105 380
3 363 31 382
3 383 368 379
3 379 104 383
3 368 101 379
3 383 30 368
3 385 384 381
3 381 105 385
3 384 104 381
3 385 6 384
3 388 386 387
3 387 108 388
3 386 107 387
3 388 106 386
3 390 389 387
3 387 107 390
3 389 108 387
3 390 34 389
3 392 391 386
3 386 106 392
3 391 107 386
3 392 33 391
3 394 393 388
3 388 108 394
3 393 106 388
3 394 32 393
3 397 395 396
3 396 110 397
3 395 107 396
3 397 109 395
3 391 398 396
3 396 107 391
3 398 110 396
3 391 33 398
3 399 390 395
3 395 109 399
3 390 107 395
3 399 34 390
3 401 400 397
3 397 110 401
3 400 109 397
3 401 8 400
3 404 402 403
3 403 112 404
3 402 106 403
3 404 111 402
3 393 405 403
3 403 106 393
3 405 112 403
3 393 32 405
3 406 392 402
3 402 111 406
3 392 106 402
3 406 33 392
3 408 407 404
3 404 112 408
3 407 111 404
3 408 0 407
3 411 409 410
3 410 114 411
3 409 108 410
3 411 113 409
3 389 412 410
3 410 108 389
3 412 114 410
3 389 34 412
3 413 394 409
3 409 113 413
3 394 108 409
3 413 32 394
3 415 414 411
3 411 114 415
3 414 113 411
3 415 11 414
3 418 416 417
3 417 117 418
3 416 116 417
3 418 115 416
3 420 419 417
3 417 116 420
3 419 117 417
3 420 36 419
3 422 421 416
3 416 115 422
3 421 116 416
3 422 34 421
3 424 423 418
3 418 117 424
3 423 115 418
3 424 35 423
3 427 425 426
3 426 109 427
3 425 116 426
3 427 118 425
3 421 399 426
3 426 116 421
3 399 109 426
3 421 34 399
3 428 420 425
3 425 118 428
3 420 116 425
3 428 36 420
3 400 429 427
3 427 109 400
3 429 118 427
3 400 8 429
3 432 430 431
3 431 119 432
3 430 115 431
3 432 114 430
3 423 433 431
3 431 115 423
3 433 119 431
3 423 35 433
3 412 422 430
3 430 114 412
3 422 115 430
3 412 34 422
3 434 415 432
3 432 119 434
3 415 114 432
3 434 11 415
3 437 435 436
3 436 121 437
3 435 117 436
3 437 120 435
3 419 438 436
3 436 117 419
3 438 121 436
3 419 36 438
3 439 424 435
3 435 120 439
3 424 117 435
3 439 35 424
3 441 440 437
3 437 121 441
3 440 120 437
3 441 1 440
3 444 442 443
3 443 124 444
3 442 123 443
3 444 122 442
3 446 445 443
3 443 123 446
3 445 124 443
3 446 39 445
3 448 447 442
3 442 122 448
3 447 123 442
3 448 38 447
3 450 449 444
3 444 124 450
3 449 122 444
3 450 37 449
3 453 451 452
3 452 126 453
3 451 123 452
3 453 125 451
3 447 454 452
3 452 123 447
3 454 126 452
3 447 38 454
3 455 446 451
3 451 125 455
3 446 123 451
3 455 39 446
3 457 456 453
3 453 126 457
3 456 125 453
3 457 9 456
3 460 458 459
3 459 128 460
3 458 122 459
3 460 127 458
3 449 461 459
3 459 122 449
3 461 128 459
3 449 37 461
3 462 448 458
3 458 127 462
3 448 122 458
3 462 38 448
3 464 463 460
3 460 128 464
3 463 127 460
3 464 10 463
3 467 465 466
3 466 130 467
3 465 124 466
3 467 129 465
3 445 468 466
3 466 124 445
3 468 130 466
3 445 39 468
3 469 450 465
3 465 129 469
3 450 124 465
3 469 37 450
3 471 470 467
3 467 130 471
3 470 129 467
3 471 3 470
3 474 472 473
3 473 133 474
3 472 132 473
3 474 131 472
3 476 475 473
3 473 132 476
3 475 133 473
3 476 38 475
3 478 477 472
3 472 131 478
3 477 132 472
3 478 41 477
3 480 479 474
3 474 133 480
3 479 131 474
3 480 40 479
3 483 481 482
3 482 134 483
3 481 132 482
3 483 126 481
3 477 484 482
3 482 132 477
3 484 134 482
3 477 41 484
3 454 476 481
3 481 126 454
3 476 132 481
3 454 38 476
3 485 457 483
3 483 134 485
3 457 126 483
3 485 9 457
3 488 486 487
3 487 136 488
3 486 131 487
3 488 135 486
3 479 489 487
3 487 131 479
3 489 136 487
3 479 40 489
3 490 478 486
3 486 135 490
3 478 131 486
3 490 41 478
3 492 491 488
3 488 136 492
3 491 135 488
3 492 2 491
3 495 493 494
3 494 127 495
3 493 133 494
3 495 137 493
3 475 462 494
3 494 133 475
3 462 127 494
3 475 38 462
3 496 480 493
3 493 137 496
3 480 133 493
3 496 40 480
3 463 497 495
3 495 127 463
3 497 137 495
3 463 10 497
3 500 498 499
3 499 140 500
3 498 139 499
3 500 138 498
3 502 501 499
3 499 139 502
3 501 140 499
3 502 33 501
3 504 503 498
3 498 138 504
3 503 139 498
3 504 13 503
3 506 505 500
3 500 140 506
3 505 138 500
3 506 23 505
3 509 507 508
3 508 47 509
3 507 139 508
3 509 110 507
3 503 182 508
3 508 139 503
3 182 47 508
3 503 13 182
3 398 502 507
3 507 110 398
3 502 139 507
3 398 33 502
3 183 401 509
3 509 47 183
3 401 110 509
3 183 8 401
3 512 510 511
3 511 79 512
3 510 138 511
3 512 46 510
3 505 294 511
3 511 138 505
3 294 79 511
3 505 23 294
3 174 504 510
3 510 46 174
3 504 138 510
3 174 13 504
3 295 177 512
3 512 79 295
3 177 46 512
3 295 4 177
3 515 513 514
3 514 111 515
3 513 140 514
3 515 78 513
3 501 406 514
3 514 140 501
3 406 111 514
3 501 33 406
3 286 506 513
3 513 78 286
3 506 140 513
3 286 23 506
3 407 289 515
3 515 111 407
3 289 78 515
3 407 0 289
3 518 516 517
3 517 143 518
3 516 142 517
3 518 141 516
3 520 519 517
3 517 142 520
3 519 143 517
3 520 19 519
3 522 521 516
3 516 141 522
3 521 142 516
3 522 32 521
3 524 523 518
3 518 143 524
3 523 141 518
3 524 26 523
3 527 525 526
3 526 113 527
3 525 142 526
3 527 66 525
3 521 413 526
3 526 142 521
3 413 113 526
3 521 32 413
3 244 520 525
3 525 66 244
3 520 142 525
3 244 19 520
3 414 247 527
3 527 113 414
3 247 66 527
3 414 11 247
3 530 528 529
3 529 86 530
3 528 141 529
3 530 112 528
3 523 316 529
3 529 141 523
3 316 86 529
3 523 26 316
3 405 522 528
3 528 112 405
3 522 141 528
3 405 32 522
3 317 408 530
3 530 86 317
3 408 112 530
3 317 0 408
3 533 531 532
3 532 61 533
3 531 143 532
3 533 89 531
3 519 231 532
3 532 143 519
3 231 61 532
3 519 19 231
3 326 524 531
3 531 89 326
3 524 143 531
3 326 26 524
3 232 329 533
3 533 61 232
3 329 89 533
3 232 5 329
3 536 534 535
3 535 146 536
3 534 145 535
3 536 144 534
3 538 537 535
3 535 145 538
3 537 146 535
3 538 22 537
3 540 539 534
3 534 144 540
3 539 145 534
3 540 16 539
3 542 541 536
3 536 146 542
3 541 144 536
3 542 39 541
3 545 543 544
3 544 54 545
3 543 145 544
3 545 80 543
3 539 204 544
3 544 145 539
3 204 54 544
3 539 16 204
3 293 538 543
3 543 80 293
3 538 145 543
3 293 22 538
3 205 296 545
3 545 54 205
3 296 80 545
3 205 4 296
3 548 546 547
3 547 125 548
3 546 144 547
3 548 57 546
3 541 455 547
3 547 144 541
3 455 125 547
3 541 39 455
3 214 540 546
3 546 57 214
3 540 144 546
3 214 16 540
3 456 217 548
3 548 125 456
3 217 57 548
3 456 9 217
3 551 549 550
3 550 81 551
3 549 146 550
3 551 130 549
3 537 301 550
3 550 146 537
3 301 81 550
3 537 22 301
3 468 542 549
3 549 130 468
3 542 146 549
3 468 39 542
3 302 471 551
3 551 81 302
3 471 130 551
3 302 3 471
3 554 552 553
3 553 149 554
3 552 148 553
3 554 147 552
3 556 555 553
3 553 148 556
3 555 149 553
3 556 21 555
3 558 557 552
3 552 147 558
3 557 148 552
3 558 25 557
3 560 559 554
3 554 149 560
3 559 147 554
3 560 37 559
3 563 561 562
3 562 88 563
3 561 148 562
3 563 70 561
3 557 327 562
3 562 148 557
3 327 88 562
3 557 25 327
3 260 556 561
3 561 70 260
3 556 148 561
3 260 21 556
3 328 261 563
3 563 88 328
3 261 70 563
3 328 5 261
3 566 564 565
3 565 129 566
3 564 147 565
3 566 87 564
3 559 469 565
3 565 147 559
3 469 129 565
3 559 37 469
3 321 558 564
3 564 87 321
3 558 147 564
3 321 25 558
3 470 322 566
3 566 129 470
3 322 87 566
3 470 3 322
3 569 567 568
3 568 71 569
3 567 149 568
3 569 128 567
3 555 266 568
3 568 149 555
3 266 71 568
3 555 21 266
3 461 560 567
3 567 128 461
3 560 149 567
3 461 37 560
3 267 464 569
3 569 71 267
3 464 128 569
3 267 10 464
3 572 570 571
3 571 152 572
3 570 151 571
3 572 150 570
3 574 573 571
3 571 151 574
3 573 152 571
3 574 27 573
3 576 575 570
3 570 150 576
3 575 151 570
3 576 12 575
3 578 577 572
3 572 152 578
3 577 150 572
3 578 36 577
3 581 579 580
3 580 49 581
3 579 151 580
3 581 96 579
3 575 189 580
3 580 151 575
3 189 49 580
3 575 12 189
3 349 574 579
3 579 96 349
3 574 151 579
3 349 27 574
3 190 352 581
3 581 49 190
3 352 96 581
3 190 7 352
3 584 582 583
3 583 118 584
3 582 150 583
3 584 48 582
3 577 428 583
3 583 150 577
3 428 118 583
3 577 36 428
3 181 576 582
3 582 48 181
3 576 150 582
3 181 12 576
3 429 184 584
3 584 118 429
3 184 48 584
3 429 8 184
3 587 585 586
3 586 97 587
3 585 152 586
3 587 121 585
3 573 357 586
3 586 152 573
3 357 97 586
3 573 27 357
3 438 578 585
3 585 121 438
3 578 152 585
3 438 36 578
3 358 441 587
3 587 97 358
3 441 121 587
3 358 1 441
3 590 588 589
3 589 155 590
3 588 154 589
3 590 153 588
3 592 591 589
3 589 154 592
3 591 155 589
3 592 17 591
3 594 593 588
3 588 153 594
3 593 154 588
3 594 30 593
3 596 595 590
3 590 155 596
3 595 153 590
3 596 35 595
3 599 597 598
3 598 104 599
3 597 154 598
3 599 64 597
3 593 383 598
3 598 154 593
3 383 104 598
3 593 30 383
3 237 592 597
3 597 64 237
3 592 154 597
3 237 17 592
3 384 240 599
3 599 104 384
3 240 64 599
3 384 6 240
3 602 600 601
3 601 120 602
3 600 153 601
3 602 103 600
3 595 439 601
3 601 153 595
3 439 120 601
3 595 35 439
3 377 594 600
3 600 103 377
3 594 153 600
3 377 30 594
3 440 378 602
3 602 120 440
3 378 103 602
3 440 1 378
3 605 603 604
3 604 65 605
3 603 155 604
3 605 119 603
3 591 245 604
3 604 155 591
3 245 65 604
3 591 17 245
3 433 596 603
3 603 119 433
3 596 155 603
3 433 35 596
3 246 434 605
3 605 65 246
3 434 119 605
3 246 11 434
3 608 606 607
3 607 158 608
3 606 157 607
3 608 156 606
3 610 609 607
3 607 157 610
3 609 158 607
3 610 15 609
3 612 611 606
3 606 156 612
3 611 157 606
3 612 28 611
3 614 613 608
3 608 158 614
3 613 156 608
3 614 41 613
3 617 615 616
3 616 95 617
3 615 157 616
3 617 55 615
3 611 350 616
3 616 157 611
3 350 95 616
3 611 28 350
3 209 610 615
3 615 55 209
3 610 157 615
3 209 15 610
3 351 210 617
3 617 95 351
3 210 55 617
3 351 7 210
3 620 618 619
3 619 135 620
3 618 156 619
3 620 94 618
3 613 490 619
3 619 156 613
3 490 135 619
3 613 41 490
3 342 612 618
3 618 94 342
3 612 156 618
3 342 28 612
3 491 345 620
3 620 135 491
3 345 94 620
3 491 2 345
3 623 621 622
3 622 56 623
3 621 158 622
3 623 134 621
3 609 215 622
3 622 158 609
3 215 56 622
3 609 15 215
3 484 614 621
3 621 134 484
3 614 158 621
3 484 41 614
3 216 485 623
3 623 56 216
3 485 134 623
3 216 9 485
3 626 624 625
3 625 161 626
3 624 160 625
3 626 159 624
3 628 627 625
3 625 160 628
3 627 161 625
3 628 31 627
3 630 629 624
3 624 159 630
3 629 160 624
3 630 20 629
3 632 631 626
3 626 161 632
3 631 159 626
3 632 40 631
3 635 633 634
3 634 73 635
3 633 160 634
3 635 105 633
3 629 272 634
3 634 160 629
3 272 73 634
3 629 20 272
3 382 628 633
3 633 105 382
3 628 160 633
3 382 31 628
3 273 385 635
3 635 73 273
3 385 105 635
3 273 6 385
3 638 636 637
3 637 137 638
3 636 159 637
3 638 72 636
3 631 496 637
3 637 159 631
3 496 137 637
3 631 40 496
3 265 630 636
3 636 72 265
3 630 159 636
3 265 20 630
3 497 268 638
3 638 137 497
3 268 72 638
3 497 10 268
3 641 639 640
3 640 102 641
3 639 161 640
3 641 136 639
3 627 372 640
3 640 161 627
3 372 102 640
3 627 31 372
3 489 632 639
3 639 136 489
3 632 161 639
3 489 40 632
3 373 492 641
3 641 102 373
3 492 136 641
3 373 2 492
