# vtk DataFile Version 3.0
this file was written using fslvtkio
ASCII
DATASET POLYDATA
POINTS 642 float
129.529 98.8967 125.687
112.377 101.348 122.011
106.865 109.31 106.983
125.675 105.013 109.626
123.474 93.0072 113.604
127.046 111.31 119.332
115.001 112.044 117.393
111.289 94.353 112.347
119.019 91.2512 128.546
116.177 103.768 102.179
116.888 115.87 104.135
122.433 104.646 133.028
114.66 90.8003 120.966
121.984 90.0231 121.591
117.04 91.7496 112.477
112.443 97.7258 105.182
120.113 97.5954 106.388
119.815 107.717 125.279
121.211 112.026 118.686
127.098 109.142 129.24
114.353 115.989 110.396
121.483 112.365 110.6
125.499 98.8871 110.809
127.165 94.1776 120.753
129.312 102.085 117.683
127.643 108.826 113.682
129.885 105.717 125.453
111.001 97.045 117.849
107.763 101.143 108.035
108.64 105.414 114.056
113.637 106.823 120.591
110.057 112.225 111.126
128.543 101.978 133.044
126 93.4929 128.902
120.775 96.9703 133.268
116.971 101.742 128.697
114.118 95.1172 126.724
122.827 111.254 104.041
114.534 111.265 100.033
122.48 104.847 101.953
108.826 116.759 105.351
110.03 107.007 103.378
118.252 89.3976 121.356
119.589 90.2359 116.837
115.756 90.2739 116.501
120.441 92.1157 112.66
123.065 90.8185 117.618
120.724 89.9781 125.363
116.468 90.3897 125.008
113.09 92.1703 116.612
113.849 92.4889 111.81
114.802 94.2304 108.45
118.663 94.0947 109.332
116.424 96.9936 105.628
122.014 95.2083 109.802
111.474 95.7683 108.261
114.486 100.393 103.58
118.429 100.348 103.835
120.777 110.12 122.289
124.514 110.436 124.342
123.255 108.9 127.79
127.401 110.815 124.446
124.144 111.618 119.139
118.104 112.329 118.118
117.526 109.234 121.047
121.063 106.36 129.353
124.789 107.529 131.821
118.081 114.863 110.311
121.465 112.552 114.832
117.899 113.752 114.037
124.51 111.723 114.724
119.769 114.884 107.199
115.478 116.616 107.329
114.939 113.814 113.786
126.966 96.2329 115.737
128.848 97.9351 118.765
127.912 100.022 114.043
129.532 100.526 121.622
128.689 96.3987 122.982
125.66 93.2846 117.037
124.795 95.9392 111.912
125.776 101.974 109.92
128.376 103.41 113.555
128.881 105.638 115.881
129.641 103.979 121.445
129.146 107.322 119.64
129.817 102.458 125.874
127.024 106.966 111.343
127.686 110.379 116.24
129.019 108.86 122.422
109.079 98.7511 112.916
107.856 102.876 111.297
109.809 100.986 115.591
107.775 107.14 110.377
106.974 104.976 107.291
109.307 97.5596 110.14
111.02 95.272 115.507
111.578 99.1865 119.975
110.878 103.347 117.491
110.957 106.393 117.034
109.122 109.058 112.411
111.207 109.817 116.045
107.824 111.502 109.007
112.921 104.209 121.376
114.386 109.305 118.852
112.278 112.366 114.437
127.655 97.3383 131.536
123.644 94.8129 132.118
125.085 99.7296 133.966
119.402 93.4142 131.714
122.604 91.9913 128.997
128.438 95.952 127.48
129.573 100.07 129.593
125.907 104.429 134.377
121.556 101.139 133.906
118.704 99.3934 131.948
117.032 95.4611 131.026
115.422 98.3342 128.297
116.077 92.6554 128.14
119.655 103.207 130.898
114.364 101.545 125.512
113.119 98.1944 124.572
119.637 111.984 100.35
119.112 108.207 99.6624
123.489 108.478 102.114
119.376 104.142 101.713
115.456 107.519 100.254
116.054 114.254 101.201
120.22 114.004 103.7
124.611 107.907 106.833
124.49 104.902 105.298
108.58 112.488 103.057
111.92 109.169 100.97
111.545 114.29 101.761
112.948 105.079 102.645
107.733 108.002 104.659
107.189 113.721 106.115
112.771 116.398 104.107
125.14 91.3248 120.91
124.177 90.9243 125.585
127.196 93.4309 125.123
129.695 103.824 129.671
127.98 106.188 132.475
129.072 108.294 126.862
121.562 101.167 103.901
123.111 98.1878 108.033
124.05 101.988 106.064
124.849 109.497 109.12
125.242 110.948 112.083
122.414 112.276 107.264
113.869 92.438 124.434
112.31 93.5534 119.583
112.18 96.0191 122.447
115.102 104.326 124.889
116.409 107.278 123.166
118.227 104.989 127.355
108.258 103.862 104.842
109.578 98.7829 106.486
111.234 101.942 103.621
111.752 117.403 107.66
112.007 114.057 110.645
107.786 115.62 108.706
118.863 89.632 119.049
117.646 89.9757 116.817
117.013 89.6319 118.905
116.553 90.7078 114.622
118.209 90.7118 114.863
120.548 89.9754 119.218
120.019 89.6204 121.156
116.401 89.8276 120.857
115.433 90.2064 118.856
119.977 91.0341 114.844
121.316 90.4477 117.357
121.629 91.165 115.197
122.393 90.2609 119.599
118.751 91.6824 112.96
121.984 92.3084 113.244
123.112 91.7482 115.463
119.506 89.4399 123.245
117.296 89.6909 123.057
118.549 89.796 124.885
115.631 90.3518 122.874
121.311 89.8375 123.376
119.687 90.3826 126.806
117.792 90.5416 126.577
114.352 90.9829 116.786
114.865 91.0422 114.26
113.458 91.8809 114.299
115.42 91.7516 112.389
113.963 91.2574 118.849
112.291 92.9963 114.419
112.553 93.1534 112.246
116.774 94.0109 108.951
117.519 95.4853 107.477
115.648 95.5327 107.045
118.3 96.919 106.262
119.17 95.724 107.744
117.837 92.876 110.916
115.983 92.9452 110.43
113.758 95.8099 106.745
114.513 96.9737 105.574
120.337 94.6831 109.371
119.47 92.9864 111.084
121.477 93.4202 111.22
120.821 96.2799 108.029
122.869 93.9452 111.704
114.485 93.1186 110.174
113.097 94.8748 108.11
112.644 93.9339 110.095
111.931 96.5196 106.495
111.409 94.8011 110.326
115.34 98.4335 104.492
117.529 98.4259 104.785
116.497 100.052 103.793
119.199 98.6957 105.074
113.476 98.8526 104.324
115.523 101.879 102.932
117.272 101.814 102.926
122.577 110.273 123.457
123.894 109.701 126.045
122.124 109.311 125.072
125.029 109.38 128.475
125.747 109.958 126.912
122.918 110.979 121.834
121.319 111.042 120.795
120.588 108.965 124.07
121.562 108.396 126.338
125.953 110.658 124.702
124.312 111.142 121.839
125.807 111.261 121.925
122.808 111.606 119.625
127.331 109.971 127.007
127.176 111.232 121.773
125.552 111.507 119.307
119.702 110.912 120.101
119.253 109.517 121.906
117.997 110.679 119.66
118.831 108.445 123.209
119.719 112.242 118.442
116.607 112.188 117.857
116.402 110.551 119.074
122.036 107.716 128.405
123.981 108.565 129.823
122.72 107.316 130.651
125.879 108.583 130.494
120.554 107.078 127.261
121.811 105.824 131.277
123.335 106.408 132.36
119.686 113.065 112.307
119.767 113.179 114.594
117.986 114.041 112.073
119.51 113.012 116.329
121.343 112.395 116.906
121.136 112.522 112.445
119.8 113.554 110.732
116.467 115.551 110.533
116.325 114.715 111.92
122.769 112.044 117.211
122.784 112.078 114.58
124.419 111.773 116.89
122.782 111.825 112.691
125.932 111.64 117.004
119.016 114.945 109.011
116.948 116.314 108.953
117.804 115.894 107.38
114.928 116.734 109.058
120.497 113.638 109.007
118.433 115.626 105.738
116.43 116.354 105.866
116.53 113.8 113.91
118.224 113.155 116.465
116.429 113.197 116.216
114.86 114.523 111.736
115.005 113.074 115.742
127.912 97.0668 117.267
128.516 98.9234 116.437
127.516 98.1236 114.941
128.764 100.647 115.929
129.105 99.9387 117.756
127.947 96.1207 119.399
127.205 95.4247 118.197
126.524 97.576 113.478
126.811 99.0731 112.739
129.338 99.248 119.848
128.754 96.9447 120.778
129.327 98.377 121.989
127.853 95.2789 121.709
129.416 101.106 119.46
129.521 99.6464 123.54
129.317 97.7486 124.042
126.368 94.7913 116.595
125.908 96.0849 113.831
125.374 94.4143 114.516
125.357 97.4172 111.571
126.491 93.7717 119.017
124.581 92.9914 115.254
124.295 94.4149 112.746
126.909 100.779 111.985
128.252 101.656 113.88
127.02 102.512 111.818
128.999 102.517 115.663
125.737 100.299 110.461
125.84 103.51 109.893
127.21 104.143 111.717
129.425 104.651 118.64
129.492 105.625 120.39
129.13 106.38 117.726
129.631 106.406 122.202
129.745 105.054 123.057
129.495 103.142 119.405
129.245 103.889 117.105
128.294 107.315 115.224
128.567 107.831 116.999
129.699 103.399 123.615
129.643 102.25 121.233
129.661 101.529 123.627
129.897 104.194 125.554
129.685 100.637 125.489
128.858 104.307 114.924
128.133 106.414 113.789
127.817 105.258 112.691
127.477 107.928 112.486
126.427 105.83 110.706
128.443 108.85 118.054
129.29 107.962 121.218
128.414 109.567 119.559
129.666 107.136 123.959
127.835 109.268 115.41
127.535 110.818 117.9
128.155 110.403 120.814
108.34 100.733 112.135
108.729 101.922 113.454
109.23 99.9192 114.307
108.983 103.022 114.532
108.298 103.841 112.866
107.768 101.655 110.045
108.263 99.9063 110.653
110.006 98.1919 115.162
110.286 99.0022 116.362
107.695 104.864 111.004
107.398 103.7 109.369
107.273 105.707 109.124
107.389 102.931 107.886
108.1 105.987 112.23
107.23 107.91 108.744
106.858 106.995 107.406
108.988 98.1478 111.454
110.055 97.0614 114.196
110.066 96.23 112.889
110.783 96.3841 116.494
108.358 99.3359 108.993
110.259 95.8333 111.358
111.179 94.6297 114.035
110.758 99.9805 117.577
110.124 102.252 116.391
111.228 101.21 118.417
109.57 104.195 115.641
111.184 98.1941 118.697
111.849 100.576 120.59
111.706 102.399 119.403
109.61 107.789 114.92
109.945 109.418 114.358
110.947 108.114 116.361
110.495 110.801 113.784
109.674 110.609 112.082
108.824 107.248 113.468
109.67 106.096 115.499
112.148 106.963 118.462
112.259 108.3 117.898
109.048 110.144 110.508
108.401 107.89 111.596
107.913 109.214 109.59
108.871 111.999 110.096
107.19 110.203 108.143
110.688 104.851 117.019
112.113 105.467 118.844
112.045 103.86 119.304
113.127 105.655 120.773
112.534 102.774 121.461
112.659 109.658 117.546
111.632 111.135 115.331
113.083 111.106 116.967
111.105 111.96 112.935
113.79 108.086 119.481
114.659 110.739 118.257
113.575 112.344 116.083
125.742 96.1494 132.152
124.56 97.1212 133.169
126.375 98.1812 133.072
123.144 98.1512 133.61
122.522 96.0739 132.996
125.09 94.334 130.85
126.654 95.405 130.55
128.107 99.3889 132.602
127.031 100.511 133.788
121.667 94.0246 132.167
123.258 93.2586 130.706
121.082 92.5312 130.568
124.487 92.7059 129.162
120.24 95.0926 132.721
119.022 92.0781 130.29
120.812 91.3642 128.8
128.113 96.5005 129.637
129.051 98.5141 130.763
129.271 97.9243 128.424
129.267 100.544 131.636
127.299 94.867 128.668
129.193 97.2417 126.369
129.586 99.4536 127.596
125.571 102.017 134.441
123.372 100.477 134.143
123.753 102.813 134.353
121.499 99.0189 133.794
127.339 102.892 134.119
123.868 104.629 134.051
121.767 102.777 133.456
117.829 97.3968 131.667
116.295 96.9906 129.95
117.006 98.5477 130.378
114.879 96.7126 127.913
115.545 95.4651 129.027
118.714 96.0842 132.536
119.503 98.1897 133.053
117.6 100.234 130.286
116.259 99.8426 128.851
116.374 94.1391 129.781
118.216 94.4626 131.776
117.559 92.694 130.284
115.102 93.9933 127.829
117.386 91.6443 128.394
120.03 100.101 133.242
118.989 101.163 131.369
120.339 102.163 132.589
118.234 102.21 129.927
121.071 104.062 131.87
114.94 100.019 127
114.252 98.205 126.513
113.573 99.9667 125.039
113.668 96.6283 125.89
115.667 101.408 127.356
113.202 101.521 123.785
112.602 99.7766 123.239
119.617 110.104 99.7953
121.594 108.408 100.341
121.956 110.328 100.789
122.706 106.841 101.485
120.879 106.764 100.504
117.171 109.751 99.5985
117.404 111.392 99.9648
121.551 111.92 101.655
123.126 110.123 102.83
119.268 106.16 100.566
117.269 107.859 99.8151
117.393 105.755 100.857
115.024 109.412 99.7871
120.914 104.72 101.542
117.833 103.733 101.975
115.672 105.675 101.323
117.861 113.088 100.638
120.057 113.376 101.798
118.261 114.749 102.085
121.585 112.637 103.474
115.424 112.72 100.417
116.464 115.447 102.587
118.868 115.138 104.05
124.201 108.335 104.288
124.143 106.722 103.282
124.62 106.385 106.001
123.782 105.143 103.149
123.913 109.6 105.112
125.086 106.36 108.222
124.947 104.783 107.589
110.166 111.045 101.704
111.39 111.92 100.797
109.75 113.608 102.041
112.987 112.858 100.76
112.956 110.294 100.199
110.671 108.73 102.177
109.383 110.078 102.847
108.435 114.763 103.75
109.952 115.534 103.225
113.918 108.287 100.276
112.232 107.495 101.799
114.102 106.281 101.574
111.427 106.171 102.87
114.576 104.204 102.388
108.229 110.71 103.984
107.711 113.336 104.58
107.314 110.987 105.101
107.483 115.71 105.593
108.857 108.208 103.887
107.071 108.535 105.729
107.095 111.479 106.463
112.056 115.477 102.613
114.122 114.032 101.314
114.507 115.603 102.562
110.77 116.598 104.448
114.902 116.212 104.131
124.904 90.9594 123.433
125.875 91.8802 125.317
126.195 92.0413 123.28
126.776 93.2376 127.07
125.269 91.938 127.31
123.205 90.2584 123.55
123.787 90.4 121.395
126.237 92.6184 121.067
127.214 93.4755 122.948
123.634 91.4953 127.522
122.497 90.471 125.321
121.61 90.8843 127.274
124.137 90.8245 119.33
125.651 92.2714 118.924
124.448 91.9463 116.983
127.936 94.7578 123.879
127.846 94.5634 126.511
128.769 96.1344 125.124
129.04 105.008 131.073
128.852 107.05 129.996
129.443 106.151 128.766
128.431 108.875 128.235
127.813 107.972 131.014
128.548 104.14 132.997
129.352 102.675 131.429
129.818 104.876 127.643
129.673 107.034 126.291
126.409 107.466 132.153
127.313 105.178 133.844
124.758 105.957 133.357
129.724 101.869 129.779
129.856 103.187 127.725
129.757 101.118 127.564
129.189 108.539 124.355
128.489 109.909 125.488
128.342 110.476 122.617
122.307 99.6809 106.011
123.637 100.02 107.241
123.028 101.482 104.812
124.628 100.347 108.419
124.332 98.7502 109.196
121.65 98.0269 107.038
120.928 99.385 105.278
122.162 102.934 102.853
123.531 103.402 103.753
124.068 97.2497 109.975
122.393 96.7839 108.765
123.514 95.4689 110.722
120.071 100.506 103.991
120.681 102.633 102.565
118.936 102.169 102.81
124.291 103.469 105.461
124.893 101.677 108.24
124.939 103.388 107.833
125.301 110.225 110.664
123.606 111.242 109.778
123.81 110.878 108.114
122.113 112.284 109.116
123.325 111.558 111.233
126.944 110.105 112.724
126.572 109.168 111.167
123.752 110.317 106.468
122.759 111.886 105.678
124.749 111.463 113.227
126.9 110.725 113.94
126.371 111.372 115.53
126.004 108.16 110.345
124.51 108.794 107.835
125.285 107.081 109.361
121.575 113.202 105.34
121.264 113.476 107.463
120.175 114.549 105.62
112.931 92.8884 122.12
112.096 94.6081 121.245
112.807 94.1167 123.508
111.653 96.3829 120.207
111.569 95.2749 118.959
113.342 92.0952 120.45
114.111 91.507 122.727
113.755 93.8051 125.597
112.98 95.4389 124.61
111.675 94.6244 117.575
112.808 92.6663 118.263
111.955 93.6508 115.986
114.984 91.2373 124.649
114.697 92.6984 126.473
116.233 91.3668 126.748
112.675 97.0798 123.689
111.768 97.575 121.144
112.25 98.9176 122.205
115.793 105.841 124.129
117.392 106.062 125.261
116.697 104.552 126.161
118.975 106.412 126.199
118.06 107.393 124.228
114.917 107.013 122.147
114.398 105.645 122.885
116.058 103.031 126.772
117.474 103.389 128.018
117.06 108.24 122.229
115.152 108.108 120.967
115.943 109.167 119.759
113.903 104.461 123.035
114.69 102.956 125.431
113.461 102.907 123.435
118.782 103.93 129.188
119.66 105.666 128.011
120.314 104.903 130.182
108.781 101.138 105.356
110.155 100.332 104.736
109.648 102.728 104.145
111.687 99.7152 104.218
110.774 98.2495 105.562
108.488 99.9698 107.046
107.728 102.159 106.189
109.182 105.375 104.015
110.621 104.345 103.42
110.523 97.0794 107.237
109.296 98.1173 108.297
110.326 96.2387 109.539
107.275 104.006 106.063
108.188 105.961 104.546
107.005 106.467 105.837
112.15 103.557 103.204
112.821 100.915 103.532
113.946 102.594 102.953
111.472 116.38 109.79
109.804 115.359 109.971
109.518 117.176 108.362
109.067 113.903 110.057
111.299 112.89 110.86
113.352 114.677 110.595
112.913 117.088 109.528
110.332 117.429 106.251
107.832 116.819 107.147
112.283 112.891 112.458
113.624 113.716 112.273
113.605 113.168 114.292
113.667 117.013 107.753
112.308 117.045 105.609
114.595 116.73 105.602
107.324 114.835 107.199
107.952 113.518 109.168
107.25 112.216 107.582
POLYGONS 1280  5120
3 164 162 163
3 163 44 164
3 162 43 163
3 164 42 162
3 166 165 163
3 163 43 166
3 165 44 163
3 166 14 165
3 168 167 162
3 162 42 168
3 167 43 162
3 168 13 167
3 170 169 164
3 164 44 170
3 169 42 164
3 170 12 169
3 173 171 172
3 172 46 173
3 171 43 172
3 173 45 171
3 167 174 172
3 172 43 167
3 174 46 172
3 167 13 174
3 175 166 171
3 171 45 175
3 166 43 171
3 175 14 166
3 177 176 173
3 173 46 177
3 176 45 173
3 177 4 176
3 180 178 179
3 179 48 180
3 178 42 179
3 180 47 178
3 169 181 179
3 179 42 169
3 181 48 179
3 169 12 181
3 182 168 178
3 178 47 182
3 168 42 178
3 182 13 168
3 184 183 180
3 180 48 184
3 183 47 180
3 184 8 183
3 187 185 186
3 186 50 187
3 185 44 186
3 187 49 185
3 165 188 186
3 186 44 165
3 188 50 186
3 165 14 188
3 189 170 185
3 185 49 189
3 170 44 185
3 189 12 170
3 191 190 187
3 187 50 191
3 190 49 187
3 191 7 190
3 194 192 193
3 193 53 194
3 192 52 193
3 194 51 192
3 196 195 193
3 193 52 196
3 195 53 193
3 196 16 195
3 198 197 192
3 192 51 198
3 197 52 192
3 198 14 197
3 200 199 194
3 194 53 200
3 199 51 194
3 200 15 199
3 203 201 202
3 202 45 203
3 201 52 202
3 203 54 201
3 197 175 202
3 202 52 197
3 175 45 202
3 197 14 175
3 204 196 201
3 201 54 204
3 196 52 201
3 204 16 196
3 176 205 203
3 203 45 176
3 205 54 203
3 176 4 205
3 208 206 207
3 207 55 208
3 206 51 207
3 208 50 206
3 199 209 207
3 207 51 199
3 209 55 207
3 199 15 209
3 188 198 206
3 206 50 188
3 198 51 206
3 188 14 198
3 210 191 208
3 208 55 210
3 191 50 208
3 210 7 191
3 213 211 212
3 212 57 213
3 211 53 212
3 213 56 211
3 195 214 212
3 212 53 195
3 214 57 212
3 195 16 214
3 215 200 211
3 211 56 215
3 200 53 211
3 215 15 200
3 217 216 213
3 213 57 217
3 216 56 213
3 217 9 216
3 220 218 219
3 219 60 220
3 218 59 219
3 220 58 218
3 222 221 219
3 219 59 222
3 221 60 219
3 222 19 221
3 224 223 218
3 218 58 224
3 223 59 218
3 224 18 223
3 226 225 220
3 220 60 226
3 225 58 220
3 226 17 225
3 229 227 228
3 228 62 229
3 227 59 228
3 229 61 227
3 223 230 228
3 228 59 223
3 230 62 228
3 223 18 230
3 231 222 227
3 227 61 231
3 222 59 227
3 231 19 222
3 233 232 229
3 229 62 233
3 232 61 229
3 233 5 232
3 236 234 235
3 235 64 236
3 234 58 235
3 236 63 234
3 225 237 235
3 235 58 225
3 237 64 235
3 225 17 237
3 238 224 234
3 234 63 238
3 224 58 234
3 238 18 224
3 240 239 236
3 236 64 240
3 239 63 236
3 240 6 239
3 243 241 242
3 242 66 243
3 241 60 242
3 243 65 241
3 221 244 242
3 242 60 221
3 244 66 242
3 221 19 244
3 245 226 241
3 241 65 245
3 226 60 241
3 245 17 226
3 247 246 243
3 243 66 247
3 246 65 243
3 247 11 246
3 250 248 249
3 249 69 250
3 248 68 249
3 250 67 248
3 252 251 249
3 249 68 252
3 251 69 249
3 252 18 251
3 254 253 248
3 248 67 254
3 253 68 248
3 254 21 253
3 256 255 250
3 250 69 256
3 255 67 250
3 256 20 255
3 259 257 258
3 258 70 259
3 257 68 258
3 259 62 257
3 253 260 258
3 258 68 253
3 260 70 258
3 253 21 260
3 230 252 257
3 257 62 230
3 252 68 257
3 230 18 252
3 261 233 259
3 259 70 261
3 233 62 259
3 261 5 233
3 264 262 263
3 263 72 264
3 262 67 263
3 264 71 262
3 255 265 263
3 263 67 255
3 265 72 263
3 255 20 265
3 266 254 262
3 262 71 266
3 254 67 262
3 266 21 254
3 268 267 264
3 264 72 268
3 267 71 264
3 268 10 267
3 271 269 270
3 270 63 271
3 269 69 270
3 271 73 269
3 251 238 270
3 270 69 251
3 238 63 270
3 251 18 238
3 272 256 269
3 269 73 272
3 256 69 269
3 272 20 256
3 239 273 271
3 271 63 239
3 273 73 271
3 239 6 273
3 276 274 275
3 275 76 276
3 274 75 275
3 276 74 274
3 278 277 275
3 275 75 278
3 277 76 275
3 278 24 277
3 280 279 274
3 274 74 280
3 279 75 274
3 280 23 279
3 282 281 276
3 276 76 282
3 281 74 276
3 282 22 281
3 285 283 284
3 284 78 285
3 283 75 284
3 285 77 283
3 279 286 284
3 284 75 279
3 286 78 284
3 279 23 286
3 287 278 283
3 283 77 287
3 278 75 283
3 287 24 278
3 289 288 285
3 285 78 289
3 288 77 285
3 289 0 288
3 292 290 291
3 291 80 292
3 290 74 291
3 292 79 290
3 281 293 291
3 291 74 281
3 293 80 291
3 281 22 293
3 294 280 290
3 290 79 294
3 280 74 290
3 294 23 280
3 296 295 292
3 292 80 296
3 295 79 292
3 296 4 295
3 299 297 298
3 298 82 299
3 297 76 298
3 299 81 297
3 277 300 298
3 298 76 277
3 300 82 298
3 277 24 300
3 301 282 297
3 297 81 301
3 282 76 297
3 301 22 282
3 303 302 299
3 299 82 303
3 302 81 299
3 303 3 302
3 306 304 305
3 305 85 306
3 304 84 305
3 306 83 304
3 308 307 305
3 305 84 308
3 307 85 305
3 308 26 307
3 310 309 304
3 304 83 310
3 309 84 304
3 310 24 309
3 312 311 306
3 306 85 312
3 311 83 306
3 312 25 311
3 315 313 314
3 314 77 315
3 313 84 314
3 315 86 313
3 309 287 314
3 314 84 309
3 287 77 314
3 309 24 287
3 316 308 313
3 313 86 316
3 308 84 313
3 316 26 308
3 288 317 315
3 315 77 288
3 317 86 315
3 288 0 317
3 320 318 319
3 319 87 320
3 318 83 319
3 320 82 318
3 311 321 319
3 319 83 311
3 321 87 319
3 311 25 321
3 300 310 318
3 318 82 300
3 310 83 318
3 300 24 310
3 322 303 320
3 320 87 322
3 303 82 320
3 322 3 303
3 325 323 324
3 324 89 325
3 323 85 324
3 325 88 323
3 307 326 324
3 324 85 307
3 326 89 324
3 307 26 326
3 327 312 323
3 323 88 327
3 312 85 323
3 327 25 312
3 329 328 325
3 325 89 329
3 328 88 325
3 329 5 328
3 332 330 331
3 331 92 332
3 330 91 331
3 332 90 330
3 334 333 331
3 331 91 334
3 333 92 331
3 334 29 333
3 336 335 330
3 330 90 336
3 335 91 330
3 336 28 335
3 338 337 332
3 332 92 338
3 337 90 332
3 338 27 337
3 341 339 340
3 340 94 341
3 339 91 340
3 341 93 339
3 335 342 340
3 340 91 335
3 342 94 340
3 335 28 342
3 343 334 339
3 339 93 343
3 334 91 339
3 343 29 334
3 345 344 341
3 341 94 345
3 344 93 341
3 345 2 344
3 348 346 347
3 347 96 348
3 346 90 347
3 348 95 346
3 337 349 347
3 347 90 337
3 349 96 347
3 337 27 349
3 350 336 346
3 346 95 350
3 336 90 346
3 350 28 336
3 352 351 348
3 348 96 352
3 351 95 348
3 352 7 351
3 355 353 354
3 354 98 355
3 353 92 354
3 355 97 353
3 333 356 354
3 354 92 333
3 356 98 354
3 333 29 356
3 357 338 353
3 353 97 357
3 338 92 353
3 357 27 338
3 359 358 355
3 355 98 359
3 358 97 355
3 359 1 358
3 362 360 361
3 361 101 362
3 360 100 361
3 362 99 360
3 364 363 361
3 361 100 364
3 363 101 361
3 364 31 363
3 366 365 360
3 360 99 366
3 365 100 360
3 366 29 365
3 368 367 362
3 362 101 368
3 367 99 362
3 368 30 367
3 371 369 370
3 370 93 371
3 369 100 370
3 371 102 369
3 365 343 370
3 370 100 365
3 343 93 370
3 365 29 343
3 372 364 369
3 369 102 372
3 364 100 369
3 372 31 364
3 344 373 371
3 371 93 344
3 373 102 371
3 344 2 373
3 376 374 375
3 375 103 376
3 374 99 375
3 376 98 374
3 367 377 375
3 375 99 367
3 377 103 375
3 367 30 377
3 356 366 374
3 374 98 356
3 366 99 374
3 356 29 366
3 378 359 376
3 376 103 378
3 359 98 376
3 378 1 359
3 381 379 380
3 380 105 381
3 379 101 380
3 381 104 379
3 363 382 380
3 380 101 363
3 382 105 380
3 363 31 382
3 383 368 379
3 379 104 383
3 368 101 379
3 383 30 368
3 385 384 381
3 381 105 385
3 384 104 381
3 385 6 384
3 388 386 387
3 387 108 388
3 386 107 387
3 388 106 386
3 390 389 387
3 387 107 390
3 389 108 387
3 390 34 389
3 392 391 386
3 386 106 392
3 391 107 386
3 392 33 391
3 394 393 388
3 388 108 394
3 393 106 388
3 394 32 393
3 397 395 396
3 396 110 397
3 395 107 396
3 397 109 395
3 391 398 396
3 396 107 391
3 398 110 396
3 391 33 398
3 399 390 395
3 395 109 399
3 390 107 395
3 399 34 390
3 401 400 397
3 397 110 401
3 400 109 397
3 401 8 400
3 404 402 403
3 403 112 404
3 402 106 403
3 404 111 402
3 393 405 403
3 403 106 393
3 405 112 403
3 393 32 405
3 406 392 402
3 402 111 406
3 392 106 402
3 406 33 392
3 408 407 404
3 404 112 408
3 407 111 404
3 408 0 407
3 411 409 410
3 410 114 411
3 409 108 410
3 411 113 409
3 389 412 410
3 410 108 389
3 412 114 410
3 389 34 412
3 413 394 409
3 409 113 413
3 394 108 409
3 413 32 394
3 415 414 411
3 411 114 415
3 414 113 411
3 415 11 414
3 418 416 417
3 417 117 418
3 416 116 417
3 418 115 416
3 420 419 417
3 417 116 420
3 419 117 417
3 420 36 419
3 422 421 416
3 416 115 422
3 421 116 416
3 422 34 421
3 424 423 418
3 418 117 424
3 423 115 418
3 424 35 423
3 427 425 426
3 426 109 427
3 425 116 426
3 427 118 425
3 421 399 426
3 426 116 421
3 399 109 426
3 421 34 399
3 428 420 425
3 425 118 428
3 420 116 425
3 428 36 420
3 400 429 427
3 427 109 400
3 429 118 427
3 400 8 429
3 432 430 431
3 431 119 432
3 430 115 431
3 432 114 430
3 423 433 431
3 431 115 423
3 433 119 431
3 423 35 433
3 412 422 430
3 430 114 412
3 422 115 430
3 412 34 422
3 434 415 432
3 432 119 434
3 415 114 432
3 434 11 415
3 437 435 436
3 436 121 437
3 435 117 436
3 437 120 435
3 419 438 436
3 436 117 419
3 438 121 436
3 419 36 438
3 439 424 435
3 435 120 439
3 424 117 435
3 439 35 424
3 441 440 437
3 437 121 441
3 440 120 437
3 441 1 440
3 444 442 443
3 443 124 444
3 442 123 443
3 444 122 442
3 446 445 443
3 443 123 446
3 445 124 443
3 446 39 445
3 448 447 442
3 442 122 448
3 447 123 442
3 448 38 447
3 450 449 444
3 444 124 450
3 449 122 444
3 450 37 449
3 453 451 452
3 452 126 453
3 451 123 452
3 453 125 451
3 447 454 452
3 452 123 447
3 454 126 452
3 447 38 454
3 455 446 451
3 451 125 455
3 446 123 451
3 455 39 446
3 457 456 453
3 453 126 457
3 456 125 453
3 457 9 456
3 460 458 459
3 459 128 460
3 458 122 459
3 460 127 458
3 449 461 459
3 459 122 449
3 461 128 459
3 449 37 461
3 462 448 458
3 458 127 462
3 448 122 458
3 462 38 448
3 464 463 460
3 460 128 464
3 463 127 460
3 464 10 463
3 467 465 466
3 466 130 467
3 465 124 466
3 467 129 465
3 445 468 466
3 466 124 445
3 468 130 466
3 445 39 468
3 469 450 465
3 465 129 469
3 450 124 465
3 469 37 450
3 471 470 467
3 467 130 471
3 470 129 467
3 471 3 470
3 474 472 473
3 473 133 474
3 472 132 473
3 474 131 472
3 476 475 473
3 473 132 476
3 475 133 473
3 476 38 475
3 478 477 472
3 472 131 478
3 477 132 472
3 478 41 477
3 480 479 474
3 474 133 480
3 479 131 474
3 480 40 479
3 483 481 482
3 482 134 483
3 481 132 482
3 483 126 481
3 477 484 482
3 482 132 477
3 484 134 482
3 477 41 484
3 454 476 481
3 481 126 454
3 476 132 481
3 454 38 476
3 485 457 483
3 483 134 485
3 457 126 483
3 485 9 457
3 488 486 487
3 487 136 488
3 486 131 487
3 488 135 486
3 479 489 487
3 487 131 479
3 489 136 487
3 479 40 489
3 490 478 486
3 486 135 490
3 478 131 486
3 490 41 478
3 492 491 488
3 488 136 492
3 491 135 488
3 492 2 491
3 495 493 494
3 494 127 495
3 493 133 494
3 495 137 493
3 475 462 494
3 494 133 475
3 462 127 494
3 475 38 462
3 496 480 493
3 493 137 496
3 480 133 493
3 496 40 480
3 463 497 495
3 495 127 463
3 497 137 495
3 463 10 497
3 500 498 499
3 499 140 500
3 498 139 499
3 500 138 498
3 502 501 499
3 499 139 502
3 501 140 499
3 502 33 501
3 504 503 498
3 498 138 504
3 503 139 498
3 504 13 503
3 506 505 500
3 500 140 506
3 505 138 500
3 506 23 505
3 509 507 508
3 508 47 509
3 507 139 508
3 509 110 507
3 503 182 508
3 508 139 503
3 182 47 508
3 503 13 182
3 398 502 507
3 507 110 398
3 502 139 507
3 398 33 502
3 183 401 509
3 509 47 183
3 401 110 509
3 183 8 401
3 512 510 511
3 511 79 512
3 510 138 511
3 512 46 510
3 505 294 511
3 511 138 505
3 294 79 511
3 505 23 294
3 174 504 510
3 510 46 174
3 504 138 510
3 174 13 504
3 295 177 512
3 512 79 295
3 177 46 512
3 295 4 177
3 515 513 514
3 514 111 515
3 513 140 514
3 515 78 513
3 501 406 514
3 514 140 501
3 406 111 514
3 501 33 406
3 286 506 513
3 513 78 286
3 506 140 513
3 286 23 506
3 407 289 515
3 515 111 407
3 289 78 515
3 407 0 289
3 518 516 517
3 517 143 518
3 516 142 517
3 518 141 516
3 520 519 517
3 517 142 520
3 519 143 517
3 520 19 519
3 522 521 516
3 516 141 522
3 521 142 516
3 522 32 521
3 524 523 518
3 518 143 524
3 523 141 518
3 524 26 523
3 527 525 526
3 526 113 527
3 525 142 526
3 527 66 525
3 521 413 526
3 526 142 521
3 413 113 526
3 521 32 413
3 244 520 525
3 525 66 244
3 520 142 525
3 244 19 520
3 414 247 527
3 527 113 414
3 247 66 527
3 414 11 247
3 530 528 529
3 529 86 530
3 528 141 529
3 530 112 528
3 523 316 529
3 529 141 523
3 316 86 529
3 523 26 316
3 405 522 528
3 528 112 405
3 522 141 528
3 405 32 522
3 317 408 530
3 530 86 317
3 408 112 530
3 317 0 408
3 533 531 532
3 532 61 533
3 531 143 532
3 533 89 531
3 519 231 532
3 532 143 519
3 231 61 532
3 519 19 231
3 326 524 531
3 531 89 326
3 524 143 531
3 326 26 524
3 232 329 533
3 533 61 232
3 329 89 533
3 232 5 329
3 536 534 535
3 535 146 536
3 534 145 535
3 536 144 534
3 538 537 535
3 535 145 538
3 537 146 535
3 538 22 537
3 540 539 534
3 534 144 540
3 539 145 534
3 540 16 539
3 542 541 536
3 536 146 542
3 541 144 536
3 542 39 541
3 545 543 544
3 544 54 545
3 543 145 544
3 545 80 543
3 539 204 544
3 544 145 539
3 204 54 544
3 539 16 204
3 293 538 543
3 543 80 293
3 538 145 543
3 293 22 538
3 205 296 545
3 545 54 205
3 296 80 545
3 205 4 296
3 548 546 547
3 547 125 548
3 546 144 547
3 548 57 546
3 541 455 547
3 547 144 541
3 455 125 547
3 541 39 455
3 214 540 546
3 546 57 214
3 540 144 546
3 214 16 540
3 456 217 548
3 548 125 456
3 217 57 548
3 456 9 217
3 551 549 550
3 550 81 551
3 549 146 550
3 551 130 549
3 537 301 550
3 550 146 537
3 301 81 550
3 537 22 301
3 468 542 549
3 549 130 468
3 542 146 549
3 468 39 542
3 302 471 551
3 551 81 302
3 471 130 551
3 302 3 471
3 554 552 553
3 553 149 554
3 552 148 553
3 554 147 552
3 556 555 553
3 553 148 556
3 555 149 553
3 556 21 555
3 558 557 552
3 552 147 558
3 557 148 552
3 558 25 557
3 560 559 554
3 554 149 560
3 559 147 554
3 560 37 559
3 563 561 562
3 562 88 563
3 561 148 562
3 563 70 561
3 557 327 562
3 562 148 557
3 327 88 562
3 557 25 327
3 260 556 561
3 561 70 260
3 556 148 561
3 260 21 556
3 328 261 563
3 563 88 328
3 261 70 563
3 328 5 261
3 566 564 565
3 565 129 566
3 564 147 565
3 566 87 564
3 559 469 565
3 565 147 559
3 469 129 565
3 559 37 469
3 321 558 564
3 564 87 321
3 558 147 564
3 321 25 558
3 470 322 566
3 566 129 470
3 322 87 566
3 470 3 322
3 569 567 568
3 568 71 569
3 567 149 568
3 569 128 567
3 555 266 568
3 568 149 555
3 266 71 568
3 555 21 266
3 461 560 567
3 567 128 461
3 560 149 567
3 461 37 560
3 267 464 569
3 569 71 267
3 464 128 569
3 267 10 464
3 572 570 571
3 571 152 572
3 570 151 571
3 572 150 570
3 574 573 571
3 571 151 574
3 573 152 571
3 574 27 573
3 576 575 570
3 570 150 576
3 575 151 570
3 576 12 575
3 578 577 572
3 572 152 578
3 577 150 572
3 578 36 577
3 581 579 580
3 580 49 581
3 579 151 580
3 581 96 579
3 575 189 580
3 580 151 575
3 189 49 580
3 575 12 189
3 349 574 579
3 579 96 349
3 574 151 579
3 349 27 574
3 190 352 581
3 581 49 190
3 352 96 581
3 190 7 352
3 584 582 583
3 583 118 584
3 582 150 583
3 584 48 582
3 577 428 583
3 583 150 577
3 428 118 583
3 577 36 428
3 181 576 582
3 582 48 181
3 576 150 582
3 181 12 576
3 429 184 584
3 584 118 429
3 184 48 584
3 429 8 184
3 587 585 586
3 586 97 587
3 585 152 586
3 587 121 585
3 573 357 586
3 586 152 573
3 357 97 586
3 573 27 357
3 438 578 585
3 585 121 438
3 578 152 585
3 438 36 578
3 358 441 587
3 587 97 358
3 441 121 587
3 358 1 441
3 590 588 589
3 589 155 590
3 588 154 589
3 590 153 588
3 592 591 589
3 589 154 592
3 591 155 589
3 592 17 591
3 594 593 588
3 588 153 594
3 593 154 588
3 594 30 593
3 596 595 590
3 590 155 596
3 595 153 590
3 596 35 595
3 599 597 598
3 598 104 599
3 597 154 598
3 599 64 597
3 593 383 598
3 598 154 593
3 383 104 598
3 593 30 383
3 237 592 597
3 597 64 237
3 592 154 597
3 237 17 592
3 384 240 599
3 599 104 384
3 240 64 599
3 384 6 240
3 602 600 601
3 601 120 602
3 600 153 601
3 602 103 600
3 595 439 601
3 601 153 595
3 439 120 601
3 595 35 439
3 377 594 600
3 600 103 377
3 594 153 600
3 377 30 594
3 440 378 602
3 602 120 440
3 378 103 602
3 440 1 378
3 605 603 604
3 604 65 605
3 603 155 604
3 605 119 603
3 591 245 604
3 604 155 591
3 245 65 604
3 591 17 245
3 433 596 603
3 603 119 433
3 596 155 603
3 433 35 596
3 246 434 605
3 605 65 246
3 434 119 605
3 246 11 434
3 608 606 607
3 607 158 608
3 606 157 607
3 608 156 606
3 610 609 607
3 607 157 610
3 609 158 607
3 610 15 609
3 612 611 606
3 606 156 612
3 611 157 606
3 612 28 611
3 614 613 608
3 608 158 614
3 613 156 608
3 614 41 613
3 617 615 616
3 616 95 617
3 615 157 616
3 617 55 615
3 611 350 616
3 616 157 611
3 350 95 616
3 611 28 350
3 209 610 615
3 615 55 209
3 610 157 615
3 209 15 610
3 351 210 617
3 617 95 351
3 210 55 617
3 351 7 210
3 620 618 619
3 619 135 620
3 618 156 619
3 620 94 618
3 613 490 619
3 619 156 613
3 490 135 619
3 613 41 490
3 342 612 618
3 618 94 342
3 612 156 618
3 342 28 612
3 491 345 620
3 620 135 491
3 345 94 620
3 491 2 345
3 623 621 622
3 622 56 623
3 621 158 622
3 623 134 621
3 609 215 622
3 622 158 609
3 215 56 622
3 609 15 215
3 484 614 621
3 621 134 484
3 614 158 621
3 484 41 614
3 216 485 623
3 623 56 216
3 485 134 623
3 216 9 485
3 626 624 625
3 625 161 626
3 624 160 625
3 626 159 624
3 628 627 625
3 625 160 628
3 627 161 625
3 628 31 627
3 630 629 624
3 624 159 630
3 629 160 624
3 630 20 629
3 632 631 626
3 626 161 632
3 631 159 626
3 632 40 631
3 635 633 634
3 634 73 635
3 633 160 634
3 635 105 633
3 629 272 634
3 634 160 629
3 272 73 634
3 629 20 272
3 382 628 633
3 633 105 382
3 628 160 633
3 382 31 628
3 273 385 635
3 635 73 273
3 385 105 635
3 273 6 385
3 638 636 637
3 637 137 638
3 636 159 637
3 638 72 636
3 631 496 637
3 637 159 631
3 496 137 637
3 631 40 496
3 265 630 636
3 636 72 265
3 630 159 636
3 265 20 630
3 497 268 638
3 638 137 497
3 268 72 638
3 497 10 268
3 641 639 640
3 640 102 641
3 639 161 640
3 641 136 639
3 627 372 640
3 640 161 627
3 372 102 640
3 627 31 372
3 489 632 639
3 639 136 489
3 632 161 639
3 489 40 632
3 373 492 641
3 641 102 373
3 492 136 641
3 373 2 492
