# vtk DataFile Version 3.0
this file was written using fslvtkio
ASCII
DATASET POLYDATA
POINTS 642 float
160.617 120.997 138.738
144.405 120.173 137.288
145.569 121.898 131.536
160.418 124.001 132.039
157.206 117.008 130.055
157.875 129.828 138.628
147.938 127.502 137.503
148.164 115.624 129.668
152.297 116.45 136.762
153.974 119.659 127.277
153.542 124.643 133.959
152.437 123.844 140.615
149.739 114.853 133.313
155.174 115.677 133.666
153.405 115.176 128.277
151.007 117.02 126.124
157.159 117.91 125.16
149.663 126.58 140.653
152.423 130.08 138.666
155.48 127.724 141.541
150.825 126.46 135.933
155.788 128.379 135.818
159.708 120.19 130.223
159.308 118.718 134.735
161.628 123.141 135.678
160.585 127.862 135.363
160.426 125.904 139.823
144.927 117.281 133.593
144.771 118.676 129.295
141.961 122.202 134.228
145.335 124.076 137.976
146.246 124.322 134.655
156.98 122.849 140.306
156.737 118.303 138.035
152.2 119.719 139.141
148.081 121.768 139.486
147.587 117.022 137.207
157.258 124.562 133.296
153.509 122.099 130.621
157.888 121.544 128.682
149.577 123.016 132.778
149.145 120.164 128.74
152.632 114.951 133.368
154.113 115.313 131.064
151.646 114.869 130.994
155.549 115.827 128.965
156.311 116.267 131.807
153.777 115.708 135.486
150.931 115.331 135.197
148.778 114.946 131.395
150.824 114.928 128.688
152.354 115.106 126.062
155.6 115.764 126.288
154.349 116.939 124.076
157.357 117.159 127.562
149.358 115.986 127.526
152.587 118.309 126.218
155.602 119.203 125.402
150.93 128.832 140.15
153.846 129.628 140.742
152.461 127.491 141.312
156.842 129.122 140.57
155.141 130.327 138.73
149.994 129.112 138.086
148.68 127.41 139.3
151.072 125.279 140.989
153.904 125.791 141.161
153.192 127.427 136.095
154.08 129.656 136.968
151.484 128.808 136.92
156.979 129.876 136.822
154.597 126.181 135.233
152.275 125.453 135.089
149.281 127.361 136.493
159.615 119.542 132.531
161.005 120.603 135.123
160.713 121.593 133.211
161.691 122.091 137.374
160.262 119.545 136.891
158.086 117.909 132.365
158.58 118.475 129.918
160.507 122.052 131.123
161.465 123.776 133.636
161.572 125.666 135.555
161.748 124.631 137.844
160.978 127.24 137.694
160.946 123.308 139.565
160.621 125.893 133.638
159.487 129.299 136.996
159.245 128.155 139.578
144.075 117.958 131.452
142.38 120.394 131.475
142.866 119.558 133.844
143.257 122.429 132.334
144.615 120.804 130.125
146.203 116.749 129.219
146.286 116.192 131.726
144.359 118.683 135.538
142.79 121.114 136.081
142.881 123.468 136.372
143.584 123.768 134.181
145.01 125.071 136.125
145.601 123.133 133.077
144.348 122.161 137.854
146.505 126.092 138.161
147.186 126.012 136.077
157.007 120.167 139.576
154.594 118.921 138.971
154.777 121.223 139.822
152.17 118.006 138.042
154.52 117.329 137.453
158.915 119.266 138.504
159.025 121.732 139.782
154.636 123.495 140.473
152.38 121.81 139.957
150.031 120.586 139.418
149.803 118.471 138.255
147.678 119.418 138.457
149.891 116.554 136.968
150.292 122.807 140.182
145.93 120.822 138.648
145.651 118.341 137.392
155.562 123.137 131.841
155.8 121.89 129.737
157.641 122.956 131.014
155.989 120.459 127.683
153.781 120.708 128.941
153.562 123.226 132.51
155.403 124.585 133.797
158.933 124.46 132.479
159.39 122.676 130.269
149.32 121.649 130.666
151.421 121.163 129.659
151.562 122.366 131.779
151.618 119.59 128.102
147.09 120.95 130.106
147.566 122.286 132.042
151.611 123.813 133.44
157.223 117.187 134.102
156.024 116.875 136.026
158.261 118.098 136.553
158.835 124.363 140.595
156.27 125.326 140.985
158.121 126.929 140.936
157.692 120.153 126.368
158.691 118.806 127.531
159.524 121.018 128.769
158.852 126.138 134.326
158.243 128.543 135.348
156.684 126.165 134.975
148.357 115.541 135.473
147.001 115.494 133.589
145.902 116.756 135.655
146.742 123.086 138.983
147.716 125.269 139.256
148.972 124.155 140.285
146.811 119.426 128.577
147.763 117.542 127.479
149.855 118.57 127.341
150.209 124.63 134.461
148.639 125.207 135.349
147.903 123.64 133.786
153.47 114.948 132.328
152.965 114.968 131.054
152.145 114.708 132.239
152.528 114.905 129.82
153.637 115.152 129.77
154.646 115.286 132.386
153.993 115.176 133.413
151.229 114.888 133.269
150.809 114.719 132.136
154.726 115.459 130.028
155.211 115.699 131.453
155.726 116.045 130.47
155.747 115.811 132.711
154.521 115.382 128.611
156.419 116.366 129.521
156.702 116.682 130.905
153.215 115.269 134.32
151.735 115.143 134.219
152.401 115.415 135.17
150.33 115.045 134.27
154.419 115.656 134.558
153.009 115.946 136.191
151.682 115.713 136.045
150.307 114.858 131.155
151.257 114.909 129.923
149.907 114.917 130.172
152.186 114.92 128.501
149.298 114.768 132.318
148.524 115.239 130.499
149.488 115.159 129.13
154.061 115.393 126.064
155.202 116.027 124.729
153.354 115.788 124.745
156.06 117.264 124.054
156.413 116.668 125.401
154.527 115.354 127.285
153.021 114.964 127.146
151.697 116.035 125.582
152.571 116.891 124.754
156.604 116.408 126.756
155.57 115.723 127.736
156.57 116.387 128.326
157.371 117.37 126.229
157.249 117.08 128.847
151.604 114.818 127.383
150.897 115.498 126.655
150.117 115.289 127.985
150.189 116.382 126.552
148.682 115.717 128.538
153.351 117.846 124.776
155.163 118.21 124.31
154.168 118.724 125.438
156.55 118.729 124.759
151.798 117.661 125.928
153.39 118.95 126.719
154.79 119.419 126.328
152.291 129.423 140.576
153.116 128.623 141.343
151.624 128.327 141.063
153.942 127.785 141.48
154.596 128.742 141.381
153.025 129.95 139.744
151.658 129.584 139.421
150.381 127.847 140.616
151.07 127.22 141.003
155.339 129.486 140.752
154.43 130.07 139.767
155.848 129.869 139.7
153.777 130.32 138.854
156.142 128.539 141.343
157.207 129.47 139.513
156.468 130.073 138.674
150.441 129.047 139.117
149.775 128.171 139.819
149.289 128.393 138.746
149.183 127.068 140.074
151.136 129.693 138.463
148.885 128.377 137.813
148.212 127.693 138.413
151.719 126.445 141.209
153.24 126.721 141.361
152.485 125.66 141.111
154.662 126.788 141.407
150.44 126.057 140.967
151.841 124.607 140.787
153.133 124.821 140.946
153.654 128.532 136.435
152.747 129.369 136.973
152.37 128.033 136.487
151.855 129.719 137.701
153.226 130.126 137.876
154.944 129.061 136.435
154.513 127.955 136.017
151.964 126.994 136.108
151.227 127.596 136.423
154.516 130.198 137.849
155.451 129.894 136.932
156.012 130.235 137.774
156.338 129.364 136.212
157.423 130.056 137.736
153.936 126.903 135.667
152.642 126.469 135.661
153.406 125.807 135.227
151.58 125.988 135.524
155.186 127.274 135.573
154.083 125.314 134.757
152.97 124.992 134.599
150.353 128.186 136.662
150.677 129.254 137.425
149.531 128.478 137.174
150.091 126.898 136.201
148.579 127.618 136.951
160.279 120.05 133.754
160.942 121.108 134.003
160.115 120.534 132.776
161.357 122.291 134.361
161.466 121.759 135.346
160.241 119.617 134.88
159.514 119.159 133.654
159.761 119.903 131.4
160.255 120.85 131.752
161.456 121.222 136.29
160.707 120.075 136.076
161.126 120.749 137.075
159.853 119.11 135.845
161.758 122.554 136.44
161.256 121.547 138.134
160.629 120.279 137.822
158.894 118.745 132.484
159.105 119.019 131.21
158.321 118.219 131.211
159.189 119.324 130.04
158.714 118.313 133.541
157.542 117.467 131.184
157.935 117.66 130
160.669 121.806 132.063
161.268 122.583 133.48
161.077 122.897 132.435
161.545 123.475 134.639
160.157 121.061 130.73
160.595 123.088 131.663
161.166 124.025 132.769
161.62 125.139 136.694
161.374 125.905 137.756
161.463 126.436 136.608
160.797 126.587 138.78
161.306 125.355 138.894
161.784 123.936 136.695
161.612 124.417 135.626
161.22 126.863 135.51
161.047 127.699 136.522
161.449 124.054 138.688
161.858 123.322 137.471
161.476 122.759 138.405
160.83 124.616 139.775
160.82 122.193 139.156
161.55 124.715 134.539
161.333 125.981 134.545
161.283 124.959 133.542
160.673 126.835 134.576
160.634 124.95 132.859
160.394 128.341 137.383
160.232 127.753 138.608
159.612 128.884 138.364
160.005 127.131 139.748
160.2 128.625 136.182
158.769 129.672 137.865
158.614 129.136 139.132
143.018 119.136 131.433
142.334 119.957 132.741
143.312 118.76 132.656
142.184 120.793 134.014
141.832 121.241 132.892
143.397 119.522 130.421
144.066 118.29 130.284
144.343 117.737 132.576
143.781 118.385 133.614
142.582 121.547 131.903
143.267 120.648 130.64
143.626 121.66 131.177
144.384 119.849 129.696
142.309 122.346 133.092
144.346 122.205 131.827
144.92 121.554 130.886
144.999 117.317 130.353
145.122 117.078 131.556
146.033 116.463 130.546
145.379 116.713 132.641
145.342 117.607 129.156
147.207 116.099 129.475
147.215 115.786 130.757
143.655 119.109 134.643
142.73 120.283 134.93
143.475 119.826 135.75
142.213 121.584 135.196
144.492 117.966 134.504
144.236 119.461 136.472
143.531 120.651 136.725
142.802 123.871 135.157
144.239 124.458 135.155
143.809 124.406 136.239
145.47 124.808 135.304
144.879 124.189 134.391
142.505 123.12 134.035
142.145 122.853 135.332
143.912 123.879 137.247
144.879 124.73 137.165
144.558 123.429 133.613
143.255 123.018 133.328
144.407 122.745 132.677
145.833 123.669 133.885
145.445 122.489 132.291
142.501 122.314 136.293
143.41 122.887 137.273
143.25 121.754 137.101
144.628 123.188 137.926
144.153 121.154 137.638
145.708 125.53 137.077
146.103 125.565 136.066
146.581 126.343 136.994
146.685 125.08 135.405
145.885 125.08 138.074
147.144 126.948 137.886
147.544 126.891 136.759
155.801 119.515 139.265
154.674 119.964 139.488
155.876 120.661 139.751
153.583 120.414 139.495
153.462 119.4 139.149
155.705 118.547 138.592
156.854 119.125 138.93
156.99 121.445 139.935
155.927 121.957 140.081
153.382 118.505 138.511
154.549 118.09 138.217
153.336 117.704 137.775
155.633 117.823 137.723
152.234 118.852 138.63
152.185 117.141 137.414
153.376 116.811 137.09
158.027 119.641 139.197
158.07 120.924 139.715
159.102 120.337 139.242
157.987 122.291 140.082
157.811 118.754 138.352
159.937 119.945 138.547
159.958 121.245 139.363
154.768 122.378 140.169
153.566 121.543 139.867
153.514 122.651 140.296
152.375 120.744 139.567
155.836 123.228 140.362
153.478 123.732 140.543
152.353 122.838 140.297
149.948 119.577 138.799
148.694 118.908 138.394
148.86 120.063 138.947
147.549 118.17 137.917
148.624 117.723 137.819
151.021 119.15 138.66
151.105 120.137 139.209
148.948 121.067 139.456
147.91 120.542 138.985
149.759 117.437 137.668
151.06 118.293 138.095
151.005 117.227 137.521
148.736 116.742 137.135
151.125 116.394 136.886
151.286 121.126 139.7
150.114 121.61 139.814
151.282 122.267 140.01
149.185 122.204 139.897
151.413 123.363 140.417
146.815 120.098 138.6
146.592 118.753 138.074
145.642 119.502 138.201
146.567 117.631 137.402
147.134 121.277 138.981
145.036 120.452 138.052
144.943 119.212 137.333
155.679 122.474 130.842
156.772 122.418 130.293
156.61 123.03 131.526
157.732 122.334 129.782
156.871 121.821 129.158
154.767 122.023 130.208
154.6 122.57 131.133
156.519 123.711 132.537
157.339 123.591 132.211
155.987 121.136 128.806
154.87 121.353 129.255
154.901 120.478 128.367
153.759 121.561 129.725
156.958 120.941 128.223
154.949 119.951 127.367
153.823 120.018 128.119
154.607 123.174 132.154
155.565 123.823 132.846
154.563 123.937 133.07
156.339 124.504 133.544
153.617 122.74 131.514
153.522 123.984 133.295
154.454 124.649 133.883
158.273 123.545 131.824
158.506 122.842 130.598
159.13 123.394 131.503
158.655 122.172 129.472
158.052 124.488 132.845
159.727 124.242 132.187
159.918 123.22 131.233
150.351 121.429 130.109
151.503 121.915 130.655
150.485 122.052 131.206
152.542 122.299 131.215
152.485 121.629 130.188
150.314 120.639 129.167
149.246 120.914 129.731
149.483 122.216 131.752
150.514 122.605 132.208
152.684 121.028 129.331
151.525 120.465 128.887
152.723 120.154 128.534
150.395 119.868 128.419
152.799 119.516 127.66
148.258 121.277 130.364
148.422 121.875 131.424
147.285 121.581 131.048
148.607 122.635 132.35
148.134 120.613 129.455
146.167 121.428 130.798
146.522 122.08 131.75
151.55 123.017 132.642
152.638 122.739 132.125
152.56 123.595 132.972
150.606 123.353 133.107
152.627 124.239 133.736
156.666 116.916 135.013
157.171 117.513 136.242
157.822 117.688 135.366
157.602 118.149 137.381
156.45 117.568 137.055
155.592 116.214 134.794
156.231 116.29 133.729
158.345 117.933 134.436
158.84 118.367 135.649
155.348 117.108 136.839
154.944 116.236 135.7
154.161 116.529 136.541
156.785 116.579 132.93
157.72 117.514 133.241
157.198 117.126 132.05
159.306 118.706 136.621
158.567 118.689 137.541
159.643 119.299 137.659
157.579 124.848 140.764
157.236 126.155 141.109
158.603 125.68 140.79
156.81 127.34 141.335
155.918 126.504 141.286
156.653 124.119 140.637
157.861 123.649 140.498
159.782 125.113 140.385
159.433 126.508 140.522
155.057 125.593 141.076
155.446 124.391 140.782
154.192 124.589 140.871
158.897 123.048 140.21
159.999 123.839 140.267
159.991 122.48 139.837
158.853 127.632 140.5
157.439 128.06 141.019
158.088 128.804 140.131
158.593 119.437 126.515
159.225 119.871 127.991
158.692 120.544 127.44
159.663 120.538 129.44
159.149 119.502 128.961
158.086 118.281 126.227
157.595 119.116 125.45
157.741 120.792 127.689
158.754 121.414 128.527
158.628 118.728 128.833
158.061 117.948 127.416
157.98 117.795 128.836
156.695 119.702 125.706
156.862 120.289 127.09
155.796 119.834 126.55
159.417 121.906 129.469
160.006 121.342 130.024
160.155 122.417 130.671
158.617 127.391 134.858
157.394 127.368 135.141
157.78 126.146 134.58
156.302 127.371 135.372
157.006 128.493 135.554
159.483 128.332 135.271
159.723 127.186 134.693
158.04 125.311 133.822
156.971 125.263 134.193
157.63 129.402 135.934
159.023 129.161 135.907
158.286 129.716 136.841
159.764 126.2 133.98
158.842 125.277 133.363
159.878 125.268 132.904
155.998 125.266 134.462
155.636 126.226 135.16
154.974 125.291 134.667
147.652 115.417 134.525
146.292 116.077 134.626
147.052 115.993 135.617
145.301 116.962 134.653
145.833 116.318 133.619
148.313 114.95 133.451
149.011 115.182 134.389
147.92 116.184 136.446
146.685 116.729 136.508
146.619 115.995 132.681
147.888 115.154 132.556
147.558 115.504 131.59
149.671 115.413 135.292
149.089 115.955 136.367
150.428 115.735 136.272
145.772 117.492 136.564
145.033 117.636 135.558
144.934 118.445 136.524
147.201 124.208 139.138
148.351 124.803 139.894
147.908 123.543 139.598
149.372 125.449 140.564
148.661 125.929 140.007
146.567 124.671 138.637
145.967 123.602 138.588
147.424 122.432 139.243
148.531 122.912 139.857
148.245 126.381 139.406
147.1 125.667 138.788
147.634 126.758 138.696
145.45 122.627 138.514
146.354 121.984 138.809
145.092 121.489 138.362
149.594 123.439 140.263
149.996 124.77 140.722
150.766 124.014 140.593
147.093 118.52 128
148.753 118.119 127.163
148.28 119.018 127.923
150.354 117.86 126.602
149.449 117.192 126.729
146.13 117.972 128.316
145.644 119.114 128.76
148.046 119.78 128.595
149.427 119.355 128.05
148.522 116.624 127.338
146.836 117.086 128.293
147.777 116.281 128.456
145.681 120.035 129.246
146.994 120.298 129.216
145.904 120.789 130.075
150.714 119.006 127.755
151.183 118.35 126.783
152.046 118.851 127.266
149.46 124.896 134.948
148.262 124.361 134.59
149.107 124.049 134.129
147.05 123.958 134.182
147.444 124.697 134.952
149.756 125.865 135.647
150.525 125.58 135.222
149.881 123.67 133.754
148.747 123.373 133.292
147.905 125.529 135.724
149.038 126.22 136
148.255 126.685 136.39
151.254 125.082 134.827
150.897 124.166 133.972
152.021 124.615 134.281
147.731 123.109 132.88
146.755 123.386 133.421
146.588 122.727 132.6
POLYGONS 1280  5120
3 164 162 163
3 163 44 164
3 162 43 163
3 164 42 162
3 166 165 163
3 163 43 166
3 165 44 163
3 166 14 165
3 168 167 162
3 162 42 168
3 167 43 162
3 168 13 167
3 170 169 164
3 164 44 170
3 169 42 164
3 170 12 169
3 173 171 172
3 172 46 173
3 171 43 172
3 173 45 171
3 167 174 172
3 172 43 167
3 174 46 172
3 167 13 174
3 175 166 171
3 171 45 175
3 166 43 171
3 175 14 166
3 177 176 173
3 173 46 177
3 176 45 173
3 177 4 176
3 180 178 179
3 179 48 180
3 178 42 179
3 180 47 178
3 169 181 179
3 179 42 169
3 181 48 179
3 169 12 181
3 182 168 178
3 178 47 182
3 168 42 178
3 182 13 168
3 184 183 180
3 180 48 184
3 183 47 180
3 184 8 183
3 187 185 186
3 186 50 187
3 185 44 186
3 187 49 185
3 165 188 186
3 186 44 165
3 188 50 186
3 165 14 188
3 189 170 185
3 185 49 189
3 170 44 185
3 189 12 170
3 191 190 187
3 187 50 191
3 190 49 187
3 191 7 190
3 194 192 193
3 193 53 194
3 192 52 193
3 194 51 192
3 196 195 193
3 193 52 196
3 195 53 193
3 196 16 195
3 198 197 192
3 192 51 198
3 197 52 192
3 198 14 197
3 200 199 194
3 194 53 200
3 199 51 194
3 200 15 199
3 203 201 202
3 202 45 203
3 201 52 202
3 203 54 201
3 197 175 202
3 202 52 197
3 175 45 202
3 197 14 175
3 204 196 201
3 201 54 204
3 196 52 201
3 204 16 196
3 176 205 203
3 203 45 176
3 205 54 203
3 176 4 205
3 208 206 207
3 207 55 208
3 206 51 207
3 208 50 206
3 199 209 207
3 207 51 199
3 209 55 207
3 199 15 209
3 188 198 206
3 206 50 188
3 198 51 206
3 188 14 198
3 210 191 208
3 208 55 210
3 191 50 208
3 210 7 191
3 213 211 212
3 212 57 213
3 211 53 212
3 213 56 211
3 195 214 212
3 212 53 195
3 214 57 212
3 195 16 214
3 215 200 211
3 211 56 215
3 200 53 211
3 215 15 200
3 217 216 213
3 213 57 217
3 216 56 213
3 217 9 216
3 220 218 219
3 219 60 220
3 218 59 219
3 220 58 218
3 222 221 219
3 219 59 222
3 221 60 219
3 222 19 221
3 224 223 218
3 218 58 224
3 223 59 218
3 224 18 223
3 226 225 220
3 220 60 226
3 225 58 220
3 226 17 225
3 229 227 228
3 228 62 229
3 227 59 228
3 229 61 227
3 223 230 228
3 228 59 223
3 230 62 228
3 223 18 230
3 231 222 227
3 227 61 231
3 222 59 227
3 231 19 222
3 233 232 229
3 229 62 233
3 232 61 229
3 233 5 232
3 236 234 235
3 235 64 236
3 234 58 235
3 236 63 234
3 225 237 235
3 235 58 225
3 237 64 235
3 225 17 237
3 238 224 234
3 234 63 238
3 224 58 234
3 238 18 224
3 240 239 236
3 236 64 240
3 239 63 236
3 240 6 239
3 243 241 242
3 242 66 243
3 241 60 242
3 243 65 241
3 221 244 242
3 242 60 221
3 244 66 242
3 221 19 244
3 245 226 241
3 241 65 245
3 226 60 241
3 245 17 226
3 247 246 243
3 243 66 247
3 246 65 243
3 247 11 246
3 250 248 249
3 249 69 250
3 248 68 249
3 250 67 248
3 252 251 249
3 249 68 252
3 251 69 249
3 252 18 251
3 254 253 248
3 248 67 254
3 253 68 248
3 254 21 253
3 256 255 250
3 250 69 256
3 255 67 250
3 256 20 255
3 259 257 258
3 258 70 259
3 257 68 258
3 259 62 257
3 253 260 258
3 258 68 253
3 260 70 258
3 253 21 260
3 230 252 257
3 257 62 230
3 252 68 257
3 230 18 252
3 261 233 259
3 259 70 261
3 233 62 259
3 261 5 233
3 264 262 263
3 263 72 264
3 262 67 263
3 264 71 262
3 255 265 263
3 263 67 255
3 265 72 263
3 255 20 265
3 266 254 262
3 262 71 266
3 254 67 262
3 266 21 254
3 268 267 264
3 264 72 268
3 267 71 264
3 268 10 267
3 271 269 270
3 270 63 271
3 269 69 270
3 271 73 269
3 251 238 270
3 270 69 251
3 238 63 270
3 251 18 238
3 272 256 269
3 269 73 272
3 256 69 269
3 272 20 256
3 239 273 271
3 271 63 239
3 273 73 271
3 239 6 273
3 276 274 275
3 275 76 276
3 274 75 275
3 276 74 274
3 278 277 275
3 275 75 278
3 277 76 275
3 278 24 277
3 280 279 274
3 274 74 280
3 279 75 274
3 280 23 279
3 282 281 276
3 276 76 282
3 281 74 276
3 282 22 281
3 285 283 284
3 284 78 285
3 283 75 284
3 285 77 283
3 279 286 284
3 284 75 279
3 286 78 284
3 279 23 286
3 287 278 283
3 283 77 287
3 278 75 283
3 287 24 278
3 289 288 285
3 285 78 289
3 288 77 285
3 289 0 288
3 292 290 291
3 291 80 292
3 290 74 291
3 292 79 290
3 281 293 291
3 291 74 281
3 293 80 291
3 281 22 293
3 294 280 290
3 290 79 294
3 280 74 290
3 294 23 280
3 296 295 292
3 292 80 296
3 295 79 292
3 296 4 295
3 299 297 298
3 298 82 299
3 297 76 298
3 299 81 297
3 277 300 298
3 298 76 277
3 300 82 298
3 277 24 300
3 301 282 297
3 297 81 301
3 282 76 297
3 301 22 282
3 303 302 299
3 299 82 303
3 302 81 299
3 303 3 302
3 306 304 305
3 305 85 306
3 304 84 305
3 306 83 304
3 308 307 305
3 305 84 308
3 307 85 305
3 308 26 307
3 310 309 304
3 304 83 310
3 309 84 304
3 310 24 309
3 312 311 306
3 306 85 312
3 311 83 306
3 312 25 311
3 315 313 314
3 314 77 315
3 313 84 314
3 315 86 313
3 309 287 314
3 314 84 309
3 287 77 314
3 309 24 287
3 316 308 313
3 313 86 316
3 308 84 313
3 316 26 308
3 288 317 315
3 315 77 288
3 317 86 315
3 288 0 317
3 320 318 319
3 319 87 320
3 318 83 319
3 320 82 318
3 311 321 319
3 319 83 311
3 321 87 319
3 311 25 321
3 300 310 318
3 318 82 300
3 310 83 318
3 300 24 310
3 322 303 320
3 320 87 322
3 303 82 320
3 322 3 303
3 325 323 324
3 324 89 325
3 323 85 324
3 325 88 323
3 307 326 324
3 324 85 307
3 326 89 324
3 307 26 326
3 327 312 323
3 323 88 327
3 312 85 323
3 327 25 312
3 329 328 325
3 325 89 329
3 328 88 325
3 329 5 328
3 332 330 331
3 331 92 332
3 330 91 331
3 332 90 330
3 334 333 331
3 331 91 334
3 333 92 331
3 334 29 333
3 336 335 330
3 330 90 336
3 335 91 330
3 336 28 335
3 338 337 332
3 332 92 338
3 337 90 332
3 338 27 337
3 341 339 340
3 340 94 341
3 339 91 340
3 341 93 339
3 335 342 340
3 340 91 335
3 342 94 340
3 335 28 342
3 343 334 339
3 339 93 343
3 334 91 339
3 343 29 334
3 345 344 341
3 341 94 345
3 344 93 341
3 345 2 344
3 348 346 347
3 347 96 348
3 346 90 347
3 348 95 346
3 337 349 347
3 347 90 337
3 349 96 347
3 337 27 349
3 350 336 346
3 346 95 350
3 336 90 346
3 350 28 336
3 352 351 348
3 348 96 352
3 351 95 348
3 352 7 351
3 355 353 354
3 354 98 355
3 353 92 354
3 355 97 353
3 333 356 354
3 354 92 333
3 356 98 354
3 333 29 356
3 357 338 353
3 353 97 357
3 338 92 353
3 357 27 338
3 359 358 355
3 355 98 359
3 358 97 355
3 359 1 358
3 362 360 361
3 361 101 362
3 360 100 361
3 362 99 360
3 364 363 361
3 361 100 364
3 363 101 361
3 364 31 363
3 366 365 360
3 360 99 366
3 365 100 360
3 366 29 365
3 368 367 362
3 362 101 368
3 367 99 362
3 368 30 367
3 371 369 370
3 370 93 371
3 369 100 370
3 371 102 369
3 365 343 370
3 370 100 365
3 343 93 370
3 365 29 343
3 372 364 369
3 369 102 372
3 364 100 369
3 372 31 364
3 344 373 371
3 371 93 344
3 373 102 371
3 344 2 373
3 376 374 375
3 375 103 376
3 374 99 375
3 376 98 374
3 367 377 375
3 375 99 367
3 377 103 375
3 367 30 377
3 356 366 374
3 374 98 356
3 366 99 374
3 356 29 366
3 378 359 376
3 376 103 378
3 359 98 376
3 378 1 359
3 381 379 380
3 380 105 381
3 379 101 380
3 381 104 379
3 363 382 380
3 380 101 363
3 382 105 380
3 363 31 382
3 383 368 379
3 379 104 383
3 368 101 379
3 383 30 368
3 385 384 381
3 381 105 385
3 384 104 381
3 385 6 384
3 388 386 387
3 387 108 388
3 386 107 387
3 388 106 386
3 390 389 387
3 387 107 390
3 389 108 387
3 390 34 389
3 392 391 386
3 386 106 392
3 391 107 386
3 392 33 391
3 394 393 388
3 388 108 394
3 393 106 388
3 394 32 393
3 397 395 396
3 396 110 397
3 395 107 396
3 397 109 395
3 391 398 396
3 396 107 391
3 398 110 396
3 391 33 398
3 399 390 395
3 395 109 399
3 390 107 395
3 399 34 390
3 401 400 397
3 397 110 401
3 400 109 397
3 401 8 400
3 404 402 403
3 403 112 404
3 402 106 403
3 404 111 402
3 393 405 403
3 403 106 393
3 405 112 403
3 393 32 405
3 406 392 402
3 402 111 406
3 392 106 402
3 406 33 392
3 408 407 404
3 404 112 408
3 407 111 404
3 408 0 407
3 411 409 410
3 410 114 411
3 409 108 410
3 411 113 409
3 389 412 410
3 410 108 389
3 412 114 410
3 389 34 412
3 413 394 409
3 409 113 413
3 394 108 409
3 413 32 394
3 415 414 411
3 411 114 415
3 414 113 411
3 415 11 414
3 418 416 417
3 417 117 418
3 416 116 417
3 418 115 416
3 420 419 417
3 417 116 420
3 419 117 417
3 420 36 419
3 422 421 416
3 416 115 422
3 421 116 416
3 422 34 421
3 424 423 418
3 418 117 424
3 423 115 418
3 424 35 423
3 427 425 426
3 426 109 427
3 425 116 426
3 427 118 425
3 421 399 426
3 426 116 421
3 399 109 426
3 421 34 399
3 428 420 425
3 425 118 428
3 420 116 425
3 428 36 420
3 400 429 427
3 427 109 400
3 429 118 427
3 400 8 429
3 432 430 431
3 431 119 432
3 430 115 431
3 432 114 430
3 423 433 431
3 431 115 423
3 433 119 431
3 423 35 433
3 412 422 430
3 430 114 412
3 422 115 430
3 412 34 422
3 434 415 432
3 432 119 434
3 415 114 432
3 434 11 415
3 437 435 436
3 436 121 437
3 435 117 436
3 437 120 435
3 419 438 436
3 436 117 419
3 438 121 436
3 419 36 438
3 439 424 435
3 435 120 439
3 424 117 435
3 439 35 424
3 441 440 437
3 437 121 441
3 440 120 437
3 441 1 440
3 444 442 443
3 443 124 444
3 442 123 443
3 444 122 442
3 446 445 443
3 443 123 446
3 445 124 443
3 446 39 445
3 448 447 442
3 442 122 448
3 447 123 442
3 448 38 447
3 450 449 444
3 444 124 450
3 449 122 444
3 450 37 449
3 453 451 452
3 452 126 453
3 451 123 452
3 453 125 451
3 447 454 452
3 452 123 447
3 454 126 452
3 447 38 454
3 455 446 451
3 451 125 455
3 446 123 451
3 455 39 446
3 457 456 453
3 453 126 457
3 456 125 453
3 457 9 456
3 460 458 459
3 459 128 460
3 458 122 459
3 460 127 458
3 449 461 459
3 459 122 449
3 461 128 459
3 449 37 461
3 462 448 458
3 458 127 462
3 448 122 458
3 462 38 448
3 464 463 460
3 460 128 464
3 463 127 460
3 464 10 463
3 467 465 466
3 466 130 467
3 465 124 466
3 467 129 465
3 445 468 466
3 466 124 445
3 468 130 466
3 445 39 468
3 469 450 465
3 465 129 469
3 450 124 465
3 469 37 450
3 471 470 467
3 467 130 471
3 470 129 467
3 471 3 470
3 474 472 473
3 473 133 474
3 472 132 473
3 474 131 472
3 476 475 473
3 473 132 476
3 475 133 473
3 476 38 475
3 478 477 472
3 472 131 478
3 477 132 472
3 478 41 477
3 480 479 474
3 474 133 480
3 479 131 474
3 480 40 479
3 483 481 482
3 482 134 483
3 481 132 482
3 483 126 481
3 477 484 482
3 482 132 477
3 484 134 482
3 477 41 484
3 454 476 481
3 481 126 454
3 476 132 481
3 454 38 476
3 485 457 483
3 483 134 485
3 457 126 483
3 485 9 457
3 488 486 487
3 487 136 488
3 486 131 487
3 488 135 486
3 479 489 487
3 487 131 479
3 489 136 487
3 479 40 489
3 490 478 486
3 486 135 490
3 478 131 486
3 490 41 478
3 492 491 488
3 488 136 492
3 491 135 488
3 492 2 491
3 495 493 494
3 494 127 495
3 493 133 494
3 495 137 493
3 475 462 494
3 494 133 475
3 462 127 494
3 475 38 462
3 496 480 493
3 493 137 496
3 480 133 493
3 496 40 480
3 463 497 495
3 495 127 463
3 497 137 495
3 463 10 497
3 500 498 499
3 499 140 500
3 498 139 499
3 500 138 498
3 502 501 499
3 499 139 502
3 501 140 499
3 502 33 501
3 504 503 498
3 498 138 504
3 503 139 498
3 504 13 503
3 506 505 500
3 500 140 506
3 505 138 500
3 506 23 505
3 509 507 508
3 508 47 509
3 507 139 508
3 509 110 507
3 503 182 508
3 508 139 503
3 182 47 508
3 503 13 182
3 398 502 507
3 507 110 398
3 502 139 507
3 398 33 502
3 183 401 509
3 509 47 183
3 401 110 509
3 183 8 401
3 512 510 511
3 511 79 512
3 510 138 511
3 512 46 510
3 505 294 511
3 511 138 505
3 294 79 511
3 505 23 294
3 174 504 510
3 510 46 174
3 504 138 510
3 174 13 504
3 295 177 512
3 512 79 295
3 177 46 512
3 295 4 177
3 515 513 514
3 514 111 515
3 513 140 514
3 515 78 513
3 501 406 514
3 514 140 501
3 406 111 514
3 501 33 406
3 286 506 513
3 513 78 286
3 506 140 513
3 286 23 506
3 407 289 515
3 515 111 407
3 289 78 515
3 407 0 289
3 518 516 517
3 517 143 518
3 516 142 517
3 518 141 516
3 520 519 517
3 517 142 520
3 519 143 517
3 520 19 519
3 522 521 516
3 516 141 522
3 521 142 516
3 522 32 521
3 524 523 518
3 518 143 524
3 523 141 518
3 524 26 523
3 527 525 526
3 526 113 527
3 525 142 526
3 527 66 525
3 521 413 526
3 526 142 521
3 413 113 526
3 521 32 413
3 244 520 525
3 525 66 244
3 520 142 525
3 244 19 520
3 414 247 527
3 527 113 414
3 247 66 527
3 414 11 247
3 530 528 529
3 529 86 530
3 528 141 529
3 530 112 528
3 523 316 529
3 529 141 523
3 316 86 529
3 523 26 316
3 405 522 528
3 528 112 405
3 522 141 528
3 405 32 522
3 317 408 530
3 530 86 317
3 408 112 530
3 317 0 408
3 533 531 532
3 532 61 533
3 531 143 532
3 533 89 531
3 519 231 532
3 532 143 519
3 231 61 532
3 519 19 231
3 326 524 531
3 531 89 326
3 524 143 531
3 326 26 524
3 232 329 533
3 533 61 232
3 329 89 533
3 232 5 329
3 536 534 535
3 535 146 536
3 534 145 535
3 536 144 534
3 538 537 535
3 535 145 538
3 537 146 535
3 538 22 537
3 540 539 534
3 534 144 540
3 539 145 534
3 540 16 539
3 542 541 536
3 536 146 542
3 541 144 536
3 542 39 541
3 545 543 544
3 544 54 545
3 543 145 544
3 545 80 543
3 539 204 544
3 544 145 539
3 204 54 544
3 539 16 204
3 293 538 543
3 543 80 293
3 538 145 543
3 293 22 538
3 205 296 545
3 545 54 205
3 296 80 545
3 205 4 296
3 548 546 547
3 547 125 548
3 546 144 547
3 548 57 546
3 541 455 547
3 547 144 541
3 455 125 547
3 541 39 455
3 214 540 546
3 546 57 214
3 540 144 546
3 214 16 540
3 456 217 548
3 548 125 456
3 217 57 548
3 456 9 217
3 551 549 550
3 550 81 551
3 549 146 550
3 551 130 549
3 537 301 550
3 550 146 537
3 301 81 550
3 537 22 301
3 468 542 549
3 549 130 468
3 542 146 549
3 468 39 542
3 302 471 551
3 551 81 302
3 471 130 551
3 302 3 471
3 554 552 553
3 553 149 554
3 552 148 553
3 554 147 552
3 556 555 553
3 553 148 556
3 555 149 553
3 556 21 555
3 558 557 552
3 552 147 558
3 557 148 552
3 558 25 557
3 560 559 554
3 554 149 560
3 559 147 554
3 560 37 559
3 563 561 562
3 562 88 563
3 561 148 562
3 563 70 561
3 557 327 562
3 562 148 557
3 327 88 562
3 557 25 327
3 260 556 561
3 561 70 260
3 556 148 561
3 260 21 556
3 328 261 563
3 563 88 328
3 261 70 563
3 328 5 261
3 566 564 565
3 565 129 566
3 564 147 565
3 566 87 564
3 559 469 565
3 565 147 559
3 469 129 565
3 559 37 469
3 321 558 564
3 564 87 321
3 558 147 564
3 321 25 558
3 470 322 566
3 566 129 470
3 322 87 566
3 470 3 322
3 569 567 568
3 568 71 569
3 567 149 568
3 569 128 567
3 555 266 568
3 568 149 555
3 266 71 568
3 555 21 266
3 461 560 567
3 567 128 461
3 560 149 567
3 461 37 560
3 267 464 569
3 569 71 267
3 464 128 569
3 267 10 464
3 572 570 571
3 571 152 572
3 570 151 571
3 572 150 570
3 574 573 571
3 571 151 574
3 573 152 571
3 574 27 573
3 576 575 570
3 570 150 576
3 575 151 570
3 576 12 575
3 578 577 572
3 572 152 578
3 577 150 572
3 578 36 577
3 581 579 580
3 580 49 581
3 579 151 580
3 581 96 579
3 575 189 580
3 580 151 575
3 189 49 580
3 575 12 189
3 349 574 579
3 579 96 349
3 574 151 579
3 349 27 574
3 190 352 581
3 581 49 190
3 352 96 581
3 190 7 352
3 584 582 583
3 583 118 584
3 582 150 583
3 584 48 582
3 577 428 583
3 583 150 577
3 428 118 583
3 577 36 428
3 181 576 582
3 582 48 181
3 576 150 582
3 181 12 576
3 429 184 584
3 584 118 429
3 184 48 584
3 429 8 184
3 587 585 586
3 586 97 587
3 585 152 586
3 587 121 585
3 573 357 586
3 586 152 573
3 357 97 586
3 573 27 357
3 438 578 585
3 585 121 438
3 578 152 585
3 438 36 578
3 358 441 587
3 587 97 358
3 441 121 587
3 358 1 441
3 590 588 589
3 589 155 590
3 588 154 589
3 590 153 588
3 592 591 589
3 589 154 592
3 591 155 589
3 592 17 591
3 594 593 588
3 588 153 594
3 593 154 588
3 594 30 593
3 596 595 590
3 590 155 596
3 595 153 590
3 596 35 595
3 599 597 598
3 598 104 599
3 597 154 598
3 599 64 597
3 593 383 598
3 598 154 593
3 383 104 598
3 593 30 383
3 237 592 597
3 597 64 237
3 592 154 597
3 237 17 592
3 384 240 599
3 599 104 384
3 240 64 599
3 384 6 240
3 602 600 601
3 601 120 602
3 600 153 601
3 602 103 600
3 595 439 601
3 601 153 595
3 439 120 601
3 595 35 439
3 377 594 600
3 600 103 377
3 594 153 600
3 377 30 594
3 440 378 602
3 602 120 440
3 378 103 602
3 440 1 378
3 605 603 604
3 604 65 605
3 603 155 604
3 605 119 603
3 591 245 604
3 604 155 591
3 245 65 604
3 591 17 245
3 433 596 603
3 603 119 433
3 596 155 603
3 433 35 596
3 246 434 605
3 605 65 246
3 434 119 605
3 246 11 434
3 608 606 607
3 607 158 608
3 606 157 607
3 608 156 606
3 610 609 607
3 607 157 610
3 609 158 607
3 610 15 609
3 612 611 606
3 606 156 612
3 611 157 606
3 612 28 611
3 614 613 608
3 608 158 614
3 613 156 608
3 614 41 613
3 617 615 616
3 616 95 617
3 615 157 616
3 617 55 615
3 611 350 616
3 616 157 611
3 350 95 616
3 611 28 350
3 209 610 615
3 615 55 209
3 610 157 615
3 209 15 610
3 351 210 617
3 617 95 351
3 210 55 617
3 351 7 210
3 620 618 619
3 619 135 620
3 618 156 619
3 620 94 618
3 613 490 619
3 619 156 613
3 490 135 619
3 613 41 490
3 342 612 618
3 618 94 342
3 612 156 618
3 342 28 612
3 491 345 620
3 620 135 491
3 345 94 620
3 491 2 345
3 623 621 622
3 622 56 623
3 621 158 622
3 623 134 621
3 609 215 622
3 622 158 609
3 215 56 622
3 609 15 215
3 484 614 621
3 621 134 484
3 614 158 621
3 484 41 614
3 216 485 623
3 623 56 216
3 485 134 623
3 216 9 485
3 626 624 625
3 625 161 626
3 624 160 625
3 626 159 624
3 628 627 625
3 625 160 628
3 627 161 625
3 628 31 627
3 630 629 624
3 624 159 630
3 629 160 624
3 630 20 629
3 632 631 626
3 626 161 632
3 631 159 626
3 632 40 631
3 635 633 634
3 634 73 635
3 633 160 634
3 635 105 633
3 629 272 634
3 634 160 629
3 272 73 634
3 629 20 272
3 382 628 633
3 633 105 382
3 628 160 633
3 382 31 628
3 273 385 635
3 635 73 273
3 385 105 635
3 273 6 385
3 638 636 637
3 637 137 638
3 636 159 637
3 638 72 636
3 631 496 637
3 637 159 631
3 496 137 637
3 631 40 496
3 265 630 636
3 636 72 265
3 630 159 636
3 265 20 630
3 497 268 638
3 638 137 497
3 268 72 638
3 497 10 268
3 641 639 640
3 640 102 641
3 639 161 640
3 641 136 639
3 627 372 640
3 640 161 627
3 372 102 640
3 627 31 372
3 489 632 639
3 639 136 489
3 632 161 639
3 489 40 632
3 373 492 641
3 641 102 373
3 492 136 641
3 373 2 492
