# vtk DataFile Version 3.0
this file was written using fslvtkio
ASCII
DATASET POLYDATA
POINTS 642 float
146.756 99.2539 121.543
130.004 100.196 124.254
133.871 106.298 107.874
151.982 106.794 106.104
147.168 93.1304 110.987
145.698 110.419 116.474
134.631 111.375 118.472
134.915 93.8113 112.055
138.673 90.8085 127.096
143.077 102.712 100.694
144.197 116.11 102.437
138.121 104.544 132.738
136.129 90.1091 119.808
143.756 89.6044 119.588
141.489 91.1031 110.76
138.844 97.5816 104.949
146.641 96.1784 103.211
134.758 109.207 127.787
140.544 112.095 116.76
141.204 107.056 124.525
139.676 113.813 108.871
146.726 114.552 108.74
150.671 99.4608 106.693
147.882 95.0613 117.246
150.149 103.004 113.177
149.881 110.148 109.992
146.342 105.223 119.506
131.588 95.3949 119.058
133.34 99.8183 109.425
129.937 103.258 116.097
130.615 107.166 123.497
132.8 110.358 112.243
142.881 101.005 128.006
144.114 93.6124 126.917
137.056 97.0545 132.627
131.73 103.33 132.081
132.603 94.5054 127.466
152.736 114.816 102.869
144.068 110.965 98.4466
149.818 104.964 100.709
137.131 112.466 102.658
136.8 104.956 101.158
140.041 89.1086 119.458
142.549 89.3031 115.099
138.717 90.1752 115.103
144.713 91.1836 110.304
145.671 90.9042 115.402
141.559 89.4644 123.567
137.352 90.0446 123.595
135.183 91.364 115.788
137.948 92.1517 111.113
140.085 93.8611 107.565
143.91 93.3673 106.672
142.589 96.2302 103.835
147.357 94.4506 106.788
136.876 95.6068 108.457
140.771 99.8016 102.213
144.791 99.0846 101.485
137.699 110.145 122.816
140.561 109.701 121.043
138.447 108.542 126.459
143.348 108.492 120.242
143.183 111.595 116.898
137.689 111.568 118.051
134.612 110.617 123.32
136.65 107.541 130.682
139.855 105.935 128.841
143.024 115.297 108.852
143.727 113.441 112.384
140.15 112.945 112.905
146.142 112.581 112.798
145.658 116.591 105.906
141.258 115.801 105.61
137.196 111.956 113.529
149.411 97.3859 111.858
148.707 99.035 114.657
150.484 100.9 110.392
148.093 100.969 117.14
147.478 97.1255 119.411
147.774 93.9732 114.068
149.109 96.1253 108.99
151.512 102.911 106.33
151.291 104.989 109.712
150.564 106.812 112.057
148.182 104.069 116.079
148.768 107.61 114.8
146.747 102.372 120.741
151.404 109.404 107.704
148.153 110.282 113.726
145.798 107.633 117.984
131.72 97.4073 114.134
131.089 101.202 112.702
129.987 99.0833 117.112
131.375 104.767 111.754
133.358 103.069 108.516
133.979 96.7533 110.582
132.892 94.287 115.546
130.076 97.5562 121.392
129.648 101.643 120.103
130.162 105.436 119.658
131.231 106.984 114.352
131.45 108.623 117.656
133.069 108.42 109.97
130.121 103.774 123.889
131.946 110.112 121.155
133.535 111.296 115.195
143.431 97.1957 128.487
141.127 94.3018 131.034
140.652 98.8569 132.096
137.603 93.4506 130.452
141.93 91.3284 127.52
145.769 96.506 124.499
145.093 100.04 124.888
140.726 102.721 130.279
137.248 101.22 133.613
133.79 100.52 133.468
134.21 95.8395 130.944
131.309 98.7264 130.332
135.183 92.0982 127.608
134.411 105.441 133.635
130.398 101.383 128.2
130.778 97.1294 126.02
149.068 113.435 99.6142
147.112 108.486 99.5112
151.307 110.263 100.925
146.311 103.758 100.408
143.373 106.691 99.3287
144.076 114.223 99.7265
148.839 116.38 102.657
152.978 110.333 104.096
152.204 105.61 102.968
136.346 109.099 100.586
140.072 108.004 98.8124
139.958 112.196 99.1035
139.846 103.853 100.701
134.708 105.699 103.961
135.09 109.262 104.949
140.138 114.939 102.293
146.406 91.9806 118.75
144.414 91.097 123.603
146.269 94.1543 122.291
144.797 103.073 123.946
142.365 104.292 126.549
144.085 106.101 122.384
148.268 100.333 101.189
149.492 97.37 104.574
151.259 101.832 102.826
152.145 113.282 106.603
148.224 112.043 109.848
149.806 116.794 106.183
133.867 91.1837 124.02
133.224 91.9935 119.516
131.732 94.5825 123.448
130.541 104.909 128.043
131.901 109.087 125.886
132.755 107.167 131.11
135.081 102.345 105.044
135.868 98.7189 106.698
137.532 101.154 102.928
137.868 113.733 106.127
136.263 111.574 110.833
135.378 110.859 107.689
141.205 88.94 117.219
140.544 89.5657 115.119
139.306 89.545 117.291
140.228 90.4401 113.001
141.884 89.894 113.069
143.112 89.113 117.321
141.964 88.9666 119.383
138.163 89.5694 119.479
137.53 89.9802 117.559
143.567 90.0494 112.794
144.184 89.8293 115.186
144.957 90.5871 113.024
144.723 89.9895 117.457
143.067 90.8379 110.605
145.958 91.8629 110.736
146.238 91.6471 113.045
140.797 88.9859 121.456
138.737 89.3543 121.485
139.514 89.3601 123.234
136.766 89.9597 121.668
142.668 89.3216 121.575
140.06 89.8765 125.182
138.12 90.2198 125.195
136.939 90.6397 115.58
138.404 90.9588 113.056
136.658 91.5801 113.483
139.715 91.5051 110.998
135.679 90.5546 117.775
135.128 92.3337 113.704
136.38 92.7571 111.63
141.931 93.5339 107.072
143.153 94.7161 105.181
141.187 95.0321 105.583
144.582 95.948 103.566
145.144 94.6444 104.887
142.668 92.1725 108.576
140.82 92.3571 109.043
139.578 95.6449 106.07
140.614 96.6024 104.481
145.724 93.5772 106.526
144.301 92.0232 108.356
146.124 92.5473 108.417
147.001 95.045 104.785
147.267 93.621 108.895
138.992 92.8817 109.24
138.349 94.674 107.754
137.207 93.6573 109.552
138.051 96.3704 106.596
135.817 94.4817 110.218
141.543 97.7987 102.944
143.696 97.45 102.415
142.675 99.175 101.844
145.756 97.3897 102.067
139.789 98.4663 103.463
141.993 101.09 101.306
143.871 100.706 100.964
139.347 109.977 121.991
139.664 108.846 123.847
138.11 109.437 124.651
139.897 107.858 125.365
140.799 108.386 123.038
140.287 110.76 118.977
138.995 110.812 120.094
136.338 109.607 125.332
136.694 108.96 127.041
141.815 109.018 120.715
141.614 110.362 118.686
142.894 109.718 118.576
141.839 111.953 116.878
142.177 107.804 122.363
144.249 109.282 118.034
144.385 111.013 116.768
137.624 110.929 120.485
136.143 110.299 123.254
136.125 110.953 120.87
134.699 109.866 125.617
139.153 111.761 117.653
136.22 111.471 118.379
134.703 111.105 120.79
137.731 108.242 128.512
139.472 107.401 127.615
138.507 106.994 129.942
140.557 106.518 126.663
135.874 108.492 129.098
137.566 106.266 131.943
139.173 105.425 130.951
143.314 114.154 110.339
141.977 113.363 112.533
141.758 113.735 110.529
140.448 112.7 114.84
142.225 112.875 114.552
144.981 113.997 110.153
144.771 115.134 109.019
141.403 114.623 108.938
140.204 113.324 110.582
143.292 112.71 115.159
144.846 113.082 112.598
144.822 112.334 115.085
146.224 113.36 110.453
146.015 111.753 114.891
144.191 116.38 107.705
142.004 116.094 107.491
143.477 116.314 105.853
140.339 115.264 107.48
146.049 116.131 107.833
144.758 116.553 104.202
142.662 116.199 104.113
138.766 112.461 113.049
138.926 112.219 115.608
137.416 111.932 115.712
138.611 112.519 111.053
135.9 111.69 116.236
149.123 98.1436 113.399
149.915 99.9961 112.601
149.964 99.098 111.067
150.402 101.79 111.865
149.575 100.96 113.784
148.345 97.0412 115.814
148.464 96.4532 114.383
150.001 98.5032 109.354
150.639 100.045 108.781
148.484 99.9958 115.909
148.14 98.0294 117.019
147.88 99.053 118.166
147.743 96.1112 118.267
148.879 101.871 114.902
147.429 100.161 119.277
147.185 98.2744 120.409
148.53 95.7082 113.028
149.336 96.7386 110.429
148.413 95.0003 111.583
149.976 97.8539 107.843
147.846 94.7024 115.574
147.488 93.2608 112.656
148.198 94.5441 110.04
151.015 101.842 108.334
150.938 102.803 110.138
151.304 103.705 108.257
150.801 103.99 111.489
151.063 101.111 106.528
151.812 104.742 106.466
151.451 105.797 107.913
149.399 105.246 114.261
148.255 105.745 115.593
149.64 107.078 113.578
147.268 106.24 116.734
147.225 104.825 117.674
149.311 103.672 114.382
150.34 105.058 112.709
150.443 108.574 111.148
149.717 108.956 112.602
147.422 103.32 118.337
148.276 102.572 116.489
147.448 101.775 118.797
146.636 103.856 120.104
146.841 100.849 121.107
151.05 106.127 110.793
150.919 108.177 109.676
151.264 107.206 108.746
150.556 109.925 108.76
151.775 108.002 107.029
148.65 109.043 114.24
147.195 107.612 116.273
147.29 109.13 115.961
146.092 106.407 118.526
149.262 110.213 111.93
146.955 110.411 115.422
145.646 108.87 117.238
131.273 99.2863 113.223
130.335 100.14 114.825
130.827 98.2686 115.517
129.775 101.064 116.405
130.117 102.009 114.455
132.123 100.217 111.165
132.231 98.5116 111.813
131.416 96.4936 116.583
130.623 97.2275 117.772
131.095 102.946 112.268
132.279 102.023 110.628
132.492 103.814 110.261
133.216 101.387 108.966
130.414 103.892 113.93
132.759 105.531 109.921
133.59 104.722 108.16
132.813 96.9595 112.323
132.329 95.8994 114.903
133.31 95.3805 113.111
132.191 94.8498 117.39
133.473 98.2561 110.023
134.391 95.2343 111.305
133.82 93.736 113.842
129.921 98.1816 119.192
129.645 100.331 118.51
129.676 99.5551 120.694
129.721 102.375 117.993
130.774 96.4214 120.051
129.883 98.9233 122.753
129.77 100.926 122.149
130.452 105.893 116.882
131.334 107.616 116.022
130.709 106.903 118.605
131.957 109.404 115.053
131.964 108.828 113.347
130.439 105.099 115.387
129.928 104.414 117.747
130.361 106.455 121.432
130.964 107.838 120.268
131.818 107.719 112.128
130.996 105.762 113.141
132.125 106.614 110.995
132.668 109.423 111.047
133.496 107.27 109.084
129.802 103.6 119.749
130.023 104.757 121.776
129.852 102.881 121.852
130.173 105.57 123.83
130.001 101.979 123.968
131.612 109.378 119.429
132.087 110.237 116.544
132.456 111.003 118.184
132.907 110.907 113.751
131.224 108.527 122.278
133.18 111.162 119.852
134.118 111.467 116.821
142.612 95.8162 130.215
141.141 96.5259 131.693
142.268 97.6957 130.599
139.219 97.6236 132.578
139.333 95.5725 132.014
142.77 93.8593 129.428
143.662 95.2333 128.202
142.87 99.0638 129.016
141.725 99.7835 130.509
139.379 93.6951 130.907
141.442 92.5906 129.579
139.811 92.079 129.35
143.046 92.4802 127.668
137.376 95.1196 131.812
137.863 91.9716 128.958
140.207 90.944 127.518
144.555 96.6914 126.589
144.085 98.6904 126.946
145.39 98.291 125.002
143.918 100.277 126.791
144.944 95.0185 126.011
146.293 97.9 123.045
146.041 99.6867 123.217
140.588 101.084 131.586
139.074 99.9966 132.886
139.248 102.164 132.723
137.34 99.0628 133.14
141.875 101.628 129.37
139.6 103.666 131.321
137.647 103.201 133.589
133.785 98.1631 132.354
132.682 97.5529 131.008
132.391 99.6036 132.238
131.898 96.6485 129.203
133.036 95.3421 129.6
135.362 96.485 132.091
135.266 98.6104 133.067
132.36 101.894 133.142
131.336 100.889 131.42
134.492 93.9857 129.47
135.91 94.6329 130.911
136.156 92.8389 129.235
133.735 93.2682 127.773
136.915 91.3207 127.261
135.642 100.604 133.594
133.908 102.757 133.953
135.707 103.239 134.09
132.747 104.353 133.674
136.297 105.076 133.481
130.643 99.9155 129.349
130.983 97.6962 128.179
130.461 99.214 126.995
131.611 95.8221 127.073
130.957 102.184 130.211
130.245 100.719 126.158
130.263 98.534 124.993
148.028 110.639 99.1074
149.086 109.198 100.24
150.204 111.808 100.184
150.377 107.869 100.643
148.653 106.921 100.191
145.899 110.231 98.5732
146.95 112.44 98.9802
151.186 114.325 100.84
152.238 112.684 101.407
146.713 106.14 99.9896
145.27 107.886 99.1509
144.794 105.523 99.9108
143.708 108.848 98.5175
148.059 104.44 100.454
144.681 103.206 100.543
143.077 104.65 100.113
146.944 114.322 99.6513
149.291 115.333 100.842
146.78 115.572 100.962
151.092 115.961 102.54
144.386 112.729 98.9467
143.893 115.284 100.941
146.298 116.284 102.496
152.581 110.122 101.992
151.87 107.574 101.402
152.731 107.96 103.579
151.286 105.682 101.189
153.292 112.266 102.948
152.426 108.467 105.247
152.24 106.022 104.694
138.055 108.779 99.2148
139.886 110.076 98.5702
137.959 110.673 99.3033
141.942 111.491 98.6476
141.912 109.452 98.3782
138.252 106.773 99.6792
136.662 107.221 100.44
136.695 111.073 101.008
138.168 112.515 100.312
141.862 107.416 98.9329
139.879 105.982 99.6427
141.547 105.288 99.8499
138.321 104.641 100.687
141.43 103.247 100.682
135.329 107.442 102.021
135.515 109.478 102.468
134.765 107.644 104.17
136.012 110.926 103.36
135.63 105.547 102.142
134.238 106.003 105.806
134.445 107.636 106.382
139.924 113.834 100.273
142.062 113.247 99.3244
141.807 114.774 100.613
138.506 113.806 102.103
142.095 115.705 102.486
145.415 91.4901 121.176
145.645 92.4933 123.046
146.411 93.0624 120.54
145.431 93.7486 124.653
144.443 92.3493 125.277
144.178 90.2126 121.685
145.135 90.6614 119.265
147.155 93.4958 118.229
147.097 94.5222 119.765
143.31 91.3555 125.733
143.07 90.1149 123.675
141.516 90.3653 125.754
146.139 91.3938 117.133
147.277 93.0977 116.4
146.836 92.3871 114.664
146.901 95.6471 120.844
146.068 95.2507 123.595
146.634 96.835 121.962
143.61 103.622 125.433
143.088 105.12 124.386
144.444 104.582 123.262
142.638 106.569 123.413
141.782 105.744 125.43
142.714 102.649 127.355
143.872 102.045 125.993
145.682 104.204 121.824
145.383 105.692 121.162
141.196 105.138 127.475
141.645 103.384 128.437
140.383 104.45 129.536
144.829 101.49 124.64
145.837 102.767 122.37
145.942 101.202 122.872
145.182 106.892 120.261
143.73 107.39 121.503
144.68 108.159 119.176
149.163 98.6688 102.405
150.404 99.5079 103.325
150.052 100.852 101.668
151.072 100.451 104.605
150.279 98.4166 105.439
148.195 96.7634 103.696
147.553 98.0216 101.861
149.121 102.553 100.786
150.764 103.201 101.384
149.424 96.8563 106.855
148.408 95.8587 105.598
148.312 95.1884 108.015
146.509 99.5039 101.188
147.335 101.997 100.678
145.504 101.325 100.714
151.732 103.824 102.524
151.59 102.181 104.649
151.851 104.179 104.618
150.199 113.322 107.892
149.679 114.877 107.826
151.913 115.509 106.29
148.049 115.353 108.008
147.427 112.889 109.47
149.049 111.213 109.824
150.415 111.547 108.063
153.125 114.05 104.577
151.548 116.385 104.361
147.132 112.28 111.42
148.296 111.219 111.838
147.06 111.313 113.675
151.774 111.263 107.112
152.984 112.181 105.044
152.403 109.886 106
149.153 116.632 104.328
147.469 116.604 106.784
146.513 116.666 104.232
133.377 91.4236 121.835
132.429 92.9697 121.702
132.68 92.6878 123.702
131.712 94.6348 121.249
132.371 93.6031 119.581
134.421 90.7348 119.743
134.85 90.3861 121.895
133.084 92.665 125.737
132.086 94.2464 125.408
132.836 93.238 117.501
134.066 91.5878 117.751
133.892 92.67 115.644
135.452 90.4349 123.76
134.312 91.5352 126
136.164 90.835 125.647
131.164 95.6983 124.839
130.947 96.0262 122.2
130.364 97.2424 123.633
131.231 107.023 127.527
132.081 108.022 128.648
131.551 106.13 129.671
133.614 108.522 129.378
133.231 109.394 126.844
131.105 107.956 124.996
130.522 106.054 125.901
131.072 104.032 130.018
132.049 105.245 131.776
133.16 110.262 124.566
131.8 109.56 123.45
133.22 110.819 122.064
130.193 104.308 125.83
130.419 103.113 128.122
130.146 102.439 125.911
133.275 106.279 132.564
134.806 107.853 130.637
135.862 106.582 132.346
135.297 100.46 105.998
136.683 99.848 104.88
136.145 101.716 103.837
138.109 99.3669 104.017
137.358 98.1127 105.78
134.595 99.3874 107.925
134.296 101.006 107.235
135.764 103.551 102.854
137.149 103.009 102.022
136.407 97.1289 107.443
134.892 97.8073 108.652
135.314 96.1311 109.376
134.154 102.618 106.802
134.87 104.031 104.226
134.159 104.306 106.32
138.645 102.487 101.657
139.095 100.416 102.642
140.358 101.775 101.55
137.292 112.215 108.482
135.588 111.236 109.449
136.491 112.294 106.853
134.054 110.454 110.036
134.398 111.093 111.674
138.062 112.489 109.744
138.66 113.636 107.676
137.459 113.141 104.432
136.234 111.658 105.091
134.817 111.498 113.086
136.774 111.784 112.177
135.452 111.528 114.697
139.316 114.878 106.157
138.764 114.37 104.108
140.562 115.469 104.112
135.303 110.156 106.155
134.18 109.494 108.832
134.381 108.436 107.591
POLYGONS 1280  5120
3 164 162 163
3 163 44 164
3 162 43 163
3 164 42 162
3 166 165 163
3 163 43 166
3 165 44 163
3 166 14 165
3 168 167 162
3 162 42 168
3 167 43 162
3 168 13 167
3 170 169 164
3 164 44 170
3 169 42 164
3 170 12 169
3 173 171 172
3 172 46 173
3 171 43 172
3 173 45 171
3 167 174 172
3 172 43 167
3 174 46 172
3 167 13 174
3 175 166 171
3 171 45 175
3 166 43 171
3 175 14 166
3 177 176 173
3 173 46 177
3 176 45 173
3 177 4 176
3 180 178 179
3 179 48 180
3 178 42 179
3 180 47 178
3 169 181 179
3 179 42 169
3 181 48 179
3 169 12 181
3 182 168 178
3 178 47 182
3 168 42 178
3 182 13 168
3 184 183 180
3 180 48 184
3 183 47 180
3 184 8 183
3 187 185 186
3 186 50 187
3 185 44 186
3 187 49 185
3 165 188 186
3 186 44 165
3 188 50 186
3 165 14 188
3 189 170 185
3 185 49 189
3 170 44 185
3 189 12 170
3 191 190 187
3 187 50 191
3 190 49 187
3 191 7 190
3 194 192 193
3 193 53 194
3 192 52 193
3 194 51 192
3 196 195 193
3 193 52 196
3 195 53 193
3 196 16 195
3 198 197 192
3 192 51 198
3 197 52 192
3 198 14 197
3 200 199 194
3 194 53 200
3 199 51 194
3 200 15 199
3 203 201 202
3 202 45 203
3 201 52 202
3 203 54 201
3 197 175 202
3 202 52 197
3 175 45 202
3 197 14 175
3 204 196 201
3 201 54 204
3 196 52 201
3 204 16 196
3 176 205 203
3 203 45 176
3 205 54 203
3 176 4 205
3 208 206 207
3 207 55 208
3 206 51 207
3 208 50 206
3 199 209 207
3 207 51 199
3 209 55 207
3 199 15 209
3 188 198 206
3 206 50 188
3 198 51 206
3 188 14 198
3 210 191 208
3 208 55 210
3 191 50 208
3 210 7 191
3 213 211 212
3 212 57 213
3 211 53 212
3 213 56 211
3 195 214 212
3 212 53 195
3 214 57 212
3 195 16 214
3 215 200 211
3 211 56 215
3 200 53 211
3 215 15 200
3 217 216 213
3 213 57 217
3 216 56 213
3 217 9 216
3 220 218 219
3 219 60 220
3 218 59 219
3 220 58 218
3 222 221 219
3 219 59 222
3 221 60 219
3 222 19 221
3 224 223 218
3 218 58 224
3 223 59 218
3 224 18 223
3 226 225 220
3 220 60 226
3 225 58 220
3 226 17 225
3 229 227 228
3 228 62 229
3 227 59 228
3 229 61 227
3 223 230 228
3 228 59 223
3 230 62 228
3 223 18 230
3 231 222 227
3 227 61 231
3 222 59 227
3 231 19 222
3 233 232 229
3 229 62 233
3 232 61 229
3 233 5 232
3 236 234 235
3 235 64 236
3 234 58 235
3 236 63 234
3 225 237 235
3 235 58 225
3 237 64 235
3 225 17 237
3 238 224 234
3 234 63 238
3 224 58 234
3 238 18 224
3 240 239 236
3 236 64 240
3 239 63 236
3 240 6 239
3 243 241 242
3 242 66 243
3 241 60 242
3 243 65 241
3 221 244 242
3 242 60 221
3 244 66 242
3 221 19 244
3 245 226 241
3 241 65 245
3 226 60 241
3 245 17 226
3 247 246 243
3 243 66 247
3 246 65 243
3 247 11 246
3 250 248 249
3 249 69 250
3 248 68 249
3 250 67 248
3 252 251 249
3 249 68 252
3 251 69 249
3 252 18 251
3 254 253 248
3 248 67 254
3 253 68 248
3 254 21 253
3 256 255 250
3 250 69 256
3 255 67 250
3 256 20 255
3 259 257 258
3 258 70 259
3 257 68 258
3 259 62 257
3 253 260 258
3 258 68 253
3 260 70 258
3 253 21 260
3 230 252 257
3 257 62 230
3 252 68 257
3 230 18 252
3 261 233 259
3 259 70 261
3 233 62 259
3 261 5 233
3 264 262 263
3 263 72 264
3 262 67 263
3 264 71 262
3 255 265 263
3 263 67 255
3 265 72 263
3 255 20 265
3 266 254 262
3 262 71 266
3 254 67 262
3 266 21 254
3 268 267 264
3 264 72 268
3 267 71 264
3 268 10 267
3 271 269 270
3 270 63 271
3 269 69 270
3 271 73 269
3 251 238 270
3 270 69 251
3 238 63 270
3 251 18 238
3 272 256 269
3 269 73 272
3 256 69 269
3 272 20 256
3 239 273 271
3 271 63 239
3 273 73 271
3 239 6 273
3 276 274 275
3 275 76 276
3 274 75 275
3 276 74 274
3 278 277 275
3 275 75 278
3 277 76 275
3 278 24 277
3 280 279 274
3 274 74 280
3 279 75 274
3 280 23 279
3 282 281 276
3 276 76 282
3 281 74 276
3 282 22 281
3 285 283 284
3 284 78 285
3 283 75 284
3 285 77 283
3 279 286 284
3 284 75 279
3 286 78 284
3 279 23 286
3 287 278 283
3 283 77 287
3 278 75 283
3 287 24 278
3 289 288 285
3 285 78 289
3 288 77 285
3 289 0 288
3 292 290 291
3 291 80 292
3 290 74 291
3 292 79 290
3 281 293 291
3 291 74 281
3 293 80 291
3 281 22 293
3 294 280 290
3 290 79 294
3 280 74 290
3 294 23 280
3 296 295 292
3 292 80 296
3 295 79 292
3 296 4 295
3 299 297 298
3 298 82 299
3 297 76 298
3 299 81 297
3 277 300 298
3 298 76 277
3 300 82 298
3 277 24 300
3 301 282 297
3 297 81 301
3 282 76 297
3 301 22 282
3 303 302 299
3 299 82 303
3 302 81 299
3 303 3 302
3 306 304 305
3 305 85 306
3 304 84 305
3 306 83 304
3 308 307 305
3 305 84 308
3 307 85 305
3 308 26 307
3 310 309 304
3 304 83 310
3 309 84 304
3 310 24 309
3 312 311 306
3 306 85 312
3 311 83 306
3 312 25 311
3 315 313 314
3 314 77 315
3 313 84 314
3 315 86 313
3 309 287 314
3 314 84 309
3 287 77 314
3 309 24 287
3 316 308 313
3 313 86 316
3 308 84 313
3 316 26 308
3 288 317 315
3 315 77 288
3 317 86 315
3 288 0 317
3 320 318 319
3 319 87 320
3 318 83 319
3 320 82 318
3 311 321 319
3 319 83 311
3 321 87 319
3 311 25 321
3 300 310 318
3 318 82 300
3 310 83 318
3 300 24 310
3 322 303 320
3 320 87 322
3 303 82 320
3 322 3 303
3 325 323 324
3 324 89 325
3 323 85 324
3 325 88 323
3 307 326 324
3 324 85 307
3 326 89 324
3 307 26 326
3 327 312 323
3 323 88 327
3 312 85 323
3 327 25 312
3 329 328 325
3 325 89 329
3 328 88 325
3 329 5 328
3 332 330 331
3 331 92 332
3 330 91 331
3 332 90 330
3 334 333 331
3 331 91 334
3 333 92 331
3 334 29 333
3 336 335 330
3 330 90 336
3 335 91 330
3 336 28 335
3 338 337 332
3 332 92 338
3 337 90 332
3 338 27 337
3 341 339 340
3 340 94 341
3 339 91 340
3 341 93 339
3 335 342 340
3 340 91 335
3 342 94 340
3 335 28 342
3 343 334 339
3 339 93 343
3 334 91 339
3 343 29 334
3 345 344 341
3 341 94 345
3 344 93 341
3 345 2 344
3 348 346 347
3 347 96 348
3 346 90 347
3 348 95 346
3 337 349 347
3 347 90 337
3 349 96 347
3 337 27 349
3 350 336 346
3 346 95 350
3 336 90 346
3 350 28 336
3 352 351 348
3 348 96 352
3 351 95 348
3 352 7 351
3 355 353 354
3 354 98 355
3 353 92 354
3 355 97 353
3 333 356 354
3 354 92 333
3 356 98 354
3 333 29 356
3 357 338 353
3 353 97 357
3 338 92 353
3 357 27 338
3 359 358 355
3 355 98 359
3 358 97 355
3 359 1 358
3 362 360 361
3 361 101 362
3 360 100 361
3 362 99 360
3 364 363 361
3 361 100 364
3 363 101 361
3 364 31 363
3 366 365 360
3 360 99 366
3 365 100 360
3 366 29 365
3 368 367 362
3 362 101 368
3 367 99 362
3 368 30 367
3 371 369 370
3 370 93 371
3 369 100 370
3 371 102 369
3 365 343 370
3 370 100 365
3 343 93 370
3 365 29 343
3 372 364 369
3 369 102 372
3 364 100 369
3 372 31 364
3 344 373 371
3 371 93 344
3 373 102 371
3 344 2 373
3 376 374 375
3 375 103 376
3 374 99 375
3 376 98 374
3 367 377 375
3 375 99 367
3 377 103 375
3 367 30 377
3 356 366 374
3 374 98 356
3 366 99 374
3 356 29 366
3 378 359 376
3 376 103 378
3 359 98 376
3 378 1 359
3 381 379 380
3 380 105 381
3 379 101 380
3 381 104 379
3 363 382 380
3 380 101 363
3 382 105 380
3 363 31 382
3 383 368 379
3 379 104 383
3 368 101 379
3 383 30 368
3 385 384 381
3 381 105 385
3 384 104 381
3 385 6 384
3 388 386 387
3 387 108 388
3 386 107 387
3 388 106 386
3 390 389 387
3 387 107 390
3 389 108 387
3 390 34 389
3 392 391 386
3 386 106 392
3 391 107 386
3 392 33 391
3 394 393 388
3 388 108 394
3 393 106 388
3 394 32 393
3 397 395 396
3 396 110 397
3 395 107 396
3 397 109 395
3 391 398 396
3 396 107 391
3 398 110 396
3 391 33 398
3 399 390 395
3 395 109 399
3 390 107 395
3 399 34 390
3 401 400 397
3 397 110 401
3 400 109 397
3 401 8 400
3 404 402 403
3 403 112 404
3 402 106 403
3 404 111 402
3 393 405 403
3 403 106 393
3 405 112 403
3 393 32 405
3 406 392 402
3 402 111 406
3 392 106 402
3 406 33 392
3 408 407 404
3 404 112 408
3 407 111 404
3 408 0 407
3 411 409 410
3 410 114 411
3 409 108 410
3 411 113 409
3 389 412 410
3 410 108 389
3 412 114 410
3 389 34 412
3 413 394 409
3 409 113 413
3 394 108 409
3 413 32 394
3 415 414 411
3 411 114 415
3 414 113 411
3 415 11 414
3 418 416 417
3 417 117 418
3 416 116 417
3 418 115 416
3 420 419 417
3 417 116 420
3 419 117 417
3 420 36 419
3 422 421 416
3 416 115 422
3 421 116 416
3 422 34 421
3 424 423 418
3 418 117 424
3 423 115 418
3 424 35 423
3 427 425 426
3 426 109 427
3 425 116 426
3 427 118 425
3 421 399 426
3 426 116 421
3 399 109 426
3 421 34 399
3 428 420 425
3 425 118 428
3 420 116 425
3 428 36 420
3 400 429 427
3 427 109 400
3 429 118 427
3 400 8 429
3 432 430 431
3 431 119 432
3 430 115 431
3 432 114 430
3 423 433 431
3 431 115 423
3 433 119 431
3 423 35 433
3 412 422 430
3 430 114 412
3 422 115 430
3 412 34 422
3 434 415 432
3 432 119 434
3 415 114 432
3 434 11 415
3 437 435 436
3 436 121 437
3 435 117 436
3 437 120 435
3 419 438 436
3 436 117 419
3 438 121 436
3 419 36 438
3 439 424 435
3 435 120 439
3 424 117 435
3 439 35 424
3 441 440 437
3 437 121 441
3 440 120 437
3 441 1 440
3 444 442 443
3 443 124 444
3 442 123 443
3 444 122 442
3 446 445 443
3 443 123 446
3 445 124 443
3 446 39 445
3 448 447 442
3 442 122 448
3 447 123 442
3 448 38 447
3 450 449 444
3 444 124 450
3 449 122 444
3 450 37 449
3 453 451 452
3 452 126 453
3 451 123 452
3 453 125 451
3 447 454 452
3 452 123 447
3 454 126 452
3 447 38 454
3 455 446 451
3 451 125 455
3 446 123 451
3 455 39 446
3 457 456 453
3 453 126 457
3 456 125 453
3 457 9 456
3 460 458 459
3 459 128 460
3 458 122 459
3 460 127 458
3 449 461 459
3 459 122 449
3 461 128 459
3 449 37 461
3 462 448 458
3 458 127 462
3 448 122 458
3 462 38 448
3 464 463 460
3 460 128 464
3 463 127 460
3 464 10 463
3 467 465 466
3 466 130 467
3 465 124 466
3 467 129 465
3 445 468 466
3 466 124 445
3 468 130 466
3 445 39 468
3 469 450 465
3 465 129 469
3 450 124 465
3 469 37 450
3 471 470 467
3 467 130 471
3 470 129 467
3 471 3 470
3 474 472 473
3 473 133 474
3 472 132 473
3 474 131 472
3 476 475 473
3 473 132 476
3 475 133 473
3 476 38 475
3 478 477 472
3 472 131 478
3 477 132 472
3 478 41 477
3 480 479 474
3 474 133 480
3 479 131 474
3 480 40 479
3 483 481 482
3 482 134 483
3 481 132 482
3 483 126 481
3 477 484 482
3 482 132 477
3 484 134 482
3 477 41 484
3 454 476 481
3 481 126 454
3 476 132 481
3 454 38 476
3 485 457 483
3 483 134 485
3 457 126 483
3 485 9 457
3 488 486 487
3 487 136 488
3 486 131 487
3 488 135 486
3 479 489 487
3 487 131 479
3 489 136 487
3 479 40 489
3 490 478 486
3 486 135 490
3 478 131 486
3 490 41 478
3 492 491 488
3 488 136 492
3 491 135 488
3 492 2 491
3 495 493 494
3 494 127 495
3 493 133 494
3 495 137 493
3 475 462 494
3 494 133 475
3 462 127 494
3 475 38 462
3 496 480 493
3 493 137 496
3 480 133 493
3 496 40 480
3 463 497 495
3 495 127 463
3 497 137 495
3 463 10 497
3 500 498 499
3 499 140 500
3 498 139 499
3 500 138 498
3 502 501 499
3 499 139 502
3 501 140 499
3 502 33 501
3 504 503 498
3 498 138 504
3 503 139 498
3 504 13 503
3 506 505 500
3 500 140 506
3 505 138 500
3 506 23 505
3 509 507 508
3 508 47 509
3 507 139 508
3 509 110 507
3 503 182 508
3 508 139 503
3 182 47 508
3 503 13 182
3 398 502 507
3 507 110 398
3 502 139 507
3 398 33 502
3 183 401 509
3 509 47 183
3 401 110 509
3 183 8 401
3 512 510 511
3 511 79 512
3 510 138 511
3 512 46 510
3 505 294 511
3 511 138 505
3 294 79 511
3 505 23 294
3 174 504 510
3 510 46 174
3 504 138 510
3 174 13 504
3 295 177 512
3 512 79 295
3 177 46 512
3 295 4 177
3 515 513 514
3 514 111 515
3 513 140 514
3 515 78 513
3 501 406 514
3 514 140 501
3 406 111 514
3 501 33 406
3 286 506 513
3 513 78 286
3 506 140 513
3 286 23 506
3 407 289 515
3 515 111 407
3 289 78 515
3 407 0 289
3 518 516 517
3 517 143 518
3 516 142 517
3 518 141 516
3 520 519 517
3 517 142 520
3 519 143 517
3 520 19 519
3 522 521 516
3 516 141 522
3 521 142 516
3 522 32 521
3 524 523 518
3 518 143 524
3 523 141 518
3 524 26 523
3 527 525 526
3 526 113 527
3 525 142 526
3 527 66 525
3 521 413 526
3 526 142 521
3 413 113 526
3 521 32 413
3 244 520 525
3 525 66 244
3 520 142 525
3 244 19 520
3 414 247 527
3 527 113 414
3 247 66 527
3 414 11 247
3 530 528 529
3 529 86 530
3 528 141 529
3 530 112 528
3 523 316 529
3 529 141 523
3 316 86 529
3 523 26 316
3 405 522 528
3 528 112 405
3 522 141 528
3 405 32 522
3 317 408 530
3 530 86 317
3 408 112 530
3 317 0 408
3 533 531 532
3 532 61 533
3 531 143 532
3 533 89 531
3 519 231 532
3 532 143 519
3 231 61 532
3 519 19 231
3 326 524 531
3 531 89 326
3 524 143 531
3 326 26 524
3 232 329 533
3 533 61 232
3 329 89 533
3 232 5 329
3 536 534 535
3 535 146 536
3 534 145 535
3 536 144 534
3 538 537 535
3 535 145 538
3 537 146 535
3 538 22 537
3 540 539 534
3 534 144 540
3 539 145 534
3 540 16 539
3 542 541 536
3 536 146 542
3 541 144 536
3 542 39 541
3 545 543 544
3 544 54 545
3 543 145 544
3 545 80 543
3 539 204 544
3 544 145 539
3 204 54 544
3 539 16 204
3 293 538 543
3 543 80 293
3 538 145 543
3 293 22 538
3 205 296 545
3 545 54 205
3 296 80 545
3 205 4 296
3 548 546 547
3 547 125 548
3 546 144 547
3 548 57 546
3 541 455 547
3 547 144 541
3 455 125 547
3 541 39 455
3 214 540 546
3 546 57 214
3 540 144 546
3 214 16 540
3 456 217 548
3 548 125 456
3 217 57 548
3 456 9 217
3 551 549 550
3 550 81 551
3 549 146 550
3 551 130 549
3 537 301 550
3 550 146 537
3 301 81 550
3 537 22 301
3 468 542 549
3 549 130 468
3 542 146 549
3 468 39 542
3 302 471 551
3 551 81 302
3 471 130 551
3 302 3 471
3 554 552 553
3 553 149 554
3 552 148 553
3 554 147 552
3 556 555 553
3 553 148 556
3 555 149 553
3 556 21 555
3 558 557 552
3 552 147 558
3 557 148 552
3 558 25 557
3 560 559 554
3 554 149 560
3 559 147 554
3 560 37 559
3 563 561 562
3 562 88 563
3 561 148 562
3 563 70 561
3 557 327 562
3 562 148 557
3 327 88 562
3 557 25 327
3 260 556 561
3 561 70 260
3 556 148 561
3 260 21 556
3 328 261 563
3 563 88 328
3 261 70 563
3 328 5 261
3 566 564 565
3 565 129 566
3 564 147 565
3 566 87 564
3 559 469 565
3 565 147 559
3 469 129 565
3 559 37 469
3 321 558 564
3 564 87 321
3 558 147 564
3 321 25 558
3 470 322 566
3 566 129 470
3 322 87 566
3 470 3 322
3 569 567 568
3 568 71 569
3 567 149 568
3 569 128 567
3 555 266 568
3 568 149 555
3 266 71 568
3 555 21 266
3 461 560 567
3 567 128 461
3 560 149 567
3 461 37 560
3 267 464 569
3 569 71 267
3 464 128 569
3 267 10 464
3 572 570 571
3 571 152 572
3 570 151 571
3 572 150 570
3 574 573 571
3 571 151 574
3 573 152 571
3 574 27 573
3 576 575 570
3 570 150 576
3 575 151 570
3 576 12 575
3 578 577 572
3 572 152 578
3 577 150 572
3 578 36 577
3 581 579 580
3 580 49 581
3 579 151 580
3 581 96 579
3 575 189 580
3 580 151 575
3 189 49 580
3 575 12 189
3 349 574 579
3 579 96 349
3 574 151 579
3 349 27 574
3 190 352 581
3 581 49 190
3 352 96 581
3 190 7 352
3 584 582 583
3 583 118 584
3 582 150 583
3 584 48 582
3 577 428 583
3 583 150 577
3 428 118 583
3 577 36 428
3 181 576 582
3 582 48 181
3 576 150 582
3 181 12 576
3 429 184 584
3 584 118 429
3 184 48 584
3 429 8 184
3 587 585 586
3 586 97 587
3 585 152 586
3 587 121 585
3 573 357 586
3 586 152 573
3 357 97 586
3 573 27 357
3 438 578 585
3 585 121 438
3 578 152 585
3 438 36 578
3 358 441 587
3 587 97 358
3 441 121 587
3 358 1 441
3 590 588 589
3 589 155 590
3 588 154 589
3 590 153 588
3 592 591 589
3 589 154 592
3 591 155 589
3 592 17 591
3 594 593 588
3 588 153 594
3 593 154 588
3 594 30 593
3 596 595 590
3 590 155 596
3 595 153 590
3 596 35 595
3 599 597 598
3 598 104 599
3 597 154 598
3 599 64 597
3 593 383 598
3 598 154 593
3 383 104 598
3 593 30 383
3 237 592 597
3 597 64 237
3 592 154 597
3 237 17 592
3 384 240 599
3 599 104 384
3 240 64 599
3 384 6 240
3 602 600 601
3 601 120 602
3 600 153 601
3 602 103 600
3 595 439 601
3 601 153 595
3 439 120 601
3 595 35 439
3 377 594 600
3 600 103 377
3 594 153 600
3 377 30 594
3 440 378 602
3 602 120 440
3 378 103 602
3 440 1 378
3 605 603 604
3 604 65 605
3 603 155 604
3 605 119 603
3 591 245 604
3 604 155 591
3 245 65 604
3 591 17 245
3 433 596 603
3 603 119 433
3 596 155 603
3 433 35 596
3 246 434 605
3 605 65 246
3 434 119 605
3 246 11 434
3 608 606 607
3 607 158 608
3 606 157 607
3 608 156 606
3 610 609 607
3 607 157 610
3 609 158 607
3 610 15 609
3 612 611 606
3 606 156 612
3 611 157 606
3 612 28 611
3 614 613 608
3 608 158 614
3 613 156 608
3 614 41 613
3 617 615 616
3 616 95 617
3 615 157 616
3 617 55 615
3 611 350 616
3 616 157 611
3 350 95 616
3 611 28 350
3 209 610 615
3 615 55 209
3 610 157 615
3 209 15 610
3 351 210 617
3 617 95 351
3 210 55 617
3 351 7 210
3 620 618 619
3 619 135 620
3 618 156 619
3 620 94 618
3 613 490 619
3 619 156 613
3 490 135 619
3 613 41 490
3 342 612 618
3 618 94 342
3 612 156 618
3 342 28 612
3 491 345 620
3 620 135 491
3 345 94 620
3 491 2 345
3 623 621 622
3 622 56 623
3 621 158 622
3 623 134 621
3 609 215 622
3 622 158 609
3 215 56 622
3 609 15 215
3 484 614 621
3 621 134 484
3 614 158 621
3 484 41 614
3 216 485 623
3 623 56 216
3 485 134 623
3 216 9 485
3 626 624 625
3 625 161 626
3 624 160 625
3 626 159 624
3 628 627 625
3 625 160 628
3 627 161 625
3 628 31 627
3 630 629 624
3 624 159 630
3 629 160 624
3 630 20 629
3 632 631 626
3 626 161 632
3 631 159 626
3 632 40 631
3 635 633 634
3 634 73 635
3 633 160 634
3 635 105 633
3 629 272 634
3 634 160 629
3 272 73 634
3 629 20 272
3 382 628 633
3 633 105 382
3 628 160 633
3 382 31 628
3 273 385 635
3 635 73 273
3 385 105 635
3 273 6 385
3 638 636 637
3 637 137 638
3 636 159 637
3 638 72 636
3 631 496 637
3 637 159 631
3 496 137 637
3 631 40 496
3 265 630 636
3 636 72 265
3 630 159 636
3 265 20 630
3 497 268 638
3 638 137 497
3 268 72 638
3 497 10 268
3 641 639 640
3 640 102 641
3 639 161 640
3 641 136 639
3 627 372 640
3 640 161 627
3 372 102 640
3 627 31 372
3 489 632 639
3 639 136 489
3 632 161 639
3 489 40 632
3 373 492 641
3 641 102 373
3 492 136 641
3 373 2 492
