# vtk DataFile Version 3.0
this file was written using fslvtkio
ASCII
DATASET POLYDATA
POINTS 642 float
152.79 103.656 134.905
142.206 104.196 135.984
146.797 105.746 127.783
156.074 106.358 123.45
151.937 99.1919 128.92
153.274 109.339 130.439
146.009 109.959 131.922
146.495 99.4421 130.267
146.937 98.6186 139.429
151.365 102.943 121.291
151.365 110.162 122.504
147.091 106.593 139.791
145.841 97.6664 134.775
149.705 97.6742 134.548
149.263 97.1813 128.829
148.978 100.54 125.557
152.541 99.6763 123.48
146.153 108.348 135.998
149.8 109.831 131.1
150.552 108.054 135.623
148.842 110.109 127.204
153.382 110.229 125.513
154.422 102.48 125.305
152.539 101.093 132.287
155.219 104.977 129.248
155.865 108.893 126.573
153.635 107.098 133.44
143.865 100.852 134.113
146.82 102.569 129.039
143.716 105.14 131.797
142.601 108.248 134.707
145.518 108.289 129.591
150.292 105.057 138.601
149.844 100.889 138.149
145.629 102.866 142.216
142.933 105.633 139.556
142.94 101.139 139.191
155.846 110.214 120.014
151.314 107.341 119.981
155.027 104.415 119.432
148.294 108.213 124.381
148.923 104.495 124.01
147.855 97.0401 134.81
149.517 96.801 131.774
147.38 96.9971 131.876
151.026 97.6201 128.63
150.808 98.2624 131.763
148.542 97.6195 137.29
146.251 98.0583 137.246
145.601 98.1737 132.214
147.523 98.0617 129.363
148.926 98.5033 126.943
150.97 97.7389 126.094
150.502 99.5523 124.2
152.39 99.2607 126.197
147.718 99.9266 128.006
150.161 101.773 123.468
151.925 101.111 122.026
148.049 109.28 133.831
150.136 109.078 133.349
148.417 108.158 135.73
151.899 108.857 133.075
151.611 109.61 130.657
147.941 110.06 131.572
146.086 109.466 134.09
146.734 107.207 137.684
148.923 107.382 137.799
151.1 110.301 126.463
151.447 110.173 128.411
149.267 110.293 129.149
153.273 110.031 127.978
152.536 110.239 123.916
150.259 109.999 124.891
147.308 110.041 129.662
153.797 101.63 128.884
154.117 102.894 130.665
155.021 103.485 127.367
153.937 104.352 132.069
152.796 102.272 133.721
152.153 100.061 130.691
153.324 100.734 127.099
155.342 104.344 124.227
155.783 105.561 126.386
155.883 106.967 128.027
154.707 106.163 131.32
155.215 108.041 130.135
153.229 105.398 134.244
156.263 107.695 124.929
154.805 109.45 128.655
153.748 108.486 132.107
145.244 101.725 131.588
145.165 103.571 130.54
143.949 102.978 132.832
145.286 105.385 129.919
146.636 104.133 128.356
146.731 101.022 129.726
144.935 99.9531 132.11
143.02 102.555 134.995
142.84 104.726 133.804
142.794 106.764 133.013
144.462 106.872 130.798
143.557 108.515 132.084
146.139 107.055 128.551
142.019 106.269 135.311
144.192 109.44 133.474
145.488 109.389 130.659
149.82 102.91 138.892
147.998 101.407 140.843
147.778 103.872 140.825
146.262 100.276 141.285
148.557 99.3658 139.162
151.534 102.205 136.712
151.857 104.308 136.953
148.893 106.053 139.539
146.045 105.3 141.677
143.843 104.909 142.124
143.768 101.612 141.597
141.76 103.497 140.177
144.822 99.6377 139.474
145.038 106.347 139.813
141.83 104.944 137.784
142.072 102.499 137.574
153.476 109.469 118.63
153.458 106.15 118.35
156.126 107.615 118.565
153.084 103.336 119.684
151.232 105.05 120.401
151.119 109.317 120.816
153.45 110.41 121.128
156.51 108.152 121.522
155.705 105.505 121.394
148.619 106.443 123.922
149.868 105.947 121.69
149.667 108.044 121.788
150.033 103.721 122.572
147.88 105.089 125.956
147.533 106.952 126.083
149.546 109.385 123.405
151.057 99.3824 133.641
149.821 99.1668 136.554
151.398 100.778 135.397
152.171 106.133 136.288
150.806 106.985 137.636
152.413 107.916 134.682
153.799 101.815 121.114
153.473 101.113 124.219
154.864 103.295 122.228
156.238 109.547 123.105
154.853 109.983 125.878
154.724 110.518 122.647
144.382 99.2889 137.175
144.427 99.0227 134.401
142.977 100.844 136.561
142.817 106.785 136.925
144.351 108.585 135.38
144.611 106.909 137.644
147.914 103.502 126.698
147.897 101.617 127.32
148.985 102.605 124.912
148.336 109.412 125.687
146.914 109.393 128.285
147.043 108.264 126.964
148.664 96.7625 133.317
148.446 96.8299 131.883
147.615 96.9185 133.327
148.311 97.055 130.489
149.261 96.9394 130.423
149.609 97.0212 133.248
148.884 97.0762 134.657
146.83 97.1782 134.719
146.656 97.2191 133.35
150.173 97.1664 130.297
150.23 97.3648 131.845
150.737 97.8331 130.363
150.259 97.811 133.165
150.159 97.1234 128.818
151.423 98.3484 128.944
151.279 98.6597 130.29
148.172 97.2233 136.035
146.997 97.3564 136.044
147.406 97.7023 137.251
145.996 97.7657 136.008
149.156 97.5432 135.943
147.77 97.9928 138.451
146.588 98.1753 138.389
146.443 97.4265 132.121
147.395 97.4548 130.589
146.527 98.0082 130.879
148.306 97.5018 129.165
145.797 97.7836 133.41
146.015 98.7267 131.064
146.929 98.6963 129.836
149.854 97.911 126.473
150.663 98.4299 125.031
149.705 98.8232 125.522
151.459 99.2936 123.754
151.7 98.5341 124.783
150.122 97.3 127.414
148.995 97.6423 127.769
149.005 99.4309 126.057
149.712 99.8804 124.867
151.83 98.3413 126.008
151.042 97.4847 127.406
151.782 98.4102 127.509
152.463 99.2284 124.877
152.162 99.2094 127.617
148.19 98.2312 128.117
148.356 99.2879 127.348
147.503 99.0201 128.589
148.429 100.146 126.684
147.066 99.6211 129.212
150.257 100.637 123.899
151.176 100.239 123.112
150.965 101.316 122.86
152.242 100.315 122.591
149.594 101 124.497
150.779 102.254 122.392
151.588 101.969 121.702
149.117 109.155 133.594
149.294 108.607 134.592
148.22 108.688 134.772
149.513 108.169 135.58
150.265 108.543 134.451
149.893 109.551 132.305
148.962 109.624 132.605
147.188 108.797 134.978
147.355 108.256 135.8
151.013 108.993 133.215
150.81 109.472 131.99
151.754 109.328 131.849
150.676 109.708 130.937
151.2 108.425 134.331
152.579 109.093 131.702
152.475 109.49 130.527
148.051 109.739 132.715
147.09 109.355 134.047
147.083 109.857 132.887
146.168 108.957 135.101
148.876 109.932 131.483
146.976 110.089 131.818
146.125 109.858 132.971
147.567 107.717 136.702
148.695 107.737 136.685
147.855 107.306 137.745
149.716 107.742 136.675
146.508 107.731 136.723
146.932 106.966 138.79
148.056 107.031 138.858
151.296 110.303 127.414
150.334 110.236 128.807
150.127 110.358 127.789
149.563 110.096 130.13
150.585 109.984 129.755
152.365 110.308 127.052
152.243 110.266 126.017
149.95 110.261 126.919
149.127 110.281 128.109
151.441 109.853 129.583
152.36 110.155 128.165
152.407 109.826 129.371
153.295 110.275 126.782
153.255 109.715 129.271
151.867 110.24 125.232
150.651 110.206 125.713
151.368 110.162 124.437
149.607 110.127 126.072
153.008 110.241 124.697
151.978 110.249 123.206
150.864 110.045 123.712
148.304 110.221 129.319
148.631 110.191 130.391
147.593 110.165 130.56
148.106 110.128 128.431
146.642 110.086 130.835
154.012 102.211 129.804
154.626 103.195 129.053
154.419 102.552 128.114
155.097 104.136 128.408
154.711 103.869 129.841
153.377 101.97 131.342
153.278 101.409 130.54
154.174 102.019 127.156
154.698 102.868 126.469
154.079 103.634 131.32
153.426 102.582 132.133
153.417 103.268 132.828
152.754 101.72 132.921
154.662 104.63 130.612
153.401 104.001 133.499
152.869 102.971 134.305
153.031 100.857 129.812
153.553 101.204 127.974
152.792 100.333 128.975
153.936 101.598 126.133
152.45 100.619 131.416
151.999 99.5676 129.862
152.606 99.9632 128.049
155.124 103.843 125.847
155.417 104.491 126.938
155.521 104.858 125.428
155.543 105.212 127.826
154.911 103.357 124.787
155.744 105.325 123.958
155.928 105.892 124.945
155.368 106.525 129.708
155.004 107.1 130.765
155.606 107.52 129.093
154.599 107.556 131.751
154.297 106.735 132.343
155.021 105.611 130.264
155.616 105.961 128.734
155.895 107.941 127.453
155.627 108.447 128.453
153.97 105.846 132.701
154.397 105.226 131.616
153.685 104.933 133.144
153.411 106.269 133.769
153.104 104.487 134.53
155.913 106.199 127.288
156.035 107.355 126.544
156.063 106.612 125.724
156.109 108.338 125.771
156.223 106.943 124.202
155.112 108.828 129.386
154.635 108.346 131.151
154.34 108.991 130.427
153.917 107.859 132.723
155.501 109.259 127.702
154.005 109.399 129.588
153.495 108.959 131.316
145.282 102.681 131.006
144.453 103.289 131.595
144.578 102.32 132.2
143.819 103.958 132.194
144.346 104.248 131.217
146.02 102.931 129.953
146.029 102.164 130.492
144.447 101.36 132.713
143.952 101.911 133.383
145.088 104.443 130.228
145.974 103.769 129.579
145.959 104.665 129.224
146.66 103.323 128.722
144.459 105.203 130.867
146.111 105.565 128.929
146.625 104.982 128.104
146.045 101.366 130.744
145.046 100.884 131.884
145.884 100.47 131.022
144.339 100.438 133.102
146.749 101.826 129.541
146.602 100.218 130.02
145.725 99.5731 131.21
143.504 102.722 133.896
143.382 103.827 133.254
142.948 103.636 134.379
143.255 104.826 132.714
143.462 101.652 134.552
142.563 103.407 135.5
142.456 104.496 134.896
143.518 106.762 131.786
143.96 107.655 131.367
143.01 107.655 132.501
144.48 108.414 130.954
144.927 107.699 130.355
144.014 106.005 131.291
143.244 105.957 132.32
142.404 107.612 133.77
142.825 108.486 133.278
145.376 107.017 129.801
144.863 106.089 130.371
145.789 106.272 129.321
145.839 107.699 129.096
146.505 106.351 128.181
142.849 105.675 133.277
142.329 106.595 134.084
142.341 105.509 134.445
142.128 107.307 134.971
142.115 105.232 135.592
143.637 109.114 132.829
144.423 109.06 131.526
144.688 109.541 132.162
145.36 108.833 130.212
143.307 108.867 134.076
145.214 109.782 132.698
145.713 109.765 131.202
148.8 102.2 139.868
147.843 102.662 140.988
148.819 103.312 139.906
146.795 103.298 141.814
146.95 102.025 141.734
148.937 101.187 139.589
149.729 101.859 138.739
149.849 103.967 139.013
148.901 104.364 139.767
147.31 100.743 141.308
148.339 100.355 140.064
147.552 99.5858 140.523
149.135 100.2 138.798
145.999 101.464 141.816
146.509 99.2828 140.422
147.864 98.7948 139.452
150.714 102.519 137.938
150.786 103.644 138.079
151.608 103.256 137.013
150.989 104.629 137.898
150.626 101.565 137.548
152.236 102.867 135.839
152.388 103.915 135.953
148.178 104.93 140.194
146.95 104.518 141.433
147.369 105.602 140.652
145.782 104.161 142.253
149.493 105.451 139.196
148.099 106.363 139.705
146.54 106.071 140.652
143.621 103.212 142.094
142.649 102.669 141.328
142.659 103.997 141.588
142.235 102.325 139.99
143.086 101.445 140.587
144.712 102.178 142.085
144.654 103.958 142.441
143.171 105.177 140.977
142.114 104.682 140.353
144.126 100.577 140.659
145.024 100.894 141.497
145.365 99.8085 140.573
143.793 100.421 139.495
145.881 98.9919 139.415
145.057 105.155 142.162
144.262 105.707 141.144
145.519 106.053 140.901
143.924 105.918 139.945
146.052 106.567 139.775
141.597 104.312 139.146
141.772 102.855 138.92
141.762 103.734 137.798
142.32 101.822 138.584
142.166 105.287 138.921
141.953 104.567 136.78
142.179 103.334 136.731
153.501 107.809 118.075
154.876 106.873 117.651
154.991 108.731 117.91
155.62 106.073 118.543
154.552 105.359 118.261
152.427 107.044 118.856
152.407 108.371 118.877
154.848 109.981 118.938
156.114 109.215 118.862
153.37 104.683 118.762
152.335 105.671 119.244
152.206 104.291 119.833
151.453 106.263 119.956
154.173 103.868 119.13
152.028 103.077 120.511
151.142 103.957 120.894
152.225 109.351 119.651
153.512 110.213 119.74
152.197 109.945 120.959
154.644 110.567 120.225
151.379 108.499 119.965
151.067 109.914 121.665
152.358 110.285 121.904
156.47 108.057 119.892
155.934 106.482 119.862
156.18 106.771 121.438
155.538 105.136 120.097
156.501 109.242 120.383
156.343 107.214 122.518
155.85 105.855 122.536
149.189 106.276 122.708
149.791 107.061 121.574
149.109 107.222 122.865
150.467 107.846 120.647
150.574 106.661 120.674
149.304 105.271 122.805
148.796 105.526 123.824
148.536 107.37 123.962
149.005 108.02 123.121
150.55 105.571 120.903
149.892 104.903 122.134
150.537 104.392 121.478
149.475 104.193 123.176
150.662 103.233 121.948
148.233 105.732 124.885
148.068 106.724 124.973
147.733 106.055 125.964
147.889 107.565 125.136
148.425 104.832 124.939
147.32 105.433 126.918
147.24 106.328 127.007
149.555 108.7 122.595
150.283 108.729 121.02
150.182 109.41 122
148.896 108.794 123.749
150.378 109.831 122.982
150.482 99.2033 135.088
150.605 99.9563 135.991
151.25 100.097 134.485
150.654 100.768 136.813
149.89 100.018 137.372
149.82 98.3563 135.594
150.348 98.5193 134.102
151.816 100.23 133.052
151.947 100.87 133.843
149.201 99.3006 137.865
149.239 98.2999 136.909
148.646 98.3826 138.329
150.922 98.7995 132.75
151.671 99.8022 132.14
151.461 99.1977 131.242
152.056 101.5 134.482
151.482 101.429 136.196
152.197 102.175 135.22
151.626 106.615 137.157
151.643 107.548 136.267
152.398 107.133 135.603
151.518 107.971 135.248
150.746 107.644 136.645
150.609 106.083 138.264
151.396 105.571 137.577
152.929 106.639 134.882
153.141 107.56 134.215
149.919 107.248 137.637
149.919 106.539 138.691
149.025 106.929 138.849
152 105.195 136.679
152.718 105.771 135.195
152.551 104.79 135.534
153.096 108.177 133.395
152.135 108.406 133.926
152.838 108.709 132.589
153.778 101.396 122.64
154.241 102.166 123.178
154.422 102.581 121.529
154.58 102.861 123.766
154.022 101.819 124.629
153.055 100.372 123.77
153.233 100.756 122.241
154.464 103.019 120.079
155.03 103.76 120.72
153.45 100.95 125.658
152.933 100.119 125.145
152.835 100.017 126.65
152.798 101.232 121.517
153.487 102.47 120.169
152.375 102.191 120.945
155.302 104.428 121.533
155.095 103.776 123.235
155.548 104.81 122.814
155.663 109.91 124.381
154.925 110.292 124.153
155.73 110.319 122.624
154.059 110.325 124.167
154.15 110.109 125.683
155.449 109.542 126.153
156.077 109.232 124.858
156.309 109.927 121.413
155.414 110.646 121.198
154.102 110.108 126.99
154.947 109.815 127.34
154.022 109.741 128.351
156.308 108.611 124.238
156.474 108.933 122.256
156.447 107.817 123.373
154.296 110.607 121.681
153.552 110.303 123.384
153.007 110.261 122.577
144.327 99.0646 135.771
143.707 99.9128 135.549
143.578 99.9903 136.94
143.333 100.806 135.32
144.021 99.926 134.27
145.085 98.2717 134.551
145.109 98.3993 135.908
143.636 100.173 138.286
142.809 100.906 137.893
144.498 99.537 133.175
144.975 98.4934 133.345
145.194 99.0415 132.055
145.308 98.5969 137.097
144.527 99.4585 138.366
145.57 98.7581 138.363
142.494 101.608 137.056
143.079 101.662 135.544
142.567 102.543 136.165
143.503 107.768 136.231
144.471 107.717 136.526
143.676 106.851 137.369
145.358 107.668 136.773
145.216 108.453 135.78
143.45 108.481 135.109
142.692 107.615 135.825
142.914 106.077 138.219
143.779 106.276 138.71
145.268 109.058 134.748
144.236 109.074 134.365
145.232 109.529 133.658
142.266 106.669 136.105
142.349 105.835 137.496
142.078 105.554 136.451
144.786 106.557 138.747
145.698 107.158 137.509
145.932 106.811 138.684
147.951 102.577 127.039
148.489 102.046 126.11
148.503 103.09 125.796
148.998 101.559 125.204
148.376 101.064 126.402
147.426 102.171 128.231
147.324 103.025 127.833
148.416 103.97 125.368
148.942 103.585 124.502
147.837 100.743 127.602
147.37 101.414 128.598
147.231 100.476 128.888
147.221 103.793 127.51
147.926 104.332 126.275
147.22 104.688 127.234
149.457 103.292 123.799
149.537 102.172 124.209
150.113 102.777 123.066
147.632 109.442 127.025
146.893 108.894 127.663
147.585 108.887 126.273
146.305 108.312 128.297
146.096 108.87 128.912
147.84 109.822 127.734
148.566 109.793 126.477
148.245 108.916 124.971
147.664 108.248 125.641
146.142 109.328 129.462
147.119 109.774 128.926
146.367 109.846 130.141
149.237 109.821 125.404
148.903 109.436 124.532
149.906 109.791 124.201
147.337 107.636 126.489
146.568 107.694 127.832
146.945 106.964 127.39
POLYGONS 1280  5120
3 164 162 163
3 163 44 164
3 162 43 163
3 164 42 162
3 166 165 163
3 163 43 166
3 165 44 163
3 166 14 165
3 168 167 162
3 162 42 168
3 167 43 162
3 168 13 167
3 170 169 164
3 164 44 170
3 169 42 164
3 170 12 169
3 173 171 172
3 172 46 173
3 171 43 172
3 173 45 171
3 167 174 172
3 172 43 167
3 174 46 172
3 167 13 174
3 175 166 171
3 171 45 175
3 166 43 171
3 175 14 166
3 177 176 173
3 173 46 177
3 176 45 173
3 177 4 176
3 180 178 179
3 179 48 180
3 178 42 179
3 180 47 178
3 169 181 179
3 179 42 169
3 181 48 179
3 169 12 181
3 182 168 178
3 178 47 182
3 168 42 178
3 182 13 168
3 184 183 180
3 180 48 184
3 183 47 180
3 184 8 183
3 187 185 186
3 186 50 187
3 185 44 186
3 187 49 185
3 165 188 186
3 186 44 165
3 188 50 186
3 165 14 188
3 189 170 185
3 185 49 189
3 170 44 185
3 189 12 170
3 191 190 187
3 187 50 191
3 190 49 187
3 191 7 190
3 194 192 193
3 193 53 194
3 192 52 193
3 194 51 192
3 196 195 193
3 193 52 196
3 195 53 193
3 196 16 195
3 198 197 192
3 192 51 198
3 197 52 192
3 198 14 197
3 200 199 194
3 194 53 200
3 199 51 194
3 200 15 199
3 203 201 202
3 202 45 203
3 201 52 202
3 203 54 201
3 197 175 202
3 202 52 197
3 175 45 202
3 197 14 175
3 204 196 201
3 201 54 204
3 196 52 201
3 204 16 196
3 176 205 203
3 203 45 176
3 205 54 203
3 176 4 205
3 208 206 207
3 207 55 208
3 206 51 207
3 208 50 206
3 199 209 207
3 207 51 199
3 209 55 207
3 199 15 209
3 188 198 206
3 206 50 188
3 198 51 206
3 188 14 198
3 210 191 208
3 208 55 210
3 191 50 208
3 210 7 191
3 213 211 212
3 212 57 213
3 211 53 212
3 213 56 211
3 195 214 212
3 212 53 195
3 214 57 212
3 195 16 214
3 215 200 211
3 211 56 215
3 200 53 211
3 215 15 200
3 217 216 213
3 213 57 217
3 216 56 213
3 217 9 216
3 220 218 219
3 219 60 220
3 218 59 219
3 220 58 218
3 222 221 219
3 219 59 222
3 221 60 219
3 222 19 221
3 224 223 218
3 218 58 224
3 223 59 218
3 224 18 223
3 226 225 220
3 220 60 226
3 225 58 220
3 226 17 225
3 229 227 228
3 228 62 229
3 227 59 228
3 229 61 227
3 223 230 228
3 228 59 223
3 230 62 228
3 223 18 230
3 231 222 227
3 227 61 231
3 222 59 227
3 231 19 222
3 233 232 229
3 229 62 233
3 232 61 229
3 233 5 232
3 236 234 235
3 235 64 236
3 234 58 235
3 236 63 234
3 225 237 235
3 235 58 225
3 237 64 235
3 225 17 237
3 238 224 234
3 234 63 238
3 224 58 234
3 238 18 224
3 240 239 236
3 236 64 240
3 239 63 236
3 240 6 239
3 243 241 242
3 242 66 243
3 241 60 242
3 243 65 241
3 221 244 242
3 242 60 221
3 244 66 242
3 221 19 244
3 245 226 241
3 241 65 245
3 226 60 241
3 245 17 226
3 247 246 243
3 243 66 247
3 246 65 243
3 247 11 246
3 250 248 249
3 249 69 250
3 248 68 249
3 250 67 248
3 252 251 249
3 249 68 252
3 251 69 249
3 252 18 251
3 254 253 248
3 248 67 254
3 253 68 248
3 254 21 253
3 256 255 250
3 250 69 256
3 255 67 250
3 256 20 255
3 259 257 258
3 258 70 259
3 257 68 258
3 259 62 257
3 253 260 258
3 258 68 253
3 260 70 258
3 253 21 260
3 230 252 257
3 257 62 230
3 252 68 257
3 230 18 252
3 261 233 259
3 259 70 261
3 233 62 259
3 261 5 233
3 264 262 263
3 263 72 264
3 262 67 263
3 264 71 262
3 255 265 263
3 263 67 255
3 265 72 263
3 255 20 265
3 266 254 262
3 262 71 266
3 254 67 262
3 266 21 254
3 268 267 264
3 264 72 268
3 267 71 264
3 268 10 267
3 271 269 270
3 270 63 271
3 269 69 270
3 271 73 269
3 251 238 270
3 270 69 251
3 238 63 270
3 251 18 238
3 272 256 269
3 269 73 272
3 256 69 269
3 272 20 256
3 239 273 271
3 271 63 239
3 273 73 271
3 239 6 273
3 276 274 275
3 275 76 276
3 274 75 275
3 276 74 274
3 278 277 275
3 275 75 278
3 277 76 275
3 278 24 277
3 280 279 274
3 274 74 280
3 279 75 274
3 280 23 279
3 282 281 276
3 276 76 282
3 281 74 276
3 282 22 281
3 285 283 284
3 284 78 285
3 283 75 284
3 285 77 283
3 279 286 284
3 284 75 279
3 286 78 284
3 279 23 286
3 287 278 283
3 283 77 287
3 278 75 283
3 287 24 278
3 289 288 285
3 285 78 289
3 288 77 285
3 289 0 288
3 292 290 291
3 291 80 292
3 290 74 291
3 292 79 290
3 281 293 291
3 291 74 281
3 293 80 291
3 281 22 293
3 294 280 290
3 290 79 294
3 280 74 290
3 294 23 280
3 296 295 292
3 292 80 296
3 295 79 292
3 296 4 295
3 299 297 298
3 298 82 299
3 297 76 298
3 299 81 297
3 277 300 298
3 298 76 277
3 300 82 298
3 277 24 300
3 301 282 297
3 297 81 301
3 282 76 297
3 301 22 282
3 303 302 299
3 299 82 303
3 302 81 299
3 303 3 302
3 306 304 305
3 305 85 306
3 304 84 305
3 306 83 304
3 308 307 305
3 305 84 308
3 307 85 305
3 308 26 307
3 310 309 304
3 304 83 310
3 309 84 304
3 310 24 309
3 312 311 306
3 306 85 312
3 311 83 306
3 312 25 311
3 315 313 314
3 314 77 315
3 313 84 314
3 315 86 313
3 309 287 314
3 314 84 309
3 287 77 314
3 309 24 287
3 316 308 313
3 313 86 316
3 308 84 313
3 316 26 308
3 288 317 315
3 315 77 288
3 317 86 315
3 288 0 317
3 320 318 319
3 319 87 320
3 318 83 319
3 320 82 318
3 311 321 319
3 319 83 311
3 321 87 319
3 311 25 321
3 300 310 318
3 318 82 300
3 310 83 318
3 300 24 310
3 322 303 320
3 320 87 322
3 303 82 320
3 322 3 303
3 325 323 324
3 324 89 325
3 323 85 324
3 325 88 323
3 307 326 324
3 324 85 307
3 326 89 324
3 307 26 326
3 327 312 323
3 323 88 327
3 312 85 323
3 327 25 312
3 329 328 325
3 325 89 329
3 328 88 325
3 329 5 328
3 332 330 331
3 331 92 332
3 330 91 331
3 332 90 330
3 334 333 331
3 331 91 334
3 333 92 331
3 334 29 333
3 336 335 330
3 330 90 336
3 335 91 330
3 336 28 335
3 338 337 332
3 332 92 338
3 337 90 332
3 338 27 337
3 341 339 340
3 340 94 341
3 339 91 340
3 341 93 339
3 335 342 340
3 340 91 335
3 342 94 340
3 335 28 342
3 343 334 339
3 339 93 343
3 334 91 339
3 343 29 334
3 345 344 341
3 341 94 345
3 344 93 341
3 345 2 344
3 348 346 347
3 347 96 348
3 346 90 347
3 348 95 346
3 337 349 347
3 347 90 337
3 349 96 347
3 337 27 349
3 350 336 346
3 346 95 350
3 336 90 346
3 350 28 336
3 352 351 348
3 348 96 352
3 351 95 348
3 352 7 351
3 355 353 354
3 354 98 355
3 353 92 354
3 355 97 353
3 333 356 354
3 354 92 333
3 356 98 354
3 333 29 356
3 357 338 353
3 353 97 357
3 338 92 353
3 357 27 338
3 359 358 355
3 355 98 359
3 358 97 355
3 359 1 358
3 362 360 361
3 361 101 362
3 360 100 361
3 362 99 360
3 364 363 361
3 361 100 364
3 363 101 361
3 364 31 363
3 366 365 360
3 360 99 366
3 365 100 360
3 366 29 365
3 368 367 362
3 362 101 368
3 367 99 362
3 368 30 367
3 371 369 370
3 370 93 371
3 369 100 370
3 371 102 369
3 365 343 370
3 370 100 365
3 343 93 370
3 365 29 343
3 372 364 369
3 369 102 372
3 364 100 369
3 372 31 364
3 344 373 371
3 371 93 344
3 373 102 371
3 344 2 373
3 376 374 375
3 375 103 376
3 374 99 375
3 376 98 374
3 367 377 375
3 375 99 367
3 377 103 375
3 367 30 377
3 356 366 374
3 374 98 356
3 366 99 374
3 356 29 366
3 378 359 376
3 376 103 378
3 359 98 376
3 378 1 359
3 381 379 380
3 380 105 381
3 379 101 380
3 381 104 379
3 363 382 380
3 380 101 363
3 382 105 380
3 363 31 382
3 383 368 379
3 379 104 383
3 368 101 379
3 383 30 368
3 385 384 381
3 381 105 385
3 384 104 381
3 385 6 384
3 388 386 387
3 387 108 388
3 386 107 387
3 388 106 386
3 390 389 387
3 387 107 390
3 389 108 387
3 390 34 389
3 392 391 386
3 386 106 392
3 391 107 386
3 392 33 391
3 394 393 388
3 388 108 394
3 393 106 388
3 394 32 393
3 397 395 396
3 396 110 397
3 395 107 396
3 397 109 395
3 391 398 396
3 396 107 391
3 398 110 396
3 391 33 398
3 399 390 395
3 395 109 399
3 390 107 395
3 399 34 390
3 401 400 397
3 397 110 401
3 400 109 397
3 401 8 400
3 404 402 403
3 403 112 404
3 402 106 403
3 404 111 402
3 393 405 403
3 403 106 393
3 405 112 403
3 393 32 405
3 406 392 402
3 402 111 406
3 392 106 402
3 406 33 392
3 408 407 404
3 404 112 408
3 407 111 404
3 408 0 407
3 411 409 410
3 410 114 411
3 409 108 410
3 411 113 409
3 389 412 410
3 410 108 389
3 412 114 410
3 389 34 412
3 413 394 409
3 409 113 413
3 394 108 409
3 413 32 394
3 415 414 411
3 411 114 415
3 414 113 411
3 415 11 414
3 418 416 417
3 417 117 418
3 416 116 417
3 418 115 416
3 420 419 417
3 417 116 420
3 419 117 417
3 420 36 419
3 422 421 416
3 416 115 422
3 421 116 416
3 422 34 421
3 424 423 418
3 418 117 424
3 423 115 418
3 424 35 423
3 427 425 426
3 426 109 427
3 425 116 426
3 427 118 425
3 421 399 426
3 426 116 421
3 399 109 426
3 421 34 399
3 428 420 425
3 425 118 428
3 420 116 425
3 428 36 420
3 400 429 427
3 427 109 400
3 429 118 427
3 400 8 429
3 432 430 431
3 431 119 432
3 430 115 431
3 432 114 430
3 423 433 431
3 431 115 423
3 433 119 431
3 423 35 433
3 412 422 430
3 430 114 412
3 422 115 430
3 412 34 422
3 434 415 432
3 432 119 434
3 415 114 432
3 434 11 415
3 437 435 436
3 436 121 437
3 435 117 436
3 437 120 435
3 419 438 436
3 436 117 419
3 438 121 436
3 419 36 438
3 439 424 435
3 435 120 439
3 424 117 435
3 439 35 424
3 441 440 437
3 437 121 441
3 440 120 437
3 441 1 440
3 444 442 443
3 443 124 444
3 442 123 443
3 444 122 442
3 446 445 443
3 443 123 446
3 445 124 443
3 446 39 445
3 448 447 442
3 442 122 448
3 447 123 442
3 448 38 447
3 450 449 444
3 444 124 450
3 449 122 444
3 450 37 449
3 453 451 452
3 452 126 453
3 451 123 452
3 453 125 451
3 447 454 452
3 452 123 447
3 454 126 452
3 447 38 454
3 455 446 451
3 451 125 455
3 446 123 451
3 455 39 446
3 457 456 453
3 453 126 457
3 456 125 453
3 457 9 456
3 460 458 459
3 459 128 460
3 458 122 459
3 460 127 458
3 449 461 459
3 459 122 449
3 461 128 459
3 449 37 461
3 462 448 458
3 458 127 462
3 448 122 458
3 462 38 448
3 464 463 460
3 460 128 464
3 463 127 460
3 464 10 463
3 467 465 466
3 466 130 467
3 465 124 466
3 467 129 465
3 445 468 466
3 466 124 445
3 468 130 466
3 445 39 468
3 469 450 465
3 465 129 469
3 450 124 465
3 469 37 450
3 471 470 467
3 467 130 471
3 470 129 467
3 471 3 470
3 474 472 473
3 473 133 474
3 472 132 473
3 474 131 472
3 476 475 473
3 473 132 476
3 475 133 473
3 476 38 475
3 478 477 472
3 472 131 478
3 477 132 472
3 478 41 477
3 480 479 474
3 474 133 480
3 479 131 474
3 480 40 479
3 483 481 482
3 482 134 483
3 481 132 482
3 483 126 481
3 477 484 482
3 482 132 477
3 484 134 482
3 477 41 484
3 454 476 481
3 481 126 454
3 476 132 481
3 454 38 476
3 485 457 483
3 483 134 485
3 457 126 483
3 485 9 457
3 488 486 487
3 487 136 488
3 486 131 487
3 488 135 486
3 479 489 487
3 487 131 479
3 489 136 487
3 479 40 489
3 490 478 486
3 486 135 490
3 478 131 486
3 490 41 478
3 492 491 488
3 488 136 492
3 491 135 488
3 492 2 491
3 495 493 494
3 494 127 495
3 493 133 494
3 495 137 493
3 475 462 494
3 494 133 475
3 462 127 494
3 475 38 462
3 496 480 493
3 493 137 496
3 480 133 493
3 496 40 480
3 463 497 495
3 495 127 463
3 497 137 495
3 463 10 497
3 500 498 499
3 499 140 500
3 498 139 499
3 500 138 498
3 502 501 499
3 499 139 502
3 501 140 499
3 502 33 501
3 504 503 498
3 498 138 504
3 503 139 498
3 504 13 503
3 506 505 500
3 500 140 506
3 505 138 500
3 506 23 505
3 509 507 508
3 508 47 509
3 507 139 508
3 509 110 507
3 503 182 508
3 508 139 503
3 182 47 508
3 503 13 182
3 398 502 507
3 507 110 398
3 502 139 507
3 398 33 502
3 183 401 509
3 509 47 183
3 401 110 509
3 183 8 401
3 512 510 511
3 511 79 512
3 510 138 511
3 512 46 510
3 505 294 511
3 511 138 505
3 294 79 511
3 505 23 294
3 174 504 510
3 510 46 174
3 504 138 510
3 174 13 504
3 295 177 512
3 512 79 295
3 177 46 512
3 295 4 177
3 515 513 514
3 514 111 515
3 513 140 514
3 515 78 513
3 501 406 514
3 514 140 501
3 406 111 514
3 501 33 406
3 286 506 513
3 513 78 286
3 506 140 513
3 286 23 506
3 407 289 515
3 515 111 407
3 289 78 515
3 407 0 289
3 518 516 517
3 517 143 518
3 516 142 517
3 518 141 516
3 520 519 517
3 517 142 520
3 519 143 517
3 520 19 519
3 522 521 516
3 516 141 522
3 521 142 516
3 522 32 521
3 524 523 518
3 518 143 524
3 523 141 518
3 524 26 523
3 527 525 526
3 526 113 527
3 525 142 526
3 527 66 525
3 521 413 526
3 526 142 521
3 413 113 526
3 521 32 413
3 244 520 525
3 525 66 244
3 520 142 525
3 244 19 520
3 414 247 527
3 527 113 414
3 247 66 527
3 414 11 247
3 530 528 529
3 529 86 530
3 528 141 529
3 530 112 528
3 523 316 529
3 529 141 523
3 316 86 529
3 523 26 316
3 405 522 528
3 528 112 405
3 522 141 528
3 405 32 522
3 317 408 530
3 530 86 317
3 408 112 530
3 317 0 408
3 533 531 532
3 532 61 533
3 531 143 532
3 533 89 531
3 519 231 532
3 532 143 519
3 231 61 532
3 519 19 231
3 326 524 531
3 531 89 326
3 524 143 531
3 326 26 524
3 232 329 533
3 533 61 232
3 329 89 533
3 232 5 329
3 536 534 535
3 535 146 536
3 534 145 535
3 536 144 534
3 538 537 535
3 535 145 538
3 537 146 535
3 538 22 537
3 540 539 534
3 534 144 540
3 539 145 534
3 540 16 539
3 542 541 536
3 536 146 542
3 541 144 536
3 542 39 541
3 545 543 544
3 544 54 545
3 543 145 544
3 545 80 543
3 539 204 544
3 544 145 539
3 204 54 544
3 539 16 204
3 293 538 543
3 543 80 293
3 538 145 543
3 293 22 538
3 205 296 545
3 545 54 205
3 296 80 545
3 205 4 296
3 548 546 547
3 547 125 548
3 546 144 547
3 548 57 546
3 541 455 547
3 547 144 541
3 455 125 547
3 541 39 455
3 214 540 546
3 546 57 214
3 540 144 546
3 214 16 540
3 456 217 548
3 548 125 456
3 217 57 548
3 456 9 217
3 551 549 550
3 550 81 551
3 549 146 550
3 551 130 549
3 537 301 550
3 550 146 537
3 301 81 550
3 537 22 301
3 468 542 549
3 549 130 468
3 542 146 549
3 468 39 542
3 302 471 551
3 551 81 302
3 471 130 551
3 302 3 471
3 554 552 553
3 553 149 554
3 552 148 553
3 554 147 552
3 556 555 553
3 553 148 556
3 555 149 553
3 556 21 555
3 558 557 552
3 552 147 558
3 557 148 552
3 558 25 557
3 560 559 554
3 554 149 560
3 559 147 554
3 560 37 559
3 563 561 562
3 562 88 563
3 561 148 562
3 563 70 561
3 557 327 562
3 562 148 557
3 327 88 562
3 557 25 327
3 260 556 561
3 561 70 260
3 556 148 561
3 260 21 556
3 328 261 563
3 563 88 328
3 261 70 563
3 328 5 261
3 566 564 565
3 565 129 566
3 564 147 565
3 566 87 564
3 559 469 565
3 565 147 559
3 469 129 565
3 559 37 469
3 321 558 564
3 564 87 321
3 558 147 564
3 321 25 558
3 470 322 566
3 566 129 470
3 322 87 566
3 470 3 322
3 569 567 568
3 568 71 569
3 567 149 568
3 569 128 567
3 555 266 568
3 568 149 555
3 266 71 568
3 555 21 266
3 461 560 567
3 567 128 461
3 560 149 567
3 461 37 560
3 267 464 569
3 569 71 267
3 464 128 569
3 267 10 464
3 572 570 571
3 571 152 572
3 570 151 571
3 572 150 570
3 574 573 571
3 571 151 574
3 573 152 571
3 574 27 573
3 576 575 570
3 570 150 576
3 575 151 570
3 576 12 575
3 578 577 572
3 572 152 578
3 577 150 572
3 578 36 577
3 581 579 580
3 580 49 581
3 579 151 580
3 581 96 579
3 575 189 580
3 580 151 575
3 189 49 580
3 575 12 189
3 349 574 579
3 579 96 349
3 574 151 579
3 349 27 574
3 190 352 581
3 581 49 190
3 352 96 581
3 190 7 352
3 584 582 583
3 583 118 584
3 582 150 583
3 584 48 582
3 577 428 583
3 583 150 577
3 428 118 583
3 577 36 428
3 181 576 582
3 582 48 181
3 576 150 582
3 181 12 576
3 429 184 584
3 584 118 429
3 184 48 584
3 429 8 184
3 587 585 586
3 586 97 587
3 585 152 586
3 587 121 585
3 573 357 586
3 586 152 573
3 357 97 586
3 573 27 357
3 438 578 585
3 585 121 438
3 578 152 585
3 438 36 578
3 358 441 587
3 587 97 358
3 441 121 587
3 358 1 441
3 590 588 589
3 589 155 590
3 588 154 589
3 590 153 588
3 592 591 589
3 589 154 592
3 591 155 589
3 592 17 591
3 594 593 588
3 588 153 594
3 593 154 588
3 594 30 593
3 596 595 590
3 590 155 596
3 595 153 590
3 596 35 595
3 599 597 598
3 598 104 599
3 597 154 598
3 599 64 597
3 593 383 598
3 598 154 593
3 383 104 598
3 593 30 383
3 237 592 597
3 597 64 237
3 592 154 597
3 237 17 592
3 384 240 599
3 599 104 384
3 240 64 599
3 384 6 240
3 602 600 601
3 601 120 602
3 600 153 601
3 602 103 600
3 595 439 601
3 601 153 595
3 439 120 601
3 595 35 439
3 377 594 600
3 600 103 377
3 594 153 600
3 377 30 594
3 440 378 602
3 602 120 440
3 378 103 602
3 440 1 378
3 605 603 604
3 604 65 605
3 603 155 604
3 605 119 603
3 591 245 604
3 604 155 591
3 245 65 604
3 591 17 245
3 433 596 603
3 603 119 433
3 596 155 603
3 433 35 596
3 246 434 605
3 605 65 246
3 434 119 605
3 246 11 434
3 608 606 607
3 607 158 608
3 606 157 607
3 608 156 606
3 610 609 607
3 607 157 610
3 609 158 607
3 610 15 609
3 612 611 606
3 606 156 612
3 611 157 606
3 612 28 611
3 614 613 608
3 608 158 614
3 613 156 608
3 614 41 613
3 617 615 616
3 616 95 617
3 615 157 616
3 617 55 615
3 611 350 616
3 616 157 611
3 350 95 616
3 611 28 350
3 209 610 615
3 615 55 209
3 610 157 615
3 209 15 610
3 351 210 617
3 617 95 351
3 210 55 617
3 351 7 210
3 620 618 619
3 619 135 620
3 618 156 619
3 620 94 618
3 613 490 619
3 619 156 613
3 490 135 619
3 613 41 490
3 342 612 618
3 618 94 342
3 612 156 618
3 342 28 612
3 491 345 620
3 620 135 491
3 345 94 620
3 491 2 345
3 623 621 622
3 622 56 623
3 621 158 622
3 623 134 621
3 609 215 622
3 622 158 609
3 215 56 622
3 609 15 215
3 484 614 621
3 621 134 484
3 614 158 621
3 484 41 614
3 216 485 623
3 623 56 216
3 485 134 623
3 216 9 485
3 626 624 625
3 625 161 626
3 624 160 625
3 626 159 624
3 628 627 625
3 625 160 628
3 627 161 625
3 628 31 627
3 630 629 624
3 624 159 630
3 629 160 624
3 630 20 629
3 632 631 626
3 626 161 632
3 631 159 626
3 632 40 631
3 635 633 634
3 634 73 635
3 633 160 634
3 635 105 633
3 629 272 634
3 634 160 629
3 272 73 634
3 629 20 272
3 382 628 633
3 633 105 382
3 628 160 633
3 382 31 628
3 273 385 635
3 635 73 273
3 385 105 635
3 273 6 385
3 638 636 637
3 637 137 638
3 636 159 637
3 638 72 636
3 631 496 637
3 637 159 631
3 496 137 637
3 631 40 496
3 265 630 636
3 636 72 265
3 630 159 636
3 265 20 630
3 497 268 638
3 638 137 497
3 268 72 638
3 497 10 268
3 641 639 640
3 640 102 641
3 639 161 640
3 641 136 639
3 627 372 640
3 640 161 627
3 372 102 640
3 627 31 372
3 489 632 639
3 639 136 489
3 632 161 639
3 489 40 632
3 373 492 641
3 641 102 373
3 492 136 641
3 373 2 492
