# vtk DataFile Version 3.0
this file was written using fslvtkio
ASCII
DATASET POLYDATA
POINTS 642 float
118.463 103.594 138.484
107.678 104.573 136.336
104.43 107.237 126.968
113.82 106.076 129.747
113.538 99.775 132.071
115.424 110.222 134.322
108.217 110.009 133.181
107.967 100.364 130.687
112.353 98.7753 140.158
108.37 103.699 123.357
109.187 110.545 125.275
113.19 106.63 141.495
110.112 98.6314 135.503
113.889 97.805 136.234
110.532 98.1655 130.754
107.355 100.904 125.984
110.898 101.482 127.618
110.663 108.457 137.598
111.748 110.328 133.747
115.087 108.046 138.231
108.066 110.626 128.799
112.578 110.642 129.767
113.685 102.957 130.899
116.402 100.777 135.761
116.946 105.091 133.926
115.624 108.549 131.654
118.216 107.639 136.902
107.46 102.054 133.844
105.736 103.545 128.001
105.472 106.123 131.822
107.184 107.946 135.638
105.128 109.859 129.975
117.383 105.288 142.27
116.462 100.509 140.981
113.311 102.587 142.726
109.816 105.671 139.921
109.938 101.588 138.715
112.216 108.625 126.526
107.858 108.126 121.984
111.241 105.159 125.805
104.909 110.38 124.188
105.011 105.368 123.012
111.781 97.3672 135.98
112.279 97.4472 133.454
110.244 97.803 133.188
112.175 98.7809 131.363
114.046 98.3411 133.831
113.19 97.9596 138.438
111.192 98.405 137.952
108.962 99.3597 133.066
108.91 98.8085 130.661
108.963 99.1743 128.343
110.8 99.5568 128.919
109.284 100.68 126.456
112.245 100.499 129.846
107.613 100.516 128.364
107.8 101.955 124.232
109.685 102.458 125.295
111.346 109.366 135.743
113.408 109.404 136.23
112.879 108.243 137.961
115.329 109.405 136.452
113.609 110.367 134.171
109.909 110.217 133.414
109.427 109.36 135.448
111.932 107.596 139.687
114.252 107.241 140.003
110.331 110.796 129.366
112.11 110.882 131.762
109.98 110.763 131.298
114.043 110.551 132.066
110.903 110.601 127.615
108.529 110.625 126.972
108.074 110.543 130.979
115.18 101.914 133.37
116.551 102.966 134.923
115.471 103.779 132.485
117.766 104.34 136.207
117.551 102.065 137.223
115.075 100.074 133.812
113.507 101.358 131.529
113.839 104.528 130.129
115.395 105.545 131.809
116.576 106.904 132.765
118.014 106.406 135.276
117.567 108.48 134.15
118.545 105.641 137.783
114.651 107.253 130.594
115.852 109.716 132.836
116.994 109.269 135.755
106.421 102.83 130.94
105.486 104.686 129.97
106.232 104.012 132.64
104.816 106.717 129.413
104.96 105.357 127.302
106.801 101.885 129.3
107.718 101.136 132.291
107.451 103.323 135.093
106.502 105.324 134.129
106.07 107.18 133.799
105.062 108.047 131.068
105.895 109.018 132.926
104.426 108.703 128.352
107.411 106.252 136.049
107.498 109.215 134.555
106.569 110.113 131.627
117.671 102.744 142.646
115.109 101.087 143.123
115.546 104.124 143.789
112.684 100.358 141.819
114.376 99.2374 140.884
117.954 101.92 139.875
118.676 104.316 140.562
115.214 106.194 142.281
113.32 104.895 142.453
111.642 104.066 141.407
111.497 101.936 140.922
109.942 103.545 139.658
111.159 100.092 139.461
111.384 106.3 140.975
108.529 104.998 138.249
108.6 103.037 137.56
110.266 108.62 123.848
109.748 106.594 123.455
111.638 107.029 125.711
109.818 104.494 124.371
107.923 105.762 122.241
108.57 110.099 123.211
110.831 109.766 125.662
113.04 107.279 128.078
112.548 105.628 127.805
104.238 108.294 122.603
105.898 106.721 121.244
106.154 109.955 122.112
106.463 103.958 122.423
104.564 106.493 124.85
104.166 108.793 125.411
107.083 110.696 124.486
115.452 99.0142 135.966
115.188 98.8847 138.73
116.844 100.331 138.32
117.947 106.244 139.551
116.217 106.698 140.407
116.827 107.998 137.86
111.032 103.321 126.555
112.279 102.282 129.143
112.381 104.024 128.356
113.889 108.531 129.138
114.421 109.893 130.472
112.636 109.873 127.95
109.875 100.008 137.202
108.74 100.326 134.759
108.608 101.684 136.306
108.298 106.85 138.025
108.636 108.499 136.912
109.93 107.53 139.257
105.27 104.317 125.336
106.392 102.217 126.767
105.95 102.736 124.055
106.357 110.721 126.382
106.353 110.583 129.176
104.623 110.287 126.982
112.035 97.2847 134.699
111.216 97.5047 133.361
111.001 97.4493 134.576
110.43 97.7675 131.98
111.384 97.7337 132.179
113.066 97.433 134.839
112.845 97.4167 136.067
110.837 97.803 135.698
110.18 98.0451 134.434
112.27 97.995 132.313
113.208 97.7399 133.635
113.148 98.3901 132.567
114.006 97.9081 134.962
111.404 98.3451 131.098
112.889 99.2272 131.744
113.821 98.9736 132.812
112.479 97.5027 137.199
111.355 97.7325 137.011
112.067 97.8899 138.248
110.62 98.4186 136.717
113.544 97.8115 137.336
112.738 98.1599 139.411
111.77 98.4862 139.103
109.545 98.4929 133.228
109.567 98.1918 131.937
108.959 99.0133 131.919
109.636 98.2407 130.68
109.522 98.9026 134.31
108.45 99.8236 131.849
108.42 99.5835 130.704
109.937 99.2322 128.6
110.04 100.127 127.72
109.141 99.8537 127.335
110.142 100.983 127.018
110.798 100.498 128.195
110.694 98.6939 129.727
109.752 98.5633 129.481
108.238 100.003 127.178
108.357 100.585 126.173
111.541 100.031 129.282
111.473 99.0695 130.063
112.226 99.5715 130.487
111.572 100.943 128.725
112.861 100.088 131.055
108.9 98.8481 129.446
108.214 99.7654 128.322
108.26 99.6418 129.514
107.488 100.612 127.186
107.78 100.409 129.568
108.555 101.208 125.31
109.537 101.491 125.827
108.806 102.054 124.722
110.301 101.892 126.431
107.541 101.243 124.992
108.12 102.783 123.716
109.051 103.017 124.277
112.37 109.379 135.988
113.177 108.803 137.057
112.092 108.809 136.867
113.986 108.226 138.068
114.238 108.774 137.245
112.567 109.944 135.122
111.622 109.875 134.831
111.089 108.887 136.701
111.777 108.35 137.727
114.378 109.376 136.405
113.469 109.985 135.262
114.472 110.006 135.37
112.672 110.338 134.061
115.209 108.736 137.362
115.376 110.006 135.379
114.524 110.345 134.28
110.692 109.821 134.627
110.409 109.366 135.635
109.732 109.8 134.459
110.075 108.922 136.543
110.849 110.249 133.604
109.032 110.134 133.293
108.832 109.729 134.307
112.393 107.868 138.761
113.564 107.732 138.927
113.089 107.446 139.827
114.666 107.594 139.058
111.346 108.02 138.599
112.568 107.209 140.684
113.73 107.018 140.859
111.245 110.879 130.527
111.057 110.8 131.554
110.149 110.837 130.326
110.89 110.597 132.548
111.863 110.678 132.754
112.291 110.879 130.727
111.473 110.812 129.605
109.223 110.728 129.148
109.063 110.774 130.059
112.805 110.635 133.02
113.035 110.728 131.898
113.802 110.592 133.14
113.301 110.662 130.895
114.771 110.456 133.254
110.64 110.825 128.51
109.44 110.765 128.229
109.708 110.656 127.331
108.326 110.639 127.898
111.792 110.705 128.71
109.959 110.509 126.472
108.859 110.622 126.148
108.987 110.681 131.092
109.968 110.552 132.412
108.988 110.492 132.232
108.059 110.65 129.892
108.146 110.306 132.117
115.87 102.408 134.159
116.071 103.387 133.637
115.277 102.85 132.848
116.234 104.361 133.271
116.729 103.974 134.392
116.442 101.894 135.306
115.826 101.402 134.572
114.451 102.466 132.205
114.587 103.278 131.775
117.133 103.608 135.573
117.036 102.484 136.07
117.693 103.196 136.686
116.995 101.39 136.478
117.335 104.654 135.057
118.167 103.971 137.343
118.08 102.851 137.848
115.155 100.996 133.634
114.348 101.621 132.479
114.34 100.725 132.701
113.62 102.171 131.308
115.718 100.418 134.86
114.29 99.8435 132.89
113.504 100.557 131.794
114.696 104.069 131.319
115.472 104.671 132.174
114.681 104.93 131.005
116.233 105.284 132.869
113.827 103.734 130.503
113.867 105.33 129.957
114.595 105.802 130.762
117.45 106.67 133.962
117.98 107.456 134.716
117.242 107.644 133.424
118.025 108.155 135.49
118.27 107.111 136.046
117.519 105.697 134.551
116.817 105.996 133.317
116.234 107.814 132.28
116.737 108.542 132.916
118.34 106.07 136.451
117.819 105.326 135.681
118.22 104.998 136.946
118.413 106.652 137.328
118.552 104.612 138.185
115.948 106.161 132.331
115.609 107.122 131.739
115.01 106.425 131.205
115.189 107.894 131.13
114.197 106.607 130.176
116.802 109.205 133.539
117.43 108.98 134.969
116.601 109.641 134.318
117.712 108.516 136.31
115.904 109.171 132.265
115.698 110.064 133.606
116.207 109.857 135.039
105.887 103.715 130.443
105.825 104.355 131.332
106.308 103.37 131.855
105.801 105.021 132.124
105.486 105.323 130.934
105.63 104.077 129.052
106.06 103.214 129.518
106.898 102.525 132.383
106.811 103.029 133.09
105.138 105.66 129.666
105.194 104.979 128.664
104.873 105.952 128.407
105.333 104.437 127.639
105.144 106.339 130.604
104.618 106.943 128.174
104.707 106.33 127.166
106.605 102.375 130.087
107.051 102.012 131.627
107.198 101.536 130.832
107.541 101.639 132.997
106.222 102.715 128.625
107.363 101.086 130.02
107.856 100.718 131.488
106.823 103.614 133.841
106.28 104.664 133.347
106.94 104.285 134.525
105.915 105.689 132.965
107.414 102.712 134.412
107.534 104.01 135.673
107.129 104.963 135.177
105.515 107.582 132.476
105.453 108.555 132.025
105.89 108.076 133.469
105.492 109.436 131.503
104.981 109.02 130.637
105.262 107.089 131.489
105.72 106.67 132.818
106.582 107.638 134.669
106.413 108.5 134.276
104.724 108.408 129.784
104.901 107.329 130.287
104.596 107.697 128.96
104.703 109.348 129.178
104.368 107.928 127.662
106.23 106.216 133.911
106.74 106.769 134.878
106.938 105.842 135.052
107.236 107.117 135.904
107.512 105.375 136.162
106.631 109.145 133.774
106.129 109.689 132.315
107.006 109.704 133.126
105.756 110.119 130.853
107.182 108.645 135.05
107.867 109.66 133.838
107.414 110.067 132.454
116.511 101.964 143.202
115.495 102.593 143.707
116.806 103.406 143.627
114.414 103.269 143.492
114.181 101.872 143.284
115.982 100.804 142.306
117.048 101.571 142.018
117.697 104.095 142.785
116.654 104.742 143.373
113.787 100.62 142.647
114.795 100.092 142.08
113.518 99.6108 141.597
115.472 99.9 141.108
113.04 101.429 142.441
112.418 99.4835 140.989
113.279 98.8502 140.53
117.901 102.254 141.305
118.369 103.475 141.756
118.481 103.049 140.369
118.211 104.723 141.604
117.308 101.249 140.63
118.333 102.702 139.123
118.729 103.917 139.445
115.486 105.218 143.177
114.372 104.476 143.205
114.232 105.658 142.597
113.478 103.758 142.812
116.32 105.712 142.529
114.142 106.538 141.914
113.177 105.905 142.018
111.63 102.983 141.286
110.71 102.756 140.309
110.724 103.803 140.56
109.983 102.542 139.319
110.682 101.834 139.829
112.354 102.185 141.949
112.533 103.31 142.159
110.71 104.804 140.664
109.959 104.588 139.863
111.284 101.05 140.233
112.072 101.164 141.534
111.819 100.203 140.739
110.57 100.89 139.119
111.692 99.322 139.863
112.482 104.382 142.069
111.445 105.166 141.241
112.283 105.554 141.726
110.605 105.93 140.551
112.21 106.573 141.3
109.193 104.294 139.011
109.231 103.235 138.72
108.584 103.985 137.98
109.284 102.345 138.246
109.145 105.329 139.103
108.032 104.733 137.308
108.04 103.778 136.964
109.985 107.616 123.544
110.742 106.856 124.517
110.982 107.813 124.717
111.336 106.109 125.57
110.556 105.901 124.562
108.87 107.349 122.652
109.083 108.374 122.849
111.209 108.603 125.139
111.832 107.91 125.912
109.779 105.537 123.819
108.861 106.244 122.746
108.953 105.088 123.169
107.892 106.957 121.939
110.541 104.905 124.968
109.135 104.075 123.829
108.092 104.662 122.767
109.401 109.347 123.362
110.523 109.306 124.639
109.755 109.988 124.284
111.568 109.224 125.92
108.251 109.189 122.459
108.913 110.444 124.244
110.015 110.171 125.471
112.312 107.196 126.829
112.027 106.292 126.708
112.729 106.497 127.84
111.858 105.442 126.719
112.657 107.932 127.211
113.425 106.653 128.961
113.231 105.834 128.799
104.918 107.629 121.471
105.973 108.458 121.416
104.998 109.249 121.934
107.045 109.068 121.846
106.909 107.461 121.422
105.133 106.045 121.832
104.52 106.842 122.533
104.35 109.596 123.103
105.33 110.29 122.923
107.017 106.181 121.629
106.089 105.342 121.669
107.124 104.885 122.299
105.59 104.648 122.466
107.469 103.708 122.823
104.281 107.329 123.639
104.119 108.667 123.916
104.235 107.675 125.017
104.271 109.683 124.559
104.656 106.057 123.762
104.502 106.828 125.965
104.242 107.949 126.236
106.533 110.591 123.2
107.478 110.06 122.567
107.86 110.542 123.795
105.928 110.668 124.13
108.18 110.664 124.91
115.41 98.852 137.335
116.081 99.5579 138.583
116.223 99.5603 137.182
116.708 100.376 139.682
115.828 99.646 139.919
114.566 98.2777 137.465
114.727 98.3348 136.127
116.023 99.8344 135.926
116.721 100.422 136.944
114.867 99.0119 139.904
114.182 98.334 138.573
113.745 98.4732 139.708
114.708 98.6514 134.92
115.329 99.5172 134.825
114.566 99.2007 133.753
117.301 101.066 137.712
117.366 101.065 139.241
117.825 101.9 138.51
117.19 106.433 140.171
116.521 107.139 139.126
117.394 107.075 138.745
116.002 107.933 138.158
115.636 107.303 139.247
116.863 106.145 141.491
117.833 105.715 141.03
118.088 106.934 138.18
117.629 107.875 137.497
115.219 106.946 140.143
115.841 106.431 141.484
114.745 106.79 141.173
118.394 105.335 140.185
118.346 106.029 138.569
118.713 104.978 139.098
116.999 108.737 136.856
116.072 108.761 137.237
116.161 109.44 136.137
111.589 102.786 127.885
112.255 103.198 128.779
111.72 103.698 127.403
112.995 103.47 129.615
112.961 102.65 130.015
111.582 101.891 128.319
110.933 102.404 127.117
111.173 104.241 126.143
111.803 104.564 127.063
112.912 101.84 130.298
112.253 101.399 129.377
112.875 100.941 130.637
110.396 102.855 125.944
110.492 103.917 125.428
109.808 103.455 124.814
112.413 104.843 127.945
113.072 104.245 129.284
113.164 105.054 128.993
114.296 109.251 129.767
113.49 109.85 129.281
113.34 109.247 128.492
112.684 110.337 128.86
113.496 110.318 130.094
115.093 109.236 131.013
114.796 108.556 130.353
113.081 108.593 127.824
112.478 109.286 127.216
114.167 110.298 131.173
115.098 109.748 131.651
114.985 110.218 132.435
114.312 107.887 129.874
113.398 107.924 128.527
113.78 107.223 129.428
111.795 109.816 126.833
111.839 110.318 127.796
110.893 110.26 126.64
109.335 100.154 135.966
108.635 101 135.544
109.266 100.893 136.776
107.976 101.818 135.083
108.095 101.207 134.329
109.43 99.48 135.148
109.965 99.2928 136.362
109.867 100.804 137.959
109.228 101.602 137.548
108.156 100.715 133.552
108.899 99.8139 133.962
108.358 100.263 132.685
110.508 99.1833 137.523
110.501 100.068 138.342
111.155 99.238 138.716
108.609 102.342 136.984
107.955 102.46 135.689
107.994 103.151 136.352
108.375 107.795 137.614
109.251 108.022 138.13
109.024 107.243 138.725
110.267 108.06 138.424
109.639 108.488 137.3
107.822 108.253 136.368
107.677 107.43 136.919
109.008 106.282 139.022
109.745 106.673 139.742
109.074 108.947 136.229
108.028 108.807 135.725
108.452 109.312 134.998
107.746 106.551 137.103
108.416 105.905 138.194
107.875 105.59 137.204
110.565 106.921 140.197
110.901 107.7 139.443
111.556 107.161 140.53
105.776 103.188 125.957
106.116 102.462 125.376
105.59 103.568 124.624
106.596 101.735 124.991
106.763 101.512 126.317
105.989 102.901 127.275
105.508 103.878 126.646
105.044 104.778 124.109
105.439 104.003 123.405
106.951 101.32 127.512
106.554 102.079 128.023
107.19 101.217 128.796
105.125 104.802 126.324
104.841 105.366 124.943
104.763 105.844 126.051
106.081 103.243 123.026
106.798 102.051 124.017
107.147 102.86 123.273
106.25 110.649 127.674
105.427 110.588 127.997
105.376 110.701 126.512
104.861 110.092 128.481
105.648 110.346 129.455
107.134 110.613 128.869
107.2 110.595 127.593
105.569 110.747 125.22
104.654 110.362 125.494
106.358 110.456 130.412
107.229 110.589 130.051
107.292 110.341 131.274
107.448 110.615 126.725
106.629 110.767 125.373
107.767 110.64 125.765
104.279 109.616 126.115
104.446 109.532 127.769
104.244 108.701 126.949
POLYGONS 1280  5120
3 164 162 163
3 163 44 164
3 162 43 163
3 164 42 162
3 166 165 163
3 163 43 166
3 165 44 163
3 166 14 165
3 168 167 162
3 162 42 168
3 167 43 162
3 168 13 167
3 170 169 164
3 164 44 170
3 169 42 164
3 170 12 169
3 173 171 172
3 172 46 173
3 171 43 172
3 173 45 171
3 167 174 172
3 172 43 167
3 174 46 172
3 167 13 174
3 175 166 171
3 171 45 175
3 166 43 171
3 175 14 166
3 177 176 173
3 173 46 177
3 176 45 173
3 177 4 176
3 180 178 179
3 179 48 180
3 178 42 179
3 180 47 178
3 169 181 179
3 179 42 169
3 181 48 179
3 169 12 181
3 182 168 178
3 178 47 182
3 168 42 178
3 182 13 168
3 184 183 180
3 180 48 184
3 183 47 180
3 184 8 183
3 187 185 186
3 186 50 187
3 185 44 186
3 187 49 185
3 165 188 186
3 186 44 165
3 188 50 186
3 165 14 188
3 189 170 185
3 185 49 189
3 170 44 185
3 189 12 170
3 191 190 187
3 187 50 191
3 190 49 187
3 191 7 190
3 194 192 193
3 193 53 194
3 192 52 193
3 194 51 192
3 196 195 193
3 193 52 196
3 195 53 193
3 196 16 195
3 198 197 192
3 192 51 198
3 197 52 192
3 198 14 197
3 200 199 194
3 194 53 200
3 199 51 194
3 200 15 199
3 203 201 202
3 202 45 203
3 201 52 202
3 203 54 201
3 197 175 202
3 202 52 197
3 175 45 202
3 197 14 175
3 204 196 201
3 201 54 204
3 196 52 201
3 204 16 196
3 176 205 203
3 203 45 176
3 205 54 203
3 176 4 205
3 208 206 207
3 207 55 208
3 206 51 207
3 208 50 206
3 199 209 207
3 207 51 199
3 209 55 207
3 199 15 209
3 188 198 206
3 206 50 188
3 198 51 206
3 188 14 198
3 210 191 208
3 208 55 210
3 191 50 208
3 210 7 191
3 213 211 212
3 212 57 213
3 211 53 212
3 213 56 211
3 195 214 212
3 212 53 195
3 214 57 212
3 195 16 214
3 215 200 211
3 211 56 215
3 200 53 211
3 215 15 200
3 217 216 213
3 213 57 217
3 216 56 213
3 217 9 216
3 220 218 219
3 219 60 220
3 218 59 219
3 220 58 218
3 222 221 219
3 219 59 222
3 221 60 219
3 222 19 221
3 224 223 218
3 218 58 224
3 223 59 218
3 224 18 223
3 226 225 220
3 220 60 226
3 225 58 220
3 226 17 225
3 229 227 228
3 228 62 229
3 227 59 228
3 229 61 227
3 223 230 228
3 228 59 223
3 230 62 228
3 223 18 230
3 231 222 227
3 227 61 231
3 222 59 227
3 231 19 222
3 233 232 229
3 229 62 233
3 232 61 229
3 233 5 232
3 236 234 235
3 235 64 236
3 234 58 235
3 236 63 234
3 225 237 235
3 235 58 225
3 237 64 235
3 225 17 237
3 238 224 234
3 234 63 238
3 224 58 234
3 238 18 224
3 240 239 236
3 236 64 240
3 239 63 236
3 240 6 239
3 243 241 242
3 242 66 243
3 241 60 242
3 243 65 241
3 221 244 242
3 242 60 221
3 244 66 242
3 221 19 244
3 245 226 241
3 241 65 245
3 226 60 241
3 245 17 226
3 247 246 243
3 243 66 247
3 246 65 243
3 247 11 246
3 250 248 249
3 249 69 250
3 248 68 249
3 250 67 248
3 252 251 249
3 249 68 252
3 251 69 249
3 252 18 251
3 254 253 248
3 248 67 254
3 253 68 248
3 254 21 253
3 256 255 250
3 250 69 256
3 255 67 250
3 256 20 255
3 259 257 258
3 258 70 259
3 257 68 258
3 259 62 257
3 253 260 258
3 258 68 253
3 260 70 258
3 253 21 260
3 230 252 257
3 257 62 230
3 252 68 257
3 230 18 252
3 261 233 259
3 259 70 261
3 233 62 259
3 261 5 233
3 264 262 263
3 263 72 264
3 262 67 263
3 264 71 262
3 255 265 263
3 263 67 255
3 265 72 263
3 255 20 265
3 266 254 262
3 262 71 266
3 254 67 262
3 266 21 254
3 268 267 264
3 264 72 268
3 267 71 264
3 268 10 267
3 271 269 270
3 270 63 271
3 269 69 270
3 271 73 269
3 251 238 270
3 270 69 251
3 238 63 270
3 251 18 238
3 272 256 269
3 269 73 272
3 256 69 269
3 272 20 256
3 239 273 271
3 271 63 239
3 273 73 271
3 239 6 273
3 276 274 275
3 275 76 276
3 274 75 275
3 276 74 274
3 278 277 275
3 275 75 278
3 277 76 275
3 278 24 277
3 280 279 274
3 274 74 280
3 279 75 274
3 280 23 279
3 282 281 276
3 276 76 282
3 281 74 276
3 282 22 281
3 285 283 284
3 284 78 285
3 283 75 284
3 285 77 283
3 279 286 284
3 284 75 279
3 286 78 284
3 279 23 286
3 287 278 283
3 283 77 287
3 278 75 283
3 287 24 278
3 289 288 285
3 285 78 289
3 288 77 285
3 289 0 288
3 292 290 291
3 291 80 292
3 290 74 291
3 292 79 290
3 281 293 291
3 291 74 281
3 293 80 291
3 281 22 293
3 294 280 290
3 290 79 294
3 280 74 290
3 294 23 280
3 296 295 292
3 292 80 296
3 295 79 292
3 296 4 295
3 299 297 298
3 298 82 299
3 297 76 298
3 299 81 297
3 277 300 298
3 298 76 277
3 300 82 298
3 277 24 300
3 301 282 297
3 297 81 301
3 282 76 297
3 301 22 282
3 303 302 299
3 299 82 303
3 302 81 299
3 303 3 302
3 306 304 305
3 305 85 306
3 304 84 305
3 306 83 304
3 308 307 305
3 305 84 308
3 307 85 305
3 308 26 307
3 310 309 304
3 304 83 310
3 309 84 304
3 310 24 309
3 312 311 306
3 306 85 312
3 311 83 306
3 312 25 311
3 315 313 314
3 314 77 315
3 313 84 314
3 315 86 313
3 309 287 314
3 314 84 309
3 287 77 314
3 309 24 287
3 316 308 313
3 313 86 316
3 308 84 313
3 316 26 308
3 288 317 315
3 315 77 288
3 317 86 315
3 288 0 317
3 320 318 319
3 319 87 320
3 318 83 319
3 320 82 318
3 311 321 319
3 319 83 311
3 321 87 319
3 311 25 321
3 300 310 318
3 318 82 300
3 310 83 318
3 300 24 310
3 322 303 320
3 320 87 322
3 303 82 320
3 322 3 303
3 325 323 324
3 324 89 325
3 323 85 324
3 325 88 323
3 307 326 324
3 324 85 307
3 326 89 324
3 307 26 326
3 327 312 323
3 323 88 327
3 312 85 323
3 327 25 312
3 329 328 325
3 325 89 329
3 328 88 325
3 329 5 328
3 332 330 331
3 331 92 332
3 330 91 331
3 332 90 330
3 334 333 331
3 331 91 334
3 333 92 331
3 334 29 333
3 336 335 330
3 330 90 336
3 335 91 330
3 336 28 335
3 338 337 332
3 332 92 338
3 337 90 332
3 338 27 337
3 341 339 340
3 340 94 341
3 339 91 340
3 341 93 339
3 335 342 340
3 340 91 335
3 342 94 340
3 335 28 342
3 343 334 339
3 339 93 343
3 334 91 339
3 343 29 334
3 345 344 341
3 341 94 345
3 344 93 341
3 345 2 344
3 348 346 347
3 347 96 348
3 346 90 347
3 348 95 346
3 337 349 347
3 347 90 337
3 349 96 347
3 337 27 349
3 350 336 346
3 346 95 350
3 336 90 346
3 350 28 336
3 352 351 348
3 348 96 352
3 351 95 348
3 352 7 351
3 355 353 354
3 354 98 355
3 353 92 354
3 355 97 353
3 333 356 354
3 354 92 333
3 356 98 354
3 333 29 356
3 357 338 353
3 353 97 357
3 338 92 353
3 357 27 338
3 359 358 355
3 355 98 359
3 358 97 355
3 359 1 358
3 362 360 361
3 361 101 362
3 360 100 361
3 362 99 360
3 364 363 361
3 361 100 364
3 363 101 361
3 364 31 363
3 366 365 360
3 360 99 366
3 365 100 360
3 366 29 365
3 368 367 362
3 362 101 368
3 367 99 362
3 368 30 367
3 371 369 370
3 370 93 371
3 369 100 370
3 371 102 369
3 365 343 370
3 370 100 365
3 343 93 370
3 365 29 343
3 372 364 369
3 369 102 372
3 364 100 369
3 372 31 364
3 344 373 371
3 371 93 344
3 373 102 371
3 344 2 373
3 376 374 375
3 375 103 376
3 374 99 375
3 376 98 374
3 367 377 375
3 375 99 367
3 377 103 375
3 367 30 377
3 356 366 374
3 374 98 356
3 366 99 374
3 356 29 366
3 378 359 376
3 376 103 378
3 359 98 376
3 378 1 359
3 381 379 380
3 380 105 381
3 379 101 380
3 381 104 379
3 363 382 380
3 380 101 363
3 382 105 380
3 363 31 382
3 383 368 379
3 379 104 383
3 368 101 379
3 383 30 368
3 385 384 381
3 381 105 385
3 384 104 381
3 385 6 384
3 388 386 387
3 387 108 388
3 386 107 387
3 388 106 386
3 390 389 387
3 387 107 390
3 389 108 387
3 390 34 389
3 392 391 386
3 386 106 392
3 391 107 386
3 392 33 391
3 394 393 388
3 388 108 394
3 393 106 388
3 394 32 393
3 397 395 396
3 396 110 397
3 395 107 396
3 397 109 395
3 391 398 396
3 396 107 391
3 398 110 396
3 391 33 398
3 399 390 395
3 395 109 399
3 390 107 395
3 399 34 390
3 401 400 397
3 397 110 401
3 400 109 397
3 401 8 400
3 404 402 403
3 403 112 404
3 402 106 403
3 404 111 402
3 393 405 403
3 403 106 393
3 405 112 403
3 393 32 405
3 406 392 402
3 402 111 406
3 392 106 402
3 406 33 392
3 408 407 404
3 404 112 408
3 407 111 404
3 408 0 407
3 411 409 410
3 410 114 411
3 409 108 410
3 411 113 409
3 389 412 410
3 410 108 389
3 412 114 410
3 389 34 412
3 413 394 409
3 409 113 413
3 394 108 409
3 413 32 394
3 415 414 411
3 411 114 415
3 414 113 411
3 415 11 414
3 418 416 417
3 417 117 418
3 416 116 417
3 418 115 416
3 420 419 417
3 417 116 420
3 419 117 417
3 420 36 419
3 422 421 416
3 416 115 422
3 421 116 416
3 422 34 421
3 424 423 418
3 418 117 424
3 423 115 418
3 424 35 423
3 427 425 426
3 426 109 427
3 425 116 426
3 427 118 425
3 421 399 426
3 426 116 421
3 399 109 426
3 421 34 399
3 428 420 425
3 425 118 428
3 420 116 425
3 428 36 420
3 400 429 427
3 427 109 400
3 429 118 427
3 400 8 429
3 432 430 431
3 431 119 432
3 430 115 431
3 432 114 430
3 423 433 431
3 431 115 423
3 433 119 431
3 423 35 433
3 412 422 430
3 430 114 412
3 422 115 430
3 412 34 422
3 434 415 432
3 432 119 434
3 415 114 432
3 434 11 415
3 437 435 436
3 436 121 437
3 435 117 436
3 437 120 435
3 419 438 436
3 436 117 419
3 438 121 436
3 419 36 438
3 439 424 435
3 435 120 439
3 424 117 435
3 439 35 424
3 441 440 437
3 437 121 441
3 440 120 437
3 441 1 440
3 444 442 443
3 443 124 444
3 442 123 443
3 444 122 442
3 446 445 443
3 443 123 446
3 445 124 443
3 446 39 445
3 448 447 442
3 442 122 448
3 447 123 442
3 448 38 447
3 450 449 444
3 444 124 450
3 449 122 444
3 450 37 449
3 453 451 452
3 452 126 453
3 451 123 452
3 453 125 451
3 447 454 452
3 452 123 447
3 454 126 452
3 447 38 454
3 455 446 451
3 451 125 455
3 446 123 451
3 455 39 446
3 457 456 453
3 453 126 457
3 456 125 453
3 457 9 456
3 460 458 459
3 459 128 460
3 458 122 459
3 460 127 458
3 449 461 459
3 459 122 449
3 461 128 459
3 449 37 461
3 462 448 458
3 458 127 462
3 448 122 458
3 462 38 448
3 464 463 460
3 460 128 464
3 463 127 460
3 464 10 463
3 467 465 466
3 466 130 467
3 465 124 466
3 467 129 465
3 445 468 466
3 466 124 445
3 468 130 466
3 445 39 468
3 469 450 465
3 465 129 469
3 450 124 465
3 469 37 450
3 471 470 467
3 467 130 471
3 470 129 467
3 471 3 470
3 474 472 473
3 473 133 474
3 472 132 473
3 474 131 472
3 476 475 473
3 473 132 476
3 475 133 473
3 476 38 475
3 478 477 472
3 472 131 478
3 477 132 472
3 478 41 477
3 480 479 474
3 474 133 480
3 479 131 474
3 480 40 479
3 483 481 482
3 482 134 483
3 481 132 482
3 483 126 481
3 477 484 482
3 482 132 477
3 484 134 482
3 477 41 484
3 454 476 481
3 481 126 454
3 476 132 481
3 454 38 476
3 485 457 483
3 483 134 485
3 457 126 483
3 485 9 457
3 488 486 487
3 487 136 488
3 486 131 487
3 488 135 486
3 479 489 487
3 487 131 479
3 489 136 487
3 479 40 489
3 490 478 486
3 486 135 490
3 478 131 486
3 490 41 478
3 492 491 488
3 488 136 492
3 491 135 488
3 492 2 491
3 495 493 494
3 494 127 495
3 493 133 494
3 495 137 493
3 475 462 494
3 494 133 475
3 462 127 494
3 475 38 462
3 496 480 493
3 493 137 496
3 480 133 493
3 496 40 480
3 463 497 495
3 495 127 463
3 497 137 495
3 463 10 497
3 500 498 499
3 499 140 500
3 498 139 499
3 500 138 498
3 502 501 499
3 499 139 502
3 501 140 499
3 502 33 501
3 504 503 498
3 498 138 504
3 503 139 498
3 504 13 503
3 506 505 500
3 500 140 506
3 505 138 500
3 506 23 505
3 509 507 508
3 508 47 509
3 507 139 508
3 509 110 507
3 503 182 508
3 508 139 503
3 182 47 508
3 503 13 182
3 398 502 507
3 507 110 398
3 502 139 507
3 398 33 502
3 183 401 509
3 509 47 183
3 401 110 509
3 183 8 401
3 512 510 511
3 511 79 512
3 510 138 511
3 512 46 510
3 505 294 511
3 511 138 505
3 294 79 511
3 505 23 294
3 174 504 510
3 510 46 174
3 504 138 510
3 174 13 504
3 295 177 512
3 512 79 295
3 177 46 512
3 295 4 177
3 515 513 514
3 514 111 515
3 513 140 514
3 515 78 513
3 501 406 514
3 514 140 501
3 406 111 514
3 501 33 406
3 286 506 513
3 513 78 286
3 506 140 513
3 286 23 506
3 407 289 515
3 515 111 407
3 289 78 515
3 407 0 289
3 518 516 517
3 517 143 518
3 516 142 517
3 518 141 516
3 520 519 517
3 517 142 520
3 519 143 517
3 520 19 519
3 522 521 516
3 516 141 522
3 521 142 516
3 522 32 521
3 524 523 518
3 518 143 524
3 523 141 518
3 524 26 523
3 527 525 526
3 526 113 527
3 525 142 526
3 527 66 525
3 521 413 526
3 526 142 521
3 413 113 526
3 521 32 413
3 244 520 525
3 525 66 244
3 520 142 525
3 244 19 520
3 414 247 527
3 527 113 414
3 247 66 527
3 414 11 247
3 530 528 529
3 529 86 530
3 528 141 529
3 530 112 528
3 523 316 529
3 529 141 523
3 316 86 529
3 523 26 316
3 405 522 528
3 528 112 405
3 522 141 528
3 405 32 522
3 317 408 530
3 530 86 317
3 408 112 530
3 317 0 408
3 533 531 532
3 532 61 533
3 531 143 532
3 533 89 531
3 519 231 532
3 532 143 519
3 231 61 532
3 519 19 231
3 326 524 531
3 531 89 326
3 524 143 531
3 326 26 524
3 232 329 533
3 533 61 232
3 329 89 533
3 232 5 329
3 536 534 535
3 535 146 536
3 534 145 535
3 536 144 534
3 538 537 535
3 535 145 538
3 537 146 535
3 538 22 537
3 540 539 534
3 534 144 540
3 539 145 534
3 540 16 539
3 542 541 536
3 536 146 542
3 541 144 536
3 542 39 541
3 545 543 544
3 544 54 545
3 543 145 544
3 545 80 543
3 539 204 544
3 544 145 539
3 204 54 544
3 539 16 204
3 293 538 543
3 543 80 293
3 538 145 543
3 293 22 538
3 205 296 545
3 545 54 205
3 296 80 545
3 205 4 296
3 548 546 547
3 547 125 548
3 546 144 547
3 548 57 546
3 541 455 547
3 547 144 541
3 455 125 547
3 541 39 455
3 214 540 546
3 546 57 214
3 540 144 546
3 214 16 540
3 456 217 548
3 548 125 456
3 217 57 548
3 456 9 217
3 551 549 550
3 550 81 551
3 549 146 550
3 551 130 549
3 537 301 550
3 550 146 537
3 301 81 550
3 537 22 301
3 468 542 549
3 549 130 468
3 542 146 549
3 468 39 542
3 302 471 551
3 551 81 302
3 471 130 551
3 302 3 471
3 554 552 553
3 553 149 554
3 552 148 553
3 554 147 552
3 556 555 553
3 553 148 556
3 555 149 553
3 556 21 555
3 558 557 552
3 552 147 558
3 557 148 552
3 558 25 557
3 560 559 554
3 554 149 560
3 559 147 554
3 560 37 559
3 563 561 562
3 562 88 563
3 561 148 562
3 563 70 561
3 557 327 562
3 562 148 557
3 327 88 562
3 557 25 327
3 260 556 561
3 561 70 260
3 556 148 561
3 260 21 556
3 328 261 563
3 563 88 328
3 261 70 563
3 328 5 261
3 566 564 565
3 565 129 566
3 564 147 565
3 566 87 564
3 559 469 565
3 565 147 559
3 469 129 565
3 559 37 469
3 321 558 564
3 564 87 321
3 558 147 564
3 321 25 558
3 470 322 566
3 566 129 470
3 322 87 566
3 470 3 322
3 569 567 568
3 568 71 569
3 567 149 568
3 569 128 567
3 555 266 568
3 568 149 555
3 266 71 568
3 555 21 266
3 461 560 567
3 567 128 461
3 560 149 567
3 461 37 560
3 267 464 569
3 569 71 267
3 464 128 569
3 267 10 464
3 572 570 571
3 571 152 572
3 570 151 571
3 572 150 570
3 574 573 571
3 571 151 574
3 573 152 571
3 574 27 573
3 576 575 570
3 570 150 576
3 575 151 570
3 576 12 575
3 578 577 572
3 572 152 578
3 577 150 572
3 578 36 577
3 581 579 580
3 580 49 581
3 579 151 580
3 581 96 579
3 575 189 580
3 580 151 575
3 189 49 580
3 575 12 189
3 349 574 579
3 579 96 349
3 574 151 579
3 349 27 574
3 190 352 581
3 581 49 190
3 352 96 581
3 190 7 352
3 584 582 583
3 583 118 584
3 582 150 583
3 584 48 582
3 577 428 583
3 583 150 577
3 428 118 583
3 577 36 428
3 181 576 582
3 582 48 181
3 576 150 582
3 181 12 576
3 429 184 584
3 584 118 429
3 184 48 584
3 429 8 184
3 587 585 586
3 586 97 587
3 585 152 586
3 587 121 585
3 573 357 586
3 586 152 573
3 357 97 586
3 573 27 357
3 438 578 585
3 585 121 438
3 578 152 585
3 438 36 578
3 358 441 587
3 587 97 358
3 441 121 587
3 358 1 441
3 590 588 589
3 589 155 590
3 588 154 589
3 590 153 588
3 592 591 589
3 589 154 592
3 591 155 589
3 592 17 591
3 594 593 588
3 588 153 594
3 593 154 588
3 594 30 593
3 596 595 590
3 590 155 596
3 595 153 590
3 596 35 595
3 599 597 598
3 598 104 599
3 597 154 598
3 599 64 597
3 593 383 598
3 598 154 593
3 383 104 598
3 593 30 383
3 237 592 597
3 597 64 237
3 592 154 597
3 237 17 592
3 384 240 599
3 599 104 384
3 240 64 599
3 384 6 240
3 602 600 601
3 601 120 602
3 600 153 601
3 602 103 600
3 595 439 601
3 601 153 595
3 439 120 601
3 595 35 439
3 377 594 600
3 600 103 377
3 594 153 600
3 377 30 594
3 440 378 602
3 602 120 440
3 378 103 602
3 440 1 378
3 605 603 604
3 604 65 605
3 603 155 604
3 605 119 603
3 591 245 604
3 604 155 591
3 245 65 604
3 591 17 245
3 433 596 603
3 603 119 433
3 596 155 603
3 433 35 596
3 246 434 605
3 605 65 246
3 434 119 605
3 246 11 434
3 608 606 607
3 607 158 608
3 606 157 607
3 608 156 606
3 610 609 607
3 607 157 610
3 609 158 607
3 610 15 609
3 612 611 606
3 606 156 612
3 611 157 606
3 612 28 611
3 614 613 608
3 608 158 614
3 613 156 608
3 614 41 613
3 617 615 616
3 616 95 617
3 615 157 616
3 617 55 615
3 611 350 616
3 616 157 611
3 350 95 616
3 611 28 350
3 209 610 615
3 615 55 209
3 610 157 615
3 209 15 610
3 351 210 617
3 617 95 351
3 210 55 617
3 351 7 210
3 620 618 619
3 619 135 620
3 618 156 619
3 620 94 618
3 613 490 619
3 619 156 613
3 490 135 619
3 613 41 490
3 342 612 618
3 618 94 342
3 612 156 618
3 342 28 612
3 491 345 620
3 620 135 491
3 345 94 620
3 491 2 345
3 623 621 622
3 622 56 623
3 621 158 622
3 623 134 621
3 609 215 622
3 622 158 609
3 215 56 622
3 609 15 215
3 484 614 621
3 621 134 484
3 614 158 621
3 484 41 614
3 216 485 623
3 623 56 216
3 485 134 623
3 216 9 485
3 626 624 625
3 625 161 626
3 624 160 625
3 626 159 624
3 628 627 625
3 625 160 628
3 627 161 625
3 628 31 627
3 630 629 624
3 624 159 630
3 629 160 624
3 630 20 629
3 632 631 626
3 626 161 632
3 631 159 626
3 632 40 631
3 635 633 634
3 634 73 635
3 633 160 634
3 635 105 633
3 629 272 634
3 634 160 629
3 272 73 634
3 629 20 272
3 382 628 633
3 633 105 382
3 628 160 633
3 382 31 628
3 273 385 635
3 635 73 273
3 385 105 635
3 273 6 385
3 638 636 637
3 637 137 638
3 636 159 637
3 638 72 636
3 631 496 637
3 637 159 631
3 496 137 637
3 631 40 496
3 265 630 636
3 636 72 265
3 630 159 636
3 265 20 630
3 497 268 638
3 638 137 497
3 268 72 638
3 497 10 268
3 641 639 640
3 640 102 641
3 639 161 640
3 641 136 639
3 627 372 640
3 640 161 627
3 372 102 640
3 627 31 372
3 489 632 639
3 639 136 489
3 632 161 639
3 489 40 632
3 373 492 641
3 641 102 373
3 492 136 641
3 373 2 492
