# vtk DataFile Version 3.0
this file was written using fslvtkio
ASCII
DATASET POLYDATA
POINTS 970 float
144.704 105.116 157.042
143.186 104.412 156.819
143.971 104.737 156.012
145.001 104.833 155.602
146.218 105.27 156.726
146.437 104.656 155.136
147.507 104.689 156.013
147.797 103.803 154.756
144.292 104.328 158.192
143.475 103.386 158.244
145.751 104.369 158.173
147.248 104.439 157.626
148.306 103.502 156.215
144.9 103.019 159.027
146.632 103.278 158.895
147.862 103.113 157.634
140.622 105.528 147
139.16 104.629 146.869
139.766 105.313 145.374
141.257 105.604 145.392
141.959 105.799 147.229
142.346 105.111 145.866
142.934 104.96 147.322
142.649 103.771 146.041
140.359 104.501 148.28
138.919 103.68 148.1
141.714 105.07 148.716
142.986 105.226 148.842
143.348 103.818 147.232
143.924 104.423 148.532
144.062 103.081 147.754
140.328 103.508 149.197
139.046 103.066 148.903
141.773 104.001 149.762
143.039 104.484 150.131
144.131 104.245 149.941
144.72 103.207 149.004
139.381 102.65 149.692
141.333 103.164 150.497
140.649 102.508 150.667
142.942 103.5 151.413
144.269 103.903 151.655
145.082 103.458 150.544
141.756 102.316 151.692
143.113 102.788 152.708
144.125 103.549 153.373
143.414 102.762 154.069
145.558 103.228 151.784
145.297 103.688 153.041
146.384 102.781 152.314
146.744 103.332 153.186
147.162 102.306 152.788
143.747 103.741 155.002
142.738 102.605 154.869
144.963 103.866 154.371
146.525 104.036 153.958
147.834 102.789 153.764
142.406 103.394 156.015
141.532 102.246 156.489
141.638 101.768 155.177
148.816 102.504 155.029
142.398 102.99 157.495
141.88 101.555 157.744
148.774 102.028 156.697
143.257 101.991 158.618
144.32 101.405 159.275
145.976 101.919 159.407
147.626 102.082 158.67
137.84 104.491 143.654
136.78 103.788 144.36
136.919 103.686 142.653
138.519 104.159 142.46
139.126 104.899 144.059
139.792 104.049 143.122
138.017 104.448 145.52
136.55 103.27 145.834
140.718 104.65 144.147
141.851 104.003 144.822
142.377 102.53 145.304
137.754 103.582 147.106
136.411 102.467 147.326
143.275 102.584 146.565
144.138 101.621 147.372
137.742 102.611 148.6
136.454 101.412 148.81
144.756 101.823 148.57
145.395 102.158 149.88
145.436 100.97 149.36
138.154 101.727 149.875
139.902 101.972 150.862
138.793 101.044 150.842
145.954 102.183 150.948
146.191 100.73 150.545
140.332 101.25 151.806
141.36 101.246 152.859
140.235 100.553 152.752
142.445 101.969 153.079
146.74 101.614 151.756
147.725 101.235 152.787
141.177 100.75 154.25
140.207 100.058 153.437
142.199 101.612 154.025
148.657 101.249 153.813
140.273 99.8682 154.27
140.923 100.834 155.997
149.16 100.939 155.12
141.522 100.23 157.467
149.066 100.63 156.602
142.781 100.347 158.505
144.188 99.9909 159.059
143.691 98.726 158.589
145.57 100.321 159.358
147.18 100.738 159.193
148.437 100.986 158.009
145.159 98.689 159.006
146.565 99.0888 159.203
147.88 99.5114 158.936
136.148 102.51 144.022
136.78 102.26 142.287
138.023 102.891 141.666
139.512 102.812 142.312
140.469 102.97 143.353
140.555 101.28 143.185
135.828 101.803 145.678
141.375 102.776 144.122
142.263 101.146 144.834
135.704 101.12 147.094
143.203 101.241 146.179
143.988 100.033 146.936
135.518 100.348 148.235
144.762 100.449 148.215
145.528 99.7474 149.266
137.118 100.699 150.187
135.894 99.8174 149.665
146.355 99.2967 150.388
137.191 99.7349 151.106
136.392 98.4869 150.898
138.693 100.35 151.532
147.036 100.156 151.669
147.912 99.6081 152.52
137.565 99.0713 151.927
138.916 99.6684 152.644
138.253 98.7738 152.763
148.503 99.588 153.559
139.155 98.7796 153.74
140.216 99.5798 155.147
139.787 98.5577 155.328
148.97 99.4329 154.59
149.327 99.562 155.754
149.299 98.2401 154.945
140.729 99.5295 156.528
140.722 98.2759 156.426
149.011 99.5316 157.035
149.433 98.1867 156.154
141.933 98.8683 157.486
142.766 98.1869 158.087
143.752 97.3353 158.182
148.617 99.2989 158.094
149.15 97.9112 157.339
144.81 97.2515 158.493
146.114 97.3027 158.829
147.472 97.6642 158.829
148.481 97.8493 158.35
137.606 101.291 141.311
136.789 100.95 142.558
137.372 100.074 140.994
138.589 100.37 140.465
138.869 101.654 141.43
139.388 100.333 141.229
139.794 101.287 142.229
140.122 99.7984 141.953
136.307 100.686 144.049
140.883 99.479 142.716
135.903 100.234 145.441
141.527 100.77 143.821
142.362 99.5214 144.57
135.599 99.5344 146.657
143.131 99.8482 145.754
143.958 98.5916 146.516
135.532 98.8516 148.074
144.834 99.0672 147.886
145.664 98.3495 148.901
135.834 98.1939 149.369
146.46 97.8222 149.966
136.238 97.2503 150.262
147.172 98.6194 151.335
147.906 97.7484 152.12
137.352 98.1113 152.275
136.987 96.9504 151.638
148.464 98.0511 153.077
148.749 98.4298 154.036
149.097 97.1649 153.74
138.114 97.5457 153.156
139.131 97.6712 154.379
138.842 96.5002 154.129
149.625 96.95 154.944
139.857 97.0969 155.534
139.752 95.9301 155.083
149.519 96.7264 156.134
141.125 97.1535 156.53
142.148 97.0551 157.077
142.997 96.7253 157.646
142.653 95.7064 157.038
149.253 96.4075 157.413
144.07 95.8925 157.762
145.055 95.4473 158.071
146.038 95.7418 158.403
147.303 95.9756 158.606
148.517 96.2619 158.369
136.902 99.3239 142.201
137.4 98.9212 140.269
138.416 99.3859 139.631
139.568 99.1298 140.557
140.299 98.1064 141.161
136.374 98.9641 143.717
141.127 97.755 142.112
135.972 98.5538 144.967
141.591 98.845 143.467
142.49 97.9422 144.019
135.682 97.9442 146.253
143.297 98.3292 145.259
144.212 97.0354 145.953
135.779 97.281 147.583
144.761 97.5896 147.444
145.612 96.9145 148.271
136.111 96.5054 148.713
146.492 96.3875 149.21
136.544 95.8723 150.013
147.191 97.007 150.886
148.026 95.8671 151.321
137.291 95.4466 151.231
148.558 96.7061 152.563
149.372 95.7852 153.444
138.052 96.2568 152.668
138.835 95.239 153.605
149.636 95.6785 154.752
139.758 94.483 154.264
149.587 95.2215 155.902
140.665 95.4406 155.516
141.612 95.5905 156.184
142.608 94.4314 156.249
149.246 94.9703 157.235
143.702 94.6481 157.069
144.846 94.2447 157.343
145.997 94.0505 157.761
147.122 94.3988 158.05
148.367 94.7458 158.033
137.893 98.4091 138.828
137.275 98.0324 140.246
137.563 97.2547 138.369
138.658 97.6845 137.529
139.099 98.527 138.894
139.658 97.5053 138.113
139.802 98.0515 139.702
140.302 97.0778 139.048
136.975 97.8747 141.805
140.872 96.6474 140.337
136.479 97.4612 143.251
141.397 96.4715 141.483
135.935 96.9058 144.414
141.904 96.9406 142.766
142.767 96.5112 143.637
135.788 96.2878 145.724
143.522 96.8923 144.764
144.407 95.5971 145.136
135.915 95.6049 146.984
144.998 96.1206 146.621
145.867 95.5212 147.498
136.287 94.9892 148.273
146.639 95.1087 148.632
136.815 94.4225 149.567
147.256 95.6356 150.139
147.915 94.3314 150.252
137.555 93.9902 150.633
148.635 95.3592 152.207
148.493 94.0569 151.384
138.218 94.8256 152.116
138.92 93.7977 152.887
149.184 94.5518 152.749
149.551 94.3149 154.102
139.849 93.0453 153.513
149.501 93.8819 155.577
140.757 93.8098 154.775
141.626 93.9223 155.478
142.663 92.8989 155.754
149.062 93.6419 156.943
143.688 93.3259 156.433
144.811 92.9241 156.812
145.985 92.5597 157.211
147.046 92.6369 157.589
148.174 93.2434 157.662
137.408 96.6468 139.762
137.79 96.0468 137.604
138.374 96.8216 136.731
139.848 96.5714 136.841
140.721 95.9316 138.254
136.958 96.5114 141.436
141.119 95.4744 139.278
141.628 95.3997 140.456
141.969 94.4204 139.429
136.635 95.8255 142.594
141.917 95.8787 141.631
142.516 95.0087 141.235
136.187 95.3431 143.874
142.785 95.3985 142.557
143.575 95.7266 143.9
143.883 94.5999 143.299
135.999 94.7136 145.182
144.723 94.2551 144.38
136.231 94.0858 146.523
145.363 94.7251 145.916
146.322 94.2196 147.212
136.605 93.4553 147.769
146.862 93.9348 148.194
147.224 94.4373 149.272
147.675 93.1211 148.635
137.096 92.9297 148.946
148.442 92.8543 149.929
137.836 92.4587 149.892
148.847 92.4056 151.323
138.362 93.2842 151.403
139.185 92.3489 152.107
149.141 93.3243 152.669
149.483 92.8521 154.129
140.229 91.732 152.926
149.321 92.5674 155.372
141.011 92.4749 154.106
142.069 92.1917 154.933
143.217 91.4225 155.31
148.887 92.5572 156.616
143.752 92.0482 155.881
144.791 91.5979 156.205
145.938 91.2873 156.561
147.252 91.2295 156.799
148.183 91.7908 156.859
138.576 96.0086 135.693
138.141 94.6941 135.381
138.763 95.1029 134.438
140.09 95.037 134.338
139.887 95.9238 135.454
140.714 94.9709 135.339
137.614 95.3462 138.749
137.887 94.8258 136.868
140.859 95.2409 136.72
141.4 94.885 138.089
141.79 93.7695 137.425
137.146 95.2002 140.482
137.653 93.9915 138.533
142.654 93.4989 139.162
136.715 94.4122 141.946
143.163 93.7174 140.462
136.436 93.81 143.33
143.729 94.0218 141.762
144.463 93.3927 142.657
136.354 93.1636 144.721
145.173 92.9284 143.592
145.221 93.7343 144.851
145.738 93.0863 145.061
136.609 92.5068 146.027
146.229 93.3271 146.243
147.02 93.0697 147.337
147.397 92.0047 146.62
137.09 91.9054 147.169
148.172 91.8705 148.035
137.495 91.4285 148.254
148.845 91.4661 149.324
138.068 91.123 149.285
149.251 91.0453 150.689
138.648 91.769 150.641
139.552 91.0489 151.678
149.285 91.9701 152.931
149.303 90.8245 152.313
140.658 90.3974 152.176
141.17 91.2348 153.436
141.62 90.2338 152.92
149.4 91.1542 154.27
149.191 89.9696 154.351
142.286 91.029 154.087
144.441 90.5119 155.486
143.563 90.2564 154.603
145.788 90.004 156.003
145.107 89.1379 155.038
147.266 89.9035 156.196
146.632 88.6742 155.508
148.559 90.4308 155.78
148.277 89.0622 155.319
148.989 91.5702 155.807
139.13 94.4936 133.46
138.512 93.6459 134.026
138.967 93.5317 132.677
139.947 93.7695 132.397
140.058 94.4478 133.326
140.79 93.9647 133.256
138.223 93.3806 135.553
141.469 93.46 134.097
141.335 94.0456 135.947
142.052 92.933 135.386
137.974 93.1461 136.97
142.474 92.7708 137.276
137.157 93.6585 140.109
137.605 92.4783 138.347
143.269 92.0763 137.754
143.474 92.6978 139.422
143.969 91.63 138.517
136.881 92.9098 141.511
143.731 93.2081 140.505
144.247 92.5866 140.399
136.688 92.2534 142.929
144.934 92.3166 141.335
145.058 92.4027 142.449
145.72 91.7497 142.221
136.718 91.578 144.211
146.067 91.9407 143.86
146.63 92.1519 145.353
147.185 91.0799 144.646
137.064 90.9456 145.482
148.017 90.8653 146.026
137.71 90.323 146.509
148.423 90.6216 147.418
137.936 90.03 148.007
148.859 90.109 148.12
149.32 90.0959 149.37
149.199 88.9197 147.758
138.419 90.0266 148.874
138.656 90.6942 149.633
139.159 89.4456 149.121
149.466 89.8025 150.832
149.43 88.7327 149.161
140.043 90.246 151.283
139.415 90.4306 150.357
140.398 89.438 151.055
149.35 89.4588 152.264
149.403 88.5105 150.712
142.473 89.7893 153.225
141.535 89.2605 152.11
142.694 88.695 152.561
148.975 88.3633 152.285
148.985 89.0685 153.689
143.505 89.463 153.713
144.868 88.5326 154.169
146.289 87.8037 154.624
147.8 87.9539 154.678
139.559 93.0438 131.381
138.69 92.6257 132.408
139.121 92.0516 130.757
140.302 92.3707 130.133
140.708 93.0825 131.633
141.249 92.3773 130.459
141.6 92.4818 131.585
142.026 91.9311 130.71
138.519 92.2266 133.8
141.492 93.0025 132.611
142.318 92.0021 132.261
138.163 91.8754 135.412
142.508 91.9752 133.761
142.822 91.9614 135.499
143.485 90.9223 134.62
137.812 91.2965 136.771
143.145 91.9066 136.581
143.928 91.0985 136.129
137.244 92.0154 139.806
137.634 90.9389 138.156
144.551 90.5543 136.952
144.689 91.2161 138.983
145.296 90.2956 138.14
137.066 91.4414 141.185
144.881 91.6917 140.142
145.496 90.9357 139.958
137.005 90.6135 142.319
146.193 90.7464 140.943
146.577 91.1185 142.93
147.095 90.2553 142.508
137.247 90.0979 143.572
147.686 89.9921 143.99
137.564 89.4316 144.684
148.215 89.6517 144.687
148.558 89.5669 145.869
148.694 88.5092 144.424
138.03 89.0351 145.569
138.381 88.9646 146.768
138.932 87.8608 145.508
148.831 89.3333 146.876
149.035 88.1309 145.858
138.623 89.0522 148.04
139.192 87.9399 147.185
149.222 87.7416 147.324
139.688 88.3052 148.597
149.189 87.5364 149.003
139.969 88.9969 149.827
140.936 88.403 150.443
149.003 87.5255 150.864
141.578 88.3587 151.378
143.643 88.2634 152.756
142.893 87.6846 151.646
144.115 87.2245 152.252
148.701 87.5011 151.957
148.271 87.7979 153.311
144.596 88.0328 153.197
145.701 87.2705 153.572
147.122 87.09 153.741
138.68 91.2176 131.878
139.23 91.2391 129.964
140.219 91.7409 129.031
141.655 91.668 129.217
142.616 91.2127 130.394
138.621 90.7794 133.515
143.37 90.4604 130.92
142.908 91.1842 132.384
143.669 90.4332 132.271
138.422 90.3061 134.887
143.873 90.4558 133.393
144.581 90.11 134.475
145.111 89.055 133.3
138.054 89.7451 136.095
144.881 90.1293 135.569
145.568 88.9905 134.768
137.54 90.3151 139.192
137.833 89.3317 137.543
145.615 89.5763 136.517
146.026 89.6178 138.287
146.536 88.6798 137.139
137.395 89.9606 140.506
137.723 88.843 138.991
146.142 89.9536 139.594
146.709 89.1157 139.293
137.541 89.0326 141.58
146.976 89.6203 140.895
147.735 89.1885 142.259
147.81 88.2406 141.159
137.71 88.5691 142.862
148.166 88.8238 143.374
148.38 87.7243 142.388
138.128 88.1452 143.562
138.326 88.0777 144.627
138.909 86.8384 143.74
148.824 87.2723 143.922
139.682 86.7489 145.112
149.051 86.7838 145.53
139.986 86.9879 146.426
140.068 87.3078 147.739
140.891 86.5151 147.242
148.966 86.5105 147.225
140.267 87.8939 148.697
140.935 87.1488 148.498
148.879 86.6315 149.471
141.923 87.5665 150.586
141.034 87.6846 149.526
142.713 87.1302 150.728
142.338 86.7727 149.783
143.406 86.4641 150.596
148.41 86.765 151.526
148.349 85.9472 149.86
147.706 85.8051 150.958
145.21 86.6204 152.581
144.203 86.3283 151.415
146.428 86.2829 152.791
145.536 85.7313 151.628
147.654 86.5633 152.562
146.791 85.6448 151.575
139.642 90.8226 128.362
139.216 90.2643 130.142
139.374 89.6632 128.417
140.026 90.135 126.966
140.995 91.1895 127.803
141.752 90.7937 126.723
142.555 91.0785 128.23
143.192 90.4938 126.915
143.636 90.1715 128.354
144.228 89.3972 127.572
138.929 89.8127 131.7
143.315 90.376 129.509
144.476 89.2049 129.159
138.749 89.1819 133.036
144.499 89.3087 130.714
144.641 89.4605 132.217
145.539 88.3463 131.321
138.632 88.7506 134.492
146.013 88.0085 132.744
138.378 88.2961 135.947
146.598 87.5782 133.68
146.321 88.4868 135.514
147.013 87.5227 135.462
138.35 87.6635 137.142
147.128 87.8816 137.468
137.905 88.0763 140.09
138.234 87.4182 138.481
147.577 87.8233 138.678
138.271 87.4 141.343
138.507 86.6074 140.008
147.42 88.2735 140.054
148.347 86.9773 140.464
138.436 87.2084 142.588
139.232 86.0791 141.68
148.754 86.4789 141.985
139.623 85.732 143.346
148.905 85.9609 143.709
140.33 85.403 144.357
140.638 85.9947 145.893
141.533 85.4646 146.223
141.244 85.0604 144.802
142.041 84.6035 145.228
148.851 85.4591 145.408
141.883 85.9728 147.674
142.305 84.8137 146.663
148.671 85.4273 146.895
148.382 84.4262 146.105
148.117 84.7405 147.602
141.888 86.5644 148.857
143.005 85.2442 147.891
142.925 85.9645 149.065
143.768 85.2227 148.946
148.599 85.7905 148.394
147.802 84.9265 149.052
144.227 85.2042 149.69
147.174 84.8745 150.348
144.366 85.5846 150.463
145.175 85.2043 150.629
146.267 84.9118 150.584
141.686 89.7027 124.227
140.517 89.1248 124.857
141.048 88.6324 123.507
141.841 89.1132 122.472
143 89.6645 124.113
143.184 89.3146 122.359
144.171 89.2355 124.294
144.353 88.8053 122.658
140.994 90.0569 125.704
139.978 88.7667 126.281
142.63 90.1713 125.479
144.028 89.4679 126.01
144.946 88.6064 124.036
145.098 88.5365 125.909
145.619 87.9015 124.16
139.234 88.9167 129.838
139.812 88.59 127.87
145.269 88.3462 127.798
146.001 87.5148 125.349
146.1 87.3077 126.876
146.795 86.6134 125.256
139.25 88.2608 131.195
145.612 88.1948 129.645
146.3 87.1197 128.694
147.018 86.3297 127.313
138.993 87.6196 132.681
146.582 87.1606 130.691
147.065 86.1232 129.507
138.744 87.4734 134.427
146.688 87.0416 132.174
147.387 86.0612 131.662
138.737 86.7323 135.702
147.282 86.5796 133.746
147.582 86.7594 135.97
147.899 85.9101 134.852
139.049 86.0574 137.03
147.872 86.8154 137.584
148.296 85.8517 136.606
139.017 85.9525 138.581
148.074 87.1345 139.224
148.572 86.0348 138.749
139.296 85.5232 140.072
148.854 85.6385 140.265
140.085 84.602 140.451
140.242 85.0278 142.021
140.865 84.0957 141.075
148.843 85.1889 141.822
140.624 84.8237 143.329
141.113 84.2251 142.459
148.691 84.7302 143.503
141.82 84.0374 143.661
142.747 83.8705 144.791
148.332 84.1495 144.654
143.072 83.9751 145.857
142.991 84.4603 146.896
143.646 83.8388 146.699
147.783 83.4787 145.723
147.499 83.7476 147.112
144.919 84.3852 148.695
144.112 84.2137 147.727
145.955 83.733 148.515
145.111 83.3465 147.447
147.027 84.0231 148.274
146.364 83.109 147.177
144.937 84.7816 149.774
145.713 84.3946 149.763
146.768 84.3247 149.429
142.457 88.7667 120.711
141.594 87.9067 121.57
141.834 87.4404 120.243
142.512 88.1691 119.042
143.881 88.865 120.885
143.98 88.8294 119.309
145.162 88.3121 120.847
145.326 88.3794 119.327
140.593 87.8493 124.547
141.254 87.3416 122.871
145.297 88.0835 122.448
145.991 87.5597 120.433
146.178 87.1174 121.875
146.796 86.6037 120.641
140.533 87.336 125.861
146.287 87.088 123.596
147.058 86.1568 122.902
139.758 87.6665 129.163
140.217 87.1114 127.333
147.336 85.6501 125.131
139.672 86.8815 130.632
140.103 86.2873 128.843
147.6 85.3673 127.513
139.448 86.4201 132.097
140.128 85.5034 130.557
147.687 85.0675 129.778
139.115 86.3102 133.835
139.886 85.36 132.195
147.883 84.5854 131.488
139.359 85.4907 135.155
147.843 85.3857 133.199
148.287 84.9539 134.729
139.934 84.5606 135.38
139.81 84.9033 137.17
140.523 83.9446 136.326
148.571 84.8818 136.923
139.831 84.8453 138.567
140.71 83.9031 137.646
148.718 84.6514 138.593
140.098 84.6338 139.475
140.89 83.9008 138.965
148.704 84.2252 140.115
141.699 83.4643 141.462
141.441 83.3069 139.788
142.385 82.7903 140.852
148.557 83.9253 141.749
141.797 83.5977 142.598
142.565 82.9861 142.457
148.356 83.4729 143.172
143.847 83.0666 144.991
143.056 83.1347 143.668
144.957 82.4032 144.814
144.23 82.3474 143.608
146.094 82.2317 144.592
145.397 81.8097 143.292
147.068 82.4375 144.293
146.596 81.8925 143.076
147.749 83.1049 144.388
147.563 82.4373 143.08
144.479 82.9719 146.34
145.648 82.5993 146.101
146.882 82.7367 145.797
145.932 91.6441 109.013
144.66 89.8546 110.326
145.68 89.8872 107.583
146.986 91.2738 105.983
147.577 91.0072 109.159
148.661 90.9746 106.717
148.614 89.8754 109.087
149.093 89.1513 107.565
145.158 90.2652 112.192
144.05 88.8035 112.32
146.67 90.3504 111.687
147.786 89.3637 111.202
148.659 88.3197 110.014
144.674 89.2563 114.34
143.581 87.6553 114.028
146.224 89.4497 113.756
147.483 88.6383 113.494
148.318 87.5434 112.605
143.6 88.6813 115.704
143.067 87.2043 116.736
143.494 86.77 115.415
145.389 88.8206 116.276
146.74 88.4381 115.557
147.707 87.0867 115.389
148.259 86.327 114.431
143.344 88.3979 117.617
142.772 86.6262 118.021
144.852 88.5817 117.732
146.653 87.634 117.589
147.634 86.6574 116.979
141.966 86.3221 121.43
142.472 86.2707 119.468
146.257 87.5483 118.971
147.348 86.2614 119.107
141.017 86.4824 124.299
141.643 85.8208 122.808
147.438 85.5101 121.047
140.798 85.8851 125.691
147.542 84.9816 123.175
140.685 85.5694 127.242
147.734 84.5925 125.39
140.635 84.999 128.751
147.956 84.2457 127.749
140.763 84.3287 130.218
148.118 83.7485 129.674
139.897 84.9852 133.536
140.65 84.2396 131.909
148.068 83.0605 131.466
139.95 84.5881 134.344
140.761 83.8976 133.572
148.108 84.0991 133.074
148.389 83.8972 135.044
141.43 83.0661 136.452
140.884 83.5502 134.959
141.886 82.5705 135.302
148.45 83.5521 136.537
141.796 82.8955 137.666
142.478 82.0256 136.464
148.528 83.3641 138.107
141.694 83.0144 138.721
142.625 82.1467 138.215
148.451 82.9912 139.321
148.276 82.5787 138.086
147.908 82.0054 138.664
143.395 82.1611 141.227
142.669 82.3109 139.568
143.605 81.6022 139.889
148.238 82.8601 140.539
147.511 81.7274 140.08
143.649 82.1681 142.557
144.29 81.4051 140.858
144.748 81.4754 142.106
146.145 81.3253 141.882
145.356 81.0014 140.794
147.339 81.965 141.551
146.569 81.1356 140.474
148.05 82.9389 141.979
144.966 88.2483 110.362
145.817 87.6107 108.505
146.935 88.362 106.267
148.525 88.8673 105.691
148.895 87.5174 108.15
144.425 86.9654 112.537
148.705 86.7544 110.958
144.253 85.5208 114.26
148.641 85.7987 112.963
143.584 85.3543 116.91
143.949 85.2766 115.598
148.357 84.3717 114.414
148.19 84.9736 116.282
143.341 84.8459 118.438
147.983 85.2829 118.067
142.52 85.0941 120.833
143.066 84.5465 119.719
147.842 84.6703 119.721
141.587 84.9784 124.005
142.424 84.4886 122.263
147.886 84.1565 121.585
141.419 84.4904 125.535
142.403 83.7512 123.819
147.808 83.7213 123.619
141.304 84.164 127.093
142.232 83.2721 125.638
147.953 83.3937 125.733
141.239 83.7061 128.697
142.153 82.954 127.301
148.058 82.9529 127.596
141.455 83.2719 130.669
142.043 82.7852 128.922
147.96 82.4527 129.397
141.595 83.0992 132.392
142.384 82.3464 130.181
142.406 82.1863 131.539
143.28 81.4947 130.488
147.809 81.9139 130.902
141.812 82.7859 133.971
142.64 82.0456 133.052
143.509 81.0858 132.105
148.036 82.9852 133.285
147.825 81.8012 132.779
142.78 81.7361 134.769
143.621 80.9931 133.722
148.116 82.4453 134.654
147.719 81.3303 134.801
143.435 81.3223 136.903
143.724 80.8791 135.458
148.137 82.2336 136.476
147.497 81.0551 136.139
143.642 81.2709 138.502
144.347 80.6274 136.769
144.778 80.6339 138.149
146.26 80.5425 138.101
145.4 80.3127 136.915
147.5 81.301 137.555
146.675 80.4638 136.67
144.516 80.8254 139.546
145.699 80.635 139.445
146.971 81.1106 139.077
145.264 86.7145 110.687
145.966 86.0167 109.436
146.857 86.214 107.975
148.301 86.383 107.41
148.61 85.8735 109.705
145.124 85.4451 112.499
148.527 85.2038 111.506
145.214 84.3372 113.575
148.457 84.4494 112.881
144.591 83.8694 115.912
145.212 83.6936 114.726
146.049 82.3574 115.516
147.969 83.1895 115.493
147.173 82.4889 114.386
147.974 83.3293 113.403
144.24 83.6035 117.541
145.316 82.3729 116.956
146.887 81.9259 116.544
147.947 83.2594 116.885
148.083 83.7712 118.23
143.343 83.6501 120.891
144.049 83.2012 119.23
147.958 83.0795 120.153
143.346 83.0576 122.507
144.232 82.417 121.047
147.829 82.7268 122.137
143.183 82.4977 124.281
144.125 81.8513 122.952
147.834 82.4349 124.14
143.212 82.1718 126.066
144.061 81.3901 124.883
147.829 82.0311 125.935
143.141 81.9758 127.799
144.128 81.1818 126.764
147.746 81.6177 127.621
143.047 81.8544 129.19
143.941 80.9501 128.622
147.588 81.2022 129.217
144.14 80.6485 130.289
147.456 80.9621 131.067
144.42 80.2986 131.529
144.642 80.1855 133.002
146.12 80.142 132.788
145.455 79.9827 131.62
147.188 80.7202 132.383
146.598 80.2262 131.211
144.585 80.2529 134.575
145.84 80.1596 134.203
147.168 80.7229 133.764
144.695 80.2265 135.835
145.754 79.9989 135.596
146.894 80.3466 135.247
145.769 85.0703 111.002
146.711 84.7041 109.647
147.795 85.2397 108.996
145.872 83.8958 112.412
146.805 83.7374 111.276
147.951 84.3998 110.408
145.948 83.024 113.682
146.917 82.7133 112.743
147.891 83.6908 111.987
145.157 82.0966 118.734
146.375 81.4028 118.149
147.685 82.1458 117.807
145.176 81.6613 120.348
146.453 80.9511 119.848
147.683 81.9363 119.222
145.11 81.1385 122.077
146.457 80.7192 121.656
147.604 81.5559 121.069
145.086 80.8341 123.897
146.325 80.6393 123.412
147.413 81.3957 122.895
145.019 80.4651 125.759
146.243 80.3211 125.113
147.322 81.1093 124.665
144.909 80.2192 127.545
146.153 80.1412 126.85
147.204 80.7727 126.321
144.852 80.1023 129.128
146.051 79.9687 128.502
147.048 80.4976 127.999
144.872 80.0192 130.476
145.813 79.9317 130.029
146.878 80.3408 129.649
POLYGONS 1936  7744
3 0 1 2
3 0 3 4
3 2 3 0
3 4 5 6
3 3 5 4
3 5 7 6
3 8 1 0
3 9 1 8
3 4 10 0
3 10 8 0
3 6 11 4
3 11 10 4
3 12 6 7
3 11 6 12
3 8 13 9
3 10 13 8
3 14 13 10
3 11 14 10
3 15 14 11
3 12 15 11
3 16 17 18
3 16 19 20
3 18 19 16
3 20 21 22
3 19 21 20
3 21 23 22
3 24 17 16
3 25 17 24
3 20 26 16
3 26 24 16
3 22 27 20
3 27 26 20
3 28 22 23
3 28 29 22
3 29 27 22
3 28 30 29
3 31 25 24
3 32 25 31
3 26 33 24
3 33 31 24
3 27 34 26
3 34 33 26
3 29 35 27
3 35 34 27
3 36 29 30
3 35 29 36
3 31 37 32
3 37 38 39
3 37 31 38
3 31 33 38
3 34 40 33
3 40 38 33
3 35 41 34
3 41 40 34
3 42 35 36
3 41 35 42
3 38 43 39
3 40 43 38
3 44 43 40
3 44 45 46
3 44 40 45
3 40 41 45
3 47 41 42
3 47 48 41
3 48 45 41
3 48 49 50
3 47 49 48
3 49 51 50
3 52 46 45
3 53 46 52
3 48 54 45
3 54 52 45
3 50 55 48
3 55 54 48
3 56 50 51
3 55 50 56
3 57 58 59
3 53 57 59
3 52 57 53
3 52 1 57
3 52 2 1
3 3 2 52
3 54 3 52
3 5 3 54
3 55 5 54
3 55 7 5
3 55 56 7
3 56 60 7
3 61 58 57
3 62 58 61
3 1 9 61
3 57 1 61
3 7 60 12
3 60 63 12
3 61 64 62
3 9 64 61
3 9 13 64
3 13 65 64
3 14 66 13
3 13 66 65
3 15 67 14
3 14 67 66
3 63 15 12
3 67 15 63
3 68 69 70
3 68 71 72
3 70 71 68
3 71 73 72
3 74 69 68
3 75 69 74
3 18 17 74
3 18 74 72
3 72 74 68
3 72 73 76
3 72 76 18
3 18 76 19
3 21 19 77
3 19 76 77
3 77 23 21
3 78 23 77
3 79 75 74
3 80 75 79
3 17 25 79
3 74 17 79
3 23 78 81
3 28 23 81
3 81 30 28
3 82 30 81
3 83 80 79
3 84 80 83
3 25 32 83
3 79 25 83
3 85 86 36
3 85 36 82
3 82 36 30
3 85 87 86
3 83 88 84
3 89 90 88
3 37 89 88
3 37 88 83
3 37 83 32
3 37 39 89
3 86 91 42
3 36 86 42
3 92 86 87
3 91 86 92
3 89 93 90
3 94 95 93
3 43 94 93
3 43 93 89
3 43 89 39
3 43 44 96
3 94 43 96
3 44 46 96
3 42 91 47
3 91 92 97
3 91 97 47
3 47 97 49
3 97 51 49
3 98 51 97
3 99 95 94
3 100 95 99
3 96 101 94
3 101 99 94
3 46 53 101
3 96 46 101
3 51 98 56
3 98 102 56
3 99 103 100
3 59 58 104
3 59 104 99
3 59 99 101
3 99 104 103
3 53 59 101
3 56 102 60
3 102 105 60
3 58 62 104
3 104 62 106
3 60 105 63
3 105 107 63
3 62 108 106
3 64 108 62
3 109 110 108
3 109 108 65
3 65 108 64
3 65 66 111
3 109 65 111
3 66 67 112
3 111 66 112
3 67 113 112
3 67 63 113
3 63 107 113
3 109 114 110
3 111 114 109
3 115 114 111
3 112 115 111
3 116 115 112
3 113 116 112
3 70 117 118
3 69 117 70
3 71 70 119
3 70 118 119
3 73 120 121
3 73 71 120
3 71 119 120
3 120 122 121
3 69 75 117
3 117 75 123
3 73 121 76
3 121 122 124
3 121 124 76
3 76 124 77
3 124 78 77
3 125 78 124
3 75 80 123
3 123 80 126
3 78 125 127
3 81 78 127
3 127 82 81
3 128 82 127
3 80 84 126
3 126 84 129
3 82 128 130
3 85 82 130
3 130 87 85
3 131 87 130
3 132 84 88
3 132 133 84
3 133 129 84
3 88 90 132
3 87 131 92
3 131 134 92
3 135 133 132
3 136 133 135
3 90 93 137
3 90 137 132
3 132 137 135
3 93 95 137
3 92 134 138
3 97 92 138
3 138 98 97
3 139 98 138
3 135 140 136
3 140 141 142
3 140 135 141
3 135 137 141
3 95 100 141
3 137 95 141
3 98 139 102
3 139 143 102
3 141 144 142
3 145 146 144
3 103 145 144
3 103 144 141
3 103 141 100
3 103 104 145
3 147 148 105
3 147 105 143
3 143 105 102
3 147 149 148
3 150 146 145
3 151 146 150
3 104 106 150
3 145 104 150
3 148 152 107
3 105 148 107
3 153 148 149
3 152 148 153
3 150 154 151
3 106 154 150
3 106 108 154
3 108 155 154
3 155 108 110
3 156 155 110
3 152 157 113
3 107 152 113
3 158 152 153
3 157 152 158
3 110 159 156
3 114 159 110
3 115 160 114
3 114 160 159
3 116 161 115
3 115 161 160
3 157 116 113
3 157 162 116
3 162 161 116
3 158 162 157
3 163 164 165
3 163 166 167
3 165 166 163
3 167 168 169
3 166 168 167
3 168 170 169
3 118 164 163
3 118 117 164
3 117 171 164
3 119 118 163
3 167 119 163
3 120 119 167
3 169 120 167
3 169 122 120
3 169 170 122
3 170 172 122
3 117 123 171
3 171 123 173
3 122 172 174
3 124 122 174
3 174 125 124
3 175 125 174
3 123 126 173
3 173 126 176
3 125 175 177
3 127 125 177
3 177 128 127
3 178 128 177
3 126 129 176
3 176 129 179
3 128 178 180
3 130 128 180
3 180 131 130
3 181 131 180
3 129 133 179
3 179 133 182
3 131 181 134
3 181 183 134
3 133 136 182
3 182 136 184
3 134 183 185
3 138 134 185
3 185 139 138
3 186 139 185
3 187 136 140
3 187 188 136
3 188 184 136
3 140 142 187
3 189 190 143
3 189 143 186
3 186 143 139
3 189 191 190
3 187 192 188
3 193 194 192
3 144 193 192
3 144 192 187
3 144 187 142
3 144 146 193
3 143 190 147
3 190 149 147
3 190 191 149
3 191 195 149
3 196 194 193
3 197 194 196
3 146 151 196
3 193 146 196
3 149 195 153
3 195 198 153
3 196 199 197
3 151 199 196
3 151 154 199
3 154 200 199
3 201 202 200
3 201 200 155
3 155 200 154
3 155 156 201
3 153 198 158
3 198 203 158
3 201 204 202
3 156 204 201
3 156 159 204
3 159 205 204
3 160 206 159
3 159 206 205
3 161 207 160
3 160 207 206
3 162 208 161
3 161 208 207
3 203 162 158
3 208 162 203
3 165 209 210
3 164 209 165
3 166 165 211
3 165 210 211
3 168 166 212
3 166 211 212
3 212 170 168
3 213 170 212
3 164 171 209
3 209 171 214
3 170 213 172
3 213 215 172
3 171 173 214
3 214 173 216
3 172 215 217
3 174 172 217
3 217 175 174
3 218 175 217
3 173 176 216
3 216 176 219
3 175 218 220
3 177 175 220
3 220 178 177
3 221 178 220
3 176 179 219
3 219 179 222
3 178 221 223
3 180 178 223
3 223 181 180
3 224 181 223
3 179 182 222
3 222 182 225
3 181 224 183
3 224 226 183
3 182 184 225
3 225 184 227
3 183 226 228
3 185 183 228
3 228 186 185
3 229 186 228
3 184 188 227
3 227 188 230
3 186 229 231
3 189 186 231
3 231 191 189
3 232 191 231
3 188 233 230
3 192 233 188
3 233 192 194
3 234 233 194
3 191 232 195
3 232 235 195
3 194 197 234
3 234 197 236
3 195 235 198
3 235 237 198
3 197 238 236
3 199 238 197
3 200 239 199
3 199 239 238
3 239 200 202
3 240 239 202
3 198 237 203
3 237 241 203
3 202 242 240
3 204 242 202
3 205 243 204
3 204 243 242
3 206 244 205
3 205 244 243
3 207 245 206
3 206 245 244
3 208 246 207
3 207 246 245
3 241 208 203
3 246 208 241
3 247 248 249
3 247 250 251
3 249 250 247
3 251 252 253
3 250 252 251
3 252 254 253
3 210 248 247
3 210 209 248
3 209 255 248
3 211 210 247
3 251 211 247
3 212 211 251
3 253 212 251
3 253 213 212
3 253 254 213
3 254 256 213
3 209 214 255
3 255 214 257
3 213 256 215
3 256 258 215
3 214 216 257
3 257 216 259
3 215 258 260
3 217 215 260
3 260 218 217
3 261 218 260
3 216 219 259
3 259 219 262
3 218 261 263
3 220 218 263
3 263 221 220
3 264 221 263
3 219 222 262
3 262 222 265
3 221 264 266
3 223 221 266
3 266 224 223
3 267 224 266
3 222 225 265
3 265 225 268
3 224 267 226
3 267 269 226
3 225 227 268
3 268 227 270
3 226 269 271
3 228 226 271
3 271 229 228
3 272 229 271
3 227 230 270
3 270 230 273
3 274 231 229
3 274 229 275
3 275 229 272
3 231 274 232
3 230 276 273
3 233 276 230
3 276 233 234
3 277 276 234
3 274 275 278
3 278 232 274
3 278 279 232
3 279 235 232
3 234 236 277
3 277 236 280
3 235 279 237
3 279 281 237
3 236 282 280
3 238 282 236
3 239 283 238
3 238 283 282
3 283 239 240
3 284 283 240
3 237 281 241
3 281 285 241
3 240 286 284
3 242 286 240
3 243 287 242
3 242 287 286
3 244 288 243
3 243 288 287
3 245 289 244
3 244 289 288
3 246 290 245
3 245 290 289
3 285 246 241
3 290 246 285
3 249 291 292
3 248 291 249
3 250 249 293
3 249 292 293
3 252 250 294
3 250 293 294
3 294 254 252
3 295 254 294
3 248 255 291
3 291 255 296
3 297 298 256
3 297 256 295
3 295 256 254
3 297 299 298
3 255 257 296
3 296 257 300
3 298 301 258
3 256 298 258
3 302 298 299
3 301 298 302
3 257 259 300
3 300 259 303
3 258 301 260
3 261 304 305
3 260 304 261
3 260 302 304
3 260 301 302
3 304 306 305
3 259 262 303
3 303 262 307
3 261 305 263
3 305 264 263
3 305 306 264
3 306 308 264
3 262 265 307
3 307 265 309
3 264 308 310
3 266 264 310
3 310 267 266
3 311 267 310
3 265 268 309
3 309 268 312
3 313 314 269
3 313 269 311
3 311 269 267
3 313 315 314
3 268 270 312
3 312 270 316
3 269 314 271
3 314 272 271
3 314 315 272
3 315 317 272
3 270 273 316
3 316 273 318
3 272 317 275
3 317 319 275
3 273 320 318
3 276 320 273
3 320 276 277
3 321 320 277
3 275 319 322
3 278 275 322
3 322 279 278
3 323 279 322
3 277 280 321
3 321 280 324
3 279 323 281
3 323 325 281
3 280 326 324
3 282 326 280
3 283 327 282
3 282 327 326
3 327 283 284
3 328 327 284
3 281 325 285
3 325 329 285
3 284 330 328
3 286 330 284
3 287 331 286
3 286 331 330
3 288 332 287
3 287 332 331
3 289 333 288
3 288 333 332
3 290 334 289
3 289 334 333
3 329 290 285
3 334 290 329
3 335 336 337
3 335 338 339
3 337 338 335
3 338 340 339
3 292 291 341
3 335 342 336
3 335 292 342
3 335 293 292
3 341 342 292
3 294 293 335
3 339 294 335
3 295 343 344
3 294 343 295
3 294 340 343
3 294 339 340
3 343 345 344
3 341 346 347
3 341 291 346
3 291 296 346
3 342 341 347
3 295 344 297
3 344 299 297
3 344 345 299
3 345 348 299
3 296 300 346
3 346 300 349
3 299 348 302
3 348 350 302
3 300 303 349
3 349 303 351
3 302 350 352
3 304 302 352
3 352 306 304
3 353 306 352
3 303 307 351
3 351 307 354
3 355 356 308
3 355 308 353
3 353 308 306
3 355 357 356
3 307 309 354
3 354 309 358
3 308 356 310
3 311 359 360
3 310 359 311
3 310 357 359
3 310 356 357
3 359 361 360
3 309 312 358
3 358 312 362
3 311 360 313
3 360 315 313
3 360 361 315
3 361 363 315
3 312 316 362
3 362 316 364
3 315 363 317
3 363 365 317
3 316 318 364
3 364 318 366
3 317 365 319
3 365 367 319
3 318 368 366
3 320 368 318
3 368 320 321
3 369 368 321
3 370 322 319
3 370 319 371
3 371 319 367
3 322 370 323
3 372 324 373
3 372 369 324
3 369 321 324
3 372 373 374
3 375 370 371
3 376 375 371
3 323 375 325
3 370 375 323
3 324 326 373
3 373 377 374
3 373 326 377
3 326 327 377
3 328 378 379
3 328 379 327
3 327 379 377
3 378 380 381
3 379 378 381
3 380 382 383
3 381 380 383
3 382 384 385
3 383 382 385
3 376 385 384
3 376 384 375
3 375 384 386
3 325 386 329
3 375 386 325
3 328 330 378
3 331 378 330
3 380 378 331
3 332 380 331
3 382 380 332
3 333 382 332
3 384 382 333
3 334 384 333
3 386 384 334
3 329 386 334
3 387 388 389
3 387 390 391
3 389 390 387
3 390 392 391
3 337 388 387
3 337 336 388
3 336 393 388
3 338 337 387
3 391 338 387
3 340 394 395
3 338 394 340
3 338 392 394
3 338 391 392
3 394 396 395
3 336 342 393
3 393 342 397
3 340 395 343
3 395 345 343
3 395 396 345
3 396 398 345
3 347 399 400
3 346 399 347
3 397 342 347
3 400 397 347
3 401 402 348
3 401 348 398
3 398 348 345
3 401 403 402
3 346 349 399
3 399 349 404
3 402 405 350
3 348 402 350
3 406 402 403
3 405 402 406
3 349 351 404
3 404 351 407
3 350 405 352
3 353 408 409
3 352 408 353
3 352 406 408
3 352 405 406
3 408 410 409
3 351 354 407
3 407 354 411
3 353 409 355
3 357 412 413
3 355 412 357
3 355 410 412
3 355 409 410
3 412 414 413
3 354 358 411
3 411 358 415
3 357 413 359
3 413 361 359
3 413 414 361
3 414 416 361
3 358 362 415
3 415 362 417
3 361 416 363
3 416 418 363
3 362 364 417
3 417 364 419
3 420 421 365
3 420 365 418
3 418 365 363
3 420 422 421
3 423 366 424
3 423 419 366
3 419 364 366
3 423 424 425
3 421 426 367
3 365 421 367
3 427 421 422
3 426 421 427
3 366 368 424
3 369 428 429
3 368 369 429
3 368 429 425
3 368 425 424
3 429 428 430
3 426 431 371
3 367 426 371
3 432 426 427
3 431 426 432
3 369 372 428
3 374 433 434
3 372 374 434
3 372 434 430
3 372 430 428
3 434 433 435
3 431 436 437
3 431 437 371
3 371 437 376
3 432 436 431
3 374 377 433
3 433 438 435
3 433 377 438
3 377 379 438
3 381 439 379
3 379 439 438
3 383 440 381
3 381 440 439
3 385 441 383
3 383 441 440
3 437 385 376
3 441 385 437
3 442 443 444
3 442 445 446
3 444 445 442
3 446 447 448
3 445 447 446
3 447 449 448
3 389 443 442
3 389 388 443
3 388 450 443
3 390 389 442
3 446 390 442
3 392 390 446
3 392 446 451
3 451 446 448
3 452 448 449
3 451 448 452
3 388 393 450
3 450 393 453
3 392 451 394
3 396 454 455
3 394 454 396
3 394 452 454
3 394 451 452
3 454 456 455
3 393 397 453
3 453 397 457
3 455 458 398
3 396 455 398
3 459 455 456
3 458 455 459
3 400 460 461
3 399 460 400
3 457 397 400
3 461 457 400
3 398 458 401
3 403 462 463
3 401 462 403
3 401 459 462
3 401 458 459
3 462 464 463
3 399 404 460
3 460 404 465
3 463 466 406
3 403 463 406
3 467 463 464
3 466 463 467
3 404 407 465
3 465 407 468
3 406 466 408
3 410 469 470
3 408 469 410
3 408 467 469
3 408 466 467
3 469 471 470
3 407 411 468
3 468 411 472
3 410 470 412
3 470 414 412
3 470 471 414
3 471 473 414
3 411 415 472
3 472 415 474
3 475 476 416
3 475 416 473
3 473 416 414
3 475 477 476
3 478 417 479
3 478 474 417
3 474 415 417
3 478 479 480
3 476 481 418
3 416 476 418
3 482 476 477
3 481 476 482
3 479 419 483
3 417 419 479
3 484 480 479
3 483 484 479
3 418 481 420
3 481 422 420
3 481 482 422
3 482 485 422
3 419 423 483
3 483 423 425
3 483 425 484
3 484 425 486
3 422 485 427
3 485 487 427
3 425 488 486
3 429 488 425
3 488 429 430
3 489 488 430
3 427 487 432
3 487 490 432
3 430 491 489
3 434 491 430
3 435 492 493
3 435 493 434
3 434 493 491
3 493 492 494
3 436 495 496
3 437 436 496
3 490 436 432
3 495 436 490
3 435 438 492
3 492 497 494
3 492 438 497
3 438 439 497
3 440 498 439
3 439 498 497
3 441 499 440
3 440 499 498
3 496 441 437
3 499 441 496
3 444 500 501
3 443 500 444
3 445 444 502
3 444 501 502
3 447 445 503
3 445 502 503
3 503 449 447
3 504 449 503
3 443 450 500
3 500 450 505
3 506 507 452
3 506 452 504
3 504 452 449
3 506 508 507
3 450 453 505
3 505 453 509
3 452 507 454
3 456 510 511
3 454 510 456
3 454 508 510
3 454 507 508
3 510 512 511
3 453 457 509
3 509 457 513
3 511 514 459
3 456 511 459
3 515 511 512
3 514 511 515
3 461 460 516
3 461 516 517
3 461 517 457
3 457 517 513
3 459 514 462
3 464 518 519
3 462 518 464
3 462 515 518
3 462 514 515
3 518 520 519
3 516 521 522
3 516 460 521
3 460 465 521
3 517 516 522
3 519 523 467
3 464 519 467
3 524 519 520
3 523 519 524
3 465 468 521
3 521 468 525
3 467 523 469
3 471 526 527
3 469 526 471
3 469 524 526
3 469 523 524
3 526 528 527
3 468 472 525
3 525 472 529
3 527 530 473
3 471 527 473
3 531 527 528
3 530 527 531
3 532 474 533
3 532 529 474
3 529 472 474
3 532 533 534
3 473 530 475
3 530 477 475
3 530 531 477
3 531 535 477
3 474 478 533
3 533 478 480
3 533 480 534
3 534 480 536
3 477 535 482
3 535 537 482
3 538 484 539
3 538 536 484
3 536 480 484
3 538 539 540
3 482 537 485
3 537 541 485
3 539 486 542
3 484 486 539
3 543 540 539
3 542 543 539
3 485 541 487
3 541 544 487
3 486 488 542
3 489 545 546
3 488 489 546
3 488 546 543
3 488 543 542
3 545 547 548
3 546 545 548
3 548 547 549
3 550 551 552
3 550 544 551
3 550 490 544
3 490 487 544
3 489 491 545
3 493 545 491
3 547 545 493
3 494 553 554
3 493 494 554
3 493 554 549
3 493 549 547
3 553 555 556
3 554 553 556
3 555 557 558
3 556 555 558
3 552 558 557
3 550 552 557
3 550 557 496
3 550 496 495
3 490 550 495
3 494 497 553
3 498 553 497
3 555 553 498
3 499 555 498
3 557 555 499
3 496 557 499
3 559 560 561
3 559 562 563
3 561 562 559
3 563 564 565
3 562 564 563
3 565 566 567
3 564 566 565
3 566 568 567
3 501 560 559
3 501 500 560
3 500 569 560
3 502 501 559
3 563 502 559
3 503 502 563
3 565 503 563
3 504 503 565
3 504 565 570
3 570 565 567
3 571 567 568
3 570 567 571
3 500 505 569
3 569 505 572
3 504 570 506
3 508 573 574
3 506 573 508
3 506 571 573
3 506 570 571
3 573 575 574
3 505 509 572
3 572 509 576
3 508 574 510
3 574 512 510
3 574 575 512
3 575 577 512
3 509 513 576
3 576 513 578
3 579 580 515
3 579 515 577
3 577 515 512
3 579 581 580
3 513 517 578
3 578 517 582
3 515 580 518
3 580 520 518
3 580 581 520
3 581 583 520
3 522 521 584
3 522 584 585
3 522 585 517
3 517 585 582
3 520 583 524
3 583 586 524
3 584 525 587
3 521 525 584
3 588 585 584
3 587 588 584
3 524 586 589
3 526 524 589
3 589 528 526
3 590 528 589
3 587 529 591
3 525 529 587
3 592 588 587
3 591 592 587
3 528 590 531
3 590 593 531
3 529 532 591
3 591 532 534
3 591 534 592
3 592 534 594
3 531 593 535
3 593 595 535
3 596 536 597
3 596 594 536
3 594 534 536
3 597 598 599
3 596 597 599
3 599 598 600
3 535 595 537
3 595 601 537
3 536 538 597
3 540 597 538
3 540 602 597
3 602 598 597
3 603 600 598
3 602 603 598
3 604 605 606
3 604 601 605
3 604 541 601
3 541 537 601
3 602 543 607
3 540 543 602
3 608 603 602
3 608 602 609
3 609 602 607
3 608 609 610
3 611 604 606
3 612 611 606
3 541 611 544
3 604 611 541
3 543 546 607
3 548 607 546
3 609 607 548
3 609 548 549
3 609 549 610
3 610 549 613
3 551 611 612
3 551 612 552
3 552 612 614
3 544 611 551
3 549 615 613
3 554 615 549
3 556 616 554
3 554 616 615
3 558 617 556
3 556 617 616
3 614 558 552
3 617 558 614
3 618 619 620
3 618 621 622
3 620 621 618
3 622 623 624
3 621 623 622
3 623 625 624
3 626 619 618
3 627 619 626
3 622 628 618
3 628 626 618
3 624 629 622
3 629 628 622
3 630 624 625
3 630 631 624
3 631 629 624
3 630 632 631
3 561 633 634
3 560 633 561
3 627 626 562
3 627 562 634
3 634 562 561
3 564 562 626
3 628 564 626
3 566 564 628
3 629 566 628
3 568 566 629
3 568 629 635
3 635 629 631
3 636 631 632
3 636 637 631
3 637 635 631
3 636 638 637
3 560 569 633
3 633 569 639
3 635 640 571
3 568 635 571
3 637 641 635
3 641 640 635
3 642 637 638
3 641 637 642
3 569 572 639
3 639 572 643
3 571 640 573
3 575 573 640
3 575 640 644
3 644 640 641
3 645 641 642
3 644 641 645
3 572 576 643
3 643 576 646
3 644 647 577
3 575 644 577
3 648 644 645
3 647 644 648
3 576 578 646
3 646 578 649
3 577 647 579
3 581 650 651
3 579 650 581
3 579 648 650
3 579 647 648
3 650 652 651
3 578 582 649
3 649 582 653
3 651 654 583
3 581 651 583
3 655 651 652
3 654 651 655
3 582 585 653
3 653 585 656
3 654 657 586
3 583 654 586
3 658 654 655
3 657 654 658
3 585 588 656
3 656 588 659
3 586 657 589
3 657 590 589
3 657 658 590
3 658 660 590
3 661 592 662
3 661 659 592
3 659 588 592
3 661 662 663
3 590 660 593
3 660 664 593
3 662 594 665
3 592 594 662
3 666 663 662
3 665 666 662
3 593 664 595
3 664 667 595
3 594 596 665
3 665 668 666
3 665 596 668
3 596 599 668
3 668 599 600
3 669 668 600
3 595 667 601
3 667 670 601
3 671 603 672
3 671 669 603
3 669 600 603
3 671 672 673
3 605 674 675
3 606 605 675
3 670 605 601
3 674 605 670
3 603 608 672
3 610 676 677
3 608 610 677
3 608 677 673
3 608 673 672
3 676 678 679
3 677 676 679
3 678 680 681
3 679 678 681
3 680 675 681
3 680 612 675
3 612 606 675
3 676 613 682
3 610 613 676
3 678 676 683
3 683 676 682
3 680 678 684
3 684 678 683
3 612 684 614
3 680 684 612
3 613 615 682
3 616 682 615
3 683 682 616
3 617 683 616
3 684 683 617
3 614 684 617
3 685 686 687
3 685 688 689
3 687 688 685
3 689 690 691
3 688 690 689
3 690 692 691
3 620 693 694
3 619 693 620
3 686 685 621
3 686 621 694
3 694 621 620
3 623 621 685
3 689 623 685
3 625 623 689
3 625 689 695
3 695 689 691
3 696 691 692
3 696 697 691
3 697 695 691
3 696 698 697
3 619 627 693
3 693 627 699
3 625 695 630
3 632 630 695
3 632 695 700
3 700 695 697
3 701 697 698
3 700 697 701
3 634 633 702
3 634 702 703
3 634 703 627
3 627 703 699
3 632 700 636
3 700 638 636
3 700 701 638
3 701 704 638
3 702 639 705
3 633 639 702
3 706 703 702
3 705 706 702
3 638 704 642
3 704 707 642
3 705 643 708
3 639 643 705
3 709 706 705
3 708 709 705
3 642 707 645
3 707 710 645
3 708 711 712
3 708 643 711
3 643 646 711
3 709 708 712
3 645 710 648
3 710 713 648
3 646 649 711
3 711 649 714
3 648 713 715
3 650 648 715
3 715 652 650
3 716 652 715
3 717 653 718
3 717 714 653
3 714 649 653
3 717 718 719
3 652 716 655
3 716 720 655
3 718 656 721
3 653 656 718
3 722 719 718
3 721 722 718
3 655 720 658
3 720 723 658
3 721 659 724
3 656 659 721
3 725 722 721
3 724 725 721
3 658 723 660
3 723 726 660
3 659 661 724
3 663 727 728
3 661 663 728
3 661 728 725
3 661 725 724
3 728 727 729
3 660 726 664
3 726 730 664
3 727 666 731
3 663 666 727
3 732 729 727
3 731 732 727
3 664 730 667
3 730 733 667
3 666 668 731
3 669 734 735
3 668 669 735
3 668 735 732
3 668 732 731
3 734 736 737
3 735 734 737
3 736 738 739
3 737 736 739
3 738 740 741
3 739 738 741
3 740 742 743
3 741 740 743
3 742 733 743
3 742 670 733
3 670 667 733
3 669 671 734
3 673 734 671
3 673 744 734
3 744 736 734
3 738 736 745
3 745 736 744
3 740 738 746
3 746 738 745
3 674 746 675
3 674 742 746
3 742 740 746
3 670 742 674
3 673 677 744
3 679 744 677
3 745 744 679
3 681 745 679
3 746 745 681
3 675 746 681
3 747 748 749
3 747 750 751
3 749 750 747
3 751 752 753
3 750 752 751
3 752 754 753
3 755 748 747
3 756 748 755
3 751 757 747
3 757 755 747
3 753 758 751
3 758 757 751
3 759 753 754
3 758 753 759
3 760 756 755
3 761 756 760
3 757 762 755
3 762 760 755
3 758 763 757
3 763 762 757
3 764 758 759
3 763 758 764
3 765 766 767
3 761 765 767
3 761 760 765
3 760 768 765
3 762 769 760
3 769 768 760
3 770 763 771
3 770 769 763
3 769 762 763
3 764 771 763
3 772 766 765
3 773 766 772
3 768 774 765
3 774 772 765
3 769 775 768
3 775 774 768
3 776 769 770
3 775 769 776
3 687 777 778
3 686 777 687
3 773 772 688
3 773 688 778
3 778 688 687
3 690 688 772
3 774 690 772
3 692 690 774
3 692 774 779
3 779 774 775
3 780 775 776
3 779 775 780
3 694 781 782
3 693 781 694
3 777 686 694
3 782 777 694
3 692 779 696
3 779 698 696
3 779 780 698
3 780 783 698
3 693 699 781
3 781 699 784
3 698 783 701
3 783 785 701
3 699 703 784
3 784 703 786
3 701 785 704
3 785 787 704
3 703 706 786
3 786 706 788
3 704 787 707
3 787 789 707
3 706 709 788
3 788 709 790
3 707 789 710
3 789 791 710
3 712 711 792
3 712 792 793
3 712 793 709
3 709 793 790
3 710 791 713
3 791 794 713
3 792 714 795
3 711 714 792
3 796 793 792
3 795 796 792
3 713 794 797
3 715 713 797
3 797 716 715
3 798 716 797
3 714 717 795
3 719 799 800
3 717 719 800
3 717 800 796
3 717 796 795
3 800 799 801
3 716 798 720
3 798 802 720
3 799 722 803
3 719 722 799
3 804 801 799
3 803 804 799
3 720 802 723
3 802 805 723
3 803 725 806
3 722 725 803
3 807 804 803
3 806 807 803
3 808 809 810
3 808 805 809
3 808 726 805
3 726 723 805
3 725 728 806
3 729 811 812
3 728 729 812
3 728 812 807
3 728 807 806
3 812 811 813
3 814 808 810
3 815 814 810
3 726 814 730
3 808 814 726
3 811 732 816
3 729 732 811
3 817 813 811
3 817 811 818
3 818 811 816
3 818 819 820
3 817 818 820
3 819 821 822
3 820 819 822
3 815 822 821
3 815 821 814
3 814 821 823
3 730 823 733
3 814 823 730
3 732 735 816
3 737 816 735
3 818 816 737
3 739 818 737
3 819 818 739
3 741 819 739
3 821 819 741
3 743 821 741
3 823 821 743
3 733 823 743
3 749 824 825
3 748 824 749
3 750 749 826
3 749 825 826
3 752 750 827
3 750 826 827
3 827 754 752
3 828 754 827
3 748 756 824
3 824 756 829
3 754 828 759
3 828 830 759
3 756 761 829
3 829 761 831
3 759 830 764
3 830 832 764
3 767 833 834
3 766 833 767
3 831 761 767
3 834 831 767
3 771 835 836
3 770 771 836
3 832 771 764
3 835 771 832
3 766 773 833
3 833 773 837
3 770 836 776
3 836 838 776
3 778 839 840
3 777 839 778
3 837 773 778
3 840 837 778
3 776 838 780
3 838 841 780
3 782 781 842
3 782 842 843
3 782 843 777
3 777 843 839
3 780 841 783
3 841 844 783
3 842 784 845
3 781 784 842
3 846 843 842
3 845 846 842
3 783 844 785
3 844 847 785
3 845 786 848
3 784 786 845
3 849 846 845
3 848 849 845
3 785 847 787
3 847 850 787
3 848 788 851
3 786 788 848
3 852 849 848
3 851 852 848
3 787 850 789
3 850 853 789
3 851 790 854
3 788 790 851
3 855 852 851
3 854 855 851
3 789 853 791
3 853 856 791
3 854 793 857
3 790 793 854
3 858 855 854
3 858 854 859
3 859 854 857
3 858 859 860
3 791 856 794
3 856 861 794
3 857 796 862
3 793 796 857
3 859 857 863
3 863 857 862
3 864 860 859
3 863 864 859
3 865 797 794
3 865 794 866
3 866 794 861
3 797 865 798
3 796 800 862
3 801 862 800
3 801 867 862
3 867 863 862
3 868 864 863
3 867 868 863
3 869 865 866
3 870 869 866
3 798 869 802
3 865 869 798
3 867 804 871
3 801 804 867
3 872 868 867
3 871 872 867
3 873 869 870
3 874 873 870
3 802 873 805
3 869 873 802
3 871 807 875
3 804 807 871
3 876 872 871
3 876 871 877
3 877 871 875
3 877 878 879
3 876 877 879
3 878 880 881
3 879 878 881
3 874 881 880
3 873 874 880
3 873 880 810
3 873 810 809
3 805 873 809
3 807 812 875
3 813 875 812
3 813 882 875
3 882 877 875
3 878 877 883
3 883 877 882
3 880 878 884
3 884 878 883
3 810 884 815
3 880 884 810
3 813 817 882
3 820 882 817
3 883 882 820
3 822 883 820
3 884 883 822
3 815 884 822
3 825 885 886
3 824 885 825
3 826 825 887
3 825 886 887
3 827 826 888
3 826 887 888
3 888 828 827
3 889 828 888
3 824 829 885
3 885 829 890
3 828 889 830
3 889 891 830
3 829 831 890
3 890 831 892
3 830 891 832
3 891 893 832
3 834 833 894
3 895 892 831
3 895 831 894
3 895 894 896
3 894 831 834
3 896 897 898
3 895 896 898
3 897 836 835
3 897 835 898
3 898 835 899
3 893 835 832
3 899 835 893
3 894 900 901
3 894 833 900
3 833 837 900
3 896 894 901
3 902 896 901
3 897 896 902
3 903 897 902
3 903 836 897
3 903 904 836
3 904 838 836
3 840 839 905
3 840 905 906
3 840 906 837
3 837 906 900
3 838 904 841
3 904 907 841
3 905 843 908
3 839 843 905
3 909 906 905
3 908 909 905
3 841 907 844
3 907 910 844
3 908 846 911
3 843 846 908
3 912 909 908
3 911 912 908
3 844 910 847
3 910 913 847
3 911 849 914
3 846 849 911
3 915 912 911
3 914 915 911
3 847 913 850
3 913 916 850
3 914 852 917
3 849 852 914
3 918 915 914
3 917 918 914
3 850 916 853
3 916 919 853
3 917 855 920
3 852 855 917
3 921 918 917
3 920 921 917
3 853 919 856
3 919 922 856
3 855 858 920
3 920 858 860
3 920 860 921
3 921 860 923
3 856 922 861
3 922 924 861
3 925 864 926
3 925 923 864
3 923 860 864
3 926 927 928
3 925 926 928
3 927 929 930
3 928 927 930
3 929 924 930
3 929 866 924
3 866 861 924
3 926 868 931
3 864 868 926
3 927 926 932
3 932 926 931
3 929 927 933
3 933 927 932
3 866 933 870
3 929 933 866
3 931 872 934
3 868 872 931
3 932 931 935
3 935 931 934
3 933 932 936
3 936 932 935
3 870 936 874
3 933 936 870
3 872 876 934
3 879 934 876
3 935 934 879
3 881 935 879
3 936 935 881
3 874 936 881
3 886 885 937
3 886 938 887
3 937 938 886
3 887 939 888
3 938 939 887
3 888 939 889
3 937 890 940
3 885 890 937
3 938 937 941
3 941 937 940
3 939 938 942
3 942 938 941
3 889 942 891
3 939 942 889
3 940 892 943
3 890 892 940
3 941 940 944
3 944 940 943
3 942 941 945
3 945 941 944
3 891 945 893
3 942 945 891
3 892 895 943
3 898 943 895
3 944 943 898
3 899 944 898
3 945 944 899
3 893 945 899
3 901 900 946
3 901 947 902
3 946 947 901
3 902 948 903
3 947 948 902
3 903 948 904
3 946 906 949
3 900 906 946
3 947 946 950
3 950 946 949
3 948 947 951
3 951 947 950
3 904 951 907
3 948 951 904
3 949 909 952
3 906 909 949
3 950 949 953
3 953 949 952
3 951 950 954
3 954 950 953
3 907 954 910
3 951 954 907
3 952 912 955
3 909 912 952
3 953 952 956
3 956 952 955
3 954 953 957
3 957 953 956
3 910 957 913
3 954 957 910
3 955 915 958
3 912 915 955
3 956 955 959
3 959 955 958
3 957 956 960
3 960 956 959
3 913 960 916
3 957 960 913
3 958 918 961
3 915 918 958
3 959 958 962
3 962 958 961
3 960 959 963
3 963 959 962
3 916 963 919
3 960 963 916
3 961 921 964
3 918 921 961
3 962 961 965
3 965 961 964
3 963 962 966
3 966 962 965
3 919 966 922
3 963 966 919
3 964 923 967
3 921 923 964
3 965 964 968
3 968 964 967
3 966 965 969
3 969 965 968
3 922 969 924
3 966 969 922
3 923 925 967
3 928 967 925
3 968 967 928
3 930 968 928
3 969 968 930
3 924 969 930
