# vtk DataFile Version 3.0
this file was written using fslvtkio
ASCII
DATASET POLYDATA
POINTS 664 float
106.848 132.752 133.19
105.245 132.727 132.627
106.208 132.268 130.899
107.971 131.953 130.909
108.72 132.584 132.944
109.204 131.617 131.179
104.947 132.471 134.675
103.003 131.797 133.828
103.779 132.39 132.635
106.736 132.49 135.596
108.33 132.61 135.255
110.049 131.926 132.569
109.826 132.194 134.792
111.007 131.684 133.053
111.165 131.371 134.456
111.972 130.646 132.93
104.003 131.893 136.346
102.578 130.698 135.479
105.817 132.441 137.277
107.811 132.726 137.669
109.522 132.423 136.985
111.026 131.522 136.032
112.288 130.483 134.284
103.71 130.835 137.721
103.274 129.489 136.978
105.247 131.436 138.972
107.341 131.854 139.602
109.505 131.952 139.277
111.087 131.495 138.03
112.406 130.422 136.214
105.151 129.622 138.746
107.179 129.964 139.386
109.197 130.101 139.947
111.208 130.1 139.332
112.37 130.022 137.886
104.326 132.493 131.264
102.257 132.224 131.032
103.783 132.338 129.821
105.298 132.314 128.966
107.483 131.961 128.852
109.483 131.091 129.212
110.381 131.107 130.886
110.941 130.441 129.445
101.581 130.975 133.364
111.61 130.557 131.398
113.057 129.859 131.962
101.848 129.228 135.008
113.478 129.529 134.204
103.281 128.153 136.16
113.368 129.304 136.5
105.04 128.373 137.437
106.973 128.387 138.262
108.838 128.246 139
110.862 128.293 139.215
112.737 128.343 138.376
103.874 131.839 125.816
102.365 131.574 124.902
103.721 131.389 124.222
104.993 131.024 123.907
105.858 131.516 125.467
106.507 130.561 124.008
102.72 132.172 127.908
101.076 131.921 127.187
105.107 132.001 127.287
107.281 131.004 125.178
107.27 131.425 127.023
108.46 130.689 125.757
100.944 131.958 129.476
99.2595 130.359 129.82
99.5567 131.248 127.94
109.345 130.73 127.416
111.567 129.855 127.716
112.229 129.873 129.881
113.408 129.271 129.526
100.635 131.019 131.54
99.7644 129.265 131.292
114.362 129.022 131.647
100.957 129.444 132.97
100.428 127.804 131.968
114.627 128.686 133.286
114.464 128.736 135.088
115.779 128.031 134.071
101.581 128.14 133.65
102.852 127.261 134.751
114.09 128.129 136.792
115.551 127.52 135.598
104.886 127.211 136.085
106.792 127.105 136.824
108.623 126.941 137.481
110.502 127.007 137.99
112.344 126.845 137.936
114.198 126.793 137.093
103.792 130.749 122.569
101.798 130.948 121.926
102.585 130.393 120.638
104.657 129.862 120.672
106.194 130.058 122.464
106.836 129.098 120.634
108.439 129.074 121.832
109.181 127.832 120.075
101.104 131.171 123.644
99.3288 130.461 122.777
100.481 130.853 122.079
108.025 129.896 123.652
110.476 128.782 121.747
110.103 129.505 123.727
111.791 129.075 122.885
112.061 129.346 124.597
113.081 128.711 124.016
98.8377 130.301 124.898
97.4586 128.508 125.366
97.6838 129.179 123.634
99.9961 131.395 125.871
109.875 130.194 125.66
111.561 129.754 125.775
113.291 128.915 126.373
98.3261 129.851 127.23
97.2581 127.656 127.297
114.012 128.795 128.094
115.529 128.488 130.568
115.782 128.01 129.285
117.092 127.582 130.788
117.455 127.127 129.797
98.2028 128.65 128.998
99.1515 127.668 130.365
115.962 128.097 132.443
117.524 127.408 132.219
118.734 126.58 131.232
100.572 126.203 131.129
117.134 127.019 133.973
118.764 126.102 133.016
101.949 126.832 132.58
103.297 126.047 133.402
116.161 126.353 135.748
117.667 125.583 134.603
104.586 126.262 134.787
106.348 126.284 135.329
108.222 125.982 135.542
109.985 125.948 136.416
111.824 125.762 136.644
113.675 125.452 136.624
115.814 125.183 136.175
100.671 129.324 118.841
98.4413 128.694 118.843
99.5105 128.698 117.463
101.712 128.985 117.288
102.963 129.521 119.07
103.918 128.642 117.408
105.3 128.917 119.045
106.195 127.773 117.671
107.343 127.982 119.174
108.617 126.809 118.053
100.199 130.139 120.494
97.9559 128.935 120.319
110.559 126.498 119.241
97.9821 129.509 121.866
96.3664 127.292 123.292
96.7973 127.964 121.285
111.189 127.315 120.721
112.857 128.034 121.92
114.174 127.964 124.277
96.6587 126.385 125.315
114.908 127.698 125.851
97.4157 125.579 127.209
115.133 127.555 127.358
116.589 127.28 128.471
118.247 126.086 129.602
98.3315 126.623 128.914
99.6532 125.355 129.934
119.527 125.103 131.467
101.725 124.634 130.456
119.068 124.407 133.444
102.528 125.551 131.592
103.972 125.219 132.159
108.895 125.257 134.202
108.605 124.795 132.545
107.79 125.302 133.894
109.696 124.643 133.06
117.26 124.193 134.719
104.868 125.476 133.45
106.463 125.328 134.009
109.845 125.204 134.808
111.381 124.835 135.182
113.137 124.392 135.395
115.071 124.12 135.382
100.911 127.499 114.253
99.4435 126.866 113.222
100.849 126.864 112.767
102.255 126.629 112.72
103.33 127.088 114.369
104.216 126.075 112.779
105.379 126.42 114.744
105.828 125.374 113.114
107.008 125.634 114.982
107.762 124.876 113.868
98.2941 127.483 115.071
96.4376 126.367 115.495
97.3602 126.309 113.718
99.8929 128.09 116.076
102.301 128.106 115.768
104.672 127.662 116.005
106.932 126.674 116.402
108.89 125.679 116.18
97.402 127.774 117.148
95.825 126.266 117.825
110.405 125.632 117.744
96.624 127.445 119.439
95.9317 126.212 121.432
111.398 125.205 118.972
96.3843 124.768 123.649
112.108 125.663 120
113.232 126.3 120.991
114.286 126.998 122.684
115.381 126.706 124.87
115.115 125.68 123.93
97.2036 124.378 125.348
115.871 126.468 126.625
115.956 124.964 126.347
98.3647 123.9 126.632
117.135 125.795 127.984
118.5 124.616 129.735
98.9826 124.812 128.394
100.908 123.761 129.145
119.108 123.372 131.649
103.187 123.587 129.54
104.08 124.456 130.789
106.12 123.842 130.893
105.27 123.236 129.521
107.914 123.662 130.697
106.904 122.973 129.51
109.51 123.847 131.268
108.595 122.66 129.203
111.515 123.589 131.741
110.454 122.855 130.159
113.311 123.358 132.348
112.55 122.752 130.475
114.184 122.791 130.747
117.862 123.08 133.167
105.559 124.715 132.171
107.315 124.6 132.183
110.826 124.325 133.172
112.545 123.946 133.878
114.887 122.864 132.275
114.483 123.375 134.053
116.232 123.262 134.206
116.318 122.679 132.633
100.794 126.296 111.242
98.6685 126.083 110.517
99.8699 125.692 109.458
101.908 125.525 109.424
103.116 125.755 111.073
104.099 124.896 109.483
105.081 124.848 111.076
106.745 123.851 109.912
106.721 124.434 112.011
108.141 123.819 111.634
98.2898 126.181 112.057
96.0851 124.913 112.75
96.8974 125.351 110.893
109.08 124.415 113.948
95.4068 124.742 114.886
110.041 124.458 115.202
110.75 124.616 116.567
111.016 123.424 115.462
95.3328 124.773 117.209
95.5333 123.248 117.792
95.29 123.5 116.112
111.47 123.964 118.346
111.22 123.009 117.516
95.63 125.057 119.515
95.9639 123.14 119.667
112.143 124.14 119.664
111.953 122.588 119.983
96.0163 124.239 121.666
96.5819 122.517 121.14
113.008 123.928 120.827
114.099 125.202 122.081
115.037 124.457 124.044
97.1423 122.862 123.135
98.307 122.637 124.705
115.208 123.697 125.53
99.4755 122.492 126.095
117.152 124.23 128.208
115.773 123.539 127.147
99.8753 123.361 127.719
101.656 122.682 127.667
110.244 122.268 128.557
109.952 121.719 127.032
108.716 121.819 127.349
112.257 122.212 128.973
111.186 121.763 127.229
114.452 122.401 129.159
112.948 122.347 127.428
116.398 122.922 129.023
114.615 122.739 127.457
117.855 123.351 129.87
102.775 122.815 128.496
104.728 122.331 128.238
106.873 122.186 127.966
115.828 122.567 130.561
117.477 122.623 131.237
101.186 124.34 105.733
99.2234 124.22 105.526
100.071 123.357 103.979
102.608 123.358 104.56
103.567 124.124 106.355
104.611 123.112 105.393
105.586 123.178 107.155
106.461 122.259 106.016
98.8993 124.701 107.179
96.6683 123.971 108.039
97.6051 124.026 106.28
100.422 125.115 107.939
102.42 124.89 107.645
104.73 124.048 108.26
107.62 122.303 107.612
107.067 123.135 108.597
109.489 122.124 108.876
97.6535 125.028 109.118
95.9718 123.577 110.404
109.037 123.018 110.291
109.715 123.45 112.365
110.8 122.709 111.258
95.5649 122.656 112.483
110.464 123.71 113.962
111.286 122.656 113.345
95.2745 122.926 114.392
95.5063 121.837 115.798
95.7819 121.134 113.552
110.973 122.243 115.568
96.0633 121.465 117.603
110.776 122.028 118.109
96.7535 121.365 119.122
110.794 121.26 119.94
97.5153 121.209 120.273
112.962 122.098 122.227
111.73 120.913 121.535
113.928 123.661 122.446
97.8314 121.568 122.055
100.423 121.51 124.841
99.0928 121.317 123.212
100.688 120.845 123.298
112.035 120.9 123.925
111.067 120.23 122.478
110.277 120.405 123.567
113.486 122.036 124.461
114.237 122.974 124.044
101.215 121.964 126.417
101.971 120.749 124.092
102.797 121.347 125.683
103.614 120.916 124.201
110.182 121.349 125.437
109.282 120.664 124.141
108.307 121.015 124.724
111.91 121.666 125.958
113.227 121.99 125.863
114.562 122.687 125.849
103.411 122.023 126.968
104.591 121.447 125.179
105.532 121.786 126.496
107.737 121.496 126.247
106.39 121.168 124.992
98.2127 123.404 104.86
96.6271 122.694 106.001
97.7557 122.293 103.917
99.5614 122.636 102.202
102.122 122.786 103.064
104.998 122.221 104.029
107.577 121.446 105.606
96.2284 122.156 108.261
109.218 121.462 107.451
111.763 120.754 108.075
95.8331 121.298 110.313
111.243 121.844 109.83
111.706 121.412 111.747
96.3663 119.979 111.744
110.951 121.336 113.696
96.5024 120.298 115.539
96.9488 119.584 113.778
110.351 121.586 115.873
97.5105 119.939 117.03
109.74 121.436 117.355
109.334 121.014 115.997
108.528 121.04 117.337
98.1023 120.173 118.574
109.58 121.096 119.067
108.3 120.863 119.077
98.5617 120.499 119.636
98.4402 120.873 120.951
99.4394 120.352 120.212
109.807 120.475 121.252
108.128 120.74 120.696
99.4089 120.703 121.631
101.619 120.339 122.782
100.936 120.274 121.78
102.401 120.108 121.893
108.588 120.491 122.561
106.878 120.552 120.707
106.595 120.443 121.838
105.238 120.82 123.591
103.537 120.405 122.728
106.963 120.662 123.403
105.114 120.407 122.015
101.689 122.092 101.381
99.2059 121.115 101.142
101.501 121.003 100.04
103.872 121.182 100.71
104.062 122.056 102.361
106.016 120.79 101.899
105.638 121.556 102.99
107.107 120.681 103.522
96.6125 120.866 105.586
97.7328 120.845 102.84
108.162 120.795 104.825
109.849 120.686 106.421
111.274 119.924 105.807
96.4341 120.333 107.821
112.897 119.418 107.569
96.8267 119.235 109.274
112.258 120.32 110.301
111.869 118.859 109.756
97.8696 118.467 110.687
110.736 120.054 111.941
109.665 119.161 111.108
98.3993 118.887 115.125
98.1233 118.697 112.622
108.891 119.876 113.371
108.194 119.407 112.122
107.226 119.544 113.506
109.753 120.79 114.344
99.3095 119.221 117.023
99.8913 118.587 114.369
101.028 118.943 116.217
103.155 118.925 115.952
101.748 118.671 114.398
105.204 119.14 115.663
103.752 118.943 114.062
107.227 119.604 115.223
105.57 119.404 113.782
108.459 120.34 115.578
99.4634 119.698 118.916
100.871 119.276 118.316
102.523 119.219 117.817
104.258 119.298 117.434
105.98 119.723 117.23
107.4 120.351 117.174
100.571 119.948 120.095
102.147 119.617 119.978
103.736 119.49 119.225
105.173 119.786 118.707
106.83 120.311 118.977
103.797 119.885 120.924
105.398 120.108 120.317
99.5146 119.733 100.298
101.505 120.078 99.041
103.913 120.257 99.4127
106.192 119.89 100.604
108.3 119.484 102.263
109.216 119.792 104.25
110.867 119.074 104.003
97.5014 119.425 104.504
98.4035 118.884 102.491
112.727 118.874 105.945
97.4047 118.793 106.745
98.5015 118.047 104.916
111.315 117.86 107.854
98.3201 117.759 108.44
109.712 118.27 109.631
99.3284 117.654 109.812
99.7257 118.137 111.538
100.753 117.674 109.986
106.228 118.999 110.739
105.931 118.423 109.473
104.711 118.909 110.415
108.088 118.906 110.755
107.76 118.227 109.422
100.422 118.459 113.119
101.591 118.162 111.076
102.357 118.711 112.468
104.43 119.096 112.197
103.214 118.607 110.675
106.388 119.336 112.24
102.891 119.402 98.1573
100.421 118.739 98.6954
101.885 117.808 97.6505
104.133 118.339 97.5906
105.652 119.319 98.8053
106.364 118.203 97.9329
107.874 118.753 100.287
108.677 117.699 99.3712
110.121 118.482 102.014
110.595 117.548 100.732
111.935 117.968 102.454
112.375 117.167 101.28
99.1936 117.821 100.581
112.699 118.493 104.101
113.627 117.327 103.176
99.2346 116.874 102.56
112.314 117.299 106.232
113.316 117.008 104.847
99.5051 117.235 106.693
99.8169 116.835 104.473
107.695 117.206 106.728
107.463 115.968 105.421
105.813 116.768 106.328
109.579 117.324 107.159
109.919 116.594 106.015
111.778 116.172 105.223
100.48 117.278 108.411
101.469 116.695 106.175
102.423 117.334 107.664
104.92 117.476 107.508
103.595 116.99 106.31
106.617 117.831 108.271
108.863 117.778 108.161
102.339 117.92 109.272
104.231 118.25 108.919
107.495 117.396 97.4815
105.45 117.113 96.6999
106.614 116.055 96.1442
108.316 116.306 96.6481
108.98 117.03 98.1254
109.729 116.232 97.4593
100.184 116.829 99.0221
101.406 115.929 97.7708
103.406 116.921 96.8669
110.465 116.965 99.2276
112.384 116.506 99.5942
113.729 116.693 101.451
114.044 116.125 100.027
100.098 115.84 101.143
113.508 115.763 102.864
114.317 115.436 101.752
100.85 115.674 102.95
112.645 114.471 102.284
112.639 115.903 103.862
101.964 115.721 104.104
102.532 116.081 105.206
104.917 116.09 105.488
104.782 115.353 104.502
106.628 115.011 104.153
108.575 115.429 104.329
110.38 115.69 104.363
104.447 115.493 96.1376
106.231 114.511 95.6568
108.125 114.96 95.8307
109.915 115.393 96.3409
111.043 116.197 98.2524
111.34 115.513 97.2673
112.055 115.861 98.2742
112.885 115.345 97.7013
100.606 114.906 99.8954
101.483 114.35 98.5262
102.6 114.931 96.7183
114.188 115.434 98.5054
115.183 115.453 100.33
115.501 115.059 98.6662
116.078 114.442 99.6861
116.412 114.193 98.4362
102.04 114.575 101.906
102.022 113.634 100.461
114.29 114.339 101.627
115.303 113.829 100.695
116.503 113.378 99.4595
102.999 115.107 103.293
103.889 113.757 101.761
104.765 114.665 103
107.36 114.526 103.153
105.977 113.906 102.087
109.395 114.678 103.058
108.158 113.626 101.85
111.203 114.871 103.162
110.399 114.032 101.829
112.019 113.348 101.229
113.757 113.164 100.983
115.47 112.645 100.154
104.542 113.694 95.8795
106.571 113.233 95.4276
108.192 113.507 95.4616
109.921 114.068 95.5633
111.497 114.884 96.2332
112.936 114.49 96.1392
102.141 113.121 98.0596
103.124 112.992 96.4221
114.454 114.411 96.6206
115.79 114.351 97.2415
117.074 113.437 97.8178
102.748 112.361 99.2613
116.718 112.394 99.0452
103.74 112.708 100.564
105.682 112.916 101.08
107.407 112.686 100.991
106.386 111.718 100.309
109.168 112.721 101.046
110.717 112.73 100.88
112.391 112.374 100.557
113.766 111.981 100.219
115.31 111.524 99.9309
108.15 111.611 100.394
109.85 111.574 100.375
111.335 111.521 100.247
112.606 111.408 100.042
106.137 112.484 95.3611
107.689 112.133 95.2376
109.548 112.418 95.266
111.41 113.404 95.5179
103.33 111.838 97.5544
104.598 111.823 95.9968
106.225 111.281 95.3234
108.228 110.963 95.3016
110.928 111.952 95.473
113.07 113.047 95.4998
114.736 113.146 95.4719
116.218 113.562 95.7313
117.418 113.29 96.4971
117.741 112.165 97.7712
118.08 111.516 96.6114
103.751 111.528 99.0809
104.363 110.794 97.7129
116.652 111.411 98.793
117.355 110.808 97.7712
104.855 111.573 99.9115
105.992 110.556 99.4305
114.676 109.988 99.2149
113.599 110.786 99.6905
115.978 110.439 98.7957
107.342 110.551 99.7653
108.905 110.469 99.8086
110.488 110.366 99.7709
111.971 110.403 99.6237
105.405 110.082 96.409
106.982 109.645 95.6155
108.669 109.777 95.6615
110.235 110.786 95.7367
112.263 111.3 95.6265
113.844 111.672 95.2884
115.682 111.977 95.1025
117.4 111.923 95.3804
117.315 110.416 96.2943
105.276 110.055 98.2816
106.403 109.036 97.2017
107.939 108.618 96.5669
116.473 110.013 97.5536
106.692 109.381 98.6775
107.764 108.329 98.0328
113.865 109.027 98.3448
113.014 109.416 99.2702
115.202 109.485 97.962
108.103 109.309 99.2606
109.79 109.306 99.3785
111.486 109.009 99.3393
109.771 109.31 96.416
111.516 110.042 96.3453
113.152 110.437 96.1875
114.618 110.433 95.6894
116.262 110.674 95.4643
109.271 108.233 97.4519
110.982 108.69 97.2951
112.5 109.321 97.0295
113.969 109.466 97.0557
115.588 109.863 96.5971
109.048 108.417 98.6238
110.642 108.25 98.5093
112.377 108.513 98.1837
POLYGONS 1324  5296
3 0 1 2
3 0 3 4
3 2 3 0
3 3 5 4
3 6 7 8
3 1 6 8
3 1 0 6
3 0 9 6
3 4 10 0
3 10 9 0
3 11 4 5
3 11 12 4
3 12 10 4
3 12 13 14
3 11 13 12
3 13 15 14
3 16 7 6
3 17 7 16
3 9 18 6
3 18 16 6
3 10 19 9
3 19 18 9
3 12 20 10
3 20 19 10
3 14 21 12
3 21 20 12
3 22 14 15
3 21 14 22
3 23 17 16
3 24 17 23
3 18 25 16
3 25 23 16
3 19 26 18
3 26 25 18
3 20 27 19
3 27 26 19
3 21 28 20
3 28 27 20
3 29 21 22
3 28 21 29
3 23 30 24
3 25 30 23
3 31 30 25
3 26 31 25
3 32 31 26
3 27 32 26
3 33 32 27
3 28 33 27
3 34 33 28
3 29 34 28
3 35 36 37
3 35 2 1
3 35 37 2
3 37 38 2
3 3 2 39
3 2 38 39
3 5 40 41
3 5 3 40
3 3 39 40
3 40 42 41
3 8 36 35
3 8 7 36
3 7 43 36
3 1 8 35
3 5 41 11
3 41 42 44
3 41 44 11
3 11 44 13
3 44 15 13
3 45 15 44
3 7 17 43
3 43 17 46
3 15 45 22
3 45 47 22
3 17 24 46
3 46 24 48
3 22 47 29
3 47 49 29
3 24 50 48
3 30 50 24
3 31 51 30
3 30 51 50
3 32 52 31
3 31 52 51
3 33 53 32
3 32 53 52
3 34 54 33
3 33 54 53
3 49 34 29
3 54 34 49
3 55 56 57
3 55 58 59
3 57 58 55
3 58 60 59
3 61 56 55
3 62 56 61
3 59 63 55
3 63 61 55
3 64 59 60
3 64 65 59
3 65 63 59
3 64 66 65
3 67 68 69
3 62 67 69
3 61 67 62
3 61 36 67
3 61 37 36
3 38 37 61
3 63 38 61
3 39 38 63
3 65 39 63
3 65 66 70
3 65 70 39
3 39 70 40
3 42 71 72
3 42 40 71
3 40 70 71
3 71 73 72
3 74 68 67
3 75 68 74
3 36 43 74
3 67 36 74
3 42 72 44
3 72 45 44
3 72 73 45
3 73 76 45
3 77 75 74
3 78 75 77
3 43 46 77
3 74 43 77
3 79 80 47
3 79 47 76
3 76 47 45
3 79 81 80
3 77 82 78
3 82 77 46
3 82 46 83
3 83 46 48
3 80 84 49
3 47 80 49
3 85 80 81
3 84 80 85
3 48 86 83
3 50 86 48
3 51 87 50
3 50 87 86
3 52 88 51
3 51 88 87
3 53 89 52
3 52 89 88
3 54 90 53
3 53 90 89
3 84 54 49
3 84 91 54
3 91 90 54
3 85 91 84
3 92 93 94
3 92 95 96
3 94 95 92
3 96 97 98
3 95 97 96
3 97 99 98
3 100 101 102
3 93 100 102
3 92 100 93
3 92 56 100
3 92 57 56
3 58 57 92
3 96 58 92
3 60 58 96
3 60 96 103
3 103 96 98
3 104 98 99
3 104 105 98
3 105 103 98
3 105 106 107
3 104 106 105
3 106 108 107
3 109 110 111
3 101 109 111
3 101 100 109
3 100 112 109
3 56 62 112
3 100 56 112
3 60 103 64
3 66 64 103
3 66 103 113
3 113 103 105
3 107 114 105
3 114 113 105
3 115 107 108
3 114 107 115
3 116 110 109
3 117 110 116
3 69 68 116
3 69 116 112
3 112 116 109
3 62 69 112
3 66 113 70
3 71 70 113
3 114 71 113
3 73 118 119
3 71 118 73
3 71 115 118
3 71 114 115
3 119 120 121
3 118 120 119
3 120 122 121
3 116 123 117
3 123 116 68
3 123 68 124
3 124 68 75
3 119 125 76
3 73 119 76
3 121 126 119
3 126 125 119
3 127 121 122
3 126 121 127
3 75 78 124
3 124 78 128
3 76 125 79
3 81 79 125
3 81 125 129
3 129 125 126
3 130 126 127
3 129 126 130
3 78 131 128
3 82 131 78
3 131 82 83
3 132 131 83
3 129 133 85
3 81 129 85
3 134 129 130
3 133 129 134
3 83 135 132
3 86 135 83
3 87 136 86
3 86 136 135
3 88 137 87
3 87 137 136
3 89 138 88
3 88 138 137
3 90 139 89
3 89 139 138
3 91 140 90
3 90 140 139
3 133 91 85
3 133 141 91
3 141 140 91
3 134 141 133
3 142 143 144
3 142 145 146
3 144 145 142
3 146 147 148
3 145 147 146
3 148 149 150
3 147 149 148
3 149 151 150
3 152 143 142
3 153 143 152
3 94 93 152
3 94 152 146
3 146 152 142
3 95 94 146
3 148 95 146
3 97 95 148
3 150 97 148
3 150 99 97
3 150 151 99
3 151 154 99
3 155 156 157
3 153 155 157
3 152 155 153
3 152 101 155
3 152 102 101
3 93 102 152
3 99 154 158
3 104 99 158
3 106 104 159
3 104 158 159
3 159 108 106
3 160 108 159
3 111 156 155
3 111 110 156
3 110 161 156
3 101 111 155
3 108 160 115
3 160 162 115
3 110 117 161
3 161 117 163
3 115 162 164
3 118 115 164
3 120 118 165
3 118 164 165
3 165 122 120
3 166 122 165
3 117 167 163
3 123 167 117
3 167 123 124
3 168 167 124
3 122 166 127
3 166 169 127
3 124 128 168
3 168 128 170
3 127 169 130
3 169 171 130
3 128 172 170
3 131 172 128
3 172 131 132
3 173 172 132
3 174 175 176
3 175 174 177
3 130 171 134
3 171 178 134
3 132 179 173
3 135 179 132
3 136 180 135
3 135 180 179
3 176 137 174
3 176 180 137
3 180 136 137
3 174 181 177
3 174 137 181
3 137 138 181
3 139 182 138
3 138 182 181
3 140 183 139
3 139 183 182
3 141 184 140
3 140 184 183
3 178 141 134
3 184 141 178
3 185 186 187
3 185 188 189
3 187 188 185
3 189 190 191
3 188 190 189
3 191 192 193
3 190 192 191
3 192 194 193
3 195 196 197
3 186 195 197
3 186 185 195
3 185 198 195
3 189 199 185
3 199 198 185
3 191 200 189
3 200 199 189
3 193 201 191
3 201 200 191
3 202 193 194
3 201 193 202
3 203 196 195
3 204 196 203
3 144 143 203
3 144 203 198
3 198 203 195
3 145 144 198
3 199 145 198
3 147 145 199
3 200 147 199
3 149 147 200
3 201 149 200
3 201 151 149
3 201 202 151
3 202 205 151
3 206 204 203
3 207 204 206
3 143 153 206
3 203 143 206
3 151 205 154
3 205 208 154
3 157 207 206
3 157 156 207
3 156 209 207
3 153 157 206
3 154 208 210
3 158 154 210
3 159 158 211
3 158 210 211
3 160 212 213
3 160 159 212
3 159 211 212
3 212 214 213
3 156 161 209
3 209 161 215
3 213 216 162
3 160 213 162
3 217 213 214
3 216 213 217
3 161 163 215
3 215 163 218
3 162 216 164
3 216 217 219
3 216 219 164
3 164 219 165
3 219 166 165
3 220 166 219
3 163 221 218
3 167 221 163
3 221 167 168
3 222 221 168
3 166 220 169
3 220 223 169
3 224 170 225
3 224 222 170
3 222 168 170
3 225 226 227
3 224 225 227
3 226 228 229
3 227 226 229
3 228 230 231
3 229 228 231
3 230 232 233
3 231 230 233
3 232 234 235
3 233 232 235
3 235 234 236
3 169 223 171
3 223 237 171
3 170 172 225
3 173 225 172
3 173 238 225
3 238 226 225
3 228 226 239
3 239 226 238
3 175 239 176
3 175 230 239
3 230 228 239
3 177 230 175
3 177 240 230
3 240 232 230
3 234 232 241
3 241 232 240
3 242 236 234
3 242 234 243
3 243 234 241
3 243 244 245
3 242 243 245
3 244 237 245
3 244 178 237
3 178 171 237
3 173 179 238
3 180 238 179
3 239 238 180
3 176 239 180
3 177 181 240
3 182 240 181
3 241 240 182
3 183 241 182
3 243 241 183
3 184 243 183
3 244 243 184
3 178 244 184
3 246 247 248
3 246 249 250
3 248 249 246
3 250 251 252
3 249 251 250
3 252 253 254
3 251 253 252
3 253 255 254
3 256 257 258
3 247 256 258
3 246 256 247
3 246 186 256
3 246 187 186
3 188 187 246
3 250 188 246
3 190 188 250
3 252 190 250
3 192 190 252
3 254 192 252
3 254 194 192
3 254 255 194
3 255 259 194
3 197 257 256
3 197 196 257
3 196 260 257
3 186 197 256
3 261 262 202
3 261 202 259
3 259 202 194
3 261 263 262
3 264 265 266
3 264 266 260
3 264 260 204
3 204 260 196
3 262 267 205
3 202 262 205
3 268 262 263
3 267 262 268
3 269 265 264
3 270 265 269
3 204 207 269
3 264 204 269
3 267 271 208
3 205 267 208
3 272 267 268
3 271 267 272
3 273 270 269
3 274 270 273
3 207 209 273
3 269 207 273
3 208 271 210
3 271 272 275
3 271 275 210
3 210 275 211
3 212 211 276
3 211 275 276
3 276 214 212
3 277 214 276
3 273 278 274
3 278 273 209
3 278 209 279
3 279 209 215
3 214 277 217
3 277 280 217
3 215 218 279
3 279 218 281
3 282 219 217
3 282 217 283
3 283 217 280
3 219 282 220
3 218 284 281
3 221 284 218
3 284 221 222
3 285 284 222
3 286 287 288
3 286 289 290
3 287 286 290
3 289 291 292
3 290 289 292
3 291 293 294
3 292 291 294
3 283 294 293
3 283 293 282
3 282 293 295
3 220 295 223
3 282 295 220
3 222 296 285
3 224 296 222
3 227 297 224
3 224 297 296
3 229 298 227
3 227 298 297
3 288 231 286
3 288 298 231
3 298 229 231
3 233 286 231
3 289 286 233
3 235 289 233
3 291 289 235
3 236 291 235
3 236 299 291
3 299 293 291
3 295 293 300
3 300 293 299
3 223 300 237
3 295 300 223
3 236 242 299
3 245 299 242
3 300 299 245
3 237 300 245
3 301 302 303
3 301 304 305
3 303 304 301
3 305 306 307
3 304 306 305
3 306 308 307
3 309 310 311
3 302 309 311
3 302 301 309
3 301 312 309
3 305 313 301
3 313 312 301
3 307 314 305
3 314 313 305
3 315 307 308
3 315 316 307
3 316 314 307
3 315 317 316
3 318 310 309
3 319 310 318
3 248 247 318
3 248 318 312
3 312 318 309
3 249 248 312
3 313 249 312
3 251 249 313
3 314 251 313
3 253 251 314
3 316 253 314
3 255 320 321
3 253 320 255
3 253 317 320
3 253 316 317
3 320 322 321
3 258 319 318
3 258 257 319
3 257 323 319
3 247 258 318
3 321 324 259
3 255 321 259
3 325 321 322
3 324 321 325
3 326 327 328
3 326 328 323
3 326 323 260
3 260 323 257
3 259 324 261
3 324 263 261
3 324 325 263
3 325 329 263
3 266 327 326
3 266 265 327
3 265 330 327
3 260 266 326
3 263 329 268
3 329 331 268
3 265 270 330
3 330 270 332
3 268 331 272
3 331 333 272
3 270 274 332
3 332 274 334
3 335 275 272
3 335 272 336
3 336 272 333
3 275 337 276
3 335 337 275
3 276 337 277
3 274 338 334
3 278 338 274
3 279 339 340
3 279 340 278
3 278 340 338
3 340 339 341
3 342 343 344
3 336 343 342
3 336 342 335
3 335 342 345
3 337 335 346
3 346 335 345
3 277 346 280
3 337 346 277
3 339 281 347
3 279 281 339
3 348 341 339
3 348 339 349
3 349 339 347
3 348 349 350
3 351 352 353
3 344 352 351
3 344 351 342
3 342 351 354
3 345 342 355
3 355 342 354
3 346 345 356
3 356 345 355
3 280 356 283
3 346 356 280
3 281 284 347
3 285 347 284
3 285 357 347
3 357 349 347
3 358 350 349
3 358 349 359
3 359 349 357
3 359 360 361
3 358 359 361
3 353 361 360
3 351 353 360
3 351 360 288
3 351 288 287
3 290 351 287
3 354 351 290
3 292 354 290
3 355 354 292
3 294 355 292
3 356 355 294
3 283 356 294
3 285 296 357
3 297 357 296
3 359 357 297
3 298 359 297
3 360 359 298
3 288 360 298
3 362 363 364
3 362 303 302
3 362 364 303
3 364 365 303
3 304 303 366
3 303 365 366
3 306 304 367
3 304 366 367
3 367 308 306
3 368 308 367
3 311 363 362
3 311 310 363
3 310 369 363
3 302 311 362
3 308 368 370
3 315 308 370
3 370 317 315
3 371 317 370
3 310 319 369
3 369 319 372
3 317 371 373
3 320 317 373
3 373 322 320
3 374 322 373
3 319 323 372
3 372 323 375
3 322 374 325
3 374 376 325
3 328 377 378
3 327 377 328
3 375 323 328
3 378 375 328
3 325 376 329
3 376 379 329
3 327 330 377
3 377 330 380
3 381 382 383
3 381 379 382
3 381 331 379
3 331 329 379
3 330 332 380
3 380 332 384
3 385 381 383
3 386 385 383
3 331 385 333
3 381 385 331
3 387 334 388
3 387 384 334
3 384 332 334
3 387 388 389
3 390 385 386
3 391 390 386
3 333 390 336
3 385 390 333
3 334 338 388
3 388 392 389
3 388 338 392
3 338 340 392
3 341 393 394
3 341 394 340
3 340 394 392
3 394 393 395
3 396 397 398
3 391 397 396
3 390 391 396
3 390 396 344
3 390 344 343
3 336 390 343
3 341 348 393
3 350 399 400
3 348 350 400
3 348 400 395
3 348 395 393
3 399 401 402
3 400 399 402
3 398 402 401
3 396 398 401
3 396 401 353
3 396 353 352
3 344 396 352
3 350 358 399
3 361 399 358
3 401 399 361
3 353 401 361
3 403 404 405
3 403 406 407
3 405 406 403
3 407 408 409
3 406 408 407
3 408 410 409
3 364 411 412
3 363 411 364
3 404 403 365
3 404 365 412
3 412 365 364
3 366 365 403
3 407 366 403
3 367 366 407
3 409 367 407
3 368 413 414
3 367 413 368
3 367 410 413
3 367 409 410
3 413 415 414
3 363 369 411
3 411 369 416
3 368 414 370
3 414 371 370
3 414 415 371
3 415 417 371
3 369 372 416
3 416 372 418
3 419 373 371
3 419 371 420
3 420 371 417
3 373 419 374
3 372 375 418
3 418 375 421
3 422 419 420
3 423 422 420
3 374 422 376
3 419 422 374
3 378 377 424
3 378 424 425
3 378 425 375
3 375 425 421
3 426 427 428
3 423 427 426
3 423 426 422
3 422 426 429
3 376 429 379
3 422 429 376
3 424 380 430
3 377 380 424
3 431 425 424
3 431 424 432
3 432 424 430
3 432 433 434
3 431 432 434
3 433 435 436
3 434 433 436
3 435 437 438
3 436 435 438
3 428 438 437
3 428 437 426
3 426 437 439
3 382 439 383
3 382 429 439
3 429 426 439
3 379 429 382
3 430 384 440
3 380 384 430
3 432 430 441
3 441 430 440
3 433 432 442
3 442 432 441
3 435 433 443
3 443 433 442
3 437 435 444
3 444 435 443
3 439 437 445
3 445 437 444
3 383 445 386
3 439 445 383
3 384 387 440
3 389 440 387
3 389 446 440
3 446 441 440
3 442 441 447
3 447 441 446
3 443 442 448
3 448 442 447
3 444 443 449
3 449 443 448
3 445 444 450
3 450 444 449
3 386 450 391
3 445 450 386
3 389 392 446
3 394 446 392
3 447 446 394
3 395 447 394
3 395 451 447
3 451 448 447
3 449 448 452
3 452 448 451
3 397 452 398
3 397 450 452
3 450 449 452
3 391 450 397
3 395 400 451
3 402 451 400
3 452 451 402
3 398 452 402
3 405 453 454
3 404 453 405
3 406 405 455
3 405 454 455
3 408 406 456
3 406 455 456
3 410 457 458
3 410 408 457
3 408 456 457
3 457 459 458
3 412 411 460
3 412 460 461
3 412 461 404
3 404 461 453
3 410 458 413
3 458 415 413
3 458 459 415
3 459 462 415
3 460 463 464
3 460 411 463
3 411 416 463
3 461 460 464
3 415 462 417
3 462 465 417
3 416 418 463
3 463 418 466
3 417 465 420
3 465 467 420
3 468 421 469
3 468 466 421
3 466 418 421
3 468 469 470
3 471 472 473
3 471 474 475
3 472 471 475
3 474 467 475
3 474 423 467
3 423 420 467
3 469 425 476
3 421 425 469
3 477 470 469
3 477 469 478
3 478 469 476
3 478 479 480
3 477 478 480
3 473 480 479
3 473 479 471
3 471 479 481
3 427 481 428
3 427 474 481
3 474 471 481
3 423 474 427
3 425 431 476
3 434 476 431
3 478 476 434
3 436 478 434
3 479 478 436
3 438 479 436
3 481 479 438
3 428 481 438
3 482 483 484
3 482 485 486
3 484 485 482
3 486 487 488
3 485 487 486
3 488 489 490
3 487 489 488
3 490 491 492
3 489 491 490
3 491 493 492
3 454 483 482
3 454 453 483
3 453 494 483
3 455 454 482
3 486 455 482
3 456 455 486
3 488 456 486
3 457 456 488
3 490 457 488
3 459 457 490
3 459 490 495
3 495 490 492
3 496 492 493
3 495 492 496
3 453 461 494
3 494 461 497
3 495 498 462
3 459 495 462
3 499 495 496
3 498 495 499
3 464 463 500
3 464 500 501
3 464 501 461
3 461 501 497
3 502 503 504
3 502 505 506
3 503 502 506
3 498 507 506
3 498 506 465
3 498 465 462
3 465 506 505
3 499 507 498
3 500 466 508
3 463 466 500
3 509 501 500
3 509 500 510
3 510 500 508
3 510 511 512
3 509 510 512
3 504 512 511
3 504 511 502
3 502 511 513
3 505 502 514
3 514 502 513
3 465 514 467
3 505 514 465
3 466 468 508
3 470 508 468
3 470 515 508
3 515 510 508
3 511 510 516
3 516 510 515
3 472 516 473
3 472 513 516
3 513 511 516
3 475 513 472
3 514 513 475
3 467 514 475
3 470 477 515
3 480 515 477
3 516 515 480
3 473 516 480
3 517 518 519
3 517 520 521
3 519 520 517
3 520 522 521
3 484 523 524
3 483 523 484
3 485 484 525
3 484 524 525
3 518 517 487
3 518 487 525
3 525 487 485
3 489 487 517
3 521 489 517
3 521 522 526
3 521 526 489
3 489 526 491
3 493 527 528
3 493 491 527
3 491 526 527
3 527 529 528
3 483 494 523
3 523 494 530
3 528 531 496
3 493 528 496
3 532 528 529
3 531 528 532
3 494 497 530
3 530 497 533
3 531 534 535
3 531 535 496
3 496 535 499
3 532 534 531
3 536 501 537
3 536 533 501
3 533 497 501
3 537 538 539
3 536 537 539
3 538 504 503
3 538 503 539
3 539 503 540
3 506 541 503
3 503 541 540
3 507 542 506
3 506 542 541
3 535 507 499
3 542 507 535
3 501 509 537
3 512 537 509
3 538 537 512
3 504 538 512
3 519 543 544
3 518 543 519
3 520 519 545
3 519 544 545
3 522 546 547
3 522 520 546
3 520 545 546
3 547 548 549
3 546 548 547
3 548 550 549
3 524 523 551
3 552 524 551
3 552 553 524
3 553 525 524
3 543 518 525
3 553 543 525
3 522 547 526
3 527 526 547
3 549 527 547
3 529 554 555
3 527 554 529
3 527 550 554
3 527 549 550
3 555 556 557
3 554 556 555
3 556 558 557
3 551 530 559
3 523 530 551
3 560 552 551
3 559 560 551
3 555 561 532
3 529 555 532
3 557 562 555
3 562 561 555
3 563 557 558
3 562 557 563
3 559 533 564
3 530 533 559
3 565 560 559
3 565 559 566
3 566 559 564
3 566 567 568
3 565 566 568
3 567 569 570
3 568 567 570
3 569 571 572
3 570 569 572
3 571 535 534
3 571 534 572
3 572 534 573
3 561 534 532
3 561 574 534
3 574 573 534
3 562 574 561
3 575 574 562
3 563 575 562
3 533 536 564
3 539 564 536
3 566 564 539
3 540 566 539
3 567 566 540
3 541 567 540
3 569 567 541
3 542 569 541
3 571 569 542
3 535 571 542
3 544 576 577
3 543 576 544
3 545 544 578
3 544 577 578
3 546 545 579
3 545 578 579
3 548 546 580
3 546 579 580
3 580 550 548
3 581 550 580
3 553 582 583
3 552 582 553
3 576 543 553
3 583 576 553
3 550 581 584
3 554 550 584
3 556 554 585
3 554 584 585
3 585 558 556
3 586 558 585
3 552 560 582
3 582 560 587
3 558 586 563
3 586 588 563
3 560 589 587
3 565 589 560
3 568 590 565
3 565 590 589
3 591 592 590
3 591 590 570
3 570 590 568
3 570 572 593
3 591 570 593
3 572 573 594
3 593 572 594
3 573 574 595
3 594 573 595
3 596 595 574
3 596 574 597
3 597 574 575
3 588 575 563
3 597 575 588
3 591 598 592
3 593 598 591
3 599 598 593
3 594 599 593
3 600 599 594
3 595 600 594
3 601 600 595
3 596 601 595
3 577 576 602
3 577 603 578
3 602 603 577
3 578 604 579
3 603 604 578
3 579 605 580
3 604 605 579
3 580 605 581
3 583 582 606
3 583 606 607
3 576 583 607
3 576 607 608
3 576 608 602
3 603 602 608
3 609 603 608
3 604 603 609
3 610 604 609
3 605 604 610
3 611 605 610
3 581 605 611
3 581 611 584
3 584 611 612
3 585 584 613
3 584 612 613
3 586 614 615
3 586 585 614
3 585 613 614
3 614 616 615
3 606 587 617
3 582 587 606
3 618 607 606
3 617 618 606
3 615 619 588
3 586 615 588
3 620 615 616
3 619 615 620
3 587 589 617
3 617 621 618
3 617 589 621
3 589 590 621
3 621 590 592
3 622 621 592
3 597 623 624
3 596 597 624
3 619 597 588
3 619 625 597
3 625 623 597
3 620 625 619
3 592 626 622
3 598 626 592
3 599 627 598
3 598 627 626
3 600 628 599
3 599 628 627
3 601 629 600
3 600 629 628
3 624 601 596
3 629 601 624
3 608 607 630
3 608 631 609
3 630 631 608
3 632 609 631
3 632 633 609
3 633 610 609
3 611 610 634
3 610 633 634
3 612 611 635
3 611 634 635
3 613 612 636
3 612 635 636
3 614 613 637
3 613 636 637
3 637 616 614
3 638 616 637
3 630 618 639
3 607 618 630
3 631 630 640
3 640 630 639
3 641 632 631
3 640 641 631
3 616 638 620
3 638 642 620
3 618 621 639
3 622 639 621
3 622 643 639
3 643 640 639
3 644 641 640
3 643 644 640
3 623 645 646
3 624 623 646
3 625 647 623
3 623 647 645
3 642 625 620
3 647 625 642
3 622 626 643
3 643 648 644
3 643 626 648
3 626 627 648
3 628 649 627
3 627 649 648
3 629 650 628
3 628 650 649
3 646 629 624
3 650 629 646
3 633 632 651
3 633 652 634
3 651 652 633
3 634 653 635
3 652 653 634
3 635 654 636
3 653 654 635
3 636 655 637
3 654 655 636
3 637 655 638
3 651 641 656
3 632 641 651
3 652 651 657
3 657 651 656
3 653 652 658
3 658 652 657
3 654 653 659
3 659 653 658
3 655 654 660
3 660 654 659
3 638 660 642
3 655 660 638
3 656 644 661
3 641 644 656
3 657 656 662
3 662 656 661
3 658 657 663
3 663 657 662
3 645 663 646
3 645 659 663
3 659 658 663
3 647 659 645
3 660 659 647
3 642 660 647
3 644 648 661
3 649 661 648
3 662 661 649
3 650 662 649
3 663 662 650
3 646 663 650
