# vtk DataFile Version 3.0
this file was written using fslvtkio
ASCII
DATASET POLYDATA
POINTS 642 float
145.782 136.431 123.094
115.179 138.049 124.162
119.394 147.48 107.841
140.382 146.106 107.078
139.628 118.919 107.641
137.84 161.944 115.287
125.072 163.938 115.993
120.209 120.33 109.083
129.952 125.356 122.609
129.944 137.874 100.537
131.285 161.553 101.865
131.051 144.761 129.082
123.261 117.414 115.588
135.532 117.301 114.71
128.807 113.697 106.716
125.82 127.317 105.448
133.765 126.333 104.764
128.141 153.304 121.318
131.68 167.728 112.094
135.085 152.71 122.343
125.822 170.152 107.566
137.38 169.196 106.134
139.814 132.22 108.747
143.252 125.732 116.151
139.478 139.334 117.796
139.754 154.849 110.941
141.66 147.597 121.567
116.423 126.431 117.567
120.422 133.774 109.667
121.056 141.203 118.075
121.936 149.173 121.606
122.247 158.042 111.574
139.839 139.85 130.14
140.181 125.829 126.202
130.159 132.282 131.096
122.142 140.741 129.922
120.111 126.458 126.392
138.637 153.975 102.377
130.619 145.938 100.469
136.796 143.193 100.457
123.949 155.109 104.099
123.74 143.258 101.668
129.423 117.518 114.952
132.918 110.983 111.842
124.629 110.702 111.841
136.277 113.447 105.69
140.23 114.092 111.562
132.835 123.567 117.58
126.959 123.711 117.637
118.315 115.675 113.032
122.321 115.022 106.429
126.402 119.819 103.425
132.224 119.167 103.153
129.787 125.663 105.246
136.996 121.816 104.053
122.262 122.916 105.276
127.897 132.982 102.644
131.975 132.543 102.921
130.179 160.912 116.069
133.306 159.935 115.799
131.555 152.779 120.693
135.68 158.097 117.678
134.471 165.627 114.055
128.705 167.147 114.069
127.647 160.904 117.562
129.078 149.392 126.718
133.68 149.35 127.071
131.357 170.225 106.629
134.423 170.486 109.148
129.219 171.908 109.675
137.037 167.396 111.698
134.684 166.395 103.089
128.72 166.924 103.223
125.217 169.709 112.556
141.055 128.404 113.034
141.737 133.371 117.282
139.65 135.694 112.82
145.028 138.634 120.026
144.553 131.982 120.162
142.464 120.479 111.922
139.56 125.087 108.58
140.095 139.567 108.357
139.441 143.712 112.191
139.111 147.102 115.168
141.735 143.634 119.467
137.632 150.737 116.679
145.315 142.289 122.846
140.308 150.618 109.1
139.072 159.315 113.267
137.631 154.01 118.006
119.047 129.342 113.904
120.563 137.037 113.617
118.346 134.126 117.827
120.926 144.788 112.941
120.418 140.849 109.357
121.061 126.547 109.799
117.913 122.208 113.436
116.312 133.341 121.064
117.14 140.109 121.02
121.349 145.389 119.876
122.434 149.786 114.782
123.291 153.813 116.517
120.439 152.322 110.004
117.006 144.196 123.695
124.15 157.109 118.334
122.822 162.274 114.221
140.858 131.871 130.403
135.605 128.222 129.997
135.61 135.235 132.263
129.885 127.231 128.182
134.928 124.111 124.234
144.034 130.925 125.665
143.75 137.856 127.191
135.204 142.711 130.985
130.457 138.926 131.565
125.343 135.792 132.605
124.689 128.618 130.725
120.506 133.063 130.343
125.065 124.525 124.849
126.859 143.079 130.442
117.981 139.23 127.588
116.575 131.976 126.433
135.098 150.724 98.8261
136.137 146.032 92.5701
141.246 149.027 96.721
133.896 139.806 99.093
129.776 142.947 96.4295
131.166 153.072 102.313
135.125 158.173 102.773
141.4 151.069 103.49
139.154 144.329 103.493
121.557 148.384 100.04
123.67 146.663 92.9713
126.729 149.515 101.256
126.042 140.224 99.6113
120.643 144.745 104.687
119.518 152.064 104.695
127.339 159.341 103.134
140.227 120.399 114.692
137.562 125.466 118.462
142.634 126.876 120.806
141.485 144.386 125.859
138.04 146.976 127.756
138.743 150.666 122.901
135.725 135.524 102.774
137.332 129.085 105.977
138.547 137.436 104.521
140.872 156.134 105.942
139.144 162.687 108.852
138.92 162.686 103.876
122.298 125.483 119.166
118.727 121.034 116.46
117.386 127.235 121.967
120.8 145.781 126.345
124.955 151.743 122.063
124.845 147.791 127.555
121.437 138.405 105.279
122.376 130.537 106.699
124.298 135.739 103.326
123.976 164.88 104.124
122.701 165.598 109.583
121.87 158.168 107.259
130.72 113.964 113.389
128.802 111.282 111.772
127.28 113.833 113.347
126.49 111.238 108.725
130.751 111.897 108.836
134.259 114.193 113.205
132.469 117.361 114.842
126.334 117.408 115.211
124.004 113.92 113.711
134.819 110.824 108.586
136.542 111.728 111.808
138.22 112.196 109.002
137.829 114.53 113.502
132.891 112.962 106.211
138.265 115.678 106.797
140.491 115.376 109.167
131.245 121.075 115.785
128.14 121.208 116.011
129.941 123.973 117.572
125.098 120.901 116.142
134.246 120.899 115.557
131.394 125.61 119.721
128.387 125.485 119.858
121.26 112.186 112.2
122.749 111.384 108.584
119.946 113.4 109.793
125.138 113.128 106.019
120.753 114.893 114.449
118.93 116.896 110.526
120.665 116.844 108.309
129.242 119.392 103.783
131.029 122.869 102.712
128.093 123.081 102.72
131.958 125.715 104.809
133.456 122.535 102.196
130.869 115.605 104.806
127.425 115.924 104.421
125.58 123.767 103.177
127.465 126.209 105.275
134.962 119.969 103.148
133.919 116.516 104.326
136.599 117.386 104.598
135.606 124.225 103.335
138.283 120.001 105.939
124.67 116.935 104.732
123.749 120.688 103.846
122.481 118.679 106.147
124.142 125.044 104.776
121.327 121.274 107.399
128.65 129.109 104.451
131.074 128.83 104.843
129.91 132.076 103.092
133.083 129.577 104.474
126.819 130.305 104.613
128.942 135.645 102.139
130.968 135.427 102.111
131.779 159.954 115.708
132.868 155.556 117.407
130.258 155.929 117.219
132.858 152.385 121.62
133.7 153.762 118.605
132.132 163.435 114.046
131.337 163.633 113.98
129.193 155.819 118.166
130.021 153.099 121.219
134.332 159.539 117.236
133.887 163.809 114.727
135.327 162.277 115.82
132.359 167.244 113.197
135.286 153.935 118.718
136.635 160 116.49
136.099 163.344 114.375
129.887 165.346 114.519
129.06 162.089 116.661
128.214 164.63 115.683
127.934 156.942 118.463
131.186 167.67 112.681
126.531 165.188 114.895
126.103 161.611 117.196
130.496 151.373 124.28
132.278 151.048 124.585
131.258 148.836 126.146
134.731 151.106 125.05
128.334 151.347 124.545
130.099 146.948 128.308
132.44 146.813 128.362
133.01 170.254 107.445
132.02 171.469 108.577
130.185 170.707 107.679
131.31 170.867 110.948
132.545 170.292 110.92
135.914 170.251 107.804
134.402 169.925 106.464
128.456 170.243 106.905
127.363 170.522 109.014
133.593 169.499 112.554
135.888 169.805 111.506
135.413 167.624 113.308
137.829 168.32 109.058
137.623 164.784 113.077
133.158 169.056 104.421
130.082 169.457 104.681
131.568 167.1 102.943
127.31 168.887 104.944
135.926 168.345 103.966
132.887 164.399 102.01
130.017 164.623 101.878
126.9 171.928 112.306
129.488 170.736 112.782
127.214 169.454 114.039
124.462 170.866 110.014
124.91 167.035 113.963
141.385 130.926 115.087
140.337 133.983 115.374
140.49 131.994 112.949
139.207 137.391 115.424
140.397 136.459 117.63
142.564 129.865 116.495
142.515 127.134 114.558
140.3 129.959 110.96
140.425 133.673 110.497
142.947 136.323 119.114
143.361 133.108 118.677
145.139 135.59 120.111
143.248 129.028 118.158
141.943 138.675 119.126
146.419 137.651 121.227
146.167 133.94 121.658
141.643 124.609 112.823
140.435 126.231 111.014
140.608 122.636 110.831
139.603 128.5 108.905
143.265 123.524 113.96
141.182 118.902 109.52
140.005 121.943 108.091
140.654 137.796 110.637
139.813 139.895 113.123
140.476 141.288 110.451
138.569 141.336 115.361
139.904 136.093 108.641
140.302 142.927 107.955
140.111 145.107 109.645
139.34 144.884 118.808
139.48 146.583 119.06
138.555 149.097 115.97
139.784 148.785 119.059
141.874 145.971 120.509
140.814 141.33 119.111
139.117 143.138 117.027
139.016 150.776 113.009
138.193 153.323 113.459
144.878 143.595 120.908
144.182 141.498 119.683
146.76 140.882 121.189
144.039 144.878 122.209
146.037 139.511 123.033
138.794 145.378 113.851
139.885 149.397 111.766
140.611 147.414 110.58
139.859 152.557 110.18
140.51 148.455 107.918
138.431 155.121 114.838
137.943 152.296 117.874
139.346 156.853 116.223
139.713 150.4 120.258
138.956 157.197 111.869
138.947 160.622 114.772
138.435 158.134 116.811
119.98 133.287 113.669
120.019 135.744 116.066
118.475 132.226 115.382
119.694 137.648 118.209
120.895 139.083 116.049
120.463 134.95 111.362
120.403 130.628 111.962
117.709 128.131 115.691
117.327 130.661 117.474
120.748 141.166 113.868
120.466 139.221 111.751
120.357 142.761 111.291
120.699 137.682 109.526
121.606 142.929 115.522
120.521 146.402 110.299
119.867 144.229 108.669
120.107 127.058 112.026
118.464 125.882 113.905
119.614 123.671 111.788
116.367 124.185 115.332
120.383 129.964 109.952
120.434 123.302 109.444
118.998 120.173 111.084
117.199 134.073 119.44
118.147 137.521 119.586
115.967 136.786 121.181
119.631 140.417 119.551
117.271 130.431 119.159
115.312 135.473 122.457
115.437 139.086 122.56
122.9 147.267 117.926
123.991 151.346 115.63
123.775 149.089 118.38
122.902 156.26 114.086
122.899 153.817 112.952
122.224 145.219 116.992
120.927 143.661 119.047
121.526 147.497 120.707
123.693 150.893 119.182
121.393 151.162 112.305
121.677 146.971 114.113
120.493 148.713 111.352
121.238 154.857 110.873
119.39 149.72 108.939
119.081 142.845 120.487
119.053 144.895 121.868
116.548 142.462 122.391
119.721 146.397 123.181
115.56 141.256 124.118
123.399 155.453 117.734
122.12 158.089 115.669
122.573 159.832 116.627
122.631 160.109 113.036
124.549 152.326 119.498
124.09 160.644 117.449
123.371 163.493 115.44
138.447 129.874 130.647
135.798 131.685 131.401
138.39 133.761 131.647
133.013 133.185 131.413
133.103 129.878 130.518
137.747 126.895 128.464
140.521 128.17 129.151
140.246 135.735 130.391
137.963 137.319 131.48
132.938 127.205 128.752
135.217 125.631 127.499
132.659 125.415 126.353
137.546 124.703 125.449
130.004 129.392 129.957
129.849 125.432 125.726
132.202 124.684 123.325
142.485 130.77 128.258
142.514 134.539 128.844
143.886 134.066 126.723
141.893 138.202 128.884
142.462 127.947 126.478
145.544 134.057 124.572
145.076 137.465 125.242
135.506 138.828 131.813
133.02 136.7 131.847
132.964 140.379 130.901
130.434 135.557 131.882
137.509 141.248 130.678
133.076 143.883 130.054
130.851 142.195 130.547
124.856 132.193 131.879
122.171 130.662 131.356
122.7 134.602 132.003
120.399 129.47 129.142
122.446 127.737 128.952
127.277 129.864 131.093
127.62 133.318 131.845
123.344 138.278 131.441
120.845 136.819 130.67
124.738 126.201 128.007
127.11 127.101 129.429
127.327 125.292 126.737
122.383 125.447 126.046
127.673 124.598 123.447
128.04 136.768 132.619
125.888 139.343 131.583
128.465 140.47 131.457
124.414 142.126 130.771
129.019 144.023 129.874
118.914 135.753 129.01
118.476 132.03 128.611
117.039 135.232 127.322
118.469 129.008 126.865
119.781 139.766 129.183
116.475 138.983 125.857
115.77 135.495 125.188
135.349 149.814 94.0961
139.694 148.327 93.1659
137.791 149.619 97.4087
140.09 145.812 96.2336
138.486 144.998 94.459
134.096 146.811 96.0449
133.628 148.164 98.453
136.977 152.216 100.472
139.529 150.799 99.1831
135.805 143.031 95.5163
133.333 144.146 95.6066
132.838 141.107 96.6099
130.299 144.855 98.5355
135.807 141.585 98.9655
131.68 138.66 99.5945
129.83 139.976 97.2309
133.122 151.161 100.834
134.743 153.787 100.998
133.06 155.501 101.884
136.633 155.777 102.667
131.134 148.35 101.835
130.941 157.878 102.103
133.327 160.351 102.429
140.571 149.198 100.2
139.723 146.675 99.7298
140.039 147.483 102.482
137.932 143.908 101.663
140.549 152.337 101.527
140.766 148.836 105.239
140.283 145.366 105.329
121.189 148.101 96.3698
125.028 149.33 96.6821
124.283 149.535 100.702
127.645 147.143 100.969
126.992 147.044 97.1442
122.294 145.29 96.0615
121.731 145.505 99.398
122.992 150.954 102.576
125.217 152.284 103.183
126.926 145.07 95.5637
124.22 143.655 95.7338
127.039 141.666 96.6752
124.549 141.914 100.201
128.157 138.827 99.7828
122.009 146.595 102.551
121.102 149.677 102.905
120.235 148.168 104.248
122.027 152.598 104.171
122.482 143.978 103.238
119.573 146.161 106.317
119.217 149.976 106.035
127.152 153.985 102.99
128.821 150.654 102.34
128.908 155.913 102.708
125.706 157.128 103.912
128.929 160.872 101.992
138.801 122.665 116.765
140.04 125.702 119.495
140.8 124.012 117.485
141.877 126.567 123.662
139.074 125.283 122.67
136.514 122.027 116.058
138.007 118.715 114.356
142.197 122.437 115.644
142.647 126.157 117.935
136.469 125.064 121.745
135.135 125.061 117.696
133.745 124.625 120.743
140.496 116.73 113.936
143.265 119.933 113.727
142.288 116.946 111.579
143.932 129.467 120.556
144.167 128.678 123.727
145.394 131.715 123.038
139.873 145.585 127.156
138.724 148.971 125.376
140.551 147.674 124.694
136.801 151.658 122.782
136.879 150.29 125.633
139.039 143.355 129.324
141.025 141.866 128.254
142.032 146.209 123.497
140.511 149.448 122.399
135.952 148.257 127.563
136.841 144.841 129.548
134.657 146.271 129.366
142.654 141.095 126.842
143.248 143.348 124.426
144.375 140.586 125.084
138.293 151.875 120.22
136.648 153.05 119.688
136.672 155.984 117.872
136.315 131.875 104.566
137.897 133.215 105.465
137.295 135.874 103.604
138.916 134.601 106.769
139.014 130.489 107.079
135.612 127.986 104.962
134.677 130.795 104.273
135.835 139.719 102.279
137.918 140.442 102.479
138.224 126.76 106.827
136.986 125.08 104.857
138.39 123.177 106.286
133.942 133.619 102.337
134.434 137.788 101.764
132.794 136.335 101.981
139.347 140.922 103.836
139.534 138.279 106.316
140.061 141.923 105.79
139.453 159.471 107.376
139.393 163.458 106.35
140.104 159.256 105.024
138.477 166.495 104.759
138.568 166.47 107.683
139.338 158.478 109.696
140.354 155.972 108.527
140.195 155.169 103.568
138.903 157.819 103.2
138.401 165.169 110.417
138.871 161.158 111.086
138.248 163.261 112.508
141.489 153.714 107.614
142.566 153.477 104.009
141.206 151.279 106.358
137.353 160.804 102.57
137.106 165.219 103.179
135.187 162.681 102.51
120.647 123.039 117.801
118.327 124.391 119.066
119.988 125.981 120.505
116.782 127.013 119.382
116.64 122.962 117.208
120.56 118.995 115.12
122.737 121.755 116.854
120.995 125.796 123.18
118.206 127.037 124.48
115.992 120.811 115.474
118.107 117.281 115.37
116.674 118.443 112.697
124.631 124.602 118.207
123.491 125.232 122.373
126.123 125.382 121.168
116.485 129.712 124.314
116.514 130.167 121.477
115.875 132.93 123.503
122.594 148.906 124.628
124.679 149.953 124.751
123.007 146.738 126.841
126.505 150.729 125.278
126.705 152.546 121.812
123.468 150.614 121.914
120.885 147.871 123.901
121.448 143.428 128.222
123.62 144.408 128.963
126.83 155.905 119.382
125.439 154.226 119.881
126.05 158.175 118.115
118.728 145.227 125.15
119.345 142.609 127.301
117.083 142.256 125.905
125.768 145.573 129.038
127.01 148.939 127.344
127.917 146.522 128.777
122.235 134.251 106.28
123.494 132.841 104.902
122.445 136.632 104.093
125.058 131.534 104.491
124.173 129.183 105.755
120.865 131.813 108.01
121.178 135.758 107.569
122.314 140.872 103.556
123.802 139.734 102.828
123.026 126.459 106.122
121.595 128.261 107.743
121.73 124.633 107.455
120.458 139.316 107.201
120.566 141.684 104.755
119.681 142.828 106.645
125.529 138.172 102.537
126.085 134.19 102.679
127.179 136.933 102.08
122.532 165.705 106.622
122.334 161.933 108.273
122.59 161.499 105.762
121.693 158.511 109.476
122.434 161.747 110.52
123.522 168.861 108.278
124.327 168.4 105.27
123.886 160.202 104.029
122.792 156.695 105.262
122.74 163.788 111.962
123.371 168.128 111.065
123.714 166.015 113.234
126.009 166.802 103.472
125.46 162.361 103.034
127.628 163.708 102.718
120.95 154.983 106.2
120.512 155.429 108.819
119.448 152.512 107.535
POLYGONS 1280  5120
3 164 162 163
3 163 44 164
3 162 43 163
3 164 42 162
3 166 165 163
3 163 43 166
3 165 44 163
3 166 14 165
3 168 167 162
3 162 42 168
3 167 43 162
3 168 13 167
3 170 169 164
3 164 44 170
3 169 42 164
3 170 12 169
3 173 171 172
3 172 46 173
3 171 43 172
3 173 45 171
3 167 174 172
3 172 43 167
3 174 46 172
3 167 13 174
3 175 166 171
3 171 45 175
3 166 43 171
3 175 14 166
3 177 176 173
3 173 46 177
3 176 45 173
3 177 4 176
3 180 178 179
3 179 48 180
3 178 42 179
3 180 47 178
3 169 181 179
3 179 42 169
3 181 48 179
3 169 12 181
3 182 168 178
3 178 47 182
3 168 42 178
3 182 13 168
3 184 183 180
3 180 48 184
3 183 47 180
3 184 8 183
3 187 185 186
3 186 50 187
3 185 44 186
3 187 49 185
3 165 188 186
3 186 44 165
3 188 50 186
3 165 14 188
3 189 170 185
3 185 49 189
3 170 44 185
3 189 12 170
3 191 190 187
3 187 50 191
3 190 49 187
3 191 7 190
3 194 192 193
3 193 53 194
3 192 52 193
3 194 51 192
3 196 195 193
3 193 52 196
3 195 53 193
3 196 16 195
3 198 197 192
3 192 51 198
3 197 52 192
3 198 14 197
3 200 199 194
3 194 53 200
3 199 51 194
3 200 15 199
3 203 201 202
3 202 45 203
3 201 52 202
3 203 54 201
3 197 175 202
3 202 52 197
3 175 45 202
3 197 14 175
3 204 196 201
3 201 54 204
3 196 52 201
3 204 16 196
3 176 205 203
3 203 45 176
3 205 54 203
3 176 4 205
3 208 206 207
3 207 55 208
3 206 51 207
3 208 50 206
3 199 209 207
3 207 51 199
3 209 55 207
3 199 15 209
3 188 198 206
3 206 50 188
3 198 51 206
3 188 14 198
3 210 191 208
3 208 55 210
3 191 50 208
3 210 7 191
3 213 211 212
3 212 57 213
3 211 53 212
3 213 56 211
3 195 214 212
3 212 53 195
3 214 57 212
3 195 16 214
3 215 200 211
3 211 56 215
3 200 53 211
3 215 15 200
3 217 216 213
3 213 57 217
3 216 56 213
3 217 9 216
3 220 218 219
3 219 60 220
3 218 59 219
3 220 58 218
3 222 221 219
3 219 59 222
3 221 60 219
3 222 19 221
3 224 223 218
3 218 58 224
3 223 59 218
3 224 18 223
3 226 225 220
3 220 60 226
3 225 58 220
3 226 17 225
3 229 227 228
3 228 62 229
3 227 59 228
3 229 61 227
3 223 230 228
3 228 59 223
3 230 62 228
3 223 18 230
3 231 222 227
3 227 61 231
3 222 59 227
3 231 19 222
3 233 232 229
3 229 62 233
3 232 61 229
3 233 5 232
3 236 234 235
3 235 64 236
3 234 58 235
3 236 63 234
3 225 237 235
3 235 58 225
3 237 64 235
3 225 17 237
3 238 224 234
3 234 63 238
3 224 58 234
3 238 18 224
3 240 239 236
3 236 64 240
3 239 63 236
3 240 6 239
3 243 241 242
3 242 66 243
3 241 60 242
3 243 65 241
3 221 244 242
3 242 60 221
3 244 66 242
3 221 19 244
3 245 226 241
3 241 65 245
3 226 60 241
3 245 17 226
3 247 246 243
3 243 66 247
3 246 65 243
3 247 11 246
3 250 248 249
3 249 69 250
3 248 68 249
3 250 67 248
3 252 251 249
3 249 68 252
3 251 69 249
3 252 18 251
3 254 253 248
3 248 67 254
3 253 68 248
3 254 21 253
3 256 255 250
3 250 69 256
3 255 67 250
3 256 20 255
3 259 257 258
3 258 70 259
3 257 68 258
3 259 62 257
3 253 260 258
3 258 68 253
3 260 70 258
3 253 21 260
3 230 252 257
3 257 62 230
3 252 68 257
3 230 18 252
3 261 233 259
3 259 70 261
3 233 62 259
3 261 5 233
3 264 262 263
3 263 72 264
3 262 67 263
3 264 71 262
3 255 265 263
3 263 67 255
3 265 72 263
3 255 20 265
3 266 254 262
3 262 71 266
3 254 67 262
3 266 21 254
3 268 267 264
3 264 72 268
3 267 71 264
3 268 10 267
3 271 269 270
3 270 63 271
3 269 69 270
3 271 73 269
3 251 238 270
3 270 69 251
3 238 63 270
3 251 18 238
3 272 256 269
3 269 73 272
3 256 69 269
3 272 20 256
3 239 273 271
3 271 63 239
3 273 73 271
3 239 6 273
3 276 274 275
3 275 76 276
3 274 75 275
3 276 74 274
3 278 277 275
3 275 75 278
3 277 76 275
3 278 24 277
3 280 279 274
3 274 74 280
3 279 75 274
3 280 23 279
3 282 281 276
3 276 76 282
3 281 74 276
3 282 22 281
3 285 283 284
3 284 78 285
3 283 75 284
3 285 77 283
3 279 286 284
3 284 75 279
3 286 78 284
3 279 23 286
3 287 278 283
3 283 77 287
3 278 75 283
3 287 24 278
3 289 288 285
3 285 78 289
3 288 77 285
3 289 0 288
3 292 290 291
3 291 80 292
3 290 74 291
3 292 79 290
3 281 293 291
3 291 74 281
3 293 80 291
3 281 22 293
3 294 280 290
3 290 79 294
3 280 74 290
3 294 23 280
3 296 295 292
3 292 80 296
3 295 79 292
3 296 4 295
3 299 297 298
3 298 82 299
3 297 76 298
3 299 81 297
3 277 300 298
3 298 76 277
3 300 82 298
3 277 24 300
3 301 282 297
3 297 81 301
3 282 76 297
3 301 22 282
3 303 302 299
3 299 82 303
3 302 81 299
3 303 3 302
3 306 304 305
3 305 85 306
3 304 84 305
3 306 83 304
3 308 307 305
3 305 84 308
3 307 85 305
3 308 26 307
3 310 309 304
3 304 83 310
3 309 84 304
3 310 24 309
3 312 311 306
3 306 85 312
3 311 83 306
3 312 25 311
3 315 313 314
3 314 77 315
3 313 84 314
3 315 86 313
3 309 287 314
3 314 84 309
3 287 77 314
3 309 24 287
3 316 308 313
3 313 86 316
3 308 84 313
3 316 26 308
3 288 317 315
3 315 77 288
3 317 86 315
3 288 0 317
3 320 318 319
3 319 87 320
3 318 83 319
3 320 82 318
3 311 321 319
3 319 83 311
3 321 87 319
3 311 25 321
3 300 310 318
3 318 82 300
3 310 83 318
3 300 24 310
3 322 303 320
3 320 87 322
3 303 82 320
3 322 3 303
3 325 323 324
3 324 89 325
3 323 85 324
3 325 88 323
3 307 326 324
3 324 85 307
3 326 89 324
3 307 26 326
3 327 312 323
3 323 88 327
3 312 85 323
3 327 25 312
3 329 328 325
3 325 89 329
3 328 88 325
3 329 5 328
3 332 330 331
3 331 92 332
3 330 91 331
3 332 90 330
3 334 333 331
3 331 91 334
3 333 92 331
3 334 29 333
3 336 335 330
3 330 90 336
3 335 91 330
3 336 28 335
3 338 337 332
3 332 92 338
3 337 90 332
3 338 27 337
3 341 339 340
3 340 94 341
3 339 91 340
3 341 93 339
3 335 342 340
3 340 91 335
3 342 94 340
3 335 28 342
3 343 334 339
3 339 93 343
3 334 91 339
3 343 29 334
3 345 344 341
3 341 94 345
3 344 93 341
3 345 2 344
3 348 346 347
3 347 96 348
3 346 90 347
3 348 95 346
3 337 349 347
3 347 90 337
3 349 96 347
3 337 27 349
3 350 336 346
3 346 95 350
3 336 90 346
3 350 28 336
3 352 351 348
3 348 96 352
3 351 95 348
3 352 7 351
3 355 353 354
3 354 98 355
3 353 92 354
3 355 97 353
3 333 356 354
3 354 92 333
3 356 98 354
3 333 29 356
3 357 338 353
3 353 97 357
3 338 92 353
3 357 27 338
3 359 358 355
3 355 98 359
3 358 97 355
3 359 1 358
3 362 360 361
3 361 101 362
3 360 100 361
3 362 99 360
3 364 363 361
3 361 100 364
3 363 101 361
3 364 31 363
3 366 365 360
3 360 99 366
3 365 100 360
3 366 29 365
3 368 367 362
3 362 101 368
3 367 99 362
3 368 30 367
3 371 369 370
3 370 93 371
3 369 100 370
3 371 102 369
3 365 343 370
3 370 100 365
3 343 93 370
3 365 29 343
3 372 364 369
3 369 102 372
3 364 100 369
3 372 31 364
3 344 373 371
3 371 93 344
3 373 102 371
3 344 2 373
3 376 374 375
3 375 103 376
3 374 99 375
3 376 98 374
3 367 377 375
3 375 99 367
3 377 103 375
3 367 30 377
3 356 366 374
3 374 98 356
3 366 99 374
3 356 29 366
3 378 359 376
3 376 103 378
3 359 98 376
3 378 1 359
3 381 379 380
3 380 105 381
3 379 101 380
3 381 104 379
3 363 382 380
3 380 101 363
3 382 105 380
3 363 31 382
3 383 368 379
3 379 104 383
3 368 101 379
3 383 30 368
3 385 384 381
3 381 105 385
3 384 104 381
3 385 6 384
3 388 386 387
3 387 108 388
3 386 107 387
3 388 106 386
3 390 389 387
3 387 107 390
3 389 108 387
3 390 34 389
3 392 391 386
3 386 106 392
3 391 107 386
3 392 33 391
3 394 393 388
3 388 108 394
3 393 106 388
3 394 32 393
3 397 395 396
3 396 110 397
3 395 107 396
3 397 109 395
3 391 398 396
3 396 107 391
3 398 110 396
3 391 33 398
3 399 390 395
3 395 109 399
3 390 107 395
3 399 34 390
3 401 400 397
3 397 110 401
3 400 109 397
3 401 8 400
3 404 402 403
3 403 112 404
3 402 106 403
3 404 111 402
3 393 405 403
3 403 106 393
3 405 112 403
3 393 32 405
3 406 392 402
3 402 111 406
3 392 106 402
3 406 33 392
3 408 407 404
3 404 112 408
3 407 111 404
3 408 0 407
3 411 409 410
3 410 114 411
3 409 108 410
3 411 113 409
3 389 412 410
3 410 108 389
3 412 114 410
3 389 34 412
3 413 394 409
3 409 113 413
3 394 108 409
3 413 32 394
3 415 414 411
3 411 114 415
3 414 113 411
3 415 11 414
3 418 416 417
3 417 117 418
3 416 116 417
3 418 115 416
3 420 419 417
3 417 116 420
3 419 117 417
3 420 36 419
3 422 421 416
3 416 115 422
3 421 116 416
3 422 34 421
3 424 423 418
3 418 117 424
3 423 115 418
3 424 35 423
3 427 425 426
3 426 109 427
3 425 116 426
3 427 118 425
3 421 399 426
3 426 116 421
3 399 109 426
3 421 34 399
3 428 420 425
3 425 118 428
3 420 116 425
3 428 36 420
3 400 429 427
3 427 109 400
3 429 118 427
3 400 8 429
3 432 430 431
3 431 119 432
3 430 115 431
3 432 114 430
3 423 433 431
3 431 115 423
3 433 119 431
3 423 35 433
3 412 422 430
3 430 114 412
3 422 115 430
3 412 34 422
3 434 415 432
3 432 119 434
3 415 114 432
3 434 11 415
3 437 435 436
3 436 121 437
3 435 117 436
3 437 120 435
3 419 438 436
3 436 117 419
3 438 121 436
3 419 36 438
3 439 424 435
3 435 120 439
3 424 117 435
3 439 35 424
3 441 440 437
3 437 121 441
3 440 120 437
3 441 1 440
3 444 442 443
3 443 124 444
3 442 123 443
3 444 122 442
3 446 445 443
3 443 123 446
3 445 124 443
3 446 39 445
3 448 447 442
3 442 122 448
3 447 123 442
3 448 38 447
3 450 449 444
3 444 124 450
3 449 122 444
3 450 37 449
3 453 451 452
3 452 126 453
3 451 123 452
3 453 125 451
3 447 454 452
3 452 123 447
3 454 126 452
3 447 38 454
3 455 446 451
3 451 125 455
3 446 123 451
3 455 39 446
3 457 456 453
3 453 126 457
3 456 125 453
3 457 9 456
3 460 458 459
3 459 128 460
3 458 122 459
3 460 127 458
3 449 461 459
3 459 122 449
3 461 128 459
3 449 37 461
3 462 448 458
3 458 127 462
3 448 122 458
3 462 38 448
3 464 463 460
3 460 128 464
3 463 127 460
3 464 10 463
3 467 465 466
3 466 130 467
3 465 124 466
3 467 129 465
3 445 468 466
3 466 124 445
3 468 130 466
3 445 39 468
3 469 450 465
3 465 129 469
3 450 124 465
3 469 37 450
3 471 470 467
3 467 130 471
3 470 129 467
3 471 3 470
3 474 472 473
3 473 133 474
3 472 132 473
3 474 131 472
3 476 475 473
3 473 132 476
3 475 133 473
3 476 38 475
3 478 477 472
3 472 131 478
3 477 132 472
3 478 41 477
3 480 479 474
3 474 133 480
3 479 131 474
3 480 40 479
3 483 481 482
3 482 134 483
3 481 132 482
3 483 126 481
3 477 484 482
3 482 132 477
3 484 134 482
3 477 41 484
3 454 476 481
3 481 126 454
3 476 132 481
3 454 38 476
3 485 457 483
3 483 134 485
3 457 126 483
3 485 9 457
3 488 486 487
3 487 136 488
3 486 131 487
3 488 135 486
3 479 489 487
3 487 131 479
3 489 136 487
3 479 40 489
3 490 478 486
3 486 135 490
3 478 131 486
3 490 41 478
3 492 491 488
3 488 136 492
3 491 135 488
3 492 2 491
3 495 493 494
3 494 127 495
3 493 133 494
3 495 137 493
3 475 462 494
3 494 133 475
3 462 127 494
3 475 38 462
3 496 480 493
3 493 137 496
3 480 133 493
3 496 40 480
3 463 497 495
3 495 127 463
3 497 137 495
3 463 10 497
3 500 498 499
3 499 140 500
3 498 139 499
3 500 138 498
3 502 501 499
3 499 139 502
3 501 140 499
3 502 33 501
3 504 503 498
3 498 138 504
3 503 139 498
3 504 13 503
3 506 505 500
3 500 140 506
3 505 138 500
3 506 23 505
3 509 507 508
3 508 47 509
3 507 139 508
3 509 110 507
3 503 182 508
3 508 139 503
3 182 47 508
3 503 13 182
3 398 502 507
3 507 110 398
3 502 139 507
3 398 33 502
3 183 401 509
3 509 47 183
3 401 110 509
3 183 8 401
3 512 510 511
3 511 79 512
3 510 138 511
3 512 46 510
3 505 294 511
3 511 138 505
3 294 79 511
3 505 23 294
3 174 504 510
3 510 46 174
3 504 138 510
3 174 13 504
3 295 177 512
3 512 79 295
3 177 46 512
3 295 4 177
3 515 513 514
3 514 111 515
3 513 140 514
3 515 78 513
3 501 406 514
3 514 140 501
3 406 111 514
3 501 33 406
3 286 506 513
3 513 78 286
3 506 140 513
3 286 23 506
3 407 289 515
3 515 111 407
3 289 78 515
3 407 0 289
3 518 516 517
3 517 143 518
3 516 142 517
3 518 141 516
3 520 519 517
3 517 142 520
3 519 143 517
3 520 19 519
3 522 521 516
3 516 141 522
3 521 142 516
3 522 32 521
3 524 523 518
3 518 143 524
3 523 141 518
3 524 26 523
3 527 525 526
3 526 113 527
3 525 142 526
3 527 66 525
3 521 413 526
3 526 142 521
3 413 113 526
3 521 32 413
3 244 520 525
3 525 66 244
3 520 142 525
3 244 19 520
3 414 247 527
3 527 113 414
3 247 66 527
3 414 11 247
3 530 528 529
3 529 86 530
3 528 141 529
3 530 112 528
3 523 316 529
3 529 141 523
3 316 86 529
3 523 26 316
3 405 522 528
3 528 112 405
3 522 141 528
3 405 32 522
3 317 408 530
3 530 86 317
3 408 112 530
3 317 0 408
3 533 531 532
3 532 61 533
3 531 143 532
3 533 89 531
3 519 231 532
3 532 143 519
3 231 61 532
3 519 19 231
3 326 524 531
3 531 89 326
3 524 143 531
3 326 26 524
3 232 329 533
3 533 61 232
3 329 89 533
3 232 5 329
3 536 534 535
3 535 146 536
3 534 145 535
3 536 144 534
3 538 537 535
3 535 145 538
3 537 146 535
3 538 22 537
3 540 539 534
3 534 144 540
3 539 145 534
3 540 16 539
3 542 541 536
3 536 146 542
3 541 144 536
3 542 39 541
3 545 543 544
3 544 54 545
3 543 145 544
3 545 80 543
3 539 204 544
3 544 145 539
3 204 54 544
3 539 16 204
3 293 538 543
3 543 80 293
3 538 145 543
3 293 22 538
3 205 296 545
3 545 54 205
3 296 80 545
3 205 4 296
3 548 546 547
3 547 125 548
3 546 144 547
3 548 57 546
3 541 455 547
3 547 144 541
3 455 125 547
3 541 39 455
3 214 540 546
3 546 57 214
3 540 144 546
3 214 16 540
3 456 217 548
3 548 125 456
3 217 57 548
3 456 9 217
3 551 549 550
3 550 81 551
3 549 146 550
3 551 130 549
3 537 301 550
3 550 146 537
3 301 81 550
3 537 22 301
3 468 542 549
3 549 130 468
3 542 146 549
3 468 39 542
3 302 471 551
3 551 81 302
3 471 130 551
3 302 3 471
3 554 552 553
3 553 149 554
3 552 148 553
3 554 147 552
3 556 555 553
3 553 148 556
3 555 149 553
3 556 21 555
3 558 557 552
3 552 147 558
3 557 148 552
3 558 25 557
3 560 559 554
3 554 149 560
3 559 147 554
3 560 37 559
3 563 561 562
3 562 88 563
3 561 148 562
3 563 70 561
3 557 327 562
3 562 148 557
3 327 88 562
3 557 25 327
3 260 556 561
3 561 70 260
3 556 148 561
3 260 21 556
3 328 261 563
3 563 88 328
3 261 70 563
3 328 5 261
3 566 564 565
3 565 129 566
3 564 147 565
3 566 87 564
3 559 469 565
3 565 147 559
3 469 129 565
3 559 37 469
3 321 558 564
3 564 87 321
3 558 147 564
3 321 25 558
3 470 322 566
3 566 129 470
3 322 87 566
3 470 3 322
3 569 567 568
3 568 71 569
3 567 149 568
3 569 128 567
3 555 266 568
3 568 149 555
3 266 71 568
3 555 21 266
3 461 560 567
3 567 128 461
3 560 149 567
3 461 37 560
3 267 464 569
3 569 71 267
3 464 128 569
3 267 10 464
3 572 570 571
3 571 152 572
3 570 151 571
3 572 150 570
3 574 573 571
3 571 151 574
3 573 152 571
3 574 27 573
3 576 575 570
3 570 150 576
3 575 151 570
3 576 12 575
3 578 577 572
3 572 152 578
3 577 150 572
3 578 36 577
3 581 579 580
3 580 49 581
3 579 151 580
3 581 96 579
3 575 189 580
3 580 151 575
3 189 49 580
3 575 12 189
3 349 574 579
3 579 96 349
3 574 151 579
3 349 27 574
3 190 352 581
3 581 49 190
3 352 96 581
3 190 7 352
3 584 582 583
3 583 118 584
3 582 150 583
3 584 48 582
3 577 428 583
3 583 150 577
3 428 118 583
3 577 36 428
3 181 576 582
3 582 48 181
3 576 150 582
3 181 12 576
3 429 184 584
3 584 118 429
3 184 48 584
3 429 8 184
3 587 585 586
3 586 97 587
3 585 152 586
3 587 121 585
3 573 357 586
3 586 152 573
3 357 97 586
3 573 27 357
3 438 578 585
3 585 121 438
3 578 152 585
3 438 36 578
3 358 441 587
3 587 97 358
3 441 121 587
3 358 1 441
3 590 588 589
3 589 155 590
3 588 154 589
3 590 153 588
3 592 591 589
3 589 154 592
3 591 155 589
3 592 17 591
3 594 593 588
3 588 153 594
3 593 154 588
3 594 30 593
3 596 595 590
3 590 155 596
3 595 153 590
3 596 35 595
3 599 597 598
3 598 104 599
3 597 154 598
3 599 64 597
3 593 383 598
3 598 154 593
3 383 104 598
3 593 30 383
3 237 592 597
3 597 64 237
3 592 154 597
3 237 17 592
3 384 240 599
3 599 104 384
3 240 64 599
3 384 6 240
3 602 600 601
3 601 120 602
3 600 153 601
3 602 103 600
3 595 439 601
3 601 153 595
3 439 120 601
3 595 35 439
3 377 594 600
3 600 103 377
3 594 153 600
3 377 30 594
3 440 378 602
3 602 120 440
3 378 103 602
3 440 1 378
3 605 603 604
3 604 65 605
3 603 155 604
3 605 119 603
3 591 245 604
3 604 155 591
3 245 65 604
3 591 17 245
3 433 596 603
3 603 119 433
3 596 155 603
3 433 35 596
3 246 434 605
3 605 65 246
3 434 119 605
3 246 11 434
3 608 606 607
3 607 158 608
3 606 157 607
3 608 156 606
3 610 609 607
3 607 157 610
3 609 158 607
3 610 15 609
3 612 611 606
3 606 156 612
3 611 157 606
3 612 28 611
3 614 613 608
3 608 158 614
3 613 156 608
3 614 41 613
3 617 615 616
3 616 95 617
3 615 157 616
3 617 55 615
3 611 350 616
3 616 157 611
3 350 95 616
3 611 28 350
3 209 610 615
3 615 55 209
3 610 157 615
3 209 15 610
3 351 210 617
3 617 95 351
3 210 55 617
3 351 7 210
3 620 618 619
3 619 135 620
3 618 156 619
3 620 94 618
3 613 490 619
3 619 156 613
3 490 135 619
3 613 41 490
3 342 612 618
3 618 94 342
3 612 156 618
3 342 28 612
3 491 345 620
3 620 135 491
3 345 94 620
3 491 2 345
3 623 621 622
3 622 56 623
3 621 158 622
3 623 134 621
3 609 215 622
3 622 158 609
3 215 56 622
3 609 15 215
3 484 614 621
3 621 134 484
3 614 158 621
3 484 41 614
3 216 485 623
3 623 56 216
3 485 134 623
3 216 9 485
3 626 624 625
3 625 161 626
3 624 160 625
3 626 159 624
3 628 627 625
3 625 160 628
3 627 161 625
3 628 31 627
3 630 629 624
3 624 159 630
3 629 160 624
3 630 20 629
3 632 631 626
3 626 161 632
3 631 159 626
3 632 40 631
3 635 633 634
3 634 73 635
3 633 160 634
3 635 105 633
3 629 272 634
3 634 160 629
3 272 73 634
3 629 20 272
3 382 628 633
3 633 105 382
3 628 160 633
3 382 31 628
3 273 385 635
3 635 73 273
3 385 105 635
3 273 6 385
3 638 636 637
3 637 137 638
3 636 159 637
3 638 72 636
3 631 496 637
3 637 159 631
3 496 137 637
3 631 40 496
3 265 630 636
3 636 72 265
3 630 159 636
3 265 20 630
3 497 268 638
3 638 137 497
3 268 72 638
3 497 10 268
3 641 639 640
3 640 102 641
3 639 161 640
3 641 136 639
3 627 372 640
3 640 161 627
3 372 102 640
3 627 31 372
3 489 632 639
3 639 136 489
3 632 161 639
3 489 40 632
3 373 492 641
3 641 102 373
3 492 136 641
3 373 2 492
