# vtk DataFile Version 3.0
this file was written using fslvtkio
ASCII
DATASET POLYDATA
POINTS 642 float
111.506 100.676 141.443
104.904 103.515 149.465
99.8471 106.856 133.378
105.913 103.089 126.216
107.045 92.8259 131.069
109.318 108.123 138.856
106.506 110.34 141.703
101.426 96.3643 137.482
108.734 94.7918 148.893
101.293 101.268 121.346
102.175 114.781 123.652
116.597 107.848 152.875
104.226 93.3642 143.97
107.962 91.9185 140.097
103.16 91.9014 133.507
100.749 97.8116 129.005
103.702 94.2944 123.626
112.515 111.174 149.091
108.898 110.16 140.532
117.649 110.547 145.214
103.161 113.453 131.435
105.132 111.254 129.702
107.146 97.7237 126.409
110.236 95.9543 136.242
108.142 101.145 134.109
105.697 106.045 132.225
111.718 105.167 141.546
102.504 99.2463 144.531
99.8811 101.534 135.169
101.982 105.108 141.918
106.637 108.141 147.628
102.285 109.759 136.939
116.215 104.075 147.623
111.561 97.7446 145.694
112.756 101.111 154.009
110.374 106.011 154.584
106.475 98.3399 152.225
104.404 108.355 122.691
100.731 108.903 118.915
104.405 101.883 118.346
100.56 111.372 126.915
100.122 104.642 126.549
105.827 91.3336 142.257
105.402 90.5614 136.856
103.609 92.2183 138.717
105.132 91.1898 131.811
107.661 91.8789 135.559
108.381 93.0413 144.804
106.296 93.0041 147.25
102.866 94.8571 140.701
102.065 94.1005 135.682
101.656 94.5266 131.045
103.122 92.6992 128.407
101.953 95.7854 126.316
105.537 92.8312 126.985
100.722 96.8369 133.315
101.082 99.4272 125.108
102.15 97.7404 122.268
111.594 111.364 145.33
113.402 110.501 144.069
115.562 112.141 147.507
113.2 108.856 142.663
109.239 109.361 139.636
107.88 110.633 141.213
109.265 110.666 145.837
114.945 110.181 151.592
118.454 109.903 148.995
104.52 113.722 130.133
105.803 110.391 134.601
105.493 110.945 135.74
106.253 109.085 134.91
104.263 113.746 126.215
102.228 116.501 127.638
104.862 111.104 137.255
108.826 96.6595 131.268
109.619 98.597 134.48
108.214 99.3536 130.169
109.825 100.749 137.869
110.855 98.3112 138.71
108.839 94.0848 133.592
107.283 94.9333 128.458
106.878 100.627 126.144
106.797 101.949 130.229
106.863 103.598 133.693
108.919 103.005 137.876
108.201 105.228 137.302
111.548 103.013 141.918
105.483 104.572 129.188
107.065 107.202 135.776
110.845 106.867 140.403
101.044 100.389 139.878
100.561 103.256 138.758
101.95 102.227 143.196
100.659 106.106 137.72
99.8894 104.276 134.281
100.503 98.8169 136.352
102.05 97.6979 141.069
103.395 101.235 147.491
103.361 104.315 146.033
104.101 106.666 144.714
102.027 107.659 140.089
104.307 108.677 142.61
100.866 108.587 134.9
105.917 105.957 149.049
106.703 109.487 144.706
104.259 110.149 139.438
113.965 100.895 147.442
112.469 99.458 150.098
115.074 102.788 151.236
110.355 97.7664 151.838
110.276 96.2178 147.53
112.138 99.1944 143.303
113.84 102.104 144.589
117.28 106.145 150.155
115.189 104.615 154.687
111.898 103.371 156.547
109.576 98.9886 154.915
108.312 102.06 154.621
107.498 95.5169 151.555
113.663 107.629 155.072
107.393 104.378 152.372
105.804 101.136 151.109
103.283 109.517 118.642
102.778 105.29 115.837
104.644 105.508 119.782
102.143 100.611 118.158
101.159 104.725 119.468
101.138 113.044 120.178
103.562 111.626 122.827
105.012 105.476 124.444
105.591 102.651 122.344
100.105 108.14 126.296
100.415 106.818 122.432
100.362 110.829 122.701
100.559 103.073 123.64
99.7502 105.831 130.046
99.9785 108.954 130.324
100.343 114.457 125.197
109.43 93.7446 138.248
109.813 94.5818 142.945
110.974 96.4294 141.093
115.036 104.73 144.387
118.096 107.246 146.098
115.294 107.454 143.558
104.107 97.8441 120.054
105.961 95.7615 124.002
105.635 99.5458 122.385
104.744 107.188 127.309
105.365 108.487 131.252
104.651 110.209 126.224
105.127 95.5565 148.538
103.409 96.3237 144.862
104.233 98.5379 148.604
108.63 107.355 151.44
109.285 109.805 148.904
111.612 109.198 152.403
99.6841 102.876 130.864
100.05 99.6963 131.915
100.215 101.275 127.687
101.23 113.609 129.307
102.768 111.347 134.214
100.706 111 131.786
105.535 90.7709 139.515
104.286 91.0842 137.887
104.562 91.5513 140.548
103.325 91.8565 136.184
104.143 90.9484 135.33
106.668 91.0653 138.498
106.881 91.3566 140.958
104.838 92.1567 143.05
103.893 92.6771 141.352
105.308 90.5682 134.44
106.634 91.0278 136.148
106.316 91.4895 133.73
107.705 91.8311 137.857
104.064 91.1536 132.73
106.141 91.977 131.368
107.208 92.3811 133.292
107.164 91.8982 143.534
105.979 92.0317 144.727
107.295 92.6027 145.909
105.208 93.0618 145.649
108.116 92.3829 142.477
108.495 93.7551 146.93
107.633 93.5134 148.197
103.19 93.5066 139.833
102.795 93.0235 137.201
102.345 94.2447 138.224
102.475 92.8576 134.674
103.467 93.9617 142.311
102.128 95.556 138.978
101.735 95.2261 136.642
102.319 93.5241 129.766
102.522 94.2045 127.28
101.777 95.0858 128.677
102.756 94.9135 124.95
103.352 93.2684 125.973
103.127 92.2711 130.956
102.365 93.1486 132.203
101.197 96.1242 129.802
101.272 96.6854 127.729
104.206 92.3021 127.496
104.026 91.5981 130.082
105.28 91.9368 129.321
104.647 93.2451 125.082
106.286 92.7949 129.076
101.815 94.1569 133.395
101.275 95.691 132.101
101.299 95.3878 134.433
100.777 97.1606 131.103
101.06 96.5579 135.48
101.427 97.5906 125.749
102.166 96.689 124.304
101.591 98.5325 123.689
102.855 95.9391 122.772
100.891 98.5035 127.058
101.172 100.323 123.154
101.661 99.5859 121.71
112.211 110.749 144.453
114.649 111.434 145.475
113.399 112.058 146.201
116.866 111.743 146.46
115.794 110.847 144.805
111.042 110.21 142.661
110.51 110.623 143.135
112.155 111.596 147.242
114.046 111.857 148.341
113.734 109.809 143.439
111.427 109.82 142.062
111.475 109.138 141.612
109.161 109.819 140.099
115.542 109.524 143.987
110.983 108.436 140.735
109.234 108.779 139.312
109.749 110.754 143.491
110.49 111.15 145.722
108.862 110.611 143.71
110.83 111.06 147.729
108.474 110.48 140.913
107.225 110.562 141.473
107.773 110.403 143.657
115.583 111.504 149.591
117.33 111.471 148.455
116.869 110.516 150.424
118.58 110.552 147.02
113.844 111.012 150.453
116.04 109.217 152.34
117.52 108.955 150.96
104.994 111.82 132.119
105.731 110.623 135.242
104.616 112.294 132.655
107.182 110.562 138.127
107.375 110.155 137.732
105.139 111.005 131.779
105.035 112.603 129.834
103.733 114.172 130.681
104.141 112.311 132.985
107.457 109.703 137.489
105.805 109.914 134.397
107.56 109.152 137.138
105.267 109.999 132.054
107.8 108.517 137.062
104.525 114.134 128.145
103.717 115.458 128.737
103.406 115.346 126.69
102.516 115.639 129.664
104.911 112.564 127.846
103.268 114.42 124.867
102.037 115.895 125.504
105.153 111.028 136.235
106.81 110.763 138.687
106.295 110.961 139.105
104.059 111.697 134.259
105.701 110.67 139.515
109.392 97.5668 132.909
108.864 98.9371 132.367
108.579 97.9696 130.567
108.237 100.217 132.141
108.922 99.8907 134.075
110.092 97.2231 135.151
109.673 96.2262 133.728
107.985 97.1758 128.827
107.787 98.5065 128.286
109.721 99.691 136.041
110.352 98.3683 136.477
110.4 99.4867 138.069
110.722 97.0803 137.412
108.994 100.901 135.921
110.797 100.718 139.61
111.054 99.5176 140.06
108.981 95.3533 132.401
108.087 95.8081 129.844
108.057 94.5092 131.103
107.331 96.2855 127.358
109.625 94.9888 134.837
107.87 93.3679 132.366
107.159 93.8031 129.801
107.447 99.8611 128.152
107.491 100.6 130.202
106.939 101.245 128.239
107.468 101.485 132.141
107.023 99.1547 126.228
106.465 101.946 126.231
106.284 102.521 128.242
107.649 103.095 135.865
108.474 104.095 137.702
107.164 104.35 135.591
109.718 105.076 139.411
109.987 104.092 139.637
108.346 102.052 136.022
107.487 102.343 133.998
106.402 104.845 133.295
106.894 105.478 134.985
110.288 103.093 139.86
109.422 101.943 137.858
110.576 101.922 139.802
111.562 104.144 141.787
111.446 101.744 141.648
106.801 102.809 132.015
106.12 104.141 131.613
106.171 103.305 129.996
105.523 105.356 130.756
105.683 103.798 127.675
107.599 106.211 136.539
109.377 105.998 138.955
108.832 106.854 138.208
111.351 106.017 141.047
106.279 106.629 133.999
108.099 107.637 137.437
110.067 107.555 139.552
100.649 101.785 139.423
101.283 102.734 140.988
101.466 101.256 141.612
101.841 103.69 142.495
101.143 104.136 140.401
100.145 102.32 137.097
100.328 100.965 137.585
101.771 99.8767 142.202
102.103 100.707 143.749
100.535 104.678 138.295
100.007 103.733 136.606
100.128 105.131 136.14
99.8232 102.909 134.815
101.051 105.54 139.895
100.249 106.494 135.587
99.8851 105.66 134.056
100.658 99.5916 138.083
101.505 99.0519 140.556
101.2 98.2511 138.842
102.177 98.4648 142.825
100.083 100.18 135.796
100.928 97.5314 137.003
101.736 96.9129 139.273
102.627 101.685 145.327
102.528 103.224 144.61
103.127 102.77 146.591
102.676 104.635 143.97
102.786 100.204 146.05
104.049 102.48 148.44
104.071 103.891 147.8
102.994 107.126 142.372
103.034 108.255 141.24
104.198 107.725 143.631
103.267 109.146 140.02
102.347 108.755 138.747
101.983 106.42 141.151
102.938 105.961 143.377
105.271 107.391 146.089
105.45 108.281 145.063
101.447 108.203 137.596
101.171 106.949 139.033
100.748 107.447 136.573
101.599 109.284 135.959
100.327 107.728 134.114
103.713 105.566 145.389
105.015 106.325 146.898
104.524 105.205 147.463
106.312 107.088 148.307
105.352 104.715 149.26
105.483 109.025 143.758
104.265 109.584 141.127
105.48 109.7 142.225
103.288 109.896 138.316
106.71 108.919 146.34
106.645 110.006 143.137
105.413 110.233 140.688
113.299 100.2 148.837
113.878 101.063 150.875
114.575 101.792 149.358
114.017 101.903 152.814
112.725 100.312 152.129
112.087 98.6416 147.962
112.721 99.3389 146.856
115.143 102.428 147.804
115.773 103.391 149.465
111.514 98.6876 151.098
111.266 97.9127 148.873
110.453 96.9629 149.797
110.98 97.0043 146.623
111.518 99.4208 153.037
109.47 96.0729 150.477
109.465 95.4634 148.206
113.002 99.926 145.497
114.144 101.396 145.985
112.93 100.589 144.015
115.168 102.901 146.189
112.076 98.4982 144.679
111.809 99.8563 142.172
112.517 101.341 143
116.205 104.41 150.969
115.255 103.593 153.044
116.506 105.308 152.621
114.129 102.8 154.611
116.884 105.071 148.91
117.394 107.116 151.628
116.04 106.326 154.021
110.793 101.022 156.08
108.913 100.527 155.221
109.993 102.611 155.954
107.433 100.135 153.711
107.802 98.524 153.984
111.327 99.9271 154.78
112.55 101.806 155.72
110.998 104.74 155.835
109.424 103.965 154.84
108.455 97.1605 153.449
110.112 98.2048 153.528
108.977 96.3915 151.919
106.933 96.8782 152.174
108.153 94.8432 150.243
113.717 103.882 156.145
112.805 105.583 156.217
114.655 106.1 155.515
111.93 106.838 155.275
115.278 107.951 154.188
107.984 103.195 153.413
106.928 101.435 152.996
106.463 102.756 151.897
106.175 99.7991 151.976
108.889 105.014 153.629
106.187 103.895 150.827
105.277 102.375 150.201
103.308 107.589 116.996
104.089 105.562 117.434
104.14 107.351 118.793
104.537 103.823 118.806
103.924 103.53 116.635
101.592 107.185 117.052
101.872 109.568 117.554
104.088 108.961 120.374
104.611 107.16 120.917
102.3 102.912 116.65
101.59 104.911 117.468
101.555 102.751 118.506
100.948 106.714 118.876
103.442 101.084 117.196
101.671 101.062 119.801
101.154 102.887 120.335
102.294 111.31 119.067
103.533 110.78 120.689
102.746 112.733 121.152
104.023 109.923 122.544
100.709 111.167 119.075
101.637 114.391 121.961
103.046 113.251 123.291
104.948 105.668 121.973
105.097 104.043 120.941
105.44 104.23 123.177
105.022 102.356 120.23
104.853 106.887 123.179
105.507 104.235 125.439
106.012 102.964 124.324
100.229 107.68 124.254
100.471 108.85 122.422
100.215 109.494 124.396
100.521 110.035 120.702
100.585 107.837 120.587
100.141 105.862 124.399
100.121 106.462 126.159
100.357 109.755 126.514
100.226 111.244 124.854
100.699 105.884 120.815
100.388 104.952 122.9
100.731 103.936 121.538
100.265 104.02 124.963
100.925 102.115 122.42
100.07 106.921 128.12
100.207 108.532 128.315
99.9277 107.373 130.199
100.432 110.035 128.5
99.9773 105.366 128.14
99.4712 106.302 131.927
99.7024 107.875 131.995
100.184 112.723 123.728
100.328 112.019 121.3
100.149 114.076 122.467
100.483 112.9 125.841
100.719 115.56 124.183
109.652 94.0577 140.569
110.558 95.4522 142.025
110.159 95.1226 139.595
111.34 96.9256 143.475
110.675 96.1237 144.336
108.897 93.1954 141.518
108.753 92.8274 139.213
109.975 94.8122 137.325
110.617 96.0334 138.583
110.061 95.3745 145.296
109.087 93.7999 143.812
109.365 94.4951 146.15
108.594 92.7523 136.951
109.307 93.8428 135.935
108.351 92.99 134.63
111.019 97.3018 139.821
111.614 97.7533 142.366
111.406 98.5844 141.057
116.567 105.813 145.111
117.017 107.412 144.636
115.052 106.067 143.809
116.797 108.866 144.182
118.488 109.047 145.545
117.142 105.623 146.808
116.068 104.359 145.857
113.457 105.084 143.094
113.487 106.267 142.751
118.705 108.599 147.376
117.929 106.568 148.054
118.209 107.86 149.485
114.583 103.459 144.672
113.205 103.936 143.294
112.819 102.693 143.288
112.858 107.058 142.252
114.273 108.237 143.223
111.788 107.845 141.604
105.072 96.8063 122.041
105.835 97.7399 123.152
104.974 98.8559 120.939
106.397 98.563 124.4
106.563 96.7376 125.111
104.967 94.8724 123.341
104.003 95.8969 121.624
104.222 99.7691 118.732
104.909 100.651 120.209
106.616 95.3007 126.185
105.786 94.1089 125.192
106.543 93.8476 127.48
102.844 97.2976 120.88
102.976 98.8154 118.555
102.034 99.1845 120.198
105.55 101.124 122.241
106.392 100.033 124.327
106.399 101.578 124.262
104.899 108.004 129.13
104.908 109.304 128.434
104.637 108.607 126.551
104.915 110.808 128.003
105.078 109.72 130.328
105.491 107.286 131.664
104.968 106.684 129.797
104.674 107.742 124.832
104.448 109.348 124.433
105.763 108.941 133.04
106.009 107.803 133.655
106.77 108.208 135.585
105.021 105.852 128.477
104.816 106.383 125.848
105.212 105.052 126.953
104.277 111.054 124.484
104.651 111.875 126.407
103.992 112.746 124.732
104.201 95.8712 146.724
103.666 97.3609 146.813
104.737 97.0988 148.7
103.272 98.8085 146.624
102.963 97.8224 144.885
103.806 94.8315 144.52
104.636 94.4069 146.318
105.703 96.8825 150.464
105.382 98.3503 150.427
102.674 97.0077 143.081
103.059 95.4596 142.889
102.445 96.2906 141.039
105.565 94.1299 148.092
106.192 95.4664 150.359
106.787 94.1492 149.494
105.074 99.7562 150.09
103.776 99.8557 148.17
104.433 101.111 149.449
108.922 108.828 150.354
110.458 109.629 150.83
110.038 108.198 152.119
112.091 110.416 150.77
110.787 110.501 149.214
107.934 108.979 148.35
107.604 107.909 149.698
109.448 106.749 153.168
110.983 107.733 153.707
109.245 110.377 147.331
107.795 109.68 146.822
107.808 110.12 145.114
107.283 106.662 150.4
108.126 105.891 152.188
106.788 105.251 150.804
112.458 108.421 154.059
113.119 109.851 152.135
114.278 109.075 153.494
99.8795 101.3 131.384
100.134 100.441 129.83
99.9723 102.137 129.184
100.466 99.5351 128.363
100.323 98.7507 130.412
99.8207 100.61 133.497
99.7098 102.095 132.96
99.8848 103.765 128.704
100.082 102.989 127.102
100.361 98.2642 132.517
100.039 99.267 134.162
100.435 97.8589 134.776
99.5947 103.466 132.6
99.6403 104.356 130.312
99.4496 104.935 132.227
100.414 102.253 125.683
100.555 100.323 126.41
100.75 101.233 124.409
101.808 112.587 131.721
101.491 111.524 133.022
100.926 112.197 130.281
101.334 110.551 134.417
102.47 110.621 135.524
103.039 112.214 132.835
102.162 113.884 130.591
100.912 112.66 127.871
100.654 111.227 129.173
103.493 110.713 136.977
103.839 111.181 135.556
104.562 110.545 138.302
101.439 115.358 128.889
100.762 114.239 127.341
100.768 115.943 126.63
100.332 110.126 130.934
100.706 109.876 133.541
100.058 108.922 132.663
POLYGONS 1280  5120
3 164 162 163
3 163 44 164
3 162 43 163
3 164 42 162
3 166 165 163
3 163 43 166
3 165 44 163
3 166 14 165
3 168 167 162
3 162 42 168
3 167 43 162
3 168 13 167
3 170 169 164
3 164 44 170
3 169 42 164
3 170 12 169
3 173 171 172
3 172 46 173
3 171 43 172
3 173 45 171
3 167 174 172
3 172 43 167
3 174 46 172
3 167 13 174
3 175 166 171
3 171 45 175
3 166 43 171
3 175 14 166
3 177 176 173
3 173 46 177
3 176 45 173
3 177 4 176
3 180 178 179
3 179 48 180
3 178 42 179
3 180 47 178
3 169 181 179
3 179 42 169
3 181 48 179
3 169 12 181
3 182 168 178
3 178 47 182
3 168 42 178
3 182 13 168
3 184 183 180
3 180 48 184
3 183 47 180
3 184 8 183
3 187 185 186
3 186 50 187
3 185 44 186
3 187 49 185
3 165 188 186
3 186 44 165
3 188 50 186
3 165 14 188
3 189 170 185
3 185 49 189
3 170 44 185
3 189 12 170
3 191 190 187
3 187 50 191
3 190 49 187
3 191 7 190
3 194 192 193
3 193 53 194
3 192 52 193
3 194 51 192
3 196 195 193
3 193 52 196
3 195 53 193
3 196 16 195
3 198 197 192
3 192 51 198
3 197 52 192
3 198 14 197
3 200 199 194
3 194 53 200
3 199 51 194
3 200 15 199
3 203 201 202
3 202 45 203
3 201 52 202
3 203 54 201
3 197 175 202
3 202 52 197
3 175 45 202
3 197 14 175
3 204 196 201
3 201 54 204
3 196 52 201
3 204 16 196
3 176 205 203
3 203 45 176
3 205 54 203
3 176 4 205
3 208 206 207
3 207 55 208
3 206 51 207
3 208 50 206
3 199 209 207
3 207 51 199
3 209 55 207
3 199 15 209
3 188 198 206
3 206 50 188
3 198 51 206
3 188 14 198
3 210 191 208
3 208 55 210
3 191 50 208
3 210 7 191
3 213 211 212
3 212 57 213
3 211 53 212
3 213 56 211
3 195 214 212
3 212 53 195
3 214 57 212
3 195 16 214
3 215 200 211
3 211 56 215
3 200 53 211
3 215 15 200
3 217 216 213
3 213 57 217
3 216 56 213
3 217 9 216
3 220 218 219
3 219 60 220
3 218 59 219
3 220 58 218
3 222 221 219
3 219 59 222
3 221 60 219
3 222 19 221
3 224 223 218
3 218 58 224
3 223 59 218
3 224 18 223
3 226 225 220
3 220 60 226
3 225 58 220
3 226 17 225
3 229 227 228
3 228 62 229
3 227 59 228
3 229 61 227
3 223 230 228
3 228 59 223
3 230 62 228
3 223 18 230
3 231 222 227
3 227 61 231
3 222 59 227
3 231 19 222
3 233 232 229
3 229 62 233
3 232 61 229
3 233 5 232
3 236 234 235
3 235 64 236
3 234 58 235
3 236 63 234
3 225 237 235
3 235 58 225
3 237 64 235
3 225 17 237
3 238 224 234
3 234 63 238
3 224 58 234
3 238 18 224
3 240 239 236
3 236 64 240
3 239 63 236
3 240 6 239
3 243 241 242
3 242 66 243
3 241 60 242
3 243 65 241
3 221 244 242
3 242 60 221
3 244 66 242
3 221 19 244
3 245 226 241
3 241 65 245
3 226 60 241
3 245 17 226
3 247 246 243
3 243 66 247
3 246 65 243
3 247 11 246
3 250 248 249
3 249 69 250
3 248 68 249
3 250 67 248
3 252 251 249
3 249 68 252
3 251 69 249
3 252 18 251
3 254 253 248
3 248 67 254
3 253 68 248
3 254 21 253
3 256 255 250
3 250 69 256
3 255 67 250
3 256 20 255
3 259 257 258
3 258 70 259
3 257 68 258
3 259 62 257
3 253 260 258
3 258 68 253
3 260 70 258
3 253 21 260
3 230 252 257
3 257 62 230
3 252 68 257
3 230 18 252
3 261 233 259
3 259 70 261
3 233 62 259
3 261 5 233
3 264 262 263
3 263 72 264
3 262 67 263
3 264 71 262
3 255 265 263
3 263 67 255
3 265 72 263
3 255 20 265
3 266 254 262
3 262 71 266
3 254 67 262
3 266 21 254
3 268 267 264
3 264 72 268
3 267 71 264
3 268 10 267
3 271 269 270
3 270 63 271
3 269 69 270
3 271 73 269
3 251 238 270
3 270 69 251
3 238 63 270
3 251 18 238
3 272 256 269
3 269 73 272
3 256 69 269
3 272 20 256
3 239 273 271
3 271 63 239
3 273 73 271
3 239 6 273
3 276 274 275
3 275 76 276
3 274 75 275
3 276 74 274
3 278 277 275
3 275 75 278
3 277 76 275
3 278 24 277
3 280 279 274
3 274 74 280
3 279 75 274
3 280 23 279
3 282 281 276
3 276 76 282
3 281 74 276
3 282 22 281
3 285 283 284
3 284 78 285
3 283 75 284
3 285 77 283
3 279 286 284
3 284 75 279
3 286 78 284
3 279 23 286
3 287 278 283
3 283 77 287
3 278 75 283
3 287 24 278
3 289 288 285
3 285 78 289
3 288 77 285
3 289 0 288
3 292 290 291
3 291 80 292
3 290 74 291
3 292 79 290
3 281 293 291
3 291 74 281
3 293 80 291
3 281 22 293
3 294 280 290
3 290 79 294
3 280 74 290
3 294 23 280
3 296 295 292
3 292 80 296
3 295 79 292
3 296 4 295
3 299 297 298
3 298 82 299
3 297 76 298
3 299 81 297
3 277 300 298
3 298 76 277
3 300 82 298
3 277 24 300
3 301 282 297
3 297 81 301
3 282 76 297
3 301 22 282
3 303 302 299
3 299 82 303
3 302 81 299
3 303 3 302
3 306 304 305
3 305 85 306
3 304 84 305
3 306 83 304
3 308 307 305
3 305 84 308
3 307 85 305
3 308 26 307
3 310 309 304
3 304 83 310
3 309 84 304
3 310 24 309
3 312 311 306
3 306 85 312
3 311 83 306
3 312 25 311
3 315 313 314
3 314 77 315
3 313 84 314
3 315 86 313
3 309 287 314
3 314 84 309
3 287 77 314
3 309 24 287
3 316 308 313
3 313 86 316
3 308 84 313
3 316 26 308
3 288 317 315
3 315 77 288
3 317 86 315
3 288 0 317
3 320 318 319
3 319 87 320
3 318 83 319
3 320 82 318
3 311 321 319
3 319 83 311
3 321 87 319
3 311 25 321
3 300 310 318
3 318 82 300
3 310 83 318
3 300 24 310
3 322 303 320
3 320 87 322
3 303 82 320
3 322 3 303
3 325 323 324
3 324 89 325
3 323 85 324
3 325 88 323
3 307 326 324
3 324 85 307
3 326 89 324
3 307 26 326
3 327 312 323
3 323 88 327
3 312 85 323
3 327 25 312
3 329 328 325
3 325 89 329
3 328 88 325
3 329 5 328
3 332 330 331
3 331 92 332
3 330 91 331
3 332 90 330
3 334 333 331
3 331 91 334
3 333 92 331
3 334 29 333
3 336 335 330
3 330 90 336
3 335 91 330
3 336 28 335
3 338 337 332
3 332 92 338
3 337 90 332
3 338 27 337
3 341 339 340
3 340 94 341
3 339 91 340
3 341 93 339
3 335 342 340
3 340 91 335
3 342 94 340
3 335 28 342
3 343 334 339
3 339 93 343
3 334 91 339
3 343 29 334
3 345 344 341
3 341 94 345
3 344 93 341
3 345 2 344
3 348 346 347
3 347 96 348
3 346 90 347
3 348 95 346
3 337 349 347
3 347 90 337
3 349 96 347
3 337 27 349
3 350 336 346
3 346 95 350
3 336 90 346
3 350 28 336
3 352 351 348
3 348 96 352
3 351 95 348
3 352 7 351
3 355 353 354
3 354 98 355
3 353 92 354
3 355 97 353
3 333 356 354
3 354 92 333
3 356 98 354
3 333 29 356
3 357 338 353
3 353 97 357
3 338 92 353
3 357 27 338
3 359 358 355
3 355 98 359
3 358 97 355
3 359 1 358
3 362 360 361
3 361 101 362
3 360 100 361
3 362 99 360
3 364 363 361
3 361 100 364
3 363 101 361
3 364 31 363
3 366 365 360
3 360 99 366
3 365 100 360
3 366 29 365
3 368 367 362
3 362 101 368
3 367 99 362
3 368 30 367
3 371 369 370
3 370 93 371
3 369 100 370
3 371 102 369
3 365 343 370
3 370 100 365
3 343 93 370
3 365 29 343
3 372 364 369
3 369 102 372
3 364 100 369
3 372 31 364
3 344 373 371
3 371 93 344
3 373 102 371
3 344 2 373
3 376 374 375
3 375 103 376
3 374 99 375
3 376 98 374
3 367 377 375
3 375 99 367
3 377 103 375
3 367 30 377
3 356 366 374
3 374 98 356
3 366 99 374
3 356 29 366
3 378 359 376
3 376 103 378
3 359 98 376
3 378 1 359
3 381 379 380
3 380 105 381
3 379 101 380
3 381 104 379
3 363 382 380
3 380 101 363
3 382 105 380
3 363 31 382
3 383 368 379
3 379 104 383
3 368 101 379
3 383 30 368
3 385 384 381
3 381 105 385
3 384 104 381
3 385 6 384
3 388 386 387
3 387 108 388
3 386 107 387
3 388 106 386
3 390 389 387
3 387 107 390
3 389 108 387
3 390 34 389
3 392 391 386
3 386 106 392
3 391 107 386
3 392 33 391
3 394 393 388
3 388 108 394
3 393 106 388
3 394 32 393
3 397 395 396
3 396 110 397
3 395 107 396
3 397 109 395
3 391 398 396
3 396 107 391
3 398 110 396
3 391 33 398
3 399 390 395
3 395 109 399
3 390 107 395
3 399 34 390
3 401 400 397
3 397 110 401
3 400 109 397
3 401 8 400
3 404 402 403
3 403 112 404
3 402 106 403
3 404 111 402
3 393 405 403
3 403 106 393
3 405 112 403
3 393 32 405
3 406 392 402
3 402 111 406
3 392 106 402
3 406 33 392
3 408 407 404
3 404 112 408
3 407 111 404
3 408 0 407
3 411 409 410
3 410 114 411
3 409 108 410
3 411 113 409
3 389 412 410
3 410 108 389
3 412 114 410
3 389 34 412
3 413 394 409
3 409 113 413
3 394 108 409
3 413 32 394
3 415 414 411
3 411 114 415
3 414 113 411
3 415 11 414
3 418 416 417
3 417 117 418
3 416 116 417
3 418 115 416
3 420 419 417
3 417 116 420
3 419 117 417
3 420 36 419
3 422 421 416
3 416 115 422
3 421 116 416
3 422 34 421
3 424 423 418
3 418 117 424
3 423 115 418
3 424 35 423
3 427 425 426
3 426 109 427
3 425 116 426
3 427 118 425
3 421 399 426
3 426 116 421
3 399 109 426
3 421 34 399
3 428 420 425
3 425 118 428
3 420 116 425
3 428 36 420
3 400 429 427
3 427 109 400
3 429 118 427
3 400 8 429
3 432 430 431
3 431 119 432
3 430 115 431
3 432 114 430
3 423 433 431
3 431 115 423
3 433 119 431
3 423 35 433
3 412 422 430
3 430 114 412
3 422 115 430
3 412 34 422
3 434 415 432
3 432 119 434
3 415 114 432
3 434 11 415
3 437 435 436
3 436 121 437
3 435 117 436
3 437 120 435
3 419 438 436
3 436 117 419
3 438 121 436
3 419 36 438
3 439 424 435
3 435 120 439
3 424 117 435
3 439 35 424
3 441 440 437
3 437 121 441
3 440 120 437
3 441 1 440
3 444 442 443
3 443 124 444
3 442 123 443
3 444 122 442
3 446 445 443
3 443 123 446
3 445 124 443
3 446 39 445
3 448 447 442
3 442 122 448
3 447 123 442
3 448 38 447
3 450 449 444
3 444 124 450
3 449 122 444
3 450 37 449
3 453 451 452
3 452 126 453
3 451 123 452
3 453 125 451
3 447 454 452
3 452 123 447
3 454 126 452
3 447 38 454
3 455 446 451
3 451 125 455
3 446 123 451
3 455 39 446
3 457 456 453
3 453 126 457
3 456 125 453
3 457 9 456
3 460 458 459
3 459 128 460
3 458 122 459
3 460 127 458
3 449 461 459
3 459 122 449
3 461 128 459
3 449 37 461
3 462 448 458
3 458 127 462
3 448 122 458
3 462 38 448
3 464 463 460
3 460 128 464
3 463 127 460
3 464 10 463
3 467 465 466
3 466 130 467
3 465 124 466
3 467 129 465
3 445 468 466
3 466 124 445
3 468 130 466
3 445 39 468
3 469 450 465
3 465 129 469
3 450 124 465
3 469 37 450
3 471 470 467
3 467 130 471
3 470 129 467
3 471 3 470
3 474 472 473
3 473 133 474
3 472 132 473
3 474 131 472
3 476 475 473
3 473 132 476
3 475 133 473
3 476 38 475
3 478 477 472
3 472 131 478
3 477 132 472
3 478 41 477
3 480 479 474
3 474 133 480
3 479 131 474
3 480 40 479
3 483 481 482
3 482 134 483
3 481 132 482
3 483 126 481
3 477 484 482
3 482 132 477
3 484 134 482
3 477 41 484
3 454 476 481
3 481 126 454
3 476 132 481
3 454 38 476
3 485 457 483
3 483 134 485
3 457 126 483
3 485 9 457
3 488 486 487
3 487 136 488
3 486 131 487
3 488 135 486
3 479 489 487
3 487 131 479
3 489 136 487
3 479 40 489
3 490 478 486
3 486 135 490
3 478 131 486
3 490 41 478
3 492 491 488
3 488 136 492
3 491 135 488
3 492 2 491
3 495 493 494
3 494 127 495
3 493 133 494
3 495 137 493
3 475 462 494
3 494 133 475
3 462 127 494
3 475 38 462
3 496 480 493
3 493 137 496
3 480 133 493
3 496 40 480
3 463 497 495
3 495 127 463
3 497 137 495
3 463 10 497
3 500 498 499
3 499 140 500
3 498 139 499
3 500 138 498
3 502 501 499
3 499 139 502
3 501 140 499
3 502 33 501
3 504 503 498
3 498 138 504
3 503 139 498
3 504 13 503
3 506 505 500
3 500 140 506
3 505 138 500
3 506 23 505
3 509 507 508
3 508 47 509
3 507 139 508
3 509 110 507
3 503 182 508
3 508 139 503
3 182 47 508
3 503 13 182
3 398 502 507
3 507 110 398
3 502 139 507
3 398 33 502
3 183 401 509
3 509 47 183
3 401 110 509
3 183 8 401
3 512 510 511
3 511 79 512
3 510 138 511
3 512 46 510
3 505 294 511
3 511 138 505
3 294 79 511
3 505 23 294
3 174 504 510
3 510 46 174
3 504 138 510
3 174 13 504
3 295 177 512
3 512 79 295
3 177 46 512
3 295 4 177
3 515 513 514
3 514 111 515
3 513 140 514
3 515 78 513
3 501 406 514
3 514 140 501
3 406 111 514
3 501 33 406
3 286 506 513
3 513 78 286
3 506 140 513
3 286 23 506
3 407 289 515
3 515 111 407
3 289 78 515
3 407 0 289
3 518 516 517
3 517 143 518
3 516 142 517
3 518 141 516
3 520 519 517
3 517 142 520
3 519 143 517
3 520 19 519
3 522 521 516
3 516 141 522
3 521 142 516
3 522 32 521
3 524 523 518
3 518 143 524
3 523 141 518
3 524 26 523
3 527 525 526
3 526 113 527
3 525 142 526
3 527 66 525
3 521 413 526
3 526 142 521
3 413 113 526
3 521 32 413
3 244 520 525
3 525 66 244
3 520 142 525
3 244 19 520
3 414 247 527
3 527 113 414
3 247 66 527
3 414 11 247
3 530 528 529
3 529 86 530
3 528 141 529
3 530 112 528
3 523 316 529
3 529 141 523
3 316 86 529
3 523 26 316
3 405 522 528
3 528 112 405
3 522 141 528
3 405 32 522
3 317 408 530
3 530 86 317
3 408 112 530
3 317 0 408
3 533 531 532
3 532 61 533
3 531 143 532
3 533 89 531
3 519 231 532
3 532 143 519
3 231 61 532
3 519 19 231
3 326 524 531
3 531 89 326
3 524 143 531
3 326 26 524
3 232 329 533
3 533 61 232
3 329 89 533
3 232 5 329
3 536 534 535
3 535 146 536
3 534 145 535
3 536 144 534
3 538 537 535
3 535 145 538
3 537 146 535
3 538 22 537
3 540 539 534
3 534 144 540
3 539 145 534
3 540 16 539
3 542 541 536
3 536 146 542
3 541 144 536
3 542 39 541
3 545 543 544
3 544 54 545
3 543 145 544
3 545 80 543
3 539 204 544
3 544 145 539
3 204 54 544
3 539 16 204
3 293 538 543
3 543 80 293
3 538 145 543
3 293 22 538
3 205 296 545
3 545 54 205
3 296 80 545
3 205 4 296
3 548 546 547
3 547 125 548
3 546 144 547
3 548 57 546
3 541 455 547
3 547 144 541
3 455 125 547
3 541 39 455
3 214 540 546
3 546 57 214
3 540 144 546
3 214 16 540
3 456 217 548
3 548 125 456
3 217 57 548
3 456 9 217
3 551 549 550
3 550 81 551
3 549 146 550
3 551 130 549
3 537 301 550
3 550 146 537
3 301 81 550
3 537 22 301
3 468 542 549
3 549 130 468
3 542 146 549
3 468 39 542
3 302 471 551
3 551 81 302
3 471 130 551
3 302 3 471
3 554 552 553
3 553 149 554
3 552 148 553
3 554 147 552
3 556 555 553
3 553 148 556
3 555 149 553
3 556 21 555
3 558 557 552
3 552 147 558
3 557 148 552
3 558 25 557
3 560 559 554
3 554 149 560
3 559 147 554
3 560 37 559
3 563 561 562
3 562 88 563
3 561 148 562
3 563 70 561
3 557 327 562
3 562 148 557
3 327 88 562
3 557 25 327
3 260 556 561
3 561 70 260
3 556 148 561
3 260 21 556
3 328 261 563
3 563 88 328
3 261 70 563
3 328 5 261
3 566 564 565
3 565 129 566
3 564 147 565
3 566 87 564
3 559 469 565
3 565 147 559
3 469 129 565
3 559 37 469
3 321 558 564
3 564 87 321
3 558 147 564
3 321 25 558
3 470 322 566
3 566 129 470
3 322 87 566
3 470 3 322
3 569 567 568
3 568 71 569
3 567 149 568
3 569 128 567
3 555 266 568
3 568 149 555
3 266 71 568
3 555 21 266
3 461 560 567
3 567 128 461
3 560 149 567
3 461 37 560
3 267 464 569
3 569 71 267
3 464 128 569
3 267 10 464
3 572 570 571
3 571 152 572
3 570 151 571
3 572 150 570
3 574 573 571
3 571 151 574
3 573 152 571
3 574 27 573
3 576 575 570
3 570 150 576
3 575 151 570
3 576 12 575
3 578 577 572
3 572 152 578
3 577 150 572
3 578 36 577
3 581 579 580
3 580 49 581
3 579 151 580
3 581 96 579
3 575 189 580
3 580 151 575
3 189 49 580
3 575 12 189
3 349 574 579
3 579 96 349
3 574 151 579
3 349 27 574
3 190 352 581
3 581 49 190
3 352 96 581
3 190 7 352
3 584 582 583
3 583 118 584
3 582 150 583
3 584 48 582
3 577 428 583
3 583 150 577
3 428 118 583
3 577 36 428
3 181 576 582
3 582 48 181
3 576 150 582
3 181 12 576
3 429 184 584
3 584 118 429
3 184 48 584
3 429 8 184
3 587 585 586
3 586 97 587
3 585 152 586
3 587 121 585
3 573 357 586
3 586 152 573
3 357 97 586
3 573 27 357
3 438 578 585
3 585 121 438
3 578 152 585
3 438 36 578
3 358 441 587
3 587 97 358
3 441 121 587
3 358 1 441
3 590 588 589
3 589 155 590
3 588 154 589
3 590 153 588
3 592 591 589
3 589 154 592
3 591 155 589
3 592 17 591
3 594 593 588
3 588 153 594
3 593 154 588
3 594 30 593
3 596 595 590
3 590 155 596
3 595 153 590
3 596 35 595
3 599 597 598
3 598 104 599
3 597 154 598
3 599 64 597
3 593 383 598
3 598 154 593
3 383 104 598
3 593 30 383
3 237 592 597
3 597 64 237
3 592 154 597
3 237 17 592
3 384 240 599
3 599 104 384
3 240 64 599
3 384 6 240
3 602 600 601
3 601 120 602
3 600 153 601
3 602 103 600
3 595 439 601
3 601 153 595
3 439 120 601
3 595 35 439
3 377 594 600
3 600 103 377
3 594 153 600
3 377 30 594
3 440 378 602
3 602 120 440
3 378 103 602
3 440 1 378
3 605 603 604
3 604 65 605
3 603 155 604
3 605 119 603
3 591 245 604
3 604 155 591
3 245 65 604
3 591 17 245
3 433 596 603
3 603 119 433
3 596 155 603
3 433 35 596
3 246 434 605
3 605 65 246
3 434 119 605
3 246 11 434
3 608 606 607
3 607 158 608
3 606 157 607
3 608 156 606
3 610 609 607
3 607 157 610
3 609 158 607
3 610 15 609
3 612 611 606
3 606 156 612
3 611 157 606
3 612 28 611
3 614 613 608
3 608 158 614
3 613 156 608
3 614 41 613
3 617 615 616
3 616 95 617
3 615 157 616
3 617 55 615
3 611 350 616
3 616 157 611
3 350 95 616
3 611 28 350
3 209 610 615
3 615 55 209
3 610 157 615
3 209 15 610
3 351 210 617
3 617 95 351
3 210 55 617
3 351 7 210
3 620 618 619
3 619 135 620
3 618 156 619
3 620 94 618
3 613 490 619
3 619 156 613
3 490 135 619
3 613 41 490
3 342 612 618
3 618 94 342
3 612 156 618
3 342 28 612
3 491 345 620
3 620 135 491
3 345 94 620
3 491 2 345
3 623 621 622
3 622 56 623
3 621 158 622
3 623 134 621
3 609 215 622
3 622 158 609
3 215 56 622
3 609 15 215
3 484 614 621
3 621 134 484
3 614 158 621
3 484 41 614
3 216 485 623
3 623 56 216
3 485 134 623
3 216 9 485
3 626 624 625
3 625 161 626
3 624 160 625
3 626 159 624
3 628 627 625
3 625 160 628
3 627 161 625
3 628 31 627
3 630 629 624
3 624 159 630
3 629 160 624
3 630 20 629
3 632 631 626
3 626 161 632
3 631 159 626
3 632 40 631
3 635 633 634
3 634 73 635
3 633 160 634
3 635 105 633
3 629 272 634
3 634 160 629
3 272 73 634
3 629 20 272
3 382 628 633
3 633 105 382
3 628 160 633
3 382 31 628
3 273 385 635
3 635 73 273
3 385 105 635
3 273 6 385
3 638 636 637
3 637 137 638
3 636 159 637
3 638 72 636
3 631 496 637
3 637 159 631
3 496 137 637
3 631 40 496
3 265 630 636
3 636 72 265
3 630 159 636
3 265 20 630
3 497 268 638
3 638 137 497
3 268 72 638
3 497 10 268
3 641 639 640
3 640 102 641
3 639 161 640
3 641 136 639
3 627 372 640
3 640 161 627
3 372 102 640
3 627 31 372
3 489 632 639
3 639 136 489
3 632 161 639
3 489 40 632
3 373 492 641
3 641 102 373
3 492 136 641
3 373 2 492
