# vtk DataFile Version 3.0
this file was written using fslvtkio
ASCII
DATASET POLYDATA
POINTS 642 float
116.229 122.607 138.243
102.853 121.381 141.683
103.239 122.898 135.779
113.533 122.189 133.01
114.519 116.755 131.963
112 129.452 139.089
103.161 129.57 141.231
106.743 116.668 134.389
110.652 118.288 139.323
107.408 119.745 128.604
106.961 124.687 135.699
109.235 125.811 143.105
108.755 116.879 136.855
113.568 116.212 135.948
110.636 115.527 132.582
106.682 117.098 130.26
111.595 117.501 128.194
105.699 128.632 144.037
107.682 130.701 140.56
111.253 129.004 142.675
104.961 128.324 138.34
109.097 126.793 138.017
115.644 119.672 130.529
117.26 118.939 135.148
116.936 123.165 135.036
113.116 125.286 136.699
114.92 127.041 139.333
104.37 118.392 138.533
104.529 119.516 134.677
100.991 121.787 139.32
101.289 125.885 142.789
102.299 126.192 138.936
113.02 124.399 141.166
114.286 119.591 138.716
109.756 121.958 141.484
105.205 124.294 142.988
106.546 119.247 140.844
110.15 123.155 134.19
106.675 123.113 131.166
111.373 121.008 129.297
103.931 124.917 134.918
103.382 121.085 130.784
111.008 116.376 136.119
112.256 115.049 134.277
109.844 115.249 134.816
112.753 115.8 132.05
114.352 116.014 134.061
112.153 117.043 137.691
109.618 117.523 138.2
107.604 116.306 135.734
108.563 115.812 133.566
108.783 116.35 131.367
111.183 116.141 130.109
108.878 116.601 128.811
113.457 116.805 129.778
106.879 116.809 132.484
106.476 118.257 128.926
109.403 118.461 128.021
106.807 129.817 142.476
109.433 130.132 142.005
108.707 129.075 143.856
112.095 130.134 141.031
110.013 130.236 139.802
105.28 130.363 140.942
104.232 129.247 142.705
107.65 127.423 143.696
110.465 127.396 143.229
107.064 127.724 138.256
108.404 129.257 138.99
105.954 129.904 139.181
110.441 128.137 138.557
107.907 125.404 137.045
105.989 126.179 137.336
103.668 129.914 139.185
117.421 119.287 132.535
118.125 121.245 134.84
116.668 121.281 132.533
117.58 123.214 136.862
117.564 120.574 137.076
116.16 117.423 133.461
115.541 117.937 130.899
114.7 121.241 131.367
115.169 122.47 133.971
115.199 124.458 135.818
116.472 125.412 137.209
114.673 126.999 137.48
115.681 124.657 138.801
113.379 123.361 135.034
112.586 127.444 137.913
113.721 128.923 139.288
103.891 118.693 136.675
102.714 120.474 137.225
102.267 119.691 139.024
101.92 122.379 137.456
103.873 121.215 135.244
105.63 117.957 134.566
105.563 117.402 136.356
103.168 119.389 140.371
101.437 121.394 140.919
100.634 123.735 141.188
101.22 124.054 139.272
100.995 126.153 140.99
102.657 124.358 137.391
101.739 123.435 142.342
102.14 127.937 142.243
102.025 128.333 140.086
113.48 122.13 139.768
112.065 120.871 140.206
111.549 122.952 141.368
110.301 119.89 140.577
112.559 118.662 139.16
115.521 120.951 138.533
114.264 123.53 139.275
111.392 125.11 142.534
109.386 123.882 142.492
107.398 123.002 142.35
108.027 120.776 141.35
105.792 121.683 142.092
108.708 118.663 140.2
107.11 125.294 143.307
103.85 122.91 142.451
104.522 120.054 141.277
108.658 123.147 132.317
108.922 121.956 130.254
110.771 122.101 131.576
109.388 120.138 128.723
106.806 121.571 129.709
106.789 123.95 133.323
108.449 123.823 134.945
111.842 122.55 133.673
112.645 121.444 131.116
103.195 123.468 132.234
104.682 122.544 130.721
104.976 124.283 132.699
104.964 120.451 129.145
103.246 121.76 133.334
102.851 124.157 135.312
105.445 124.89 135.392
115.693 117.307 135.61
114.217 117.567 137.632
116.216 118.905 137.346
113.691 125.642 140.199
112.347 126.742 142.115
113.216 128.352 141.31
111.557 119.225 128.269
114.505 118.307 128.612
113.839 120.23 129.478
111.602 123.983 135.647
111.018 125.854 137.26
109.61 124.65 136.27
107.528 117.94 139.037
106.605 117.373 137.805
105.203 118.356 139.841
103.085 125.183 143.334
103.111 127.713 143.685
105.184 126.641 143.785
103.963 119.851 132.693
105.4 118.023 132.47
105.079 118.609 130.306
104.497 126.274 136.897
103.208 127.946 138.347
103.06 125.804 136.764
111.678 115.393 135.364
110.979 115.064 134.559
110.418 115.447 135.645
110.331 115.036 133.675
111.405 115.122 133.527
112.908 115.466 135.206
112.228 116.188 135.933
109.883 116.518 136.41
109.332 115.859 135.856
112.513 115.39 133.273
113.382 115.437 134.199
113.546 115.871 133.133
114.131 115.876 135.079
111.709 115.444 132.218
113.649 116.323 131.969
114.475 116.449 133.008
111.6 116.744 136.866
110.3 116.918 137.081
110.895 117.096 137.843
109.203 117.179 137.514
112.752 116.723 136.713
111.351 117.587 138.535
110.189 117.779 138.811
108.697 115.741 135.256
109.198 115.252 134.068
108.144 115.779 134.62
109.618 115.563 133.071
108.271 116.536 136.251
107.053 116.248 135.103
107.557 116.119 134.026
109.93 116.15 130.796
110.102 116.334 129.491
108.845 116.35 130.027
110.239 117.011 128.364
111.354 116.708 129.017
110.864 115.733 131.286
109.743 115.904 131.901
107.798 116.736 130.791
107.651 116.62 129.474
112.276 116.427 129.802
111.978 115.775 130.953
113.043 116.252 130.801
112.581 117.057 128.816
113.923 116.78 130.907
108.802 116.001 132.579
107.765 116.464 131.943
107.795 116.388 133.131
106.88 116.969 131.418
106.944 116.775 133.519
107.655 117.268 128.7
109.113 117.411 128.065
107.911 118.25 128.123
110.387 117.937 127.998
106.485 117.467 129.413
106.937 118.982 128.534
108.351 119.066 128.232
108.142 129.878 142.191
108.932 129.613 142.995
107.684 129.639 143.332
109.926 129.037 143.33
110.247 129.641 142.474
108.61 130.56 141.402
107.32 130.316 141.631
106.309 129.518 143.579
107.259 129.107 144.135
110.796 130.207 141.63
109.845 130.557 140.917
111.063 130.38 140.482
108.932 130.569 140.269
111.703 129.73 142.026
111.965 129.985 139.935
111.027 129.967 139.517
106.093 130.087 141.777
105.551 129.648 142.645
104.876 129.765 141.938
104.84 129.126 143.469
106.532 130.466 140.887
104.137 130.148 141.13
103.686 129.397 141.928
108.15 128.277 143.998
109.631 128.291 143.782
109.104 127.466 143.561
110.811 128.24 143.276
106.681 128.156 144.03
108.541 126.611 143.356
109.854 126.583 143.116
107.711 128.57 138.561
107.219 129.65 139.054
106.508 128.947 138.604
106.807 130.408 139.877
108.054 130.185 139.599
108.708 128.062 138.54
108.113 127.377 138.14
106.007 128.13 138.353
105.372 129.229 138.678
109.116 129.8 139.344
109.398 128.638 138.845
110.204 129.394 139.052
109.723 127.486 138.311
111.211 128.925 138.707
107.476 126.532 137.846
106.44 126.973 137.913
107.02 125.912 137.253
105.483 127.208 137.974
108.425 126.045 137.589
107.436 125.056 136.376
106.566 125.38 136.553
104.768 130.017 139.198
105.603 130.482 140.001
104.351 130.319 140.067
104.408 129.311 138.648
103.279 129.932 140.289
117.81 120.304 133.588
117.549 121.41 133.543
117.342 120.457 132.375
116.988 122.249 133.836
117.798 122.384 134.716
117.879 119.998 134.815
117.543 119.113 133.836
116.68 119.578 131.393
116.435 120.569 131.406
118.138 122.213 135.913
118.034 120.868 135.955
117.629 121.895 136.906
117.543 119.78 136.093
117.641 123.382 135.841
116.999 122.848 137.594
117.042 121.668 137.716
117.014 118.234 133.01
116.62 118.53 131.671
116.152 117.59 132.16
115.808 118.855 130.562
116.874 118.233 134.192
115.374 116.914 132.721
115.069 117.322 131.46
115.793 121.35 131.707
116.069 121.976 133.198
115.132 121.871 132.594
116.161 122.82 134.397
115.215 120.35 130.909
114.194 122.001 132.123
114.408 122.23 133.508
116.065 125.21 136.21
115.667 126.307 137.263
115.015 125.785 136.627
115.134 127.355 138.417
115.909 126.404 138.339
116.89 124.311 135.976
116.095 123.787 135.286
114.172 125.015 136.321
113.999 126.172 137.072
116.296 125.199 138.274
117.177 124.419 136.964
116.743 123.923 137.921
115.406 125.844 139.056
116.003 123.583 138.369
115.26 123.505 134.867
114.273 123.998 135.361
114.26 122.896 134.561
113.274 124.337 135.893
113.477 122.564 134.107
113.674 127.273 137.642
114.261 128.043 138.43
113.384 128.478 138.33
114.379 128.094 139.43
112.908 126.405 137.304
112.325 128.504 138.488
112.944 129.411 139.196
103.302 119.545 136.954
102.35 120.031 138.105
103.137 119.136 137.91
101.479 120.604 139.099
101.67 120.947 138.286
103.954 120.152 136.067
104.296 119.247 135.789
104.022 118.505 137.661
103.28 118.903 138.778
102.144 121.372 137.384
103.397 120.923 136.289
102.869 121.701 136.508
104.124 120.261 135.007
101.326 122.054 138.448
102.769 122.688 136.646
103.44 122.024 135.594
104.89 118.513 135.741
104.666 118.053 136.617
105.564 117.712 135.608
104.985 117.979 137.382
105.02 118.758 134.675
106.256 117.324 134.554
106.246 117.028 135.38
102.664 119.387 139.707
101.68 120.358 139.888
102.233 120.225 140.643
101.057 121.515 140.173
103.593 118.671 139.474
102.868 120.303 141.206
102.127 121.313 141.364
100.669 123.843 140.234
101.089 125.085 140.086
100.67 124.95 141.069
101.677 126.187 139.912
101.727 125.302 139.118
100.909 122.855 139.411
100.721 122.675 140.325
100.816 124.853 142.008
101.146 125.973 141.887
101.829 124.323 138.294
101.372 123.142 138.407
102.181 123.433 137.415
102.359 125.298 138.279
102.96 123.612 136.605
100.915 122.523 141.024
100.947 123.585 141.953
101.445 122.339 141.692
101.195 124.644 142.719
102.327 122.35 141.913
101.343 127.171 141.689
101.577 127.256 140.616
101.77 128.187 141.257
102.067 127.197 139.565
101.66 126.936 142.547
102.626 128.867 141.706
102.434 129.156 140.731
112.829 121.443 140.001
111.806 121.923 140.829
112.568 122.538 140.657
110.712 122.385 141.504
110.949 121.428 140.937
113.101 120.294 139.449
113.762 120.919 139.201
113.173 123.161 140.517
112.436 123.576 141.321
111.24 120.356 140.461
112.301 119.714 139.654
111.46 119.253 139.95
113.431 119.118 138.964
110.045 120.971 140.979
110.507 118.908 140.078
111.558 118.427 139.183
114.389 121.525 139.045
113.937 122.785 139.628
114.796 122.317 138.789
113.573 123.881 140.214
114.903 120.295 138.64
115.808 121.806 138.271
115.235 123.105 138.686
111.526 123.95 142.041
110.57 123.398 141.942
110.476 124.414 142.452
109.566 122.908 141.993
112.337 124.726 142.006
110.262 125.513 142.871
109.258 124.905 142.915
107.711 121.954 141.771
106.957 121.162 141.769
106.573 122.393 142.178
106.205 120.47 141.509
107.247 120.068 141.142
108.889 121.43 141.404
108.545 122.473 141.95
106.291 123.597 142.635
105.549 123.023 142.436
108.283 119.724 140.811
109.109 120.465 140.9
109.501 119.275 140.408
107.593 118.933 140.553
109.705 118.439 139.747
108.39 123.48 142.451
107.239 124.113 142.883
108.253 124.561 142.964
106.145 124.787 143.146
108.143 125.644 143.327
104.807 122.291 142.314
105.184 120.881 141.724
104.253 121.493 141.922
105.551 119.672 141.157
104.537 123.632 142.653
103.31 122.092 142.141
103.672 120.666 141.488
108.768 122.621 131.277
109.934 121.969 130.808
109.721 122.599 131.875
111.051 121.442 130.428
110.078 121.416 129.801
107.765 122.687 130.712
107.754 123.13 131.681
109.541 123.028 133.138
110.439 122.708 132.755
109.181 121.266 129.401
107.905 121.698 130.13
108.151 120.741 129.26
106.634 122.362 130.48
110.336 120.764 128.889
108.48 119.809 128.585
107.09 120.614 129.1
107.685 123.595 132.78
108.583 123.372 133.65
107.701 123.756 134.082
109.33 123.461 134.405
106.82 123.644 132.117
106.933 124.108 134.646
107.711 124.343 135.287
111.336 122.363 132.619
111.655 121.664 131.291
112.269 122.058 132.237
112.082 121.223 130.164
110.991 122.831 133.894
112.682 122.341 133.326
113.187 121.96 131.995
103.914 123.005 131.505
104.919 123.5 131.724
104.118 124.157 132.364
105.841 123.725 131.79
105.597 122.944 130.966
103.816 122.037 130.561
103.066 122.335 131.505
103.612 124.318 133.453
104.35 124.521 133.734
105.676 122.23 130.103
104.736 121.764 129.728
105.789 121.153 129.284
104.179 120.833 129.834
106.117 119.996 128.794
102.758 122.624 132.707
102.945 123.827 133.717
102.841 122.95 134.355
103.24 124.608 134.912
103.185 121.4 132.04
103.328 122.281 134.672
103.058 123.472 135.674
105.175 124.516 134.036
105.912 124.034 132.99
106.088 124.311 134.374
104.734 124.937 135.148
106.207 124.869 135.595
114.947 117.408 136.655
115.288 118.151 137.513
115.934 118.137 136.479
115.335 119.144 138.034
114.511 118.439 138.299
113.885 116.9 136.756
114.695 116.658 135.759
116.479 118.132 135.382
116.888 118.856 136.309
113.48 117.968 138.458
113.199 117.196 137.631
112.382 117.746 138.53
115.169 116.447 134.891
116.043 117.339 134.652
115.21 116.842 133.876
116.923 119.666 137.153
116.026 119.806 137.995
116.622 120.651 137.904
113.093 126.201 141.236
112.771 127.545 141.783
113.558 126.919 140.86
112.361 128.896 142.158
111.899 127.967 142.604
112.727 125.541 141.681
113.401 125.049 140.743
114.342 126.277 139.964
114.063 127.66 140.319
111.516 127.152 142.81
112.017 125.889 142.41
110.912 126.263 142.795
113.985 124.554 139.795
114.501 125.113 139.412
114.872 124.072 138.965
113.643 128.78 140.34
112.878 129.547 141.397
112.961 129.66 140.085
113.152 118.811 128.161
114.425 119.446 128.71
112.957 119.792 128.61
114.859 119.992 129.89
115.245 119.09 129.503
113.11 117.861 128.322
111.644 118.425 128.131
111.569 120.129 128.746
112.638 120.672 129.357
115.116 118.08 129.607
114.021 117.346 129.081
114.466 117.357 130.468
110.537 118.758 128.073
110.417 119.712 128.574
109.318 119.224 128.311
113.172 120.827 130.296
114.237 120.562 130.517
113.579 121.354 131.292
111.328 124.922 136.448
110.264 125.173 136.871
110.569 124.337 135.849
109.284 125.561 137.217
110.004 126.27 137.622
112.056 125.54 136.989
112.3 124.572 136.202
110.797 123.418 135.106
109.93 123.818 135.275
110.626 126.94 137.939
111.793 126.687 137.552
111.449 127.646 138.268
112.495 123.679 135.376
111.662 123.063 134.803
112.636 122.872 134.434
109.112 124.247 135.539
108.712 124.975 136.631
108.219 124.605 135.979
107.036 117.503 138.478
105.828 117.807 138.913
106.353 118.211 139.376
104.689 118.208 139.269
105.452 117.883 138.115
107.794 117.214 137.384
108.222 117.377 138
106.976 118.526 139.908
105.866 118.73 140.306
106.013 117.402 137.121
107.231 117.043 136.682
106.587 116.826 136.026
108.655 117.679 138.646
108.038 118.413 139.608
109.078 118.067 139.21
104.814 118.988 140.705
104.102 118.624 140.107
103.844 119.569 140.879
103.001 126.476 143.511
104.123 127.268 143.837
104.086 125.979 143.569
105.407 127.73 143.957
104.364 128.257 143.933
102.104 126.907 143.162
102.023 125.549 143.225
104.159 124.797 143.187
105.164 125.472 143.355
103.583 128.658 143.394
102.449 127.924 142.989
103.15 128.706 142.48
102.265 124.364 142.832
103.472 124.044 142.81
102.77 123.09 142.315
106.178 126.001 143.544
106.356 127.211 143.856
107.354 126.446 143.573
104.634 118.852 132.639
105.276 118.189 131.429
104.515 119.267 131.504
105.718 117.674 130.233
105.954 117.415 131.421
104.886 118.736 133.591
104.132 119.514 133.692
103.659 120.394 131.758
104.345 119.754 130.45
106.111 117.368 132.434
105.541 118.028 133.5
106.273 117.315 133.507
103.932 120.512 134.056
103.567 120.884 133.061
103.722 121.566 134.432
104.913 119.468 129.888
105.721 118.332 129.666
105.815 119.319 129.051
103.822 127.088 137.65
103.177 126.708 137.743
103.702 126.082 136.751
102.63 125.99 138.022
102.609 127.136 138.643
103.996 128.27 138.301
104.712 127.237 137.823
104.212 125.724 135.861
103.379 125.646 135.767
102.48 128.344 139.028
103.371 129.129 138.689
102.723 129.326 139.597
105.24 126.324 137.262
105.054 125.729 136.172
105.778 125.558 136.352
102.952 125.051 136.089
102.814 125.172 137.305
102.782 124.354 136.475
POLYGONS 1280  5120
3 164 162 163
3 163 44 164
3 162 43 163
3 164 42 162
3 166 165 163
3 163 43 166
3 165 44 163
3 166 14 165
3 168 167 162
3 162 42 168
3 167 43 162
3 168 13 167
3 170 169 164
3 164 44 170
3 169 42 164
3 170 12 169
3 173 171 172
3 172 46 173
3 171 43 172
3 173 45 171
3 167 174 172
3 172 43 167
3 174 46 172
3 167 13 174
3 175 166 171
3 171 45 175
3 166 43 171
3 175 14 166
3 177 176 173
3 173 46 177
3 176 45 173
3 177 4 176
3 180 178 179
3 179 48 180
3 178 42 179
3 180 47 178
3 169 181 179
3 179 42 169
3 181 48 179
3 169 12 181
3 182 168 178
3 178 47 182
3 168 42 178
3 182 13 168
3 184 183 180
3 180 48 184
3 183 47 180
3 184 8 183
3 187 185 186
3 186 50 187
3 185 44 186
3 187 49 185
3 165 188 186
3 186 44 165
3 188 50 186
3 165 14 188
3 189 170 185
3 185 49 189
3 170 44 185
3 189 12 170
3 191 190 187
3 187 50 191
3 190 49 187
3 191 7 190
3 194 192 193
3 193 53 194
3 192 52 193
3 194 51 192
3 196 195 193
3 193 52 196
3 195 53 193
3 196 16 195
3 198 197 192
3 192 51 198
3 197 52 192
3 198 14 197
3 200 199 194
3 194 53 200
3 199 51 194
3 200 15 199
3 203 201 202
3 202 45 203
3 201 52 202
3 203 54 201
3 197 175 202
3 202 52 197
3 175 45 202
3 197 14 175
3 204 196 201
3 201 54 204
3 196 52 201
3 204 16 196
3 176 205 203
3 203 45 176
3 205 54 203
3 176 4 205
3 208 206 207
3 207 55 208
3 206 51 207
3 208 50 206
3 199 209 207
3 207 51 199
3 209 55 207
3 199 15 209
3 188 198 206
3 206 50 188
3 198 51 206
3 188 14 198
3 210 191 208
3 208 55 210
3 191 50 208
3 210 7 191
3 213 211 212
3 212 57 213
3 211 53 212
3 213 56 211
3 195 214 212
3 212 53 195
3 214 57 212
3 195 16 214
3 215 200 211
3 211 56 215
3 200 53 211
3 215 15 200
3 217 216 213
3 213 57 217
3 216 56 213
3 217 9 216
3 220 218 219
3 219 60 220
3 218 59 219
3 220 58 218
3 222 221 219
3 219 59 222
3 221 60 219
3 222 19 221
3 224 223 218
3 218 58 224
3 223 59 218
3 224 18 223
3 226 225 220
3 220 60 226
3 225 58 220
3 226 17 225
3 229 227 228
3 228 62 229
3 227 59 228
3 229 61 227
3 223 230 228
3 228 59 223
3 230 62 228
3 223 18 230
3 231 222 227
3 227 61 231
3 222 59 227
3 231 19 222
3 233 232 229
3 229 62 233
3 232 61 229
3 233 5 232
3 236 234 235
3 235 64 236
3 234 58 235
3 236 63 234
3 225 237 235
3 235 58 225
3 237 64 235
3 225 17 237
3 238 224 234
3 234 63 238
3 224 58 234
3 238 18 224
3 240 239 236
3 236 64 240
3 239 63 236
3 240 6 239
3 243 241 242
3 242 66 243
3 241 60 242
3 243 65 241
3 221 244 242
3 242 60 221
3 244 66 242
3 221 19 244
3 245 226 241
3 241 65 245
3 226 60 241
3 245 17 226
3 247 246 243
3 243 66 247
3 246 65 243
3 247 11 246
3 250 248 249
3 249 69 250
3 248 68 249
3 250 67 248
3 252 251 249
3 249 68 252
3 251 69 249
3 252 18 251
3 254 253 248
3 248 67 254
3 253 68 248
3 254 21 253
3 256 255 250
3 250 69 256
3 255 67 250
3 256 20 255
3 259 257 258
3 258 70 259
3 257 68 258
3 259 62 257
3 253 260 258
3 258 68 253
3 260 70 258
3 253 21 260
3 230 252 257
3 257 62 230
3 252 68 257
3 230 18 252
3 261 233 259
3 259 70 261
3 233 62 259
3 261 5 233
3 264 262 263
3 263 72 264
3 262 67 263
3 264 71 262
3 255 265 263
3 263 67 255
3 265 72 263
3 255 20 265
3 266 254 262
3 262 71 266
3 254 67 262
3 266 21 254
3 268 267 264
3 264 72 268
3 267 71 264
3 268 10 267
3 271 269 270
3 270 63 271
3 269 69 270
3 271 73 269
3 251 238 270
3 270 69 251
3 238 63 270
3 251 18 238
3 272 256 269
3 269 73 272
3 256 69 269
3 272 20 256
3 239 273 271
3 271 63 239
3 273 73 271
3 239 6 273
3 276 274 275
3 275 76 276
3 274 75 275
3 276 74 274
3 278 277 275
3 275 75 278
3 277 76 275
3 278 24 277
3 280 279 274
3 274 74 280
3 279 75 274
3 280 23 279
3 282 281 276
3 276 76 282
3 281 74 276
3 282 22 281
3 285 283 284
3 284 78 285
3 283 75 284
3 285 77 283
3 279 286 284
3 284 75 279
3 286 78 284
3 279 23 286
3 287 278 283
3 283 77 287
3 278 75 283
3 287 24 278
3 289 288 285
3 285 78 289
3 288 77 285
3 289 0 288
3 292 290 291
3 291 80 292
3 290 74 291
3 292 79 290
3 281 293 291
3 291 74 281
3 293 80 291
3 281 22 293
3 294 280 290
3 290 79 294
3 280 74 290
3 294 23 280
3 296 295 292
3 292 80 296
3 295 79 292
3 296 4 295
3 299 297 298
3 298 82 299
3 297 76 298
3 299 81 297
3 277 300 298
3 298 76 277
3 300 82 298
3 277 24 300
3 301 282 297
3 297 81 301
3 282 76 297
3 301 22 282
3 303 302 299
3 299 82 303
3 302 81 299
3 303 3 302
3 306 304 305
3 305 85 306
3 304 84 305
3 306 83 304
3 308 307 305
3 305 84 308
3 307 85 305
3 308 26 307
3 310 309 304
3 304 83 310
3 309 84 304
3 310 24 309
3 312 311 306
3 306 85 312
3 311 83 306
3 312 25 311
3 315 313 314
3 314 77 315
3 313 84 314
3 315 86 313
3 309 287 314
3 314 84 309
3 287 77 314
3 309 24 287
3 316 308 313
3 313 86 316
3 308 84 313
3 316 26 308
3 288 317 315
3 315 77 288
3 317 86 315
3 288 0 317
3 320 318 319
3 319 87 320
3 318 83 319
3 320 82 318
3 311 321 319
3 319 83 311
3 321 87 319
3 311 25 321
3 300 310 318
3 318 82 300
3 310 83 318
3 300 24 310
3 322 303 320
3 320 87 322
3 303 82 320
3 322 3 303
3 325 323 324
3 324 89 325
3 323 85 324
3 325 88 323
3 307 326 324
3 324 85 307
3 326 89 324
3 307 26 326
3 327 312 323
3 323 88 327
3 312 85 323
3 327 25 312
3 329 328 325
3 325 89 329
3 328 88 325
3 329 5 328
3 332 330 331
3 331 92 332
3 330 91 331
3 332 90 330
3 334 333 331
3 331 91 334
3 333 92 331
3 334 29 333
3 336 335 330
3 330 90 336
3 335 91 330
3 336 28 335
3 338 337 332
3 332 92 338
3 337 90 332
3 338 27 337
3 341 339 340
3 340 94 341
3 339 91 340
3 341 93 339
3 335 342 340
3 340 91 335
3 342 94 340
3 335 28 342
3 343 334 339
3 339 93 343
3 334 91 339
3 343 29 334
3 345 344 341
3 341 94 345
3 344 93 341
3 345 2 344
3 348 346 347
3 347 96 348
3 346 90 347
3 348 95 346
3 337 349 347
3 347 90 337
3 349 96 347
3 337 27 349
3 350 336 346
3 346 95 350
3 336 90 346
3 350 28 336
3 352 351 348
3 348 96 352
3 351 95 348
3 352 7 351
3 355 353 354
3 354 98 355
3 353 92 354
3 355 97 353
3 333 356 354
3 354 92 333
3 356 98 354
3 333 29 356
3 357 338 353
3 353 97 357
3 338 92 353
3 357 27 338
3 359 358 355
3 355 98 359
3 358 97 355
3 359 1 358
3 362 360 361
3 361 101 362
3 360 100 361
3 362 99 360
3 364 363 361
3 361 100 364
3 363 101 361
3 364 31 363
3 366 365 360
3 360 99 366
3 365 100 360
3 366 29 365
3 368 367 362
3 362 101 368
3 367 99 362
3 368 30 367
3 371 369 370
3 370 93 371
3 369 100 370
3 371 102 369
3 365 343 370
3 370 100 365
3 343 93 370
3 365 29 343
3 372 364 369
3 369 102 372
3 364 100 369
3 372 31 364
3 344 373 371
3 371 93 344
3 373 102 371
3 344 2 373
3 376 374 375
3 375 103 376
3 374 99 375
3 376 98 374
3 367 377 375
3 375 99 367
3 377 103 375
3 367 30 377
3 356 366 374
3 374 98 356
3 366 99 374
3 356 29 366
3 378 359 376
3 376 103 378
3 359 98 376
3 378 1 359
3 381 379 380
3 380 105 381
3 379 101 380
3 381 104 379
3 363 382 380
3 380 101 363
3 382 105 380
3 363 31 382
3 383 368 379
3 379 104 383
3 368 101 379
3 383 30 368
3 385 384 381
3 381 105 385
3 384 104 381
3 385 6 384
3 388 386 387
3 387 108 388
3 386 107 387
3 388 106 386
3 390 389 387
3 387 107 390
3 389 108 387
3 390 34 389
3 392 391 386
3 386 106 392
3 391 107 386
3 392 33 391
3 394 393 388
3 388 108 394
3 393 106 388
3 394 32 393
3 397 395 396
3 396 110 397
3 395 107 396
3 397 109 395
3 391 398 396
3 396 107 391
3 398 110 396
3 391 33 398
3 399 390 395
3 395 109 399
3 390 107 395
3 399 34 390
3 401 400 397
3 397 110 401
3 400 109 397
3 401 8 400
3 404 402 403
3 403 112 404
3 402 106 403
3 404 111 402
3 393 405 403
3 403 106 393
3 405 112 403
3 393 32 405
3 406 392 402
3 402 111 406
3 392 106 402
3 406 33 392
3 408 407 404
3 404 112 408
3 407 111 404
3 408 0 407
3 411 409 410
3 410 114 411
3 409 108 410
3 411 113 409
3 389 412 410
3 410 108 389
3 412 114 410
3 389 34 412
3 413 394 409
3 409 113 413
3 394 108 409
3 413 32 394
3 415 414 411
3 411 114 415
3 414 113 411
3 415 11 414
3 418 416 417
3 417 117 418
3 416 116 417
3 418 115 416
3 420 419 417
3 417 116 420
3 419 117 417
3 420 36 419
3 422 421 416
3 416 115 422
3 421 116 416
3 422 34 421
3 424 423 418
3 418 117 424
3 423 115 418
3 424 35 423
3 427 425 426
3 426 109 427
3 425 116 426
3 427 118 425
3 421 399 426
3 426 116 421
3 399 109 426
3 421 34 399
3 428 420 425
3 425 118 428
3 420 116 425
3 428 36 420
3 400 429 427
3 427 109 400
3 429 118 427
3 400 8 429
3 432 430 431
3 431 119 432
3 430 115 431
3 432 114 430
3 423 433 431
3 431 115 423
3 433 119 431
3 423 35 433
3 412 422 430
3 430 114 412
3 422 115 430
3 412 34 422
3 434 415 432
3 432 119 434
3 415 114 432
3 434 11 415
3 437 435 436
3 436 121 437
3 435 117 436
3 437 120 435
3 419 438 436
3 436 117 419
3 438 121 436
3 419 36 438
3 439 424 435
3 435 120 439
3 424 117 435
3 439 35 424
3 441 440 437
3 437 121 441
3 440 120 437
3 441 1 440
3 444 442 443
3 443 124 444
3 442 123 443
3 444 122 442
3 446 445 443
3 443 123 446
3 445 124 443
3 446 39 445
3 448 447 442
3 442 122 448
3 447 123 442
3 448 38 447
3 450 449 444
3 444 124 450
3 449 122 444
3 450 37 449
3 453 451 452
3 452 126 453
3 451 123 452
3 453 125 451
3 447 454 452
3 452 123 447
3 454 126 452
3 447 38 454
3 455 446 451
3 451 125 455
3 446 123 451
3 455 39 446
3 457 456 453
3 453 126 457
3 456 125 453
3 457 9 456
3 460 458 459
3 459 128 460
3 458 122 459
3 460 127 458
3 449 461 459
3 459 122 449
3 461 128 459
3 449 37 461
3 462 448 458
3 458 127 462
3 448 122 458
3 462 38 448
3 464 463 460
3 460 128 464
3 463 127 460
3 464 10 463
3 467 465 466
3 466 130 467
3 465 124 466
3 467 129 465
3 445 468 466
3 466 124 445
3 468 130 466
3 445 39 468
3 469 450 465
3 465 129 469
3 450 124 465
3 469 37 450
3 471 470 467
3 467 130 471
3 470 129 467
3 471 3 470
3 474 472 473
3 473 133 474
3 472 132 473
3 474 131 472
3 476 475 473
3 473 132 476
3 475 133 473
3 476 38 475
3 478 477 472
3 472 131 478
3 477 132 472
3 478 41 477
3 480 479 474
3 474 133 480
3 479 131 474
3 480 40 479
3 483 481 482
3 482 134 483
3 481 132 482
3 483 126 481
3 477 484 482
3 482 132 477
3 484 134 482
3 477 41 484
3 454 476 481
3 481 126 454
3 476 132 481
3 454 38 476
3 485 457 483
3 483 134 485
3 457 126 483
3 485 9 457
3 488 486 487
3 487 136 488
3 486 131 487
3 488 135 486
3 479 489 487
3 487 131 479
3 489 136 487
3 479 40 489
3 490 478 486
3 486 135 490
3 478 131 486
3 490 41 478
3 492 491 488
3 488 136 492
3 491 135 488
3 492 2 491
3 495 493 494
3 494 127 495
3 493 133 494
3 495 137 493
3 475 462 494
3 494 133 475
3 462 127 494
3 475 38 462
3 496 480 493
3 493 137 496
3 480 133 493
3 496 40 480
3 463 497 495
3 495 127 463
3 497 137 495
3 463 10 497
3 500 498 499
3 499 140 500
3 498 139 499
3 500 138 498
3 502 501 499
3 499 139 502
3 501 140 499
3 502 33 501
3 504 503 498
3 498 138 504
3 503 139 498
3 504 13 503
3 506 505 500
3 500 140 506
3 505 138 500
3 506 23 505
3 509 507 508
3 508 47 509
3 507 139 508
3 509 110 507
3 503 182 508
3 508 139 503
3 182 47 508
3 503 13 182
3 398 502 507
3 507 110 398
3 502 139 507
3 398 33 502
3 183 401 509
3 509 47 183
3 401 110 509
3 183 8 401
3 512 510 511
3 511 79 512
3 510 138 511
3 512 46 510
3 505 294 511
3 511 138 505
3 294 79 511
3 505 23 294
3 174 504 510
3 510 46 174
3 504 138 510
3 174 13 504
3 295 177 512
3 512 79 295
3 177 46 512
3 295 4 177
3 515 513 514
3 514 111 515
3 513 140 514
3 515 78 513
3 501 406 514
3 514 140 501
3 406 111 514
3 501 33 406
3 286 506 513
3 513 78 286
3 506 140 513
3 286 23 506
3 407 289 515
3 515 111 407
3 289 78 515
3 407 0 289
3 518 516 517
3 517 143 518
3 516 142 517
3 518 141 516
3 520 519 517
3 517 142 520
3 519 143 517
3 520 19 519
3 522 521 516
3 516 141 522
3 521 142 516
3 522 32 521
3 524 523 518
3 518 143 524
3 523 141 518
3 524 26 523
3 527 525 526
3 526 113 527
3 525 142 526
3 527 66 525
3 521 413 526
3 526 142 521
3 413 113 526
3 521 32 413
3 244 520 525
3 525 66 244
3 520 142 525
3 244 19 520
3 414 247 527
3 527 113 414
3 247 66 527
3 414 11 247
3 530 528 529
3 529 86 530
3 528 141 529
3 530 112 528
3 523 316 529
3 529 141 523
3 316 86 529
3 523 26 316
3 405 522 528
3 528 112 405
3 522 141 528
3 405 32 522
3 317 408 530
3 530 86 317
3 408 112 530
3 317 0 408
3 533 531 532
3 532 61 533
3 531 143 532
3 533 89 531
3 519 231 532
3 532 143 519
3 231 61 532
3 519 19 231
3 326 524 531
3 531 89 326
3 524 143 531
3 326 26 524
3 232 329 533
3 533 61 232
3 329 89 533
3 232 5 329
3 536 534 535
3 535 146 536
3 534 145 535
3 536 144 534
3 538 537 535
3 535 145 538
3 537 146 535
3 538 22 537
3 540 539 534
3 534 144 540
3 539 145 534
3 540 16 539
3 542 541 536
3 536 146 542
3 541 144 536
3 542 39 541
3 545 543 544
3 544 54 545
3 543 145 544
3 545 80 543
3 539 204 544
3 544 145 539
3 204 54 544
3 539 16 204
3 293 538 543
3 543 80 293
3 538 145 543
3 293 22 538
3 205 296 545
3 545 54 205
3 296 80 545
3 205 4 296
3 548 546 547
3 547 125 548
3 546 144 547
3 548 57 546
3 541 455 547
3 547 144 541
3 455 125 547
3 541 39 455
3 214 540 546
3 546 57 214
3 540 144 546
3 214 16 540
3 456 217 548
3 548 125 456
3 217 57 548
3 456 9 217
3 551 549 550
3 550 81 551
3 549 146 550
3 551 130 549
3 537 301 550
3 550 146 537
3 301 81 550
3 537 22 301
3 468 542 549
3 549 130 468
3 542 146 549
3 468 39 542
3 302 471 551
3 551 81 302
3 471 130 551
3 302 3 471
3 554 552 553
3 553 149 554
3 552 148 553
3 554 147 552
3 556 555 553
3 553 148 556
3 555 149 553
3 556 21 555
3 558 557 552
3 552 147 558
3 557 148 552
3 558 25 557
3 560 559 554
3 554 149 560
3 559 147 554
3 560 37 559
3 563 561 562
3 562 88 563
3 561 148 562
3 563 70 561
3 557 327 562
3 562 148 557
3 327 88 562
3 557 25 327
3 260 556 561
3 561 70 260
3 556 148 561
3 260 21 556
3 328 261 563
3 563 88 328
3 261 70 563
3 328 5 261
3 566 564 565
3 565 129 566
3 564 147 565
3 566 87 564
3 559 469 565
3 565 147 559
3 469 129 565
3 559 37 469
3 321 558 564
3 564 87 321
3 558 147 564
3 321 25 558
3 470 322 566
3 566 129 470
3 322 87 566
3 470 3 322
3 569 567 568
3 568 71 569
3 567 149 568
3 569 128 567
3 555 266 568
3 568 149 555
3 266 71 568
3 555 21 266
3 461 560 567
3 567 128 461
3 560 149 567
3 461 37 560
3 267 464 569
3 569 71 267
3 464 128 569
3 267 10 464
3 572 570 571
3 571 152 572
3 570 151 571
3 572 150 570
3 574 573 571
3 571 151 574
3 573 152 571
3 574 27 573
3 576 575 570
3 570 150 576
3 575 151 570
3 576 12 575
3 578 577 572
3 572 152 578
3 577 150 572
3 578 36 577
3 581 579 580
3 580 49 581
3 579 151 580
3 581 96 579
3 575 189 580
3 580 151 575
3 189 49 580
3 575 12 189
3 349 574 579
3 579 96 349
3 574 151 579
3 349 27 574
3 190 352 581
3 581 49 190
3 352 96 581
3 190 7 352
3 584 582 583
3 583 118 584
3 582 150 583
3 584 48 582
3 577 428 583
3 583 150 577
3 428 118 583
3 577 36 428
3 181 576 582
3 582 48 181
3 576 150 582
3 181 12 576
3 429 184 584
3 584 118 429
3 184 48 584
3 429 8 184
3 587 585 586
3 586 97 587
3 585 152 586
3 587 121 585
3 573 357 586
3 586 152 573
3 357 97 586
3 573 27 357
3 438 578 585
3 585 121 438
3 578 152 585
3 438 36 578
3 358 441 587
3 587 97 358
3 441 121 587
3 358 1 441
3 590 588 589
3 589 155 590
3 588 154 589
3 590 153 588
3 592 591 589
3 589 154 592
3 591 155 589
3 592 17 591
3 594 593 588
3 588 153 594
3 593 154 588
3 594 30 593
3 596 595 590
3 590 155 596
3 595 153 590
3 596 35 595
3 599 597 598
3 598 104 599
3 597 154 598
3 599 64 597
3 593 383 598
3 598 154 593
3 383 104 598
3 593 30 383
3 237 592 597
3 597 64 237
3 592 154 597
3 237 17 592
3 384 240 599
3 599 104 384
3 240 64 599
3 384 6 240
3 602 600 601
3 601 120 602
3 600 153 601
3 602 103 600
3 595 439 601
3 601 153 595
3 439 120 601
3 595 35 439
3 377 594 600
3 600 103 377
3 594 153 600
3 377 30 594
3 440 378 602
3 602 120 440
3 378 103 602
3 440 1 378
3 605 603 604
3 604 65 605
3 603 155 604
3 605 119 603
3 591 245 604
3 604 155 591
3 245 65 604
3 591 17 245
3 433 596 603
3 603 119 433
3 596 155 603
3 433 35 596
3 246 434 605
3 605 65 246
3 434 119 605
3 246 11 434
3 608 606 607
3 607 158 608
3 606 157 607
3 608 156 606
3 610 609 607
3 607 157 610
3 609 158 607
3 610 15 609
3 612 611 606
3 606 156 612
3 611 157 606
3 612 28 611
3 614 613 608
3 608 158 614
3 613 156 608
3 614 41 613
3 617 615 616
3 616 95 617
3 615 157 616
3 617 55 615
3 611 350 616
3 616 157 611
3 350 95 616
3 611 28 350
3 209 610 615
3 615 55 209
3 610 157 615
3 209 15 610
3 351 210 617
3 617 95 351
3 210 55 617
3 351 7 210
3 620 618 619
3 619 135 620
3 618 156 619
3 620 94 618
3 613 490 619
3 619 156 613
3 490 135 619
3 613 41 490
3 342 612 618
3 618 94 342
3 612 156 618
3 342 28 612
3 491 345 620
3 620 135 491
3 345 94 620
3 491 2 345
3 623 621 622
3 622 56 623
3 621 158 622
3 623 134 621
3 609 215 622
3 622 158 609
3 215 56 622
3 609 15 215
3 484 614 621
3 621 134 484
3 614 158 621
3 484 41 614
3 216 485 623
3 623 56 216
3 485 134 623
3 216 9 485
3 626 624 625
3 625 161 626
3 624 160 625
3 626 159 624
3 628 627 625
3 625 160 628
3 627 161 625
3 628 31 627
3 630 629 624
3 624 159 630
3 629 160 624
3 630 20 629
3 632 631 626
3 626 161 632
3 631 159 626
3 632 40 631
3 635 633 634
3 634 73 635
3 633 160 634
3 635 105 633
3 629 272 634
3 634 160 629
3 272 73 634
3 629 20 272
3 382 628 633
3 633 105 382
3 628 160 633
3 382 31 628
3 273 385 635
3 635 73 273
3 385 105 635
3 273 6 385
3 638 636 637
3 637 137 638
3 636 159 637
3 638 72 636
3 631 496 637
3 637 159 631
3 496 137 637
3 631 40 496
3 265 630 636
3 636 72 265
3 630 159 636
3 265 20 630
3 497 268 638
3 638 137 497
3 268 72 638
3 497 10 268
3 641 639 640
3 640 102 641
3 639 161 640
3 641 136 639
3 627 372 640
3 640 161 627
3 372 102 640
3 627 31 372
3 489 632 639
3 639 136 489
3 632 161 639
3 489 40 632
3 373 492 641
3 641 102 373
3 492 136 641
3 373 2 492
