# vtk DataFile Version 3.0
this file was written using fslvtkio
ASCII
DATASET POLYDATA
POINTS 732 float
153.566 131.255 133.205
152.279 130.909 132.149
153.47 131.217 131.556
154.563 131.237 131.329
155.132 131.222 133.42
156.008 130.947 131.52
156.591 130.795 133.298
157.482 130.277 132.175
152.632 130.989 134.664
151.35 130.615 134.085
154.292 130.808 135.19
155.918 130.578 135.018
157.552 129.745 133.837
151.384 130.523 135.977
149.664 129.292 136.067
150.242 129.905 134.732
152.83 130.521 136.334
154.133 129.614 136.559
155.655 129.338 136.147
157.055 129.287 135.274
150.928 129.035 136.996
149.778 127.877 137.059
152.448 129.099 137.006
153.816 128.177 136.73
155.181 127.6 136.013
156.841 128.101 135.759
151.15 127.502 137.121
152.721 127.285 136.95
153.534 130.829 129.997
151.654 130.041 129.933
152.421 130.017 128.521
154.224 130.517 128.248
155.399 131.079 129.806
156.138 130.561 128.49
157.168 130.389 130.373
157.705 130.051 128.856
158.566 129.554 130.323
159.283 129.317 129.067
151.273 130.181 131.431
149.338 129.154 131.543
149.863 129.225 130.234
158.57 129.228 132.029
159.61 128.23 130.513
149.301 129.1 132.936
147.455 128.191 133.453
147.489 128.334 132.05
150.568 129.862 133.307
158.776 128.321 133.116
159.466 127.77 131.966
148.71 128.89 134.697
147.369 127.507 135.074
159.151 126.664 133.178
157.903 127.953 134.349
148.553 127.998 136.273
147.576 126.627 136.304
153.957 126.984 136.303
153.963 125.64 135.464
152.773 126.089 136.498
155.485 126.03 135.191
156.727 126.833 135.08
149.282 126.45 137.09
151.14 125.922 136.834
157.516 130.195 125.84
155.773 130.311 125.301
156.796 129.977 124.196
158.364 129.882 124.291
159.215 129.659 125.846
159.98 129.627 124.429
150.992 129.189 127.152
149.694 128.492 126.721
151.045 128.626 126.018
152.401 129.005 125.622
153.13 129.987 126.921
154.211 129.734 125.363
155.379 130.353 126.802
157.206 130.212 127.393
158.974 129.548 127.511
160.547 128.98 125.668
160.46 128.797 127.103
161.627 127.981 125.776
148.474 128.668 128.777
146.998 127.994 128.332
148.412 128.277 127.456
150.429 129.059 128.851
160.306 128.38 128.672
161.405 127.434 127.531
146.171 127.908 130.293
144.586 126.841 130.284
145.826 127.678 129.198
147.76 128.576 130.58
160.203 126.834 130.012
160.799 126.498 128.738
145.68 127.203 132.218
144 126.202 132.104
160.276 125.316 129.893
159.852 126.38 131.495
144.531 125.93 133.97
143.968 123.914 133.668
142.903 124.905 132.807
146.101 127.247 134.055
158.861 125.24 132.397
157.943 126.341 134.031
145.653 124.346 134.764
146.076 125.828 135.32
146.757 124.307 135.789
152.432 125.363 135.719
152.007 124.599 134.678
151.018 125.069 135.911
153.356 124.518 134.02
154.804 125.038 134.096
156.407 125.509 134.061
147.709 125.305 136.621
149.615 124.852 136.548
155.193 129.298 122.657
153.83 128.353 122.278
154.882 128.773 121.69
156.1 129.317 121.421
157.375 129.638 122.727
158.041 129.56 121.36
159.341 129.451 123.01
159.781 129.207 121.469
160.953 128.827 122.93
161.459 128.242 121.965
151.011 128.37 124.72
149.627 127.712 124.434
150.891 127.772 123.424
152.26 127.906 122.999
153.347 128.929 123.98
155.211 129.589 123.972
161.15 128.77 124.276
162.162 127.627 124.015
148.259 127.792 126.482
147.155 126.957 126.215
148.444 127.335 125.2
162.03 126.509 125.911
145.496 127.046 128.241
144.292 125.427 127.941
145.785 126.058 126.766
161.52 125.871 127.481
143.76 125.94 129.309
142.244 124.273 130.165
143.141 123.918 128.861
160.784 124.756 128.474
142.831 125.259 131.205
142.435 123.008 132.22
159.941 123.507 129.463
159.676 124.751 131.055
144.192 122.391 132.883
154.427 124.038 132.819
153.419 123.03 131.936
152.963 123.86 132.877
155.994 124.25 133.018
155.265 123.147 131.909
157.563 125.011 133.075
157.122 123.798 131.993
158.503 123.869 131.366
145.624 123.257 133.928
148.605 124.198 135.408
147.342 123.342 134.433
150.255 124.483 135.183
149.83 123.842 134.206
151.636 123.96 133.343
154.656 128.38 120.603
153.232 127.274 119.952
154.458 127.75 119.462
155.572 128.323 119.148
156.795 129.088 120.151
157.728 128.696 118.917
158.814 129.165 119.976
159.917 128.245 118.946
160.598 128.736 120.38
161.655 127.596 120.245
150.868 127.151 122.187
149.303 126.573 122.467
149.896 126.259 120.906
151.343 126.767 120.185
152.74 127.443 121.432
162.225 127.145 121.852
148.581 126.891 123.958
147.279 125.107 123.902
148.261 125.563 122.934
162.625 126.392 123.065
162.681 126.047 124.464
162.903 124.787 122.876
146.85 125.941 125.228
145.205 124.736 126.39
146.07 124.146 124.979
162.463 125.153 125.536
162.814 124.159 124.278
144.252 123.581 127.599
161.929 123.687 125.573
161.651 124.65 126.866
142.148 122.401 130.436
143.605 122.309 128.472
160.772 123.411 127.753
143.634 121.327 131.576
156.065 122.221 131.181
154.651 120.814 130.097
154.462 121.74 131.114
157.541 122.766 130.803
156.542 121.404 130.265
158.965 123.361 130.418
158.242 121.993 129.48
159.607 122.552 128.482
145.303 121.59 132.138
148.955 123.063 133.248
148.312 122.049 132.07
147.55 122.721 133.07
150.552 123.116 132.751
149.589 122.15 131.745
152.004 123.123 132.361
151.244 122.036 131.592
152.927 121.902 131.267
146.194 122.506 133.143
154.239 127.315 118.285
152.909 126.213 117.556
153.881 126.941 117.064
155.035 127.469 116.787
156.257 128.071 117.886
157.141 127.785 116.636
158.331 128.177 117.735
159.216 127.207 116.695
159.506 127.704 117.847
160.533 127.034 117.883
152.487 126.402 119.009
150.944 125.62 118.701
152 125.794 118.205
161.536 126.816 119.159
162.582 126.108 120.439
162.557 124.968 119.376
148.473 125.556 121.652
147.583 124.092 122.45
148.623 124.43 120.509
149.938 125.549 119.653
162.97 125.634 121.741
162.848 124.115 121.057
146.728 123.123 123.733
162.759 123.18 122.581
144.903 122.917 126.08
146.094 122.205 124.901
162.532 122.613 124.258
144.864 121.727 127.208
161.958 122.571 125.294
161.11 122.598 126.427
143.306 121.237 129.914
144.75 121.016 128.253
158.688 121.419 127.892
157.6 120.283 127.162
157.454 120.82 128.646
160.058 122.267 127.311
159.467 121.005 126.675
144.882 120.528 130.432
146.076 121.103 131.124
148.195 121.251 130.968
146.924 120.321 130.233
150.083 121.226 130.646
148.756 120.165 129.9
151.72 121.088 130.347
150.431 120.089 129.414
153.285 121.126 130.361
152.378 120.288 129.372
154.285 120.05 129.056
156.18 120.631 129.266
146.869 121.645 131.923
153.665 126.167 116.1
152.603 125.302 115.602
153.633 125.878 114.866
154.691 126.495 114.6
155.747 127.228 115.518
156.696 126.792 114.465
157.696 127.395 115.49
158.575 126.461 114.551
159 126.868 115.535
160.178 126.186 115.465
151.419 125.323 117.329
150.295 124.615 116.952
151.567 124.862 116.324
161.021 126.088 116.738
161.826 125.777 118.167
162.314 124.521 117.488
149.426 124.271 118.831
149.034 122.661 118.398
149.211 123.956 117.577
162.587 123.462 119.311
147.881 122.874 121.485
148.799 122.647 120.272
162.726 122.521 121.007
147.442 121.877 122.933
148.345 121.377 121.872
162.337 121.806 122.853
145.918 120.957 125.977
147.096 120.789 124.307
161.706 121.621 124.799
161.707 121.179 123.659
160.743 120.579 124.273
146.455 120.279 127.432
147.247 119.751 125.892
160.627 121.08 125.831
159.606 120.068 124.885
158.998 120.147 125.869
145.623 120.356 129.076
147.415 120.046 128.859
148.2 119.693 127.074
148.964 119.921 128.203
151.173 119.595 128.339
149.883 119.585 127.082
152.981 119.625 128.121
151.729 119.507 126.944
154.816 119.842 127.888
153.633 119.456 126.779
156.314 120.123 127.798
155.515 119.586 126.617
157.393 119.827 126.093
155.749 125.941 112.383
154.424 125.496 111.779
155.649 125.62 111.261
156.954 125.52 111.188
157.972 125.537 112.529
158.421 124.999 111.511
153.616 125.669 113.631
151.976 124.528 113.949
152.761 124.792 112.592
155.625 126.409 113.529
157.653 126.188 113.368
159.459 125.218 112.672
159.985 125.654 114.017
160.945 124.729 112.913
161.46 124.558 114.457
161.798 123.368 113.87
151.399 124.496 115.386
149.886 123.597 115.24
150.478 123.633 114.08
161.631 125.145 115.778
162.163 123.498 115.871
149.346 123.462 116.521
148.614 122.211 116.079
149.052 123.045 115.378
162.484 122.907 117.64
149.442 121.45 117.53
149.822 121.419 118.845
150.831 120.443 118.376
162.515 121.975 119.325
149.552 121.314 120.062
150.587 120.51 119.632
162.167 121.242 121.199
148.459 120.09 123.303
149.274 120.416 121.634
161.408 120.677 122.767
161.3 120.314 121.791
160.209 119.67 122.448
148.612 119.449 124.817
149.823 119.22 123.057
150.55 119.105 124.502
152.698 118.964 124.42
151.492 118.634 123.328
154.586 118.867 124.27
153.292 118.554 123.131
156.287 118.772 124.197
155.149 118.445 123.048
158.003 119.051 123.882
156.864 118.562 122.977
159.611 119.827 123.752
158.672 118.96 122.682
148.764 119.322 126.173
150.23 119.265 125.837
152.201 119.266 125.64
154.034 119.212 125.469
155.801 119.114 125.32
157.724 119.346 124.933
155.75 124.993 110.232
153.864 124.882 110.07
154.853 124.699 108.959
156.564 124.486 108.886
157.93 124.473 110.332
158.391 123.746 108.894
159.69 123.998 110.533
159.927 123.408 109.557
151.274 123.728 111.425
150.01 122.957 110.896
151.11 123.448 110.284
152.151 124.217 110.025
153.187 124.904 111.189
159.866 124.523 111.614
160.831 123.291 111.096
161.223 123.652 112.245
161.573 122.284 112.149
149.446 122.777 112.716
147.831 121.594 113.135
148.455 122.052 111.745
150.995 123.576 112.83
162.186 122.189 114.281
148.828 122.585 114.289
148.183 120.808 114.473
162.415 121.952 116.104
149.002 120.793 115.707
149.255 121.179 116.621
150.365 120.296 116.849
162.174 121.24 117.757
151.798 119.578 119.524
151.66 119.754 117.671
152.875 118.953 118.293
161.963 120.645 119.606
150.677 119.951 120.803
152.331 118.917 120.821
153.22 118.755 119.519
161.206 119.931 120.905
161.089 119.446 119.658
160.078 119.058 120.382
150.648 119.373 121.998
152.207 118.909 122.05
153.782 118.534 120.666
154.112 118.59 121.869
156.102 118.344 121.802
155.295 118.218 120.583
157.871 118.62 121.554
157.045 118.164 120.35
159.524 119.187 121.402
158.651 118.437 120.226
152.866 124.118 107.553
151.683 123.467 106.914
152.826 123.958 106.219
154.127 124.004 106.162
154.987 124.436 107.682
155.943 123.726 106.285
156.973 123.978 107.645
157.724 123.263 106.578
158.474 123.389 107.599
159.542 122.123 107.363
151.05 123.33 109.096
149.139 121.91 109.316
150.313 122.526 108.017
153.168 124.397 108.84
159.882 122.577 108.744
160.821 122.592 110.381
160.868 121.66 110.432
148.907 122.135 110.435
147.138 120.999 111.572
147.175 120.761 109.985
161.739 120.919 112.398
147.406 119.702 112.831
162.046 120.654 114.29
148.826 119.601 113.794
149.809 119.735 115.184
151.404 119.264 115.104
150.439 119.006 113.976
152.325 118.663 114.341
162.049 120.373 115.896
151.466 119.61 116.218
152.626 118.807 115.769
161.4 119.794 117.15
160.817 119.275 115.517
160.238 118.837 116.533
154.468 118.231 118.255
153.114 118.68 116.991
156.128 117.844 118.058
154.725 117.887 116.975
156.28 117.81 116.547
159.859 118.774 117.925
158.957 118.419 116.302
158.444 118.171 117.521
161.341 119.845 118.533
154.715 118.127 119.502
156.308 117.972 119.299
157.293 117.97 117.49
158.116 118.022 118.955
159.908 118.699 119.29
153.094 123.343 105.172
151.447 122.763 105.105
152.57 122.713 103.682
154.301 122.614 103.649
155.143 123.226 105
156.225 122.34 103.82
157 123.036 105.293
157.831 121.993 104.77
158.59 122.435 106.052
159.173 121.27 105.82
148.914 121.269 106.96
147.822 120.538 106.696
148.877 121.054 105.654
149.907 121.798 105.306
150.62 122.601 106.536
159.988 120.356 107.249
146.638 120.237 108.739
145.094 119.068 108.838
146.276 119.637 107.403
148.73 121.396 108.319
160.332 121.112 108.735
160.677 120.561 110.227
145.64 118.708 110.587
146.876 118.735 111.18
161.057 119.935 111.303
160.667 119.569 109.944
160.179 118.854 110.667
148.319 118.577 112.013
149.731 118.899 112.85
151.837 118.414 113.073
150.32 117.962 111.807
153.596 118.037 112.912
152.129 117.802 111.652
153.646 117.924 111.505
161.057 119.603 112.567
159.54 118.773 111.86
153.873 118.092 114.341
154.953 118.332 112.354
155.692 118.339 113.709
157.741 118.762 113.405
156.343 118.647 112.143
159.588 118.987 113.27
158.005 118.69 111.955
160.991 119.53 114.242
153.984 117.984 115.779
155.529 117.856 115.342
157.116 118.48 114.53
159.206 118.73 114.766
157.621 118.231 115.709
150.942 121.521 102.508
149.626 120.693 102.197
150.855 121.124 101.425
152.385 121.135 101.264
153.244 121.936 102.386
154.416 120.862 101.167
155.239 121.828 102.469
155.95 120.426 101.709
156.894 121.271 102.868
157.327 119.718 102.579
149.081 120.94 104.218
146.952 120.041 104.251
148.384 120.518 103.329
150.915 122.369 103.546
158.106 120.873 104.081
159.161 119.819 105.498
146.95 119.999 105.972
144.837 117.896 107.305
145.463 119.626 105.793
159.271 119.008 106.656
145.349 117.192 108.799
160.022 119.488 108.767
159.158 118.841 107.876
145.804 117.608 109.979
148.962 117.477 111.027
147.473 117.171 110.366
151.111 116.994 110.742
149.643 116.742 109.832
153.244 117.424 110.386
151.694 116.796 109.299
155.378 117.871 109.826
153.82 117.429 108.841
157.282 118.144 109.519
155.853 117.827 108.312
159.144 118.429 109.292
157.699 117.948 108.153
155.031 118.193 110.876
156.72 118.574 110.78
158.465 118.561 110.65
150.838 120.454 100.513
149.111 119.888 100.552
150.514 119.922 99.5139
152.145 119.773 98.9466
153.152 120.448 100.066
154.075 119.355 99.0667
154.881 119.729 100.231
155.559 118.052 99.7981
147.755 119.971 102.566
146.324 119.255 102.803
147.703 119.485 101.491
156.029 119.027 101.102
156.836 118.267 102.404
143.211 118.388 105.573
142.472 116.758 104.669
143.233 118.426 103.857
144.716 118.858 103.266
144.846 119.369 105.007
158.404 119.279 104.083
157.549 118.13 103.862
143.164 116.768 106.88
146.479 116.21 108.091
145.012 115.806 106.938
148.526 116.113 107.734
147.165 115.719 106.775
149.209 115.893 106.3
158.389 118.367 105.411
157.19 117.51 105.323
146.887 116.445 109.403
148.578 116.256 109.078
150.349 116.169 106.989
150.748 116.384 108.127
152.828 116.819 107.699
152.122 116.363 106.382
154.882 117.491 107.256
153.799 116.819 106.121
157.031 117.618 106.778
155.686 117.233 105.828
158.503 118.091 106.988
150.032 119.337 98.628
148.668 119.024 98.2063
149.666 118.378 96.1272
151.094 118.694 96.7009
152.102 118.962 97.9188
153.008 117.764 96.7847
147.794 119.153 100.212
146.909 118.434 99.4804
147.848 118.666 98.6531
153.972 118.253 98.2502
154.99 116.982 99.0818
143.815 117.989 102.436
142.517 116.954 102.672
143.879 117.544 101.245
145.321 117.893 100.634
145.964 118.671 101.593
156.05 117.158 101.722
155.313 116.182 101.079
143.603 115.606 103.889
143.452 115.742 105.772
145.125 115.408 105.113
146.008 115.34 103.517
147.103 115.177 104.042
154.997 116.242 103.427
154.47 115.731 102.361
153.132 115.524 103.537
156.476 117.295 103.228
146.791 115.493 105.533
151.06 115.688 105.509
148.959 115.385 105.173
153.146 116.058 104.835
151.207 115.258 104.373
154.793 116.764 104.919
156.173 117.151 104.44
148.039 118.114 96.9715
147.064 117.332 96.7729
148.527 116.985 95.1519
150.466 117.089 94.9024
151.803 117.297 95.7607
152.988 115.906 96.5555
144.364 117.25 99.7854
143.608 116.523 98.9304
144.646 116.719 97.9593
145.7 117.017 97.453
146.212 117.768 98.6329
154.075 116.498 97.7479
154.354 115.732 99.6912
142.513 116.651 101.058
142.073 114.854 100.885
142.336 116.185 99.613
153.782 115.345 101.463
153.575 115.114 100.051
152.737 114.705 100.726
142.815 115.37 102.636
144.455 114.775 102.331
146.044 114.718 102.375
148.71 114.881 103.904
147.885 114.372 102.537
150.555 114.908 103.433
149.59 114.141 102.289
152.226 115.073 102.629
151.299 114.375 101.622
144.969 116.19 96.1697
143.589 115.768 96.3841
144.954 115.048 94.7492
146.952 115.762 94.6729
146.653 116.638 95.8302
148.696 115.16 94.2385
150.054 115.527 94.4456
151.55 115.521 95.2596
152.328 114.471 96.419
141.685 115.195 99.0379
140.496 114.531 98.4124
141.407 114.777 97.5767
142.263 115.259 96.9326
142.985 115.856 98.3174
153.442 114.978 98.5888
152.604 114.08 97.9819
141.633 113.542 99.9141
143.924 114.08 101.392
143.325 113.046 100.324
145.823 113.874 101.222
145.107 112.644 100.269
147.541 113.534 101.307
146.876 112.448 100.181
149.165 113.369 100.883
148.298 112.33 99.9146
150.605 113.676 100.416
149.616 112.402 99.1823
152.088 114.133 99.7144
151.119 113.14 99.0015
141.157 114.371 95.9496
139.74 112.874 95.7013
141.993 112.76 94.9301
143.327 113.632 94.5239
143.041 114.963 95.3133
145.107 113.438 94.089
146.54 114.161 94.0638
148.171 113.516 93.7748
149.879 113.717 94.2247
151.156 113.779 95.5845
150.486 112.663 95.6095
139.681 114.081 97.1461
138.876 112.994 98.2408
138.735 112.333 96.6068
150.814 112.5 97.5156
149.763 111.735 96.4305
149.366 111.486 97.8314
151.968 113.447 97.4048
140.213 112.997 99.0767
141.798 111.939 99.2342
143.186 111.836 99.3506
144.807 111.406 99.3954
146.495 111.322 99.3318
148.082 111.065 98.5267
140.926 111.519 95.5856
142.481 111.037 95.2587
143.498 111.607 94.658
144.753 111.917 94.1479
146.571 112.323 93.9539
148.028 111.843 94.4998
147.378 110.43 95.1923
149.267 112.055 94.9077
139.212 111.315 98.2443
139.798 110.704 96.5104
148.647 110.726 96.3552
147.452 110.17 97.1698
140.698 111.07 98.6114
142.716 110.638 98.5238
144.393 110.241 98.4755
146.185 110.1 98.2355
141.793 110.097 96.3166
143.409 110.081 95.9076
144.668 110.484 95.3695
145.904 110.72 94.716
141.267 110.192 97.7393
143.019 109.579 97.4521
144.694 109.46 97.1622
146.085 109.632 96.3494
POLYGONS 1460  5840
3 0 1 2
3 0 3 4
3 2 3 0
3 4 5 6
3 3 5 4
3 5 7 6
3 8 1 0
3 9 1 8
3 4 10 0
3 10 8 0
3 6 11 4
3 11 10 4
3 12 6 7
3 11 6 12
3 13 14 15
3 9 13 15
3 9 8 13
3 8 16 13
3 10 17 8
3 17 16 8
3 11 18 10
3 18 17 10
3 19 11 12
3 18 11 19
3 20 14 13
3 21 14 20
3 16 22 13
3 22 20 13
3 23 17 24
3 23 22 17
3 22 16 17
3 18 24 17
3 25 24 18
3 19 25 18
3 20 26 21
3 22 26 20
3 27 26 22
3 23 27 22
3 28 29 30
3 28 31 32
3 30 31 28
3 32 33 34
3 31 33 32
3 34 35 36
3 33 35 34
3 35 37 36
3 38 39 40
3 29 38 40
3 28 38 29
3 28 1 38
3 28 2 1
3 3 2 28
3 32 3 28
3 5 3 32
3 34 5 32
3 7 5 34
3 7 34 41
3 41 34 36
3 42 36 37
3 41 36 42
3 43 44 45
3 39 43 45
3 39 38 43
3 38 46 43
3 1 9 46
3 38 1 46
3 41 47 12
3 7 41 12
3 48 41 42
3 47 41 48
3 49 44 43
3 50 44 49
3 15 14 49
3 15 49 46
3 46 49 43
3 9 15 46
3 47 51 52
3 47 52 12
3 12 52 19
3 48 51 47
3 53 50 49
3 54 50 53
3 14 21 53
3 49 14 53
3 55 56 57
3 55 23 24
3 55 24 56
3 56 24 58
3 25 59 24
3 24 59 58
3 52 25 19
3 59 25 52
3 53 60 54
3 21 60 53
3 21 26 60
3 26 61 60
3 57 27 55
3 57 61 27
3 61 26 27
3 23 55 27
3 62 63 64
3 62 65 66
3 64 65 62
3 65 67 66
3 68 69 70
3 68 71 72
3 70 71 68
3 72 73 74
3 71 73 72
3 63 74 73
3 63 62 74
3 62 75 74
3 66 76 62
3 76 75 62
3 77 66 67
3 77 78 66
3 78 76 66
3 77 79 78
3 80 81 82
3 69 80 82
3 69 68 80
3 68 83 80
3 30 29 83
3 30 83 72
3 72 83 68
3 31 30 72
3 74 31 72
3 33 31 74
3 75 33 74
3 35 33 75
3 76 35 75
3 37 35 76
3 37 76 84
3 84 76 78
3 85 78 79
3 84 78 85
3 86 87 88
3 81 86 88
3 81 80 86
3 80 89 86
3 40 39 89
3 40 89 83
3 83 89 80
3 29 40 83
3 84 90 42
3 37 84 42
3 91 84 85
3 90 84 91
3 92 87 86
3 93 87 92
3 45 44 92
3 45 92 89
3 89 92 86
3 39 45 89
3 90 94 95
3 90 95 42
3 42 95 48
3 91 94 90
3 96 97 98
3 93 96 98
3 93 92 96
3 92 99 96
3 44 50 99
3 92 44 99
3 51 100 101
3 52 51 101
3 95 51 48
3 100 51 95
3 96 102 97
3 102 103 104
3 102 96 103
3 96 99 103
3 50 54 103
3 99 50 103
3 105 106 107
3 105 57 56
3 105 56 106
3 106 56 108
3 58 109 56
3 56 109 108
3 59 110 58
3 58 110 109
3 101 59 52
3 110 59 101
3 103 111 104
3 54 111 103
3 54 60 111
3 60 112 111
3 107 61 105
3 107 112 61
3 112 60 61
3 57 105 61
3 113 114 115
3 113 116 117
3 115 116 113
3 117 118 119
3 116 118 117
3 119 120 121
3 118 120 119
3 120 122 121
3 123 124 125
3 123 126 127
3 125 126 123
3 114 127 126
3 114 113 127
3 113 128 127
3 64 63 128
3 64 128 117
3 117 128 113
3 65 64 117
3 119 65 117
3 67 65 119
3 67 119 129
3 129 119 121
3 130 121 122
3 129 121 130
3 131 132 133
3 124 131 133
3 123 131 124
3 123 69 131
3 123 70 69
3 71 70 123
3 127 71 123
3 73 71 127
3 128 73 127
3 63 73 128
3 67 129 77
3 129 79 77
3 129 130 79
3 130 134 79
3 135 136 137
3 132 135 137
3 131 135 132
3 131 81 135
3 131 82 81
3 69 82 131
3 79 134 85
3 134 138 85
3 139 140 141
3 136 139 141
3 135 139 136
3 135 87 139
3 135 88 87
3 81 88 135
3 85 138 91
3 138 142 91
3 143 140 139
3 144 140 143
3 87 93 143
3 139 87 143
3 94 145 146
3 95 94 146
3 142 94 91
3 145 94 142
3 98 144 143
3 98 97 144
3 97 147 144
3 93 98 143
3 148 149 150
3 148 151 152
3 149 148 152
3 151 153 154
3 152 151 154
3 153 101 100
3 153 100 154
3 154 100 155
3 146 100 95
3 155 100 146
3 97 156 147
3 102 156 97
3 104 157 158
3 104 158 102
3 102 158 156
3 157 159 160
3 158 157 160
3 159 107 106
3 159 106 160
3 160 106 161
3 150 108 148
3 150 161 108
3 161 106 108
3 109 148 108
3 151 148 109
3 110 151 109
3 153 151 110
3 101 153 110
3 104 111 157
3 112 157 111
3 159 157 112
3 107 159 112
3 162 163 164
3 162 165 166
3 164 165 162
3 166 167 168
3 165 167 166
3 168 169 170
3 167 169 168
3 169 171 170
3 172 173 174
3 172 175 176
3 174 175 172
3 163 176 175
3 162 176 163
3 162 114 176
3 162 115 114
3 116 115 162
3 166 116 162
3 118 116 166
3 168 118 166
3 120 118 168
3 170 120 168
3 170 122 120
3 170 171 122
3 171 177 122
3 178 179 180
3 173 178 180
3 172 178 173
3 172 124 178
3 172 125 124
3 126 125 172
3 176 126 172
3 114 126 176
3 181 182 130
3 181 130 177
3 177 130 122
3 181 183 182
3 184 185 186
3 179 184 186
3 178 184 179
3 178 132 184
3 178 133 132
3 124 133 178
3 182 187 134
3 130 182 134
3 188 182 183
3 187 182 188
3 137 185 184
3 137 136 185
3 136 189 185
3 132 137 184
3 187 190 191
3 187 191 134
3 134 191 138
3 188 190 187
3 141 192 193
3 140 192 141
3 189 136 141
3 193 189 141
3 138 191 142
3 191 194 142
3 140 144 192
3 192 144 195
3 196 197 198
3 196 199 200
3 197 196 200
3 199 201 202
3 200 199 202
3 201 146 145
3 201 145 202
3 202 145 203
3 194 145 142
3 203 145 194
3 144 147 195
3 195 147 204
3 205 206 207
3 205 208 209
3 206 205 209
3 208 210 211
3 209 208 211
3 210 150 149
3 210 149 211
3 211 149 212
3 198 152 196
3 198 212 152
3 212 149 152
3 154 196 152
3 199 196 154
3 155 199 154
3 201 199 155
3 146 201 155
3 147 213 204
3 156 213 147
3 207 158 205
3 207 213 158
3 213 156 158
3 160 205 158
3 208 205 160
3 161 208 160
3 210 208 161
3 150 210 161
3 214 215 216
3 214 217 218
3 216 217 214
3 218 219 220
3 217 219 218
3 220 221 222
3 219 221 220
3 221 223 222
3 224 225 226
3 215 224 226
3 214 224 215
3 214 163 224
3 214 164 163
3 165 164 214
3 218 165 214
3 167 165 218
3 220 167 218
3 169 167 220
3 222 169 220
3 171 227 228
3 169 227 171
3 169 223 227
3 169 222 223
3 227 229 228
3 230 231 232
3 230 174 173
3 230 232 174
3 232 233 174
3 225 224 175
3 225 175 233
3 233 175 174
3 163 175 224
3 228 234 177
3 171 228 177
3 235 228 229
3 234 228 235
3 180 231 230
3 180 179 231
3 179 236 231
3 173 180 230
3 177 234 181
3 234 183 181
3 234 235 183
3 235 237 183
3 186 238 239
3 185 238 186
3 236 179 186
3 239 236 186
3 183 237 188
3 237 240 188
3 185 189 238
3 238 189 241
3 190 242 243
3 191 190 243
3 240 190 188
3 242 190 240
3 193 244 245
3 192 244 193
3 241 189 193
3 245 241 193
3 246 247 248
3 246 249 250
3 247 246 250
3 249 243 250
3 249 194 243
3 194 191 243
3 251 195 252
3 251 244 195
3 244 192 195
3 252 253 254
3 251 252 254
3 253 255 256
3 254 253 256
3 255 257 258
3 256 255 258
3 257 259 260
3 258 257 260
3 259 198 197
3 259 197 260
3 260 197 261
3 200 262 197
3 197 262 261
3 248 202 246
3 248 262 202
3 262 200 202
3 203 246 202
3 249 246 203
3 194 249 203
3 252 204 263
3 195 204 252
3 206 263 207
3 206 253 263
3 253 252 263
3 209 253 206
3 255 253 209
3 211 255 209
3 257 255 211
3 212 257 211
3 259 257 212
3 198 259 212
3 204 213 263
3 207 263 213
3 264 265 266
3 264 267 268
3 266 267 264
3 268 269 270
3 267 269 268
3 270 271 272
3 269 271 270
3 271 273 272
3 274 275 276
3 265 274 276
3 264 274 265
3 264 215 274
3 264 216 215
3 217 216 264
3 268 217 264
3 219 217 268
3 270 219 268
3 221 219 270
3 272 221 270
3 223 277 278
3 221 277 223
3 221 273 277
3 221 272 273
3 277 279 278
3 280 281 282
3 275 280 282
3 274 280 275
3 274 225 280
3 274 226 225
3 215 226 274
3 223 278 227
3 278 229 227
3 278 279 229
3 279 283 229
3 232 231 284
3 280 285 281
3 280 232 285
3 280 233 232
3 284 285 232
3 225 233 280
3 229 283 235
3 283 286 235
3 284 287 288
3 284 231 287
3 231 236 287
3 285 284 288
3 235 286 237
3 286 289 237
3 239 238 290
3 239 290 291
3 239 291 236
3 236 291 287
3 292 293 294
3 292 289 293
3 292 240 289
3 240 237 289
3 290 241 295
3 238 241 290
3 296 291 290
3 295 296 290
3 297 298 299
3 294 298 297
3 292 294 297
3 292 297 243
3 292 243 242
3 240 292 242
3 245 244 300
3 245 295 241
3 245 300 295
3 300 301 295
3 302 296 295
3 302 295 303
3 303 295 301
3 303 304 305
3 302 303 305
3 304 306 307
3 305 304 307
3 306 308 309
3 307 306 309
3 308 310 311
3 309 308 311
3 310 248 247
3 310 247 311
3 311 247 312
3 299 250 297
3 299 312 250
3 312 247 250
3 243 297 250
3 244 251 300
3 254 300 251
3 301 300 254
3 256 301 254
3 303 301 256
3 258 303 256
3 304 303 258
3 260 304 258
3 306 304 260
3 261 306 260
3 308 306 261
3 262 308 261
3 310 308 262
3 248 310 262
3 313 314 315
3 313 316 317
3 315 316 313
3 316 318 317
3 319 320 321
3 314 319 321
3 314 313 319
3 313 322 319
3 317 323 313
3 323 322 313
3 324 317 318
3 324 325 317
3 325 323 317
3 325 326 327
3 324 326 325
3 326 328 327
3 329 330 331
3 320 329 331
3 319 329 320
3 319 265 329
3 319 266 265
3 267 266 319
3 322 267 319
3 269 267 322
3 323 269 322
3 271 269 323
3 325 271 323
3 273 271 325
3 273 325 332
3 332 325 327
3 333 327 328
3 332 327 333
3 334 335 336
3 330 334 336
3 329 334 330
3 329 275 334
3 329 276 275
3 265 276 329
3 273 332 277
3 332 279 277
3 332 333 279
3 333 337 279
3 338 281 339
3 338 335 281
3 282 281 334
3 334 281 335
3 282 334 275
3 339 340 338
3 279 337 283
3 337 341 283
3 339 342 343
3 339 281 342
3 281 285 342
3 340 339 343
3 283 341 286
3 341 344 286
3 288 287 345
3 288 345 346
3 288 346 285
3 285 346 342
3 347 348 349
3 347 344 348
3 347 289 344
3 289 286 344
3 345 291 350
3 287 291 345
3 351 346 345
3 351 345 352
3 352 345 350
3 352 353 354
3 351 352 354
3 353 355 356
3 354 353 356
3 355 357 358
3 356 355 358
3 357 359 360
3 358 357 360
3 359 361 362
3 360 359 362
3 349 362 361
3 347 349 361
3 347 361 294
3 347 294 293
3 289 347 293
3 350 296 363
3 291 296 350
3 352 350 364
3 364 350 363
3 353 352 365
3 365 352 364
3 355 353 366
3 366 353 365
3 357 355 367
3 367 355 366
3 359 357 368
3 368 357 367
3 298 368 299
3 298 361 368
3 361 359 368
3 294 361 298
3 296 302 363
3 305 363 302
3 364 363 305
3 307 364 305
3 365 364 307
3 309 365 307
3 366 365 309
3 311 366 309
3 367 366 311
3 312 367 311
3 368 367 312
3 299 368 312
3 369 370 371
3 369 372 373
3 371 372 369
3 373 374 375
3 372 374 373
3 374 376 375
3 377 378 379
3 377 380 381
3 379 380 377
3 370 381 380
3 369 381 370
3 369 314 381
3 369 315 314
3 316 315 369
3 373 316 369
3 318 316 373
3 318 373 382
3 382 373 375
3 383 375 376
3 383 384 375
3 384 382 375
3 383 385 384
3 386 387 388
3 378 386 388
3 378 377 386
3 377 389 386
3 321 320 389
3 321 389 381
3 381 389 377
3 314 321 381
3 318 382 324
3 326 324 382
3 384 326 382
3 384 328 326
3 384 385 328
3 385 390 328
3 391 387 386
3 392 387 391
3 331 330 391
3 331 391 389
3 389 391 386
3 320 331 389
3 328 390 333
3 390 393 333
3 394 335 395
3 394 392 335
3 336 335 391
3 391 335 392
3 336 391 330
3 395 396 394
3 333 393 337
3 393 397 337
3 335 338 395
3 340 398 399
3 338 340 399
3 338 399 396
3 338 396 395
3 399 398 400
3 337 397 341
3 397 401 341
3 343 342 402
3 343 398 340
3 343 402 398
3 402 403 398
3 404 400 398
3 403 404 398
3 405 406 407
3 405 401 406
3 405 344 401
3 344 341 401
3 402 346 408
3 342 346 402
3 403 402 409
3 409 402 408
3 410 404 403
3 410 403 411
3 411 403 409
3 411 412 413
3 410 411 413
3 412 414 415
3 413 412 415
3 414 416 417
3 415 414 417
3 407 417 416
3 405 407 416
3 405 416 349
3 405 349 348
3 344 405 348
3 346 351 408
3 354 408 351
3 409 408 354
3 356 409 354
3 411 409 356
3 358 411 356
3 412 411 358
3 360 412 358
3 414 412 360
3 362 414 360
3 416 414 362
3 349 416 362
3 418 419 420
3 418 421 422
3 420 421 418
3 422 423 424
3 421 423 422
3 424 425 426
3 423 425 424
3 425 427 426
3 428 429 430
3 419 428 430
3 419 418 428
3 418 431 428
3 371 370 431
3 371 431 422
3 422 431 418
3 372 371 422
3 424 372 422
3 374 372 424
3 426 374 424
3 376 432 433
3 374 432 376
3 374 427 432
3 374 426 427
3 432 434 433
3 435 436 437
3 429 435 437
3 428 435 429
3 428 378 435
3 428 379 378
3 380 379 428
3 431 380 428
3 370 380 431
3 376 433 383
3 433 385 383
3 433 434 385
3 434 438 385
3 388 436 435
3 388 387 436
3 387 439 436
3 378 388 435
3 385 438 390
3 438 440 390
3 441 392 442
3 441 439 392
3 439 387 392
3 442 443 444
3 441 442 444
3 444 443 445
3 390 440 393
3 440 446 393
3 392 394 442
3 396 442 394
3 396 447 442
3 447 443 442
3 448 445 443
3 447 448 443
3 449 450 451
3 449 446 450
3 449 397 446
3 397 393 446
3 396 399 447
3 400 452 453
3 399 400 453
3 399 453 448
3 399 448 447
3 452 454 455
3 453 452 455
3 455 454 456
3 457 458 459
3 451 458 457
3 451 457 449
3 449 457 460
3 397 460 401
3 449 460 397
3 452 404 461
3 400 404 452
3 454 452 462
3 462 452 461
3 463 456 454
3 463 454 464
3 464 454 462
3 459 463 464
3 459 464 457
3 457 464 465
3 406 465 407
3 406 460 465
3 460 457 465
3 401 460 406
3 404 410 461
3 413 461 410
3 462 461 413
3 415 462 413
3 464 462 415
3 417 464 415
3 465 464 417
3 407 465 417
3 466 467 468
3 466 469 470
3 468 469 466
3 470 471 472
3 469 471 470
3 472 473 474
3 471 473 472
3 473 475 474
3 476 477 478
3 476 479 480
3 478 479 476
3 467 480 479
3 466 480 467
3 466 419 480
3 466 420 419
3 421 420 466
3 470 421 466
3 423 421 470
3 472 423 470
3 425 423 472
3 474 425 472
3 474 427 425
3 474 475 427
3 475 481 427
3 482 483 484
3 477 482 484
3 477 476 482
3 476 485 482
3 430 429 485
3 430 485 480
3 480 485 476
3 419 430 480
3 427 481 486
3 432 427 486
3 486 434 432
3 487 434 486
3 482 488 483
3 437 436 489
3 437 489 482
3 437 482 485
3 482 489 488
3 429 437 485
3 490 491 492
3 490 487 491
3 490 438 487
3 438 434 487
3 493 439 494
3 493 489 439
3 489 436 439
3 494 495 496
3 493 494 496
3 495 497 498
3 496 495 498
3 498 497 499
3 500 490 492
3 501 500 492
3 438 500 440
3 490 500 438
3 439 441 494
3 444 494 441
3 495 494 444
3 445 495 444
3 445 502 495
3 502 497 495
3 503 499 497
3 503 497 504
3 504 497 502
3 504 505 506
3 503 504 506
3 505 507 508
3 506 505 508
3 501 508 507
3 501 507 500
3 500 507 509
3 440 509 446
3 500 509 440
3 502 448 510
3 445 448 502
3 504 502 511
3 511 502 510
3 505 504 512
3 512 504 511
3 507 505 513
3 513 505 512
3 450 513 451
3 450 509 513
3 509 507 513
3 446 509 450
3 448 453 510
3 455 510 453
3 511 510 455
3 456 511 455
3 456 514 511
3 514 512 511
3 458 514 459
3 458 513 514
3 513 512 514
3 451 513 458
3 456 463 514
3 459 514 463
3 515 516 517
3 515 518 519
3 517 518 515
3 519 520 521
3 518 520 519
3 521 522 523
3 520 522 521
3 522 524 523
3 525 526 527
3 516 525 527
3 516 515 525
3 515 528 525
3 468 467 528
3 468 528 519
3 519 528 515
3 469 468 519
3 521 469 519
3 471 469 521
3 523 471 521
3 523 524 529
3 523 529 471
3 471 529 473
3 529 475 473
3 530 475 529
3 531 532 533
3 526 531 533
3 525 531 526
3 525 477 531
3 525 478 477
3 479 478 525
3 528 479 525
3 467 479 528
3 475 530 481
3 530 534 481
3 484 532 531
3 484 483 532
3 483 535 532
3 477 484 531
3 536 486 481
3 536 481 537
3 537 481 534
3 486 536 487
3 483 538 535
3 488 538 483
3 489 539 540
3 489 540 488
3 488 540 538
3 539 541 542
3 540 539 542
3 541 543 544
3 542 541 544
3 543 545 546
3 544 543 546
3 545 547 548
3 546 545 548
3 547 549 550
3 548 547 550
3 537 550 549
3 536 537 549
3 536 549 492
3 536 492 491
3 487 536 491
3 489 493 539
3 496 539 493
3 541 539 496
3 498 541 496
3 543 541 498
3 499 543 498
3 499 551 543
3 551 545 543
3 547 545 552
3 552 545 551
3 549 547 553
3 553 547 552
3 492 553 501
3 549 553 492
3 499 503 551
3 506 551 503
3 552 551 506
3 508 552 506
3 553 552 508
3 501 553 508
3 554 555 556
3 554 557 558
3 556 557 554
3 558 559 560
3 557 559 558
3 559 561 560
3 562 563 564
3 555 562 564
3 554 562 555
3 554 516 562
3 554 517 516
3 518 517 554
3 558 518 554
3 520 518 558
3 560 520 558
3 560 561 565
3 560 565 520
3 520 565 522
3 565 524 522
3 566 524 565
3 567 568 569
3 567 570 571
3 569 570 567
3 563 571 570
3 562 571 563
3 562 526 571
3 562 527 526
3 516 527 562
3 572 529 524
3 572 524 573
3 573 524 566
3 529 572 530
3 567 574 568
3 571 532 567
3 571 533 532
3 567 532 574
3 575 576 532
3 574 532 576
3 575 577 578
3 575 578 576
3 571 526 533
3 578 577 579
3 580 572 573
3 581 580 573
3 530 580 534
3 572 580 530
3 575 535 582
3 532 535 575
3 577 575 583
3 583 575 582
3 584 579 577
3 584 577 585
3 585 577 583
3 585 586 587
3 584 585 587
3 586 588 589
3 587 586 589
3 588 590 591
3 589 588 591
3 581 591 590
3 581 590 580
3 580 590 592
3 534 592 537
3 580 592 534
3 535 538 582
3 540 582 538
3 583 582 540
3 542 583 540
3 585 583 542
3 544 585 542
3 586 585 544
3 546 586 544
3 588 586 546
3 548 588 546
3 590 588 548
3 550 590 548
3 592 590 550
3 537 592 550
3 593 594 595
3 593 596 597
3 595 596 593
3 596 598 597
3 599 600 601
3 594 599 601
3 593 599 594
3 593 555 599
3 593 556 555
3 557 556 593
3 597 557 593
3 597 598 602
3 597 602 557
3 557 602 559
3 602 561 559
3 603 561 602
3 604 605 606
3 604 607 608
3 606 607 604
3 600 608 607
3 599 608 600
3 599 563 608
3 599 564 563
3 555 564 599
3 609 565 561
3 609 561 610
3 610 561 603
3 565 609 566
3 611 568 612
3 611 605 568
3 569 568 604
3 604 568 605
3 613 614 611
3 613 611 612
3 608 570 604
3 604 570 569
3 570 608 563
3 613 615 614
3 616 617 618
3 610 617 616
3 610 616 609
3 609 616 619
3 566 619 573
3 609 619 566
3 568 574 612
3 576 612 574
3 613 612 576
3 613 620 615
3 613 576 620
3 576 578 620
3 579 621 622
3 579 622 578
3 578 622 620
3 621 623 624
3 622 621 624
3 618 624 623
3 618 623 616
3 616 623 625
3 619 616 626
3 626 616 625
3 573 626 581
3 619 626 573
3 579 584 621
3 587 621 584
3 623 621 587
3 589 623 587
3 625 623 589
3 591 625 589
3 626 625 591
3 581 626 591
3 627 628 629
3 627 595 594
3 627 629 595
3 629 630 595
3 596 595 631
3 595 630 631
3 631 598 596
3 632 598 631
3 633 634 635
3 633 636 637
3 635 636 633
3 628 637 636
3 627 637 628
3 627 600 637
3 627 601 600
3 594 601 627
3 598 632 638
3 602 598 638
3 638 603 602
3 639 603 638
3 640 641 642
3 634 640 642
3 633 640 634
3 633 605 640
3 633 606 605
3 607 606 633
3 637 607 633
3 600 607 637
3 643 644 645
3 643 639 644
3 643 610 639
3 610 603 639
3 640 646 641
3 605 646 640
3 605 611 646
3 611 647 646
3 614 648 611
3 611 648 647
3 615 649 650
3 615 650 614
3 614 650 648
3 649 651 652
3 650 649 652
3 651 653 654
3 652 651 654
3 645 654 653
3 643 645 653
3 643 653 618
3 643 618 617
3 610 643 617
3 615 620 649
3 622 649 620
3 651 649 622
3 624 651 622
3 653 651 624
3 618 653 624
3 655 656 657
3 655 658 659
3 657 658 655
3 659 629 628
3 659 658 629
3 658 660 629
3 630 629 661
3 629 660 661
3 631 630 662
3 630 661 662
3 662 632 631
3 663 632 662
3 664 665 666
3 664 667 668
3 666 667 664
3 656 668 667
3 655 668 656
3 655 634 668
3 655 635 634
3 636 635 655
3 659 636 655
3 628 636 659
3 669 638 632
3 669 632 670
3 670 632 663
3 638 669 639
3 664 671 665
3 668 641 664
3 668 642 641
3 664 641 671
3 672 673 641
3 671 641 673
3 672 674 675
3 672 675 673
3 668 634 642
3 674 676 677
3 675 674 677
3 676 678 679
3 677 676 679
3 678 680 681
3 679 678 681
3 680 682 683
3 681 680 683
3 670 683 682
3 669 670 682
3 669 682 645
3 669 645 644
3 639 669 644
3 641 646 672
3 647 672 646
3 674 672 647
3 648 674 647
3 676 674 648
3 650 676 648
3 678 676 650
3 652 678 650
3 680 678 652
3 654 680 652
3 682 680 654
3 645 682 654
3 684 685 686
3 684 687 688
3 686 687 684
3 688 657 656
3 688 687 657
3 687 689 657
3 658 657 690
3 657 689 690
3 660 658 691
3 658 690 691
3 661 660 692
3 660 691 692
3 693 692 694
3 693 662 692
3 662 661 692
3 662 693 663
3 695 696 697
3 685 695 697
3 684 695 685
3 684 665 695
3 684 666 665
3 667 666 684
3 688 667 684
3 656 667 688
3 698 699 700
3 694 699 698
3 694 698 693
3 693 698 701
3 663 701 670
3 693 701 663
3 695 702 696
3 665 702 695
3 665 671 702
3 671 703 702
3 673 704 671
3 671 704 703
3 675 705 673
3 673 705 704
3 677 706 675
3 675 706 705
3 679 707 677
3 677 707 706
3 700 681 698
3 700 707 681
3 707 679 681
3 683 698 681
3 701 698 683
3 670 701 683
3 686 708 709
3 685 708 686
3 687 686 710
3 686 709 710
3 689 687 711
3 687 710 711
3 690 689 712
3 689 711 712
3 713 712 714
3 713 691 712
3 691 690 712
3 691 715 692
3 713 715 691
3 692 715 694
3 697 696 716
3 697 716 717
3 697 717 685
3 685 717 708
3 718 713 714
3 719 718 714
3 699 718 700
3 699 715 718
3 715 713 718
3 694 715 699
3 696 702 716
3 716 720 717
3 716 702 720
3 702 703 720
3 704 721 703
3 703 721 720
3 705 722 704
3 704 722 721
3 706 723 705
3 705 723 722
3 719 707 718
3 719 723 707
3 723 706 707
3 700 718 707
3 709 708 724
3 709 725 710
3 724 725 709
3 710 726 711
3 725 726 710
3 711 727 712
3 726 727 711
3 712 727 714
3 724 717 728
3 708 717 724
3 725 724 729
3 729 724 728
3 726 725 730
3 730 725 729
3 727 726 731
3 731 726 730
3 714 731 719
3 727 731 714
3 717 720 728
3 721 728 720
3 729 728 721
3 722 729 721
3 730 729 722
3 723 730 722
3 731 730 723
3 719 731 723
