# vtk DataFile Version 3.0
this file was written using fslvtkio
ASCII
DATASET POLYDATA
POINTS 642 float
145.104 106.364 151.523
137.413 102.867 153.178
136.092 106.319 146.399
142.959 108.383 144.859
141.85 104.43 148.831
143.444 112.197 148.084
138.78 109.359 149.576
137.624 101.801 148.954
142.51 100.961 153.916
138.594 104.538 142.394
138.978 111.037 143.202
142.391 106.779 154.966
139.532 99.8835 151.714
142.721 102.04 151.577
139.705 103.111 149.256
137.516 103.914 145.701
140.221 105.053 145.719
140.281 108.062 152.536
140.91 111.544 148.627
142.977 109.363 151.704
138.531 111.086 146.357
141.667 113.114 145.157
142.911 105.967 146.406
143.561 104.895 150.851
144.287 107.728 148.033
143.793 111.199 145.936
144.58 109.296 150.115
136.27 100.347 151.474
135.611 103.201 147.619
136.244 104.688 150.316
138.159 106.364 151.864
137.016 108.283 148.008
145.396 106.991 154.155
146.025 103.224 153.259
143.377 103.445 155.564
139.734 104.519 154.816
138.817 99.8515 154.739
141.659 110.315 143.187
138.048 107.66 141.746
140.948 106.728 143.246
136.599 108.758 144.166
135.867 104.948 143.167
141.353 100.889 151.642
141.054 102.679 150.695
139.8 101.636 150.799
140.806 103.731 149.031
141.885 103.626 150.489
143.074 101.198 152.728
140.932 100.02 152.904
138.576 100.999 150.47
138.7 102.462 149.199
138.754 103.545 147.424
139.975 104.146 147.377
138.873 104.45 145.661
141.205 104.642 147.293
137.628 103.027 147.523
137.992 104.019 143.985
139.544 104.692 144.093
140.689 109.803 150.58
141.924 110.564 150.113
141.628 108.974 152.174
143.156 110.889 149.833
142.137 112.164 148.278
139.825 110.526 149.205
139.662 108.71 150.932
141.169 107.532 153.95
142.775 108.135 153.491
140.03 112.33 145.751
141.285 112.629 146.882
139.742 111.507 147.484
142.827 113.107 146.725
140.267 112.165 144.08
138.601 111.248 144.756
138.627 110.39 147.962
143.377 105.425 148.617
144.036 106.092 149.413
143.841 106.68 147.238
144.555 107.008 149.99
144.441 105.455 151.282
142.766 104.541 149.912
142.409 105.072 147.703
143.05 107.017 145.52
143.89 108.055 146.313
144.216 109.438 146.854
144.584 108.651 148.883
144.553 110.571 147.752
144.935 107.816 150.907
143.427 109.679 145.356
144.009 112.109 147.099
144.309 110.964 149.149
135.617 101.679 149.718
135.685 103.749 149.149
136.07 102.407 151.029
136.111 105.626 148.412
135.725 104.857 147.011
136.458 102.247 147.996
136.872 100.731 149.885
136.721 101.466 152.568
136.852 103.836 151.699
137.108 105.632 151.053
136.567 106.559 149.199
137.447 107.332 149.998
136.427 107.415 147.16
137.743 104.762 152.709
138.546 107.819 150.63
137.701 109.017 148.881
146.684 105.179 154.238
145.568 103.348 155.119
145.166 105.456 155.855
143.154 101.917 154.998
144.629 102.037 153.757
146.039 104.946 152.343
145.8 106.796 152.589
143.9 107.009 154.868
142.955 105.285 156.016
141.399 103.702 155.622
141.078 101.511 155.294
139.412 102.198 155.149
140.641 100.023 154.251
141.09 105.703 155.217
138.533 103.652 153.941
137.967 101.444 154.179
140.136 109.2 141.98
139.87 107.089 141.711
141.425 108.414 142.864
139.836 105.596 142.724
138.184 105.649 141.295
138.487 109.684 142.248
140.532 111.149 142.863
142.268 109.315 143.994
141.914 107.666 144.346
135.957 106.912 143.412
136.569 105.996 141.754
136.79 108.452 142.389
136.995 104.158 142.38
135.83 105.729 144.945
136.22 107.436 145.282
137.365 110.16 143.49
143.01 103.695 151.293
144.587 102.152 152.34
145.041 103.823 151.847
145.191 108.215 152.309
144.16 108.259 153.236
144.065 109.587 151.129
140.7 105.693 144.352
141.625 105.444 146.066
141.845 106.527 144.957
142.554 110.702 144.511
143.148 112.462 145.479
141.667 111.757 143.986
138.981 99.1769 153.149
137.859 100.01 151.222
137.303 99.9291 153.243
138.669 105.515 153.724
139.188 107.211 152.263
139.952 106.406 154.068
136.04 104.558 145.418
136.501 103.462 146.417
136.577 103.879 144.155
137.388 110.106 145.254
137.694 109.798 147.062
136.771 108.742 146.05
141.249 101.806 151.152
140.367 102.29 150.722
140.562 101.229 151.152
139.724 102.475 150.177
140.277 102.84 150.05
141.845 102.288 151.209
142.03 101.429 151.57
140.518 100.421 151.665
139.792 100.729 151.3
140.848 103.252 149.951
141.493 103.156 150.621
141.389 103.674 149.744
142.271 102.885 151.117
140.253 103.382 149.179
141.364 104.082 148.907
141.832 104.08 149.696
142.153 100.922 152.196
141.279 100.333 152.201
142 100.576 152.802
140.213 99.945 152.351
142.893 101.454 152.139
142.803 101.04 153.317
141.757 100.412 153.43
139.225 101.287 150.705
139.165 102.177 150.033
138.601 101.798 149.9
139.233 102.769 149.296
139.053 100.482 151.173
138.096 101.475 149.694
138.142 102.196 149.091
139.376 103.835 147.512
139.43 104.397 146.57
138.834 104.12 146.59
139.569 104.687 145.714
140.114 104.537 146.472
139.812 103.626 148.305
139.205 103.38 148.347
138.149 103.89 146.574
138.204 104.219 145.722
140.626 104.312 147.33
140.394 103.843 148.27
141.033 104.126 148.143
140.701 104.847 146.519
141.492 104.523 148.058
138.742 103.082 148.379
138.206 103.349 147.482
138.143 102.817 148.381
137.612 103.569 146.638
137.603 102.501 148.321
138.45 104.274 144.841
139.216 104.519 144.895
138.807 104.26 143.993
139.907 104.887 144.953
137.795 104.036 144.865
138.314 104.161 143.14
139.117 104.546 143.213
141.336 110.172 150.259
141.825 109.697 151.099
141.156 109.382 151.386
142.287 109.228 151.912
142.412 109.922 150.94
141.435 111.085 149.392
140.81 110.702 149.658
140.537 108.956 151.589
140.914 108.601 152.316
142.561 110.674 150.003
142.038 111.394 149.19
142.689 111.591 149.099
141.54 111.844 148.482
143.04 110.076 150.763
143.265 111.715 148.953
142.803 112.255 148.201
140.247 110.19 149.926
140.175 109.209 150.803
139.707 109.589 150.072
139.981 108.42 151.778
140.323 111.089 148.953
139.321 109.937 149.405
139.276 109.038 150.162
141.436 108.249 152.975
142.185 108.613 152.854
141.958 107.89 153.699
142.901 108.795 152.656
140.741 107.825 153.132
141.749 107.198 154.513
142.592 107.53 154.271
140.62 112.561 146.364
140.541 112.014 147.178
139.894 111.945 146.685
140.327 111.558 147.991
141.038 112.108 147.733
141.486 113.039 146.131
140.794 112.769 145.494
139.302 111.828 146.111
139.132 111.483 146.878
141.718 112.416 147.606
142.037 112.992 146.854
142.478 112.773 147.57
142.309 113.386 145.965
143.132 112.76 147.422
140.095 112.327 145.051
139.311 111.776 145.349
139.382 111.88 144.391
138.599 111.224 145.594
140.858 112.582 144.747
139.606 111.73 143.577
138.773 111.22 143.879
139.19 111.017 147.693
139.788 111.034 148.348
139.216 110.394 148.592
138.573 110.794 147.122
138.73 109.886 148.867
143.665 105.7 149.041
143.895 106.383 148.336
143.642 105.953 147.858
144.082 107.137 147.689
144.215 106.818 148.698
143.764 105.495 150.112
143.402 105.233 149.891
143.261 105.718 147.369
143.484 106.314 146.81
144.328 106.482 149.679
144.14 105.776 150.456
144.434 106.202 150.652
144.024 105.137 151.043
144.432 107.34 149.043
144.718 106.715 150.813
144.831 105.862 151.407
143.074 105.012 149.315
142.98 105.262 148.054
142.675 104.813 148.698
142.734 105.43 146.996
143.117 104.726 150.451
142.281 104.489 149.349
142.14 104.752 148.296
143.535 106.881 146.32
143.923 107.323 146.8
143.581 107.497 145.925
144.149 107.897 147.198
143.005 106.514 145.983
143.038 107.713 145.192
143.57 108.191 145.471
144.433 109.049 147.837
144.593 109.61 148.327
144.429 110.007 147.271
144.563 109.97 148.863
144.558 109.075 149.471
144.454 108.168 148.481
144.245 108.576 147.408
144.052 110.357 146.357
144.308 110.967 146.776
144.728 108.258 149.986
144.615 107.769 149.477
144.713 107.459 150.425
144.757 108.584 150.54
145.014 107.098 151.184
143.954 108.65 146.675
143.908 109.544 146.127
143.773 108.762 145.742
143.602 110.421 145.66
143.305 108.942 145.081
144.402 111.37 147.409
144.489 110.798 148.464
144.216 111.605 148.091
144.449 110.159 149.533
143.992 111.692 146.499
143.805 112.217 147.686
143.85 111.626 148.723
135.526 102.782 149.421
135.776 103.16 150.09
135.774 102.048 150.406
136.058 103.516 150.679
135.891 104.102 149.869
135.558 103.394 148.47
135.578 102.49 148.775
135.909 101.015 150.591
136.071 101.39 151.26
135.902 104.663 148.872
135.733 104.328 148.137
135.88 105.213 147.82
135.636 104.013 147.409
136.092 105.101 149.431
136.026 106.052 147.357
135.829 105.625 146.731
135.893 101.835 148.709
136.05 101.05 149.746
136.647 101.429 148.95
136.378 100.37 150.483
135.925 102.552 147.869
137.107 101.975 148.436
137.313 101.267 149.457
136.451 101.985 151.732
136.417 103.161 151.395
136.722 102.691 152.205
136.507 104.183 150.974
136.36 100.872 152.103
137.016 102.22 152.886
137.095 103.321 152.507
136.77 106.057 150.154
136.939 106.982 149.606
137.278 106.464 150.519
137.15 107.828 149.089
136.739 107.453 148.69
136.355 105.647 149.836
136.625 105.207 150.668
137.641 106.022 151.412
137.766 106.783 150.921
136.401 107.021 148.292
136.269 106.064 148.858
136.177 106.511 147.82
136.681 107.847 147.614
136.286 106.863 146.798
136.867 104.782 151.464
137.441 105.233 151.931
137.257 104.294 152.2
137.876 105.622 152.388
137.551 103.865 152.915
137.994 107.566 150.339
137.577 108.186 149.45
138.112 108.453 149.844
137.376 108.63 148.451
138.314 107.106 151.239
138.726 108.58 150.08
138.273 109.17 149.237
146.501 104.2 154.972
145.518 104.354 155.635
146.148 105.356 155.343
144.56 104.356 155.722
144.67 103.571 155.437
146.079 103.279 154.233
146.549 104.162 153.822
146.234 106.131 154.547
145.633 106.313 155.326
144.443 102.693 155.069
145.286 102.504 154.476
144.041 101.98 154.494
145.485 102.537 153.601
143.382 102.661 155.384
142.837 101.319 154.45
143.553 101.523 153.806
146.555 105.008 153.217
146.362 106.045 153.463
146.041 105.909 152.475
145.779 106.839 153.485
146.185 104.082 152.947
145.55 105.709 151.968
145.473 106.52 151.988
144.65 106.331 155.648
144.099 105.245 155.989
143.585 106.22 155.697
143.349 104.281 155.81
144.746 106.94 154.653
143.118 106.948 154.867
142.593 106.157 155.6
141.366 102.703 155.482
140.188 101.805 155.43
140.411 103.003 155.356
139.151 101.038 155.182
139.947 100.629 155.148
142.189 102.501 155.478
142.356 103.5 155.59
140.406 103.977 155.412
139.694 103.325 155.067
140.897 100.633 154.934
142.212 101.682 155.209
141.935 100.986 154.636
139.778 99.7439 154.595
141.558 100.444 154.109
142.272 104.457 155.85
141.162 104.689 155.628
141.885 105.5 155.777
140.428 105.041 155.099
141.737 106.346 155.096
139.053 102.955 154.515
138.634 101.822 154.759
138.277 102.593 154.094
138.323 100.65 154.731
139.264 103.904 154.425
137.857 103.289 153.576
137.681 102.176 153.684
139.966 108.138 141.818
140.684 107.773 142.229
140.889 108.789 142.242
141.109 107.551 142.919
140.463 106.903 142.377
139.014 107.44 141.606
139.124 108.454 141.788
141.004 109.746 142.442
141.546 109.344 142.909
139.844 106.23 142.066
139.032 106.409 141.415
139.128 105.504 141.792
138.089 106.689 141.451
140.365 106.213 142.91
139.284 104.986 142.565
138.406 104.878 141.794
139.339 109.467 142.044
140.378 110.227 142.406
139.553 110.51 142.461
141.141 110.751 142.873
138.299 108.727 141.96
138.67 110.453 142.738
139.774 111.269 142.988
141.85 108.924 143.414
141.588 108.035 143.541
142.074 108.402 144.073
141.431 107.327 143.762
141.888 109.799 143.544
142.614 108.751 144.436
142.38 107.969 144.71
136.063 106.507 142.426
136.639 107.229 142.001
136.234 107.656 142.789
137.354 108.032 141.983
137.221 106.864 141.614
136.069 105.42 142.292
135.83 105.944 143.173
136.293 107.849 143.737
136.463 108.676 143.185
137.329 105.837 141.407
136.527 104.811 141.731
137.561 104.775 141.731
136.208 104.342 142.525
137.756 104.275 142.362
135.85 106.263 144.177
136.074 107.189 144.388
136.103 106.544 145.166
136.331 108.071 144.652
135.791 105.417 143.966
135.981 106.053 145.709
136.233 106.905 145.866
137.004 109.391 142.802
137.651 109.02 142.239
137.823 109.953 142.707
136.858 109.519 143.762
138.091 110.636 143.337
143.948 102.861 151.671
145.024 102.96 152.004
143.964 103.705 151.628
145.749 103.411 152.454
145.507 102.467 152.88
143.62 102.124 151.863
142.944 102.891 151.385
143.278 104.379 151.25
144.107 104.39 151.454
144.73 101.946 153.064
143.744 101.671 152.366
143.802 101.515 153.189
142.432 103.614 150.905
142.724 104.325 150.751
142.285 104.16 150.178
144.663 104.676 151.62
145.678 104.283 152.196
145.177 105.183 151.839
144.8 108.283 152.934
144.123 108.881 152.16
144.585 108.824 151.699
143.566 109.508 151.422
143.556 108.829 152.485
144.776 107.616 153.86
145.335 107.548 153.275
144.744 108.741 151.12
144.395 109.499 150.635
143.475 108.287 153.325
144.105 107.586 154.096
143.314 107.635 154.143
145.541 107.446 152.621
145.081 108.018 151.565
145.23 107.204 151.817
144.178 110.281 150.114
143.622 110.244 150.543
143.755 111.01 149.571
141.114 105.623 145.279
141.802 105.974 145.513
141.304 106.089 144.641
142.369 106.325 145.728
142.324 105.641 146.229
140.907 105.286 145.891
140.467 105.367 145.112
140.805 106.238 143.807
141.395 106.708 144.077
142.152 105.197 146.888
141.426 105.035 146.703
141.835 104.858 147.6
140.12 105.261 144.278
140.226 105.806 143.557
139.695 105.163 143.397
141.875 107.091 144.517
142.401 106.818 145.321
142.471 107.404 144.94
142.91 111.529 144.914
142.378 112.161 144.675
142.196 111.293 144.165
141.731 112.481 144.52
142.502 112.923 145.306
143.609 111.862 145.608
143.262 110.902 145.166
142.011 110.539 143.799
141.644 111.141 143.526
143.141 113.037 146.119
143.767 112.354 146.267
143.558 112.636 147.08
143.048 110.173 145.006
142.365 109.986 144.258
142.854 109.315 144.709
141.157 111.499 143.373
141.047 112.108 144.067
140.395 111.772 143.408
138.375 99.6736 152.218
137.417 99.6035 152.201
138.022 99.1441 153.365
136.671 100.175 152.342
136.978 99.9685 151.193
138.604 99.9639 151.401
139.235 99.4817 152.357
138.889 99.175 154.143
137.99 99.8746 154.175
137.308 100.395 150.496
138.258 100.527 150.784
137.816 100.98 149.995
139.865 99.7429 152.961
139.806 99.3777 153.773
140.779 99.9386 153.522
137.693 100.609 153.87
136.98 100.779 152.946
137.361 101.556 153.379
138.984 106.377 153.02
139.555 106.759 153.201
139.303 105.909 153.957
140.042 107.295 153.28
139.71 107.593 152.491
138.661 106.819 152.073
138.387 106.006 152.811
139.148 104.961 154.338
139.843 105.508 154.602
139.468 107.964 151.606
138.905 107.489 151.372
139.125 108.274 150.749
138.19 105.193 153.207
138.589 104.574 153.954
138.006 104.291 153.384
140.487 106.025 154.678
140.482 107.094 154.003
141.087 106.694 154.635
136.221 103.972 146.015
136.621 103.955 145.427
136.181 104.223 144.661
137.044 103.883 145.025
137.032 103.684 146.044
135.999 103.176 146.928
135.872 104.004 146.656
135.838 104.769 144.204
136.093 104.258 143.481
137.137 103.219 146.899
136.491 102.772 147.166
137.108 102.578 147.706
135.861 104.699 146.282
135.898 105.13 145.053
135.881 105.448 145.951
136.67 103.893 143.24
137.306 103.926 144.235
137.53 103.992 143.221
137.472 109.999 146.187
137.211 109.255 146.633
137.023 109.428 145.644
136.95 108.583 147.018
137.338 109.082 147.48
138.05 110.474 146.689
137.971 110.58 145.856
136.931 109.495 144.678
136.688 108.758 145.137
137.63 109.436 148.047
138.174 110.111 147.523
138.184 109.72 148.494
138.022 110.686 145.066
137.28 110.171 144.392
137.966 110.781 144.116
136.422 108.165 145.559
136.636 108.146 146.58
136.401 107.549 146.201
POLYGONS 1280  5120
3 164 162 163
3 163 44 164
3 162 43 163
3 164 42 162
3 166 165 163
3 163 43 166
3 165 44 163
3 166 14 165
3 168 167 162
3 162 42 168
3 167 43 162
3 168 13 167
3 170 169 164
3 164 44 170
3 169 42 164
3 170 12 169
3 173 171 172
3 172 46 173
3 171 43 172
3 173 45 171
3 167 174 172
3 172 43 167
3 174 46 172
3 167 13 174
3 175 166 171
3 171 45 175
3 166 43 171
3 175 14 166
3 177 176 173
3 173 46 177
3 176 45 173
3 177 4 176
3 180 178 179
3 179 48 180
3 178 42 179
3 180 47 178
3 169 181 179
3 179 42 169
3 181 48 179
3 169 12 181
3 182 168 178
3 178 47 182
3 168 42 178
3 182 13 168
3 184 183 180
3 180 48 184
3 183 47 180
3 184 8 183
3 187 185 186
3 186 50 187
3 185 44 186
3 187 49 185
3 165 188 186
3 186 44 165
3 188 50 186
3 165 14 188
3 189 170 185
3 185 49 189
3 170 44 185
3 189 12 170
3 191 190 187
3 187 50 191
3 190 49 187
3 191 7 190
3 194 192 193
3 193 53 194
3 192 52 193
3 194 51 192
3 196 195 193
3 193 52 196
3 195 53 193
3 196 16 195
3 198 197 192
3 192 51 198
3 197 52 192
3 198 14 197
3 200 199 194
3 194 53 200
3 199 51 194
3 200 15 199
3 203 201 202
3 202 45 203
3 201 52 202
3 203 54 201
3 197 175 202
3 202 52 197
3 175 45 202
3 197 14 175
3 204 196 201
3 201 54 204
3 196 52 201
3 204 16 196
3 176 205 203
3 203 45 176
3 205 54 203
3 176 4 205
3 208 206 207
3 207 55 208
3 206 51 207
3 208 50 206
3 199 209 207
3 207 51 199
3 209 55 207
3 199 15 209
3 188 198 206
3 206 50 188
3 198 51 206
3 188 14 198
3 210 191 208
3 208 55 210
3 191 50 208
3 210 7 191
3 213 211 212
3 212 57 213
3 211 53 212
3 213 56 211
3 195 214 212
3 212 53 195
3 214 57 212
3 195 16 214
3 215 200 211
3 211 56 215
3 200 53 211
3 215 15 200
3 217 216 213
3 213 57 217
3 216 56 213
3 217 9 216
3 220 218 219
3 219 60 220
3 218 59 219
3 220 58 218
3 222 221 219
3 219 59 222
3 221 60 219
3 222 19 221
3 224 223 218
3 218 58 224
3 223 59 218
3 224 18 223
3 226 225 220
3 220 60 226
3 225 58 220
3 226 17 225
3 229 227 228
3 228 62 229
3 227 59 228
3 229 61 227
3 223 230 228
3 228 59 223
3 230 62 228
3 223 18 230
3 231 222 227
3 227 61 231
3 222 59 227
3 231 19 222
3 233 232 229
3 229 62 233
3 232 61 229
3 233 5 232
3 236 234 235
3 235 64 236
3 234 58 235
3 236 63 234
3 225 237 235
3 235 58 225
3 237 64 235
3 225 17 237
3 238 224 234
3 234 63 238
3 224 58 234
3 238 18 224
3 240 239 236
3 236 64 240
3 239 63 236
3 240 6 239
3 243 241 242
3 242 66 243
3 241 60 242
3 243 65 241
3 221 244 242
3 242 60 221
3 244 66 242
3 221 19 244
3 245 226 241
3 241 65 245
3 226 60 241
3 245 17 226
3 247 246 243
3 243 66 247
3 246 65 243
3 247 11 246
3 250 248 249
3 249 69 250
3 248 68 249
3 250 67 248
3 252 251 249
3 249 68 252
3 251 69 249
3 252 18 251
3 254 253 248
3 248 67 254
3 253 68 248
3 254 21 253
3 256 255 250
3 250 69 256
3 255 67 250
3 256 20 255
3 259 257 258
3 258 70 259
3 257 68 258
3 259 62 257
3 253 260 258
3 258 68 253
3 260 70 258
3 253 21 260
3 230 252 257
3 257 62 230
3 252 68 257
3 230 18 252
3 261 233 259
3 259 70 261
3 233 62 259
3 261 5 233
3 264 262 263
3 263 72 264
3 262 67 263
3 264 71 262
3 255 265 263
3 263 67 255
3 265 72 263
3 255 20 265
3 266 254 262
3 262 71 266
3 254 67 262
3 266 21 254
3 268 267 264
3 264 72 268
3 267 71 264
3 268 10 267
3 271 269 270
3 270 63 271
3 269 69 270
3 271 73 269
3 251 238 270
3 270 69 251
3 238 63 270
3 251 18 238
3 272 256 269
3 269 73 272
3 256 69 269
3 272 20 256
3 239 273 271
3 271 63 239
3 273 73 271
3 239 6 273
3 276 274 275
3 275 76 276
3 274 75 275
3 276 74 274
3 278 277 275
3 275 75 278
3 277 76 275
3 278 24 277
3 280 279 274
3 274 74 280
3 279 75 274
3 280 23 279
3 282 281 276
3 276 76 282
3 281 74 276
3 282 22 281
3 285 283 284
3 284 78 285
3 283 75 284
3 285 77 283
3 279 286 284
3 284 75 279
3 286 78 284
3 279 23 286
3 287 278 283
3 283 77 287
3 278 75 283
3 287 24 278
3 289 288 285
3 285 78 289
3 288 77 285
3 289 0 288
3 292 290 291
3 291 80 292
3 290 74 291
3 292 79 290
3 281 293 291
3 291 74 281
3 293 80 291
3 281 22 293
3 294 280 290
3 290 79 294
3 280 74 290
3 294 23 280
3 296 295 292
3 292 80 296
3 295 79 292
3 296 4 295
3 299 297 298
3 298 82 299
3 297 76 298
3 299 81 297
3 277 300 298
3 298 76 277
3 300 82 298
3 277 24 300
3 301 282 297
3 297 81 301
3 282 76 297
3 301 22 282
3 303 302 299
3 299 82 303
3 302 81 299
3 303 3 302
3 306 304 305
3 305 85 306
3 304 84 305
3 306 83 304
3 308 307 305
3 305 84 308
3 307 85 305
3 308 26 307
3 310 309 304
3 304 83 310
3 309 84 304
3 310 24 309
3 312 311 306
3 306 85 312
3 311 83 306
3 312 25 311
3 315 313 314
3 314 77 315
3 313 84 314
3 315 86 313
3 309 287 314
3 314 84 309
3 287 77 314
3 309 24 287
3 316 308 313
3 313 86 316
3 308 84 313
3 316 26 308
3 288 317 315
3 315 77 288
3 317 86 315
3 288 0 317
3 320 318 319
3 319 87 320
3 318 83 319
3 320 82 318
3 311 321 319
3 319 83 311
3 321 87 319
3 311 25 321
3 300 310 318
3 318 82 300
3 310 83 318
3 300 24 310
3 322 303 320
3 320 87 322
3 303 82 320
3 322 3 303
3 325 323 324
3 324 89 325
3 323 85 324
3 325 88 323
3 307 326 324
3 324 85 307
3 326 89 324
3 307 26 326
3 327 312 323
3 323 88 327
3 312 85 323
3 327 25 312
3 329 328 325
3 325 89 329
3 328 88 325
3 329 5 328
3 332 330 331
3 331 92 332
3 330 91 331
3 332 90 330
3 334 333 331
3 331 91 334
3 333 92 331
3 334 29 333
3 336 335 330
3 330 90 336
3 335 91 330
3 336 28 335
3 338 337 332
3 332 92 338
3 337 90 332
3 338 27 337
3 341 339 340
3 340 94 341
3 339 91 340
3 341 93 339
3 335 342 340
3 340 91 335
3 342 94 340
3 335 28 342
3 343 334 339
3 339 93 343
3 334 91 339
3 343 29 334
3 345 344 341
3 341 94 345
3 344 93 341
3 345 2 344
3 348 346 347
3 347 96 348
3 346 90 347
3 348 95 346
3 337 349 347
3 347 90 337
3 349 96 347
3 337 27 349
3 350 336 346
3 346 95 350
3 336 90 346
3 350 28 336
3 352 351 348
3 348 96 352
3 351 95 348
3 352 7 351
3 355 353 354
3 354 98 355
3 353 92 354
3 355 97 353
3 333 356 354
3 354 92 333
3 356 98 354
3 333 29 356
3 357 338 353
3 353 97 357
3 338 92 353
3 357 27 338
3 359 358 355
3 355 98 359
3 358 97 355
3 359 1 358
3 362 360 361
3 361 101 362
3 360 100 361
3 362 99 360
3 364 363 361
3 361 100 364
3 363 101 361
3 364 31 363
3 366 365 360
3 360 99 366
3 365 100 360
3 366 29 365
3 368 367 362
3 362 101 368
3 367 99 362
3 368 30 367
3 371 369 370
3 370 93 371
3 369 100 370
3 371 102 369
3 365 343 370
3 370 100 365
3 343 93 370
3 365 29 343
3 372 364 369
3 369 102 372
3 364 100 369
3 372 31 364
3 344 373 371
3 371 93 344
3 373 102 371
3 344 2 373
3 376 374 375
3 375 103 376
3 374 99 375
3 376 98 374
3 367 377 375
3 375 99 367
3 377 103 375
3 367 30 377
3 356 366 374
3 374 98 356
3 366 99 374
3 356 29 366
3 378 359 376
3 376 103 378
3 359 98 376
3 378 1 359
3 381 379 380
3 380 105 381
3 379 101 380
3 381 104 379
3 363 382 380
3 380 101 363
3 382 105 380
3 363 31 382
3 383 368 379
3 379 104 383
3 368 101 379
3 383 30 368
3 385 384 381
3 381 105 385
3 384 104 381
3 385 6 384
3 388 386 387
3 387 108 388
3 386 107 387
3 388 106 386
3 390 389 387
3 387 107 390
3 389 108 387
3 390 34 389
3 392 391 386
3 386 106 392
3 391 107 386
3 392 33 391
3 394 393 388
3 388 108 394
3 393 106 388
3 394 32 393
3 397 395 396
3 396 110 397
3 395 107 396
3 397 109 395
3 391 398 396
3 396 107 391
3 398 110 396
3 391 33 398
3 399 390 395
3 395 109 399
3 390 107 395
3 399 34 390
3 401 400 397
3 397 110 401
3 400 109 397
3 401 8 400
3 404 402 403
3 403 112 404
3 402 106 403
3 404 111 402
3 393 405 403
3 403 106 393
3 405 112 403
3 393 32 405
3 406 392 402
3 402 111 406
3 392 106 402
3 406 33 392
3 408 407 404
3 404 112 408
3 407 111 404
3 408 0 407
3 411 409 410
3 410 114 411
3 409 108 410
3 411 113 409
3 389 412 410
3 410 108 389
3 412 114 410
3 389 34 412
3 413 394 409
3 409 113 413
3 394 108 409
3 413 32 394
3 415 414 411
3 411 114 415
3 414 113 411
3 415 11 414
3 418 416 417
3 417 117 418
3 416 116 417
3 418 115 416
3 420 419 417
3 417 116 420
3 419 117 417
3 420 36 419
3 422 421 416
3 416 115 422
3 421 116 416
3 422 34 421
3 424 423 418
3 418 117 424
3 423 115 418
3 424 35 423
3 427 425 426
3 426 109 427
3 425 116 426
3 427 118 425
3 421 399 426
3 426 116 421
3 399 109 426
3 421 34 399
3 428 420 425
3 425 118 428
3 420 116 425
3 428 36 420
3 400 429 427
3 427 109 400
3 429 118 427
3 400 8 429
3 432 430 431
3 431 119 432
3 430 115 431
3 432 114 430
3 423 433 431
3 431 115 423
3 433 119 431
3 423 35 433
3 412 422 430
3 430 114 412
3 422 115 430
3 412 34 422
3 434 415 432
3 432 119 434
3 415 114 432
3 434 11 415
3 437 435 436
3 436 121 437
3 435 117 436
3 437 120 435
3 419 438 436
3 436 117 419
3 438 121 436
3 419 36 438
3 439 424 435
3 435 120 439
3 424 117 435
3 439 35 424
3 441 440 437
3 437 121 441
3 440 120 437
3 441 1 440
3 444 442 443
3 443 124 444
3 442 123 443
3 444 122 442
3 446 445 443
3 443 123 446
3 445 124 443
3 446 39 445
3 448 447 442
3 442 122 448
3 447 123 442
3 448 38 447
3 450 449 444
3 444 124 450
3 449 122 444
3 450 37 449
3 453 451 452
3 452 126 453
3 451 123 452
3 453 125 451
3 447 454 452
3 452 123 447
3 454 126 452
3 447 38 454
3 455 446 451
3 451 125 455
3 446 123 451
3 455 39 446
3 457 456 453
3 453 126 457
3 456 125 453
3 457 9 456
3 460 458 459
3 459 128 460
3 458 122 459
3 460 127 458
3 449 461 459
3 459 122 449
3 461 128 459
3 449 37 461
3 462 448 458
3 458 127 462
3 448 122 458
3 462 38 448
3 464 463 460
3 460 128 464
3 463 127 460
3 464 10 463
3 467 465 466
3 466 130 467
3 465 124 466
3 467 129 465
3 445 468 466
3 466 124 445
3 468 130 466
3 445 39 468
3 469 450 465
3 465 129 469
3 450 124 465
3 469 37 450
3 471 470 467
3 467 130 471
3 470 129 467
3 471 3 470
3 474 472 473
3 473 133 474
3 472 132 473
3 474 131 472
3 476 475 473
3 473 132 476
3 475 133 473
3 476 38 475
3 478 477 472
3 472 131 478
3 477 132 472
3 478 41 477
3 480 479 474
3 474 133 480
3 479 131 474
3 480 40 479
3 483 481 482
3 482 134 483
3 481 132 482
3 483 126 481
3 477 484 482
3 482 132 477
3 484 134 482
3 477 41 484
3 454 476 481
3 481 126 454
3 476 132 481
3 454 38 476
3 485 457 483
3 483 134 485
3 457 126 483
3 485 9 457
3 488 486 487
3 487 136 488
3 486 131 487
3 488 135 486
3 479 489 487
3 487 131 479
3 489 136 487
3 479 40 489
3 490 478 486
3 486 135 490
3 478 131 486
3 490 41 478
3 492 491 488
3 488 136 492
3 491 135 488
3 492 2 491
3 495 493 494
3 494 127 495
3 493 133 494
3 495 137 493
3 475 462 494
3 494 133 475
3 462 127 494
3 475 38 462
3 496 480 493
3 493 137 496
3 480 133 493
3 496 40 480
3 463 497 495
3 495 127 463
3 497 137 495
3 463 10 497
3 500 498 499
3 499 140 500
3 498 139 499
3 500 138 498
3 502 501 499
3 499 139 502
3 501 140 499
3 502 33 501
3 504 503 498
3 498 138 504
3 503 139 498
3 504 13 503
3 506 505 500
3 500 140 506
3 505 138 500
3 506 23 505
3 509 507 508
3 508 47 509
3 507 139 508
3 509 110 507
3 503 182 508
3 508 139 503
3 182 47 508
3 503 13 182
3 398 502 507
3 507 110 398
3 502 139 507
3 398 33 502
3 183 401 509
3 509 47 183
3 401 110 509
3 183 8 401
3 512 510 511
3 511 79 512
3 510 138 511
3 512 46 510
3 505 294 511
3 511 138 505
3 294 79 511
3 505 23 294
3 174 504 510
3 510 46 174
3 504 138 510
3 174 13 504
3 295 177 512
3 512 79 295
3 177 46 512
3 295 4 177
3 515 513 514
3 514 111 515
3 513 140 514
3 515 78 513
3 501 406 514
3 514 140 501
3 406 111 514
3 501 33 406
3 286 506 513
3 513 78 286
3 506 140 513
3 286 23 506
3 407 289 515
3 515 111 407
3 289 78 515
3 407 0 289
3 518 516 517
3 517 143 518
3 516 142 517
3 518 141 516
3 520 519 517
3 517 142 520
3 519 143 517
3 520 19 519
3 522 521 516
3 516 141 522
3 521 142 516
3 522 32 521
3 524 523 518
3 518 143 524
3 523 141 518
3 524 26 523
3 527 525 526
3 526 113 527
3 525 142 526
3 527 66 525
3 521 413 526
3 526 142 521
3 413 113 526
3 521 32 413
3 244 520 525
3 525 66 244
3 520 142 525
3 244 19 520
3 414 247 527
3 527 113 414
3 247 66 527
3 414 11 247
3 530 528 529
3 529 86 530
3 528 141 529
3 530 112 528
3 523 316 529
3 529 141 523
3 316 86 529
3 523 26 316
3 405 522 528
3 528 112 405
3 522 141 528
3 405 32 522
3 317 408 530
3 530 86 317
3 408 112 530
3 317 0 408
3 533 531 532
3 532 61 533
3 531 143 532
3 533 89 531
3 519 231 532
3 532 143 519
3 231 61 532
3 519 19 231
3 326 524 531
3 531 89 326
3 524 143 531
3 326 26 524
3 232 329 533
3 533 61 232
3 329 89 533
3 232 5 329
3 536 534 535
3 535 146 536
3 534 145 535
3 536 144 534
3 538 537 535
3 535 145 538
3 537 146 535
3 538 22 537
3 540 539 534
3 534 144 540
3 539 145 534
3 540 16 539
3 542 541 536
3 536 146 542
3 541 144 536
3 542 39 541
3 545 543 544
3 544 54 545
3 543 145 544
3 545 80 543
3 539 204 544
3 544 145 539
3 204 54 544
3 539 16 204
3 293 538 543
3 543 80 293
3 538 145 543
3 293 22 538
3 205 296 545
3 545 54 205
3 296 80 545
3 205 4 296
3 548 546 547
3 547 125 548
3 546 144 547
3 548 57 546
3 541 455 547
3 547 144 541
3 455 125 547
3 541 39 455
3 214 540 546
3 546 57 214
3 540 144 546
3 214 16 540
3 456 217 548
3 548 125 456
3 217 57 548
3 456 9 217
3 551 549 550
3 550 81 551
3 549 146 550
3 551 130 549
3 537 301 550
3 550 146 537
3 301 81 550
3 537 22 301
3 468 542 549
3 549 130 468
3 542 146 549
3 468 39 542
3 302 471 551
3 551 81 302
3 471 130 551
3 302 3 471
3 554 552 553
3 553 149 554
3 552 148 553
3 554 147 552
3 556 555 553
3 553 148 556
3 555 149 553
3 556 21 555
3 558 557 552
3 552 147 558
3 557 148 552
3 558 25 557
3 560 559 554
3 554 149 560
3 559 147 554
3 560 37 559
3 563 561 562
3 562 88 563
3 561 148 562
3 563 70 561
3 557 327 562
3 562 148 557
3 327 88 562
3 557 25 327
3 260 556 561
3 561 70 260
3 556 148 561
3 260 21 556
3 328 261 563
3 563 88 328
3 261 70 563
3 328 5 261
3 566 564 565
3 565 129 566
3 564 147 565
3 566 87 564
3 559 469 565
3 565 147 559
3 469 129 565
3 559 37 469
3 321 558 564
3 564 87 321
3 558 147 564
3 321 25 558
3 470 322 566
3 566 129 470
3 322 87 566
3 470 3 322
3 569 567 568
3 568 71 569
3 567 149 568
3 569 128 567
3 555 266 568
3 568 149 555
3 266 71 568
3 555 21 266
3 461 560 567
3 567 128 461
3 560 149 567
3 461 37 560
3 267 464 569
3 569 71 267
3 464 128 569
3 267 10 464
3 572 570 571
3 571 152 572
3 570 151 571
3 572 150 570
3 574 573 571
3 571 151 574
3 573 152 571
3 574 27 573
3 576 575 570
3 570 150 576
3 575 151 570
3 576 12 575
3 578 577 572
3 572 152 578
3 577 150 572
3 578 36 577
3 581 579 580
3 580 49 581
3 579 151 580
3 581 96 579
3 575 189 580
3 580 151 575
3 189 49 580
3 575 12 189
3 349 574 579
3 579 96 349
3 574 151 579
3 349 27 574
3 190 352 581
3 581 49 190
3 352 96 581
3 190 7 352
3 584 582 583
3 583 118 584
3 582 150 583
3 584 48 582
3 577 428 583
3 583 150 577
3 428 118 583
3 577 36 428
3 181 576 582
3 582 48 181
3 576 150 582
3 181 12 576
3 429 184 584
3 584 118 429
3 184 48 584
3 429 8 184
3 587 585 586
3 586 97 587
3 585 152 586
3 587 121 585
3 573 357 586
3 586 152 573
3 357 97 586
3 573 27 357
3 438 578 585
3 585 121 438
3 578 152 585
3 438 36 578
3 358 441 587
3 587 97 358
3 441 121 587
3 358 1 441
3 590 588 589
3 589 155 590
3 588 154 589
3 590 153 588
3 592 591 589
3 589 154 592
3 591 155 589
3 592 17 591
3 594 593 588
3 588 153 594
3 593 154 588
3 594 30 593
3 596 595 590
3 590 155 596
3 595 153 590
3 596 35 595
3 599 597 598
3 598 104 599
3 597 154 598
3 599 64 597
3 593 383 598
3 598 154 593
3 383 104 598
3 593 30 383
3 237 592 597
3 597 64 237
3 592 154 597
3 237 17 592
3 384 240 599
3 599 104 384
3 240 64 599
3 384 6 240
3 602 600 601
3 601 120 602
3 600 153 601
3 602 103 600
3 595 439 601
3 601 153 595
3 439 120 601
3 595 35 439
3 377 594 600
3 600 103 377
3 594 153 600
3 377 30 594
3 440 378 602
3 602 120 440
3 378 103 602
3 440 1 378
3 605 603 604
3 604 65 605
3 603 155 604
3 605 119 603
3 591 245 604
3 604 155 591
3 245 65 604
3 591 17 245
3 433 596 603
3 603 119 433
3 596 155 603
3 433 35 596
3 246 434 605
3 605 65 246
3 434 119 605
3 246 11 434
3 608 606 607
3 607 158 608
3 606 157 607
3 608 156 606
3 610 609 607
3 607 157 610
3 609 158 607
3 610 15 609
3 612 611 606
3 606 156 612
3 611 157 606
3 612 28 611
3 614 613 608
3 608 158 614
3 613 156 608
3 614 41 613
3 617 615 616
3 616 95 617
3 615 157 616
3 617 55 615
3 611 350 616
3 616 157 611
3 350 95 616
3 611 28 350
3 209 610 615
3 615 55 209
3 610 157 615
3 209 15 610
3 351 210 617
3 617 95 351
3 210 55 617
3 351 7 210
3 620 618 619
3 619 135 620
3 618 156 619
3 620 94 618
3 613 490 619
3 619 156 613
3 490 135 619
3 613 41 490
3 342 612 618
3 618 94 342
3 612 156 618
3 342 28 612
3 491 345 620
3 620 135 491
3 345 94 620
3 491 2 345
3 623 621 622
3 622 56 623
3 621 158 622
3 623 134 621
3 609 215 622
3 622 158 609
3 215 56 622
3 609 15 215
3 484 614 621
3 621 134 484
3 614 158 621
3 484 41 614
3 216 485 623
3 623 56 216
3 485 134 623
3 216 9 485
3 626 624 625
3 625 161 626
3 624 160 625
3 626 159 624
3 628 627 625
3 625 160 628
3 627 161 625
3 628 31 627
3 630 629 624
3 624 159 630
3 629 160 624
3 630 20 629
3 632 631 626
3 626 161 632
3 631 159 626
3 632 40 631
3 635 633 634
3 634 73 635
3 633 160 634
3 635 105 633
3 629 272 634
3 634 160 629
3 272 73 634
3 629 20 272
3 382 628 633
3 633 105 382
3 628 160 633
3 382 31 628
3 273 385 635
3 635 73 273
3 385 105 635
3 273 6 385
3 638 636 637
3 637 137 638
3 636 159 637
3 638 72 636
3 631 496 637
3 637 159 631
3 496 137 637
3 631 40 496
3 265 630 636
3 636 72 265
3 630 159 636
3 265 20 630
3 497 268 638
3 638 137 497
3 268 72 638
3 497 10 268
3 641 639 640
3 640 102 641
3 639 161 640
3 641 136 639
3 627 372 640
3 640 161 627
3 372 102 640
3 627 31 372
3 489 632 639
3 639 136 489
3 632 161 639
3 489 40 632
3 373 492 641
3 641 102 373
3 492 136 641
3 373 2 492
