# vtk DataFile Version 3.0
this file was written using fslvtkio
ASCII
DATASET POLYDATA
POINTS 642 float
124.757 104.062 152.36
117.571 105.415 153.936
119.294 107.724 147.91
125.864 106.826 145.325
124.326 102.466 149.337
123.948 109.276 149.451
120.1 110.146 150.281
120.459 103.706 150.403
121.343 99.803 155.281
122.07 105.556 144.881
121.599 111.733 143.479
121.313 106.069 155.854
120.37 101.763 152.594
123.098 100.824 152.246
122.3 102.785 149.973
121.659 105.049 148.131
123.594 104.237 146.866
120.463 108.452 153.886
122.114 110.406 149.903
122.858 107.849 152.861
120.48 112.553 147.173
123.34 111.151 146.334
126.036 103.93 146.734
125.441 102.311 150.986
126.108 105.577 149.09
125.165 108.575 147.086
124.466 106.683 151.054
118.743 104.032 152.079
119.522 105.331 149.306
118.733 106.8 150.899
118.591 108.136 152.797
119.34 109.683 148.798
123.104 104.627 154.46
123.798 101.326 154.697
121.246 102.732 157.217
118.564 106.038 156.519
118.687 102.727 155.47
124.677 109.47 143.071
121.478 108.139 142.801
124.416 105.605 143.544
119.798 110.008 145.218
120.318 106.855 145.902
121.646 100.909 152.501
122.614 101.768 151.062
121.496 102.154 151.349
123.368 102.511 149.635
123.838 101.618 150.659
122.308 99.8204 153.721
120.822 100.901 154.037
120.481 102.84 151.421
121.337 103.253 150.242
122.09 104.009 149.012
123.023 103.572 148.554
122.567 104.59 147.464
124.095 103.383 148.11
120.941 104.242 149.367
121.793 105.326 146.387
122.817 104.844 145.691
121.344 109.374 151.785
122.431 109.085 151.511
121.721 108.279 153.492
123.447 108.591 151.096
123.151 109.903 149.619
120.951 110.444 150.024
120.221 109.483 152.165
120.871 107.301 155.254
122.095 106.87 154.602
122.086 112.318 146.803
122.931 111.423 148.314
121.507 111.993 148.688
123.875 110.349 148.051
122.629 111.747 144.763
121.072 112.491 145.149
120.166 111.597 149.037
125.969 103.047 148.936
125.859 103.859 149.985
126.312 104.711 147.915
125.449 104.758 150.879
125.247 103.161 151.891
125.054 101.988 150.026
125.158 103.1 148.212
126.088 105.364 145.9
126.069 106.271 147.085
125.661 107.099 148.093
125.508 106.273 150.136
125.089 107.695 149.212
124.768 105.357 151.817
125.615 107.804 145.984
124.589 109.049 148.319
124.287 108.109 150.346
119.19 104.82 150.716
118.917 105.905 150.043
118.897 105.447 151.776
119.087 107.3 149.439
119.334 106.494 148.691
119.942 104.389 149.878
119.712 103.842 151.211
118 104.598 153.094
118.288 106.147 152.515
118.477 107.562 151.762
118.918 108.258 150.033
118.888 109.003 150.803
119.325 108.705 148.186
118.02 106.758 153.612
119.227 109.33 151.764
119.683 110.245 149.577
123.369 102.929 154.864
122.86 101.551 156.296
122.549 103.571 156.123
121.189 100.569 156.84
122.917 99.8683 155.333
124.394 102.789 153.575
124.131 104.241 153.531
122.307 105.303 155.479
121.265 104.708 156.753
119.623 104.487 157.44
119.368 102.291 157.091
117.831 104.098 156.89
119.788 101.086 155.546
120.162 106.188 156.655
117.591 105.735 155.408
117.81 104.204 154.901
123.16 108.886 142.108
123.026 106.773 142.489
124.755 107.343 142.561
123.076 105.586 144.02
121.903 106.622 143.702
121.294 110.193 142.592
123.189 110.918 142.849
125.326 107.911 144.075
125.511 106.26 144.031
120.027 108.344 145.344
120.792 107.544 144.168
120.38 109.253 143.804
121.153 106.201 145.229
119.641 107.346 146.861
119.281 108.775 146.553
120.497 111.008 144.138
124.446 101.313 151.737
123.703 100.322 153.569
124.682 101.696 152.894
123.72 105.718 152.727
123.069 106.287 153.892
123.685 107.174 152.053
124.02 104.727 145.098
124.783 103.878 146.534
125.489 104.711 144.795
125.006 109.271 145.02
124.434 109.999 146.412
124.024 110.601 144.596
119.546 102.054 154.058
119.257 102.602 152.355
118.33 103.11 153.654
118.253 107.18 154.912
119.27 108.363 153.663
119.447 107.412 155.567
119.985 106.066 147.693
120.564 105.202 148.722
120.905 105.843 146.896
119.808 111.673 145.754
119.633 111.217 147.654
119.246 110.139 146.784
122.223 101.363 151.866
122.081 101.995 151.225
121.531 101.494 151.931
121.947 102.564 150.714
122.462 102.322 150.47
122.847 101.251 151.676
122.374 100.737 152.464
121.025 101.342 152.577
120.893 101.829 152.002
122.986 102.134 150.286
123.274 101.696 150.941
123.523 101.968 150.064
123.514 101.264 151.478
122.851 102.647 149.789
123.842 102.426 149.469
124.088 101.871 149.919
121.954 100.399 153.104
121.239 100.837 153.245
121.583 100.344 153.887
120.527 101.314 153.286
122.759 100.26 152.977
121.848 99.7291 154.587
121.067 100.363 154.635
120.969 102.463 151.405
121.505 102.834 150.846
120.991 103.085 150.89
121.787 102.958 150.138
120.361 102.216 152.002
120.505 103.386 150.923
120.92 103.53 150.37
122.572 103.798 148.791
122.806 104.104 148.039
122.429 104.422 148.377
123.042 104.347 147.139
123.26 103.847 147.728
122.642 103.096 149.17
122.182 103.314 149.396
121.926 104.597 148.652
122.135 104.816 147.811
123.572 103.461 148.323
123.112 102.93 148.962
123.691 102.926 148.824
123.851 103.762 147.469
124.213 102.946 148.707
121.642 103.498 149.559
121.51 104.143 149.216
121.136 103.722 149.739
121.322 104.665 148.866
120.675 103.896 149.853
122.22 104.986 146.914
122.81 104.86 146.563
122.296 105.064 146.078
123.242 104.555 146.233
121.749 105.21 147.244
121.854 105.348 145.581
122.369 105.154 145.247
121.846 109.247 151.604
122.09 108.722 152.497
121.555 108.912 152.787
122.293 108.124 153.215
122.596 108.469 152.228
122.225 109.71 150.619
121.655 109.806 150.666
120.977 108.956 152.967
121.14 108.408 153.722
122.955 108.856 151.333
122.804 109.578 150.571
123.355 109.35 150.507
122.674 110.203 149.797
123.023 108.108 151.894
123.802 109.039 150.313
123.597 109.607 149.519
121.104 109.805 150.764
120.794 109.447 152.017
120.612 109.809 150.98
120.353 108.98 153.061
121.526 110.493 149.988
120.479 110.297 150.163
120.086 109.802 151.162
121.314 107.795 154.407
121.903 107.637 154.084
121.471 107.128 154.926
122.486 107.412 153.76
120.659 107.905 154.649
121.083 106.634 155.627
121.652 106.354 155.208
122.59 112.042 147.615
122.235 111.778 148.519
121.787 112.403 147.8
121.904 111.247 149.319
122.543 110.998 149.178
123.15 111.45 147.322
122.705 111.716 146.535
121.224 112.532 146.937
120.938 112.421 147.994
123.093 110.662 149.026
123.402 110.904 148.123
123.55 110.234 148.878
123.635 110.82 147.171
123.966 109.808 148.768
122.35 112.109 145.766
121.584 112.587 145.943
121.889 112.259 144.902
120.71 112.689 146.13
122.931 111.427 145.539
122.16 111.848 144.006
121.344 112.096 144.268
120.774 112.015 148.878
121.29 111.363 149.551
120.615 111.187 149.672
120.235 112.235 148.137
120.248 110.771 149.637
125.913 103.448 149.505
126.246 104.286 148.974
126.189 103.864 148.415
126.251 105.129 148.502
126.047 104.739 149.501
125.734 103.044 150.52
125.723 102.636 150.01
125.999 103.543 147.863
126.245 104.317 147.325
125.655 104.303 150.411
125.652 103.496 150.987
125.398 103.959 151.346
125.444 102.732 151.51
125.817 105.151 149.97
125.163 104.404 151.703
124.952 103.635 152.113
125.454 102.399 149.515
125.609 102.911 148.498
125.119 102.486 149.046
125.617 103.392 147.484
125.353 102.052 150.442
124.659 102.112 149.617
124.682 102.778 148.754
126.302 105.058 146.885
126.258 105.492 147.489
126.104 105.788 146.551
126.103 105.965 148.068
126.193 104.587 146.276
126.045 106.163 145.528
125.95 106.598 146.119
125.658 106.694 149.102
125.314 106.991 149.713
125.414 107.433 148.636
124.952 107.228 150.275
125.067 106.506 150.615
125.814 105.944 149.536
125.929 106.368 148.58
125.412 107.818 147.576
125.148 108.13 148.158
124.992 105.769 150.923
125.478 105.511 150.466
125.134 105.098 151.327
124.541 105.978 151.412
124.753 104.685 152.121
125.94 106.731 147.616
125.664 107.484 147.046
125.87 107.072 146.539
125.318 108.213 146.482
125.76 107.325 145.604
124.893 108.38 148.748
124.7 107.905 149.748
124.483 108.549 149.326
124.512 107.431 150.783
124.952 108.862 147.726
124.242 109.182 148.929
124.071 108.722 149.847
118.999 105.281 150.399
118.886 105.64 150.805
119.098 105.157 151.283
118.775 106.069 151.291
118.813 106.35 150.464
119.171 105.543 149.699
119.303 105.033 149.983
119.235 104.646 151.551
118.857 104.789 152.066
119.039 106.647 149.812
119.202 106.212 149.434
119.215 106.892 149.078
119.467 105.917 149.037
118.852 107.063 150.157
119.252 107.535 148.667
119.242 107.113 148.272
119.495 104.54 150.243
119.43 104.353 150.92
119.793 104.149 150.485
119.269 103.928 151.63
119.67 104.783 149.579
120.192 103.992 150.093
120.097 103.753 150.736
118.509 105.029 152.461
118.594 105.784 152.149
118.15 105.377 152.822
118.585 106.491 151.753
118.275 104.234 152.549
117.799 105.016 153.553
117.855 105.776 153.183
118.638 107.953 150.828
118.942 108.64 150.425
118.633 108.348 151.3
119.088 109.36 149.797
119.141 108.962 149.489
118.768 107.546 150.456
118.619 107.22 151.311
118.492 107.893 152.26
118.667 108.634 151.798
119.194 108.495 149.2
118.976 107.794 149.709
119.26 107.996 148.944
119.324 109.233 148.456
119.319 108.181 148.027
118.394 106.85 152.152
118.22 107.214 152.655
118.012 106.483 152.974
118.236 107.482 153.257
117.751 106.082 153.876
118.973 109.248 151.336
119.206 109.645 150.237
119.472 109.743 150.683
119.457 110.042 149.187
118.84 108.793 152.322
119.699 109.754 151.008
119.905 110.287 149.957
123.174 102.284 155.539
122.763 102.612 156.357
122.976 103.193 155.488
122.094 103.139 156.935
122.119 102.038 156.911
123.323 101.313 155.414
123.522 102.079 154.816
123.331 103.789 154.729
122.814 104.049 155.255
122.203 100.913 156.771
122.898 100.492 155.948
122.219 99.9418 156.354
123.44 100.53 155.111
121.203 101.651 157.109
121.214 99.9012 156.203
122.156 99.5244 155.459
123.907 102.827 154.239
123.752 103.599 154.166
124.211 103.494 153.596
123.561 104.397 153.968
124.106 102.09 154.125
124.635 103.457 152.949
124.533 104.167 152.97
122.336 104.439 155.708
121.965 104.107 156.588
121.854 104.952 156.107
121.273 103.796 157.154
122.675 104.895 154.906
121.828 105.721 155.754
121.298 105.514 156.331
119.422 103.337 157.421
118.491 103.127 157.179
118.648 104.266 157.368
118.266 103.336 156.162
118.681 102.371 156.445
120.279 102.489 157.201
120.372 103.568 157.387
119.019 105.352 157.143
118.13 105.22 156.929
119.439 101.518 156.487
120.229 101.464 157.013
120.273 100.651 156.467
119.197 101.953 155.555
120.53 100.352 155.458
120.489 104.578 157.215
119.841 105.383 157.006
120.657 105.434 156.767
119.351 106.139 156.729
120.812 106.153 156.288
117.665 105.002 156.169
117.834 104.128 155.812
117.613 104.876 155.306
118.288 103.576 155.286
117.916 105.913 156.075
117.488 105.544 154.608
117.568 104.819 154.374
123.074 107.764 142.157
123.922 106.978 142.236
124.043 108.122 142.18
124.611 106.292 142.819
123.768 106.097 142.882
122.276 107.504 142.643
122.202 108.505 142.246
124.039 109.246 142.399
124.716 108.469 142.712
123.066 106.067 143.298
122.349 106.675 143.058
122.481 106.052 143.764
121.759 107.313 143.288
123.692 105.604 143.696
122.512 105.56 144.437
121.986 106.012 144.31
122.219 109.561 142.325
123.196 109.966 142.342
122.26 110.64 142.492
123.987 110.244 142.835
121.285 109.143 142.531
121.388 111.179 142.916
122.304 111.461 143.088
125.105 107.656 143.314
125.172 106.687 143.334
125.364 107.07 144.003
125.033 105.897 143.642
125.07 108.642 143.525
125.685 107.354 144.703
125.781 106.598 144.636
120.385 107.96 144.737
120.567 108.374 143.843
120.258 108.879 144.537
120.706 108.688 143.143
121.117 107.894 143.481
120.525 107.216 145.069
120.2 107.579 145.639
119.944 109.206 145.184
120.197 109.714 144.489
121.358 107.127 143.891
120.965 106.798 144.659
121.496 106.437 144.412
120.743 106.558 145.559
121.641 105.852 145.035
119.834 107.836 146.145
119.533 108.58 145.916
119.458 108.03 146.673
119.438 109.385 145.864
119.965 107.142 146.323
119.401 107.542 147.386
119.242 108.178 147.262
120.304 110.158 143.928
120.447 109.683 142.998
120.596 110.717 143.255
120.211 110.57 144.639
120.84 111.55 143.647
124.223 100.765 152.592
124.487 100.922 153.352
124.65 101.434 152.278
124.374 101.477 153.865
123.815 100.659 154.228
123.409 100.508 152.913
123.864 101.051 151.942
125.108 101.701 151.376
125.21 102.027 151.96
123.5 99.9564 154.521
123.199 99.8851 153.641
122.7 99.5447 154.592
124.195 101.512 151.216
124.808 101.576 150.866
124.469 101.67 150.405
125.041 102.449 152.417
124.6 102.208 153.349
124.752 102.914 152.685
123.428 105.965 153.317
123.332 106.707 152.874
123.763 106.449 152.419
123.284 107.482 152.47
122.9 107.031 153.29
123.1 105.439 154.234
123.549 105.189 153.769
124.149 106.211 151.92
124.032 106.887 151.545
122.633 106.572 154.309
122.631 105.706 154.65
122.167 106.021 154.965
123.963 104.994 153.193
124.269 105.541 152.283
124.347 104.848 152.675
123.986 107.59 151.194
123.494 107.839 151.593
123.862 108.322 150.738
124.394 104.153 145.805
125.134 104.043 145.642
124.689 104.597 144.819
125.818 104.203 145.843
125.447 103.746 146.496
124.116 104.071 146.664
123.786 104.288 146.019
124.231 105.15 144.204
124.924 105.217 144.086
125.041 103.428 147.31
124.472 103.641 147.321
124.676 103.286 148.097
123.41 104.735 145.407
123.598 105.155 144.465
122.944 105.145 144.848
125.543 105.462 144.3
125.905 105.056 145.293
125.863 105.81 144.914
124.764 109.699 145.731
124.274 110.332 145.495
124.589 109.969 144.716
123.609 110.877 145.448
123.902 110.603 146.33
124.813 109.312 146.728
125.081 108.998 146.04
124.925 109.447 143.972
124.458 110.198 143.722
124.157 110.229 147.24
124.601 109.547 147.398
124.298 109.698 148.09
125.321 108.538 145.445
125.179 108.669 144.46
125.574 107.986 144.99
123.762 110.871 143.631
123.338 111.182 144.62
122.959 111.445 143.76
119.283 102.26 153.157
118.707 102.768 152.963
118.889 102.602 153.882
118.323 103.432 152.745
118.871 103.237 152.185
119.773 102.155 152.517
119.906 101.842 153.315
119.144 102.381 154.728
118.558 102.987 154.565
119.478 103.246 151.749
119.843 102.624 151.866
120.033 103.306 151.304
120.102 101.455 154.057
119.657 101.645 154.815
120.298 100.964 154.775
118.026 103.615 154.358
118.002 103.854 153.389
117.802 104.329 153.923
118.724 107.839 154.443
119.311 107.896 154.691
118.779 107.354 155.388
119.976 107.927 154.754
119.844 108.42 153.841
118.823 108.274 153.319
118.36 107.675 153.893
118.314 106.703 155.823
118.977 106.855 156.168
119.733 108.935 152.984
119.2 108.818 152.709
119.666 109.437 152.057
118.029 106.976 154.276
117.879 106.481 155.256
117.712 106.286 154.577
119.757 106.864 156.175
120.166 107.354 155.433
120.521 106.841 156.002
120.311 105.615 148.268
120.768 105.55 147.86
120.45 105.975 147.252
121.253 105.411 147.53
121.126 105.142 148.432
120.009 105.216 148.982
119.887 105.773 148.65
120.101 106.424 146.68
120.573 106.309 146.348
120.714 104.705 149.063
120.205 104.75 149.298
120.442 104.349 149.541
119.592 106.214 148.184
119.69 106.603 147.201
119.426 106.829 147.766
120.997 106.057 146.098
121.348 105.617 146.675
121.504 105.748 145.836
119.513 111.616 146.681
119.379 110.684 147.2
119.283 110.903 146.24
119.362 109.957 147.735
119.494 110.435 148.098
119.833 112.082 147.351
120.035 112.396 146.299
119.763 110.851 145.415
119.326 110.12 145.954
119.669 110.784 148.622
119.829 111.587 148.328
119.913 110.914 149.192
120.375 112.209 145.4
120.276 111.391 144.914
120.661 111.816 144.548
119.286 109.477 146.591
119.332 109.411 147.473
119.286 108.805 147.313
POLYGONS 1280  5120
3 164 162 163
3 163 44 164
3 162 43 163
3 164 42 162
3 166 165 163
3 163 43 166
3 165 44 163
3 166 14 165
3 168 167 162
3 162 42 168
3 167 43 162
3 168 13 167
3 170 169 164
3 164 44 170
3 169 42 164
3 170 12 169
3 173 171 172
3 172 46 173
3 171 43 172
3 173 45 171
3 167 174 172
3 172 43 167
3 174 46 172
3 167 13 174
3 175 166 171
3 171 45 175
3 166 43 171
3 175 14 166
3 177 176 173
3 173 46 177
3 176 45 173
3 177 4 176
3 180 178 179
3 179 48 180
3 178 42 179
3 180 47 178
3 169 181 179
3 179 42 169
3 181 48 179
3 169 12 181
3 182 168 178
3 178 47 182
3 168 42 178
3 182 13 168
3 184 183 180
3 180 48 184
3 183 47 180
3 184 8 183
3 187 185 186
3 186 50 187
3 185 44 186
3 187 49 185
3 165 188 186
3 186 44 165
3 188 50 186
3 165 14 188
3 189 170 185
3 185 49 189
3 170 44 185
3 189 12 170
3 191 190 187
3 187 50 191
3 190 49 187
3 191 7 190
3 194 192 193
3 193 53 194
3 192 52 193
3 194 51 192
3 196 195 193
3 193 52 196
3 195 53 193
3 196 16 195
3 198 197 192
3 192 51 198
3 197 52 192
3 198 14 197
3 200 199 194
3 194 53 200
3 199 51 194
3 200 15 199
3 203 201 202
3 202 45 203
3 201 52 202
3 203 54 201
3 197 175 202
3 202 52 197
3 175 45 202
3 197 14 175
3 204 196 201
3 201 54 204
3 196 52 201
3 204 16 196
3 176 205 203
3 203 45 176
3 205 54 203
3 176 4 205
3 208 206 207
3 207 55 208
3 206 51 207
3 208 50 206
3 199 209 207
3 207 51 199
3 209 55 207
3 199 15 209
3 188 198 206
3 206 50 188
3 198 51 206
3 188 14 198
3 210 191 208
3 208 55 210
3 191 50 208
3 210 7 191
3 213 211 212
3 212 57 213
3 211 53 212
3 213 56 211
3 195 214 212
3 212 53 195
3 214 57 212
3 195 16 214
3 215 200 211
3 211 56 215
3 200 53 211
3 215 15 200
3 217 216 213
3 213 57 217
3 216 56 213
3 217 9 216
3 220 218 219
3 219 60 220
3 218 59 219
3 220 58 218
3 222 221 219
3 219 59 222
3 221 60 219
3 222 19 221
3 224 223 218
3 218 58 224
3 223 59 218
3 224 18 223
3 226 225 220
3 220 60 226
3 225 58 220
3 226 17 225
3 229 227 228
3 228 62 229
3 227 59 228
3 229 61 227
3 223 230 228
3 228 59 223
3 230 62 228
3 223 18 230
3 231 222 227
3 227 61 231
3 222 59 227
3 231 19 222
3 233 232 229
3 229 62 233
3 232 61 229
3 233 5 232
3 236 234 235
3 235 64 236
3 234 58 235
3 236 63 234
3 225 237 235
3 235 58 225
3 237 64 235
3 225 17 237
3 238 224 234
3 234 63 238
3 224 58 234
3 238 18 224
3 240 239 236
3 236 64 240
3 239 63 236
3 240 6 239
3 243 241 242
3 242 66 243
3 241 60 242
3 243 65 241
3 221 244 242
3 242 60 221
3 244 66 242
3 221 19 244
3 245 226 241
3 241 65 245
3 226 60 241
3 245 17 226
3 247 246 243
3 243 66 247
3 246 65 243
3 247 11 246
3 250 248 249
3 249 69 250
3 248 68 249
3 250 67 248
3 252 251 249
3 249 68 252
3 251 69 249
3 252 18 251
3 254 253 248
3 248 67 254
3 253 68 248
3 254 21 253
3 256 255 250
3 250 69 256
3 255 67 250
3 256 20 255
3 259 257 258
3 258 70 259
3 257 68 258
3 259 62 257
3 253 260 258
3 258 68 253
3 260 70 258
3 253 21 260
3 230 252 257
3 257 62 230
3 252 68 257
3 230 18 252
3 261 233 259
3 259 70 261
3 233 62 259
3 261 5 233
3 264 262 263
3 263 72 264
3 262 67 263
3 264 71 262
3 255 265 263
3 263 67 255
3 265 72 263
3 255 20 265
3 266 254 262
3 262 71 266
3 254 67 262
3 266 21 254
3 268 267 264
3 264 72 268
3 267 71 264
3 268 10 267
3 271 269 270
3 270 63 271
3 269 69 270
3 271 73 269
3 251 238 270
3 270 69 251
3 238 63 270
3 251 18 238
3 272 256 269
3 269 73 272
3 256 69 269
3 272 20 256
3 239 273 271
3 271 63 239
3 273 73 271
3 239 6 273
3 276 274 275
3 275 76 276
3 274 75 275
3 276 74 274
3 278 277 275
3 275 75 278
3 277 76 275
3 278 24 277
3 280 279 274
3 274 74 280
3 279 75 274
3 280 23 279
3 282 281 276
3 276 76 282
3 281 74 276
3 282 22 281
3 285 283 284
3 284 78 285
3 283 75 284
3 285 77 283
3 279 286 284
3 284 75 279
3 286 78 284
3 279 23 286
3 287 278 283
3 283 77 287
3 278 75 283
3 287 24 278
3 289 288 285
3 285 78 289
3 288 77 285
3 289 0 288
3 292 290 291
3 291 80 292
3 290 74 291
3 292 79 290
3 281 293 291
3 291 74 281
3 293 80 291
3 281 22 293
3 294 280 290
3 290 79 294
3 280 74 290
3 294 23 280
3 296 295 292
3 292 80 296
3 295 79 292
3 296 4 295
3 299 297 298
3 298 82 299
3 297 76 298
3 299 81 297
3 277 300 298
3 298 76 277
3 300 82 298
3 277 24 300
3 301 282 297
3 297 81 301
3 282 76 297
3 301 22 282
3 303 302 299
3 299 82 303
3 302 81 299
3 303 3 302
3 306 304 305
3 305 85 306
3 304 84 305
3 306 83 304
3 308 307 305
3 305 84 308
3 307 85 305
3 308 26 307
3 310 309 304
3 304 83 310
3 309 84 304
3 310 24 309
3 312 311 306
3 306 85 312
3 311 83 306
3 312 25 311
3 315 313 314
3 314 77 315
3 313 84 314
3 315 86 313
3 309 287 314
3 314 84 309
3 287 77 314
3 309 24 287
3 316 308 313
3 313 86 316
3 308 84 313
3 316 26 308
3 288 317 315
3 315 77 288
3 317 86 315
3 288 0 317
3 320 318 319
3 319 87 320
3 318 83 319
3 320 82 318
3 311 321 319
3 319 83 311
3 321 87 319
3 311 25 321
3 300 310 318
3 318 82 300
3 310 83 318
3 300 24 310
3 322 303 320
3 320 87 322
3 303 82 320
3 322 3 303
3 325 323 324
3 324 89 325
3 323 85 324
3 325 88 323
3 307 326 324
3 324 85 307
3 326 89 324
3 307 26 326
3 327 312 323
3 323 88 327
3 312 85 323
3 327 25 312
3 329 328 325
3 325 89 329
3 328 88 325
3 329 5 328
3 332 330 331
3 331 92 332
3 330 91 331
3 332 90 330
3 334 333 331
3 331 91 334
3 333 92 331
3 334 29 333
3 336 335 330
3 330 90 336
3 335 91 330
3 336 28 335
3 338 337 332
3 332 92 338
3 337 90 332
3 338 27 337
3 341 339 340
3 340 94 341
3 339 91 340
3 341 93 339
3 335 342 340
3 340 91 335
3 342 94 340
3 335 28 342
3 343 334 339
3 339 93 343
3 334 91 339
3 343 29 334
3 345 344 341
3 341 94 345
3 344 93 341
3 345 2 344
3 348 346 347
3 347 96 348
3 346 90 347
3 348 95 346
3 337 349 347
3 347 90 337
3 349 96 347
3 337 27 349
3 350 336 346
3 346 95 350
3 336 90 346
3 350 28 336
3 352 351 348
3 348 96 352
3 351 95 348
3 352 7 351
3 355 353 354
3 354 98 355
3 353 92 354
3 355 97 353
3 333 356 354
3 354 92 333
3 356 98 354
3 333 29 356
3 357 338 353
3 353 97 357
3 338 92 353
3 357 27 338
3 359 358 355
3 355 98 359
3 358 97 355
3 359 1 358
3 362 360 361
3 361 101 362
3 360 100 361
3 362 99 360
3 364 363 361
3 361 100 364
3 363 101 361
3 364 31 363
3 366 365 360
3 360 99 366
3 365 100 360
3 366 29 365
3 368 367 362
3 362 101 368
3 367 99 362
3 368 30 367
3 371 369 370
3 370 93 371
3 369 100 370
3 371 102 369
3 365 343 370
3 370 100 365
3 343 93 370
3 365 29 343
3 372 364 369
3 369 102 372
3 364 100 369
3 372 31 364
3 344 373 371
3 371 93 344
3 373 102 371
3 344 2 373
3 376 374 375
3 375 103 376
3 374 99 375
3 376 98 374
3 367 377 375
3 375 99 367
3 377 103 375
3 367 30 377
3 356 366 374
3 374 98 356
3 366 99 374
3 356 29 366
3 378 359 376
3 376 103 378
3 359 98 376
3 378 1 359
3 381 379 380
3 380 105 381
3 379 101 380
3 381 104 379
3 363 382 380
3 380 101 363
3 382 105 380
3 363 31 382
3 383 368 379
3 379 104 383
3 368 101 379
3 383 30 368
3 385 384 381
3 381 105 385
3 384 104 381
3 385 6 384
3 388 386 387
3 387 108 388
3 386 107 387
3 388 106 386
3 390 389 387
3 387 107 390
3 389 108 387
3 390 34 389
3 392 391 386
3 386 106 392
3 391 107 386
3 392 33 391
3 394 393 388
3 388 108 394
3 393 106 388
3 394 32 393
3 397 395 396
3 396 110 397
3 395 107 396
3 397 109 395
3 391 398 396
3 396 107 391
3 398 110 396
3 391 33 398
3 399 390 395
3 395 109 399
3 390 107 395
3 399 34 390
3 401 400 397
3 397 110 401
3 400 109 397
3 401 8 400
3 404 402 403
3 403 112 404
3 402 106 403
3 404 111 402
3 393 405 403
3 403 106 393
3 405 112 403
3 393 32 405
3 406 392 402
3 402 111 406
3 392 106 402
3 406 33 392
3 408 407 404
3 404 112 408
3 407 111 404
3 408 0 407
3 411 409 410
3 410 114 411
3 409 108 410
3 411 113 409
3 389 412 410
3 410 108 389
3 412 114 410
3 389 34 412
3 413 394 409
3 409 113 413
3 394 108 409
3 413 32 394
3 415 414 411
3 411 114 415
3 414 113 411
3 415 11 414
3 418 416 417
3 417 117 418
3 416 116 417
3 418 115 416
3 420 419 417
3 417 116 420
3 419 117 417
3 420 36 419
3 422 421 416
3 416 115 422
3 421 116 416
3 422 34 421
3 424 423 418
3 418 117 424
3 423 115 418
3 424 35 423
3 427 425 426
3 426 109 427
3 425 116 426
3 427 118 425
3 421 399 426
3 426 116 421
3 399 109 426
3 421 34 399
3 428 420 425
3 425 118 428
3 420 116 425
3 428 36 420
3 400 429 427
3 427 109 400
3 429 118 427
3 400 8 429
3 432 430 431
3 431 119 432
3 430 115 431
3 432 114 430
3 423 433 431
3 431 115 423
3 433 119 431
3 423 35 433
3 412 422 430
3 430 114 412
3 422 115 430
3 412 34 422
3 434 415 432
3 432 119 434
3 415 114 432
3 434 11 415
3 437 435 436
3 436 121 437
3 435 117 436
3 437 120 435
3 419 438 436
3 436 117 419
3 438 121 436
3 419 36 438
3 439 424 435
3 435 120 439
3 424 117 435
3 439 35 424
3 441 440 437
3 437 121 441
3 440 120 437
3 441 1 440
3 444 442 443
3 443 124 444
3 442 123 443
3 444 122 442
3 446 445 443
3 443 123 446
3 445 124 443
3 446 39 445
3 448 447 442
3 442 122 448
3 447 123 442
3 448 38 447
3 450 449 444
3 444 124 450
3 449 122 444
3 450 37 449
3 453 451 452
3 452 126 453
3 451 123 452
3 453 125 451
3 447 454 452
3 452 123 447
3 454 126 452
3 447 38 454
3 455 446 451
3 451 125 455
3 446 123 451
3 455 39 446
3 457 456 453
3 453 126 457
3 456 125 453
3 457 9 456
3 460 458 459
3 459 128 460
3 458 122 459
3 460 127 458
3 449 461 459
3 459 122 449
3 461 128 459
3 449 37 461
3 462 448 458
3 458 127 462
3 448 122 458
3 462 38 448
3 464 463 460
3 460 128 464
3 463 127 460
3 464 10 463
3 467 465 466
3 466 130 467
3 465 124 466
3 467 129 465
3 445 468 466
3 466 124 445
3 468 130 466
3 445 39 468
3 469 450 465
3 465 129 469
3 450 124 465
3 469 37 450
3 471 470 467
3 467 130 471
3 470 129 467
3 471 3 470
3 474 472 473
3 473 133 474
3 472 132 473
3 474 131 472
3 476 475 473
3 473 132 476
3 475 133 473
3 476 38 475
3 478 477 472
3 472 131 478
3 477 132 472
3 478 41 477
3 480 479 474
3 474 133 480
3 479 131 474
3 480 40 479
3 483 481 482
3 482 134 483
3 481 132 482
3 483 126 481
3 477 484 482
3 482 132 477
3 484 134 482
3 477 41 484
3 454 476 481
3 481 126 454
3 476 132 481
3 454 38 476
3 485 457 483
3 483 134 485
3 457 126 483
3 485 9 457
3 488 486 487
3 487 136 488
3 486 131 487
3 488 135 486
3 479 489 487
3 487 131 479
3 489 136 487
3 479 40 489
3 490 478 486
3 486 135 490
3 478 131 486
3 490 41 478
3 492 491 488
3 488 136 492
3 491 135 488
3 492 2 491
3 495 493 494
3 494 127 495
3 493 133 494
3 495 137 493
3 475 462 494
3 494 133 475
3 462 127 494
3 475 38 462
3 496 480 493
3 493 137 496
3 480 133 493
3 496 40 480
3 463 497 495
3 495 127 463
3 497 137 495
3 463 10 497
3 500 498 499
3 499 140 500
3 498 139 499
3 500 138 498
3 502 501 499
3 499 139 502
3 501 140 499
3 502 33 501
3 504 503 498
3 498 138 504
3 503 139 498
3 504 13 503
3 506 505 500
3 500 140 506
3 505 138 500
3 506 23 505
3 509 507 508
3 508 47 509
3 507 139 508
3 509 110 507
3 503 182 508
3 508 139 503
3 182 47 508
3 503 13 182
3 398 502 507
3 507 110 398
3 502 139 507
3 398 33 502
3 183 401 509
3 509 47 183
3 401 110 509
3 183 8 401
3 512 510 511
3 511 79 512
3 510 138 511
3 512 46 510
3 505 294 511
3 511 138 505
3 294 79 511
3 505 23 294
3 174 504 510
3 510 46 174
3 504 138 510
3 174 13 504
3 295 177 512
3 512 79 295
3 177 46 512
3 295 4 177
3 515 513 514
3 514 111 515
3 513 140 514
3 515 78 513
3 501 406 514
3 514 140 501
3 406 111 514
3 501 33 406
3 286 506 513
3 513 78 286
3 506 140 513
3 286 23 506
3 407 289 515
3 515 111 407
3 289 78 515
3 407 0 289
3 518 516 517
3 517 143 518
3 516 142 517
3 518 141 516
3 520 519 517
3 517 142 520
3 519 143 517
3 520 19 519
3 522 521 516
3 516 141 522
3 521 142 516
3 522 32 521
3 524 523 518
3 518 143 524
3 523 141 518
3 524 26 523
3 527 525 526
3 526 113 527
3 525 142 526
3 527 66 525
3 521 413 526
3 526 142 521
3 413 113 526
3 521 32 413
3 244 520 525
3 525 66 244
3 520 142 525
3 244 19 520
3 414 247 527
3 527 113 414
3 247 66 527
3 414 11 247
3 530 528 529
3 529 86 530
3 528 141 529
3 530 112 528
3 523 316 529
3 529 141 523
3 316 86 529
3 523 26 316
3 405 522 528
3 528 112 405
3 522 141 528
3 405 32 522
3 317 408 530
3 530 86 317
3 408 112 530
3 317 0 408
3 533 531 532
3 532 61 533
3 531 143 532
3 533 89 531
3 519 231 532
3 532 143 519
3 231 61 532
3 519 19 231
3 326 524 531
3 531 89 326
3 524 143 531
3 326 26 524
3 232 329 533
3 533 61 232
3 329 89 533
3 232 5 329
3 536 534 535
3 535 146 536
3 534 145 535
3 536 144 534
3 538 537 535
3 535 145 538
3 537 146 535
3 538 22 537
3 540 539 534
3 534 144 540
3 539 145 534
3 540 16 539
3 542 541 536
3 536 146 542
3 541 144 536
3 542 39 541
3 545 543 544
3 544 54 545
3 543 145 544
3 545 80 543
3 539 204 544
3 544 145 539
3 204 54 544
3 539 16 204
3 293 538 543
3 543 80 293
3 538 145 543
3 293 22 538
3 205 296 545
3 545 54 205
3 296 80 545
3 205 4 296
3 548 546 547
3 547 125 548
3 546 144 547
3 548 57 546
3 541 455 547
3 547 144 541
3 455 125 547
3 541 39 455
3 214 540 546
3 546 57 214
3 540 144 546
3 214 16 540
3 456 217 548
3 548 125 456
3 217 57 548
3 456 9 217
3 551 549 550
3 550 81 551
3 549 146 550
3 551 130 549
3 537 301 550
3 550 146 537
3 301 81 550
3 537 22 301
3 468 542 549
3 549 130 468
3 542 146 549
3 468 39 542
3 302 471 551
3 551 81 302
3 471 130 551
3 302 3 471
3 554 552 553
3 553 149 554
3 552 148 553
3 554 147 552
3 556 555 553
3 553 148 556
3 555 149 553
3 556 21 555
3 558 557 552
3 552 147 558
3 557 148 552
3 558 25 557
3 560 559 554
3 554 149 560
3 559 147 554
3 560 37 559
3 563 561 562
3 562 88 563
3 561 148 562
3 563 70 561
3 557 327 562
3 562 148 557
3 327 88 562
3 557 25 327
3 260 556 561
3 561 70 260
3 556 148 561
3 260 21 556
3 328 261 563
3 563 88 328
3 261 70 563
3 328 5 261
3 566 564 565
3 565 129 566
3 564 147 565
3 566 87 564
3 559 469 565
3 565 147 559
3 469 129 565
3 559 37 469
3 321 558 564
3 564 87 321
3 558 147 564
3 321 25 558
3 470 322 566
3 566 129 470
3 322 87 566
3 470 3 322
3 569 567 568
3 568 71 569
3 567 149 568
3 569 128 567
3 555 266 568
3 568 149 555
3 266 71 568
3 555 21 266
3 461 560 567
3 567 128 461
3 560 149 567
3 461 37 560
3 267 464 569
3 569 71 267
3 464 128 569
3 267 10 464
3 572 570 571
3 571 152 572
3 570 151 571
3 572 150 570
3 574 573 571
3 571 151 574
3 573 152 571
3 574 27 573
3 576 575 570
3 570 150 576
3 575 151 570
3 576 12 575
3 578 577 572
3 572 152 578
3 577 150 572
3 578 36 577
3 581 579 580
3 580 49 581
3 579 151 580
3 581 96 579
3 575 189 580
3 580 151 575
3 189 49 580
3 575 12 189
3 349 574 579
3 579 96 349
3 574 151 579
3 349 27 574
3 190 352 581
3 581 49 190
3 352 96 581
3 190 7 352
3 584 582 583
3 583 118 584
3 582 150 583
3 584 48 582
3 577 428 583
3 583 150 577
3 428 118 583
3 577 36 428
3 181 576 582
3 582 48 181
3 576 150 582
3 181 12 576
3 429 184 584
3 584 118 429
3 184 48 584
3 429 8 184
3 587 585 586
3 586 97 587
3 585 152 586
3 587 121 585
3 573 357 586
3 586 152 573
3 357 97 586
3 573 27 357
3 438 578 585
3 585 121 438
3 578 152 585
3 438 36 578
3 358 441 587
3 587 97 358
3 441 121 587
3 358 1 441
3 590 588 589
3 589 155 590
3 588 154 589
3 590 153 588
3 592 591 589
3 589 154 592
3 591 155 589
3 592 17 591
3 594 593 588
3 588 153 594
3 593 154 588
3 594 30 593
3 596 595 590
3 590 155 596
3 595 153 590
3 596 35 595
3 599 597 598
3 598 104 599
3 597 154 598
3 599 64 597
3 593 383 598
3 598 154 593
3 383 104 598
3 593 30 383
3 237 592 597
3 597 64 237
3 592 154 597
3 237 17 592
3 384 240 599
3 599 104 384
3 240 64 599
3 384 6 240
3 602 600 601
3 601 120 602
3 600 153 601
3 602 103 600
3 595 439 601
3 601 153 595
3 439 120 601
3 595 35 439
3 377 594 600
3 600 103 377
3 594 153 600
3 377 30 594
3 440 378 602
3 602 120 440
3 378 103 602
3 440 1 378
3 605 603 604
3 604 65 605
3 603 155 604
3 605 119 603
3 591 245 604
3 604 155 591
3 245 65 604
3 591 17 245
3 433 596 603
3 603 119 433
3 596 155 603
3 433 35 596
3 246 434 605
3 605 65 246
3 434 119 605
3 246 11 434
3 608 606 607
3 607 158 608
3 606 157 607
3 608 156 606
3 610 609 607
3 607 157 610
3 609 158 607
3 610 15 609
3 612 611 606
3 606 156 612
3 611 157 606
3 612 28 611
3 614 613 608
3 608 158 614
3 613 156 608
3 614 41 613
3 617 615 616
3 616 95 617
3 615 157 616
3 617 55 615
3 611 350 616
3 616 157 611
3 350 95 616
3 611 28 350
3 209 610 615
3 615 55 209
3 610 157 615
3 209 15 610
3 351 210 617
3 617 95 351
3 210 55 617
3 351 7 210
3 620 618 619
3 619 135 620
3 618 156 619
3 620 94 618
3 613 490 619
3 619 156 613
3 490 135 619
3 613 41 490
3 342 612 618
3 618 94 342
3 612 156 618
3 342 28 612
3 491 345 620
3 620 135 491
3 345 94 620
3 491 2 345
3 623 621 622
3 622 56 623
3 621 158 622
3 623 134 621
3 609 215 622
3 622 158 609
3 215 56 622
3 609 15 215
3 484 614 621
3 621 134 484
3 614 158 621
3 484 41 614
3 216 485 623
3 623 56 216
3 485 134 623
3 216 9 485
3 626 624 625
3 625 161 626
3 624 160 625
3 626 159 624
3 628 627 625
3 625 160 628
3 627 161 625
3 628 31 627
3 630 629 624
3 624 159 630
3 629 160 624
3 630 20 629
3 632 631 626
3 626 161 632
3 631 159 626
3 632 40 631
3 635 633 634
3 634 73 635
3 633 160 634
3 635 105 633
3 629 272 634
3 634 160 629
3 272 73 634
3 629 20 272
3 382 628 633
3 633 105 382
3 628 160 633
3 382 31 628
3 273 385 635
3 635 73 273
3 385 105 635
3 273 6 385
3 638 636 637
3 637 137 638
3 636 159 637
3 638 72 636
3 631 496 637
3 637 159 631
3 496 137 637
3 631 40 496
3 265 630 636
3 636 72 265
3 630 159 636
3 265 20 630
3 497 268 638
3 638 137 497
3 268 72 638
3 497 10 268
3 641 639 640
3 640 102 641
3 639 161 640
3 641 136 639
3 627 372 640
3 640 161 627
3 372 102 640
3 627 31 372
3 489 632 639
3 639 136 489
3 632 161 639
3 489 40 632
3 373 492 641
3 641 102 373
3 492 136 641
3 373 2 492
